<svg width="51" height="55" viewBox="0 0 51 55" fill="none" xmlns="http://www.w3.org/2000/svg">
<path d="M33.375 24.3107C34.6898 21.5951 34.2344 20.2459 33.5641 19.6013C32.8938 18.9568 31.5274 18.4498 28.7172 19.8591C27.6345 20.4078 26.6046 21.0551 25.6406 21.7927C24.6848 21.0564 23.6637 20.4092 22.5898 19.8591C19.7797 18.4498 18.4047 18.9396 17.743 19.6013C17.0813 20.263 16.6172 21.5951 17.932 24.3107C15.8609 25.0326 14.4945 26.0982 14.4945 27.499C14.4945 28.8998 15.8867 29.9654 17.932 30.6873C16.6172 33.4029 17.0727 34.7521 17.743 35.3966C17.9701 35.6164 18.2397 35.7877 18.5352 35.9C18.8307 36.0123 19.1459 36.0632 19.4617 36.0498C20.5521 35.9888 21.6138 35.6771 22.5641 35.1388C23.6468 34.5901 24.6767 33.9429 25.6406 33.2052C26.5964 33.9415 27.6176 34.5888 28.6914 35.1388C29.638 35.6921 30.6998 36.0186 31.7938 36.0927C32.1096 36.1062 32.4248 36.0553 32.7203 35.943C33.0158 35.8307 33.2853 35.6594 33.5125 35.4396C34.1656 34.7951 34.6383 33.4459 33.3234 30.7302C35.3945 30.0084 36.7609 28.9427 36.7609 27.5419C36.7609 26.1412 35.4203 25.0326 33.375 24.3107ZM29.4906 21.3888C30.2023 20.9836 30.9945 20.7401 31.8109 20.6755C32.0021 20.654 32.1946 20.7029 32.3524 20.813C32.55 21.0107 32.6789 21.8615 31.7766 23.6748L31.6906 23.8295C30.2769 23.5178 28.8396 23.3252 27.3938 23.2537L27.007 22.9185C27.783 22.3421 28.605 21.8305 29.4648 21.3888H29.4906ZM27.4883 29.3209C27.2391 29.5787 26.9813 29.8193 26.7234 30.0599L25.6406 30.0771H24.5836C24.3258 29.8365 24.068 29.5959 23.8188 29.338C23.2172 28.7365 22.6586 28.1263 22.143 27.5162C22.6586 26.906 23.2172 26.2959 23.8188 25.6943C24.068 25.4365 24.3258 25.1959 24.5836 24.9552L25.6406 24.9209H26.6977C26.9555 25.1615 27.2133 25.4021 27.4625 25.6599C28.0641 26.2615 28.6227 26.8716 29.1813 27.4818C28.6227 28.1091 28.0641 28.7193 27.4625 29.3209H27.4883ZM30.2469 28.874C30.4274 29.1232 30.5992 29.3724 30.7625 29.613C30.3328 29.699 29.9031 29.7763 29.3789 29.8451C29.6539 29.5185 29.9375 29.2177 30.2211 28.874H30.2469ZM21.9539 29.8451C21.4641 29.7763 21 29.699 20.5703 29.613C20.7336 29.3724 20.9055 29.1232 21.0859 28.874C21.3438 29.2177 21.6273 29.5185 21.9281 29.8451H21.9539ZM21.0945 26.124C20.9141 25.8748 20.7422 25.6255 20.5789 25.3849C21.0086 25.299 21.4383 25.2216 21.9625 25.1529C21.6273 25.4795 21.3438 25.7802 21.0602 26.124H21.0945ZM29.3875 25.1529C29.8773 25.2216 30.3414 25.299 30.7711 25.3849C30.6078 25.6255 30.4359 25.8748 30.2555 26.124C29.9375 25.7802 29.6539 25.4795 29.3531 25.1529H29.3875ZM19.5305 23.6748C18.6281 21.8615 18.757 21.0107 18.9547 20.813C19.1124 20.7029 19.3049 20.654 19.4961 20.6755C20.3125 20.7401 21.1047 20.9836 21.8164 21.3888C22.6733 21.8309 23.4924 22.3425 24.2656 22.9185L23.8789 23.2537C22.4331 23.3252 20.9957 23.5178 19.582 23.8295L19.5305 23.6748ZM16.1875 27.499C16.1875 27.0435 17.0469 26.3732 18.7656 25.8318C19.1094 26.3818 19.4961 26.9404 19.9172 27.499C19.4961 28.0576 19.1094 28.6162 18.7656 29.1662C17.0469 28.6248 16.1875 27.9545 16.1875 27.499ZM21.8164 33.6091C20.0031 34.4685 19.1523 34.3826 18.9547 34.1849C18.757 33.9873 18.6281 33.1365 19.5305 31.3232L19.6164 31.1685C21.0301 31.4801 22.4674 31.6727 23.9133 31.7443L24.3 32.0795C23.5158 32.6571 22.6851 33.1687 21.8164 33.6091ZM31.7508 31.3232C32.6102 33.1365 32.5242 33.9873 32.3266 34.1849C32.1289 34.3826 31.2781 34.5115 29.4648 33.6091C28.608 33.1671 27.7888 32.6555 27.0156 32.0795L27.4023 31.7443C28.8482 31.6727 30.2855 31.4801 31.6992 31.1685L31.7508 31.3232ZM32.5156 29.1662C32.1719 28.6162 31.7852 28.0576 31.3641 27.499C31.7852 26.9404 32.1719 26.3818 32.5156 25.8318C34.2344 26.3732 35.0938 27.0435 35.0938 27.499C35.0938 27.9545 34.2344 28.6248 32.5156 29.1662Z" fill="#DADBDD"/>
<path d="M48.8438 36.2484V33.5156C48.8438 32.8319 48.5721 32.1761 48.0886 31.6926C47.6051 31.2091 46.9494 30.9375 46.2656 30.9375H40.25V24.0625H46.2656C46.9494 24.0625 47.6051 23.7909 48.0886 23.3074C48.5721 22.8239 48.8438 22.1681 48.8438 21.4844V18.7516C49.4171 18.5488 49.9004 18.1499 50.2081 17.6254C50.5159 17.1008 50.6282 16.4843 50.5254 15.8849C50.4225 15.2855 50.1111 14.7418 49.6461 14.3498C49.1811 13.9578 48.5925 13.7428 47.9844 13.7428C47.3762 13.7428 46.7876 13.9578 46.3226 14.3498C45.8577 14.7418 45.5462 15.2855 45.4434 15.8849C45.3405 16.4843 45.4529 17.1008 45.7606 17.6254C46.0684 18.1499 46.5516 18.5488 47.125 18.7516V21.4844C47.125 21.7123 47.0345 21.9309 46.8733 22.092C46.7121 22.2532 46.4936 22.3438 46.2656 22.3438H40.25V2.57812C40.25 1.89436 39.9784 1.23861 39.4949 0.755115C39.0114 0.271623 38.3556 0 37.6719 0H13.6094C12.9256 0 12.2699 0.271623 11.7864 0.755115C11.3029 1.23861 11.0313 1.89436 11.0313 2.57812V22.3438H5.01563C4.78771 22.3438 4.56912 22.2532 4.40796 22.092C4.2468 21.9309 4.15626 21.7123 4.15626 21.4844V18.7516C4.72964 18.5488 5.2129 18.1499 5.52063 17.6254C5.82835 17.1008 5.94072 16.4843 5.83788 15.8849C5.73503 15.2855 5.4236 14.7418 4.95862 14.3498C4.49364 13.9578 3.90505 13.7428 3.29688 13.7428C2.68871 13.7428 2.10012 13.9578 1.63514 14.3498C1.17016 14.7418 0.858727 15.2855 0.755884 15.8849C0.653042 16.4843 0.765412 17.1008 1.07313 17.6254C1.38086 18.1499 1.86412 18.5488 2.43751 18.7516V21.4844C2.43751 22.1681 2.70913 22.8239 3.19262 23.3074C3.67611 23.7909 4.33187 24.0625 5.01563 24.0625H11.0313V30.9375H5.01563C4.33187 30.9375 3.67611 31.2091 3.19262 31.6926C2.70913 32.1761 2.43751 32.8319 2.43751 33.5156V36.2484C1.86412 36.4512 1.38086 36.8501 1.07313 37.3746C0.765412 37.8992 0.653042 38.5157 0.755884 39.1151C0.858727 39.7145 1.17016 40.2583 1.63514 40.6502C2.10012 41.0422 2.68871 41.2572 3.29688 41.2572C3.90505 41.2572 4.49364 41.0422 4.95862 40.6502C5.4236 40.2583 5.73503 39.7145 5.83788 39.1151C5.94072 38.5157 5.82835 37.8992 5.52063 37.3746C5.2129 36.8501 4.72964 36.4512 4.15626 36.2484V33.5156C4.15626 33.2877 4.2468 33.0691 4.40796 32.908C4.56912 32.7468 4.78771 32.6562 5.01563 32.6562H11.0313V52.4219C11.0313 53.1056 11.3029 53.7614 11.7864 54.2449C12.2699 54.7284 12.9256 55 13.6094 55H37.6719C38.3556 55 39.0114 54.7284 39.4949 54.2449C39.9784 53.7614 40.25 53.1056 40.25 52.4219V32.6562H46.2656C46.4936 32.6562 46.7121 32.7468 46.8733 32.908C47.0345 33.0691 47.125 33.2877 47.125 33.5156V36.2484C46.5516 36.4512 46.0684 36.8501 45.7606 37.3746C45.4529 37.8992 45.3405 38.5157 45.4434 39.1151C45.5462 39.7145 45.8577 40.2583 46.3226 40.6502C46.7876 41.0422 47.3762 41.2572 47.9844 41.2572C48.5925 41.2572 49.1811 41.0422 49.6461 40.6502C50.1111 40.2583 50.4225 39.7145 50.5254 39.1151C50.6282 38.5157 50.5159 37.8992 50.2081 37.3746C49.9004 36.8501 49.4171 36.4512 48.8438 36.2484ZM47.9844 15.4688C48.1544 15.4688 48.3205 15.5192 48.4618 15.6136C48.6031 15.708 48.7133 15.8422 48.7783 15.9993C48.8434 16.1563 48.8604 16.3291 48.8272 16.4958C48.7941 16.6625 48.7122 16.8156 48.5921 16.9358C48.4719 17.056 48.3187 17.1378 48.152 17.171C47.9853 17.2041 47.8125 17.1871 47.6555 17.1221C47.4985 17.057 47.3643 16.9469 47.2698 16.8056C47.1754 16.6642 47.125 16.4981 47.125 16.3281C47.125 16.1002 47.2155 15.8816 47.3767 15.7205C47.5379 15.5593 47.7565 15.4688 47.9844 15.4688ZM3.29688 15.4688C3.46685 15.4688 3.633 15.5192 3.77432 15.6136C3.91565 15.708 4.0258 15.8422 4.09084 15.9993C4.15588 16.1563 4.1729 16.3291 4.13974 16.4958C4.10658 16.6625 4.02474 16.8156 3.90455 16.9358C3.78436 17.056 3.63124 17.1378 3.46454 17.171C3.29783 17.2041 3.12504 17.1871 2.96801 17.1221C2.81098 17.057 2.67677 16.9469 2.58234 16.8056C2.48791 16.6642 2.43751 16.4981 2.43751 16.3281C2.43751 16.1002 2.52805 15.8816 2.68921 15.7205C2.85037 15.5593 3.06896 15.4688 3.29688 15.4688ZM3.29688 39.5312C3.12691 39.5312 2.96076 39.4809 2.81944 39.3864C2.67811 39.292 2.56797 39.1578 2.50292 39.0007C2.43788 38.8437 2.42086 38.6709 2.45402 38.5042C2.48718 38.3375 2.56902 38.1844 2.68921 38.0642C2.8094 37.944 2.96252 37.8622 3.12922 37.829C3.29593 37.7959 3.46872 37.8129 3.62575 37.8779C3.78278 37.943 3.917 38.0531 4.01142 38.1944C4.10585 38.3358 4.15626 38.5019 4.15626 38.6719C4.15626 38.8998 4.06571 39.1184 3.90455 39.2795C3.74339 39.4407 3.5248 39.5312 3.29688 39.5312ZM38.5313 52.4219C38.5313 52.6498 38.4407 52.8684 38.2796 53.0295C38.1184 53.1907 37.8998 53.2812 37.6719 53.2812H13.6094C13.3815 53.2812 13.1629 53.1907 13.0017 53.0295C12.8405 52.8684 12.75 52.6498 12.75 52.4219V2.57812C12.75 2.3502 12.8405 2.13162 13.0017 1.97046C13.1629 1.80929 13.3815 1.71875 13.6094 1.71875H37.6719C37.8998 1.71875 38.1184 1.80929 38.2796 1.97046C38.4407 2.13162 38.5313 2.3502 38.5313 2.57812V52.4219ZM47.9844 39.5312C47.8144 39.5312 47.6483 39.4809 47.5069 39.3864C47.3656 39.292 47.2555 39.1578 47.1904 39.0007C47.1254 38.8437 47.1084 38.6709 47.1415 38.5042C47.1747 38.3375 47.2565 38.1844 47.3767 38.0642C47.4969 37.944 47.65 37.8622 47.8167 37.829C47.9834 37.7959 48.1562 37.8129 48.3132 37.8779C48.4703 37.943 48.6045 38.0531 48.6989 38.1944C48.7934 38.3358 48.8438 38.5019 48.8438 38.6719C48.8438 38.8998 48.7532 39.1184 48.5921 39.2795C48.4309 39.4407 48.2123 39.5312 47.9844 39.5312Z" fill="#DADBDD"/>
<path d="M24.7812 5.15625H26.5C26.7279 5.15625 26.9465 5.06571 27.1077 4.90454C27.2688 4.74338 27.3594 4.5248 27.3594 4.29688C27.3594 4.06895 27.2688 3.85037 27.1077 3.68921C26.9465 3.52804 26.7279 3.4375 26.5 3.4375H24.7812C24.5533 3.4375 24.3347 3.52804 24.1736 3.68921C24.0124 3.85037 23.9219 4.06895 23.9219 4.29688C23.9219 4.5248 24.0124 4.74338 24.1736 4.90454C24.3347 5.06571 24.5533 5.15625 24.7812 5.15625Z" fill="#DADBDD"/>
<path d="M28.2188 49.8438H23.0625C22.8346 49.8438 22.616 49.9343 22.4548 50.0955C22.2937 50.2566 22.2031 50.4752 22.2031 50.7031C22.2031 50.931 22.2937 51.1496 22.4548 51.3108C22.616 51.472 22.8346 51.5625 23.0625 51.5625H28.2188C28.4467 51.5625 28.6653 51.472 28.8264 51.3108C28.9876 51.1496 29.0781 50.931 29.0781 50.7031C29.0781 50.4752 28.9876 50.2566 28.8264 50.0955C28.6653 49.9343 28.4467 49.8438 28.2188 49.8438Z" fill="#DADBDD"/>
</svg>
