<svg width="185" height="64" viewBox="0 0 185 64" fill="none" xmlns="http://www.w3.org/2000/svg">
<mask id="path-1-outside-1_142_2797" maskUnits="userSpaceOnUse" x="0" y="0" width="185" height="64" fill="black">
<rect fill="white" width="185" height="64"/>
<path d="M16.528 6.912C20.6347 6.912 24.2373 7.71467 27.336 9.32C30.472 10.9253 32.88 13.2213 34.56 16.208C36.2773 19.1573 37.136 22.592 37.136 26.512C37.136 30.432 36.2773 33.8667 34.56 36.816C32.88 39.728 30.472 41.9867 27.336 43.592C24.2373 45.1973 20.6347 46 16.528 46H2.864V6.912H16.528ZM16.248 39.336C20.3547 39.336 23.528 38.216 25.768 35.976C28.008 33.736 29.128 30.5813 29.128 26.512C29.128 22.4427 28.008 19.2693 25.768 16.992C23.528 14.6773 20.3547 13.52 16.248 13.52H10.704V39.336H16.248ZM47.5406 11.28C46.1593 11.28 45.002 10.8507 44.0686 9.992C43.1726 9.096 42.7246 7.99466 42.7246 6.688C42.7246 5.38133 43.1726 4.29866 44.0686 3.44C45.002 2.544 46.1593 2.096 47.5406 2.096C48.922 2.096 50.0606 2.544 50.9566 3.44C51.89 4.29866 52.3566 5.38133 52.3566 6.688C52.3566 7.99466 51.89 9.096 50.9566 9.992C50.0606 10.8507 48.922 11.28 47.5406 11.28ZM51.4046 14.976V46H43.5646V14.976H51.4046ZM71.8626 14.472C74.1772 14.472 76.2119 14.9387 77.9666 15.872C79.7212 16.768 81.1026 17.944 82.1106 19.4V14.976H90.0066V46.224C90.0066 49.0987 89.4279 51.656 88.2706 53.896C87.1132 56.1733 85.3772 57.9653 83.0626 59.272C80.7479 60.616 77.9479 61.288 74.6626 61.288C70.2572 61.288 66.6359 60.2613 63.7986 58.208C60.9986 56.1547 59.4119 53.3547 59.0386 49.808H66.8226C67.2332 51.2267 68.1106 52.3467 69.4546 53.168C70.8359 54.0267 72.4972 54.456 74.4386 54.456C76.7159 54.456 78.5639 53.7653 79.9826 52.384C81.4012 51.04 82.1106 48.9867 82.1106 46.224V41.408C81.1026 42.864 79.7026 44.0773 77.9106 45.048C76.1559 46.0187 74.1399 46.504 71.8626 46.504C69.2492 46.504 66.8599 45.832 64.6946 44.488C62.5292 43.144 60.8119 41.2587 59.5426 38.832C58.3106 36.368 57.6946 33.5493 57.6946 30.376C57.6946 27.24 58.3106 24.4587 59.5426 22.032C60.8119 19.6053 62.5106 17.7387 64.6386 16.432C66.8039 15.1253 69.2119 14.472 71.8626 14.472ZM82.1106 30.488C82.1106 28.584 81.7372 26.96 80.9906 25.616C80.2439 24.2347 79.2359 23.1893 77.9666 22.48C76.6972 21.7333 75.3346 21.36 73.8786 21.36C72.4226 21.36 71.0786 21.7147 69.8466 22.424C68.6146 23.1333 67.6066 24.1787 66.8226 25.56C66.0759 26.904 65.7026 28.5093 65.7026 30.376C65.7026 32.2427 66.0759 33.8853 66.8226 35.304C67.6066 36.6853 68.6146 37.7493 69.8466 38.496C71.1159 39.2427 72.4599 39.616 73.8786 39.616C75.3346 39.616 76.6972 39.2613 77.9666 38.552C79.2359 37.8053 80.2439 36.76 80.9906 35.416C81.7372 34.0347 82.1106 32.392 82.1106 30.488ZM102.2 11.28C100.818 11.28 99.661 10.8507 98.7277 9.992C97.8317 9.096 97.3837 7.99466 97.3837 6.688C97.3837 5.38133 97.8317 4.29866 98.7277 3.44C99.661 2.544 100.818 2.096 102.2 2.096C103.581 2.096 104.72 2.544 105.616 3.44C106.549 4.29866 107.016 5.38133 107.016 6.688C107.016 7.99466 106.549 9.096 105.616 9.992C104.72 10.8507 103.581 11.28 102.2 11.28ZM106.064 14.976V46H98.2237V14.976H106.064ZM123.498 21.416V36.424C123.498 37.4693 123.74 38.2347 124.226 38.72C124.748 39.168 125.607 39.392 126.802 39.392H130.442V46H125.514C118.906 46 115.602 42.7893 115.602 36.368V21.416H111.906V14.976H115.602V7.304H123.498V14.976H130.442V21.416H123.498ZM134.625 30.376C134.625 27.24 135.241 24.4587 136.473 22.032C137.742 19.6053 139.441 17.7387 141.569 16.432C143.734 15.1253 146.142 14.472 148.793 14.472C151.107 14.472 153.123 14.9387 154.841 15.872C156.595 16.8053 157.995 17.9813 159.041 19.4V14.976H166.937V46H159.041V41.464C158.033 42.92 156.633 44.1333 154.841 45.104C153.086 46.0373 151.051 46.504 148.737 46.504C146.123 46.504 143.734 45.832 141.569 44.488C139.441 43.144 137.742 41.2587 136.473 38.832C135.241 36.368 134.625 33.5493 134.625 30.376ZM159.041 30.488C159.041 28.584 158.667 26.96 157.921 25.616C157.174 24.2347 156.166 23.1893 154.897 22.48C153.627 21.7333 152.265 21.36 150.809 21.36C149.353 21.36 148.009 21.7147 146.777 22.424C145.545 23.1333 144.537 24.1787 143.753 25.56C143.006 26.904 142.633 28.5093 142.633 30.376C142.633 32.2427 143.006 33.8853 143.753 35.304C144.537 36.6853 145.545 37.7493 146.777 38.496C148.046 39.2427 149.39 39.616 150.809 39.616C152.265 39.616 153.627 39.2613 154.897 38.552C156.166 37.8053 157.174 36.76 157.921 35.416C158.667 34.0347 159.041 32.392 159.041 30.488ZM182.994 4.56V46H175.154V4.56H182.994Z"/>
</mask>
<path d="M27.336 9.32L26.416 11.0959L26.4247 11.1003L27.336 9.32ZM34.56 16.208L32.8169 17.1885L32.8242 17.2015L32.8317 17.2144L34.56 16.208ZM34.56 36.816L32.8316 35.8096L32.8276 35.8166L34.56 36.816ZM27.336 43.592L26.4246 41.8117L26.416 41.8162L27.336 43.592ZM2.864 46H0.864V48H2.864V46ZM2.864 6.912V4.912H0.864V6.912H2.864ZM25.768 35.976L24.3538 34.5618H24.3538L25.768 35.976ZM25.768 16.992L24.3308 18.3828L24.3364 18.3887L24.3421 18.3945L25.768 16.992ZM10.704 13.52V11.52H8.704V13.52H10.704ZM10.704 39.336H8.704V41.336H10.704V39.336ZM16.528 6.912V8.912C20.371 8.912 23.6479 9.66175 26.416 11.0958L27.336 9.32L28.256 7.54417C24.8268 5.76758 20.8984 4.912 16.528 4.912V6.912ZM27.336 9.32L26.4247 11.1003C29.2213 12.5319 31.3352 14.5544 32.8169 17.1885L34.56 16.208L36.3032 15.2275C34.4248 11.8882 31.7228 9.31878 28.2473 7.5397L27.336 9.32ZM34.56 16.208L32.8317 17.2144C34.346 19.8152 35.136 22.8922 35.136 26.512H37.136H39.136C39.136 22.2918 38.2086 18.4995 36.2884 15.2016L34.56 16.208ZM37.136 26.512H35.136C35.136 30.1318 34.346 33.2088 32.8317 35.8096L34.56 36.816L36.2884 37.8224C38.2086 34.5245 39.136 30.7322 39.136 26.512H37.136ZM34.56 36.816L32.8276 35.8166C31.3498 38.3781 29.2347 40.3732 26.4247 41.8117L27.336 43.592L28.2473 45.3723C31.7093 43.6001 34.4102 41.0779 36.2924 37.8154L34.56 36.816ZM27.336 43.592L26.416 41.8162C23.6479 43.2502 20.371 44 16.528 44V46V48C20.8984 48 24.8268 47.1444 28.256 45.3678L27.336 43.592ZM16.528 46V44H2.864V46V48H16.528V46ZM2.864 46H4.864V6.912H2.864H0.864V46H2.864ZM2.864 6.912V8.912H16.528V6.912V4.912H2.864V6.912ZM16.248 39.336V41.336C20.7211 41.336 24.4652 40.1072 27.1822 37.3902L25.768 35.976L24.3538 34.5618C22.5908 36.3248 19.9882 37.336 16.248 37.336V39.336ZM25.768 35.976L27.1822 37.3902C29.8959 34.6765 31.128 30.9538 31.128 26.512H29.128H27.128C27.128 30.2089 26.1201 32.7955 24.3538 34.5618L25.768 35.976ZM29.128 26.512H31.128C31.128 22.0684 29.8953 18.336 27.1939 15.5895L25.768 16.992L24.3421 18.3945C26.1207 20.2026 27.128 22.8169 27.128 26.512H29.128ZM25.768 16.992L27.2052 15.6012C24.4916 12.7971 20.7394 11.52 16.248 11.52V13.52V15.52C19.97 15.52 22.5644 16.5576 24.3308 18.3828L25.768 16.992ZM16.248 13.52V11.52H10.704V13.52V15.52H16.248V13.52ZM10.704 13.52H8.704V39.336H10.704H12.704V13.52H10.704ZM10.704 39.336V41.336H16.248V39.336V37.336H10.704V39.336ZM44.0686 9.992L42.6544 11.4062L42.6839 11.4357L42.7145 11.4639L44.0686 9.992ZM44.0686 3.44L45.4524 4.88397L45.4537 4.88277L44.0686 3.44ZM50.9566 3.44L49.5424 4.85421L49.5719 4.88366L49.6025 4.91186L50.9566 3.44ZM50.9566 9.992L52.3404 11.436L52.3417 11.4348L50.9566 9.992ZM51.4046 14.976H53.4046V12.976H51.4046V14.976ZM51.4046 46V48H53.4046V46H51.4046ZM43.5646 46H41.5646V48H43.5646V46ZM43.5646 14.976V12.976H41.5646V14.976H43.5646ZM47.5406 11.28V9.28C46.6123 9.28 45.9526 9.0076 45.4227 8.52014L44.0686 9.992L42.7145 11.4639C44.0513 12.6937 45.7063 13.28 47.5406 13.28V11.28ZM44.0686 9.992L45.4828 8.57779C44.9748 8.06974 44.7246 7.48273 44.7246 6.688H42.7246H40.7246C40.7246 8.50659 41.3705 10.1223 42.6544 11.4062L44.0686 9.992ZM42.7246 6.688H44.7246C44.7246 5.89423 44.9728 5.34365 45.4524 4.88397L44.0686 3.44L42.6848 1.99602C41.3725 3.25368 40.7246 4.86843 40.7246 6.688H42.7246ZM44.0686 3.44L45.4537 4.88277C45.9877 4.3701 46.6371 4.096 47.5406 4.096V2.096V0.0959978C45.6814 0.0959978 44.0162 0.717893 42.6836 1.99722L44.0686 3.44ZM47.5406 2.096V4.096C48.4442 4.096 49.0571 4.36895 49.5424 4.85421L50.9566 3.44L52.3708 2.02578C51.0641 0.71905 49.3997 0.0959978 47.5406 0.0959978V2.096ZM50.9566 3.44L49.6025 4.91186C50.1103 5.37899 50.3566 5.92147 50.3566 6.688H52.3566H54.3566C54.3566 4.84119 53.6697 3.21833 52.3107 1.96813L50.9566 3.44ZM52.3566 6.688H50.3566C50.3566 7.4562 50.1076 8.03459 49.5716 8.54923L50.9566 9.992L52.3417 11.4348C53.6723 10.1574 54.3566 8.53313 54.3566 6.688H52.3566ZM50.9566 9.992L49.5728 8.54802C49.0926 9.00827 48.4697 9.28 47.5406 9.28V11.28V13.28C49.3742 13.28 51.0287 12.6931 52.3404 11.436L50.9566 9.992ZM51.4046 14.976H49.4046V46H51.4046H53.4046V14.976H51.4046ZM51.4046 46V44H43.5646V46V48H51.4046V46ZM43.5646 46H45.5646V14.976H43.5646H41.5646V46H43.5646ZM43.5646 14.976V16.976H51.4046V14.976V12.976H43.5646V14.976ZM77.9666 15.872L77.0273 17.6377L77.0421 17.6456L77.057 17.6532L77.9666 15.872ZM82.1106 19.4L80.4662 20.5384L84.1106 25.8025V19.4H82.1106ZM82.1106 14.976V12.976H80.1106V14.976H82.1106ZM90.0066 14.976H92.0066V12.976H90.0066V14.976ZM88.2706 53.896L86.4937 52.9779L86.4876 52.9899L88.2706 53.896ZM83.0626 59.272L82.0794 57.5304L82.0688 57.5363L82.0583 57.5424L83.0626 59.272ZM63.7986 58.208L62.6158 59.8208L62.626 59.8282L63.7986 58.208ZM59.0386 49.808V47.808H56.817L57.0495 50.0174L59.0386 49.808ZM66.8226 49.808L68.7437 49.2519L68.3257 47.808H66.8226V49.808ZM69.4546 53.168L70.5104 51.4694L70.504 51.4654L70.4975 51.4614L69.4546 53.168ZM79.9826 52.384L78.6071 50.9321L78.5971 50.9415L78.5873 50.9511L79.9826 52.384ZM82.1106 41.408H84.1106V35.0055L80.4662 40.2696L82.1106 41.408ZM77.9106 45.048L76.958 43.2894L76.9502 43.2936L76.9424 43.2979L77.9106 45.048ZM64.6946 44.488L65.7493 42.7887L64.6946 44.488ZM59.5426 38.832L57.7537 39.7264L57.7619 39.7428L57.7704 39.759L59.5426 38.832ZM59.5426 22.032L57.7704 21.105L57.7647 21.1158L57.7592 21.1266L59.5426 22.032ZM64.6386 16.432L63.6052 14.7196L63.5986 14.7236L63.592 14.7277L64.6386 16.432ZM80.9906 25.616L79.2311 26.567L79.2366 26.5772L79.2422 26.5873L80.9906 25.616ZM77.9666 22.48L76.9525 24.2039L76.9716 24.2151L76.9909 24.2259L77.9666 22.48ZM69.8466 22.424L68.8486 20.6908V20.6908L69.8466 22.424ZM66.8226 25.56L65.0832 24.5728L65.0787 24.5807L65.0742 24.5887L66.8226 25.56ZM66.8226 35.304L65.0527 36.2355L65.0675 36.2636L65.0832 36.2912L66.8226 35.304ZM69.8466 38.496L68.81 40.2064L68.8212 40.2132L68.8325 40.2199L69.8466 38.496ZM77.9666 38.552L78.9422 40.2979L78.9615 40.2871L78.9806 40.2759L77.9666 38.552ZM80.9906 35.416L82.7389 36.3873L82.7445 36.3772L82.75 36.367L80.9906 35.416ZM71.8626 14.472V16.472C73.9038 16.472 75.6061 16.8818 77.0273 17.6377L77.9666 15.872L78.9058 14.1063C76.8177 12.9956 74.4507 12.472 71.8626 12.472V14.472ZM77.9666 15.872L77.057 17.6532C78.5511 18.4162 79.6667 19.3836 80.4662 20.5384L82.1106 19.4L83.7549 18.2616C82.5384 16.5044 80.8914 15.1198 78.8761 14.0908L77.9666 15.872ZM82.1106 19.4H84.1106V14.976H82.1106H80.1106V19.4H82.1106ZM82.1106 14.976V16.976H90.0066V14.976V12.976H82.1106V14.976ZM90.0066 14.976H88.0066V46.224H90.0066H92.0066V14.976H90.0066ZM90.0066 46.224H88.0066C88.0066 48.8243 87.485 51.0593 86.4937 52.978L88.2706 53.896L90.0474 54.814C91.3708 52.2527 92.0066 49.373 92.0066 46.224H90.0066ZM88.2706 53.896L86.4876 52.9899C85.5162 54.9013 84.0657 56.4091 82.0794 57.5304L83.0626 59.272L84.0458 61.0136C86.6888 59.5216 88.7102 57.4454 90.0535 54.8021L88.2706 53.896ZM83.0626 59.272L82.0583 57.5424C80.111 58.6731 77.6749 59.288 74.6626 59.288V61.288V63.288C78.2209 63.288 81.3848 62.5589 84.0668 61.0016L83.0626 59.272ZM74.6626 61.288V59.288C70.5688 59.288 67.3882 58.337 64.9711 56.5878L63.7986 58.208L62.626 59.8282C65.8836 62.1857 69.9457 63.288 74.6626 63.288V61.288ZM63.7986 58.208L64.9813 56.5952C62.6496 54.8853 61.3437 52.602 61.0276 49.5986L59.0386 49.808L57.0495 50.0174C57.4801 54.1073 59.3475 57.424 62.6158 59.8208L63.7986 58.208ZM59.0386 49.808V51.808H66.8226V49.808V47.808H59.0386V49.808ZM66.8226 49.808L64.9014 50.3641C65.4607 52.2962 66.6725 53.8118 68.4117 54.8746L69.4546 53.168L70.4975 51.4614C69.5486 50.8816 69.0057 50.1571 68.7437 49.2519L66.8226 49.808ZM69.4546 53.168L68.3987 54.8666C70.1537 55.9575 72.197 56.456 74.4386 56.456V54.456V52.456C72.7975 52.456 71.5181 52.0958 70.5104 51.4694L69.4546 53.168ZM74.4386 54.456V56.456C77.1526 56.456 79.5292 55.6168 81.3778 53.8169L79.9826 52.384L78.5873 50.9511C77.5985 51.9138 76.2792 52.456 74.4386 52.456V54.456ZM79.9826 52.384L81.3581 53.8359C83.3171 51.98 84.1106 49.3042 84.1106 46.224H82.1106H80.1106C80.1106 48.6692 79.4854 50.1 78.6071 50.9321L79.9826 52.384ZM82.1106 46.224H84.1106V41.408H82.1106H80.1106V46.224H82.1106ZM82.1106 41.408L80.4662 40.2696C79.6621 41.431 78.5157 42.4457 76.958 43.2894L77.9106 45.048L78.8631 46.8066C80.8894 45.709 82.543 44.297 83.7549 42.5464L82.1106 41.408ZM77.9106 45.048L76.9424 43.2979C75.5224 44.0835 73.8478 44.504 71.8626 44.504V46.504V48.504C74.432 48.504 76.7894 47.9538 78.8787 46.7981L77.9106 45.048ZM71.8626 46.504V44.504C69.612 44.504 67.5896 43.931 65.7493 42.7887L64.6946 44.488L63.6398 46.1873C66.1302 47.733 68.8865 48.504 71.8626 48.504V46.504ZM64.6946 44.488L65.7493 42.7887C63.9105 41.6474 62.4311 40.0392 61.3148 37.905L59.5426 38.832L57.7704 39.759C59.1927 42.4781 61.1479 44.6406 63.6398 46.1873L64.6946 44.488ZM59.5426 38.832L61.3314 37.9376C60.258 35.7907 59.6946 33.2861 59.6946 30.376H57.6946H55.6946C55.6946 33.8126 56.3632 36.9453 57.7537 39.7264L59.5426 38.832ZM57.6946 30.376H59.6946C59.6946 27.5066 60.2566 25.0436 61.3259 22.9374L59.5426 22.032L57.7592 21.1266C56.3645 23.8738 55.6946 26.9734 55.6946 30.376H57.6946ZM59.5426 22.032L61.3148 22.959C62.4335 20.8203 63.894 19.2361 65.6851 18.1363L64.6386 16.432L63.592 14.7277C61.1271 16.2412 59.1903 18.3904 57.7704 21.105L59.5426 22.032ZM64.6386 16.432L65.6719 18.1444C67.5101 17.0351 69.5578 16.472 71.8626 16.472V14.472V12.472C68.866 12.472 66.0977 13.2155 63.6052 14.7196L64.6386 16.432ZM82.1106 30.488H84.1106C84.1106 28.3242 83.6855 26.3487 82.7389 24.6447L80.9906 25.616L79.2422 26.5873C79.7889 27.5713 80.1106 28.8438 80.1106 30.488H82.1106ZM80.9906 25.616L82.75 24.665C81.8378 22.9774 80.5695 21.6435 78.9422 20.7341L77.9666 22.48L76.9909 24.2259C77.9023 24.7352 78.65 25.4919 79.2311 26.567L80.9906 25.616ZM77.9666 22.48L78.9806 20.7561C77.4076 19.8308 75.6954 19.36 73.8786 19.36V21.36V23.36C74.9737 23.36 75.9868 23.6358 76.9525 24.2039L77.9666 22.48ZM73.8786 21.36V19.36C72.0812 19.36 70.3918 19.8023 68.8486 20.6908L69.8466 22.424L70.8445 24.1572C71.7654 23.6271 72.764 23.36 73.8786 23.36V21.36ZM69.8466 22.424L68.8486 20.6908C67.2722 21.5984 66.0222 22.9184 65.0832 24.5728L66.8226 25.56L68.5619 26.5472C69.1909 25.439 69.9569 24.6683 70.8445 24.1572L69.8466 22.424ZM66.8226 25.56L65.0742 24.5887C64.1306 26.2872 63.7026 28.2418 63.7026 30.376H65.7026H67.7026C67.7026 28.7769 68.0212 27.5208 68.5709 26.5313L66.8226 25.56ZM65.7026 30.376H63.7026C63.7026 32.5137 64.1318 34.4857 65.0527 36.2355L66.8226 35.304L68.5924 34.3725C68.02 33.2849 67.7026 31.9716 67.7026 30.376H65.7026ZM66.8226 35.304L65.0832 36.2912C66.0181 37.9385 67.2566 39.2649 68.81 40.2064L69.8466 38.496L70.8832 36.7856C69.9726 36.2337 69.195 35.4322 68.5619 34.3168L66.8226 35.304ZM69.8466 38.496L68.8325 40.2199C70.397 41.1401 72.0894 41.616 73.8786 41.616V39.616V37.616C72.8304 37.616 71.8348 37.3452 70.8606 36.7721L69.8466 38.496ZM73.8786 39.616V41.616C75.6757 41.616 77.3743 41.1741 78.9422 40.2979L77.9666 38.552L76.9909 36.8061C76.0202 37.3486 74.9935 37.616 73.8786 37.616V39.616ZM77.9666 38.552L78.9806 40.2759C80.5713 39.3402 81.8269 38.0288 82.7389 36.3873L80.9906 35.416L79.2422 34.4447C78.6609 35.4912 77.9005 36.2705 76.9525 36.8281L77.9666 38.552ZM80.9906 35.416L82.75 36.367C83.6848 34.6376 84.1106 32.654 84.1106 30.488H82.1106H80.1106C80.1106 32.13 79.7897 33.4317 79.2311 34.465L80.9906 35.416ZM98.7277 9.992L97.3135 11.4062L97.3429 11.4357L97.3736 11.4639L98.7277 9.992ZM98.7277 3.44L100.111 4.88397L100.113 4.88277L98.7277 3.44ZM105.616 3.44L104.201 4.85421L104.231 4.88366L104.262 4.91186L105.616 3.44ZM105.616 9.992L106.999 11.436L107.001 11.4348L105.616 9.992ZM106.064 14.976H108.064V12.976H106.064V14.976ZM106.064 46V48H108.064V46H106.064ZM98.2237 46H96.2237V48H98.2237V46ZM98.2237 14.976V12.976H96.2237V14.976H98.2237ZM102.2 11.28V9.28C101.271 9.28 100.612 9.0076 100.082 8.52014L98.7277 9.992L97.3736 11.4639C98.7104 12.6937 100.365 13.28 102.2 13.28V11.28ZM98.7277 9.992L100.142 8.57779C99.6339 8.06974 99.3837 7.48273 99.3837 6.688H97.3837H95.3837C95.3837 8.50659 96.0295 10.1223 97.3135 11.4062L98.7277 9.992ZM97.3837 6.688H99.3837C99.3837 5.89423 99.6318 5.34365 100.111 4.88397L98.7277 3.44L97.3439 1.99602C96.0315 3.25368 95.3837 4.86843 95.3837 6.688H97.3837ZM98.7277 3.44L100.113 4.88277C100.647 4.3701 101.296 4.096 102.2 4.096V2.096V0.0959978C100.34 0.0959978 98.6753 0.717893 97.3426 1.99722L98.7277 3.44ZM102.2 2.096V4.096C103.103 4.096 103.716 4.36895 104.201 4.85421L105.616 3.44L107.03 2.02578C105.723 0.71905 104.059 0.0959978 102.2 0.0959978V2.096ZM105.616 3.44L104.262 4.91186C104.769 5.37899 105.016 5.92147 105.016 6.688H107.016H109.016C109.016 4.84119 108.329 3.21833 106.97 1.96813L105.616 3.44ZM107.016 6.688H105.016C105.016 7.4562 104.767 8.03459 104.231 8.54923L105.616 9.992L107.001 11.4348C108.331 10.1574 109.016 8.53313 109.016 6.688H107.016ZM105.616 9.992L104.232 8.54802C103.752 9.00827 103.129 9.28 102.2 9.28V11.28V13.28C104.033 13.28 105.688 12.6931 106.999 11.436L105.616 9.992ZM106.064 14.976H104.064V46H106.064H108.064V14.976H106.064ZM106.064 46V44H98.2237V46V48H106.064V46ZM98.2237 46H100.224V14.976H98.2237H96.2237V46H98.2237ZM98.2237 14.976V16.976H106.064V14.976V12.976H98.2237V14.976ZM123.498 21.416V19.416H121.498V21.416H123.498ZM124.226 38.72L122.811 40.1342L122.866 40.1885L122.924 40.2385L124.226 38.72ZM130.442 39.392H132.442V37.392H130.442V39.392ZM130.442 46V48H132.442V46H130.442ZM115.602 21.416H117.602V19.416H115.602V21.416ZM111.906 21.416H109.906V23.416H111.906V21.416ZM111.906 14.976V12.976H109.906V14.976H111.906ZM115.602 14.976V16.976H117.602V14.976H115.602ZM115.602 7.304V5.304H113.602V7.304H115.602ZM123.498 7.304H125.498V5.304H123.498V7.304ZM123.498 14.976H121.498V16.976H123.498V14.976ZM130.442 14.976H132.442V12.976H130.442V14.976ZM130.442 21.416V23.416H132.442V21.416H130.442ZM123.498 21.416H121.498V36.424H123.498H125.498V21.416H123.498ZM123.498 36.424H121.498C121.498 37.7273 121.794 39.1173 122.811 40.1342L124.226 38.72L125.64 37.3058C125.686 37.3521 125.498 37.2114 125.498 36.424H123.498ZM124.226 38.72L122.924 40.2385C123.994 41.1558 125.449 41.392 126.802 41.392V39.392V37.392C126.32 37.392 125.985 37.3459 125.766 37.2888C125.549 37.232 125.501 37.1793 125.527 37.2015L124.226 38.72ZM126.802 39.392V41.392H130.442V39.392V37.392H126.802V39.392ZM130.442 39.392H128.442V46H130.442H132.442V39.392H130.442ZM130.442 46V44H125.514V46V48H130.442V46ZM125.514 46V44C122.504 44 120.616 43.2683 119.473 42.1577C118.341 41.0574 117.602 39.2556 117.602 36.368H115.602H113.602C113.602 39.9017 114.514 42.916 116.686 45.0263C118.847 47.1264 121.915 48 125.514 48V46ZM115.602 36.368H117.602V21.416H115.602H113.602V36.368H115.602ZM115.602 21.416V19.416H111.906V21.416V23.416H115.602V21.416ZM111.906 21.416H113.906V14.976H111.906H109.906V21.416H111.906ZM111.906 14.976V16.976H115.602V14.976V12.976H111.906V14.976ZM115.602 14.976H117.602V7.304H115.602H113.602V14.976H115.602ZM115.602 7.304V9.304H123.498V7.304V5.304H115.602V7.304ZM123.498 7.304H121.498V14.976H123.498H125.498V7.304H123.498ZM123.498 14.976V16.976H130.442V14.976V12.976H123.498V14.976ZM130.442 14.976H128.442V21.416H130.442H132.442V14.976H130.442ZM130.442 21.416V19.416H123.498V21.416V23.416H130.442V21.416ZM136.473 22.032L134.7 21.105L134.695 21.1158L134.689 21.1266L136.473 22.032ZM141.569 16.432L140.535 14.7196L140.529 14.7236L140.522 14.7277L141.569 16.432ZM154.841 15.872L153.886 17.6292L153.893 17.6335L153.901 17.6377L154.841 15.872ZM159.041 19.4L157.43 20.5864L161.041 25.4858V19.4H159.041ZM159.041 14.976V12.976H157.041V14.976H159.041ZM166.937 14.976H168.937V12.976H166.937V14.976ZM166.937 46V48H168.937V46H166.937ZM159.041 46H157.041V48H159.041V46ZM159.041 41.464H161.041V35.0615L157.396 40.3256L159.041 41.464ZM154.841 45.104L155.78 46.8697L155.786 46.8662L155.793 46.8626L154.841 45.104ZM141.569 44.488L140.501 46.179L140.507 46.1832L140.514 46.1873L141.569 44.488ZM136.473 38.832L134.684 39.7264L134.692 39.7428L134.7 39.759L136.473 38.832ZM157.921 25.616L156.161 26.567L156.167 26.5772L156.172 26.5873L157.921 25.616ZM154.897 22.48L153.883 24.2039L153.902 24.2151L153.921 24.2259L154.897 22.48ZM146.777 22.424L145.779 20.6908V20.6908L146.777 22.424ZM143.753 25.56L142.013 24.5728L142.009 24.5807L142.004 24.5887L143.753 25.56ZM143.753 35.304L141.983 36.2355L141.998 36.2636L142.013 36.2912L143.753 35.304ZM146.777 38.496L145.74 40.2064L145.751 40.2132L145.763 40.2199L146.777 38.496ZM154.897 38.552L155.872 40.2979L155.892 40.2871L155.911 40.2759L154.897 38.552ZM157.921 35.416L159.669 36.3873L159.674 36.3772L159.68 36.367L157.921 35.416ZM134.625 30.376H136.625C136.625 27.5066 137.187 25.0436 138.256 22.9374L136.473 22.032L134.689 21.1266C133.295 23.8738 132.625 26.9734 132.625 30.376H134.625ZM136.473 22.032L138.245 22.959C139.363 20.8203 140.824 19.2361 142.615 18.1363L141.569 16.432L140.522 14.7277C138.057 16.2412 136.12 18.3904 134.7 21.105L136.473 22.032ZM141.569 16.432L142.602 18.1444C144.44 17.0351 146.488 16.472 148.793 16.472V14.472V12.472C145.796 12.472 143.028 13.2155 140.535 14.7196L141.569 16.432ZM148.793 14.472V16.472C150.835 16.472 152.511 16.8822 153.886 17.6292L154.841 15.872L155.796 14.1147C153.736 12.9951 151.379 12.472 148.793 12.472V14.472ZM154.841 15.872L153.901 17.6377C155.426 18.4486 156.584 19.4377 157.43 20.5864L159.041 19.4L160.651 18.2136C159.406 16.5249 157.765 15.162 155.78 14.1063L154.841 15.872ZM159.041 19.4H161.041V14.976H159.041H157.041V19.4H159.041ZM159.041 14.976V16.976H166.937V14.976V12.976H159.041V14.976ZM166.937 14.976H164.937V46H166.937H168.937V14.976H166.937ZM166.937 46V44H159.041V46V48H166.937V46ZM159.041 46H161.041V41.464H159.041H157.041V46H159.041ZM159.041 41.464L157.396 40.3256C156.592 41.487 155.446 42.5017 153.888 43.3454L154.841 45.104L155.793 46.8626C157.819 45.765 159.473 44.353 160.685 42.6024L159.041 41.464ZM154.841 45.104L153.901 43.3383C152.48 44.0942 150.778 44.504 148.737 44.504V46.504V48.504C151.325 48.504 153.692 47.9804 155.78 46.8697L154.841 45.104ZM148.737 46.504V44.504C146.486 44.504 144.464 43.931 142.623 42.7887L141.569 44.488L140.514 46.1873C143.004 47.733 145.76 48.504 148.737 48.504V46.504ZM141.569 44.488L142.637 42.797C140.832 41.6576 139.366 40.0478 138.245 37.905L136.473 38.832L134.7 39.759C136.118 42.4696 138.049 44.6304 140.501 46.179L141.569 44.488ZM136.473 38.832L138.261 37.9376C137.188 35.7907 136.625 33.2861 136.625 30.376H134.625H132.625C132.625 33.8126 133.293 36.9453 134.684 39.7264L136.473 38.832ZM159.041 30.488H161.041C161.041 28.3242 160.616 26.3487 159.669 24.6447L157.921 25.616L156.172 26.5873C156.719 27.5713 157.041 28.8438 157.041 30.488H159.041ZM157.921 25.616L159.68 24.665C158.768 22.9774 157.499 21.6435 155.872 20.7341L154.897 22.48L153.921 24.2259C154.832 24.7352 155.58 25.4919 156.161 26.567L157.921 25.616ZM154.897 22.48L155.911 20.7561C154.338 19.8308 152.625 19.36 150.809 19.36V21.36V23.36C151.904 23.36 152.917 23.6358 153.883 24.2039L154.897 22.48ZM150.809 21.36V19.36C149.011 19.36 147.322 19.8023 145.779 20.6908L146.777 22.424L147.774 24.1572C148.695 23.6271 149.694 23.36 150.809 23.36V21.36ZM146.777 22.424L145.779 20.6908C144.202 21.5984 142.952 22.9184 142.013 24.5728L143.753 25.56L145.492 26.5472C146.121 25.439 146.887 24.6683 147.774 24.1572L146.777 22.424ZM143.753 25.56L142.004 24.5887C141.061 26.2872 140.633 28.2418 140.633 30.376H142.633H144.633C144.633 28.7769 144.951 27.5208 145.501 26.5313L143.753 25.56ZM142.633 30.376H140.633C140.633 32.5137 141.062 34.4857 141.983 36.2355L143.753 35.304L145.522 34.3725C144.95 33.2849 144.633 31.9716 144.633 30.376H142.633ZM143.753 35.304L142.013 36.2912C142.948 37.9385 144.187 39.2649 145.74 40.2064L146.777 38.496L147.813 36.7856C146.903 36.2337 146.125 35.4322 145.492 34.3168L143.753 35.304ZM146.777 38.496L145.763 40.2199C147.327 41.1401 149.019 41.616 150.809 41.616V39.616V37.616C149.76 37.616 148.765 37.3452 147.791 36.7721L146.777 38.496ZM150.809 39.616V41.616C152.606 41.616 154.304 41.1741 155.872 40.2979L154.897 38.552L153.921 36.8061C152.95 37.3486 151.923 37.616 150.809 37.616V39.616ZM154.897 38.552L155.911 40.2759C157.501 39.3402 158.757 38.0288 159.669 36.3873L157.921 35.416L156.172 34.4447C155.591 35.4912 154.831 36.2705 153.883 36.8281L154.897 38.552ZM157.921 35.416L159.68 36.367C160.615 34.6376 161.041 32.654 161.041 30.488H159.041H157.041C157.041 32.13 156.72 33.4317 156.161 34.465L157.921 35.416ZM182.994 4.56H184.994V2.56H182.994V4.56ZM182.994 46V48H184.994V46H182.994ZM175.154 46H173.154V48H175.154V46ZM175.154 4.56V2.56H173.154V4.56H175.154ZM182.994 4.56H180.994V46H182.994H184.994V4.56H182.994ZM182.994 46V44H175.154V46V48H182.994V46ZM175.154 46H177.154V4.56H175.154H173.154V46H175.154ZM175.154 4.56V6.56H182.994V4.56V2.56H175.154V4.56Z" fill="#ECEDEE" mask="url(#path-1-outside-1_142_2797)"/>
</svg>
