<svg width="26" height="26" viewBox="0 0 26 26" fill="none" xmlns="http://www.w3.org/2000/svg">
<path d="M13 4.75098C12.4067 4.75098 11.8266 4.92692 11.3333 5.25657C10.8399 5.58621 10.4554 6.05474 10.2284 6.60292C10.0013 7.1511 9.94189 7.75429 10.0576 8.33624C10.1734 8.91818 10.4591 9.45272 10.8787 9.87228C11.2982 10.2918 11.8328 10.5776 12.4147 10.6933C12.9967 10.8091 13.5999 10.7497 14.148 10.5226C14.6962 10.2955 15.1648 9.91102 15.4944 9.41767C15.824 8.92433 16 8.34431 16 7.75097C16 6.95532 15.6839 6.19226 15.1213 5.62965C14.5587 5.06705 13.7956 4.75098 13 4.75098ZM13 10.001C12.555 10.001 12.12 9.869 11.75 9.62177C11.38 9.37454 11.0916 9.02313 10.9213 8.612C10.751 8.20087 10.7064 7.74847 10.7932 7.31202C10.88 6.87556 11.0943 6.47465 11.409 6.15998C11.7237 5.84531 12.1246 5.63102 12.561 5.54421C12.9975 5.45739 13.4499 5.50195 13.861 5.67224C14.2722 5.84254 14.6236 6.13093 14.8708 6.50094C15.118 6.87095 15.25 7.30596 15.25 7.75097C15.25 8.3477 15.0129 8.92 14.591 9.34195C14.169 9.76391 13.5967 10.001 13 10.001Z" fill="#DADBDD" stroke="#DADBDD"/>
<path d="M18.3515 11.5188L17.564 10.3375C17.7773 9.96185 17.9435 9.56134 18.059 9.14505L19.4502 8.87505C19.5362 8.85752 19.6133 8.81039 19.6681 8.74187C19.723 8.67335 19.752 8.58778 19.7502 8.50005V8.12505H20.8752V14.1813L20.0427 13.1425C19.9782 13.0742 19.8905 13.0326 19.7968 13.0259C19.703 13.0192 19.6102 13.0479 19.5367 13.1064C19.4632 13.1648 19.4142 13.2488 19.3996 13.3416C19.385 13.4344 19.4057 13.5293 19.4577 13.6075L20.9577 15.4825C20.9929 15.5263 21.0374 15.5617 21.088 15.586C21.1386 15.6103 21.1941 15.6229 21.2502 15.6229C21.3064 15.6229 21.3618 15.6103 21.4124 15.586C21.4631 15.5617 21.5076 15.5263 21.5427 15.4825L23.0427 13.6075C23.0784 13.5698 23.1058 13.525 23.1232 13.4761C23.1407 13.4272 23.1478 13.3752 23.1441 13.3234C23.1404 13.2716 23.126 13.2211 23.1017 13.1752C23.0775 13.1293 23.044 13.0889 23.0034 13.0566C22.9627 13.0243 22.9158 13.0007 22.8656 12.9875C22.8154 12.9743 22.763 12.9716 22.7117 12.9797C22.6604 12.9878 22.6113 13.0064 22.5676 13.0345C22.5239 13.0625 22.4865 13.0993 22.4577 13.1425L21.6252 14.1813V7.75005C21.6252 7.6506 21.5857 7.55522 21.5154 7.48489C21.4451 7.41456 21.3497 7.37506 21.2502 7.37506H19.7502V7.00006C19.752 6.91233 19.723 6.82676 19.6681 6.75824C19.6133 6.68972 19.5362 6.64259 19.4502 6.62506L18.059 6.34756C17.9435 5.93127 17.7773 5.53076 17.564 5.15506L18.3515 4.00007C18.3992 3.92779 18.4204 3.84124 18.4115 3.75511C18.4026 3.66899 18.3642 3.58859 18.3027 3.52757L17.2415 2.44757C17.1805 2.38615 17.1001 2.34773 17.0139 2.33885C16.9278 2.32996 16.8413 2.35115 16.769 2.39882L15.5877 3.18632C15.212 2.97305 14.8115 2.80681 14.3952 2.69132L14.1252 1.30008C14.1077 1.2141 14.0606 1.13699 13.9921 1.08217C13.9236 1.02736 13.838 0.998307 13.7502 1.00008H12.2503C12.1625 0.998307 12.0769 1.02736 12.0084 1.08217C11.9399 1.13699 11.8928 1.2141 11.8753 1.30008L11.5978 2.69132C11.184 2.80738 10.7861 2.97362 10.4128 3.18632L9.25026 2.39882C9.17798 2.35115 9.09143 2.32996 9.0053 2.33885C8.91918 2.34773 8.83878 2.38615 8.77776 2.44757L7.69776 3.50882C7.63155 3.57093 7.59011 3.65495 7.58115 3.74529C7.57218 3.83563 7.59629 3.92615 7.64901 4.00007L8.43651 5.18131C8.22324 5.55701 8.057 5.95752 7.94151 6.37381L6.55026 6.62506C6.46428 6.64259 6.38718 6.68972 6.33236 6.75824C6.27754 6.82676 6.24849 6.91233 6.25026 7.00006V7.37506H4.75027C4.65081 7.37506 4.55543 7.41456 4.4851 7.48489C4.41477 7.55522 4.37527 7.6506 4.37527 7.75005V14.1813L3.54277 13.1425C3.51402 13.0993 3.47661 13.0625 3.4329 13.0345C3.38918 13.0064 3.34013 12.9878 3.28883 12.9797C3.23754 12.9716 3.18512 12.9743 3.13491 12.9875C3.08469 13.0007 3.03778 13.0243 2.99713 13.0566C2.95648 13.0889 2.92298 13.1293 2.89876 13.1752C2.87454 13.2211 2.86012 13.2716 2.85642 13.3234C2.85272 13.3752 2.85982 13.4272 2.87727 13.4761C2.89471 13.525 2.92212 13.5698 2.95777 13.6075L4.45777 15.4825C4.4929 15.5263 4.53743 15.5617 4.58805 15.586C4.63868 15.6103 4.69411 15.6229 4.75027 15.6229C4.80642 15.6229 4.86185 15.6103 4.91248 15.586C4.9631 15.5617 5.00763 15.5263 5.04276 15.4825L6.54276 13.6075C6.57841 13.5698 6.60582 13.525 6.62327 13.4761C6.64071 13.4272 6.64781 13.3752 6.64411 13.3234C6.64041 13.2716 6.62599 13.2211 6.60177 13.1752C6.57755 13.1293 6.54405 13.0889 6.5034 13.0566C6.46275 13.0243 6.41584 13.0007 6.36562 12.9875C6.31541 12.9743 6.26299 12.9716 6.2117 12.9797C6.1604 12.9878 6.11135 13.0064 6.06763 13.0345C6.02392 13.0625 5.98651 13.0993 5.95776 13.1425L5.12526 14.1813V8.12505H6.25026V8.50005C6.24849 8.58778 6.27754 8.67335 6.33236 8.74187C6.38718 8.81039 6.46428 8.85752 6.55026 8.87505L7.94151 9.15255C8.057 9.56884 8.22324 9.96935 8.43651 10.345L7.64901 11.5263C7.60134 11.5986 7.58015 11.6851 7.58903 11.7712C7.59792 11.8574 7.63634 11.9378 7.69776 11.9988L8.75901 13.06C8.82003 13.1215 8.90043 13.1599 8.98655 13.1688C9.07268 13.1776 9.15923 13.1565 9.23151 13.1088L10.4128 12.3213C10.7885 12.5346 11.189 12.7008 11.6053 12.8163L11.8753 14.2C11.8928 14.286 11.9399 14.3631 12.0084 14.4179C12.0769 14.4727 12.1625 14.5018 12.2503 14.5H12.6253V16.4088C12.1582 16.4895 11.7285 16.7156 11.3975 17.0549C11.0666 17.3942 10.8512 17.8294 10.7822 18.2983C10.7132 18.7673 10.7941 19.2461 11.0132 19.6663C11.2324 20.0866 11.5787 20.4269 12.0028 20.6388C11.2122 20.8569 10.5149 21.3282 10.0178 21.9804C9.52067 22.6327 9.25105 23.4299 9.25026 24.25V24.625C9.25026 24.7245 9.28977 24.8198 9.36009 24.8902C9.43042 24.9605 9.5258 25 9.62526 25H16.3752C16.4747 25 16.5701 24.9605 16.6404 24.8902C16.7107 24.8198 16.7502 24.7245 16.7502 24.625V24.25C16.7494 23.4299 16.4798 22.6327 15.9827 21.9804C15.4856 21.3282 14.7883 20.8569 13.9977 20.6388C14.4218 20.4269 14.7681 20.0866 14.9873 19.6663C15.2064 19.2461 15.2873 18.7673 15.2183 18.2983C15.1493 17.8294 14.9339 17.3942 14.603 17.0549C14.272 16.7156 13.8423 16.4895 13.3752 16.4088V14.5H13.7502C13.838 14.5018 13.9236 14.4727 13.9921 14.4179C14.0606 14.3631 14.1077 14.286 14.1252 14.2L14.4027 12.8088C14.819 12.6933 15.2195 12.5271 15.5952 12.3138L16.7765 13.1013C16.8488 13.149 16.9353 13.1701 17.0214 13.1613C17.1076 13.1524 17.188 13.114 17.249 13.0525L18.3102 11.9913C18.3705 11.9293 18.4075 11.8485 18.4151 11.7624C18.4226 11.6763 18.4001 11.5902 18.3515 11.5188ZM16.0002 24.25H10.0003C10.0003 23.4544 10.3163 22.6913 10.8789 22.1287C11.4415 21.5661 12.2046 21.25 13.0002 21.25C13.7959 21.25 14.559 21.5661 15.1216 22.1287C15.6842 22.6913 16.0002 23.4544 16.0002 24.25ZM14.5002 18.625C14.5002 18.9217 14.4123 19.2117 14.2475 19.4584C14.0826 19.705 13.8484 19.8973 13.5743 20.0108C13.3002 20.1244 12.9986 20.1541 12.7076 20.0962C12.4166 20.0383 12.1494 19.8955 11.9396 19.6857C11.7298 19.4759 11.587 19.2086 11.5291 18.9177C11.4712 18.6267 11.5009 18.3251 11.6144 18.051C11.728 17.7769 11.9202 17.5426 12.1669 17.3778C12.4136 17.213 12.7036 17.125 13.0002 17.125C13.3981 17.125 13.7796 17.2831 14.0609 17.5644C14.3422 17.8457 14.5002 18.2272 14.5002 18.625ZM16.9302 12.3063L15.8052 11.5563C15.7444 11.5168 15.6734 11.4957 15.6009 11.4957C15.5283 11.4957 15.4573 11.5168 15.3965 11.5563C14.9638 11.8286 14.4884 12.0264 13.9902 12.1413C13.9189 12.1566 13.8535 12.1925 13.8022 12.2445C13.7509 12.2964 13.7159 12.3622 13.7015 12.4338L13.4427 13.75H12.5578L12.2953 12.43C12.2808 12.3585 12.2458 12.2927 12.1945 12.2407C12.1432 12.1887 12.0779 12.1529 12.0065 12.1375C11.5083 12.0226 11.033 11.8249 10.6003 11.5525C10.5394 11.513 10.4684 11.492 10.3959 11.492C10.3233 11.492 10.2523 11.513 10.1915 11.5525L9.06651 12.3025L8.44026 11.6763L9.19026 10.5513C9.2298 10.4905 9.25084 10.4195 9.25084 10.3469C9.25084 10.2744 9.2298 10.2034 9.19026 10.1425C8.91793 9.70984 8.72018 9.23449 8.60526 8.7363C8.58991 8.66492 8.55405 8.59958 8.50209 8.54829C8.45013 8.49699 8.38433 8.46198 8.31276 8.44755L7.00026 8.19255V7.30756L8.32026 7.04506C8.39183 7.03063 8.45763 6.99562 8.50959 6.94432C8.56155 6.89303 8.59741 6.82769 8.61276 6.75631C8.72768 6.25812 8.92543 5.78277 9.19776 5.35006C9.2373 5.28923 9.25834 5.21824 9.25834 5.14569C9.25834 5.07314 9.2373 5.00214 9.19776 4.94131L8.44776 3.81632L9.07401 3.19007L10.199 3.94007C10.2598 3.97961 10.3308 4.00065 10.4034 4.00065C10.4759 4.00065 10.5469 3.97961 10.6078 3.94007C11.0386 3.67113 11.5114 3.47595 12.0065 3.36257C12.0779 3.34722 12.1432 3.31136 12.1945 3.2594C12.2458 3.20744 12.2808 3.14164 12.2953 3.07007L12.5578 1.75007H13.4427L13.7052 3.07007C13.7197 3.14164 13.7547 3.20744 13.806 3.2594C13.8573 3.31136 13.9226 3.34722 13.994 3.36257C14.4922 3.47749 14.9675 3.67524 15.4002 3.94757C15.4611 3.98711 15.5321 4.00815 15.6046 4.00815C15.6772 4.00815 15.7482 3.98711 15.809 3.94757L16.934 3.19757L17.5602 3.82382L16.8102 4.94881C16.7707 5.00964 16.7497 5.08064 16.7497 5.15319C16.7497 5.22574 16.7707 5.29673 16.8102 5.35756C17.0826 5.79027 17.2803 6.26562 17.3952 6.76381C17.4106 6.83519 17.4465 6.90053 17.4984 6.95182C17.5504 7.00312 17.6162 7.03813 17.6877 7.05256L19.0077 7.31506V8.20005L17.6877 8.46255C17.6162 8.47698 17.5504 8.51199 17.4984 8.56329C17.4465 8.61458 17.4106 8.67992 17.3952 8.7513C17.2803 9.24949 17.0826 9.72484 16.8102 10.1575C16.7707 10.2184 16.7497 10.2894 16.7497 10.3619C16.7497 10.4345 16.7707 10.5055 16.8102 10.5663L17.5602 11.6913L16.9302 12.3063Z" fill="#DADBDD" stroke="#DADBDD"/>
<path d="M5.74749 20.6389C6.20256 20.4138 6.56814 20.0414 6.78481 19.5823C7.00147 19.1231 7.05649 18.6042 6.94091 18.1099C6.82534 17.6155 6.54597 17.1748 6.14821 16.8593C5.75045 16.5438 5.25768 16.3721 4.74999 16.3721C4.2423 16.3721 3.74953 16.5438 3.35177 16.8593C2.95401 17.1748 2.67464 17.6155 2.55907 18.1099C2.4435 18.6042 2.49852 19.1231 2.71518 19.5823C2.93185 20.0414 3.29742 20.4138 3.7525 20.6389C2.96194 20.857 2.26469 21.3283 1.76755 21.9805C1.27042 22.6328 1.0008 23.43 1 24.2501V24.6251C1 24.7246 1.03951 24.8199 1.10983 24.8903C1.18016 24.9606 1.27554 25.0001 1.375 25.0001H8.12499C8.22444 25.0001 8.31983 24.9606 8.39015 24.8903C8.46048 24.8199 8.49999 24.7246 8.49999 24.6251V24.2501C8.49919 23.43 8.22957 22.6328 7.73243 21.9805C7.23529 21.3283 6.53805 20.857 5.74749 20.6389ZM3.25 18.6251C3.25 18.3284 3.33797 18.0384 3.50279 17.7918C3.66761 17.5451 3.90188 17.3528 4.17597 17.2393C4.45006 17.1258 4.75166 17.0961 5.04263 17.1539C5.3336 17.2118 5.60087 17.3547 5.81065 17.5645C6.02043 17.7742 6.16329 18.0415 6.22117 18.3325C6.27905 18.6235 6.24934 18.9251 6.13581 19.1991C6.02228 19.4732 5.83002 19.7075 5.58335 19.8723C5.33667 20.0371 5.04666 20.1251 4.74999 20.1251C4.35217 20.1251 3.97064 19.9671 3.68934 19.6858C3.40803 19.4045 3.25 19.0229 3.25 18.6251ZM1.75 24.2501C1.75 23.4545 2.06607 22.6914 2.62868 22.1288C3.19128 21.5662 3.95435 21.2501 4.74999 21.2501C5.54564 21.2501 6.3087 21.5662 6.87131 22.1288C7.43392 22.6914 7.74999 23.4545 7.74999 24.2501H1.75Z" fill="#DADBDD" stroke="#DADBDD"/>
<path d="M22.2475 20.6389C22.7026 20.4138 23.0681 20.0414 23.2848 19.5823C23.5015 19.1231 23.5565 18.6042 23.4409 18.1099C23.3253 17.6155 23.046 17.1748 22.6482 16.8593C22.2505 16.5438 21.7577 16.3721 21.25 16.3721C20.7423 16.3721 20.2495 16.5438 19.8518 16.8593C19.454 17.1748 19.1746 17.6155 19.0591 18.1099C18.9435 18.6042 18.9985 19.1231 19.2152 19.5823C19.4318 20.0414 19.7974 20.4138 20.2525 20.6389C19.4619 20.857 18.7647 21.3283 18.2676 21.9805C17.7704 22.6328 17.5008 23.43 17.5 24.2501V24.6251C17.5 24.7246 17.5395 24.8199 17.6098 24.8903C17.6802 24.9606 17.7755 25.0001 17.875 25.0001H24.625C24.7244 25.0001 24.8198 24.9606 24.8902 24.8903C24.9605 24.8199 25 24.7246 25 24.6251V24.2501C24.9992 23.43 24.7296 22.6328 24.2324 21.9805C23.7353 21.3283 23.038 20.857 22.2475 20.6389ZM19.75 18.6251C19.75 18.3284 19.838 18.0384 20.0028 17.7918C20.1676 17.5451 20.4019 17.3528 20.676 17.2393C20.9501 17.1258 21.2517 17.0961 21.5426 17.1539C21.8336 17.2118 22.1009 17.3547 22.3107 17.5645C22.5204 17.7742 22.6633 18.0415 22.7212 18.3325C22.779 18.6235 22.7493 18.9251 22.6358 19.1991C22.5223 19.4732 22.33 19.7075 22.0833 19.8723C21.8367 20.0371 21.5467 20.1251 21.25 20.1251C20.8522 20.1251 20.4706 19.9671 20.1893 19.6858C19.908 19.4045 19.75 19.0229 19.75 18.6251ZM18.25 24.2501C18.25 23.4545 18.5661 22.6914 19.1287 22.1288C19.6913 21.5662 20.4543 21.2501 21.25 21.2501C22.0456 21.2501 22.8087 21.5662 23.3713 22.1288C23.9339 22.6914 24.25 23.4545 24.25 24.2501H18.25Z" fill="#DADBDD" stroke="#DADBDD"/>
</svg>
