<svg width="46" height="50" viewBox="0 0 46 50" fill="none" xmlns="http://www.w3.org/2000/svg">
<path d="M10.0659 42.3087L2.14535 38.3485L6.35572 36.2433C6.75175 36.0349 6.91849 35.5555 6.71006 35.1594C6.50163 34.7634 6.02223 34.5967 5.6262 34.8051L1.08233 37.077C0.498717 37.3688 0.165222 37.8274 0.165222 38.3485C0.165222 38.8696 0.498717 39.349 1.08233 39.6408L9.31549 43.7678C9.44055 43.8303 9.54477 43.8512 9.66983 43.8512C9.96163 43.8512 10.2534 43.6844 10.3993 43.4134C10.6286 42.9966 10.4619 42.5172 10.0659 42.3087Z" fill="#DADBDD"/>
<path d="M44.3325 37.077L39.7886 34.8051C39.3926 34.5967 38.9132 34.7634 38.7048 35.1594C38.4963 35.5555 38.6631 36.0349 39.0591 36.2433L43.2695 38.3485L23.4682 48.2491C23.0722 48.4367 22.3427 48.4367 21.9466 48.2491L13.9219 44.2263C13.5259 44.0179 13.0465 44.1846 12.8381 44.5807C12.6296 44.9767 12.7964 45.4561 13.1924 45.6645L21.2171 49.6873C21.634 49.8957 22.1759 50 22.697 50C23.2181 50 23.76 49.8957 24.1769 49.6873L44.3116 39.6199C44.8953 39.3281 45.2288 38.8696 45.2288 38.3485C45.2496 37.8274 44.9161 37.3688 44.3325 37.077Z" fill="#DADBDD"/>
<path d="M10.0659 33.2404L2.14535 29.2801L6.35572 27.1749C6.75175 26.9665 6.91849 26.4871 6.71006 26.0911C6.50163 25.6951 6.02223 25.5283 5.6262 25.7367L1.08233 28.0087C0.498717 28.3005 0.165222 28.759 0.165222 29.2801C0.165222 29.8012 0.498717 30.2806 1.08233 30.5724L9.31549 34.6994C9.44055 34.7619 9.54477 34.7828 9.66983 34.7828C9.96163 34.7828 10.2534 34.616 10.3993 34.3451C10.6286 33.9074 10.4619 33.428 10.0659 33.2404Z" fill="#DADBDD"/>
<path d="M44.3325 27.9872L39.7886 25.7153C39.3926 25.5068 38.9132 25.6736 38.7048 26.0696C38.4963 26.4656 38.6631 26.945 39.0591 27.1535L43.2695 29.2586L23.4682 39.1593C23.0722 39.3469 22.3427 39.3469 21.9466 39.1593L13.9219 35.1365C13.5259 34.9281 13.0465 35.0948 12.8381 35.4908C12.6296 35.8869 12.7964 36.3663 13.1924 36.5747L21.2171 40.5975C21.634 40.8059 22.1759 40.9101 22.697 40.9101C23.2181 40.9101 23.76 40.8059 24.1769 40.5975L44.3116 30.5301C44.8953 30.2383 45.2288 29.7797 45.2288 29.2586C45.2496 28.7584 44.9161 28.279 44.3325 27.9872Z" fill="#DADBDD"/>
<path d="M24.9064 1.60075C25.6567 1.74666 26.3862 1.99678 27.0741 2.30943L26.949 5.62353C26.949 5.87366 27.0532 6.10293 27.2408 6.26968C27.4284 6.43643 27.6785 6.49896 27.9287 6.43643L31.3261 5.70691C31.6596 6.14462 31.9514 6.62402 32.2224 7.12426L29.8463 9.75053C29.6795 9.93812 29.5961 10.1882 29.6587 10.4384C29.7004 10.6885 29.8463 10.8969 30.0755 11.0011L33.4522 12.7937C33.4313 13.2731 33.3688 13.7525 33.2646 14.2319L29.4085 14.7738C28.9708 14.8363 28.6582 15.2324 28.7207 15.6909C28.7832 16.0869 29.1167 16.3787 29.5128 16.3787C29.5545 16.3787 29.5961 16.3787 29.617 16.3787L34.0358 15.7743C34.3693 15.7326 34.6194 15.4825 34.7028 15.1698C34.9321 14.2527 35.0571 13.2939 35.078 12.3351C35.078 12.0225 34.9112 11.7515 34.6402 11.6056L31.7222 10.0632L33.7857 7.79125C33.9941 7.54113 34.0566 7.20763 33.9107 6.91583C33.473 5.97787 32.9102 5.10245 32.2641 4.3104C32.0765 4.08112 31.7639 3.9769 31.472 4.03943L28.5957 4.66474L28.6999 1.85087C28.7207 1.53822 28.5331 1.24641 28.2622 1.10051C27.3034 0.621111 26.282 0.266772 25.219 0.0374946C24.7813 -0.0458791 24.3644 0.225086 24.2602 0.662798C24.1977 1.07967 24.4687 1.49653 24.9064 1.60075Z" fill="#DADBDD"/>
<path d="M13.4633 19.5689C13.3383 19.8607 13.4008 20.1942 13.6092 20.4234C14.1929 21.0696 14.8598 21.6532 15.5894 22.1743C15.8603 22.3619 16.2147 22.3827 16.4856 22.1951L19.6121 20.2359L20.7794 23.8418C20.8836 24.1544 21.1546 24.3629 21.4672 24.4045C21.9049 24.4462 22.3218 24.4671 22.7387 24.4671C23.1555 24.4671 23.5932 24.4462 24.0101 24.4045C24.3228 24.3629 24.5937 24.1544 24.6979 23.8418L25.8652 20.2359L28.9917 22.1951C29.2627 22.3619 29.617 22.3619 29.888 22.1743C30.6175 21.6532 31.2845 21.0696 31.8681 20.4234C32.1599 20.09 32.139 19.5897 31.8056 19.2771C31.4721 18.9852 30.9718 19.0061 30.6592 19.3396C30.2631 19.7773 29.8254 20.1733 29.3669 20.5485L25.8235 18.3183C25.6151 18.1932 25.3441 18.1515 25.1148 18.2349C24.8855 18.3183 24.6979 18.5058 24.6146 18.7351L23.3014 22.8204C22.9054 22.8413 22.5094 22.8413 22.1134 22.8204L20.8419 18.756C20.7585 18.5267 20.5918 18.3391 20.3417 18.2557C20.1124 18.1724 19.8414 18.1932 19.633 18.3391L16.0896 20.5693C15.7561 20.2984 15.4435 20.0274 15.1517 19.7356L16.7149 15.9004C16.7983 15.6711 16.7983 15.4002 16.6732 15.1917C16.5482 14.9833 16.3397 14.8374 16.0896 14.7957L12.2336 14.2538C12.1294 13.7744 12.0877 13.295 12.046 12.8156L15.4226 11.0231C15.6519 10.898 15.7978 10.6896 15.8395 10.4603C15.8812 10.2102 15.8186 9.96004 15.6519 9.77245L13.2549 7.10449C13.5259 6.60425 13.8177 6.1457 14.1512 5.70798L17.5695 6.4375C17.8196 6.50003 18.0697 6.4375 18.2573 6.27076C18.4449 6.10401 18.5491 5.87473 18.5491 5.62461L18.4032 2.28966C18.9452 2.03954 19.5079 1.85195 20.0915 1.70604L22.1134 4.29063C22.3843 4.64497 22.8846 4.7075 23.2389 4.43653C23.5932 4.16557 23.6558 3.66533 23.3848 3.31099L21.0503 0.309535C20.8628 0.0594134 20.5501 -0.0448038 20.2583 0.0177265C19.1953 0.247004 18.174 0.601343 17.2152 1.08074C16.9442 1.22665 16.7566 1.51845 16.7774 1.83111L16.8817 4.64497L14.0053 4.01967C13.7135 3.95713 13.4008 4.06135 13.2132 4.29063C12.5671 5.08268 12.0251 5.9581 11.5666 6.89606C11.4207 7.18787 11.4832 7.54221 11.6916 7.77148L13.7551 10.0434L10.8371 11.5858C10.5661 11.7317 10.3994 12.0027 10.3994 12.3154C10.4202 13.2741 10.5453 14.2329 10.7745 15.1501C10.8579 15.4627 11.1289 15.7128 11.4415 15.7545L14.8182 16.2131L13.4633 19.5689Z" fill="#DADBDD"/>
<path d="M19.2996 12.1062C19.2996 14.0029 20.842 15.5453 22.7387 15.5453C24.6355 15.5453 26.1779 14.0029 26.1779 12.1062C26.1779 10.2094 24.6355 8.66699 22.7387 8.66699C20.842 8.66699 19.2996 10.2094 19.2996 12.1062ZM24.5729 12.1062C24.5729 13.1066 23.7601 13.9404 22.7387 13.9404C21.7174 13.9404 20.9045 13.1275 20.9045 12.1062C20.9045 11.1057 21.7174 10.2719 22.7387 10.2719C23.7601 10.2719 24.5729 11.1057 24.5729 12.1062Z" fill="#DADBDD"/>
<path d="M1.12402 21.6727L9.35717 25.7997C9.48223 25.8622 9.6073 25.883 9.71151 25.883C10.0033 25.883 10.2951 25.7163 10.441 25.4453C10.6495 25.0493 10.4827 24.5699 10.0867 24.3615L2.16619 20.4012L6.37656 18.296C6.77259 18.0876 6.93934 17.6082 6.7309 17.2122C6.52247 16.8162 6.04307 16.6494 5.64704 16.8578L1.10318 19.1089C0.51956 19.4007 0.206909 19.8593 0.206909 20.3804C0.206909 20.9223 0.540404 21.3809 1.12402 21.6727Z" fill="#DADBDD"/>
<path d="M39.0591 18.296L43.2695 20.4012L23.4682 30.3018C23.0722 30.4894 22.3427 30.4894 21.9466 30.3018L13.9219 26.2791C13.5259 26.0706 13.0465 26.2374 12.8381 26.6334C12.6296 27.0294 12.7964 27.5088 13.1924 27.7173L21.2171 31.74C21.634 31.9485 22.1759 32.0527 22.697 32.0527C23.2181 32.0527 23.76 31.9485 24.1769 31.74L44.3116 21.6727C44.8953 21.3809 45.2288 20.9223 45.2288 20.4012C45.2288 19.8801 44.8953 19.4007 44.3116 19.1298L39.7678 16.8578C39.3717 16.6494 38.8924 16.8162 38.6839 17.2122C38.5172 17.6082 38.6631 18.0876 39.0591 18.296Z" fill="#DADBDD"/>
</svg>
