<svg width="26" height="26" viewBox="0 0 26 26" fill="none" xmlns="http://www.w3.org/2000/svg">
<path d="M13.2929 24.7073C13.2929 24.8685 13.1614 25 13.0002 25C6.38297 25 1.00024 19.6173 1.00024 13C1.00024 6.38273 6.38297 1 13.0002 1C19.6175 1 25.0002 6.38273 25.0002 13C25.0002 13.1612 24.8687 13.2927 24.7075 13.2927C24.5463 13.2927 24.4149 13.1612 24.4149 13C24.4149 6.70732 19.2929 1.58537 13.0002 1.58537C6.70755 1.58537 1.58561 6.70732 1.58561 13C1.58561 19.2927 6.70755 24.4146 13.0002 24.4146C13.1614 24.4146 13.2929 24.5461 13.2929 24.7073ZM24.8185 15.0716C24.7842 15.0579 24.7453 15.0487 24.7076 15.0487H22.3661C22.2049 15.0487 22.0734 15.1802 22.0734 15.3414C22.0734 15.5026 22.2049 15.6341 22.3661 15.6341H24.0021L20.6099 19.0263L19.0619 17.4783C18.9476 17.3639 18.7635 17.3639 18.6492 17.4783L15.137 20.9905C15.0227 21.1048 15.0227 21.2889 15.137 21.4032C15.1919 21.4581 15.265 21.4878 15.3416 21.4878C15.4182 21.4878 15.4914 21.4581 15.5497 21.4032L18.8538 18.0956L20.4018 19.6436C20.5162 19.758 20.7002 19.758 20.8146 19.6436L24.4149 16.0469V17.6829C24.4149 17.8441 24.5463 17.9756 24.7075 17.9756C24.8688 17.9756 25.0002 17.8441 25.0002 17.6829V15.3414C25.0002 15.3037 24.9911 15.2648 24.9774 15.2305C24.9476 15.1574 24.8916 15.1013 24.8185 15.0716ZM24.7076 24.4146H24.4149V19.439C24.4149 19.2778 24.2834 19.1463 24.1222 19.1463C23.961 19.1463 23.8295 19.2778 23.8295 19.439V24.4146H20.3173V21.1951C20.3173 21.0339 20.1858 20.9024 20.0246 20.9024C19.8634 20.9024 19.732 21.0339 19.732 21.1951V24.4146H16.2198V22.9512C16.2198 22.79 16.0883 22.6585 15.9271 22.6585C15.7659 22.6585 15.6344 22.79 15.6344 22.9512V24.4146H15.3417C15.1805 24.4146 15.049 24.5461 15.049 24.7073C15.049 24.8685 15.1805 25 15.3417 25H24.7076C24.8688 25 25.0002 24.8685 25.0002 24.7073C25.0002 24.5461 24.8688 24.4146 24.7076 24.4146ZM13.0003 20.9024C12.8391 20.9024 12.7076 21.0339 12.7076 21.1951V22.064C7.93656 21.912 4.08836 18.0636 3.93617 13.2926H4.80509C4.96629 13.2926 5.09777 13.1611 5.09777 12.9999C5.09777 12.8387 4.96629 12.7073 4.80509 12.7073H3.93617C4.08823 7.93623 7.93656 4.08804 12.7076 3.93584V4.80476C12.7076 4.96596 12.8391 5.09744 13.0003 5.09744C13.1615 5.09744 13.2929 4.96596 13.2929 4.80476V3.93584C18.064 4.0879 21.9121 7.93623 22.0643 12.7073H21.1954C21.0342 12.7073 20.9027 12.8387 20.9027 12.9999C20.9027 13.1611 21.0342 13.2926 21.1954 13.2926H22.3662C22.5274 13.2926 22.6588 13.1611 22.6588 12.9999C22.6588 7.67341 18.3268 3.3414 13.0003 3.3414C7.67379 3.3414 3.34179 7.67341 3.34179 12.9999C3.34179 18.3265 7.67379 22.6585 13.0003 22.6585C13.1615 22.6585 13.293 22.527 13.293 22.3658V21.1951C13.293 21.0339 13.1615 20.9024 13.0003 20.9024ZM14.4637 13C14.4637 13.8083 13.8086 14.4634 13.0003 14.4634C12.6698 14.4634 12.3646 14.3491 12.1188 14.1616C12.1222 14.2405 12.0959 14.3171 12.0342 14.3777L8.52199 17.8899C8.46711 17.9459 8.39394 17.9756 8.31734 17.9756C8.24074 17.9756 8.16757 17.9459 8.10926 17.891C7.99493 17.7767 7.99493 17.5926 8.10926 17.4783L11.6215 13.9661C11.6798 13.9078 11.7586 13.8781 11.8375 13.8815C11.6512 13.6357 11.5369 13.3304 11.5369 13C11.5369 12.2946 12.0399 11.7035 12.7076 11.5663V7.7316C12.7076 7.57039 12.8391 7.43892 13.0003 7.43892C13.1615 7.43892 13.293 7.57039 13.293 7.7316V11.5663C13.9606 11.7035 14.4637 12.2946 14.4637 13ZM13.8783 13C13.8783 12.5175 13.4827 12.122 13.0003 12.122C12.5178 12.122 12.1222 12.5175 12.1222 13C12.1222 13.4825 12.5178 13.878 13.0003 13.878C13.4827 13.878 13.8783 13.4825 13.8783 13Z" fill="#DADBDD" stroke="#DADBDD"/>
</svg>
