<svg width="26" height="26" viewBox="0 0 26 26" fill="none" xmlns="http://www.w3.org/2000/svg">
<path d="M13 18.6118C9.90625 18.6118 7.38802 16.0948 7.38802 12.9999C7.38802 9.9063 9.90505 7.38812 13 7.38812C13.1355 7.38812 13.2456 7.27807 13.2456 7.14254V1.24559C13.2456 1.11006 13.1355 1 13 1C12.5383 1 12.0686 1.02649 11.61 1.0805C11.0546 1.14572 10.6266 1.54211 10.5217 2.09035C10.3443 3.01868 9.88984 3.679 9.24378 3.94803C8.59974 4.21399 7.81202 4.07031 7.0294 3.54144C6.56473 3.2286 5.98285 3.24898 5.54465 3.5985C4.81705 4.17526 4.15672 4.83764 3.57995 5.56828C3.23348 6.00646 3.21207 6.58833 3.52492 7.04994C4.05481 7.83255 4.19748 8.61821 3.92949 9.26224C3.66353 9.90628 3.00829 10.3577 2.08502 10.538C1.53677 10.645 1.14037 11.073 1.0782 11.6284C0.974258 12.5414 0.974258 13.4647 1.0782 14.3777C1.14036 14.9331 1.53779 15.3611 2.08502 15.4681C3.00829 15.6484 3.66353 16.1019 3.92949 16.7439C4.19545 17.3879 4.05177 18.1736 3.52492 18.9562C3.21208 19.4178 3.23246 19.9997 3.57995 20.4378C4.15672 21.1685 4.81606 21.8308 5.54465 22.4076C5.98285 22.7541 6.56473 22.7785 7.0294 22.4647C7.81202 21.9348 8.5977 21.7921 9.24378 22.0581C9.89088 22.3271 10.3444 22.9844 10.5217 23.9158C10.6256 24.466 11.0536 24.8624 11.61 24.9256C12.0686 24.9735 12.5383 25 13 25C13.1355 25 13.2456 24.8899 13.2456 24.7544V18.8564C13.2456 18.7209 13.1355 18.6118 13 18.6118ZM12.7544 24.5069C12.3916 24.4987 12.0268 24.4733 11.666 24.4335C11.3267 24.3948 11.0658 24.1523 11.0036 23.818C10.7927 22.7226 10.2343 21.9349 9.43025 21.6006C9.15613 21.4886 8.86671 21.4315 8.56712 21.4315C7.98524 21.4315 7.36465 21.6424 6.75425 22.0551C6.473 22.2457 6.11532 22.2324 5.84933 22.0215C5.15026 21.4682 4.51641 20.8323 3.96307 20.1332C3.75213 19.8673 3.73888 19.5127 3.92944 19.2304C4.55309 18.3072 4.71512 17.3574 4.38088 16.5565C4.0497 15.7555 3.26708 15.2002 2.1767 14.9862C1.84247 14.921 1.59993 14.6601 1.56119 14.3208C1.46234 13.4444 1.46234 12.5568 1.56119 11.6836C1.59991 11.3443 1.84041 11.0834 2.1767 11.0182C3.26708 10.8073 4.0497 10.2488 4.38088 9.4479C4.71207 8.64695 4.5531 7.69723 3.92944 6.77399C3.73888 6.49274 3.75213 6.1371 3.96307 5.87114C4.51641 5.17209 5.15026 4.5352 5.84933 3.98289C6.11529 3.77195 6.47297 3.7587 6.75425 3.94926C7.67751 4.5729 8.62726 4.73492 9.43135 4.40273C10.2343 4.06851 10.7928 3.28384 11.0047 2.18534C11.07 1.85112 11.3308 1.60858 11.6671 1.56985C12.0268 1.52806 12.3927 1.50157 12.7555 1.49648V6.90639C9.50471 7.03173 6.89804 9.71882 6.89804 13C6.89804 16.2813 9.50374 18.9685 12.7544 19.0968L12.7544 24.5069ZM23.7662 11.766C23.169 11.766 22.6707 12.191 22.5586 12.7545H8.85954C8.72401 12.7545 8.61395 12.8646 8.61395 13.0001C8.61395 13.1356 8.72401 13.2457 8.85954 13.2457H22.5586C22.6738 13.8092 23.1721 14.2341 23.7662 14.2341C24.4469 14.2341 25.0002 13.6808 25.0002 13.0001C25.0002 12.3194 24.4469 11.766 23.7662 11.766ZM23.7662 13.7439C23.3565 13.7439 23.0223 13.4097 23.0223 13.0001C23.0223 12.5904 23.3565 12.2562 23.7662 12.2562C24.1758 12.2562 24.5101 12.5904 24.5101 13.0001C24.5101 13.4097 24.1759 13.7439 23.7662 13.7439ZM17.124 10.7776H10.4412C10.3057 10.7776 10.1956 10.8877 10.1956 11.0232C10.1956 11.1587 10.3057 11.2688 10.4412 11.2688H17.2005C17.2504 11.2688 17.2973 11.2535 17.3391 11.227L20.12 9.32243C20.3421 9.53847 20.6448 9.67195 20.978 9.67195C21.6588 9.67195 22.2121 9.11862 22.2121 8.4379C22.2121 7.75719 21.6588 7.20386 20.978 7.20386C20.2973 7.20386 19.744 7.75719 19.744 8.4379C19.744 8.60706 19.7776 8.77213 19.8408 8.91785L17.124 10.7776ZM20.9772 7.69412C21.3868 7.69412 21.7211 8.02835 21.7211 8.43802C21.7211 8.84766 21.3868 9.18191 20.9772 9.18191C20.5675 9.18191 20.2332 8.84769 20.2332 8.43802C20.2343 8.02838 20.5685 7.69412 20.9772 7.69412ZM12.0218 8.79773C11.8863 8.79773 11.7762 8.90779 11.7762 9.04332C11.7762 9.17885 11.8863 9.2889 12.0218 9.2889H15.0503C15.1421 9.2889 15.2277 9.23693 15.2694 9.15541L16.6594 6.41628C16.7633 6.44482 16.8734 6.46621 16.9855 6.46621C17.6662 6.46621 18.2196 5.91288 18.2196 5.23217C18.2196 4.55146 17.6662 3.99813 16.9855 3.99813C16.3048 3.99813 15.7514 4.55146 15.7514 5.23217C15.7514 5.62348 15.9369 5.9679 16.2212 6.19514L14.8965 8.80079L12.0216 8.79977L12.0218 8.79773ZM16.9886 4.48817C17.3983 4.48817 17.7326 4.8224 17.7326 5.23206C17.7326 5.64171 17.3983 5.97596 16.9886 5.97596C16.579 5.97596 16.2447 5.64173 16.2447 5.23206C16.2457 4.8214 16.579 4.48817 16.9886 4.48817ZM20.9772 16.3293C20.6429 16.3293 20.3403 16.4628 20.1191 16.6788L17.3382 14.7743C17.2964 14.7457 17.2495 14.7325 17.1996 14.7325H10.4414C10.3058 14.7325 10.1958 14.8425 10.1958 14.9781C10.1958 15.1136 10.3058 15.2236 10.4414 15.2236H17.1252L19.841 17.0834C19.7788 17.2321 19.7441 17.3942 19.7441 17.5633C19.7441 18.244 20.2975 18.7973 20.9782 18.7973C21.6589 18.7973 22.2123 18.244 22.2123 17.5633C22.2113 16.8816 21.6589 16.3293 20.9772 16.3293ZM20.9772 18.3062C20.5675 18.3062 20.2332 17.972 20.2332 17.5623C20.2332 17.1526 20.5675 16.8184 20.9772 16.8184C21.3868 16.8184 21.7211 17.1526 21.7211 17.5623C21.7211 17.9719 21.3868 18.3062 20.9772 18.3062ZM16.9886 19.5351C16.8735 19.5351 16.7665 19.5555 16.6625 19.5851L15.2726 16.8459C15.2308 16.7624 15.1472 16.7124 15.0535 16.7124H12.0219C11.8863 16.7124 11.7763 16.8225 11.7763 16.958C11.7763 17.0935 11.8863 17.2036 12.0219 17.2036H14.9017L16.2264 19.8092C15.9421 20.0365 15.7566 20.3809 15.7566 20.7722C15.7566 21.4529 16.31 22.0063 16.9907 22.0063C17.6714 22.0063 18.2248 21.4529 18.2248 20.7722C18.2258 20.0905 17.6694 19.5351 16.9886 19.5351ZM16.9886 21.512C16.579 21.512 16.2447 21.1778 16.2447 20.7681C16.2447 20.3585 16.579 20.0242 16.9886 20.0242C17.3983 20.0242 17.7326 20.3584 17.7326 20.7681C17.7326 21.1788 17.3983 21.512 16.9886 21.512Z" stroke="#DADBDD"/>
</svg>
