<svg width="32" height="36" viewBox="0 0 32 36" fill="none" xmlns="http://www.w3.org/2000/svg">
<path d="M7.20091 1C7.20091 1 7.19698 1.00133 7.19436 1.00133C7.16552 1.00266 7.13669 1.00797 7.10916 1.01859L7.09343 1.02656C7.06591 1.03985 7.03969 1.05711 7.01742 1.07836L1.07733 7.09256C1.05636 7.11513 1.03932 7.14037 1.02752 7.16826C1.02359 7.17623 1.01966 7.1842 1.01704 7.1935C1.00918 7.21741 1.00393 7.24131 1.00262 7.26655C1.00131 7.27186 1 7.27584 1 7.28116V27.7831C1 29.0794 2.04071 30.1326 3.31996 30.1326H11.4646C11.534 30.1326 11.6009 30.1048 11.6494 30.0543C11.6992 30.0038 11.7254 29.9361 11.7254 29.8657C11.7254 29.7196 11.6087 29.6014 11.4646 29.6014H3.31996C2.32119 29.6014 1.52428 28.7938 1.52428 27.7831V7.54535H5.14712C6.42637 7.54535 7.46577 6.49477 7.46577 5.19846L7.46446 1.53139H21.5008C22.4996 1.53139 23.2939 2.33628 23.2939 3.34701V15.7576C23.2939 15.828 23.3214 15.8957 23.3699 15.9462C23.4197 15.9966 23.4866 16.0245 23.5573 16.0245C23.6268 16.0232 23.6936 15.9953 23.7421 15.9462C23.7919 15.8957 23.8182 15.828 23.8182 15.7576V3.34701C23.8182 2.0507 22.7801 1.00012 21.4995 1.00012L7.20091 1ZM6.94008 1.90584V5.19841C6.94008 6.20917 6.14448 7.01402 5.14571 7.01402H1.89516L5.44854 3.41598L6.94008 1.90584ZM9.30199 9.3821C9.01888 9.38741 8.74231 9.49499 8.52998 9.71414L6.7959 11.5165L6.04355 10.7342C5.62805 10.3052 4.9976 10.2986 4.54278 10.6306L4.54409 10.6293C4.53491 10.6266 4.52705 10.6239 4.51788 10.6213L4.52574 10.6372C4.47986 10.6718 4.41564 10.6558 4.37501 10.6983C3.92676 11.1672 3.95558 11.9282 4.41433 12.4064H4.41302L4.41564 12.4077L6.01993 14.0719C6.47999 14.5527 7.23627 14.5872 7.68978 14.1197L10.2404 11.47H10.2417C10.6926 10.9998 10.6586 10.2321 10.1946 9.75395C9.96387 9.5162 9.66111 9.39003 9.35963 9.38204H9.30327L9.30199 9.3821ZM9.32034 9.90806C9.49467 9.90541 9.67554 9.97713 9.82104 10.1272C10.0976 10.4114 10.1041 10.8484 9.86298 11.0995L7.31233 13.7465C7.06985 13.9962 6.66745 13.9909 6.39352 13.704H6.39483V13.7027L4.79054 12.0385C4.51791 11.753 4.51005 11.3173 4.74991 11.0676C4.98977 10.8152 5.39217 10.8192 5.66872 11.1048L6.60981 12.081H6.6085C6.65831 12.1328 6.72646 12.1607 6.79724 12.1607C6.86802 12.1607 6.93618 12.1328 6.98467 12.081L8.90618 10.0861C9.0189 9.97051 9.16698 9.90939 9.32034 9.90806ZM12.2747 10.9374C11.6206 10.9374 11.0845 11.4806 11.0845 12.1434C11.0845 12.8062 11.6206 13.3467 12.2747 13.3467H19.574C20.2281 13.3467 20.7642 12.8062 20.7642 12.1434C20.7642 11.4806 20.2294 10.9374 19.574 10.9374H12.2747ZM12.2747 11.4687H19.574C19.9476 11.4687 20.2399 11.7649 20.2399 12.1434C20.2399 12.5219 19.9476 12.8181 19.574 12.8181H12.2747C11.9011 12.8181 11.6088 12.5219 11.6088 12.1434C11.6088 11.7649 11.9011 11.4687 12.2747 11.4687ZM9.30199 15.6896C9.01888 15.6949 8.7423 15.8052 8.52997 16.023L6.7959 17.8227L6.04355 17.0404C5.62805 16.6114 4.9976 16.6048 4.54277 16.9368L4.54409 16.9381C4.53622 16.9355 4.52705 16.9328 4.51918 16.9301L4.52705 16.9434C4.48117 16.978 4.41564 16.9634 4.37369 17.0059C3.92544 17.4747 3.95427 18.2371 4.41302 18.7152V18.7165H4.41433L6.01862 20.3834C6.47868 20.8642 7.23495 20.8987 7.68847 20.4312V20.4299V20.4286V20.4272L10.2391 17.7801V17.7815L10.2417 17.7788C10.6913 17.3086 10.6572 16.5423 10.1946 16.0654C9.96387 15.8277 9.66111 15.7002 9.35832 15.6909C9.33997 15.6909 9.32031 15.6896 9.30196 15.6909L9.30199 15.6896ZM9.32034 16.2156C9.49466 16.2129 9.67554 16.2847 9.82103 16.4347C10.0976 16.719 10.1041 17.1586 9.86298 17.4096L7.31233 20.0567C7.06984 20.3064 6.66745 20.2985 6.39351 20.0116L4.78788 18.3447H4.7905C4.51788 18.0591 4.51001 17.6262 4.74987 17.3764C4.98973 17.1241 5.39344 17.1281 5.66999 17.4136L6.60978 18.3899L6.60847 18.3912C6.65828 18.4417 6.72643 18.4709 6.79721 18.4709C6.86799 18.4709 6.93483 18.4417 6.98464 18.3912L8.90615 16.3949C9.01887 16.2794 9.16698 16.2183 9.32034 16.2169L9.32034 16.2156ZM20.9425 16.4175C15.8778 16.4175 11.7661 20.5799 11.7661 25.7081C11.7661 30.8362 15.8765 35 20.9425 35C25.2129 35 28.9116 32.0143 29.8789 27.8213H30.7374V27.8226C30.8358 27.8226 30.9249 27.7681 30.9708 27.6805C31.0153 27.5915 31.0088 27.4866 30.9524 27.4055L29.7898 25.7094L30.9524 24.0133V24.012C31.0088 23.931 31.0153 23.8247 30.9708 23.7371C30.9249 23.6494 30.8358 23.595 30.7374 23.595H26.3664C26.2799 23.5936 26.1986 23.6361 26.1501 23.7079L24.9626 25.4438H23.0109C22.8812 24.4065 22.0017 23.5989 20.9426 23.5989C19.7957 23.5989 18.8599 24.5473 18.8599 25.7094C18.8599 26.8716 19.7945 27.8186 20.9426 27.8186C22.0004 27.8186 22.8798 27.0124 23.0096 25.9764H24.9639L25.8093 27.2116C25.1579 29.3752 23.1866 30.8599 20.9426 30.8599C18.1298 30.8599 15.8558 28.5569 15.8558 25.7094C15.8558 22.8619 18.1299 20.5588 20.9426 20.5588C22.7907 20.5588 24.4946 21.5736 25.3912 23.2099V23.2086C25.4253 23.271 25.4816 23.3162 25.5485 23.3361C25.6153 23.3547 25.6861 23.3467 25.7477 23.3122C25.8093 23.279 25.8539 23.2205 25.8735 23.1528C25.8919 23.085 25.884 23.012 25.8499 22.9496C24.8604 21.1459 22.9808 20.0249 20.9427 20.0249C17.8468 20.0249 15.3314 22.5724 15.3314 25.7083C15.3314 28.8428 17.8467 31.3903 20.9427 31.3903C23.2823 31.3903 25.357 29.9213 26.1815 27.7443V27.7456C26.2313 27.7947 26.2968 27.8226 26.3663 27.8226H29.339C28.3847 31.7155 24.931 34.4703 20.9414 34.4703C16.1599 34.4703 12.2895 30.5509 12.2895 25.7094C12.2895 20.868 16.1586 16.9486 20.9414 16.9486C24.6179 16.9486 27.8921 19.2995 29.1071 22.8139L29.1084 22.8125C29.132 22.8789 29.1805 22.9334 29.2421 22.9639C29.305 22.9945 29.3784 22.9985 29.444 22.9746C29.579 22.9268 29.651 22.7753 29.6039 22.6385C28.3154 18.9144 24.8409 16.4186 20.9429 16.4186L20.9425 16.4175ZM12.2761 17.2449C11.6221 17.2449 11.086 17.7869 11.086 18.4509C11.086 19.1137 11.6221 19.6569 12.2761 19.6569H13.056H13.0547C13.1255 19.6583 13.1923 19.6304 13.2421 19.5799C13.2906 19.5294 13.3181 19.4617 13.3181 19.3913C13.3181 19.3209 13.2906 19.2532 13.2408 19.2027C13.191 19.1536 13.1241 19.1257 13.0547 19.1257H12.2748C11.9012 19.1257 11.609 18.8295 11.609 18.4509C11.609 18.0724 11.9012 17.7762 12.2748 17.7762H14.8621C14.9316 17.7775 14.9984 17.7496 15.0482 17.6992C15.0981 17.65 15.1256 17.5823 15.1256 17.5119C15.1256 17.4415 15.0981 17.3738 15.0482 17.3233C14.9998 17.2728 14.9329 17.2449 14.8621 17.2449H12.2761ZM9.30343 21.9997C9.02031 22.005 8.74374 22.1126 8.53141 22.3318L6.79734 24.1341L6.04499 23.3518C5.62949 22.9241 5.00166 22.9162 4.54686 23.2455C4.53769 23.2429 4.5272 23.2402 4.51803 23.2376L4.52589 23.2535C4.48002 23.288 4.41579 23.2734 4.37516 23.3159C3.92691 23.7848 3.95573 24.5458 4.41448 25.024H4.41317L4.41579 25.0266L6.02008 26.6908C6.48014 27.1717 7.23642 27.2062 7.68994 26.7387L10.2406 24.0889H10.2419C10.6928 23.6187 10.6587 22.851 10.1947 22.3729C9.96403 22.1351 9.66127 22.009 9.35848 22.001H9.30211L9.30343 21.9997ZM9.32178 22.5257C9.4961 22.523 9.67698 22.5947 9.82247 22.7462C10.099 23.0304 10.1056 23.4674 9.86441 23.7184L7.31376 26.3655C7.07128 26.6152 6.66889 26.6099 6.39495 26.323V26.3217V26.3203L4.79066 24.6561C4.51804 24.3706 4.51017 23.9349 4.75003 23.6852C4.98989 23.4329 5.39229 23.4368 5.66885 23.7224L6.60994 24.6986H6.60863C6.65843 24.7504 6.72659 24.7796 6.79737 24.7796C6.86815 24.7796 6.93499 24.7504 6.9848 24.6986L8.90631 22.7037C9.01903 22.5881 9.16714 22.527 9.3205 22.5257L9.32178 22.5257ZM26.5052 24.1261H30.2354L29.2563 25.5579H29.255C29.1934 25.6482 29.1934 25.7691 29.255 25.8594L30.2341 27.2912H26.5039L26.3243 27.0309C26.3177 27.0176 26.3099 27.0056 26.3007 26.995L25.4186 25.7093L26.5052 24.1261ZM20.9439 24.1301C21.7185 24.1301 22.3581 24.6959 22.4814 25.4437H21.0697C21.0003 25.4437 20.9334 25.4716 20.8849 25.5207C20.8351 25.5712 20.8076 25.6376 20.8076 25.7093C20.8063 25.7797 20.8351 25.8475 20.8836 25.8979C20.9334 25.9484 21.0003 25.9763 21.0697 25.975H22.4787C22.3542 26.7214 21.7159 27.2859 20.9413 27.2859C20.0775 27.2859 19.3842 26.582 19.3842 25.708C19.3842 24.8328 20.0775 24.1288 20.9413 24.1288L20.9439 24.1301Z" fill="#DADBDD" stroke="#DADBDD"/>
</svg>
