<svg width="24" height="26" viewBox="0 0 24 26" fill="none" xmlns="http://www.w3.org/2000/svg">
<mask id="path-1-inside-1_142_2637" fill="white">
<path fill-rule="evenodd" clip-rule="evenodd" d="M6.66999 17.96C6.80676 17.8617 6.99703 17.8847 7.10677 18.0175C7.22252 18.1575 7.20478 18.3664 7.06719 18.4842L6.66999 18.8244V20.8194C6.66999 21.0031 6.52366 21.1522 6.34294 21.1522H3.43969C3.25924 21.1522 3.11264 21.0033 3.11264 20.8194V17.8653C3.11264 17.6817 3.25897 17.5325 3.43969 17.5325H6.34294C6.52339 17.5325 6.66999 17.6814 6.66999 17.8653V17.96ZM4.01188 19.3506C3.87156 19.2364 3.84863 19.0281 3.96083 18.8853C4.07302 18.7425 4.27777 18.7192 4.41809 18.8333L5.04951 19.3475L6.01617 18.5192V18.1983H3.767V20.4869H6.01617V19.385L5.26436 20.0292C5.14806 20.1289 4.97499 20.1347 4.85187 20.0344L4.01188 19.3506ZM15.2392 11.5569L15.0579 13.0036L16.4199 12.5481C16.3896 12.5153 16.3587 12.4825 16.3273 12.4497C16.1829 12.3003 16.027 12.1542 15.861 12.0147C15.6956 11.8758 15.525 11.7475 15.3525 11.6311C15.3148 11.6056 15.2768 11.5811 15.2392 11.5569ZM19.9401 5.43556C20.0119 5.48 20.0845 5.52667 20.1571 5.57556C20.3433 5.70111 20.5317 5.84306 20.7192 6.00083C20.9065 6.15806 21.0793 6.31944 21.2365 6.4825C21.3045 6.55278 21.37 6.62389 21.4328 6.69556L21.7293 6.33C21.7391 6.31556 21.75 6.30194 21.7623 6.28889C21.8895 6.12444 21.9567 5.94 21.9624 5.7725C21.967 5.63611 21.9307 5.51556 21.8521 5.44C21.8395 5.43083 21.8278 5.42056 21.8163 5.40917L21.085 4.795C20.9963 4.72056 20.8663 4.70333 20.7285 4.73556C20.5606 4.77472 20.3883 4.88306 20.2518 5.05139L19.9401 5.43556ZM19.3127 6.20889L19.5194 5.95417C19.6122 6.00889 19.7048 6.06722 19.7968 6.12944C19.9693 6.24583 20.1399 6.37417 20.3053 6.51306C20.4713 6.6525 20.6272 6.79833 20.7716 6.94778C20.8571 7.03611 20.9373 7.125 21.0127 7.21361L20.8085 7.46528C20.7487 7.3975 20.6864 7.33 20.622 7.26333C20.4648 7.10028 20.292 6.93889 20.1047 6.78167C19.9171 6.62417 19.7288 6.48222 19.5426 6.35639C19.4656 6.30444 19.3892 6.25528 19.313 6.20861L19.3127 6.20889ZM7.65139 2.31861H5.7926V4.44389H13.2065V2.31861H11.3477V2.31722C11.1929 2.31722 11.0553 2.20472 11.0272 2.04417C10.9862 1.81444 10.8143 1.60333 10.5601 1.44472C10.2811 1.27056 9.91039 1.165 9.49954 1.165C9.08869 1.165 8.71797 1.27056 8.43897 1.44472C8.19328 1.59806 8.0243 1.80056 7.97652 2.02139C7.95905 2.18833 7.8201 2.31861 7.65139 2.31861ZM13.8603 3.79083H16.3623C16.6882 3.79083 16.9847 3.92639 17.199 4.14472C17.4135 4.36306 17.5468 4.66444 17.5468 4.99611V7.34444L18.3447 6.36083V4.99611C18.3447 4.44167 18.1217 3.9375 17.7622 3.57167C17.4026 3.20583 16.9071 2.97889 16.3623 2.97889H13.8603V3.79083ZM17.4889 8.45694C17.4782 8.47278 17.4662 8.4875 17.4531 8.50111L15.4827 10.93C15.5588 10.9767 15.6353 11.0261 15.7123 11.0778C15.8141 11.1464 15.9165 11.22 16.0188 11.2983L19.4329 7.08944C19.3499 7.02694 19.2658 6.96722 19.1817 6.91028C19.0853 6.84528 18.9884 6.78444 18.8915 6.7275L17.4889 8.45694ZM16.9779 12.1858C16.9181 12.1183 16.8561 12.0511 16.7919 11.9847C16.7065 11.8961 16.6161 11.8078 16.5214 11.7203L19.9357 7.51139C20.0121 7.58278 20.0859 7.65528 20.1566 7.72889C20.2382 7.81361 20.3154 7.89861 20.3878 7.98333L16.9863 12.1767C16.9833 12.1797 16.9806 12.1828 16.9779 12.1858ZM17.5468 13.7422H18.3447V11.5436L17.5468 12.5272V13.7422ZM23.246 21.3606H12.5019C12.4746 21.3606 12.4498 21.3722 12.4315 21.3908C12.4132 21.4094 12.4017 21.435 12.4017 21.4625V21.8303C12.4017 21.8581 12.4132 21.8833 12.4315 21.9019C12.4498 21.9206 12.4749 21.9322 12.5019 21.9322H23.246C23.2733 21.9322 23.2981 21.9206 23.3164 21.9019C23.3347 21.8833 23.3462 21.8578 23.3462 21.8303V21.4625C23.3462 21.4347 23.3347 21.4094 23.3164 21.3908C23.2981 21.3722 23.273 21.3606 23.246 21.3606ZM18.3447 22.5975H17.5468V22.8172C17.5468 23.1489 17.4135 23.4503 17.199 23.6686C16.9844 23.8869 16.6882 24.0225 16.3623 24.0225H2.63682C2.31087 24.0225 2.0144 23.8869 1.8001 23.6686C1.58553 23.4503 1.45231 23.1489 1.45231 22.8172V4.99556C1.45231 4.66389 1.58553 4.3625 1.79983 4.14417C2.0144 3.92583 2.3106 3.79028 2.63655 3.79028H5.13851V2.97833H2.63655C2.09166 2.97833 1.59618 3.20528 1.23665 3.57111C0.87712 3.93694 0.654086 4.44111 0.654086 4.99556V22.8169C0.654086 23.3714 0.87712 23.8756 1.23665 24.2414C1.59618 24.6072 2.09166 24.8342 2.63655 24.8342H16.3623C16.9071 24.8342 17.4026 24.6072 17.7622 24.2414C18.1217 23.8756 18.3447 23.3714 18.3447 22.8169V22.5975ZM23.2165 20.695C23.1985 19.6881 22.9099 18.7464 22.4218 17.9425C21.937 17.1442 21.2548 16.4833 20.444 16.0297V15.5569C20.444 15.3689 20.3597 15.2006 20.224 15.0811C20.1011 14.9728 19.9349 14.9056 19.755 14.9056H19.1943V14.4211C19.1943 14.2378 19.1197 14.0714 18.9985 13.9489V10.7375L22.2499 6.72944C22.4805 6.445 22.6028 6.1075 22.6135 5.79333C22.6249 5.46139 22.5138 5.15167 22.278 4.93833L22.2758 4.93611C22.2681 4.92917 22.2602 4.9225 22.252 4.91583L21.4986 4.28306C21.2447 4.07 20.913 4.01139 20.5827 4.08833C20.2824 4.15861 19.9799 4.34472 19.7484 4.63028L18.9985 5.55472V4.99611C18.9985 4.25806 18.7021 3.5875 18.2243 3.10139C17.7466 2.61528 17.0876 2.31361 16.3623 2.31361H13.8603V1.98611C13.8603 1.8025 13.714 1.65333 13.5333 1.65333H11.5876C11.4602 1.34472 11.2186 1.0775 10.8994 0.878333C10.5219 0.642778 10.0316 0.5 9.49927 0.5C8.96693 0.5 8.47637 0.642778 8.0991 0.878333C7.77997 1.0775 7.53837 1.34472 7.41089 1.65333H5.46528C5.28483 1.65333 5.13824 1.80222 5.13824 1.98611V2.31361H2.63627C1.91094 2.31361 1.25166 2.61528 0.774202 3.10139C0.296468 3.5875 0 4.25806 0 4.99611V22.8175C0 23.5556 0.296468 24.2264 0.774202 24.7122C1.25194 25.1983 1.91094 25.5 2.63627 25.5H16.362C17.0873 25.5 17.7466 25.1983 18.2241 24.7122C18.7018 24.2261 18.9983 23.5556 18.9983 22.8175V22.5978H23.2457C23.4535 22.5978 23.6421 22.5117 23.7786 22.3725C23.9151 22.2333 24 22.0417 24 21.8303V21.4625C24 21.2511 23.9154 21.0592 23.7786 20.9203C23.6418 20.7814 23.4535 20.695 23.2457 20.695H23.2165ZM13.1855 20.695C13.2035 19.8128 13.4555 18.9908 13.8805 18.2908C14.2425 17.695 14.7292 17.1861 15.3039 16.8025V18.2786C15.3039 18.4622 15.4502 18.6114 15.6309 18.6114C15.8116 18.6114 15.958 18.4625 15.958 18.2786V15.5781C15.9664 15.5739 15.9784 15.5711 15.9929 15.5711H16.5536V19.0564C16.5536 19.24 16.6999 19.3892 16.8807 19.3892C17.0614 19.3892 17.2077 19.2403 17.2077 19.0564V14.4211L17.2107 14.4183C17.2175 14.4117 17.229 14.4075 17.2429 14.4075H18.5052C18.5192 14.4075 18.5306 14.4117 18.5375 14.4183L18.5405 14.4211V19.0564C18.5405 19.24 18.6868 19.3892 18.8675 19.3892C19.0482 19.3892 19.1945 19.2403 19.1945 19.0564V15.5711H19.7553C19.7697 15.5711 19.7817 15.5736 19.7902 15.5781V18.2786C19.7902 18.4622 19.9365 18.6114 20.1173 18.6114C20.298 18.6114 20.4443 18.4625 20.4443 18.2786V16.8025C21.0189 17.1861 21.506 17.695 21.8677 18.2908C22.2927 18.9908 22.5447 19.8131 22.5627 20.695H13.1855ZM14.5895 14.6772C14.7694 14.6772 14.9151 14.8256 14.9151 15.0086C14.9151 15.1917 14.7694 15.34 14.5895 15.34L7.88234 15.3347C7.70244 15.3347 7.55666 15.1864 7.55666 15.0033C7.55666 14.8203 7.70244 14.6719 7.88234 14.6719L14.5895 14.6772ZM7.88234 13.2994C7.70244 13.2994 7.55666 13.1511 7.55666 12.9681C7.55666 12.785 7.70244 12.6367 7.88234 12.6367L14.4464 12.6411L14.6522 10.9983C14.6561 10.9622 14.6656 10.9261 14.6815 10.8925L14.6825 10.8903L14.6836 10.8881L14.6847 10.8858L14.6858 10.8836L14.6869 10.8814L14.6888 10.8775L14.6913 10.8731L14.6924 10.8708L14.6956 10.865V10.8644L14.6959 10.8639L14.6997 10.8581L14.7003 10.8572L14.7011 10.8561L14.7049 10.8503L14.7077 10.8464C14.7194 10.8275 14.733 10.8103 14.7478 10.7947L16.893 8.15V4.99556C16.893 4.8475 16.8332 4.7125 16.7368 4.61444C16.6404 4.51639 16.508 4.45556 16.3623 4.45556H13.8603V4.77583C13.8603 4.95944 13.714 5.10861 13.5333 5.10861H5.46528C5.28483 5.10861 5.13824 4.95972 5.13824 4.77583V4.45556H2.63627C2.49077 4.45556 2.3581 4.51639 2.26173 4.61444C2.16536 4.7125 2.10558 4.84722 2.10558 4.99556V22.8169C2.10558 22.965 2.16536 23.1 2.26173 23.1981C2.3581 23.2961 2.4905 23.3569 2.63627 23.3569H16.362C16.5075 23.3569 16.6402 23.2961 16.7365 23.1981C16.8329 23.1 16.8927 22.9653 16.8927 22.8169V22.5972H12.5016C12.2939 22.5972 12.1052 22.5111 11.9687 22.3719C11.8322 22.2328 11.7476 22.0411 11.7476 21.8297V21.4619C11.7476 21.2506 11.8322 21.0586 11.9687 20.9197C12.1052 20.7808 12.2939 20.6944 12.5016 20.6944H12.5311L7.88207 20.6908C7.70217 20.6908 7.55639 20.5425 7.55639 20.3594C7.55639 20.1764 7.70217 20.0281 7.88207 20.0281L12.5827 20.0317C12.6493 19.5514 12.7776 19.0911 12.9597 18.6594L7.88207 18.6556C7.70217 18.6556 7.55639 18.5072 7.55639 18.3242C7.55639 18.1411 7.70217 17.9928 7.88207 17.9928L13.293 17.9969C13.3039 17.9786 13.3149 17.9603 13.3258 17.9419C13.8106 17.1436 14.4928 16.4828 15.3036 16.0292V15.5564C15.3036 15.3683 15.388 15.2 15.5236 15.0806C15.6465 14.9722 15.8127 14.905 15.9926 14.905H16.5534V14.4206C16.5534 14.23 16.6336 14.0581 16.7633 13.9342C16.8023 13.8969 16.8457 13.8642 16.8927 13.8367V13.0883L14.7699 13.7981V13.7975C14.7254 13.8122 14.6774 13.8175 14.6282 13.8111C14.4497 13.7881 14.3233 13.6222 14.3459 13.4408L14.3631 13.3033L7.88207 13.2989L7.88234 13.2994ZM6.66971 12.6036C6.80648 12.5053 6.99676 12.5283 7.1065 12.6611C7.22225 12.8011 7.2045 13.01 7.06692 13.1278L6.66971 13.4681V15.4631C6.66971 15.6467 6.52339 15.7958 6.34267 15.7958H3.43941C3.25897 15.7958 3.11237 15.6469 3.11237 15.4631V12.5089C3.11237 12.3253 3.25869 12.1761 3.43941 12.1761H6.34267C6.52312 12.1761 6.66971 12.325 6.66971 12.5089V12.6036ZM4.0116 13.9942L4.8516 14.6781C4.97499 14.7783 5.14779 14.7725 5.26408 14.6728L6.0159 14.0286V15.1306H3.76673V12.8419H6.0159V13.1628L5.04924 13.9911L4.41781 13.4769C4.2775 13.3628 4.07275 13.3861 3.96055 13.5289C3.84835 13.6717 3.87128 13.88 4.0116 13.9942ZM14.5895 9.32083C14.7694 9.32083 14.9151 9.46917 14.9151 9.65222C14.9151 9.83528 14.7694 9.98361 14.5895 9.98361L7.88234 9.97833C7.70244 9.97833 7.55666 9.83 7.55666 9.64694C7.55666 9.46389 7.70244 9.31556 7.88234 9.31556L14.5895 9.32083ZM7.88234 7.94306C7.70244 7.94306 7.55666 7.79472 7.55666 7.61167C7.55666 7.42861 7.70244 7.28028 7.88234 7.28028L14.5895 7.28472C14.7694 7.28472 14.9151 7.43306 14.9151 7.61611C14.9151 7.79917 14.7694 7.9475 14.5895 7.9475L7.88234 7.94306ZM6.66971 7.24722C6.80648 7.14889 6.99676 7.17195 7.1065 7.30472C7.22225 7.44472 7.2045 7.65361 7.06692 7.77139L6.66971 8.11167V10.1067C6.66971 10.2903 6.52339 10.4394 6.34267 10.4394H3.43941C3.25897 10.4394 3.11237 10.2906 3.11237 10.1067V7.1525C3.11237 6.96889 3.25869 6.81972 3.43941 6.81972H6.34267C6.52312 6.81972 6.66971 6.96861 6.66971 7.1525V7.24722ZM4.0116 8.63778L4.8516 9.32167C4.97499 9.42194 5.14779 9.41611 5.26408 9.31639L6.0159 8.67222V9.77417H3.76673V7.48556H6.0159V7.80639L5.04924 8.63472L4.41781 8.12056C4.2775 8.00639 4.07275 8.02972 3.96055 8.1725C3.84835 8.31528 3.87128 8.52361 4.0116 8.63778Z"/>
</mask>
<path fill-rule="evenodd" clip-rule="evenodd" d="M6.66999 17.96C6.80676 17.8617 6.99703 17.8847 7.10677 18.0175C7.22252 18.1575 7.20478 18.3664 7.06719 18.4842L6.66999 18.8244V20.8194C6.66999 21.0031 6.52366 21.1522 6.34294 21.1522H3.43969C3.25924 21.1522 3.11264 21.0033 3.11264 20.8194V17.8653C3.11264 17.6817 3.25897 17.5325 3.43969 17.5325H6.34294C6.52339 17.5325 6.66999 17.6814 6.66999 17.8653V17.96ZM4.01188 19.3506C3.87156 19.2364 3.84863 19.0281 3.96083 18.8853C4.07302 18.7425 4.27777 18.7192 4.41809 18.8333L5.04951 19.3475L6.01617 18.5192V18.1983H3.767V20.4869H6.01617V19.385L5.26436 20.0292C5.14806 20.1289 4.97499 20.1347 4.85187 20.0344L4.01188 19.3506ZM15.2392 11.5569L15.0579 13.0036L16.4199 12.5481C16.3896 12.5153 16.3587 12.4825 16.3273 12.4497C16.1829 12.3003 16.027 12.1542 15.861 12.0147C15.6956 11.8758 15.525 11.7475 15.3525 11.6311C15.3148 11.6056 15.2768 11.5811 15.2392 11.5569ZM19.9401 5.43556C20.0119 5.48 20.0845 5.52667 20.1571 5.57556C20.3433 5.70111 20.5317 5.84306 20.7192 6.00083C20.9065 6.15806 21.0793 6.31944 21.2365 6.4825C21.3045 6.55278 21.37 6.62389 21.4328 6.69556L21.7293 6.33C21.7391 6.31556 21.75 6.30194 21.7623 6.28889C21.8895 6.12444 21.9567 5.94 21.9624 5.7725C21.967 5.63611 21.9307 5.51556 21.8521 5.44C21.8395 5.43083 21.8278 5.42056 21.8163 5.40917L21.085 4.795C20.9963 4.72056 20.8663 4.70333 20.7285 4.73556C20.5606 4.77472 20.3883 4.88306 20.2518 5.05139L19.9401 5.43556ZM19.3127 6.20889L19.5194 5.95417C19.6122 6.00889 19.7048 6.06722 19.7968 6.12944C19.9693 6.24583 20.1399 6.37417 20.3053 6.51306C20.4713 6.6525 20.6272 6.79833 20.7716 6.94778C20.8571 7.03611 20.9373 7.125 21.0127 7.21361L20.8085 7.46528C20.7487 7.3975 20.6864 7.33 20.622 7.26333C20.4648 7.10028 20.292 6.93889 20.1047 6.78167C19.9171 6.62417 19.7288 6.48222 19.5426 6.35639C19.4656 6.30444 19.3892 6.25528 19.313 6.20861L19.3127 6.20889ZM7.65139 2.31861H5.7926V4.44389H13.2065V2.31861H11.3477V2.31722C11.1929 2.31722 11.0553 2.20472 11.0272 2.04417C10.9862 1.81444 10.8143 1.60333 10.5601 1.44472C10.2811 1.27056 9.91039 1.165 9.49954 1.165C9.08869 1.165 8.71797 1.27056 8.43897 1.44472C8.19328 1.59806 8.0243 1.80056 7.97652 2.02139C7.95905 2.18833 7.8201 2.31861 7.65139 2.31861ZM13.8603 3.79083H16.3623C16.6882 3.79083 16.9847 3.92639 17.199 4.14472C17.4135 4.36306 17.5468 4.66444 17.5468 4.99611V7.34444L18.3447 6.36083V4.99611C18.3447 4.44167 18.1217 3.9375 17.7622 3.57167C17.4026 3.20583 16.9071 2.97889 16.3623 2.97889H13.8603V3.79083ZM17.4889 8.45694C17.4782 8.47278 17.4662 8.4875 17.4531 8.50111L15.4827 10.93C15.5588 10.9767 15.6353 11.0261 15.7123 11.0778C15.8141 11.1464 15.9165 11.22 16.0188 11.2983L19.4329 7.08944C19.3499 7.02694 19.2658 6.96722 19.1817 6.91028C19.0853 6.84528 18.9884 6.78444 18.8915 6.7275L17.4889 8.45694ZM16.9779 12.1858C16.9181 12.1183 16.8561 12.0511 16.7919 11.9847C16.7065 11.8961 16.6161 11.8078 16.5214 11.7203L19.9357 7.51139C20.0121 7.58278 20.0859 7.65528 20.1566 7.72889C20.2382 7.81361 20.3154 7.89861 20.3878 7.98333L16.9863 12.1767C16.9833 12.1797 16.9806 12.1828 16.9779 12.1858ZM17.5468 13.7422H18.3447V11.5436L17.5468 12.5272V13.7422ZM23.246 21.3606H12.5019C12.4746 21.3606 12.4498 21.3722 12.4315 21.3908C12.4132 21.4094 12.4017 21.435 12.4017 21.4625V21.8303C12.4017 21.8581 12.4132 21.8833 12.4315 21.9019C12.4498 21.9206 12.4749 21.9322 12.5019 21.9322H23.246C23.2733 21.9322 23.2981 21.9206 23.3164 21.9019C23.3347 21.8833 23.3462 21.8578 23.3462 21.8303V21.4625C23.3462 21.4347 23.3347 21.4094 23.3164 21.3908C23.2981 21.3722 23.273 21.3606 23.246 21.3606ZM18.3447 22.5975H17.5468V22.8172C17.5468 23.1489 17.4135 23.4503 17.199 23.6686C16.9844 23.8869 16.6882 24.0225 16.3623 24.0225H2.63682C2.31087 24.0225 2.0144 23.8869 1.8001 23.6686C1.58553 23.4503 1.45231 23.1489 1.45231 22.8172V4.99556C1.45231 4.66389 1.58553 4.3625 1.79983 4.14417C2.0144 3.92583 2.3106 3.79028 2.63655 3.79028H5.13851V2.97833H2.63655C2.09166 2.97833 1.59618 3.20528 1.23665 3.57111C0.87712 3.93694 0.654086 4.44111 0.654086 4.99556V22.8169C0.654086 23.3714 0.87712 23.8756 1.23665 24.2414C1.59618 24.6072 2.09166 24.8342 2.63655 24.8342H16.3623C16.9071 24.8342 17.4026 24.6072 17.7622 24.2414C18.1217 23.8756 18.3447 23.3714 18.3447 22.8169V22.5975ZM23.2165 20.695C23.1985 19.6881 22.9099 18.7464 22.4218 17.9425C21.937 17.1442 21.2548 16.4833 20.444 16.0297V15.5569C20.444 15.3689 20.3597 15.2006 20.224 15.0811C20.1011 14.9728 19.9349 14.9056 19.755 14.9056H19.1943V14.4211C19.1943 14.2378 19.1197 14.0714 18.9985 13.9489V10.7375L22.2499 6.72944C22.4805 6.445 22.6028 6.1075 22.6135 5.79333C22.6249 5.46139 22.5138 5.15167 22.278 4.93833L22.2758 4.93611C22.2681 4.92917 22.2602 4.9225 22.252 4.91583L21.4986 4.28306C21.2447 4.07 20.913 4.01139 20.5827 4.08833C20.2824 4.15861 19.9799 4.34472 19.7484 4.63028L18.9985 5.55472V4.99611C18.9985 4.25806 18.7021 3.5875 18.2243 3.10139C17.7466 2.61528 17.0876 2.31361 16.3623 2.31361H13.8603V1.98611C13.8603 1.8025 13.714 1.65333 13.5333 1.65333H11.5876C11.4602 1.34472 11.2186 1.0775 10.8994 0.878333C10.5219 0.642778 10.0316 0.5 9.49927 0.5C8.96693 0.5 8.47637 0.642778 8.0991 0.878333C7.77997 1.0775 7.53837 1.34472 7.41089 1.65333H5.46528C5.28483 1.65333 5.13824 1.80222 5.13824 1.98611V2.31361H2.63627C1.91094 2.31361 1.25166 2.61528 0.774202 3.10139C0.296468 3.5875 0 4.25806 0 4.99611V22.8175C0 23.5556 0.296468 24.2264 0.774202 24.7122C1.25194 25.1983 1.91094 25.5 2.63627 25.5H16.362C17.0873 25.5 17.7466 25.1983 18.2241 24.7122C18.7018 24.2261 18.9983 23.5556 18.9983 22.8175V22.5978H23.2457C23.4535 22.5978 23.6421 22.5117 23.7786 22.3725C23.9151 22.2333 24 22.0417 24 21.8303V21.4625C24 21.2511 23.9154 21.0592 23.7786 20.9203C23.6418 20.7814 23.4535 20.695 23.2457 20.695H23.2165ZM13.1855 20.695C13.2035 19.8128 13.4555 18.9908 13.8805 18.2908C14.2425 17.695 14.7292 17.1861 15.3039 16.8025V18.2786C15.3039 18.4622 15.4502 18.6114 15.6309 18.6114C15.8116 18.6114 15.958 18.4625 15.958 18.2786V15.5781C15.9664 15.5739 15.9784 15.5711 15.9929 15.5711H16.5536V19.0564C16.5536 19.24 16.6999 19.3892 16.8807 19.3892C17.0614 19.3892 17.2077 19.2403 17.2077 19.0564V14.4211L17.2107 14.4183C17.2175 14.4117 17.229 14.4075 17.2429 14.4075H18.5052C18.5192 14.4075 18.5306 14.4117 18.5375 14.4183L18.5405 14.4211V19.0564C18.5405 19.24 18.6868 19.3892 18.8675 19.3892C19.0482 19.3892 19.1945 19.2403 19.1945 19.0564V15.5711H19.7553C19.7697 15.5711 19.7817 15.5736 19.7902 15.5781V18.2786C19.7902 18.4622 19.9365 18.6114 20.1173 18.6114C20.298 18.6114 20.4443 18.4625 20.4443 18.2786V16.8025C21.0189 17.1861 21.506 17.695 21.8677 18.2908C22.2927 18.9908 22.5447 19.8131 22.5627 20.695H13.1855ZM14.5895 14.6772C14.7694 14.6772 14.9151 14.8256 14.9151 15.0086C14.9151 15.1917 14.7694 15.34 14.5895 15.34L7.88234 15.3347C7.70244 15.3347 7.55666 15.1864 7.55666 15.0033C7.55666 14.8203 7.70244 14.6719 7.88234 14.6719L14.5895 14.6772ZM7.88234 13.2994C7.70244 13.2994 7.55666 13.1511 7.55666 12.9681C7.55666 12.785 7.70244 12.6367 7.88234 12.6367L14.4464 12.6411L14.6522 10.9983C14.6561 10.9622 14.6656 10.9261 14.6815 10.8925L14.6825 10.8903L14.6836 10.8881L14.6847 10.8858L14.6858 10.8836L14.6869 10.8814L14.6888 10.8775L14.6913 10.8731L14.6924 10.8708L14.6956 10.865V10.8644L14.6959 10.8639L14.6997 10.8581L14.7003 10.8572L14.7011 10.8561L14.7049 10.8503L14.7077 10.8464C14.7194 10.8275 14.733 10.8103 14.7478 10.7947L16.893 8.15V4.99556C16.893 4.8475 16.8332 4.7125 16.7368 4.61444C16.6404 4.51639 16.508 4.45556 16.3623 4.45556H13.8603V4.77583C13.8603 4.95944 13.714 5.10861 13.5333 5.10861H5.46528C5.28483 5.10861 5.13824 4.95972 5.13824 4.77583V4.45556H2.63627C2.49077 4.45556 2.3581 4.51639 2.26173 4.61444C2.16536 4.7125 2.10558 4.84722 2.10558 4.99556V22.8169C2.10558 22.965 2.16536 23.1 2.26173 23.1981C2.3581 23.2961 2.4905 23.3569 2.63627 23.3569H16.362C16.5075 23.3569 16.6402 23.2961 16.7365 23.1981C16.8329 23.1 16.8927 22.9653 16.8927 22.8169V22.5972H12.5016C12.2939 22.5972 12.1052 22.5111 11.9687 22.3719C11.8322 22.2328 11.7476 22.0411 11.7476 21.8297V21.4619C11.7476 21.2506 11.8322 21.0586 11.9687 20.9197C12.1052 20.7808 12.2939 20.6944 12.5016 20.6944H12.5311L7.88207 20.6908C7.70217 20.6908 7.55639 20.5425 7.55639 20.3594C7.55639 20.1764 7.70217 20.0281 7.88207 20.0281L12.5827 20.0317C12.6493 19.5514 12.7776 19.0911 12.9597 18.6594L7.88207 18.6556C7.70217 18.6556 7.55639 18.5072 7.55639 18.3242C7.55639 18.1411 7.70217 17.9928 7.88207 17.9928L13.293 17.9969C13.3039 17.9786 13.3149 17.9603 13.3258 17.9419C13.8106 17.1436 14.4928 16.4828 15.3036 16.0292V15.5564C15.3036 15.3683 15.388 15.2 15.5236 15.0806C15.6465 14.9722 15.8127 14.905 15.9926 14.905H16.5534V14.4206C16.5534 14.23 16.6336 14.0581 16.7633 13.9342C16.8023 13.8969 16.8457 13.8642 16.8927 13.8367V13.0883L14.7699 13.7981V13.7975C14.7254 13.8122 14.6774 13.8175 14.6282 13.8111C14.4497 13.7881 14.3233 13.6222 14.3459 13.4408L14.3631 13.3033L7.88207 13.2989L7.88234 13.2994ZM6.66971 12.6036C6.80648 12.5053 6.99676 12.5283 7.1065 12.6611C7.22225 12.8011 7.2045 13.01 7.06692 13.1278L6.66971 13.4681V15.4631C6.66971 15.6467 6.52339 15.7958 6.34267 15.7958H3.43941C3.25897 15.7958 3.11237 15.6469 3.11237 15.4631V12.5089C3.11237 12.3253 3.25869 12.1761 3.43941 12.1761H6.34267C6.52312 12.1761 6.66971 12.325 6.66971 12.5089V12.6036ZM4.0116 13.9942L4.8516 14.6781C4.97499 14.7783 5.14779 14.7725 5.26408 14.6728L6.0159 14.0286V15.1306H3.76673V12.8419H6.0159V13.1628L5.04924 13.9911L4.41781 13.4769C4.2775 13.3628 4.07275 13.3861 3.96055 13.5289C3.84835 13.6717 3.87128 13.88 4.0116 13.9942ZM14.5895 9.32083C14.7694 9.32083 14.9151 9.46917 14.9151 9.65222C14.9151 9.83528 14.7694 9.98361 14.5895 9.98361L7.88234 9.97833C7.70244 9.97833 7.55666 9.83 7.55666 9.64694C7.55666 9.46389 7.70244 9.31556 7.88234 9.31556L14.5895 9.32083ZM7.88234 7.94306C7.70244 7.94306 7.55666 7.79472 7.55666 7.61167C7.55666 7.42861 7.70244 7.28028 7.88234 7.28028L14.5895 7.28472C14.7694 7.28472 14.9151 7.43306 14.9151 7.61611C14.9151 7.79917 14.7694 7.9475 14.5895 7.9475L7.88234 7.94306ZM6.66971 7.24722C6.80648 7.14889 6.99676 7.17195 7.1065 7.30472C7.22225 7.44472 7.2045 7.65361 7.06692 7.77139L6.66971 8.11167V10.1067C6.66971 10.2903 6.52339 10.4394 6.34267 10.4394H3.43941C3.25897 10.4394 3.11237 10.2906 3.11237 10.1067V7.1525C3.11237 6.96889 3.25869 6.81972 3.43941 6.81972H6.34267C6.52312 6.81972 6.66971 6.96861 6.66971 7.1525V7.24722ZM4.0116 8.63778L4.8516 9.32167C4.97499 9.42194 5.14779 9.41611 5.26408 9.31639L6.0159 8.67222V9.77417H3.76673V7.48556H6.0159V7.80639L5.04924 8.63472L4.41781 8.12056C4.2775 8.00639 4.07275 8.02972 3.96055 8.1725C3.84835 8.31528 3.87128 8.52361 4.0116 8.63778Z" stroke="#DADBDD" stroke-width="2" mask="url(#path-1-inside-1_142_2637)"/>
</svg>
