<svg width="374" height="49" viewBox="0 0 374 49" fill="none" xmlns="http://www.w3.org/2000/svg">
<mask id="path-1-outside-1_142_2508" maskUnits="userSpaceOnUse" x="0" y="0" width="374" height="49" fill="black">
<rect fill="white" width="374" height="49"/>
<path d="M58.112 6.912L47.192 46H37.952L30.616 18.168L22.944 46L13.76 46.056L3.232 6.912H11.632L18.52 37.264L26.472 6.912H35.208L42.712 37.096L49.656 6.912H58.112ZM67.7672 11.28C66.3859 11.28 65.2285 10.8507 64.2952 9.992C63.3992 9.096 62.9512 7.99466 62.9512 6.688C62.9512 5.38133 63.3992 4.29866 64.2952 3.44C65.2285 2.544 66.3859 2.096 67.7672 2.096C69.1485 2.096 70.2872 2.544 71.1832 3.44C72.1165 4.29866 72.5832 5.38133 72.5832 6.688C72.5832 7.99466 72.1165 9.096 71.1832 9.992C70.2872 10.8507 69.1485 11.28 67.7672 11.28ZM71.6312 14.976V46H63.7912V14.976H71.6312ZM87.7771 19.792C88.7851 18.1493 90.0918 16.8613 91.6971 15.928C93.3398 14.9947 95.2065 14.528 97.2971 14.528V22.76H95.2251C92.7611 22.76 90.8945 23.3387 89.6251 24.496C88.3931 25.6533 87.7771 27.6693 87.7771 30.544V46H79.9371V14.976H87.7771V19.792ZM131.978 29.816C131.978 30.936 131.903 31.944 131.754 32.84H109.074C109.26 35.08 110.044 36.8347 111.426 38.104C112.807 39.3733 114.506 40.008 116.522 40.008C119.434 40.008 121.506 38.7573 122.738 36.256H131.194C130.298 39.2427 128.58 41.7067 126.042 43.648C123.503 45.552 120.386 46.504 116.69 46.504C113.703 46.504 111.015 45.8507 108.626 44.544C106.274 43.2 104.426 41.3147 103.082 38.888C101.775 36.4613 101.122 33.6613 101.122 30.488C101.122 27.2773 101.775 24.4587 103.082 22.032C104.388 19.6053 106.218 17.7387 108.57 16.432C110.922 15.1253 113.628 14.472 116.69 14.472C119.639 14.472 122.271 15.1067 124.586 16.376C126.938 17.6453 128.748 19.456 130.018 21.808C131.324 24.1227 131.978 26.792 131.978 29.816ZM123.858 27.576C123.82 25.56 123.092 23.9547 121.674 22.76C120.255 21.528 118.519 20.912 116.466 20.912C114.524 20.912 112.882 21.5093 111.538 22.704C110.231 23.8613 109.428 25.4853 109.13 27.576H123.858ZM146.1 4.56V46H138.26V4.56H146.1ZM183.246 29.816C183.246 30.936 183.172 31.944 183.022 32.84H160.342C160.529 35.08 161.313 36.8347 162.694 38.104C164.076 39.3733 165.774 40.008 167.79 40.008C170.702 40.008 172.774 38.7573 174.006 36.256H182.462C181.566 39.2427 179.849 41.7067 177.31 43.648C174.772 45.552 171.654 46.504 167.958 46.504C164.972 46.504 162.284 45.8507 159.894 44.544C157.542 43.2 155.694 41.3147 154.35 38.888C153.044 36.4613 152.39 33.6613 152.39 30.488C152.39 27.2773 153.044 24.4587 154.35 22.032C155.657 19.6053 157.486 17.7387 159.838 16.432C162.19 15.1253 164.897 14.472 167.958 14.472C170.908 14.472 173.54 15.1067 175.854 16.376C178.206 17.6453 180.017 19.456 181.286 21.808C182.593 24.1227 183.246 26.792 183.246 29.816ZM175.126 27.576C175.089 25.56 174.361 23.9547 172.942 22.76C171.524 21.528 169.788 20.912 167.734 20.912C165.793 20.912 164.15 21.5093 162.806 22.704C161.5 23.8613 160.697 25.4853 160.398 27.576H175.126ZM201.401 46.504C198.862 46.504 196.585 46.056 194.569 45.16C192.553 44.2267 190.947 42.976 189.753 41.408C188.595 39.84 187.961 38.104 187.849 36.2H195.745C195.894 37.3947 196.473 38.384 197.481 39.168C198.526 39.952 199.814 40.344 201.345 40.344C202.838 40.344 203.995 40.0453 204.817 39.448C205.675 38.8507 206.105 38.0853 206.105 37.152C206.105 36.144 205.582 35.3973 204.537 34.912C203.529 34.3893 201.905 33.8293 199.665 33.232C197.35 32.672 195.446 32.0933 193.953 31.496C192.497 30.8987 191.227 29.984 190.145 28.752C189.099 27.52 188.577 25.8587 188.577 23.768C188.577 22.0507 189.062 20.4827 190.033 19.064C191.041 17.6453 192.459 16.5253 194.289 15.704C196.155 14.8827 198.339 14.472 200.841 14.472C204.537 14.472 207.486 15.4053 209.689 17.272C211.891 19.1013 213.105 21.584 213.329 24.72H205.825C205.713 23.488 205.19 22.5173 204.257 21.808C203.361 21.0613 202.147 20.688 200.617 20.688C199.198 20.688 198.097 20.9493 197.313 21.472C196.566 21.9947 196.193 22.7227 196.193 23.656C196.193 24.7013 196.715 25.504 197.761 26.064C198.806 26.5867 200.43 27.128 202.633 27.688C204.873 28.248 206.721 28.8267 208.177 29.424C209.633 30.0213 210.883 30.9547 211.929 32.224C213.011 33.456 213.571 35.0987 213.609 37.152C213.609 38.944 213.105 40.5493 212.097 41.968C211.126 43.3867 209.707 44.5067 207.841 45.328C206.011 46.112 203.865 46.504 201.401 46.504ZM232.476 46.504C229.938 46.504 227.66 46.056 225.644 45.16C223.628 44.2267 222.023 42.976 220.828 41.408C219.671 39.84 219.036 38.104 218.924 36.2H226.82C226.97 37.3947 227.548 38.384 228.556 39.168C229.602 39.952 230.89 40.344 232.42 40.344C233.914 40.344 235.071 40.0453 235.892 39.448C236.751 38.8507 237.18 38.0853 237.18 37.152C237.18 36.144 236.658 35.3973 235.612 34.912C234.604 34.3893 232.98 33.8293 230.74 33.232C228.426 32.672 226.522 32.0933 225.028 31.496C223.572 30.8987 222.303 29.984 221.22 28.752C220.175 27.52 219.652 25.8587 219.652 23.768C219.652 22.0507 220.138 20.4827 221.108 19.064C222.116 17.6453 223.535 16.5253 225.364 15.704C227.231 14.8827 229.415 14.472 231.916 14.472C235.612 14.472 238.562 15.4053 240.764 17.272C242.967 19.1013 244.18 21.584 244.404 24.72H236.9C236.788 23.488 236.266 22.5173 235.332 21.808C234.436 21.0613 233.223 20.688 231.692 20.688C230.274 20.688 229.172 20.9493 228.388 21.472C227.642 21.9947 227.268 22.7227 227.268 23.656C227.268 24.7013 227.791 25.504 228.836 26.064C229.882 26.5867 231.506 27.128 233.708 27.688C235.948 28.248 237.796 28.8267 239.252 29.424C240.708 30.0213 241.959 30.9547 243.004 32.224C244.087 33.456 244.647 35.0987 244.684 37.152C244.684 38.944 244.18 40.5493 243.172 41.968C242.202 43.3867 240.783 44.5067 238.916 45.328C237.087 46.112 234.94 46.504 232.476 46.504ZM263.568 30.376C263.568 27.24 264.184 24.4587 265.416 22.032C266.685 19.6053 268.384 17.7387 270.512 16.432C272.677 15.1253 275.085 14.472 277.736 14.472C280.05 14.472 282.066 14.9387 283.784 15.872C285.538 16.8053 286.938 17.9813 287.984 19.4V14.976H295.88V46H287.984V41.464C286.976 42.92 285.576 44.1333 283.784 45.104C282.029 46.0373 279.994 46.504 277.68 46.504C275.066 46.504 272.677 45.832 270.512 44.488C268.384 43.144 266.685 41.2587 265.416 38.832C264.184 36.368 263.568 33.5493 263.568 30.376ZM287.984 30.488C287.984 28.584 287.61 26.96 286.864 25.616C286.117 24.2347 285.109 23.1893 283.84 22.48C282.57 21.7333 281.208 21.36 279.752 21.36C278.296 21.36 276.952 21.7147 275.72 22.424C274.488 23.1333 273.48 24.1787 272.696 25.56C271.949 26.904 271.576 28.5093 271.576 30.376C271.576 32.2427 271.949 33.8853 272.696 35.304C273.48 36.6853 274.488 37.7493 275.72 38.496C276.989 39.2427 278.333 39.616 279.752 39.616C281.208 39.616 282.57 39.2613 283.84 38.552C285.109 37.8053 286.117 36.76 286.864 35.416C287.61 34.0347 287.984 32.392 287.984 30.488ZM321.289 14.528C324.985 14.528 327.971 15.704 330.249 18.056C332.526 20.3707 333.665 23.6187 333.665 27.8V46H325.825V28.864C325.825 26.4 325.209 24.5147 323.977 23.208C322.745 21.864 321.065 21.192 318.937 21.192C316.771 21.192 315.054 21.864 313.785 23.208C312.553 24.5147 311.937 26.4 311.937 28.864V46H304.097V14.976H311.937V18.84C312.982 17.496 314.307 16.4507 315.913 15.704C317.555 14.92 319.347 14.528 321.289 14.528ZM339.664 30.376C339.664 27.24 340.28 24.4587 341.512 22.032C342.782 19.6053 344.499 17.7387 346.664 16.432C348.83 15.1253 351.238 14.472 353.888 14.472C355.904 14.472 357.827 14.92 359.656 15.816C361.486 16.6747 362.942 17.832 364.024 19.288V4.56H371.976V46H364.024V41.408C363.054 42.9387 361.691 44.1707 359.936 45.104C358.182 46.0373 356.147 46.504 353.832 46.504C351.219 46.504 348.83 45.832 346.664 44.488C344.499 43.144 342.782 41.2587 341.512 38.832C340.28 36.368 339.664 33.5493 339.664 30.376ZM364.08 30.488C364.08 28.584 363.707 26.96 362.96 25.616C362.214 24.2347 361.206 23.1893 359.936 22.48C358.667 21.7333 357.304 21.36 355.848 21.36C354.392 21.36 353.048 21.7147 351.816 22.424C350.584 23.1333 349.576 24.1787 348.792 25.56C348.046 26.904 347.672 28.5093 347.672 30.376C347.672 32.2427 348.046 33.8853 348.792 35.304C349.576 36.6853 350.584 37.7493 351.816 38.496C353.086 39.2427 354.43 39.616 355.848 39.616C357.304 39.616 358.667 39.2613 359.936 38.552C361.206 37.8053 362.214 36.76 362.96 35.416C363.707 34.0347 364.08 32.392 364.08 30.488Z"/>
</mask>
<path d="M58.112 6.912L60.0382 7.45013L60.7473 4.912H58.112V6.912ZM47.192 46V48H48.7098L49.1182 46.5381L47.192 46ZM37.952 46L36.0181 46.5098L36.4109 48H37.952V46ZM30.616 18.168L32.5499 17.6582L30.6592 10.4851L28.6879 17.6365L30.616 18.168ZM22.944 46L22.9562 48L24.4698 47.9907L24.8721 46.5315L22.944 46ZM13.76 46.056L11.8286 46.5755L12.2294 48.0654L13.7722 48.056L13.76 46.056ZM3.232 6.912V4.912H0.623015L1.30064 7.43145L3.232 6.912ZM11.632 6.912L13.5824 6.46938L13.229 4.912H11.632V6.912ZM18.52 37.264L16.5696 37.7066L20.4547 37.7709L18.52 37.264ZM26.472 6.912V4.912H24.9285L24.5373 6.40512L26.472 6.912ZM35.208 6.912L37.1489 6.42947L36.7717 4.912H35.208V6.912ZM42.712 37.096L40.7711 37.5785L44.6611 37.5444L42.712 37.096ZM49.656 6.912V4.912H48.0639L47.7069 6.4636L49.656 6.912ZM58.112 6.912L56.1858 6.37387L45.2658 45.4619L47.192 46L49.1182 46.5381L60.0382 7.45013L58.112 6.912ZM47.192 46V44H37.952V46V48H47.192V46ZM37.952 46L39.8859 45.4902L32.5499 17.6582L30.616 18.168L28.6821 18.6778L36.0181 46.5098L37.952 46ZM30.616 18.168L28.6879 17.6365L21.0159 45.4685L22.944 46L24.8721 46.5315L32.5441 18.6995L30.616 18.168ZM22.944 46L22.9318 44L13.7478 44.056L13.76 46.056L13.7722 48.056L22.9562 48L22.944 46ZM13.76 46.056L15.6914 45.5365L5.16336 6.39255L3.232 6.912L1.30064 7.43145L11.8286 46.5755L13.76 46.056ZM3.232 6.912V8.912H11.632V6.912V4.912H3.232V6.912ZM11.632 6.912L9.68159 7.35462L16.5696 37.7066L18.52 37.264L20.4704 36.8214L13.5824 6.46938L11.632 6.912ZM18.52 37.264L20.4547 37.7709L28.4067 7.41888L26.472 6.912L24.5373 6.40512L16.5853 36.7571L18.52 37.264ZM26.472 6.912V8.912H35.208V6.912V4.912H26.472V6.912ZM35.208 6.912L33.2671 7.39453L40.7711 37.5785L42.712 37.096L44.6529 36.6135L37.1489 6.42947L35.208 6.912ZM42.712 37.096L44.6611 37.5444L51.6051 7.3604L49.656 6.912L47.7069 6.4636L40.7629 36.6476L42.712 37.096ZM49.656 6.912V8.912H58.112V6.912V4.912H49.656V6.912ZM64.2952 9.992L62.881 11.4062L62.9104 11.4357L62.9411 11.4639L64.2952 9.992ZM64.2952 3.44L65.679 4.88397L65.6803 4.88277L64.2952 3.44ZM71.1832 3.44L69.769 4.85421L69.7984 4.88366L69.8291 4.91186L71.1832 3.44ZM71.1832 9.992L72.567 11.436L72.5683 11.4348L71.1832 9.992ZM71.6312 14.976H73.6312V12.976H71.6312V14.976ZM71.6312 46V48H73.6312V46H71.6312ZM63.7912 46H61.7912V48H63.7912V46ZM63.7912 14.976V12.976H61.7912V14.976H63.7912ZM67.7672 11.28V9.28C66.8388 9.28 66.1792 9.0076 65.6493 8.52014L64.2952 9.992L62.9411 11.4639C64.2779 12.6937 65.9329 13.28 67.7672 13.28V11.28ZM64.2952 9.992L65.7094 8.57779C65.2014 8.06974 64.9512 7.48273 64.9512 6.688H62.9512H60.9512C60.9512 8.50659 61.597 10.1223 62.881 11.4062L64.2952 9.992ZM62.9512 6.688H64.9512C64.9512 5.89423 65.1993 5.34365 65.679 4.88397L64.2952 3.44L62.9114 1.99602C61.599 3.25368 60.9512 4.86843 60.9512 6.688H62.9512ZM64.2952 3.44L65.6803 4.88277C66.2143 4.3701 66.8637 4.096 67.7672 4.096V2.096V0.0959978C65.908 0.0959978 64.2428 0.717893 62.9101 1.99722L64.2952 3.44ZM67.7672 2.096V4.096C68.6707 4.096 69.2837 4.36895 69.769 4.85421L71.1832 3.44L72.5974 2.02578C71.2907 0.71905 69.6263 0.0959978 67.7672 0.0959978V2.096ZM71.1832 3.44L69.8291 4.91186C70.3368 5.37899 70.5832 5.92147 70.5832 6.688H72.5832H74.5832C74.5832 4.84119 73.8962 3.21833 72.5373 1.96813L71.1832 3.44ZM72.5832 6.688H70.5832C70.5832 7.4562 70.3342 8.03459 69.7981 8.54923L71.1832 9.992L72.5683 11.4348C73.8988 10.1574 74.5832 8.53313 74.5832 6.688H72.5832ZM71.1832 9.992L69.7994 8.54802C69.3191 9.00827 68.6962 9.28 67.7672 9.28V11.28V13.28C69.6008 13.28 71.2553 12.6931 72.567 11.436L71.1832 9.992ZM71.6312 14.976H69.6312V46H71.6312H73.6312V14.976H71.6312ZM71.6312 46V44H63.7912V46V48H71.6312V46ZM63.7912 46H65.7912V14.976H63.7912H61.7912V46H63.7912ZM63.7912 14.976V16.976H71.6312V14.976V12.976H63.7912V14.976ZM87.7771 19.792H85.7771V26.8752L89.4818 20.838L87.7771 19.792ZM91.6971 15.928L90.7091 14.1891L90.7005 14.194L90.6919 14.199L91.6971 15.928ZM97.2971 14.528H99.2971V12.528H97.2971V14.528ZM97.2971 22.76V24.76H99.2971V22.76H97.2971ZM89.6251 24.496L88.2776 23.0181L88.2666 23.0281L88.2558 23.0383L89.6251 24.496ZM87.7771 46V48H89.7771V46H87.7771ZM79.9371 46H77.9371V48H79.9371V46ZM79.9371 14.976V12.976H77.9371V14.976H79.9371ZM87.7771 14.976H89.7771V12.976H87.7771V14.976ZM87.7771 19.792L89.4818 20.838C90.3235 19.4663 91.3941 18.4176 92.7024 17.657L91.6971 15.928L90.6919 14.199C88.7895 15.305 87.2467 16.8324 86.0725 18.746L87.7771 19.792ZM91.6971 15.928L92.6852 17.6669C93.9954 16.9225 95.515 16.528 97.2971 16.528V14.528V12.528C94.8979 12.528 92.6842 13.0669 90.7091 14.1891L91.6971 15.928ZM97.2971 14.528H95.2971V22.76H97.2971H99.2971V14.528H97.2971ZM97.2971 22.76V20.76H95.2251V22.76V24.76H97.2971V22.76ZM95.2251 22.76V20.76C92.4774 20.76 90.0481 21.4038 88.2776 23.0181L89.6251 24.496L90.9726 25.9739C91.7408 25.2735 93.0448 24.76 95.2251 24.76V22.76ZM89.6251 24.496L88.2558 23.0383C86.4157 24.7669 85.7771 27.4832 85.7771 30.544H87.7771H89.7771C89.7771 27.8555 90.3706 26.5398 90.9945 25.9537L89.6251 24.496ZM87.7771 30.544H85.7771V46H87.7771H89.7771V30.544H87.7771ZM87.7771 46V44H79.9371V46V48H87.7771V46ZM79.9371 46H81.9371V14.976H79.9371H77.9371V46H79.9371ZM79.9371 14.976V16.976H87.7771V14.976V12.976H79.9371V14.976ZM87.7771 14.976H85.7771V19.792H87.7771H89.7771V14.976H87.7771ZM131.754 32.84V34.84H133.448L133.727 33.1688L131.754 32.84ZM109.074 32.84V30.84H106.9L107.081 33.0061L109.074 32.84ZM111.426 38.104L110.073 39.5767L111.426 38.104ZM122.738 36.256V34.256H121.493L120.944 35.3723L122.738 36.256ZM131.194 36.256L133.109 36.8307L133.882 34.256H131.194V36.256ZM126.042 43.648L127.242 45.248L127.249 45.2424L127.257 45.2367L126.042 43.648ZM108.626 44.544L107.633 46.2805L107.65 46.2898L107.666 46.2987L108.626 44.544ZM103.082 38.888L101.321 39.8362L101.326 39.8466L101.332 39.857L103.082 38.888ZM103.082 22.032L101.321 21.0838L103.082 22.032ZM108.57 16.432L109.541 18.1803V18.1803L108.57 16.432ZM124.586 16.376L123.624 18.1297L123.636 18.136L124.586 16.376ZM130.018 21.808L128.258 22.7579L128.267 22.7746L128.276 22.7912L130.018 21.808ZM123.858 27.576V29.576H125.895L125.857 27.539L123.858 27.576ZM121.674 22.76L120.362 24.2701L120.374 24.28L120.385 24.2898L121.674 22.76ZM111.538 22.704L112.864 24.2012L112.866 24.1988L111.538 22.704ZM109.13 27.576L107.15 27.2932L106.824 29.576H109.13V27.576ZM131.978 29.816H129.978C129.978 30.8501 129.909 31.7455 129.781 32.5112L131.754 32.84L133.727 33.1688C133.898 32.1425 133.978 31.0219 133.978 29.816H131.978ZM131.754 32.84V30.84H109.074V32.84V34.84H131.754V32.84ZM109.074 32.84L107.081 33.0061C107.3 35.6416 108.251 37.9025 110.073 39.5767L111.426 38.104L112.779 36.6313C111.838 35.7668 111.221 34.5184 111.067 32.6739L109.074 32.84ZM111.426 38.104L110.073 39.5767C111.852 41.2118 114.045 42.008 116.522 42.008V40.008V38.008C114.966 38.008 113.762 37.5349 112.779 36.6313L111.426 38.104ZM116.522 40.008V42.008C118.268 42.008 119.887 41.6309 121.293 40.7823C122.704 39.9305 123.773 38.6802 124.532 37.1397L122.738 36.256L120.944 35.3723C120.47 36.3331 119.887 36.9588 119.226 37.3577C118.56 37.7598 117.688 38.008 116.522 38.008V40.008ZM122.738 36.256V38.256H131.194V36.256V34.256H122.738V36.256ZM131.194 36.256L129.278 35.6813C128.506 38.254 127.04 40.3669 124.827 42.0593L126.042 43.648L127.257 45.2367C130.121 43.0464 132.089 40.2313 133.109 36.8307L131.194 36.256ZM126.042 43.648L124.842 42.048C122.704 43.6512 120.027 44.504 116.69 44.504V46.504V48.504C120.745 48.504 124.302 47.4528 127.242 45.248L126.042 43.648ZM116.69 46.504V44.504C114.005 44.504 111.653 43.9198 109.585 42.7893L108.626 44.544L107.666 46.2987C110.378 47.7815 113.401 48.504 116.69 48.504V46.504ZM108.626 44.544L109.618 42.8075C107.592 41.6497 106.002 40.0334 104.831 37.919L103.082 38.888L101.332 39.857C102.849 42.5959 104.956 44.7503 107.633 46.2805L108.626 44.544ZM103.082 38.888L104.843 37.9398C103.715 35.846 103.122 33.3809 103.122 30.488H101.122H99.1217C99.1217 33.9418 99.8349 37.0767 101.321 39.8362L103.082 38.888ZM101.122 30.488H103.122C103.122 27.5535 103.717 25.0707 104.843 22.9802L103.082 22.032L101.321 21.0838C99.8331 23.8466 99.1217 27.0012 99.1217 30.488H101.122ZM103.082 22.032L104.843 22.9802C105.973 20.8816 107.532 19.2965 109.541 18.1803L108.57 16.432L107.598 14.6837C104.904 16.1808 102.804 18.3291 101.321 21.0838L103.082 22.032ZM108.57 16.432L109.541 18.1803C111.557 17.0603 113.921 16.472 116.69 16.472V14.472V12.472C113.336 12.472 110.286 13.1903 107.598 14.6837L108.57 16.432ZM116.69 14.472V16.472C119.343 16.472 121.637 17.0402 123.624 18.1296L124.586 16.376L125.547 14.6224C122.905 13.1731 119.935 12.472 116.69 12.472V14.472ZM124.586 16.376L123.636 18.136C125.645 19.2201 127.174 20.7492 128.258 22.7579L130.018 21.808L131.778 20.8581C130.323 18.1628 128.231 16.0706 125.536 14.616L124.586 16.376ZM130.018 21.808L128.276 22.7912C129.391 24.7665 129.978 27.0883 129.978 29.816H131.978H133.978C133.978 26.4956 133.258 23.4788 131.759 20.8248L130.018 21.808ZM123.858 27.576L125.857 27.539C125.81 25.0027 124.864 22.8315 122.962 21.2302L121.674 22.76L120.385 24.2898C121.321 25.0778 121.83 26.1173 121.858 27.613L123.858 27.576ZM121.674 22.76L122.985 21.2499C121.168 19.6717 118.953 18.912 116.466 18.912V20.912V22.912C118.085 22.912 119.342 23.3843 120.362 24.2701L121.674 22.76ZM116.466 20.912V18.912C114.077 18.912 111.95 19.662 110.209 21.2092L111.538 22.704L112.866 24.1988C113.814 23.3566 114.972 22.912 116.466 22.912V20.912ZM111.538 22.704L110.212 21.2068C108.479 22.7412 107.501 24.8357 107.15 27.2932L109.13 27.576L111.11 27.8588C111.356 26.135 111.983 24.9815 112.864 24.2012L111.538 22.704ZM109.13 27.576V29.576H123.858V27.576V25.576H109.13V27.576ZM146.1 4.56H148.1V2.56H146.1V4.56ZM146.1 46V48H148.1V46H146.1ZM138.26 46H136.26V48H138.26V46ZM138.26 4.56V2.56H136.26V4.56H138.26ZM146.1 4.56H144.1V46H146.1H148.1V4.56H146.1ZM146.1 46V44H138.26V46V48H146.1V46ZM138.26 46H140.26V4.56H138.26H136.26V46H138.26ZM138.26 4.56V6.56H146.1V4.56V2.56H138.26V4.56ZM183.022 32.84V34.84H184.716L184.995 33.1688L183.022 32.84ZM160.342 32.84V30.84H158.169L158.349 33.0061L160.342 32.84ZM162.694 38.104L161.341 39.5767L162.694 38.104ZM174.006 36.256V34.256H172.762L172.212 35.3723L174.006 36.256ZM182.462 36.256L184.378 36.8307L185.15 34.256H182.462V36.256ZM177.31 43.648L178.51 45.248L178.518 45.2424L178.525 45.2367L177.31 43.648ZM159.894 44.544L158.902 46.2805L158.918 46.2898L158.935 46.2987L159.894 44.544ZM154.35 38.888L152.589 39.8362L152.595 39.8466L152.601 39.857L154.35 38.888ZM154.35 22.032L152.589 21.0838L154.35 22.032ZM159.838 16.432L160.809 18.1803V18.1803L159.838 16.432ZM175.854 16.376L174.893 18.1297L174.904 18.136L175.854 16.376ZM181.286 21.808L179.526 22.7579L179.535 22.7746L179.545 22.7912L181.286 21.808ZM175.126 27.576V29.576H177.164L177.126 27.539L175.126 27.576ZM172.942 22.76L171.631 24.2701L171.642 24.28L171.654 24.2898L172.942 22.76ZM162.806 22.704L164.132 24.2012L164.135 24.1988L162.806 22.704ZM160.398 27.576L158.418 27.2932L158.092 29.576H160.398V27.576ZM183.246 29.816H181.246C181.246 30.8501 181.177 31.7455 181.049 32.5112L183.022 32.84L184.995 33.1688C185.166 32.1425 185.246 31.0219 185.246 29.816H183.246ZM183.022 32.84V30.84H160.342V32.84V34.84H183.022V32.84ZM160.342 32.84L158.349 33.0061C158.569 35.6416 159.519 37.9025 161.341 39.5767L162.694 38.104L164.047 36.6313C163.107 35.7668 162.489 34.5184 162.335 32.6739L160.342 32.84ZM162.694 38.104L161.341 39.5767C163.12 41.2118 165.314 42.008 167.79 42.008V40.008V38.008C166.235 38.008 165.031 37.5349 164.047 36.6313L162.694 38.104ZM167.79 40.008V42.008C169.536 42.008 171.156 41.6309 172.562 40.7823C173.973 39.9305 175.042 38.6802 175.8 37.1397L174.006 36.256L172.212 35.3723C171.739 36.3331 171.156 36.9588 170.495 37.3577C169.829 37.7598 168.956 38.008 167.79 38.008V40.008ZM174.006 36.256V38.256H182.462V36.256V34.256H174.006V36.256ZM182.462 36.256L180.547 35.6813C179.775 38.254 178.308 40.3669 176.095 42.0593L177.31 43.648L178.525 45.2367C181.389 43.0464 183.358 40.2313 184.378 36.8307L182.462 36.256ZM177.31 43.648L176.11 42.048C173.973 43.6512 171.295 44.504 167.958 44.504V46.504V48.504C172.013 48.504 175.57 47.4528 178.51 45.248L177.31 43.648ZM167.958 46.504V44.504C165.274 44.504 162.921 43.9198 160.854 42.7893L159.894 44.544L158.935 46.2987C161.646 47.7815 164.669 48.504 167.958 48.504V46.504ZM159.894 44.544L160.886 42.8075C158.86 41.6497 157.271 40.0334 156.1 37.919L154.35 38.888L152.601 39.857C154.118 42.5959 156.224 44.7503 158.902 46.2805L159.894 44.544ZM154.35 38.888L156.111 37.9398C154.984 35.846 154.39 33.3809 154.39 30.488H152.39H150.39C150.39 33.9418 151.103 37.0767 152.589 39.8362L154.35 38.888ZM152.39 30.488H154.39C154.39 27.5535 154.985 25.0707 156.111 22.9802L154.35 22.032L152.589 21.0838C151.102 23.8466 150.39 27.0012 150.39 30.488H152.39ZM154.35 22.032L156.111 22.9802C157.241 20.8816 158.8 19.2965 160.809 18.1803L159.838 16.432L158.867 14.6837C156.172 16.1808 154.073 18.3291 152.589 21.0838L154.35 22.032ZM159.838 16.432L160.809 18.1803C162.825 17.0603 165.189 16.472 167.958 16.472V14.472V12.472C164.604 12.472 161.555 13.1903 158.867 14.6837L159.838 16.432ZM167.958 14.472V16.472C170.611 16.472 172.906 17.0402 174.893 18.1296L175.854 16.376L176.816 14.6224C174.173 13.1731 171.204 12.472 167.958 12.472V14.472ZM175.854 16.376L174.904 18.136C176.913 19.2201 178.442 20.7492 179.526 22.7579L181.286 21.808L183.046 20.8581C181.592 18.1628 179.499 16.0706 176.804 14.616L175.854 16.376ZM181.286 21.808L179.545 22.7912C180.66 24.7665 181.246 27.0883 181.246 29.816H183.246H185.246C185.246 26.4956 184.526 23.4788 183.028 20.8248L181.286 21.808ZM175.126 27.576L177.126 27.539C177.079 25.0027 176.132 22.8315 174.23 21.2302L172.942 22.76L171.654 24.2898C172.59 25.0778 173.099 26.1173 173.127 27.613L175.126 27.576ZM172.942 22.76L174.254 21.2499C172.436 19.6717 170.221 18.912 167.734 18.912V20.912V22.912C169.354 22.912 170.611 23.3843 171.631 24.2701L172.942 22.76ZM167.734 20.912V18.912C165.345 18.912 163.218 19.662 161.477 21.2092L162.806 22.704L164.135 24.1988C165.082 23.3566 166.24 22.912 167.734 22.912V20.912ZM162.806 22.704L161.48 21.2068C159.748 22.7412 158.769 24.8357 158.418 27.2932L160.398 27.576L162.378 27.8588C162.624 26.135 163.251 24.9815 164.132 24.2012L162.806 22.704ZM160.398 27.576V29.576H175.126V27.576V25.576H160.398V27.576ZM194.569 45.16L193.728 46.9749L193.742 46.9814L193.756 46.9876L194.569 45.16ZM189.753 41.408L188.144 42.5957L188.153 42.608L188.162 42.6201L189.753 41.408ZM187.849 36.2V34.2H185.728L185.852 36.3174L187.849 36.2ZM195.745 36.2L197.729 35.9519L197.51 34.2H195.745V36.2ZM197.481 39.168L196.253 40.7467L196.267 40.7575L196.281 40.768L197.481 39.168ZM204.817 39.448L203.675 37.8062L203.657 37.8182L203.64 37.8305L204.817 39.448ZM204.537 34.912L203.616 36.6875L203.655 36.7076L203.694 36.726L204.537 34.912ZM199.665 33.232L200.18 31.2995L200.158 31.2935L200.135 31.2881L199.665 33.232ZM193.953 31.496L193.194 33.3463L193.202 33.3497L193.21 33.353L193.953 31.496ZM190.145 28.752L188.62 30.046L188.631 30.0592L188.642 30.0722L190.145 28.752ZM190.033 19.064L188.402 17.9056L188.392 17.92L188.382 17.9346L190.033 19.064ZM194.289 15.704L193.483 13.8734L193.476 13.8764L193.47 13.8795L194.289 15.704ZM209.689 17.272L208.396 18.7978L208.403 18.8042L208.411 18.8106L209.689 17.272ZM213.329 24.72V26.72H215.477L215.324 24.5775L213.329 24.72ZM205.825 24.72L203.833 24.9011L203.998 26.72H205.825V24.72ZM204.257 21.808L202.976 23.3444L203.011 23.3732L203.047 23.4003L204.257 21.808ZM197.313 21.472L196.203 19.8079L196.184 19.8205L196.166 19.8335L197.313 21.472ZM197.761 26.064L196.816 27.827L196.841 27.8403L196.866 27.8529L197.761 26.064ZM202.633 27.688L202.14 29.6264L202.148 29.6283L202.633 27.688ZM211.929 32.224L210.385 33.4954L210.405 33.5202L210.426 33.5442L211.929 32.224ZM213.609 37.152H215.609V37.1338L215.608 37.1156L213.609 37.152ZM212.097 41.968L210.466 40.8096L210.456 40.824L210.446 40.8386L212.097 41.968ZM207.841 45.328L208.629 47.1663L208.637 47.1625L208.646 47.1586L207.841 45.328ZM201.401 46.504V44.504C199.1 44.504 197.105 44.0988 195.381 43.3324L194.569 45.16L193.756 46.9876C196.064 48.0132 198.624 48.504 201.401 48.504V46.504ZM194.569 45.16L195.409 43.3451C193.65 42.531 192.317 41.4735 191.344 40.1959L189.753 41.408L188.162 42.6201C189.578 44.4785 191.455 45.9224 193.728 46.9749L194.569 45.16ZM189.753 41.408L191.362 40.2203C190.429 38.9568 189.934 37.591 189.845 36.0826L187.849 36.2L185.852 36.3174C185.987 38.617 186.761 40.7232 188.144 42.5957L189.753 41.408ZM187.849 36.2V38.2H195.745V36.2V34.2H187.849V36.2ZM195.745 36.2L193.76 36.4481C193.98 38.2035 194.854 39.659 196.253 40.7467L197.481 39.168L198.709 37.5893C198.091 37.109 197.808 36.5859 197.729 35.9519L195.745 36.2ZM197.481 39.168L196.281 40.768C197.729 41.8543 199.458 42.344 201.345 42.344V40.344V38.344C200.17 38.344 199.323 38.0497 198.681 37.568L197.481 39.168ZM201.345 40.344V42.344C203.071 42.344 204.703 42.0037 205.993 41.0655L204.817 39.448L203.64 37.8305C203.288 38.087 202.605 38.344 201.345 38.344V40.344ZM204.817 39.448L205.959 41.0898C207.279 40.1711 208.105 38.8269 208.105 37.152H206.105H204.105C204.105 37.3437 204.071 37.5302 203.675 37.8062L204.817 39.448ZM206.105 37.152H208.105C208.105 36.2831 207.873 35.434 207.351 34.6891C206.841 33.9603 206.138 33.4504 205.379 33.098L204.537 34.912L203.694 36.726C203.981 36.859 204.062 36.9651 204.074 36.9829C204.081 36.993 204.086 37.0014 204.09 37.016C204.095 37.0323 204.105 37.074 204.105 37.152H206.105ZM204.537 34.912L205.457 33.1365C204.246 32.5086 202.447 31.904 200.18 31.2995L199.665 33.232L199.149 35.1645C201.363 35.7546 202.811 36.27 203.616 36.6875L204.537 34.912ZM199.665 33.232L200.135 31.2881C197.874 30.741 196.069 30.1885 194.695 29.639L193.953 31.496L193.21 33.353C194.823 33.9982 196.827 34.603 199.194 35.1759L199.665 33.232ZM193.953 31.496L194.712 29.6457C193.553 29.1704 192.535 28.4422 191.647 27.4318L190.145 28.752L188.642 30.0722C189.92 31.5258 191.44 32.627 193.194 33.3463L193.953 31.496ZM190.145 28.752L191.67 27.458C191.012 26.6827 190.577 25.5267 190.577 23.768H188.577H186.577C186.577 26.1906 187.187 28.3573 188.62 30.046L190.145 28.752ZM188.577 23.768H190.577C190.577 22.4541 190.94 21.2797 191.683 20.1934L190.033 19.064L188.382 17.9346C187.184 19.6856 186.577 21.6472 186.577 23.768H188.577ZM190.033 19.064L191.663 20.2224C192.435 19.1358 193.553 18.2265 195.108 17.5285L194.289 15.704L193.47 13.8795C191.365 14.8241 189.646 16.1548 188.402 17.9056L190.033 19.064ZM194.289 15.704L195.094 17.5346C196.656 16.8473 198.555 16.472 200.841 16.472V14.472V12.472C198.123 12.472 195.654 12.9181 193.483 13.8734L194.289 15.704ZM200.841 14.472V16.472C204.199 16.472 206.646 17.3149 208.396 18.7978L209.689 17.272L210.982 15.7462C208.326 13.4958 204.875 12.472 200.841 12.472V14.472ZM209.689 17.272L208.411 18.8106C210.151 20.2556 211.144 22.2111 211.334 24.8625L213.329 24.72L215.324 24.5775C215.065 20.9569 213.632 17.947 210.966 15.7334L209.689 17.272ZM213.329 24.72V22.72H205.825V24.72V26.72H213.329V24.72ZM205.825 24.72L207.816 24.5389C207.657 22.7825 206.874 21.2854 205.467 20.2157L204.257 21.808L203.047 23.4003C203.506 23.7492 203.769 24.1935 203.833 24.9011L205.825 24.72ZM204.257 21.808L205.537 20.2716C204.182 19.1427 202.467 18.688 200.617 18.688V20.688V22.688C201.827 22.688 202.539 22.98 202.976 23.3444L204.257 21.808ZM200.617 20.688V18.688C198.99 18.688 197.443 18.9815 196.203 19.8079L197.313 21.472L198.422 23.1361C198.75 22.9172 199.406 22.688 200.617 22.688V20.688ZM197.313 21.472L196.166 19.8335C194.869 20.7411 194.193 22.0887 194.193 23.656H196.193H198.193C198.193 23.3566 198.263 23.2483 198.46 23.1105L197.313 21.472ZM196.193 23.656H194.193C194.193 24.5293 194.417 25.3777 194.909 26.1333C195.392 26.876 196.067 27.4255 196.816 27.827L197.761 26.064L198.705 24.301C198.409 24.1425 198.3 24.0106 198.261 23.9507C198.23 23.9036 198.193 23.828 198.193 23.656H196.193ZM197.761 26.064L196.866 27.8529C198.109 28.4744 199.903 29.0575 202.14 29.6263L202.633 27.688L203.125 25.7497C200.957 25.1985 199.503 24.6989 198.655 24.2751L197.761 26.064ZM202.633 27.688L202.148 29.6283C204.333 30.1747 206.081 30.7261 207.418 31.2743L208.177 29.424L208.936 27.5737C207.36 26.9272 205.412 26.3213 203.118 25.7477L202.633 27.688ZM208.177 29.424L207.418 31.2743C208.554 31.7407 209.54 32.469 210.385 33.4954L211.929 32.224L213.473 30.9526C212.227 29.4403 210.711 28.302 208.936 27.5737L208.177 29.424ZM211.929 32.224L210.426 33.5442C211.124 34.338 211.578 35.4854 211.609 37.1884L213.609 37.152L215.608 37.1156C215.565 34.712 214.899 32.574 213.431 30.9038L211.929 32.224ZM213.609 37.152H211.609C211.609 38.542 211.226 39.7399 210.466 40.8096L212.097 41.968L213.727 43.1264C214.983 41.3588 215.609 39.346 215.609 37.152H213.609ZM212.097 41.968L210.446 40.8386C209.723 41.8959 208.625 42.798 207.035 43.4974L207.841 45.328L208.646 47.1586C210.79 46.2153 212.529 44.8774 213.747 43.0974L212.097 41.968ZM207.841 45.328L207.053 43.4897C205.524 44.1449 203.656 44.504 201.401 44.504V46.504V48.504C204.073 48.504 206.499 48.0791 208.629 47.1663L207.841 45.328ZM225.644 45.16L224.804 46.9749L224.818 46.9814L224.832 46.9876L225.644 45.16ZM220.828 41.408L219.219 42.5957L219.228 42.608L219.237 42.6201L220.828 41.408ZM218.924 36.2V34.2H216.803L216.928 36.3174L218.924 36.2ZM226.82 36.2L228.805 35.9519L228.586 34.2H226.82V36.2ZM228.556 39.168L227.328 40.7467L227.342 40.7575L227.356 40.768L228.556 39.168ZM235.892 39.448L234.75 37.8062L234.733 37.8182L234.716 37.8305L235.892 39.448ZM235.612 34.912L234.692 36.6875L234.73 36.7076L234.77 36.726L235.612 34.912ZM230.74 33.232L231.256 31.2995L231.233 31.2935L231.211 31.2881L230.74 33.232ZM225.028 31.496L224.269 33.3463L224.277 33.3497L224.286 33.353L225.028 31.496ZM221.22 28.752L219.695 30.046L219.707 30.0592L219.718 30.0722L221.22 28.752ZM221.108 19.064L219.478 17.9056L219.468 17.92L219.458 17.9346L221.108 19.064ZM225.364 15.704L224.559 13.8734L224.552 13.8764L224.545 13.8795L225.364 15.704ZM240.764 17.272L239.471 18.7978L239.479 18.8042L239.487 18.8106L240.764 17.272ZM244.404 24.72V26.72H246.552L246.399 24.5775L244.404 24.72ZM236.9 24.72L234.909 24.9011L235.074 26.72H236.9V24.72ZM235.332 21.808L234.052 23.3444L234.086 23.3732L234.122 23.4003L235.332 21.808ZM228.388 21.472L227.279 19.8079L227.26 19.8205L227.241 19.8335L228.388 21.472ZM228.836 26.064L227.892 27.827L227.917 27.8403L227.942 27.8529L228.836 26.064ZM233.708 27.688L233.216 29.6264L233.223 29.6283L233.708 27.688ZM243.004 32.224L241.46 33.4954L241.481 33.5202L241.502 33.5442L243.004 32.224ZM244.684 37.152H246.684V37.1338L246.684 37.1156L244.684 37.152ZM243.172 41.968L241.542 40.8096L241.532 40.824L241.522 40.8386L243.172 41.968ZM238.916 45.328L239.704 47.1663L239.713 47.1625L239.722 47.1586L238.916 45.328ZM232.476 46.504V44.504C230.176 44.504 228.181 44.0988 226.457 43.3324L225.644 45.16L224.832 46.9876C227.139 48.0132 229.7 48.504 232.476 48.504V46.504ZM225.644 45.16L226.485 43.3451C224.726 42.531 223.393 41.4735 222.419 40.1959L220.828 41.408L219.237 42.6201C220.653 44.4785 222.531 45.9224 224.804 46.9749L225.644 45.16ZM220.828 41.408L222.437 40.2203C221.505 38.9568 221.01 37.591 220.921 36.0826L218.924 36.2L216.928 36.3174C217.063 38.617 217.837 40.7232 219.219 42.5957L220.828 41.408ZM218.924 36.2V38.2H226.82V36.2V34.2H218.924V36.2ZM226.82 36.2L224.836 36.4481C225.055 38.2035 225.93 39.659 227.328 40.7467L228.556 39.168L229.784 37.5893C229.167 37.109 228.884 36.5859 228.805 35.9519L226.82 36.2ZM228.556 39.168L227.356 40.768C228.805 41.8543 230.534 42.344 232.42 42.344V40.344V38.344C231.246 38.344 230.399 38.0497 229.756 37.568L228.556 39.168ZM232.42 40.344V42.344C234.147 42.344 235.779 42.0037 237.069 41.0655L235.892 39.448L234.716 37.8305C234.363 38.087 233.681 38.344 232.42 38.344V40.344ZM235.892 39.448L237.034 41.0898C238.355 40.1711 239.18 38.8269 239.18 37.152H237.18H235.18C235.18 37.3437 235.147 37.5302 234.75 37.8062L235.892 39.448ZM237.18 37.152H239.18C239.18 36.2831 238.948 35.434 238.427 34.6891C237.917 33.9603 237.214 33.4504 236.455 33.098L235.612 34.912L234.77 36.726C235.056 36.859 235.137 36.9651 235.15 36.9829C235.157 36.993 235.161 37.0014 235.166 37.016C235.17 37.0323 235.18 37.074 235.18 37.152H237.18ZM235.612 34.912L236.533 33.1365C235.322 32.5086 233.522 31.904 231.256 31.2995L230.74 33.232L230.225 35.1645C232.438 35.7546 233.887 36.27 234.692 36.6875L235.612 34.912ZM230.74 33.232L231.211 31.2881C228.949 30.741 227.145 30.1885 225.771 29.639L225.028 31.496L224.286 33.353C225.899 33.9982 227.902 34.603 230.27 35.1759L230.74 33.232ZM225.028 31.496L225.787 29.6457C224.629 29.1704 223.611 28.4422 222.723 27.4318L221.22 28.752L219.718 30.0722C220.995 31.5258 222.516 32.627 224.269 33.3463L225.028 31.496ZM221.22 28.752L222.745 27.458C222.087 26.6827 221.652 25.5267 221.652 23.768H219.652H217.652C217.652 26.1906 218.262 28.3573 219.695 30.046L221.22 28.752ZM219.652 23.768H221.652C221.652 22.4541 222.016 21.2797 222.759 20.1934L221.108 19.064L219.458 17.9346C218.26 19.6856 217.652 21.6472 217.652 23.768H219.652ZM221.108 19.064L222.739 20.2224C223.511 19.1358 224.629 18.2265 226.183 17.5285L225.364 15.704L224.545 13.8795C222.441 14.8241 220.722 16.1548 219.478 17.9056L221.108 19.064ZM225.364 15.704L226.17 17.5346C227.732 16.8473 229.631 16.472 231.916 16.472V14.472V12.472C229.199 12.472 226.73 12.9181 224.559 13.8734L225.364 15.704ZM231.916 14.472V16.472C235.274 16.472 237.721 17.3149 239.471 18.7978L240.764 17.272L242.057 15.7462C239.402 13.4958 235.95 12.472 231.916 12.472V14.472ZM240.764 17.272L239.487 18.8106C241.226 20.2556 242.22 22.2111 242.409 24.8625L244.404 24.72L246.399 24.5775C246.141 20.9569 244.707 17.947 242.042 15.7334L240.764 17.272ZM244.404 24.72V22.72H236.9V24.72V26.72H244.404V24.72ZM236.9 24.72L238.892 24.5389C238.732 22.7825 237.95 21.2854 236.542 20.2157L235.332 21.808L234.122 23.4003C234.581 23.7492 234.844 24.1935 234.909 24.9011L236.9 24.72ZM235.332 21.808L236.613 20.2716C235.258 19.1427 233.543 18.688 231.692 18.688V20.688V22.688C232.903 22.688 233.615 22.98 234.052 23.3444L235.332 21.808ZM231.692 20.688V18.688C230.066 18.688 228.519 18.9815 227.279 19.8079L228.388 21.472L229.498 23.1361C229.826 22.9172 230.481 22.688 231.692 22.688V20.688ZM228.388 21.472L227.241 19.8335C225.945 20.7411 225.268 22.0887 225.268 23.656H227.268H229.268C229.268 23.3566 229.338 23.2483 229.535 23.1105L228.388 21.472ZM227.268 23.656H225.268C225.268 24.5293 225.492 25.3777 225.984 26.1333C226.468 26.876 227.142 27.4255 227.892 27.827L228.836 26.064L229.781 24.301C229.485 24.1425 229.375 24.0106 229.336 23.9507C229.306 23.9036 229.268 23.828 229.268 23.656H227.268ZM228.836 26.064L227.942 27.8529C229.185 28.4744 230.978 29.0575 233.216 29.6263L233.708 27.688L234.201 25.7497C232.033 25.1985 230.578 24.6989 229.731 24.2751L228.836 26.064ZM233.708 27.688L233.223 29.6283C235.409 30.1747 237.157 30.7261 238.493 31.2743L239.252 29.424L240.011 27.5737C238.436 26.9272 236.488 26.3213 234.193 25.7477L233.708 27.688ZM239.252 29.424L238.493 31.2743C239.63 31.7407 240.615 32.469 241.46 33.4954L243.004 32.224L244.548 30.9526C243.303 29.4403 241.787 28.302 240.011 27.5737L239.252 29.424ZM243.004 32.224L241.502 33.5442C242.2 34.338 242.654 35.4854 242.685 37.1884L244.684 37.152L246.684 37.1156C246.64 34.712 245.974 32.574 244.507 30.9038L243.004 32.224ZM244.684 37.152H242.684C242.684 38.542 242.302 39.7399 241.542 40.8096L243.172 41.968L244.803 43.1264C246.059 41.3588 246.684 39.346 246.684 37.152H244.684ZM243.172 41.968L241.522 40.8386C240.798 41.8959 239.7 42.798 238.111 43.4974L238.916 45.328L239.722 47.1586C241.866 46.2153 243.605 44.8774 244.823 43.0974L243.172 41.968ZM238.916 45.328L238.128 43.4897C236.6 44.1449 234.732 44.504 232.476 44.504V46.504V48.504C235.149 48.504 237.574 48.0791 239.704 47.1663L238.916 45.328ZM265.416 22.032L263.643 21.105L263.638 21.1158L263.632 21.1266L265.416 22.032ZM270.512 16.432L269.478 14.7196L269.472 14.7236L269.465 14.7277L270.512 16.432ZM283.784 15.872L282.829 17.6292L282.837 17.6335L282.844 17.6377L283.784 15.872ZM287.984 19.4L286.374 20.5864L289.984 25.4858V19.4H287.984ZM287.984 14.976V12.976H285.984V14.976H287.984ZM295.88 14.976H297.88V12.976H295.88V14.976ZM295.88 46V48H297.88V46H295.88ZM287.984 46H285.984V48H287.984V46ZM287.984 41.464H289.984V35.0615L286.339 40.3256L287.984 41.464ZM283.784 45.104L284.723 46.8697L284.73 46.8662L284.736 46.8626L283.784 45.104ZM270.512 44.488L269.444 46.179L269.45 46.1832L269.457 46.1873L270.512 44.488ZM265.416 38.832L263.627 39.7264L263.635 39.7428L263.643 39.759L265.416 38.832ZM286.864 25.616L285.104 26.567L285.11 26.5772L285.115 26.5873L286.864 25.616ZM283.84 22.48L282.826 24.2039L282.845 24.2151L282.864 24.2259L283.84 22.48ZM275.72 22.424L274.722 20.6908V20.6908L275.72 22.424ZM272.696 25.56L270.956 24.5728L270.952 24.5807L270.947 24.5887L272.696 25.56ZM272.696 35.304L270.926 36.2355L270.941 36.2636L270.956 36.2912L272.696 35.304ZM275.72 38.496L274.683 40.2064L274.694 40.2132L274.706 40.2199L275.72 38.496ZM283.84 38.552L284.815 40.2979L284.835 40.2871L284.854 40.2759L283.84 38.552ZM286.864 35.416L288.612 36.3873L288.618 36.3772L288.623 36.367L286.864 35.416ZM263.568 30.376H265.568C265.568 27.5066 266.13 25.0436 267.199 22.9374L265.416 22.032L263.632 21.1266C262.238 23.8738 261.568 26.9734 261.568 30.376H263.568ZM265.416 22.032L267.188 22.959C268.307 20.8203 269.767 19.2361 271.558 18.1363L270.512 16.432L269.465 14.7277C267 16.2412 265.063 18.3904 263.643 21.105L265.416 22.032ZM270.512 16.432L271.545 18.1444C273.383 17.0351 275.431 16.472 277.736 16.472V14.472V12.472C274.739 12.472 271.971 13.2155 269.478 14.7196L270.512 16.432ZM277.736 14.472V16.472C279.778 16.472 281.454 16.8822 282.829 17.6292L283.784 15.872L284.739 14.1147C282.679 12.9951 280.323 12.472 277.736 12.472V14.472ZM283.784 15.872L282.844 17.6377C284.369 18.4486 285.527 19.4377 286.374 20.5864L287.984 19.4L289.594 18.2136C288.35 16.5249 286.708 15.162 284.723 14.1063L283.784 15.872ZM287.984 19.4H289.984V14.976H287.984H285.984V19.4H287.984ZM287.984 14.976V16.976H295.88V14.976V12.976H287.984V14.976ZM295.88 14.976H293.88V46H295.88H297.88V14.976H295.88ZM295.88 46V44H287.984V46V48H295.88V46ZM287.984 46H289.984V41.464H287.984H285.984V46H287.984ZM287.984 41.464L286.339 40.3256C285.535 41.487 284.389 42.5017 282.831 43.3454L283.784 45.104L284.736 46.8626C286.763 45.765 288.416 44.353 289.628 42.6024L287.984 41.464ZM283.784 45.104L282.844 43.3383C281.423 44.0942 279.721 44.504 277.68 44.504V46.504V48.504C280.268 48.504 282.635 47.9804 284.723 46.8697L283.784 45.104ZM277.68 46.504V44.504C275.429 44.504 273.407 43.931 271.566 42.7887L270.512 44.488L269.457 46.1873C271.947 47.733 274.704 48.504 277.68 48.504V46.504ZM270.512 44.488L271.58 42.797C269.776 41.6576 268.309 40.0478 267.188 37.905L265.416 38.832L263.643 39.759C265.061 42.4696 266.992 44.6304 269.444 46.179L270.512 44.488ZM265.416 38.832L267.205 37.9376C266.131 35.7907 265.568 33.2861 265.568 30.376H263.568H261.568C261.568 33.8126 262.236 36.9453 263.627 39.7264L265.416 38.832ZM287.984 30.488H289.984C289.984 28.3242 289.559 26.3487 288.612 24.6447L286.864 25.616L285.115 26.5873C285.662 27.5713 285.984 28.8438 285.984 30.488H287.984ZM286.864 25.616L288.623 24.665C287.711 22.9774 286.443 21.6435 284.815 20.7341L283.84 22.48L282.864 24.2259C283.775 24.7352 284.523 25.4919 285.104 26.567L286.864 25.616ZM283.84 22.48L284.854 20.7561C283.281 19.8308 281.569 19.36 279.752 19.36V21.36V23.36C280.847 23.36 281.86 23.6358 282.826 24.2039L283.84 22.48ZM279.752 21.36V19.36C277.954 19.36 276.265 19.8023 274.722 20.6908L275.72 22.424L276.718 24.1572C277.638 23.6271 278.637 23.36 279.752 23.36V21.36ZM275.72 22.424L274.722 20.6908C273.145 21.5984 271.895 22.9184 270.956 24.5728L272.696 25.56L274.435 26.5472C275.064 25.439 275.83 24.6683 276.718 24.1572L275.72 22.424ZM272.696 25.56L270.947 24.5887C270.004 26.2872 269.576 28.2418 269.576 30.376H271.576H273.576C273.576 28.7769 273.894 27.5208 274.444 26.5313L272.696 25.56ZM271.576 30.376H269.576C269.576 32.5137 270.005 34.4857 270.926 36.2355L272.696 35.304L274.466 34.3725C273.893 33.2849 273.576 31.9716 273.576 30.376H271.576ZM272.696 35.304L270.956 36.2912C271.891 37.9385 273.13 39.2649 274.683 40.2064L275.72 38.496L276.756 36.7856C275.846 36.2337 275.068 35.4322 274.435 34.3168L272.696 35.304ZM275.72 38.496L274.706 40.2199C276.27 41.1401 277.963 41.616 279.752 41.616V39.616V37.616C278.704 37.616 277.708 37.3452 276.734 36.7721L275.72 38.496ZM279.752 39.616V41.616C281.549 41.616 283.247 41.1741 284.815 40.2979L283.84 38.552L282.864 36.8061C281.893 37.3486 280.867 37.616 279.752 37.616V39.616ZM283.84 38.552L284.854 40.2759C286.444 39.3402 287.7 38.0288 288.612 36.3873L286.864 35.416L285.115 34.4447C284.534 35.4912 283.774 36.2705 282.826 36.8281L283.84 38.552ZM286.864 35.416L288.623 36.367C289.558 34.6376 289.984 32.654 289.984 30.488H287.984H285.984C285.984 32.13 285.663 33.4317 285.104 34.465L286.864 35.416ZM330.249 18.056L328.812 19.4472L328.818 19.453L328.823 19.4587L330.249 18.056ZM333.665 46V48H335.665V46H333.665ZM325.825 46H323.825V48H325.825V46ZM323.977 23.208L322.503 24.5594L322.512 24.5698L322.522 24.58L323.977 23.208ZM313.785 23.208L312.331 21.8348L312.33 21.836L313.785 23.208ZM311.937 46V48H313.937V46H311.937ZM304.097 46H302.097V48H304.097V46ZM304.097 14.976V12.976H302.097V14.976H304.097ZM311.937 14.976H313.937V12.976H311.937V14.976ZM311.937 18.84H309.937V24.6691L313.516 20.0679L311.937 18.84ZM315.913 15.704L316.756 17.5174L316.765 17.5132L316.774 17.509L315.913 15.704ZM321.289 14.528V16.528C324.52 16.528 326.962 17.5361 328.812 19.4472L330.249 18.056L331.686 16.6648C328.981 13.8719 325.45 12.528 321.289 12.528V14.528ZM330.249 18.056L328.823 19.4587C330.635 21.3002 331.665 23.986 331.665 27.8H333.665H335.665C335.665 23.2514 334.417 19.4411 331.674 16.6533L330.249 18.056ZM333.665 27.8H331.665V46H333.665H335.665V27.8H333.665ZM333.665 46V44H325.825V46V48H333.665V46ZM325.825 46H327.825V28.864H325.825H323.825V46H325.825ZM325.825 28.864H327.825C327.825 26.0822 327.127 23.6334 325.432 21.836L323.977 23.208L322.522 24.58C323.291 25.396 323.825 26.7178 323.825 28.864H325.825ZM323.977 23.208L325.451 21.8566C323.776 20.0293 321.523 19.192 318.937 19.192V21.192V23.192C320.607 23.192 321.714 23.6987 322.503 24.5594L323.977 23.208ZM318.937 21.192V19.192C316.324 19.192 314.043 20.0218 312.331 21.8348L313.785 23.208L315.239 24.5812C316.065 23.7062 317.219 23.192 318.937 23.192V21.192ZM313.785 23.208L312.33 21.836C310.635 23.6334 309.937 26.0822 309.937 28.864H311.937H313.937C313.937 26.7178 314.471 25.396 315.24 24.58L313.785 23.208ZM311.937 28.864H309.937V46H311.937H313.937V28.864H311.937ZM311.937 46V44H304.097V46V48H311.937V46ZM304.097 46H306.097V14.976H304.097H302.097V46H304.097ZM304.097 14.976V16.976H311.937V14.976V12.976H304.097V14.976ZM311.937 14.976H309.937V18.84H311.937H313.937V14.976H311.937ZM311.937 18.84L313.516 20.0679C314.358 18.9848 315.427 18.1356 316.756 17.5174L315.913 15.704L315.069 13.8906C313.188 14.7657 311.606 16.0072 310.358 17.6121L311.937 18.84ZM315.913 15.704L316.774 17.509C318.13 16.8618 319.625 16.528 321.289 16.528V14.528V12.528C319.07 12.528 316.981 12.9782 315.051 13.899L315.913 15.704ZM341.512 22.032L339.74 21.105L339.734 21.1158L339.729 21.1266L341.512 22.032ZM346.664 16.432L347.698 18.1444V18.1444L346.664 16.432ZM359.656 15.816L358.777 17.6121L358.791 17.6194L358.806 17.6265L359.656 15.816ZM364.024 19.288L362.419 20.4814L366.024 25.3294V19.288H364.024ZM364.024 4.56V2.56H362.024V4.56H364.024ZM371.976 4.56H373.976V2.56H371.976V4.56ZM371.976 46V48H373.976V46H371.976ZM364.024 46H362.024V48H364.024V46ZM364.024 41.408H366.024V34.5196L362.335 40.3369L364.024 41.408ZM359.936 45.104L358.997 43.3383L359.936 45.104ZM346.664 44.488L347.719 42.7887L346.664 44.488ZM341.512 38.832L339.723 39.7264L339.732 39.7428L339.74 39.759L341.512 38.832ZM362.96 25.616L361.201 26.567L361.206 26.5772L361.212 26.5873L362.96 25.616ZM359.936 22.48L358.922 24.2039L358.941 24.2151L358.961 24.2259L359.936 22.48ZM351.816 22.424L350.818 20.6908V20.6908L351.816 22.424ZM348.792 25.56L347.053 24.5728L347.048 24.5807L347.044 24.5887L348.792 25.56ZM348.792 35.304L347.022 36.2355L347.037 36.2636L347.053 36.2912L348.792 35.304ZM351.816 38.496L350.78 40.2064L350.791 40.2132L350.802 40.2199L351.816 38.496ZM359.936 38.552L360.912 40.2979L360.931 40.2871L360.95 40.2759L359.936 38.552ZM362.96 35.416L364.709 36.3873L364.714 36.3772L364.72 36.367L362.96 35.416ZM339.664 30.376H341.664C341.664 27.5066 342.226 25.0436 343.296 22.9374L341.512 22.032L339.729 21.1266C338.334 23.8738 337.664 26.9734 337.664 30.376H339.664ZM341.512 22.032L343.284 22.959C344.399 20.829 345.872 19.2462 347.698 18.1444L346.664 16.432L345.631 14.7196C343.126 16.2311 341.165 18.3817 339.74 21.105L341.512 22.032ZM346.664 16.432L347.698 18.1444C349.536 17.0351 351.583 16.472 353.888 16.472V14.472V12.472C350.892 12.472 348.123 13.2155 345.631 14.7196L346.664 16.432ZM353.888 14.472V16.472C355.596 16.472 357.218 16.8488 358.777 17.6121L359.656 15.816L360.536 14.0199C358.436 12.9912 356.212 12.472 353.888 12.472V14.472ZM359.656 15.816L358.806 17.6265C360.372 18.3611 361.555 19.3193 362.419 20.4814L364.024 19.288L365.629 18.0946C364.328 16.3447 362.6 14.9882 360.506 14.0055L359.656 15.816ZM364.024 19.288H366.024V4.56H364.024H362.024V19.288H364.024ZM364.024 4.56V6.56H371.976V4.56V2.56H364.024V4.56ZM371.976 4.56H369.976V46H371.976H373.976V4.56H371.976ZM371.976 46V44H364.024V46V48H371.976V46ZM364.024 46H366.024V41.408H364.024H362.024V46H364.024ZM364.024 41.408L362.335 40.3369C361.568 41.5473 360.476 42.5515 358.997 43.3383L359.936 45.104L360.875 46.8697C362.906 45.7898 364.539 44.33 365.713 42.4791L364.024 41.408ZM359.936 45.104L358.997 43.3383C357.576 44.0942 355.874 44.504 353.832 44.504V46.504V48.504C356.42 48.504 358.787 47.9804 360.875 46.8697L359.936 45.104ZM353.832 46.504V44.504C351.582 44.504 349.559 43.931 347.719 42.7887L346.664 44.488L345.61 46.1873C348.1 47.733 350.856 48.504 353.832 48.504V46.504ZM346.664 44.488L347.719 42.7887C345.88 41.6474 344.401 40.0392 343.284 37.905L341.512 38.832L339.74 39.759C341.162 42.4781 343.118 44.6406 345.61 46.1873L346.664 44.488ZM341.512 38.832L343.301 37.9376C342.228 35.7907 341.664 33.2861 341.664 30.376H339.664H337.664C337.664 33.8126 338.333 36.9453 339.723 39.7264L341.512 38.832ZM364.08 30.488H366.08C366.08 28.3242 365.655 26.3487 364.709 24.6447L362.96 25.616L361.212 26.5873C361.759 27.5713 362.08 28.8438 362.08 30.488H364.08ZM362.96 25.616L364.72 24.665C363.807 22.9774 362.539 21.6435 360.912 20.7341L359.936 22.48L358.961 24.2259C359.872 24.7352 360.62 25.4919 361.201 26.567L362.96 25.616ZM359.936 22.48L360.95 20.7561C359.377 19.8308 357.665 19.36 355.848 19.36V21.36V23.36C356.943 23.36 357.957 23.6358 358.922 24.2039L359.936 22.48ZM355.848 21.36V19.36C354.051 19.36 352.361 19.8023 350.818 20.6908L351.816 22.424L352.814 24.1572C353.735 23.6271 354.734 23.36 355.848 23.36V21.36ZM351.816 22.424L350.818 20.6908C349.242 21.5984 347.992 22.9184 347.053 24.5728L348.792 25.56L350.532 26.5472C351.161 25.439 351.927 24.6683 352.814 24.1572L351.816 22.424ZM348.792 25.56L347.044 24.5887C346.1 26.2872 345.672 28.2418 345.672 30.376H347.672H349.672C349.672 28.7769 349.991 27.5208 350.541 26.5313L348.792 25.56ZM347.672 30.376H345.672C345.672 32.5137 346.102 34.4857 347.022 36.2355L348.792 35.304L350.562 34.3725C349.99 33.2849 349.672 31.9716 349.672 30.376H347.672ZM348.792 35.304L347.053 36.2912C347.988 37.9385 349.226 39.2649 350.78 40.2064L351.816 38.496L352.853 36.7856C351.942 36.2337 351.165 35.4322 350.532 34.3168L348.792 35.304ZM351.816 38.496L350.802 40.2199C352.367 41.1401 354.059 41.616 355.848 41.616V39.616V37.616C354.8 37.616 353.805 37.3452 352.83 36.7721L351.816 38.496ZM355.848 39.616V41.616C357.645 41.616 359.344 41.1741 360.912 40.2979L359.936 38.552L358.961 36.8061C357.99 37.3486 356.963 37.616 355.848 37.616V39.616ZM359.936 38.552L360.95 40.2759C362.541 39.3402 363.797 38.0288 364.709 36.3873L362.96 35.416L361.212 34.4447C360.631 35.4912 359.87 36.2705 358.922 36.8281L359.936 38.552ZM362.96 35.416L364.72 36.367C365.654 34.6376 366.08 32.654 366.08 30.488H364.08H362.08C362.08 32.13 361.759 33.4317 361.201 34.465L362.96 35.416Z" fill="#ECEDEE" mask="url(#path-1-outside-1_142_2508)"/>
</svg>
