<svg width="64" height="64" viewBox="0 0 64 64" fill="none" xmlns="http://www.w3.org/2000/svg">
<rect x="0.5" y="0.5" width="63" height="63" rx="11.5" fill="#22252B"/>
<rect x="0.5" y="0.5" width="63" height="63" rx="11.5" stroke="#333740"/>
<path d="M34.0323 22.9303C34.0323 21.4715 32.863 20 30.2508 20C27.9505 20 26.404 21.1775 26.404 22.9303C26.404 23.9532 26.818 24.4197 27.0918 24.7287C27.2365 24.8915 27.295 24.965 27.295 25.0385C27.295 25.16 27.295 25.2335 26.8765 25.25H22.303C20.5443 25.25 19.0008 26.6518 19.0008 28.25V31.049C19.0293 31.757 19.429 32.1973 20.0448 32.1973C20.395 32.1973 20.6545 31.997 20.9065 31.8028C21.244 31.544 21.6258 31.25 22.3758 31.25C23.6478 31.25 25.0008 32.3015 25.0008 34.25C25.0008 36.2218 23.6298 37.5965 22.399 37.5965C21.6565 37.5965 21.268 37.2747 20.9245 36.9913C20.6673 36.7782 20.4018 36.5578 20.044 36.5578C19.429 36.5578 19.0285 36.998 19 37.721V40.7975C19.0008 42.4737 20.575 44 22.303 44H26.8998C27.5958 43.9715 28.045 43.5613 28.045 42.953C28.045 42.5877 27.8373 42.353 27.6535 42.146C27.4075 41.8692 27.154 41.5835 27.154 40.8455C27.154 39.521 28.357 38.6652 30.2178 38.6652C32.0793 38.6652 33.2823 39.521 33.2823 40.8455C33.2823 41.5835 33.028 41.8692 32.7828 42.146C32.599 42.353 32.3905 42.5877 32.3905 42.953C32.3905 43.5695 32.8293 43.97 33.5515 43.9993L36.5072 44C38.1213 44 39.2493 42.7423 39.2493 40.9415V37.454C39.2688 37.3625 39.4998 37.013 39.8523 37.013C39.9243 37.013 39.997 37.0723 40.159 37.2162C40.4665 37.4915 40.9323 37.9078 41.9538 37.9078C43.5918 37.907 45.2508 36.6515 45.2508 34.25C45.2508 31.6595 43.744 30.5 42.2508 30.5C41.2428 30.5 40.6608 30.9605 40.2753 31.265C40.1042 31.4 39.9438 31.5275 39.8523 31.5275C39.499 31.5275 39.268 31.1765 39.2508 31.0992L39.2493 31.0812V28.394C39.2493 26.5723 38.0958 25.25 36.5072 25.25H33.5665L33.5365 25.2478C33.1405 25.2327 33.1405 25.16 33.1405 25.0385C33.1405 24.965 33.199 24.8923 33.3438 24.7287C33.6175 24.4205 34.0323 23.9532 34.0323 22.9303ZM32.7828 24.2315C32.599 24.4385 32.3905 24.674 32.3905 25.0392C32.3905 25.4517 32.5788 25.9482 33.4938 25.997L33.5463 26H36.5072C37.8153 26 38.5008 27.2045 38.5008 28.394V31.1187C38.5008 31.1458 38.4955 31.172 38.5008 31.1975C38.5698 31.6558 39.1323 32.2767 39.8523 32.2767C40.2048 32.2767 40.4643 32.0712 40.741 31.853C41.098 31.5702 41.5038 31.25 42.2508 31.25C43.6173 31.25 44.5008 32.4275 44.5008 34.25C44.5008 36.248 43.18 37.157 41.9538 37.157C41.2195 37.157 40.9345 36.9028 40.6585 36.6567C40.4515 36.4722 40.2168 36.263 39.8523 36.263C39.1323 36.263 38.569 36.8848 38.5008 37.343C38.4955 37.3685 38.5008 37.3948 38.5008 37.4217V40.9422C38.5008 42.0905 37.8835 43.25 36.5072 43.25H33.5665C33.1405 43.2327 33.1405 43.0362 33.1405 42.953C33.1405 42.8803 33.199 42.8067 33.3438 42.6432C33.6175 42.3342 34.0323 41.8678 34.0323 40.8447C34.0323 39.386 32.8533 37.9145 30.2178 37.9145C27.937 37.9145 26.404 39.092 26.404 40.8447C26.404 41.8678 26.818 42.3342 27.0925 42.6432C27.2365 42.806 27.2958 42.8795 27.2958 42.953C27.2958 43.037 27.2958 43.2335 26.8848 43.25H22.303C21.0152 43.25 19.7508 42.035 19.7508 40.7975V37.736C19.7673 37.3078 19.9615 37.3078 20.0448 37.3078C20.1318 37.3078 20.2848 37.4345 20.4475 37.5687C20.821 37.8785 21.3873 38.3465 22.3998 38.3465C24.0175 38.3465 25.7508 36.7003 25.7508 34.25C25.7508 31.814 24.0123 30.5 22.3758 30.5C21.3708 30.5 20.8165 30.926 20.4498 31.2087C20.2833 31.337 20.1393 31.4472 20.0448 31.4472C19.9623 31.4472 19.768 31.4473 19.7508 31.034V28.25C19.7508 26.924 21.0963 26 22.303 26H26.8893L26.9245 25.9985C27.8508 25.964 28.045 25.457 28.045 25.0385C28.045 24.6733 27.8373 24.4385 27.6535 24.2315C27.4075 23.9548 27.154 23.669 27.154 22.9303C27.154 21.626 28.3983 20.75 30.2508 20.75C32.092 20.75 33.2823 21.6058 33.2823 22.9303C33.2823 23.6683 33.028 23.9548 32.7828 24.2315Z" fill="#DC1414" stroke="#B4B6BB"/>
</svg>
