<svg width="64" height="64" viewBox="0 0 64 64" fill="none" xmlns="http://www.w3.org/2000/svg">
<rect x="0.5" y="0.5" width="63" height="63" rx="11.5" fill="#22252B"/>
<rect x="0.5" y="0.5" width="63" height="63" rx="11.5" stroke="#333740"/>
<path d="M25.4023 31.2159C27.481 31.2159 28.2928 29.4412 28.2928 27.4619M31.1365 33.9178C31.1365 32.5507 31.8668 30.7217 34.2248 30.7217" stroke="#B4B6BB" stroke-linecap="round" stroke-linejoin="round"/>
<path d="M34.2251 37.6078C34.2251 37.6078 34.3245 44 29.3825 44H19.3942C15.0093 44 14.73 37.6078 19.3942 37.6078C15.0093 37.6078 14.73 31.2155 19.3942 31.2155C14.426 26.8017 20.5355 22.9586 23.3495 25.9271C20.4293 21.8938 26.6195 19.6487 28.7491 22.883C28.4986 19.6487 31.6981 19.0653 34.6658 21.4904L34.4026 21.7027C35.847 20.2575 40.5944 21.0438 40.5944 24.9379L39.2443 25.9271C43.4212 21.7477 47.8885 28.4762 44.4155 30.937H45.2273C48.1169 30.937 48.4463 37.6078 44.4155 37.6078H27.4813" stroke="#B4B6BB" stroke-linecap="round" stroke-linejoin="round"/>
<path d="M34.4012 21.7036C32.9322 23.1743 34.2297 23.6379 31.8029 26.0664M19.3945 31.2156H25.4021M19.3945 37.6078H21.6753M31.1363 37.6078V33.9175M45.2267 30.937H40.0046" stroke="#B4B6BB" stroke-linecap="round" stroke-linejoin="round"/>
</svg>
