<svg width="64" height="64" viewBox="0 0 64 64" fill="none" xmlns="http://www.w3.org/2000/svg">
<rect x="0.5" y="0.5" width="63" height="63" rx="11.5" fill="#22252B"/>
<rect x="0.5" y="0.5" width="63" height="63" rx="11.5" stroke="#333740"/>
<path d="M35.1797 19.0059V24.2364C35.1797 24.9448 35.4619 25.6255 35.9651 26.1273C36.4697 26.6297 37.1528 26.9116 37.8648 26.9113H43.8648" stroke="#B4B6BB" stroke-width="2" stroke-linecap="round" stroke-linejoin="round"/>
<path d="M44 27.464V39.9266C43.9711 40.7417 43.7812 41.5431 43.4412 42.2845C43.1012 43.026 42.6178 43.6928 42.0189 44.2466C41.4195 44.8029 40.7164 45.2357 39.9497 45.5202C39.183 45.8047 38.3678 45.9354 37.5505 45.9047H26.5105C25.6883 45.9423 24.8668 45.8172 24.0931 45.5367C23.3193 45.2561 22.6085 44.8256 22.0015 44.2698C21.3968 43.7146 20.9084 43.0447 20.5648 42.2991C20.2213 41.5534 20.0293 40.747 20 39.9266V24.9826C20.0289 24.1674 20.2188 23.366 20.5588 22.6246C20.8988 21.8831 21.3822 21.2163 21.9811 20.6626C22.5805 20.1062 23.2836 19.6734 24.0503 19.3889C24.817 19.1044 25.6322 18.9737 26.4495 19.0044H34.7607C36.0295 18.9999 37.2542 19.4693 38.1949 20.3207L42.5004 24.28C42.9598 24.6758 43.3308 25.1638 43.5891 25.7124C43.8475 26.2609 43.9875 26.8578 44 27.464Z" stroke="#B4B6BB" stroke-width="2" stroke-linecap="round" stroke-linejoin="round"/>
</svg>
