<svg width="64" height="64" viewBox="0 0 64 64" fill="none" xmlns="http://www.w3.org/2000/svg">
<rect x="0.5" y="0.5" width="63" height="63" rx="11.5" fill="#22252B"/>
<rect x="0.5" y="0.5" width="63" height="63" rx="11.5" stroke="#333740"/>
<path d="M20.1406 33.1428C23.4893 29.1661 26.5316 26.8764 27.9197 25.9358C28.3734 25.6278 28.9717 25.7284 29.3163 26.1546C29.9707 26.97 30.6015 27.8041 31.2077 28.6559C31.6695 29.3027 32.6438 29.3233 33.1552 28.7153C35.5187 25.9084 38.7131 23.1426 38.7131 23.1426" stroke="#B4B6BB" stroke-width="2" stroke-linecap="round" stroke-linejoin="round"/>
<path d="M41.5011 24.7555C41.8805 22.9068 41.8765 21.2771 41.8445 20.5096C41.8403 20.3792 41.7866 20.2553 41.6944 20.163C41.6022 20.0707 41.4783 20.0169 41.348 20.0125C39.9241 19.9596 38.499 20.0749 37.1021 20.3559C36.6718 20.4439 36.5296 20.9702 36.8393 21.2805L40.5765 25.0177C40.8874 25.328 41.4131 25.1852 41.5011 24.7555ZM20.2955 43.977C19.6509 43.9559 19.1571 43.5662 19.092 42.925C19.04 42.4222 19 41.6753 19 40.5713C19 39.4672 19.0411 38.7198 19.0914 38.2175C19.1571 37.5763 19.6509 37.1866 20.2955 37.1649C20.6766 37.1523 21.1869 37.1426 21.8572 37.1426C22.5275 37.1426 23.0378 37.1523 23.419 37.1655C24.0635 37.1866 24.5573 37.5763 24.6224 38.2175C24.6738 38.7204 24.7144 39.4672 24.7144 40.5713C24.7144 41.6753 24.6733 42.4227 24.623 42.925C24.5573 43.5662 24.0635 43.9559 23.419 43.9776C23.0372 43.9902 22.5275 43.9999 21.8572 43.9999C21.1869 43.9999 20.6766 43.9902 20.2955 43.977ZM38.7473 43.9622C38.0044 43.9165 37.4884 43.3805 37.4347 42.6382C37.3616 41.6319 37.2861 39.8095 37.2861 36.5712C37.2861 33.3328 37.3616 31.5105 37.4347 30.5042C37.4884 29.7619 38.0044 29.2253 38.7473 29.1801C39.1073 29.1578 39.5662 29.1424 40.1434 29.1424C40.7205 29.1424 41.1794 29.1578 41.5394 29.1801C42.2823 29.2258 42.7983 29.7619 42.852 30.5042C42.9251 31.5105 43.0006 33.3328 43.0006 36.5712C43.0006 39.8095 42.9251 41.6319 42.852 42.6382C42.7983 43.3805 42.2823 43.917 41.5394 43.9622C41.1794 43.9845 40.7211 43.9999 40.1434 43.9999C39.5662 43.9999 39.1073 43.9845 38.7473 43.9622ZM29.5717 43.9725C28.8494 43.941 28.3219 43.4582 28.2614 42.7382C28.1991 41.9964 28.1431 40.7918 28.1431 38.8569C28.1431 36.922 28.1991 35.7174 28.2614 34.9757C28.3219 34.2557 28.8494 33.7728 29.5711 33.7414C30.0472 33.7218 30.5237 33.7126 31.0003 33.714C31.5957 33.714 32.0643 33.7254 32.4289 33.7414C33.1512 33.7728 33.6786 34.2557 33.7392 34.9757C33.8015 35.7174 33.8575 36.922 33.8575 38.8569C33.8575 40.7918 33.8015 41.9964 33.7392 42.7382C33.6786 43.4582 33.1512 43.941 32.4295 43.9725C32.0643 43.9885 31.5957 43.9999 31.0003 43.9999C30.5239 44.001 30.0476 43.9919 29.5717 43.9725Z" stroke="#B4B6BB" stroke-width="2" stroke-linecap="round" stroke-linejoin="round"/>
</svg>
