<svg width="72" height="48" viewBox="0 0 72 48" fill="none" xmlns="http://www.w3.org/2000/svg">
<mask id="path-1-outside-1_477_984" maskUnits="userSpaceOnUse" x="0" y="0" width="72" height="48" fill="black">
<rect fill="white" width="72" height="48"/>
<path d="M3.52 24C3.52 17.5787 4.752 12.52 7.216 8.824C9.71733 5.128 13.7307 3.28 19.256 3.28C24.7813 3.28 28.776 5.128 31.24 8.824C33.7413 12.52 34.992 17.5787 34.992 24C34.992 30.496 33.7413 35.592 31.24 39.288C28.776 42.984 24.7813 44.832 19.256 44.832C13.7307 44.832 9.71733 42.984 7.216 39.288C4.752 35.592 3.52 30.496 3.52 24ZM25.584 24C25.584 20.2293 25.1733 17.336 24.352 15.32C23.5307 13.2667 21.832 12.24 19.256 12.24C16.68 12.24 14.9813 13.2667 14.16 15.32C13.3387 17.336 12.928 20.2293 12.928 24C12.928 26.5387 13.0773 28.648 13.376 30.328C13.6747 31.9707 14.272 33.3147 15.168 34.36C16.1013 35.368 17.464 35.872 19.256 35.872C21.048 35.872 22.392 35.368 23.288 34.36C24.2213 33.3147 24.8373 31.9707 25.136 30.328C25.4347 28.648 25.584 26.5387 25.584 24ZM40.2753 37.328C41.5446 36.32 42.1233 35.8533 42.0113 35.928C45.6699 32.904 48.5446 30.4213 50.6353 28.48C52.7633 26.5387 54.5553 24.504 56.0113 22.376C57.4673 20.248 58.1953 18.176 58.1953 16.16C58.1953 14.6293 57.8406 13.4347 57.1313 12.576C56.4219 11.7173 55.3579 11.288 53.9393 11.288C52.5206 11.288 51.4006 11.8293 50.5793 12.912C49.7953 13.9573 49.4033 15.4507 49.4033 17.392H40.1633C40.2379 14.2187 40.9099 11.568 42.1793 9.44C43.4859 7.312 45.1846 5.744 47.2753 4.736C49.4033 3.728 51.7553 3.224 54.3313 3.224C58.7739 3.224 62.1153 4.36266 64.3553 6.64C66.6326 8.91733 67.7713 11.8853 67.7713 15.544C67.7713 19.5387 66.4086 23.2533 63.6833 26.688C60.9579 30.0853 57.4859 33.408 53.2673 36.656H68.3873V44.44H40.2753V37.328Z"/>
</mask>
<path d="M7.216 8.824L4.73149 7.14256L4.72564 7.15121L4.71985 7.1599L7.216 8.824ZM31.24 8.824L28.7439 10.4881L28.7496 10.4968L28.7555 10.5054L31.24 8.824ZM31.24 39.288L28.7555 37.6066L28.7496 37.6152L28.7439 37.6239L31.24 39.288ZM7.216 39.288L4.71985 40.9521L4.72564 40.9608L4.73149 40.9694L7.216 39.288ZM24.352 15.32L21.5666 16.4342L21.5701 16.443L21.5737 16.4519L24.352 15.32ZM14.16 15.32L16.9383 16.4519L16.9419 16.443L16.9454 16.4342L14.16 15.32ZM13.376 30.328L10.4223 30.8531L10.4244 30.8647L13.376 30.328ZM15.168 34.36L12.8902 36.3124L12.9277 36.356L12.9667 36.3982L15.168 34.36ZM23.288 34.36L21.0502 32.3619L21.0458 32.3669L23.288 34.36ZM25.136 30.328L28.0876 30.8647L28.0897 30.8531L25.136 30.328ZM3.52 24H6.52C6.52 17.9198 7.69276 13.5172 9.71215 10.4881L7.216 8.824L4.71985 7.1599C1.81124 11.5228 0.52 17.2375 0.52 24H3.52ZM7.216 8.824L9.70051 10.5054C11.5083 7.83416 14.4575 6.28 19.256 6.28V3.28V0.279996C13.0038 0.279996 7.92633 2.42184 4.73149 7.14256L7.216 8.824ZM19.256 3.28V6.28C24.056 6.28 26.9744 7.83399 28.7439 10.4881L31.24 8.824L33.7362 7.1599C30.5776 2.422 25.5066 0.279996 19.256 0.279996V3.28ZM31.24 8.824L28.7555 10.5054C30.8033 13.5313 31.992 17.9269 31.992 24H34.992H37.992C37.992 17.2304 36.6793 11.5087 33.7245 7.14256L31.24 8.824ZM34.992 24H31.992C31.992 30.1562 30.8001 34.5855 28.7555 37.6066L31.24 39.288L33.7245 40.9694C36.6826 36.5985 37.992 30.8358 37.992 24H34.992ZM31.24 39.288L28.7439 37.6239C26.9744 40.278 24.056 41.832 19.256 41.832V44.832V47.832C25.5066 47.832 30.5776 45.69 33.7362 40.9521L31.24 39.288ZM19.256 44.832V41.832C14.4575 41.832 11.5083 40.2778 9.70051 37.6066L7.216 39.288L4.73149 40.9694C7.92633 45.6902 13.0038 47.832 19.256 47.832V44.832ZM7.216 39.288L9.71215 37.6239C7.69594 34.5996 6.52 30.1632 6.52 24H3.52H0.52C0.52 30.8288 1.80807 36.5844 4.71985 40.9521L7.216 39.288ZM25.584 24H28.584C28.584 20.0835 28.1679 16.7349 27.1303 14.1881L24.352 15.32L21.5737 16.4519C22.1788 17.9371 22.584 20.3751 22.584 24H25.584ZM24.352 15.32L27.1374 14.2058C26.5136 12.6463 25.485 11.3317 24.0138 10.4425C22.5763 9.5737 20.9314 9.24 19.256 9.24V12.24V15.24C20.1566 15.24 20.649 15.4196 20.9102 15.5775C21.1377 15.715 21.3691 15.9404 21.5666 16.4342L24.352 15.32ZM19.256 12.24V9.24C17.5806 9.24 15.9357 9.5737 14.4982 10.4425C13.027 11.3317 11.9984 12.6463 11.3746 14.2058L14.16 15.32L16.9454 16.4342C17.1429 15.9404 17.3743 15.715 17.6018 15.5775C17.863 15.4196 18.3554 15.24 19.256 15.24V12.24ZM14.16 15.32L11.3817 14.1881C10.3441 16.7349 9.928 20.0835 9.928 24H12.928H15.928C15.928 20.3751 16.3332 17.9371 16.9383 16.4519L14.16 15.32ZM12.928 24H9.928C9.928 26.6385 10.0819 28.9381 10.4223 30.8531L13.376 30.328L16.3297 29.8029C16.0728 28.3579 15.928 26.4388 15.928 24H12.928ZM13.376 30.328L10.4244 30.8647C10.798 32.9195 11.5813 34.7853 12.8902 36.3124L15.168 34.36L17.4458 32.4076C16.9627 31.844 16.5513 31.0219 16.3276 29.7913L13.376 30.328ZM15.168 34.36L12.9667 36.3982C14.6275 38.1918 16.8965 38.872 19.256 38.872V35.872V32.872C18.0315 32.872 17.5752 32.5442 17.3693 32.3218L15.168 34.36ZM19.256 35.872V38.872C21.608 38.872 23.8936 38.1943 25.5302 36.3531L23.288 34.36L21.0458 32.3669C20.8904 32.5417 20.488 32.872 19.256 32.872V35.872ZM23.288 34.36L25.5258 36.358C26.8922 34.8277 27.7092 32.946 28.0876 30.8647L25.136 30.328L22.1844 29.7913C21.9655 30.9954 21.5505 31.8016 21.0502 32.362L23.288 34.36ZM25.136 30.328L28.0897 30.8531C28.4301 28.9381 28.584 26.6385 28.584 24H25.584H22.584C22.584 26.4388 22.4392 28.3579 22.1823 29.8029L25.136 30.328ZM40.2753 37.328L38.4096 34.9787L37.2753 35.8795V37.328H40.2753ZM42.0112 35.928L40.1 33.6156L43.6754 38.4242L42.0112 35.928ZM50.6353 28.48L48.6134 26.2637L48.6036 26.2726L48.5939 26.2816L50.6353 28.48ZM57.1313 12.576L54.8184 14.4866V14.4866L57.1313 12.576ZM50.5793 12.912L48.1892 11.0988L48.1842 11.1054L48.1793 11.112L50.5793 12.912ZM49.4033 17.392V20.392H52.4033V17.392H49.4033ZM40.1632 17.392L37.1641 17.3214L37.0918 20.392H40.1632V17.392ZM42.1793 9.44L39.6227 7.87021L39.6127 7.88662L39.6028 7.90316L42.1793 9.44ZM47.2753 4.736L45.991 2.02478L45.9817 2.02921L45.9724 2.03369L47.2753 4.736ZM64.3553 6.64L62.2165 8.74371L62.2252 8.75255L62.2339 8.76132L64.3553 6.64ZM63.6833 26.688L66.0233 28.5652L66.0284 28.559L66.0333 28.5527L63.6833 26.688ZM53.2673 36.656L51.4371 34.2789L44.4531 39.656H53.2673V36.656ZM68.3873 36.656H71.3873V33.656H68.3873V36.656ZM68.3873 44.44V47.44H71.3873V44.44H68.3873ZM40.2753 44.44H37.2753V47.44H40.2753V44.44ZM40.2753 37.328L42.1409 39.6773C42.7763 39.1728 43.2458 38.7981 43.5445 38.5572C43.689 38.4407 43.8115 38.341 43.8953 38.2706C43.8955 38.2705 44.0237 38.1652 44.1422 38.0467C44.1666 38.0223 44.2096 37.9785 44.2605 37.9216C44.2938 37.8843 44.4129 37.751 44.5374 37.5601C44.5939 37.4733 44.7311 37.2559 44.8429 36.9495C44.9102 36.7653 45.2414 35.8526 44.7989 34.7781C44.2158 33.3622 42.9274 32.9944 42.3173 32.9346C41.7745 32.8814 41.3564 32.9929 41.2348 33.0261C40.9303 33.1091 40.7085 33.2237 40.6676 33.2444C40.5854 33.286 40.5219 33.323 40.4891 33.3424C40.4217 33.3824 40.3693 33.4171 40.3471 33.4318L42.0112 35.928L43.6754 38.4242C43.6602 38.4343 43.6135 38.4653 43.5503 38.5027C43.5197 38.5209 43.458 38.5568 43.3773 38.5977C43.3379 38.6177 43.1172 38.7318 42.8135 38.8146C42.6923 38.8477 42.2745 38.9592 41.732 38.906C41.1221 38.8462 39.8338 38.4785 39.2508 37.0627C38.8084 35.9883 39.1396 35.0759 39.2067 34.8919C39.3185 34.5859 39.4554 34.3688 39.5117 34.2825C39.6357 34.0924 39.7539 33.9601 39.7859 33.9243C39.8356 33.8687 39.8771 33.8265 39.8996 33.8041C40.0029 33.7007 40.0944 33.6275 40.0362 33.6764C40.0033 33.704 39.9229 33.7699 39.778 33.8868C39.4981 34.1125 39.0436 34.4752 38.4096 34.9787L40.2753 37.328ZM42.0112 35.928L43.9225 38.2404C47.6007 35.2002 50.5252 32.6761 52.6766 30.6784L50.6353 28.48L48.5939 26.2816C46.5639 28.1666 43.7391 30.6078 40.1 33.6156L42.0112 35.928ZM50.6353 28.48L52.6571 30.6963C54.9365 28.6169 56.8863 26.4098 58.4872 24.0701L56.0113 22.376L53.5353 20.6819C52.2242 22.5982 50.59 24.4604 48.6134 26.2637L50.6353 28.48ZM56.0113 22.376L58.4872 24.0701C60.1896 21.5819 61.1953 18.9293 61.1953 16.16H58.1953H55.1953C55.1953 17.4226 54.7449 18.9141 53.5353 20.6819L56.0113 22.376ZM58.1953 16.16H61.1953C61.1953 14.1915 60.7388 12.2326 59.4441 10.6654L57.1313 12.576L54.8184 14.4866C54.9424 14.6368 55.1953 15.0671 55.1953 16.16H58.1953ZM57.1313 12.576L59.4441 10.6654C58.0151 8.93541 55.9874 8.288 53.9393 8.288V11.288V14.288C54.3519 14.288 54.5769 14.351 54.6787 14.392C54.7621 14.4257 54.7916 14.4542 54.8184 14.4866L57.1313 12.576ZM53.9393 11.288V8.288C51.6303 8.288 49.6062 9.23093 48.1892 11.0988L50.5793 12.912L52.9693 14.7252C53.195 14.4277 53.4109 14.288 53.9393 14.288V11.288ZM50.5793 12.912L48.1793 11.112C46.8574 12.8745 46.4033 15.1024 46.4033 17.392H49.4033H52.4033C52.4033 15.799 52.7331 15.0402 52.9793 14.712L50.5793 12.912ZM49.4033 17.392V14.392H40.1632V17.392V20.392H49.4033V17.392ZM40.1632 17.392L43.1624 17.4626C43.2283 14.6641 43.8157 12.5527 44.7557 10.9768L42.1793 9.44L39.6028 7.90316C38.0041 10.5833 37.2476 13.7732 37.1641 17.3214L40.1632 17.392ZM42.1793 9.44L44.7358 11.0098C45.7655 9.33278 47.0448 8.17761 48.5781 7.4383L47.2753 4.736L45.9724 2.03369C43.3244 3.31038 41.2063 5.29122 39.6227 7.87021L42.1793 9.44ZM47.2753 4.736L48.5595 7.44721C50.2495 6.64668 52.1571 6.224 54.3313 6.224V3.224V0.223997C51.3534 0.223997 48.557 0.809316 45.991 2.02478L47.2753 4.736ZM54.3313 3.224V6.224C58.2903 6.224 60.7313 7.2338 62.2165 8.74371L64.3553 6.64L66.494 4.53628C63.4992 1.49153 59.2576 0.223997 54.3313 0.223997V3.224ZM64.3553 6.64L62.2339 8.76132C63.8705 10.3979 64.7713 12.5632 64.7713 15.544H67.7713H70.7713C70.7713 11.2075 69.3947 7.43677 66.4766 4.51868L64.3553 6.64ZM67.7713 15.544H64.7713C64.7713 18.7945 63.6813 21.864 61.3332 24.8233L63.6833 26.688L66.0333 28.5527C69.1358 24.6427 70.7713 20.2829 70.7713 15.544H67.7713ZM63.6833 26.688L61.3432 24.8108C58.796 27.986 55.5067 31.1457 51.4371 34.2789L53.2673 36.656L55.0974 39.0331C59.4651 35.6703 63.1198 32.1847 66.0233 28.5652L63.6833 26.688ZM53.2673 36.656V39.656H68.3873V36.656V33.656H53.2673V36.656ZM68.3873 36.656H65.3873V44.44H68.3873H71.3873V36.656H68.3873ZM68.3873 44.44V41.44H40.2753V44.44V47.44H68.3873V44.44ZM40.2753 44.44H43.2753V37.328H40.2753H37.2753V44.44H40.2753Z" fill="#8F9299" mask="url(#path-1-outside-1_477_984)"/>
</svg>
