<svg width="72" height="49" viewBox="0 0 72 49" fill="none" xmlns="http://www.w3.org/2000/svg">
<mask id="path-1-outside-1_477_985" maskUnits="userSpaceOnUse" x="0" y="0" width="72" height="49" fill="black">
<rect fill="white" width="72" height="49"/>
<path d="M3.52 24C3.52 17.5787 4.752 12.52 7.216 8.824C9.71733 5.128 13.7307 3.28 19.256 3.28C24.7813 3.28 28.776 5.128 31.24 8.824C33.7413 12.52 34.992 17.5787 34.992 24C34.992 30.496 33.7413 35.592 31.24 39.288C28.776 42.984 24.7813 44.832 19.256 44.832C13.7307 44.832 9.71733 42.984 7.216 39.288C4.752 35.592 3.52 30.496 3.52 24ZM25.584 24C25.584 20.2293 25.1733 17.336 24.352 15.32C23.5307 13.2667 21.832 12.24 19.256 12.24C16.68 12.24 14.9813 13.2667 14.16 15.32C13.3387 17.336 12.928 20.2293 12.928 24C12.928 26.5387 13.0773 28.648 13.376 30.328C13.6747 31.9707 14.272 33.3147 15.168 34.36C16.1013 35.368 17.464 35.872 19.256 35.872C21.048 35.872 22.392 35.368 23.288 34.36C24.2213 33.3147 24.8373 31.9707 25.136 30.328C25.4347 28.648 25.584 26.5387 25.584 24ZM40.9473 15.656C41.0966 11.6613 42.4033 8.58133 44.8673 6.416C47.3313 4.25067 50.6726 3.168 54.8913 3.168C57.6913 3.168 60.0806 3.65333 62.0593 4.624C64.0753 5.59466 65.5873 6.92 66.5953 8.6C67.6406 10.28 68.1633 12.1653 68.1633 14.256C68.1633 16.72 67.5473 18.736 66.3153 20.304C65.0833 21.8347 63.6459 22.88 62.0033 23.44V23.664C64.1313 24.3733 65.8113 25.5493 67.0433 27.192C68.2753 28.8347 68.8913 30.944 68.8913 33.52C68.8913 35.8347 68.3499 37.888 67.2673 39.68C66.2219 41.4347 64.6726 42.816 62.6193 43.824C60.6033 44.832 58.1953 45.336 55.3953 45.336C50.9153 45.336 47.3313 44.2347 44.6433 42.032C41.9926 39.8293 40.5926 36.5067 40.4433 32.064H49.7393C49.7766 33.7067 50.2433 35.0133 51.1393 35.984C52.0353 36.9173 53.3419 37.384 55.0593 37.384C56.5153 37.384 57.6353 36.9733 58.4193 36.152C59.2406 35.2933 59.6513 34.1733 59.6513 32.792C59.6513 31 59.0726 29.712 57.9153 28.928C56.7953 28.1067 54.9846 27.696 52.4833 27.696H50.6913V19.912H52.4833C54.3873 19.912 55.9179 19.5947 57.0753 18.96C58.2699 18.288 58.8673 17.112 58.8673 15.432C58.8673 14.088 58.4939 13.0427 57.7473 12.296C57.0006 11.5493 55.9739 11.176 54.6673 11.176C53.2486 11.176 52.1846 11.6053 51.4753 12.464C50.8033 13.3227 50.4113 14.3867 50.2993 15.656H40.9473Z"/>
</mask>
<path d="M7.216 8.824L4.73149 7.14256L4.72564 7.15121L4.71985 7.1599L7.216 8.824ZM31.24 8.824L28.7439 10.4881L28.7496 10.4968L28.7555 10.5054L31.24 8.824ZM31.24 39.288L28.7555 37.6066L28.7496 37.6152L28.7439 37.6239L31.24 39.288ZM7.216 39.288L4.71985 40.9521L4.72564 40.9608L4.73149 40.9694L7.216 39.288ZM24.352 15.32L21.5666 16.4342L21.5701 16.443L21.5737 16.4519L24.352 15.32ZM14.16 15.32L16.9383 16.4519L16.9419 16.443L16.9454 16.4342L14.16 15.32ZM13.376 30.328L10.4223 30.8531L10.4244 30.8647L13.376 30.328ZM15.168 34.36L12.8902 36.3124L12.9277 36.356L12.9667 36.3982L15.168 34.36ZM23.288 34.36L21.0502 32.3619L21.0458 32.3669L23.288 34.36ZM25.136 30.328L28.0876 30.8647L28.0897 30.8531L25.136 30.328ZM3.52 24H6.52C6.52 17.9198 7.69276 13.5172 9.71215 10.4881L7.216 8.824L4.71985 7.1599C1.81124 11.5228 0.52 17.2375 0.52 24H3.52ZM7.216 8.824L9.70051 10.5054C11.5083 7.83416 14.4575 6.28 19.256 6.28V3.28V0.279996C13.0038 0.279996 7.92633 2.42184 4.73149 7.14256L7.216 8.824ZM19.256 3.28V6.28C24.056 6.28 26.9744 7.83399 28.7439 10.4881L31.24 8.824L33.7362 7.1599C30.5776 2.422 25.5066 0.279996 19.256 0.279996V3.28ZM31.24 8.824L28.7555 10.5054C30.8033 13.5313 31.992 17.9269 31.992 24H34.992H37.992C37.992 17.2304 36.6793 11.5087 33.7245 7.14256L31.24 8.824ZM34.992 24H31.992C31.992 30.1562 30.8001 34.5855 28.7555 37.6066L31.24 39.288L33.7245 40.9694C36.6826 36.5985 37.992 30.8358 37.992 24H34.992ZM31.24 39.288L28.7439 37.6239C26.9744 40.278 24.056 41.832 19.256 41.832V44.832V47.832C25.5066 47.832 30.5776 45.69 33.7362 40.9521L31.24 39.288ZM19.256 44.832V41.832C14.4575 41.832 11.5083 40.2778 9.70051 37.6066L7.216 39.288L4.73149 40.9694C7.92633 45.6902 13.0038 47.832 19.256 47.832V44.832ZM7.216 39.288L9.71215 37.6239C7.69594 34.5996 6.52 30.1632 6.52 24H3.52H0.52C0.52 30.8288 1.80807 36.5844 4.71985 40.9521L7.216 39.288ZM25.584 24H28.584C28.584 20.0835 28.1679 16.7349 27.1303 14.1881L24.352 15.32L21.5737 16.4519C22.1788 17.9371 22.584 20.3751 22.584 24H25.584ZM24.352 15.32L27.1374 14.2058C26.5136 12.6463 25.485 11.3317 24.0138 10.4425C22.5763 9.5737 20.9314 9.24 19.256 9.24V12.24V15.24C20.1566 15.24 20.649 15.4196 20.9102 15.5775C21.1377 15.715 21.3691 15.9404 21.5666 16.4342L24.352 15.32ZM19.256 12.24V9.24C17.5806 9.24 15.9357 9.5737 14.4982 10.4425C13.027 11.3317 11.9984 12.6463 11.3746 14.2058L14.16 15.32L16.9454 16.4342C17.1429 15.9404 17.3743 15.715 17.6018 15.5775C17.863 15.4196 18.3554 15.24 19.256 15.24V12.24ZM14.16 15.32L11.3817 14.1881C10.3441 16.7349 9.928 20.0835 9.928 24H12.928H15.928C15.928 20.3751 16.3332 17.9371 16.9383 16.4519L14.16 15.32ZM12.928 24H9.928C9.928 26.6385 10.0819 28.9381 10.4223 30.8531L13.376 30.328L16.3297 29.8029C16.0728 28.3579 15.928 26.4388 15.928 24H12.928ZM13.376 30.328L10.4244 30.8647C10.798 32.9195 11.5813 34.7853 12.8902 36.3124L15.168 34.36L17.4458 32.4076C16.9627 31.844 16.5513 31.0219 16.3276 29.7913L13.376 30.328ZM15.168 34.36L12.9667 36.3982C14.6275 38.1918 16.8965 38.872 19.256 38.872V35.872V32.872C18.0315 32.872 17.5752 32.5442 17.3693 32.3218L15.168 34.36ZM19.256 35.872V38.872C21.608 38.872 23.8936 38.1943 25.5302 36.3531L23.288 34.36L21.0458 32.3669C20.8904 32.5417 20.488 32.872 19.256 32.872V35.872ZM23.288 34.36L25.5258 36.358C26.8922 34.8277 27.7092 32.946 28.0876 30.8647L25.136 30.328L22.1844 29.7913C21.9655 30.9954 21.5505 31.8016 21.0502 32.362L23.288 34.36ZM25.136 30.328L28.0897 30.8531C28.4301 28.9381 28.584 26.6385 28.584 24H25.584H22.584C22.584 26.4388 22.4392 28.3579 22.1823 29.8029L25.136 30.328ZM40.9473 15.656L37.9493 15.5439L37.833 18.656H40.9473V15.656ZM44.8673 6.416L46.8476 8.66949V8.66949L44.8673 6.416ZM62.0593 4.624L60.738 7.31737L60.7479 7.32222L60.7578 7.327L62.0593 4.624ZM66.5953 8.6L64.0228 10.1435L64.0353 10.1643L64.0481 10.1849L66.5953 8.6ZM66.3153 20.304L68.6523 22.185L68.6633 22.1713L68.6742 22.1575L66.3153 20.304ZM62.0033 23.44L61.0352 20.6005L59.0033 21.2932V23.44H62.0033ZM62.0033 23.664H59.0033V25.8263L61.0546 26.51L62.0033 23.664ZM67.0433 27.192L69.4433 25.392L67.0433 27.192ZM67.2673 39.68L64.6995 38.1287L64.6947 38.1366L64.6899 38.1446L67.2673 39.68ZM62.6193 43.824L61.2972 41.131L61.2874 41.1358L61.2776 41.1407L62.6193 43.824ZM44.6433 42.032L42.7259 44.3393L42.7338 44.3459L42.7418 44.3524L44.6433 42.032ZM40.4433 32.064V29.064H37.3407L37.4449 32.1648L40.4433 32.064ZM49.7393 32.064L52.7385 31.9958L52.6718 29.064H49.7393V32.064ZM51.1393 35.984L48.9348 38.0188L48.9548 38.0404L48.9751 38.0616L51.1393 35.984ZM58.4193 36.152L56.2513 34.0783L56.2492 34.0806L58.4193 36.152ZM57.9153 28.928L56.1412 31.3472L56.1863 31.3803L56.2327 31.4118L57.9153 28.928ZM50.6913 27.696H47.6913V30.696H50.6913V27.696ZM50.6913 19.912V16.912H47.6913V19.912H50.6913ZM57.0753 18.96L58.5178 21.5904L58.5319 21.5827L58.546 21.5747L57.0753 18.96ZM57.7473 12.296L59.8686 10.1747V10.1747L57.7473 12.296ZM51.4753 12.464L49.1624 10.5534L49.1371 10.5839L49.1127 10.6151L51.4753 12.464ZM50.2993 15.656V18.656H53.0462L53.2876 15.9197L50.2993 15.656ZM40.9473 15.656L43.9452 15.7681C44.0709 12.4033 45.1341 10.1753 46.8476 8.66949L44.8673 6.416L42.8869 4.1625C39.6724 6.9874 38.1222 10.9194 37.9493 15.5439L40.9473 15.656ZM44.8673 6.416L46.8476 8.66949C48.6222 7.10996 51.1874 6.168 54.8913 6.168V3.168V0.167998C50.1577 0.167998 46.0403 1.39137 42.8869 4.16251L44.8673 6.416ZM54.8913 3.168V6.168C57.3534 6.168 59.2664 6.59544 60.738 7.31737L62.0593 4.624L63.3805 1.93063C60.8948 0.711223 58.0291 0.167998 54.8913 0.167998V3.168ZM62.0593 4.624L60.7578 7.327C62.3231 8.08068 63.3574 9.03449 64.0228 10.1435L66.5953 8.6L69.1677 7.05651C67.8171 4.8055 65.8274 3.10864 63.3607 1.92099L62.0593 4.624ZM66.5953 8.6L64.0481 10.1849C64.7804 11.3619 65.1633 12.6924 65.1633 14.256H68.1633H71.1633C71.1633 11.6383 70.5008 9.19814 69.1424 7.01509L66.5953 8.6ZM68.1633 14.256H65.1633C65.1633 16.2101 64.6828 17.5259 63.9563 18.4505L66.3153 20.304L68.6742 22.1575C70.4117 19.946 71.1633 17.2299 71.1633 14.256H68.1633ZM66.3153 20.304L63.9782 18.423C63.0542 19.571 62.0713 20.2473 61.0352 20.6005L62.0033 23.44L62.9713 26.2795C65.2205 25.5127 67.1123 24.0983 68.6523 22.185L66.3153 20.304ZM62.0033 23.44H59.0033V23.664H62.0033H65.0033V23.44H62.0033ZM62.0033 23.664L61.0546 26.51C62.6597 27.0451 63.8113 27.8827 64.6433 28.992L67.0433 27.192L69.4433 25.392C67.8112 23.2159 65.6028 21.7016 62.9519 20.8179L62.0033 23.664ZM67.0433 27.192L64.6433 28.992C65.396 29.9957 65.8913 31.4256 65.8913 33.52H68.8913H71.8913C71.8913 30.4624 71.1545 27.6737 69.4433 25.392L67.0433 27.192ZM68.8913 33.52H65.8913C65.8913 35.3473 65.4701 36.8531 64.6995 38.1287L67.2673 39.68L69.835 41.2313C71.2297 38.9229 71.8913 36.3221 71.8913 33.52H68.8913ZM67.2673 39.68L64.6899 38.1446C63.9769 39.3414 62.8935 40.3474 61.2972 41.131L62.6193 43.824L63.9413 46.517C66.4517 45.2846 68.4669 43.5279 69.8446 41.2154L67.2673 39.68ZM62.6193 43.824L61.2776 41.1407C59.7668 41.8961 57.84 42.336 55.3953 42.336V45.336V48.336C58.5505 48.336 61.4397 47.7679 63.9609 46.5073L62.6193 43.824ZM55.3953 45.336V42.336C51.4049 42.336 48.5577 41.3611 46.5447 39.7116L44.6433 42.032L42.7418 44.3524C46.1049 47.1083 50.4256 48.336 55.3953 48.336V45.336ZM44.6433 42.032L46.5606 39.7247C44.7479 38.2184 43.571 35.814 43.4416 31.9632L40.4433 32.064L37.4449 32.1648C37.6142 37.1993 39.2372 41.4403 42.7259 44.3393L44.6433 42.032ZM40.4433 32.064V35.064H49.7393V32.064V29.064H40.4433V32.064ZM49.7393 32.064L46.74 32.1322C46.7898 34.3203 47.4307 36.3893 48.9348 38.0188L51.1393 35.984L53.3437 33.9492C53.0558 33.6373 52.7634 33.093 52.7385 31.9958L49.7393 32.064ZM51.1393 35.984L48.9751 38.0616C50.6043 39.7587 52.8035 40.384 55.0592 40.384V37.384V34.384C53.8803 34.384 53.4662 34.0759 53.3034 33.9064L51.1393 35.984ZM55.0592 37.384V40.384C57.0909 40.384 59.0903 39.7939 60.5893 38.2234L58.4193 36.152L56.2492 34.0806C56.1802 34.1528 55.9396 34.384 55.0592 34.384V37.384ZM58.4193 36.152L60.5872 38.2257C62.029 36.7184 62.6513 34.8111 62.6513 32.792H59.6513H56.6513C56.6513 33.5355 56.4522 33.8683 56.2513 34.0783L58.4193 36.152ZM59.6513 32.792H62.6513C62.6513 30.3192 61.8091 27.9422 59.5978 26.4442L57.9153 28.928L56.2327 31.4118C56.3361 31.4818 56.6513 31.6808 56.6513 32.792H59.6513ZM57.9153 28.928L59.6893 26.5088C57.7836 25.1112 55.1744 24.696 52.4832 24.696V27.696V30.696C54.7948 30.696 55.8069 31.1021 56.1412 31.3472L57.9153 28.928ZM52.4832 27.696V24.696H50.6913V27.696V30.696H52.4832V27.696ZM50.6913 27.696H53.6913V19.912H50.6913H47.6913V27.696H50.6913ZM50.6913 19.912V22.912H52.4832V19.912V16.912H50.6913V19.912ZM52.4832 19.912V22.912C54.6827 22.912 56.7656 22.5513 58.5178 21.5904L57.0753 18.96L55.6328 16.3296C55.0702 16.638 54.0918 16.912 52.4832 16.912V19.912ZM57.0753 18.96L58.546 21.5747C60.9123 20.2437 61.8673 17.9076 61.8673 15.432H58.8673H55.8673C55.8673 15.9255 55.7789 16.1476 55.7445 16.2154C55.7279 16.2481 55.7151 16.2632 55.7056 16.2731C55.6953 16.2836 55.6677 16.3097 55.6045 16.3453L57.0753 18.96ZM58.8673 15.432H61.8673C61.8673 13.5202 61.3207 11.6269 59.8686 10.1747L57.7473 12.296L55.6259 14.4173C55.6671 14.4585 55.8673 14.6558 55.8673 15.432H58.8673ZM57.7473 12.296L59.8686 10.1747C58.432 8.73809 56.5694 8.176 54.6673 8.176V11.176V14.176C55.3785 14.176 55.5692 14.3606 55.6259 14.4173L57.7473 12.296ZM54.6673 11.176V8.176C52.6191 8.176 50.5914 8.82341 49.1624 10.5534L51.4753 12.464L53.7881 14.3746C53.8149 14.3422 53.8444 14.3137 53.9278 14.28C54.0296 14.239 54.2546 14.176 54.6673 14.176V11.176ZM51.4753 12.464L49.1127 10.6151C48.0263 12.0033 47.4651 13.6446 47.3109 15.3923L50.2993 15.656L53.2876 15.9197C53.3574 15.1287 53.5802 14.6421 53.8378 14.3129L51.4753 12.464ZM50.2993 15.656V12.656H40.9473V15.656V18.656H50.2993V15.656Z" fill="#8F9299" mask="url(#path-1-outside-1_477_985)"/>
</svg>
