<svg width="77" height="48" viewBox="0 0 77 48" fill="none" xmlns="http://www.w3.org/2000/svg">
<mask id="path-1-outside-1_477_986" maskUnits="userSpaceOnUse" x="0" y="0" width="77" height="48" fill="black">
<rect fill="white" width="77" height="48"/>
<path d="M3.52 24C3.52 17.5787 4.752 12.52 7.216 8.824C9.71733 5.128 13.7307 3.28 19.256 3.28C24.7813 3.28 28.776 5.128 31.24 8.824C33.7413 12.52 34.992 17.5787 34.992 24C34.992 30.496 33.7413 35.592 31.24 39.288C28.776 42.984 24.7813 44.832 19.256 44.832C13.7307 44.832 9.71733 42.984 7.216 39.288C4.752 35.592 3.52 30.496 3.52 24ZM25.584 24C25.584 20.2293 25.1733 17.336 24.352 15.32C23.5307 13.2667 21.832 12.24 19.256 12.24C16.68 12.24 14.9813 13.2667 14.16 15.32C13.3387 17.336 12.928 20.2293 12.928 24C12.928 26.5387 13.0773 28.648 13.376 30.328C13.6747 31.9707 14.272 33.3147 15.168 34.36C16.1013 35.368 17.464 35.872 19.256 35.872C21.048 35.872 22.392 35.368 23.288 34.36C24.2213 33.3147 24.8373 31.9707 25.136 30.328C25.4347 28.648 25.584 26.5387 25.584 24ZM40.8353 37.72V29.992L58.5313 4.68H69.2273V29.432H73.8193V37.72H69.2273V45H59.6513V37.72H40.8353ZM60.3233 15.208L50.9153 29.432H60.3233V15.208Z"/>
</mask>
<path d="M7.216 8.824L4.73149 7.14256L4.72564 7.15121L4.71985 7.1599L7.216 8.824ZM31.24 8.824L28.7439 10.4881L28.7496 10.4968L28.7555 10.5054L31.24 8.824ZM31.24 39.288L28.7555 37.6066L28.7496 37.6152L28.7439 37.6239L31.24 39.288ZM7.216 39.288L4.71985 40.9521L4.72564 40.9608L4.73149 40.9694L7.216 39.288ZM24.352 15.32L21.5666 16.4342L21.5701 16.443L21.5737 16.4519L24.352 15.32ZM14.16 15.32L16.9383 16.4519L16.9419 16.443L16.9454 16.4342L14.16 15.32ZM13.376 30.328L10.4223 30.8531L10.4244 30.8647L13.376 30.328ZM15.168 34.36L12.8902 36.3124L12.9277 36.356L12.9667 36.3982L15.168 34.36ZM23.288 34.36L21.0502 32.3619L21.0458 32.3669L23.288 34.36ZM25.136 30.328L28.0876 30.8647L28.0897 30.8531L25.136 30.328ZM3.52 24H6.52C6.52 17.9198 7.69276 13.5172 9.71215 10.4881L7.216 8.824L4.71985 7.1599C1.81124 11.5228 0.52 17.2375 0.52 24H3.52ZM7.216 8.824L9.70051 10.5054C11.5083 7.83416 14.4575 6.28 19.256 6.28V3.28V0.279996C13.0038 0.279996 7.92633 2.42184 4.73149 7.14256L7.216 8.824ZM19.256 3.28V6.28C24.056 6.28 26.9744 7.83399 28.7439 10.4881L31.24 8.824L33.7362 7.1599C30.5776 2.422 25.5066 0.279996 19.256 0.279996V3.28ZM31.24 8.824L28.7555 10.5054C30.8033 13.5313 31.992 17.9269 31.992 24H34.992H37.992C37.992 17.2304 36.6793 11.5087 33.7245 7.14256L31.24 8.824ZM34.992 24H31.992C31.992 30.1562 30.8001 34.5855 28.7555 37.6066L31.24 39.288L33.7245 40.9694C36.6826 36.5985 37.992 30.8358 37.992 24H34.992ZM31.24 39.288L28.7439 37.6239C26.9744 40.278 24.056 41.832 19.256 41.832V44.832V47.832C25.5066 47.832 30.5776 45.69 33.7362 40.9521L31.24 39.288ZM19.256 44.832V41.832C14.4575 41.832 11.5083 40.2778 9.70051 37.6066L7.216 39.288L4.73149 40.9694C7.92633 45.6902 13.0038 47.832 19.256 47.832V44.832ZM7.216 39.288L9.71215 37.6239C7.69594 34.5996 6.52 30.1632 6.52 24H3.52H0.52C0.52 30.8288 1.80807 36.5844 4.71985 40.9521L7.216 39.288ZM25.584 24H28.584C28.584 20.0835 28.1679 16.7349 27.1303 14.1881L24.352 15.32L21.5737 16.4519C22.1788 17.9371 22.584 20.3751 22.584 24H25.584ZM24.352 15.32L27.1374 14.2058C26.5136 12.6463 25.485 11.3317 24.0138 10.4425C22.5763 9.5737 20.9314 9.24 19.256 9.24V12.24V15.24C20.1566 15.24 20.649 15.4196 20.9102 15.5775C21.1377 15.715 21.3691 15.9404 21.5666 16.4342L24.352 15.32ZM19.256 12.24V9.24C17.5806 9.24 15.9357 9.5737 14.4982 10.4425C13.027 11.3317 11.9984 12.6463 11.3746 14.2058L14.16 15.32L16.9454 16.4342C17.1429 15.9404 17.3743 15.715 17.6018 15.5775C17.863 15.4196 18.3554 15.24 19.256 15.24V12.24ZM14.16 15.32L11.3817 14.1881C10.3441 16.7349 9.928 20.0835 9.928 24H12.928H15.928C15.928 20.3751 16.3332 17.9371 16.9383 16.4519L14.16 15.32ZM12.928 24H9.928C9.928 26.6385 10.0819 28.9381 10.4223 30.8531L13.376 30.328L16.3297 29.8029C16.0728 28.3579 15.928 26.4388 15.928 24H12.928ZM13.376 30.328L10.4244 30.8647C10.798 32.9195 11.5813 34.7853 12.8902 36.3124L15.168 34.36L17.4458 32.4076C16.9627 31.844 16.5513 31.0219 16.3276 29.7913L13.376 30.328ZM15.168 34.36L12.9667 36.3982C14.6275 38.1918 16.8965 38.872 19.256 38.872V35.872V32.872C18.0315 32.872 17.5752 32.5442 17.3693 32.3218L15.168 34.36ZM19.256 35.872V38.872C21.608 38.872 23.8936 38.1943 25.5302 36.3531L23.288 34.36L21.0458 32.3669C20.8904 32.5417 20.488 32.872 19.256 32.872V35.872ZM23.288 34.36L25.5258 36.358C26.8922 34.8277 27.7092 32.946 28.0876 30.8647L25.136 30.328L22.1844 29.7913C21.9655 30.9954 21.5505 31.8016 21.0502 32.362L23.288 34.36ZM25.136 30.328L28.0897 30.8531C28.4301 28.9381 28.584 26.6385 28.584 24H25.584H22.584C22.584 26.4388 22.4392 28.3579 22.1823 29.8029L25.136 30.328ZM40.8353 37.72H37.8353V40.72H40.8353V37.72ZM40.8353 29.992L38.3765 28.2731L37.8353 29.0473V29.992H40.8353ZM58.5312 4.68V1.68H56.9682L56.0725 2.96107L58.5312 4.68ZM69.2273 4.68H72.2273V1.68H69.2273V4.68ZM69.2273 29.432H66.2273V32.432H69.2273V29.432ZM73.8193 29.432H76.8193V26.432H73.8193V29.432ZM73.8193 37.72V40.72H76.8193V37.72H73.8193ZM69.2273 37.72V34.72H66.2273V37.72H69.2273ZM69.2273 45V48H72.2273V45H69.2273ZM59.6513 45H56.6513V48H59.6513V45ZM59.6513 37.72H62.6513V34.72H59.6513V37.72ZM60.3233 15.208H63.3233V5.23421L57.8211 13.553L60.3233 15.208ZM50.9153 29.432L48.4131 27.777L45.3342 32.432H50.9153V29.432ZM60.3233 29.432V32.432H63.3233V29.432H60.3233ZM40.8353 37.72H43.8353V29.992H40.8353H37.8353V37.72H40.8353ZM40.8353 29.992L43.294 31.7109L60.99 6.39892L58.5312 4.68L56.0725 2.96107L38.3765 28.2731L40.8353 29.992ZM58.5312 4.68V7.68H69.2273V4.68V1.68H58.5312V4.68ZM69.2273 4.68H66.2273V29.432H69.2273H72.2273V4.68H69.2273ZM69.2273 29.432V32.432H73.8193V29.432V26.432H69.2273V29.432ZM73.8193 29.432H70.8193V37.72H73.8193H76.8193V29.432H73.8193ZM73.8193 37.72V34.72H69.2273V37.72V40.72H73.8193V37.72ZM69.2273 37.72H66.2273V45H69.2273H72.2273V37.72H69.2273ZM69.2273 45V42H59.6513V45V48H69.2273V45ZM59.6513 45H62.6513V37.72H59.6513H56.6513V45H59.6513ZM59.6513 37.72V34.72H40.8353V37.72V40.72H59.6513V37.72ZM60.3233 15.208L57.8211 13.553L48.4131 27.777L50.9153 29.432L53.4174 31.087L62.8254 16.863L60.3233 15.208ZM50.9153 29.432V32.432H60.3233V29.432V26.432H50.9153V29.432ZM60.3233 29.432H63.3233V15.208H60.3233H57.3233V29.432H60.3233Z" fill="#8F9299" mask="url(#path-1-outside-1_477_986)"/>
</svg>
