<svg width="81" height="191" viewBox="0 0 81 191" fill="none" xmlns="http://www.w3.org/2000/svg">
<g opacity="0.1">
<mask id="path-1-outside-1_692_2555" maskUnits="userSpaceOnUse" x="0" y="0" width="81" height="208" fill="black">
<rect fill="white" width="81" height="208"/>
<path d="M1.56 46.12V1.59999H79.12V206H29.28V46.12H1.56Z"/>
</mask>
<path d="M1.56 46.12H0.0600004V47.62H1.56V46.12ZM1.56 1.59999V0.0999947H0.0600004V1.59999H1.56ZM79.12 1.59999H80.62V0.0999947H79.12V1.59999ZM79.12 206V207.5H80.62V206H79.12ZM29.28 206H27.78V207.5H29.28V206ZM29.28 46.12H30.78V44.62H29.28V46.12ZM1.56 46.12H3.06V1.59999H1.56H0.0600004V46.12H1.56ZM1.56 1.59999V3.09999H79.12V1.59999V0.0999947H1.56V1.59999ZM79.12 1.59999H77.62V206H79.12H80.62V1.59999H79.12ZM79.12 206V204.5H29.28V206V207.5H79.12V206ZM29.28 206H30.78V46.12H29.28H27.78V206H29.28ZM29.28 46.12V44.62H1.56V46.12V47.62H29.28V46.12Z" fill="#8F9299" mask="url(#path-1-outside-1_692_2555)"/>
</g>
</svg>
