<svg width="128" height="128" viewBox="0 0 128 128" fill="none" xmlns="http://www.w3.org/2000/svg">
<path d="M96.9355 59.6513C98.4758 57.2799 98.8449 54.5978 98.0031 51.8971C97.3657 49.8523 97.5516 47.7252 98.4492 45.8929H107.245V64.033C101.628 64.8111 97.2887 69.6415 97.2887 75.4705C97.2887 81.8385 102.47 87.0195 108.838 87.0195C115.206 87.0195 120.388 81.8385 120.388 75.4705C120.388 69.6442 116.048 64.8137 110.432 64.033V44.2996C110.432 43.4206 109.717 42.7062 108.838 42.7062H100.999C102.581 40.9031 103.344 38.6778 103.216 36.2108C103.067 33.3852 101.79 31.0005 99.5221 29.309C96.9647 27.4049 95.767 24.2793 96.3911 21.1538C96.9461 18.3787 96.2982 15.7524 94.5189 13.5536C92.7396 11.3548 90.3017 10.1757 87.4734 10.1412C84.2866 10.104 81.4796 8.27962 80.1465 5.38241C78.9647 2.81183 76.896 1.06713 74.1633 0.3342C71.4306 -0.398733 68.767 0.0792669 66.4593 1.71509C63.8567 3.55804 60.5159 3.73331 57.7354 2.17184C55.2683 0.785644 52.5702 0.591789 49.9278 1.60356C47.2855 2.61798 45.4106 4.56981 44.505 7.24927C43.4826 10.2686 40.8827 12.3745 37.7172 12.7463C34.9075 13.0756 32.6077 14.5042 31.0674 16.8757C29.5271 19.2471 29.158 21.9292 29.9998 24.6299C30.9479 27.6731 30.0822 30.9076 27.7399 33.0666C25.6605 34.9839 24.6381 37.4907 24.7868 40.3162C24.8319 41.1527 24.9753 41.9494 25.2144 42.7036H19.1621C18.2831 42.7036 17.5687 43.4179 17.5687 44.2969V64.0303C11.952 64.8084 7.6127 69.6389 7.6127 75.4678C7.6127 81.8358 12.7939 87.0168 19.1621 87.0168C25.5304 87.0168 30.7115 81.8358 30.7115 75.4678C30.7115 69.6415 26.3722 64.8111 20.7555 64.0303V45.8902H27.0255C27.4531 46.3709 27.9364 46.8144 28.4781 47.218C31.0355 49.1221 32.2332 52.2476 31.6092 55.3732C31.0541 58.1483 31.7021 60.7746 33.4814 62.9734C35.2633 65.1722 37.6986 66.3513 40.5268 66.3858C43.7136 66.423 46.5206 68.2474 47.8538 71.1446C49.0355 73.7151 51.1043 75.4598 53.837 76.1928C54.6682 76.4158 55.4941 76.5274 56.3067 76.5274C58.1604 76.5274 59.937 75.9511 61.5437 74.8119C61.8225 74.6127 62.1146 74.4375 62.4094 74.2781V82.7945C56.7927 83.5726 52.4534 88.403 52.4534 94.232C52.4534 100.6 57.6345 105.781 64.0028 105.781C70.371 105.781 75.5522 100.6 75.5522 94.232C75.5522 88.4057 71.2129 83.5752 65.5962 82.7945V73.3274C67.1816 73.1947 68.8042 73.5319 70.2675 74.3525C72.7346 75.7387 75.4327 75.9352 78.0751 74.9208C80.7174 73.9063 82.5923 71.9545 83.4979 69.2751C84.5203 66.2557 87.1202 64.1498 90.2858 63.7781C93.0928 63.4514 95.3926 62.0227 96.9355 59.6513ZM117.201 75.4678C117.201 80.0779 113.448 83.8302 108.838 83.8302C104.228 83.8302 100.475 80.0779 100.475 75.4678C100.475 70.8578 104.228 67.1055 108.838 67.1055C113.448 67.1055 117.201 70.8551 117.201 75.4678ZM27.5248 75.4678C27.5248 80.0779 23.7723 83.8302 19.1621 83.8302C14.5519 83.8302 10.7995 80.0779 10.7995 75.4678C10.7995 70.8578 14.5519 67.1055 19.1621 67.1055C23.775 67.1055 27.5248 70.8551 27.5248 75.4678ZM72.3628 94.2346C72.3628 98.8447 68.6103 102.597 64.0001 102.597C59.3899 102.597 55.6375 98.8447 55.6375 94.2346C55.6375 89.6246 59.3899 85.8723 64.0001 85.8723C68.6103 85.8723 72.3628 89.6219 72.3628 94.2346ZM80.4758 68.258C79.8756 70.0345 78.6806 71.2773 76.9305 71.9492C75.1778 72.6211 73.4622 72.4962 71.8263 71.5774C67.9624 69.4078 63.315 69.6522 59.7006 72.2121C58.171 73.2956 56.474 73.601 54.6629 73.115C52.8517 72.629 51.5345 71.519 50.7511 69.8141C48.9001 65.7883 44.9989 63.2549 40.5667 63.2018C38.6918 63.1806 37.1409 62.429 35.9591 60.9711C34.7773 59.5132 34.3657 57.8402 34.7349 56.0026C35.6033 51.6581 33.9382 47.3136 30.3822 44.666C28.8765 43.5454 28.0639 42.0264 27.9656 40.1542C27.8673 38.2794 28.518 36.6861 29.8963 35.4141C33.1547 32.4107 34.3578 27.9148 33.0379 23.6845C32.4802 21.892 32.7139 20.1871 33.7363 18.6124C34.7588 17.0403 36.222 16.1294 38.0836 15.9117C42.484 15.3965 46.101 12.4674 47.5192 8.27165C48.1193 6.49509 49.3144 5.25229 51.0645 4.58043C51.8027 4.29629 52.5357 4.15554 53.2607 4.15554C54.2512 4.15554 55.2232 4.4211 56.1713 4.95221C60.0352 7.1218 64.68 6.87749 68.297 4.31753C69.8266 3.23407 71.5209 2.92868 73.3347 3.41464C75.1459 3.90061 76.4631 5.01063 77.2465 6.7155C79.0975 10.7413 82.9987 13.2747 87.4309 13.3278C89.3058 13.3491 90.8567 14.1006 92.0385 15.5585C93.2202 17.0164 93.6319 18.6894 93.2627 20.527C92.3943 24.8715 94.0594 29.216 97.6153 31.8636C99.1211 32.9842 99.9337 34.5032 100.032 36.3754C100.13 38.2502 99.4796 39.8436 98.1013 41.1156C94.8429 44.119 93.6398 48.6148 94.9597 52.8451C95.5174 54.6376 95.2837 56.3425 94.2613 57.9146C93.2388 59.4867 91.7756 60.3975 89.914 60.6153C85.5109 61.1305 81.8966 64.0595 80.4758 68.258ZM64.0001 11.1264C49.0355 11.1264 36.862 23.2994 36.862 38.2635C36.862 53.2275 49.0355 65.4006 64.0001 65.4006C78.9647 65.4006 91.1382 53.2275 91.1382 38.2635C91.1382 23.2994 78.9647 11.1264 64.0001 11.1264ZM64.0001 62.2139C50.7936 62.2139 40.0488 51.4696 40.0488 38.2635C40.0488 25.0574 50.7936 14.313 64.0001 14.313C77.2067 14.313 87.9514 25.0574 87.9514 38.2635C87.9514 51.4696 77.2067 62.2139 64.0001 62.2139ZM22.3781 89.051H15.9488C7.36838 89.051 0.214056 96.0298 0.0016041 104.605C-0.0302637 105.85 0.41323 106.979 1.28428 107.871C2.15268 108.763 3.27071 109.233 4.51621 109.233H33.8107C35.0562 109.233 36.1742 108.763 37.0426 107.871C37.911 106.979 38.3545 105.85 38.3253 104.607C38.1128 96.0298 30.9585 89.051 22.3781 89.051ZM34.7614 105.646C34.4905 105.922 34.1984 106.047 33.8107 106.047H4.51621C4.12848 106.047 3.83636 105.922 3.56549 105.646C3.29461 105.369 3.17776 105.072 3.18839 104.684C3.35835 97.8223 9.08393 92.2376 15.9488 92.2376H22.3781C29.2456 92.2376 34.9686 97.8223 35.1385 104.684C35.1491 105.072 35.0323 105.369 34.7614 105.646ZM67.2161 107.818H60.7868C52.2064 107.818 45.0521 114.797 44.8396 123.371C44.8077 124.617 45.2512 125.745 46.1223 126.638C46.9907 127.53 48.1087 128 49.3542 128H78.6487C79.8942 128 81.0122 127.53 81.8806 126.638C82.749 125.745 83.1925 124.617 83.1633 123.374C82.9509 114.797 75.7965 107.818 67.2161 107.818ZM79.9765 123.451C79.9871 123.839 79.8703 124.134 79.5994 124.412C79.3285 124.689 79.0364 124.813 78.6487 124.813H49.3516C48.9638 124.813 48.6717 124.689 48.4008 124.412C48.13 124.136 48.0131 123.839 48.0237 123.451C48.1937 116.589 53.9193 111.004 60.7841 111.004H67.2135C74.081 111.004 79.8066 116.589 79.9765 123.451ZM112.051 89.051H105.622C97.0417 89.051 89.8874 96.0271 89.675 104.605C89.6431 105.85 90.0866 106.979 90.9576 107.868C91.826 108.761 92.9441 109.231 94.1896 109.231H123.484C124.73 109.231 125.848 108.761 126.716 107.868C127.584 106.976 128.028 105.847 127.999 104.605C127.786 96.0298 120.632 89.051 112.051 89.051ZM124.437 105.646C124.167 105.922 123.874 106.047 123.487 106.047H94.1896C93.8018 106.047 93.5097 105.922 93.2388 105.646C92.968 105.369 92.8511 105.072 92.8617 104.684C93.0317 97.8223 98.7573 92.2376 105.622 92.2376H112.051C118.919 92.2376 124.642 97.8223 124.812 104.684C124.822 105.072 124.708 105.369 124.437 105.646ZM79.4587 31.9778L69.3858 31.1307L65.4687 21.8123C65.2191 21.2201 64.6401 20.8377 64.0001 20.8377C63.3601 20.8377 62.7812 21.2228 62.5316 21.8123L58.6145 31.1307L48.5416 31.9778C47.9016 32.0309 47.3572 32.4638 47.1606 33.0719C46.9615 33.6827 47.15 34.3519 47.636 34.7714L55.2869 41.3758L52.9792 51.2146C52.8331 51.8387 53.0748 52.4893 53.5953 52.8664C54.1131 53.2435 54.8089 53.2727 55.356 52.9407L64.0001 47.7066L72.6469 52.9434C72.9019 53.0974 73.186 53.1744 73.4728 53.1744C73.8021 53.1744 74.1314 53.0735 74.4103 52.869C74.9281 52.492 75.1724 51.8413 75.0264 51.2173L72.7186 41.3785L80.3696 34.7741C80.8555 34.3545 81.0414 33.6853 80.8449 33.0745C80.6431 32.4611 80.096 32.0309 79.4587 31.9778ZM69.901 39.5939C69.4522 39.9816 69.2557 40.5871 69.3911 41.1634L71.0535 48.2537L64.8234 44.4828C64.5684 44.3288 64.2843 44.2518 63.9975 44.2518C63.7107 44.2518 63.4265 44.3288 63.1716 44.4828L56.9441 48.2537L58.6065 41.1634C58.7419 40.5871 58.5454 39.9816 58.0966 39.5939L52.5835 34.8352L59.8414 34.2271C60.4336 34.1766 60.9461 33.8048 61.1772 33.2578L64.0001 26.5419L66.8231 33.2551C67.0541 33.8022 67.5667 34.1766 68.1589 34.2244L75.4141 34.8325L69.901 39.5939Z" fill="url(#paint0_linear_448_1387)"/>
<defs>
<linearGradient id="paint0_linear_448_1387" x1="64" y1="0" x2="64" y2="128" gradientUnits="userSpaceOnUse">
<stop stop-color="#A95CEC"/>
<stop offset="1" stop-color="#DA22FF"/>
</linearGradient>
</defs>
</svg>
