<svg width="114" height="28" viewBox="0 0 114 28" fill="none" xmlns="http://www.w3.org/2000/svg">
<mask id="path-1-outside-1_530_2294" maskUnits="userSpaceOnUse" x="0" y="0" width="114" height="28" fill="black">
<rect fill="white" width="114" height="28"/>
<path d="M1.67338 8.728V3.64H10.5374V27H4.84138V8.728H1.67338ZM31.0486 8.408H21.0646V12.824C21.4913 12.3547 22.0886 11.9707 22.8566 11.672C23.6246 11.3733 24.4566 11.224 25.3526 11.224C26.9526 11.224 28.2753 11.5867 29.3206 12.312C30.3873 13.0373 31.166 13.976 31.6566 15.128C32.1473 16.28 32.3926 17.528 32.3926 18.872C32.3926 21.368 31.6886 23.352 30.2806 24.824C28.8726 26.2747 26.8886 27 24.3286 27C22.622 27 21.1393 26.712 19.8806 26.136C18.622 25.5387 17.6513 24.7173 16.9686 23.672C16.286 22.6267 15.9126 21.4213 15.8486 20.056H21.1926C21.3206 20.7173 21.63 21.272 22.1206 21.72C22.6113 22.1467 23.2833 22.36 24.1366 22.36C25.1393 22.36 25.886 22.04 26.3766 21.4C26.8673 20.76 27.1126 19.9067 27.1126 18.84C27.1126 17.7947 26.8566 16.9947 26.3446 16.44C25.8326 15.8853 25.086 15.608 24.1046 15.608C23.3793 15.608 22.782 15.7893 22.3126 16.152C21.8433 16.4933 21.534 16.952 21.3846 17.528H16.1046V3.608H31.0486V8.408ZM50.0371 13.496V18.04H35.9571V13.496H50.0371ZM80.5996 4.536V27H75.1276V13.528L70.1036 27H65.6876L60.6316 13.496V27H55.1596V4.536H61.6236L67.9276 20.088L74.1676 4.536H80.5996ZM87.6066 7.288C86.6466 7.288 85.8573 7.01067 85.2386 6.456C84.6413 5.88 84.3426 5.176 84.3426 4.344C84.3426 3.49067 84.6413 2.78667 85.2386 2.232C85.8573 1.656 86.6466 1.368 87.6066 1.368C88.5453 1.368 89.3133 1.656 89.9106 2.232C90.5293 2.78667 90.8386 3.49067 90.8386 4.344C90.8386 5.176 90.5293 5.88 89.9106 6.456C89.3133 7.01067 88.5453 7.288 87.6066 7.288ZM90.3266 9.144V27H84.8546V9.144H90.3266ZM105.492 8.952C107.583 8.952 109.247 9.63467 110.484 11C111.743 12.344 112.372 14.2 112.372 16.568V27H106.932V17.304C106.932 16.1093 106.623 15.1813 106.004 14.52C105.385 13.8587 104.553 13.528 103.508 13.528C102.463 13.528 101.631 13.8587 101.012 14.52C100.393 15.1813 100.084 16.1093 100.084 17.304V27H94.6121V9.144H100.084V11.512C100.639 10.7227 101.385 10.104 102.324 9.656C103.263 9.18667 104.319 8.952 105.492 8.952Z"/>
</mask>
<path d="M1.67337 8.728H0.673374V9.728H1.67337V8.728ZM1.67337 3.64V2.64H0.673374V3.64H1.67337ZM10.5374 3.64H11.5374V2.64H10.5374V3.64ZM10.5374 27V28H11.5374V27H10.5374ZM4.84138 27H3.84138V28H4.84138V27ZM4.84138 8.728H5.84138V7.728H4.84138V8.728ZM1.67337 8.728H2.67337V3.64H1.67337H0.673374V8.728H1.67337ZM1.67337 3.64V4.64H10.5374V3.64V2.64H1.67337V3.64ZM10.5374 3.64H9.53738V27H10.5374H11.5374V3.64H10.5374ZM10.5374 27V26H4.84138V27V28H10.5374V27ZM4.84138 27H5.84138V8.728H4.84138H3.84138V27H4.84138ZM4.84138 8.728V7.728H1.67337V8.728V9.728H4.84138V8.728ZM31.0486 8.408V9.408H32.0486V8.408H31.0486ZM21.0646 8.408V7.408H20.0646V8.408H21.0646ZM21.0646 12.824H20.0646V15.4106L21.8046 13.4967L21.0646 12.824ZM22.8566 11.672L22.4942 10.74V10.74L22.8566 11.672ZM29.3206 12.312L28.7505 13.1336L28.7583 13.1389L29.3206 12.312ZM31.6566 15.128L32.5767 14.7361L31.6566 15.128ZM30.2806 24.824L30.9982 25.5205L31.0033 25.5152L30.2806 24.824ZM19.8806 26.136L19.4518 27.0395L19.4645 27.0453L19.8806 26.136ZM16.9686 23.672L16.1314 24.2188L16.9686 23.672ZM15.8486 20.056V19.056H14.8007L14.8497 20.1028L15.8486 20.056ZM21.1926 20.056L22.1744 19.866L22.0176 19.056H21.1926V20.056ZM22.1206 21.72L21.4464 22.4585L21.4553 22.4667L21.4644 22.4746L22.1206 21.72ZM26.3446 16.44L27.0794 15.7617V15.7617L26.3446 16.44ZM22.3126 16.152L22.9008 16.9607L22.9126 16.9522L22.9241 16.9433L22.3126 16.152ZM21.3846 17.528V18.528H22.1584L22.3526 17.779L21.3846 17.528ZM16.1046 17.528H15.1046V18.528H16.1046V17.528ZM16.1046 3.608V2.608H15.1046V3.608H16.1046ZM31.0486 3.608H32.0486V2.608H31.0486V3.608ZM31.0486 8.408V7.408H21.0646V8.408V9.408H31.0486V8.408ZM21.0646 8.408H20.0646V12.824H21.0646H22.0646V8.408H21.0646ZM21.0646 12.824L21.8046 13.4967C22.1008 13.1708 22.5537 12.8628 23.2191 12.604L22.8566 11.672L22.4942 10.74C21.6236 11.0786 20.8818 11.5385 20.3247 12.1513L21.0646 12.824ZM22.8566 11.672L23.2191 12.604C23.8618 12.3541 24.5697 12.224 25.3526 12.224V11.224V10.224C24.3435 10.224 23.3875 10.3926 22.4942 10.74L22.8566 11.672ZM25.3526 11.224V12.224C26.8016 12.224 27.9112 12.5512 28.7505 13.1336L29.3206 12.312L29.8907 11.4904C28.6393 10.6221 27.1037 10.224 25.3526 10.224V11.224ZM29.3206 12.312L28.7583 13.1389C29.6716 13.7599 30.3234 14.5497 30.7366 15.5199L31.6566 15.128L32.5767 14.7361C32.0085 13.4023 31.103 12.3147 29.8829 11.4851L29.3206 12.312ZM31.6566 15.128L30.7366 15.5199C31.1707 16.5391 31.3926 17.6527 31.3926 18.872H32.3926H33.3926C33.3926 17.4033 33.1239 16.0209 32.5767 14.7361L31.6566 15.128ZM32.3926 18.872H31.3926C31.3926 21.1718 30.7497 22.8869 29.558 24.1328L30.2806 24.824L31.0033 25.5152C32.6276 23.8171 33.3926 21.5642 33.3926 18.872H32.3926ZM30.2806 24.824L29.563 24.1275C28.3905 25.3356 26.6943 26 24.3286 26V27V28C27.0829 28 29.3548 27.2137 30.9982 25.5205L30.2806 24.824ZM24.3286 27V26C22.7329 26 21.3981 25.7307 20.2967 25.2267L19.8806 26.136L19.4645 27.0453C20.8805 27.6933 22.511 28 24.3286 28V27ZM19.8806 26.136L20.3094 25.2326C19.1973 24.7048 18.3765 23.9989 17.8059 23.1252L16.9686 23.672L16.1314 24.2188C16.9261 25.4358 18.0466 26.3725 19.4519 27.0394L19.8806 26.136ZM16.9686 23.672L17.8059 23.1252C17.2298 22.2431 16.904 21.2138 16.8475 20.0092L15.8486 20.056L14.8497 20.1028C14.9213 21.6289 15.3421 23.0103 16.1314 24.2188L16.9686 23.672ZM15.8486 20.056V21.056H21.1926V20.056V19.056H15.8486V20.056ZM21.1926 20.056L20.2108 20.246C20.3791 21.1153 20.7945 21.8633 21.4464 22.4585L22.1206 21.72L22.7949 20.9815C22.4654 20.6807 22.2621 20.3193 22.1744 19.866L21.1926 20.056ZM22.1206 21.72L21.4644 22.4746C22.1876 23.1035 23.1188 23.36 24.1366 23.36V22.36V21.36C23.4478 21.36 23.035 21.1899 22.7768 20.9654L22.1206 21.72ZM24.1366 22.36V23.36C25.3666 23.36 26.4446 22.9549 27.1702 22.0084L26.3766 21.4L25.583 20.7916C25.3273 21.1251 24.912 21.36 24.1366 21.36V22.36ZM26.3766 21.4L27.1702 22.0084C27.8323 21.1449 28.1126 20.0558 28.1126 18.84H27.1126H26.1126C26.1126 19.7576 25.9023 20.3751 25.583 20.7916L26.3766 21.4ZM27.1126 18.84H28.1126C28.1126 17.6407 27.8182 16.562 27.0794 15.7617L26.3446 16.44L25.6098 17.1183C25.8951 17.4273 26.1126 17.9486 26.1126 18.84H27.1126ZM26.3446 16.44L27.0794 15.7617C26.3255 14.945 25.2767 14.608 24.1046 14.608V15.608V16.608C24.8953 16.608 25.3398 16.8257 25.6098 17.1183L26.3446 16.44ZM24.1046 15.608V14.608C23.2086 14.608 22.3818 14.8347 21.7012 15.3607L22.3126 16.152L22.9241 16.9433C23.1821 16.7439 23.55 16.608 24.1046 16.608V15.608ZM22.3126 16.152L21.7245 15.3433C21.0626 15.8246 20.6225 16.4829 20.4166 17.277L21.3846 17.528L22.3526 17.779C22.4454 17.4211 22.624 17.1621 22.9008 16.9607L22.3126 16.152ZM21.3846 17.528V16.528H16.1046V17.528V18.528H21.3846V17.528ZM16.1046 17.528H17.1046V3.608H16.1046H15.1046V17.528H16.1046ZM16.1046 3.608V4.608H31.0486V3.608V2.608H16.1046V3.608ZM31.0486 3.608H30.0486V8.408H31.0486H32.0486V3.608H31.0486ZM50.0371 13.496H51.0371V12.496H50.0371V13.496ZM50.0371 18.04V19.04H51.0371V18.04H50.0371ZM35.9571 18.04H34.9571V19.04H35.9571V18.04ZM35.9571 13.496V12.496H34.9571V13.496H35.9571ZM50.0371 13.496H49.0371V18.04H50.0371H51.0371V13.496H50.0371ZM50.0371 18.04V17.04H35.9571V18.04V19.04H50.0371V18.04ZM35.9571 18.04H36.9571V13.496H35.9571H34.9571V18.04H35.9571ZM35.9571 13.496V14.496H50.0371V13.496V12.496H35.9571V13.496ZM80.5996 4.536H81.5996V3.536H80.5996V4.536ZM80.5996 27V28H81.5996V27H80.5996ZM75.1276 27H74.1276V28H75.1276V27ZM75.1276 13.528H76.1276L74.1907 13.1786L75.1276 13.528ZM70.1036 27V28H70.798L71.0406 27.3494L70.1036 27ZM65.6876 27L64.7511 27.3506L64.9942 28H65.6876V27ZM60.6316 13.496L61.5681 13.1454L59.6316 13.496H60.6316ZM60.6316 27V28H61.6316V27H60.6316ZM55.1596 27H54.1596V28H55.1596V27ZM55.1596 4.536V3.536H54.1596V4.536H55.1596ZM61.6236 4.536L62.5504 4.16034L62.2973 3.536H61.6236V4.536ZM67.9276 20.088L67.0009 20.4637L67.9324 22.7616L68.8557 20.4604L67.9276 20.088ZM74.1676 4.536V3.536H73.4914L73.2395 4.16362L74.1676 4.536ZM80.5996 4.536H79.5996V27H80.5996H81.5996V4.536H80.5996ZM80.5996 27V26H75.1276V27V28H80.5996V27ZM75.1276 27H76.1276V13.528H75.1276H74.1276V27H75.1276ZM75.1276 13.528L74.1907 13.1786L69.1667 26.6506L70.1036 27L71.0406 27.3494L76.0646 13.8774L75.1276 13.528ZM70.1036 27V26H65.6876V27V28H70.1036V27ZM65.6876 27L66.6241 26.6494L61.5681 13.1454L60.6316 13.496L59.6951 13.8466L64.7511 27.3506L65.6876 27ZM60.6316 13.496H59.6316V27H60.6316H61.6316V13.496H60.6316ZM60.6316 27V26H55.1596V27V28H60.6316V27ZM55.1596 27H56.1596V4.536H55.1596H54.1596V27H55.1596ZM55.1596 4.536V5.536H61.6236V4.536V3.536H55.1596V4.536ZM61.6236 4.536L60.6969 4.91166L67.0009 20.4637L67.9276 20.088L68.8544 19.7123L62.5504 4.16034L61.6236 4.536ZM67.9276 20.088L68.8557 20.4604L75.0957 4.90838L74.1676 4.536L73.2395 4.16362L66.9995 19.7156L67.9276 20.088ZM74.1676 4.536V5.536H80.5996V4.536V3.536H74.1676V4.536ZM85.2386 6.456L84.5445 7.17584L84.5576 7.18845L84.5711 7.20057L85.2386 6.456ZM85.2386 2.232L85.9191 2.96479L85.92 2.96389L85.2386 2.232ZM89.9106 2.232L89.2165 2.95184L89.2296 2.96445L89.2431 2.97657L89.9106 2.232ZM89.9106 6.456L90.5911 7.18879L90.592 7.18789L89.9106 6.456ZM90.3266 9.144H91.3266V8.144H90.3266V9.144ZM90.3266 27V28H91.3266V27H90.3266ZM84.8546 27H83.8546V28H84.8546V27ZM84.8546 9.144V8.144H83.8546V9.144H84.8546ZM87.6066 7.288V6.288C86.8522 6.288 86.3131 6.07629 85.9062 5.71143L85.2386 6.456L84.5711 7.20057C85.4014 7.94504 86.441 8.288 87.6066 8.288V7.288ZM85.2386 6.456L85.9328 5.73616C85.5315 5.34919 85.3426 4.90529 85.3426 4.344H84.3426H83.3426C83.3426 5.44671 83.7511 6.41081 84.5445 7.17584L85.2386 6.456ZM84.3426 4.344H85.3426C85.3426 3.75405 85.536 3.32048 85.9191 2.96479L85.2386 2.232L84.5582 1.49921C83.7466 2.25285 83.3426 3.22728 83.3426 4.344H84.3426ZM85.2386 2.232L85.92 2.96389C86.3283 2.58383 86.8625 2.368 87.6066 2.368V1.368V0.367998C86.4307 0.367998 85.3863 0.72817 84.5572 1.5001L85.2386 2.232ZM87.6066 1.368V2.368C88.3232 2.368 88.8305 2.57959 89.2165 2.95184L89.9106 2.232L90.6048 1.51215C89.7961 0.732402 88.7674 0.367998 87.6066 0.367998V1.368ZM89.9106 2.232L89.2431 2.97657C89.6438 3.33579 89.8386 3.76608 89.8386 4.344H90.8386H91.8386C91.8386 3.21525 91.4148 2.23754 90.5782 1.48743L89.9106 2.232ZM90.8386 4.344H89.8386C89.8386 4.89339 89.6484 5.33384 89.2292 5.72411L89.9106 6.456L90.592 7.18789C91.4102 6.42616 91.8386 5.45861 91.8386 4.344H90.8386ZM89.9106 6.456L89.2302 5.72321C88.8458 6.08012 88.3339 6.288 87.6066 6.288V7.288V8.288C88.7567 8.288 89.7808 7.94121 90.5911 7.18879L89.9106 6.456ZM90.3266 9.144H89.3266V27H90.3266H91.3266V9.144H90.3266ZM90.3266 27V26H84.8546V27V28H90.3266V27ZM84.8546 27H85.8546V9.144H84.8546H83.8546V27H84.8546ZM84.8546 9.144V10.144H90.3266V9.144V8.144H84.8546V9.144ZM110.484 11L109.743 11.6715L109.749 11.6776L109.754 11.6836L110.484 11ZM112.372 27V28H113.372V27H112.372ZM106.932 27H105.932V28H106.932V27ZM106.004 14.52L105.274 15.2032H105.274L106.004 14.52ZM101.012 14.52L101.742 15.2032L101.012 14.52ZM100.084 27V28H101.084V27H100.084ZM94.6121 27H93.6121V28H94.6121V27ZM94.6121 9.144V8.144H93.6121V9.144H94.6121ZM100.084 9.144H101.084V8.144H100.084V9.144ZM100.084 11.512H99.0841V14.6744L100.902 12.0869L100.084 11.512ZM102.324 9.656L102.755 10.5585L102.763 10.5545L102.771 10.5504L102.324 9.656ZM105.492 8.952V9.952C107.343 9.952 108.722 10.5446 109.743 11.6715L110.484 11L111.225 10.3285C109.772 8.72472 107.823 7.952 105.492 7.952V8.952ZM110.484 11L109.754 11.6836C110.794 12.7938 111.372 14.3787 111.372 16.568H112.372H113.372C113.372 14.0213 112.692 11.8942 111.214 10.3164L110.484 11ZM112.372 16.568H111.372V27H112.372H113.372V16.568H112.372ZM112.372 27V26H106.932V27V28H112.372V27ZM106.932 27H107.932V17.304H106.932H105.932V27H106.932ZM106.932 17.304H107.932C107.932 15.9388 107.576 14.7363 106.734 13.8368L106.004 14.52L105.274 15.2032C105.67 15.6263 105.932 16.2799 105.932 17.304H106.932ZM106.004 14.52L106.734 13.8368C105.897 12.9416 104.783 12.528 103.508 12.528V13.528V14.528C104.323 14.528 104.874 14.7757 105.274 15.2032L106.004 14.52ZM103.508 13.528V12.528C102.233 12.528 101.119 12.9416 100.282 13.8368L101.012 14.52L101.742 15.2032C102.142 14.7757 102.693 14.528 103.508 14.528V13.528ZM101.012 14.52L100.282 13.8368C99.4404 14.7363 99.0841 15.9388 99.0841 17.304H100.084H101.084C101.084 16.2799 101.347 15.6263 101.742 15.2032L101.012 14.52ZM100.084 17.304H99.0841V27H100.084H101.084V17.304H100.084ZM100.084 27V26H94.6121V27V28H100.084V27ZM94.6121 27H95.6121V9.144H94.6121H93.6121V27H94.6121ZM94.6121 9.144V10.144H100.084V9.144V8.144H94.6121V9.144ZM100.084 9.144H99.0841V11.512H100.084H101.084V9.144H100.084ZM100.084 11.512L100.902 12.0869C101.35 11.4492 101.959 10.9384 102.755 10.5585L102.324 9.656L101.893 8.75352C100.812 9.26961 99.9271 9.99614 99.2659 10.9371L100.084 11.512ZM102.324 9.656L102.771 10.5504C103.555 10.1584 104.456 9.952 105.492 9.952V8.952V7.952C104.182 7.952 102.97 8.21498 101.877 8.76157L102.324 9.656Z" fill="#DADBDD" mask="url(#path-1-outside-1_530_2294)"/>
</svg>
