<svg width="132" height="196" viewBox="0 0 132 196" fill="none" xmlns="http://www.w3.org/2000/svg">
<g opacity="0.1">
<mask id="path-1-outside-1_692_2556" maskUnits="userSpaceOnUse" x="0" y="0" width="145" height="210" fill="black">
<rect fill="white" width="145" height="210"/>
<path d="M2.92 172.64C9.26667 167.6 12.16 165.267 11.6 165.64C29.8933 150.52 44.2667 138.107 54.72 128.4C65.36 118.693 74.32 108.52 81.6 97.88C88.88 87.24 92.52 76.88 92.52 66.8C92.52 59.1467 90.7467 53.1733 87.2 48.88C83.6533 44.5867 78.3333 42.44 71.24 42.44C64.1467 42.44 58.5467 45.1467 54.44 50.56C50.52 55.7867 48.56 63.2533 48.56 72.96H2.36C2.73333 57.0933 6.09333 43.84 12.44 33.2C18.9733 22.56 27.4667 14.72 37.92 9.67999C48.56 4.63999 60.32 2.11999 73.2 2.11999C95.4133 2.11999 112.12 7.81332 123.32 19.2C134.707 30.5867 140.4 45.4267 140.4 63.72C140.4 83.6933 133.587 102.267 119.96 119.44C106.333 136.427 88.9733 153.04 67.88 169.28H143.48V208.2H2.92V172.64Z"/>
</mask>
<path d="M2.92 172.64L1.98718 171.465L1.42 171.916V172.64H2.92ZM11.6 165.64L10.6444 164.484L12.4321 166.888L11.6 165.64ZM54.72 128.4L53.709 127.292L53.6993 127.301L54.72 128.4ZM87.2 48.88L86.0436 49.8353L87.2 48.88ZM54.44 50.56L53.2449 49.6534L53.24 49.66L54.44 50.56ZM48.56 72.96V74.46H50.06V72.96H48.56ZM2.36 72.96L0.860415 72.9247L0.824291 74.46H2.36V72.96ZM12.44 33.2L11.1617 32.4151L11.1567 32.4233L11.1518 32.4316L12.44 33.2ZM37.92 9.67999L37.2779 8.32435L37.2686 8.32884L37.92 9.67999ZM123.32 19.2L122.251 20.2519L122.259 20.2606L123.32 19.2ZM119.96 119.44L121.13 120.379L121.135 120.372L119.96 119.44ZM67.88 169.28L66.9649 168.091L63.4729 170.78H67.88V169.28ZM143.48 169.28H144.98V167.78H143.48V169.28ZM143.48 208.2V209.7H144.98V208.2H143.48ZM2.92 208.2H1.42V209.7H2.92V208.2ZM2.92 172.64L3.85282 173.815C7.02651 171.294 9.34027 169.448 10.7916 168.278C11.5149 167.694 12.0329 167.272 12.3373 167.016C12.4686 166.906 12.6154 166.781 12.7088 166.688C12.7088 166.687 12.8232 166.579 12.9229 166.426C12.9518 166.381 13.0207 166.272 13.0769 166.118C13.1108 166.025 13.2764 165.569 13.055 165.031C12.7634 164.323 12.1188 164.139 11.8132 164.109C11.5413 164.082 11.3316 164.138 11.2698 164.155C11.1158 164.197 11.0023 164.255 10.9786 164.267C10.9341 164.29 10.8983 164.31 10.8771 164.323C10.8337 164.349 10.7948 164.374 10.768 164.392L11.6 165.64L12.4321 166.888C12.4402 166.883 12.4296 166.89 12.4077 166.903C12.3972 166.909 12.3705 166.925 12.3334 166.944C12.317 166.952 12.2093 167.008 12.0592 167.049C11.9995 167.065 11.7913 167.121 11.5206 167.094C11.2162 167.064 10.5724 166.881 10.281 166.173C10.0599 165.636 10.2255 165.181 10.2588 165.089C10.3145 164.937 10.3825 164.829 10.41 164.787C10.4708 164.694 10.5279 164.63 10.5412 164.615C10.5633 164.591 10.5805 164.573 10.5875 164.566C10.605 164.549 10.5681 164.584 10.4077 164.719C10.1288 164.953 9.6318 165.359 8.90837 165.942C7.4664 167.105 5.16016 168.946 1.98718 171.465L2.92 172.64ZM11.6 165.64L12.5556 166.796C30.8587 151.668 45.257 139.234 55.7407 129.499L54.72 128.4L53.6993 127.301C43.2763 136.979 28.9279 149.372 10.6444 164.484L11.6 165.64ZM54.72 128.4L55.7309 129.508C66.4466 119.732 75.4855 109.473 82.838 98.727L81.6 97.88L80.362 97.033C73.1545 107.567 64.2734 117.654 53.7091 127.292L54.72 128.4ZM81.6 97.88L82.838 98.727C90.2412 87.9069 94.02 77.2567 94.02 66.8H92.52H91.02C91.02 76.5033 87.5188 86.5731 80.362 97.033L81.6 97.88ZM92.52 66.8H94.02C94.02 58.9277 92.1958 52.5723 88.3564 47.9247L87.2 48.88L86.0436 49.8353C89.2976 53.7744 91.02 59.3656 91.02 66.8H92.52ZM87.2 48.88L88.3564 47.9247C84.4499 43.1957 78.6481 40.94 71.24 40.94V42.44V43.94C78.0186 43.94 82.8568 45.9776 86.0436 49.8353L87.2 48.88ZM71.24 42.44V40.94C63.7015 40.94 57.6495 43.8475 53.245 49.6534L54.44 50.56L55.635 51.4666C59.4439 46.4459 64.5918 43.94 71.24 43.94V42.44ZM54.44 50.56L53.24 49.66C49.0511 55.2452 47.06 63.0792 47.06 72.96H48.56H50.06C50.06 63.4275 51.9889 56.3281 55.64 51.46L54.44 50.56ZM48.56 72.96V71.46H2.36V72.96V74.46H48.56V72.96ZM2.36 72.96L3.85958 72.9953C4.22851 57.316 7.54622 44.3324 13.7282 33.9684L12.44 33.2L11.1518 32.4316C4.64044 43.3476 1.23816 56.8706 0.860415 72.9247L2.36 72.96ZM12.44 33.2L13.7183 33.9849C20.1131 23.5704 28.3968 15.9368 38.5714 11.0311L37.92 9.67999L37.2686 8.32884C26.5366 13.5032 17.8335 21.5496 11.1617 32.4151L12.44 33.2ZM37.92 9.67999L38.5621 11.0356C48.9831 6.09933 60.5209 3.61999 73.2 3.61999V2.11999V0.619986C60.1191 0.619986 48.1369 3.18065 37.2779 8.32438L37.92 9.67999ZM73.2 2.11999V3.61999C95.1715 3.61999 111.428 9.24889 122.251 20.2518L123.32 19.2L124.389 18.1481C112.812 6.37775 95.6552 0.619986 73.2 0.619986V2.11999ZM123.32 19.2L122.259 20.2606C133.326 31.3269 138.9 45.7656 138.9 63.72H140.4H141.9C141.9 45.0877 136.088 29.8464 124.381 18.1393L123.32 19.2ZM140.4 63.72H138.9C138.9 83.3212 132.223 101.572 118.785 118.508L119.96 119.44L121.135 120.372C134.95 102.961 141.9 84.0654 141.9 63.72H140.4ZM119.96 119.44L118.79 118.501C105.252 135.377 87.9837 151.909 66.9649 168.091L67.88 169.28L68.7951 170.469C89.9629 154.171 107.414 137.476 121.13 120.379L119.96 119.44ZM67.88 169.28V170.78H143.48V169.28V167.78H67.88V169.28ZM143.48 169.28H141.98V208.2H143.48H144.98V169.28H143.48ZM143.48 208.2V206.7H2.92V208.2V209.7H143.48V208.2ZM2.92 208.2H4.42V172.64H2.92H1.42V208.2H2.92Z" fill="#8F9299" mask="url(#path-1-outside-1_692_2556)"/>
</g>
</svg>
