<svg width="116" height="126" viewBox="0 0 116 126" fill="none" xmlns="http://www.w3.org/2000/svg">
<path d="M67.8142 126.001H47.9612C43.2436 126.001 39.5089 122.266 39.5089 117.549V109.489C39.5089 103.396 36.757 97.8921 31.8429 94.3539C19.4594 84.9188 12.9727 70.1765 14.7418 54.6479C17.1006 34.7949 33.0223 18.6766 52.8753 16.3179C65.4554 14.9419 77.2493 18.6766 86.6844 27.1289C95.9229 35.3846 101.23 47.1785 101.23 59.562C101.23 72.9284 94.9401 85.7051 84.129 94.3539C79.2149 98.0886 76.463 103.789 76.463 109.489V117.549C76.2664 122.266 72.5317 126.001 67.8142 126.001ZM57.7894 20.0526C56.2169 20.0526 54.8409 20.0526 53.2684 20.2492C35.1845 22.2148 20.6387 36.9571 18.6731 55.041C17.1006 69.1937 22.801 82.5601 34.2017 91.2089C40.0986 95.5333 43.4402 102.216 43.4402 109.489V117.549C43.4402 119.907 45.6024 122.069 47.9612 122.069H67.8142C70.173 122.069 72.3352 119.907 72.3352 117.549V109.489C72.3352 102.413 75.8733 95.7299 81.5737 91.2089C91.4019 83.3463 97.1023 71.749 97.1023 59.562C97.1023 48.1613 92.3847 37.5468 83.9325 30.0774C76.6596 23.3942 67.4211 20.0526 57.7894 20.0526Z" fill="white"/>
<path d="M74.3047 107.326H40.8888C39.7094 107.326 38.9232 106.54 38.9232 105.36C38.9232 104.181 39.7094 103.395 40.8888 103.395H74.3047C75.4841 103.395 76.2704 104.181 76.2704 105.36C76.2704 106.54 75.4841 107.326 74.3047 107.326Z" fill="white"/>
<path d="M79.2149 80.5913H35.9708C33.0223 80.5913 30.6635 78.2325 30.6635 75.2841V45.7994C30.6635 42.851 33.0223 40.4922 35.9708 40.4922H79.0183C81.9668 40.4922 84.3256 42.851 84.3256 45.7994V75.2841C84.5221 76.66 83.9324 78.036 83.1462 79.0188C82.1634 80.0016 80.7874 80.5913 79.2149 80.5913ZM35.9708 44.4235C35.3811 44.4235 34.5948 44.8166 34.5948 45.7994V75.2841C34.5948 75.8738 34.9879 76.66 35.9708 76.66H79.2149C79.608 76.66 80.0012 76.4635 80.1977 76.2669C80.3943 76.0703 80.3943 75.8738 80.3943 75.4806V75.2841V45.7994C80.3943 45.2097 80.0012 44.4235 79.0183 44.4235H35.9708Z" fill="white"/>
<path d="M56.6076 60.5414C56.411 60.5414 56.411 60.5414 56.2145 60.5414L32.2336 55.2342C31.2508 55.0376 30.4646 53.8582 30.6611 52.8754C30.8577 51.8926 32.0371 51.1063 33.0199 51.3029L56.6076 56.6101L82.161 51.3029C83.1438 51.1063 84.3232 51.696 84.5198 52.8754C84.7163 53.8582 84.1266 55.0376 82.9472 55.2342L57.0007 60.5414C56.8042 60.5414 56.8042 60.5414 56.6076 60.5414Z" fill="white"/>
<path d="M68.4016 44.4229C67.2222 44.4229 66.436 43.6367 66.436 42.4573V38.526C66.436 37.5432 65.6497 37.15 65.06 37.15H50.1211C49.1383 37.15 48.7452 37.9363 48.7452 38.526V42.2607C48.7452 43.4401 47.9589 44.2264 46.7795 44.2264C45.6002 44.2264 44.8139 43.4401 44.8139 42.2607V38.526C44.8139 35.5775 47.1727 33.2188 50.1211 33.2188H65.06C68.0085 33.2188 70.3673 35.5775 70.3673 38.526V42.4573C70.3673 43.6367 69.581 44.4229 68.4016 44.4229Z" fill="white"/>
<path d="M67.0305 68.4053H48.1603C46.9809 68.4053 46.1946 67.619 46.1946 66.4396V56.6114C46.1946 55.432 46.9809 54.6458 48.1603 54.6458C49.3397 54.6458 50.1259 55.432 50.1259 56.6114V64.474H65.0648V56.4149C65.0648 55.2355 65.8511 54.4492 67.0305 54.4492C68.2098 54.4492 68.9961 55.2355 68.9961 56.4149V66.4396C68.9961 67.619 68.2098 68.4053 67.0305 68.4053Z" fill="white"/>
<path d="M49.5294 107.324C48.35 107.324 47.5638 106.538 47.5638 105.359V78.6258C47.5638 77.4464 48.35 76.6602 49.5294 76.6602C50.7088 76.6602 51.4951 77.4464 51.4951 78.6258V105.359C51.4951 106.538 50.7088 107.324 49.5294 107.324Z" fill="white"/>
<path d="M57.781 107.324C56.6016 107.324 55.8154 106.538 55.8154 105.359V78.6258C55.8154 77.4464 56.6016 76.6602 57.781 76.6602C58.9604 76.6602 59.7467 77.4464 59.7467 78.6258V105.359C59.7467 106.538 58.9604 107.324 57.781 107.324Z" fill="white"/>
<path d="M65.6486 107.324C64.4692 107.324 63.6829 106.538 63.6829 105.359V78.6258C63.6829 77.4464 64.4692 76.6602 65.6486 76.6602C66.828 76.6602 67.6142 77.4464 67.6142 78.6258V105.359C67.6142 106.538 66.828 107.324 65.6486 107.324Z" fill="white"/>
<path d="M57.3963 10.811C56.4135 10.811 55.4307 10.0248 55.4307 9.04196C55.2341 6.68319 55.2341 4.32442 55.2341 1.96564C55.2341 0.786257 56.0204 0 57.1998 0C58.3792 0 59.1654 0.786257 59.1654 1.96564C59.1654 4.32442 59.1654 6.48662 59.362 8.64883C59.362 9.82822 58.5757 10.811 57.3963 10.811Z" fill="white"/>
<path d="M73.33 12.9746C73.1334 12.9746 72.9368 12.9746 72.7403 12.7781C71.7575 12.385 71.1678 11.2056 71.5609 10.2227C71.954 9.23992 72.3471 8.06053 72.5437 7.07771C72.9368 5.89833 73.33 4.91551 73.7231 3.73612C74.1162 2.7533 75.2956 2.16361 76.2784 2.55673C77.2613 2.94986 77.8509 4.12925 77.4578 5.11207C77.0647 6.09489 76.6716 7.27428 76.475 8.2571C76.0819 9.43648 75.6887 10.4193 75.2956 11.5987C74.9025 12.385 74.1162 12.9746 73.33 12.9746Z" fill="white"/>
<path d="M88.0674 20.2481C87.6742 20.2481 87.2811 20.0516 86.888 19.855C86.1017 19.2653 85.9052 17.8893 86.4949 17.1031C87.0845 16.3168 87.8708 15.334 88.4605 14.3512C89.2468 13.3684 89.8364 12.3855 90.6227 11.5993C91.2124 10.813 92.5883 10.6165 93.3746 11.2062C94.1609 11.7958 94.3574 13.1718 93.7677 13.9581C93.178 14.7443 92.3918 15.7271 91.8021 16.71C91.0158 17.6928 90.4261 18.6756 89.6399 19.4619C89.2468 20.0515 88.6571 20.2481 88.0674 20.2481Z" fill="white"/>
<path d="M99.8566 32.4334C99.2669 32.4334 98.6772 32.2368 98.284 31.6472C97.6943 30.6643 97.8909 29.4849 98.6772 28.8953C99.66 28.109 100.643 27.5193 101.626 26.9296C102.608 26.3399 103.395 25.7502 104.378 24.964C105.36 24.3743 106.54 24.5708 107.129 25.3571C107.719 26.3399 107.523 27.5193 106.736 28.109C105.753 28.8953 104.771 29.4849 103.788 30.0746C102.805 30.6643 102.019 31.254 101.036 32.0403C100.643 32.2368 100.25 32.4334 99.8566 32.4334Z" fill="white"/>
<path d="M106.938 49.5324C106.151 49.5324 105.365 48.9427 104.972 48.1564C104.775 47.1736 105.365 45.9942 106.348 45.7977C107.527 45.4045 108.707 45.208 109.886 45.0114C111.065 44.8149 112.048 44.6183 113.031 44.2252C114.014 44.0286 115.193 44.6183 115.39 45.6011C115.586 46.5839 114.997 47.7633 114.014 47.9599C112.835 48.353 111.655 48.5496 110.476 48.7461C109.296 48.9427 108.314 49.1393 107.331 49.5324C107.331 49.5324 107.134 49.5324 106.938 49.5324Z" fill="white"/>
<path d="M9.25073 49.5324C9.05417 49.5324 9.05417 49.5324 8.8576 49.5324C6.69539 49.1393 4.33662 48.5496 2.17442 47.9599C1.19159 47.7633 0.601901 46.5839 0.798465 45.6011C0.99503 44.6183 2.17442 44.0286 3.15724 44.2252C5.31944 44.8149 7.48165 45.4045 9.44729 45.7977C10.4301 45.9942 11.2164 46.9771 11.0198 48.1564C11.0198 48.9427 10.2336 49.5324 9.25073 49.5324Z" fill="white"/>
<path d="M16.5174 32.4312C16.1242 32.4312 15.7311 32.2346 15.338 32.038C14.3552 31.4483 13.3723 30.6621 12.5861 30.0724C11.6033 29.4827 10.6204 28.6964 9.63762 28.1067C8.6548 27.5171 8.45824 26.3377 9.24449 25.3548C9.83419 24.372 11.0136 24.1755 11.9964 24.9617C12.9792 25.5514 13.962 26.3377 14.7483 26.9274C15.7311 27.5171 16.7139 28.3033 17.6968 28.893C18.6796 29.4827 18.8761 30.6621 18.0899 31.6449C17.6968 32.2346 17.1071 32.4312 16.5174 32.4312Z" fill="white"/>
<path d="M28.3099 20.2452C27.7202 20.2452 27.1305 20.0486 26.7374 19.4589C25.9511 18.4761 25.3614 17.6898 24.5752 16.707C23.9855 15.7242 23.1992 14.9379 22.6095 13.9551C22.0198 13.1689 22.0198 11.7929 23.0027 11.2032C23.7889 10.6135 25.1649 10.6135 25.7546 11.5964C26.5408 12.5792 27.1305 13.3654 27.9168 14.3483C28.5065 15.3311 29.2927 16.1173 29.8824 17.1002C30.4721 17.8864 30.4721 19.2624 29.4893 19.8521C29.0962 20.0486 28.703 20.2452 28.3099 20.2452Z" fill="white"/>
<path d="M43.0507 12.974C42.2644 12.974 41.4782 12.3843 41.2816 11.598C40.8885 10.4187 40.4954 9.43583 40.1022 8.25644C39.7091 7.27362 39.5125 6.09424 39.1194 5.11142C38.7263 4.12859 39.316 2.94921 40.2988 2.55608C41.2816 2.35952 42.461 2.75264 42.6576 3.93203C43.0507 5.11142 43.4438 6.09424 43.837 7.27362C44.2301 8.25644 44.4267 9.43583 44.8198 10.4187C45.2129 11.4015 44.6232 12.5809 43.6404 12.974C43.4438 12.974 43.2473 12.974 43.0507 12.974Z" fill="white"/>
<path d="M82.5599 116.166H74.1077C72.9283 116.166 72.142 115.379 72.142 114.2C72.142 113.021 72.9283 112.234 74.1077 112.234H82.5599C83.7393 112.234 84.5256 113.021 84.5256 114.2C84.5256 115.379 83.7393 116.166 82.5599 116.166Z" fill="white"/>
<path d="M41.278 116.166H32.6292C31.4498 116.166 30.6635 115.379 30.6635 114.2C30.6635 113.021 31.4498 112.234 32.6292 112.234H41.278C42.4574 112.234 43.2436 113.021 43.2436 114.2C43.2436 115.379 42.4574 116.166 41.278 116.166Z" fill="white"/>
</svg>
