<svg width="124" height="206" viewBox="0 0 124 206" fill="none" xmlns="http://www.w3.org/2000/svg">
<g opacity="0.1">
<mask id="path-1-outside-1_692_2557" maskUnits="userSpaceOnUse" x="0" y="0" width="146" height="215" fill="black">
<rect fill="white" width="146" height="215"/>
<path d="M4.28 64.28C5.02667 44.3067 11.56 28.9067 23.88 18.08C36.2 7.25333 52.9067 1.83999 74 1.83999C88 1.83999 99.9467 4.26666 109.84 9.12C119.92 13.9733 127.48 20.6 132.52 29C137.747 37.4 140.36 46.8267 140.36 57.28C140.36 69.6 137.28 79.68 131.12 87.52C124.96 95.1733 117.773 100.4 109.56 103.2V104.32C120.2 107.867 128.6 113.747 134.76 121.96C140.92 130.173 144 140.72 144 153.6C144 165.173 141.293 175.44 135.88 184.4C130.653 193.173 122.907 200.08 112.64 205.12C102.56 210.16 90.52 212.68 76.52 212.68C54.12 212.68 36.2 207.173 22.76 196.16C9.50667 185.147 2.50667 168.533 1.76 146.32H48.24C48.4267 154.533 50.76 161.067 55.24 165.92C59.72 170.587 66.2533 172.92 74.84 172.92C82.12 172.92 87.72 170.867 91.64 166.76C95.7467 162.467 97.8 156.867 97.8 149.96C97.8 141 94.9067 134.56 89.12 130.64C83.52 126.533 74.4667 124.48 61.96 124.48H53V85.56H61.96C71.48 85.56 79.1333 83.9733 84.92 80.8C90.8933 77.44 93.88 71.56 93.88 63.16C93.88 56.44 92.0133 51.2133 88.28 47.48C84.5467 43.7467 79.4133 41.88 72.88 41.88C65.7867 41.88 60.4667 44.0267 56.92 48.32C53.56 52.6133 51.6 57.9333 51.04 64.28H4.28Z"/>
</mask>
<path d="M4.28 64.28L2.78105 64.2239L2.72288 65.78H4.28V64.28ZM23.88 18.08L24.8702 19.2067V19.2067L23.88 18.08ZM109.84 9.12L109.179 10.4667L109.189 10.4715L109.84 9.12ZM132.52 29L131.234 29.7717L131.24 29.7821L131.246 29.7924L132.52 29ZM131.12 87.52L132.289 88.4605L132.294 88.4537L132.299 88.4467L131.12 87.52ZM109.56 103.2L109.076 101.78L108.06 102.127V103.2H109.56ZM109.56 104.32H108.06V105.401L109.086 105.743L109.56 104.32ZM134.76 121.96L135.96 121.06L134.76 121.96ZM135.88 184.4L134.596 183.624L134.591 183.632L135.88 184.4ZM112.64 205.12L111.979 203.773L111.969 203.778L112.64 205.12ZM22.76 196.16L21.8013 197.314L21.8093 197.32L22.76 196.16ZM1.76 146.32V144.82H0.208734L0.260847 146.37L1.76 146.32ZM48.24 146.32L49.7396 146.286L49.7063 144.82H48.24V146.32ZM55.24 165.92L54.1378 166.937L54.1478 166.948L54.1579 166.959L55.24 165.92ZM91.64 166.76L90.556 165.723L90.555 165.724L91.64 166.76ZM89.12 130.64L88.233 131.85L88.2555 131.866L88.2787 131.882L89.12 130.64ZM53 124.48H51.5V125.98H53V124.48ZM53 85.56V84.06H51.5V85.56H53ZM84.92 80.8L85.6413 82.1152L85.6483 82.1113L85.6554 82.1074L84.92 80.8ZM88.28 47.48L89.3407 46.4193H89.3407L88.28 47.48ZM56.92 48.32L55.7636 47.3647L55.7509 47.3799L55.7387 47.3955L56.92 48.32ZM51.04 64.28V65.78H52.4135L52.5342 64.4118L51.04 64.28ZM4.28 64.28L5.77895 64.336C6.51385 44.6776 12.9254 29.7036 24.8702 19.2067L23.88 18.08L22.8898 16.9532C10.1946 28.1097 3.53949 43.9357 2.78105 64.2239L4.28 64.28ZM23.88 18.08L24.8702 19.2067C36.8455 8.68297 53.1641 3.33999 74 3.33999V1.83999V0.339989C52.6492 0.339989 35.5545 5.82368 22.8898 16.9532L23.88 18.08ZM74 1.83999V3.33999C87.8311 3.33999 99.5396 5.73771 109.179 10.4667L109.84 9.12L110.501 7.77331C100.354 2.7956 88.1689 0.339989 74 0.339989V1.83999ZM109.84 9.12L109.189 10.4715C119.044 15.2163 126.365 21.6572 131.234 29.7717L132.52 29L133.806 28.2282C128.595 19.5427 120.796 12.7303 110.491 7.76849L109.84 9.12ZM132.52 29L131.246 29.7924C136.317 37.9409 138.86 47.0902 138.86 57.28H140.36H141.86C141.86 46.5631 139.177 36.8591 133.794 28.2075L132.52 29ZM140.36 57.28H138.86C138.86 69.3451 135.848 79.075 129.941 86.5933L131.12 87.52L132.299 88.4467C138.712 80.285 141.86 69.8549 141.86 57.28H140.36ZM131.12 87.52L129.951 86.5795C123.945 94.0415 116.986 99.0836 109.076 101.78L109.56 103.2L110.044 104.62C118.561 101.716 125.975 96.3051 132.289 88.4605L131.12 87.52ZM109.56 103.2H108.06V104.32H109.56H111.06V103.2H109.56ZM109.56 104.32L109.086 105.743C119.464 109.203 127.6 114.913 133.56 122.86L134.76 121.96L135.96 121.06C129.6 112.58 120.936 106.531 110.034 102.897L109.56 104.32ZM134.76 121.96L133.56 122.86C139.48 130.754 142.5 140.961 142.5 153.6H144H145.5C145.5 140.479 142.36 129.593 135.96 121.06L134.76 121.96ZM144 153.6H142.5C142.5 164.93 139.853 174.923 134.596 183.624L135.88 184.4L137.164 185.176C142.733 175.957 145.5 165.417 145.5 153.6H144ZM135.88 184.4L134.591 183.632C129.531 192.127 122.017 198.846 111.979 203.773L112.64 205.12L113.301 206.467C123.796 201.314 131.776 194.22 137.169 185.168L135.88 184.4ZM112.64 205.12L111.969 203.778C102.142 208.692 90.3424 211.18 76.52 211.18V212.68V214.18C90.6976 214.18 102.978 211.628 113.311 206.462L112.64 205.12ZM76.52 212.68V211.18C54.3648 211.18 36.8132 205.737 23.7107 195L22.76 196.16L21.8093 197.32C35.5868 208.61 53.8752 214.18 76.52 214.18V212.68ZM22.76 196.16L23.7187 195.006C10.8843 184.341 3.99587 168.187 3.25915 146.27L1.76 146.32L0.260847 146.37C1.01746 168.88 8.129 185.952 21.8013 197.314L22.76 196.16ZM1.76 146.32V147.82H48.24V146.32V144.82H1.76V146.32ZM48.24 146.32L46.7404 146.354C46.9333 154.84 49.3537 161.755 54.1378 166.937L55.24 165.92L56.3422 164.903C52.1663 160.379 49.9201 154.226 49.7396 146.286L48.24 146.32ZM55.24 165.92L54.1579 166.959C59.0045 172.007 65.9841 174.42 74.84 174.42V172.92V171.42C66.5225 171.42 60.4355 169.166 56.3221 164.881L55.24 165.92ZM74.84 172.92V174.42C82.4078 174.42 88.4475 172.277 92.725 167.796L91.64 166.76L90.555 165.724C86.9925 169.456 81.8322 171.42 74.84 171.42V172.92ZM91.64 166.76L92.724 167.797C97.1409 163.179 99.3 157.186 99.3 149.96H97.8H96.3C96.3 156.548 94.3525 161.754 90.556 165.723L91.64 166.76ZM97.8 149.96H99.3C99.3 140.66 96.2749 133.675 89.9613 129.398L89.12 130.64L88.2787 131.882C93.5384 135.445 96.3 141.34 96.3 149.96H97.8ZM89.12 130.64L90.007 129.43C84.0142 125.036 74.5616 122.98 61.96 122.98V124.48V125.98C74.3718 125.98 83.0258 128.031 88.233 131.85L89.12 130.64ZM61.96 124.48V122.98H53V124.48V125.98H61.96V124.48ZM53 124.48H54.5V85.56H53H51.5V124.48H53ZM53 85.56V87.06H61.96V85.56V84.06H53V85.56ZM61.96 85.56V87.06C71.6277 87.06 79.5572 85.4516 85.6413 82.1152L84.92 80.8L84.1988 79.4848C78.7095 82.495 71.3323 84.06 61.96 84.06V85.56ZM84.92 80.8L85.6554 82.1074C92.2145 78.4178 95.38 71.9578 95.38 63.16H93.88H92.38C92.38 71.1622 89.5722 76.4621 84.1846 79.4926L84.92 80.8ZM93.88 63.16H95.38C95.38 56.1561 93.4268 50.5054 89.3407 46.4193L88.28 47.48L87.2193 48.5406C90.5999 51.9212 92.38 56.7239 92.38 63.16H93.88ZM88.28 47.48L89.3407 46.4193C85.2624 42.341 79.7111 40.38 72.88 40.38V41.88V43.38C79.1156 43.38 83.831 45.1523 87.2193 48.5406L88.28 47.48ZM72.88 41.88V40.38C65.4719 40.38 59.6701 42.6357 55.7636 47.3647L56.92 48.32L58.0764 49.2753C61.2632 45.4176 66.1014 43.38 72.88 43.38V41.88ZM56.92 48.32L55.7387 47.3955C52.1715 51.9536 50.1269 57.5623 49.5458 64.1481L51.04 64.28L52.5342 64.4118C53.0731 58.3043 54.9485 53.273 58.1013 49.2445L56.92 48.32ZM51.04 64.28V62.78H4.28V64.28V65.78H51.04V64.28Z" fill="#8F9299" mask="url(#path-1-outside-1_692_2557)"/>
</g>
</svg>
