<svg width="135" height="27" viewBox="0 0 135 27" fill="none" xmlns="http://www.w3.org/2000/svg">
<mask id="path-1-outside-1_530_2297" maskUnits="userSpaceOnUse" x="0" y="0" width="135" height="27" fill="black">
<rect fill="white" width="135" height="27"/>
<path d="M1.8945 8.232C1.97983 5.94933 2.7265 4.18933 4.1345 2.952C5.5425 1.71467 7.45183 1.096 9.8625 1.096C11.4625 1.096 12.8278 1.37333 13.9585 1.928C15.1105 2.48267 15.9745 3.24 16.5505 4.2C17.1478 5.16 17.4465 6.23733 17.4465 7.432C17.4465 8.84 17.0945 9.992 16.3905 10.888C15.6865 11.7627 14.8652 12.36 13.9265 12.68V12.808C15.1425 13.2133 16.1025 13.8853 16.8065 14.824C17.5105 15.7627 17.8625 16.968 17.8625 18.44C17.8625 19.7627 17.5532 20.936 16.9345 21.96C16.3372 22.9627 15.4518 23.752 14.2785 24.328C13.1265 24.904 11.7505 25.192 10.1505 25.192C7.5905 25.192 5.5425 24.5627 4.0065 23.304C2.49183 22.0453 1.69183 20.1467 1.6065 17.608H6.9185C6.93983 18.5467 7.2065 19.2933 7.7185 19.848C8.2305 20.3813 8.97716 20.648 9.9585 20.648C10.7905 20.648 11.4305 20.4133 11.8785 19.944C12.3478 19.4533 12.5825 18.8133 12.5825 18.024C12.5825 17 12.2518 16.264 11.5905 15.816C10.9505 15.3467 9.91583 15.112 8.4865 15.112H7.4625V10.664H8.4865C9.5745 10.664 10.4492 10.4827 11.1105 10.12C11.7932 9.736 12.1345 9.064 12.1345 8.104C12.1345 7.336 11.9212 6.73867 11.4945 6.312C11.0678 5.88533 10.4812 5.672 9.7345 5.672C8.92383 5.672 8.31583 5.91733 7.9105 6.408C7.5265 6.89867 7.3025 7.50667 7.2385 8.232H1.8945ZM21.3975 13C21.3975 9.33067 22.1015 6.44 23.5095 4.328C24.9388 2.216 27.2322 1.16 30.3895 1.16C33.5468 1.16 35.8295 2.216 37.2375 4.328C38.6668 6.44 39.3815 9.33067 39.3815 13C39.3815 16.712 38.6668 19.624 37.2375 21.736C35.8295 23.848 33.5468 24.904 30.3895 24.904C27.2322 24.904 24.9388 23.848 23.5095 21.736C22.1015 19.624 21.3975 16.712 21.3975 13ZM34.0055 13C34.0055 10.8453 33.7708 9.192 33.3015 8.04C32.8322 6.86667 31.8615 6.28 30.3895 6.28C28.9175 6.28 27.9468 6.86667 27.4775 8.04C27.0082 9.192 26.7735 10.8453 26.7735 13C26.7735 14.4507 26.8588 15.656 27.0295 16.616C27.2002 17.5547 27.5415 18.3227 28.0535 18.92C28.5868 19.496 29.3655 19.784 30.3895 19.784C31.4135 19.784 32.1815 19.496 32.6935 18.92C33.2268 18.3227 33.5788 17.5547 33.7495 16.616C33.9202 15.656 34.0055 14.4507 34.0055 13ZM61.1525 11.496V16.04H43.3925V11.496H61.1525ZM65.2905 20.84V16.424L75.4025 1.96H81.5145V16.104H84.1385V20.84H81.5145V25H76.0425V20.84H65.2905ZM76.4265 7.976L71.0505 16.104H76.4265V7.976ZM87.1387 13C87.1387 9.33067 87.8427 6.44 89.2507 4.328C90.6801 2.216 92.9734 1.16 96.1307 1.16C99.2881 1.16 101.571 2.216 102.979 4.328C104.408 6.44 105.123 9.33067 105.123 13C105.123 16.712 104.408 19.624 102.979 21.736C101.571 23.848 99.2881 24.904 96.1307 24.904C92.9734 24.904 90.6801 23.848 89.2507 21.736C87.8427 19.624 87.1387 16.712 87.1387 13ZM99.7467 13C99.7467 10.8453 99.5121 9.192 99.0427 8.04C98.5734 6.86667 97.6027 6.28 96.1307 6.28C94.6587 6.28 93.6881 6.86667 93.2187 8.04C92.7494 9.192 92.5147 10.8453 92.5147 13C92.5147 14.4507 92.6001 15.656 92.7707 16.616C92.9414 17.5547 93.2827 18.3227 93.7947 18.92C94.3281 19.496 95.1067 19.784 96.1307 19.784C97.1547 19.784 97.9227 19.496 98.4347 18.92C98.9681 18.3227 99.3201 17.5547 99.4907 16.616C99.6614 15.656 99.7467 14.4507 99.7467 13ZM107.886 7.528C107.886 5.8 108.376 4.46667 109.358 3.528C110.36 2.58933 111.651 2.12 113.23 2.12C114.808 2.12 116.088 2.58933 117.07 3.528C118.051 4.46667 118.542 5.8 118.542 7.528C118.542 9.256 118.051 10.5893 117.07 11.528C116.088 12.4667 114.808 12.936 113.23 12.936C111.651 12.936 110.36 12.4667 109.358 11.528C108.376 10.5893 107.886 9.256 107.886 7.528ZM129.614 2.472L117.294 25H112.014L124.334 2.472H129.614ZM113.198 5.32C112.174 5.32 111.662 6.056 111.662 7.528C111.662 8.97867 112.174 9.704 113.198 9.704C113.688 9.704 114.072 9.52267 114.35 9.16C114.627 8.79733 114.766 8.25333 114.766 7.528C114.766 6.056 114.243 5.32 113.198 5.32ZM123.118 19.944C123.118 18.216 123.608 16.8827 124.59 15.944C125.571 15.0053 126.851 14.536 128.43 14.536C130.008 14.536 131.288 15.0053 132.27 15.944C133.251 16.8827 133.742 18.216 133.742 19.944C133.742 21.672 133.251 23.0053 132.27 23.944C131.288 24.8827 130.008 25.352 128.43 25.352C126.851 25.352 125.571 24.8827 124.59 23.944C123.608 23.0053 123.118 21.672 123.118 19.944ZM128.398 17.736C127.907 17.736 127.523 17.9173 127.246 18.28C126.99 18.6427 126.862 19.1973 126.862 19.944C126.862 21.3947 127.374 22.12 128.398 22.12C128.888 22.12 129.272 21.9387 129.55 21.576C129.827 21.2133 129.966 20.6693 129.966 19.944C129.966 19.2187 129.827 18.6747 129.55 18.312C129.272 17.928 128.888 17.736 128.398 17.736Z"/>
</mask>
<path d="M1.8945 8.232L0.895195 8.19464L0.856415 9.232H1.8945V8.232ZM4.1345 2.952L4.79461 3.70316V3.70316L4.1345 2.952ZM13.9585 1.928L13.5181 2.82581L13.5247 2.829L13.9585 1.928ZM16.5505 4.2L15.693 4.71449L15.6972 4.72143L15.7014 4.7283L16.5505 4.2ZM16.3905 10.888L17.1696 11.5151L17.1768 11.5058L16.3905 10.888ZM13.9265 12.68L13.6038 11.7335L12.9265 11.9644V12.68H13.9265ZM13.9265 12.808H12.9265V13.5288L13.6103 13.7567L13.9265 12.808ZM16.8065 14.824L17.6065 14.224L16.8065 14.824ZM16.9345 21.96L16.0786 21.4429L16.0754 21.4482L16.9345 21.96ZM14.2785 24.328L13.8378 23.4303L13.8313 23.4336L14.2785 24.328ZM4.0065 23.304L3.36736 24.0731L3.37267 24.0775L4.0065 23.304ZM1.6065 17.608V16.608H0.572319L0.607061 17.6416L1.6065 17.608ZM6.9185 17.608L7.91824 17.5853L7.89603 16.608H6.9185V17.608ZM7.7185 19.848L6.98369 20.5263L6.99033 20.5335L6.99711 20.5405L7.7185 19.848ZM11.8785 19.944L11.1559 19.2528L11.1551 19.2535L11.8785 19.944ZM11.5905 15.816L10.9991 16.6224L11.0142 16.6334L11.0296 16.6439L11.5905 15.816ZM7.4625 15.112H6.4625V16.112H7.4625V15.112ZM7.4625 10.664V9.664H6.4625V10.664H7.4625ZM11.1105 10.12L11.5914 10.9969L11.6008 10.9916L11.1105 10.12ZM11.4945 6.312L12.2016 5.60489V5.60489L11.4945 6.312ZM7.9105 6.408L7.13953 5.77112L7.13113 5.7813L7.12299 5.79169L7.9105 6.408ZM7.2385 8.232V9.232H8.15415L8.23463 8.31989L7.2385 8.232ZM1.8945 8.232L2.8938 8.26936C2.97128 6.19665 3.63679 4.72064 4.79461 3.70316L4.1345 2.952L3.47438 2.20083C1.8162 3.65802 0.988377 5.70202 0.895195 8.19464L1.8945 8.232ZM4.1345 2.952L4.79461 3.70316C5.97283 2.66776 7.62345 2.096 9.8625 2.096V1.096V0.0959988C7.28021 0.0959988 5.11217 0.761569 3.47438 2.20083L4.1345 2.952ZM9.8625 1.096V2.096C11.3499 2.096 12.5564 2.35404 13.5181 2.82579L13.9585 1.928L14.3989 1.03021C13.0992 0.392629 11.5751 0.0959988 9.8625 0.0959988V1.096ZM13.9585 1.928L13.5247 2.829C14.5265 3.31134 15.2312 3.94483 15.693 4.71449L16.5505 4.2L17.408 3.6855C16.7178 2.53517 15.6945 1.65399 14.3923 1.027L13.9585 1.928ZM16.5505 4.2L15.7014 4.7283C16.1944 5.52062 16.4465 6.41302 16.4465 7.432H17.4465H18.4465C18.4465 6.06165 18.1012 4.79938 17.3996 3.6717L16.5505 4.2ZM17.4465 7.432H16.4465C16.4465 8.67004 16.1397 9.58865 15.6042 10.2702L16.3905 10.888L17.1768 11.5058C18.0493 10.3953 18.4465 9.00996 18.4465 7.432H17.4465ZM16.3905 10.888L15.6115 10.261C15.0101 11.0081 14.3403 11.4824 13.6038 11.7335L13.9265 12.68L14.2492 13.6265C15.39 13.2376 16.3629 12.5172 17.1695 11.515L16.3905 10.888ZM13.9265 12.68H12.9265V12.808H13.9265H14.9265V12.68H13.9265ZM13.9265 12.808L13.6103 13.7567C14.652 14.1039 15.4358 14.6631 16.0065 15.424L16.8065 14.824L17.6065 14.224C16.7691 13.1075 15.633 12.3227 14.2427 11.8593L13.9265 12.808ZM16.8065 14.824L16.0065 15.424C16.5508 16.1497 16.8625 17.1285 16.8625 18.44H17.8625H18.8625C18.8625 16.8075 18.4702 15.3757 17.6065 14.224L16.8065 14.824ZM17.8625 18.44H16.8625C16.8625 19.6002 16.5932 20.591 16.0786 21.4429L16.9345 21.96L17.7904 22.4771C18.5131 21.281 18.8625 19.9251 18.8625 18.44H17.8625ZM16.9345 21.96L16.0754 21.4482C15.5888 22.2649 14.8588 22.9291 13.8378 23.4303L14.2785 24.328L14.7192 25.2257C16.0449 24.5749 17.0855 23.6604 17.7936 22.4718L16.9345 21.96ZM14.2785 24.328L13.8313 23.4336C12.8477 23.9254 11.6321 24.192 10.1505 24.192V25.192V26.192C11.8689 26.192 13.4053 25.8826 14.7257 25.2224L14.2785 24.328ZM10.1505 25.192V24.192C7.75372 24.192 5.9513 23.6048 4.64032 22.5305L4.0065 23.304L3.37267 24.0775C5.1337 25.5205 7.42728 26.192 10.1505 26.192V25.192ZM4.0065 23.304L4.64561 22.5349C3.41028 21.5083 2.68464 19.9158 2.60593 17.5744L1.6065 17.608L0.607061 17.6416C0.699026 20.3775 1.57339 22.5823 3.36738 24.0731L4.0065 23.304ZM1.6065 17.608V18.608H6.9185V17.608V16.608H1.6065V17.608ZM6.9185 17.608L5.91875 17.6307C5.94422 18.7512 6.26898 19.752 6.98369 20.5263L7.7185 19.848L8.4533 19.1697C8.14402 18.8347 7.93544 18.3421 7.91824 17.5853L6.9185 17.608ZM7.7185 19.848L6.99711 20.5405C7.75353 21.3285 8.7977 21.648 9.9585 21.648V20.648V19.648C9.15663 19.648 8.70747 19.4342 8.43988 19.1555L7.7185 19.848ZM9.9585 20.648V21.648C10.9824 21.648 11.9155 21.3535 12.6019 20.6345L11.8785 19.944L11.1551 19.2535C10.9455 19.4732 10.5986 19.648 9.9585 19.648V20.648ZM11.8785 19.944L12.6011 20.6352C13.2773 19.9283 13.5825 19.0259 13.5825 18.024H12.5825H11.5825C11.5825 18.6007 11.4184 18.9783 11.1559 19.2528L11.8785 19.944ZM12.5825 18.024H13.5825C13.5825 16.7731 13.164 15.6741 12.1513 14.9881L11.5905 15.816L11.0296 16.6439C11.3397 16.8539 11.5825 17.2269 11.5825 18.024H12.5825ZM11.5905 15.816L12.1819 15.0096C11.2799 14.3482 9.9791 14.112 8.4865 14.112V15.112V16.112C9.85256 16.112 10.6211 16.3451 10.9991 16.6224L11.5905 15.816ZM8.4865 15.112V14.112H7.4625V15.112V16.112H8.4865V15.112ZM7.4625 15.112H8.4625V10.664H7.4625H6.4625V15.112H7.4625ZM7.4625 10.664V11.664H8.4865V10.664V9.664H7.4625V10.664ZM8.4865 10.664V11.664C9.67299 11.664 10.7317 11.4682 11.5913 10.9968L11.1105 10.12L10.6297 9.24319C10.1666 9.49713 9.47601 9.664 8.4865 9.664V10.664ZM11.1105 10.12L11.6008 10.9916C12.674 10.3879 13.1345 9.32921 13.1345 8.104H12.1345H11.1345C11.1345 8.79879 10.9124 9.0841 10.6202 9.24842L11.1105 10.12ZM12.1345 8.104H13.1345C13.1345 7.14674 12.8634 6.26673 12.2016 5.60489L11.4945 6.312L10.7874 7.0191C10.9789 7.2106 11.1345 7.52526 11.1345 8.104H12.1345ZM11.4945 6.312L12.2016 5.60489C11.545 4.94825 10.6796 4.672 9.7345 4.672V5.672V6.672C10.2827 6.672 10.5907 6.82241 10.7874 7.0191L11.4945 6.312ZM9.7345 5.672V4.672C8.71401 4.672 7.78479 4.99003 7.13953 5.77112L7.9105 6.408L8.68146 7.04488C8.84687 6.84464 9.13365 6.672 9.7345 6.672V5.672ZM7.9105 6.408L7.12299 5.79169C6.60085 6.45887 6.32044 7.25932 6.24237 8.1441L7.2385 8.232L8.23463 8.31989C8.28456 7.75401 8.45214 7.33846 8.698 7.02431L7.9105 6.408ZM7.2385 8.232V7.232H1.8945V8.232V9.232H7.2385V8.232ZM23.5095 4.328L22.6813 3.76751L22.6774 3.7733L23.5095 4.328ZM37.2375 4.328L36.4054 4.88271L36.4093 4.88848L37.2375 4.328ZM37.2375 21.736L36.4093 21.1755L36.4054 21.1813L37.2375 21.736ZM23.5095 21.736L22.6774 22.2907L22.6813 22.2965L23.5095 21.736ZM33.3015 8.04L32.373 8.4114L32.3754 8.4173L33.3015 8.04ZM27.4775 8.04L28.4036 8.4173L28.406 8.41139L27.4775 8.04ZM27.0295 16.616L26.0449 16.791L26.0456 16.7949L27.0295 16.616ZM28.0535 18.92L27.2942 19.5708L27.3067 19.5853L27.3197 19.5994L28.0535 18.92ZM32.6935 18.92L31.9476 18.254L31.9461 18.2556L32.6935 18.92ZM33.7495 16.616L34.7334 16.7949L34.7341 16.791L33.7495 16.616ZM21.3975 13H22.3975C22.3975 9.44437 23.0817 6.7724 24.3415 4.8827L23.5095 4.328L22.6774 3.7733C21.1212 6.1076 20.3975 9.21696 20.3975 13H21.3975ZM23.5095 4.328L24.3377 4.88848C25.5358 3.11805 27.4744 2.16 30.3895 2.16V1.16V0.159998C26.9899 0.159998 24.3418 1.31394 22.6813 3.76752L23.5095 4.328ZM30.3895 1.16V2.16C33.3051 2.16 35.229 3.118 36.4054 4.8827L37.2375 4.328L38.0695 3.7733C36.43 1.314 33.7886 0.159998 30.3895 0.159998V1.16ZM37.2375 4.328L36.4093 4.88848C37.6875 6.77711 38.3815 9.44674 38.3815 13H39.3815H40.3815C40.3815 9.21459 39.6462 6.10288 38.0657 3.76752L37.2375 4.328ZM39.3815 13H38.3815C38.3815 16.5987 37.6864 19.2885 36.4093 21.1755L37.2375 21.736L38.0657 22.2965C39.6473 19.9595 40.3815 16.8253 40.3815 13H39.3815ZM37.2375 21.736L36.4054 21.1813C35.229 22.946 33.3051 23.904 30.3895 23.904V24.904V25.904C33.7886 25.904 36.43 24.75 38.0695 22.2907L37.2375 21.736ZM30.3895 24.904V23.904C27.4744 23.904 25.5358 22.9459 24.3377 21.1755L23.5095 21.736L22.6813 22.2965C24.3418 24.7501 26.9899 25.904 30.3895 25.904V24.904ZM23.5095 21.736L24.3415 21.1813C23.0828 19.2932 22.3975 16.6011 22.3975 13H21.3975H20.3975C20.3975 16.8229 21.1202 19.9548 22.6774 22.2907L23.5095 21.736ZM34.0055 13H35.0055C35.0055 10.7967 34.769 8.99163 34.2276 7.6627L33.3015 8.04L32.3754 8.4173C32.7727 9.39237 33.0055 10.8939 33.0055 13H34.0055ZM33.3015 8.04L34.23 7.66861C33.9243 6.90432 33.4314 6.28279 32.7388 5.86417C32.0574 5.45235 31.2546 5.28 30.3895 5.28V6.28V7.28C30.9964 7.28 31.415 7.40099 31.7042 7.57583C31.9823 7.74388 32.2094 8.00235 32.373 8.41139L33.3015 8.04ZM30.3895 6.28V5.28C29.5244 5.28 28.7216 5.45235 28.0402 5.86417C27.3476 6.28279 26.8547 6.90432 26.549 7.66861L27.4775 8.04L28.406 8.41139C28.5696 8.00235 28.7967 7.74388 29.0748 7.57583C29.364 7.40099 29.7826 7.28 30.3895 7.28V6.28ZM27.4775 8.04L26.5514 7.6627C26.01 8.99163 25.7735 10.7967 25.7735 13H26.7735H27.7735C27.7735 10.8939 28.0063 9.39237 28.4036 8.4173L27.4775 8.04ZM26.7735 13H25.7735C25.7735 14.4839 25.8603 15.7527 26.0449 16.791L27.0295 16.616L28.0141 16.441C27.8573 15.5593 27.7735 14.4174 27.7735 13H26.7735ZM27.0295 16.616L26.0456 16.7949C26.2413 17.8709 26.6446 18.8129 27.2942 19.5708L28.0535 18.92L28.8128 18.2692C28.4384 17.8325 28.1591 17.2384 28.0134 16.4371L27.0295 16.616ZM28.0535 18.92L27.3197 19.5994C28.0955 20.4373 29.1763 20.784 30.3895 20.784V19.784V18.784C29.5547 18.784 29.0781 18.5547 28.7873 18.2406L28.0535 18.92ZM30.3895 19.784V20.784C31.6001 20.784 32.682 20.4381 33.4409 19.5844L32.6935 18.92L31.9461 18.2556C31.681 18.5539 31.2268 18.784 30.3895 18.784V19.784ZM32.6935 18.92L33.4394 19.586C34.1171 18.827 34.5361 17.8798 34.7334 16.7949L33.7495 16.616L32.7656 16.4371C32.6215 17.2296 32.3365 17.8183 31.9476 18.254L32.6935 18.92ZM33.7495 16.616L34.7341 16.791C34.9187 15.7527 35.0055 14.4839 35.0055 13H34.0055H33.0055C33.0055 14.4174 32.9217 15.5593 32.7649 16.441L33.7495 16.616ZM61.1525 11.496H62.1525V10.496H61.1525V11.496ZM61.1525 16.04V17.04H62.1525V16.04H61.1525ZM43.3925 16.04H42.3925V17.04H43.3925V16.04ZM43.3925 11.496V10.496H42.3925V11.496H43.3925ZM61.1525 11.496H60.1525V16.04H61.1525H62.1525V11.496H61.1525ZM61.1525 16.04V15.04H43.3925V16.04V17.04H61.1525V16.04ZM43.3925 16.04H44.3925V11.496H43.3925H42.3925V16.04H43.3925ZM43.3925 11.496V12.496H61.1525V11.496V10.496H43.3925V11.496ZM65.2905 20.84H64.2905V21.84H65.2905V20.84ZM65.2905 16.424L64.4709 15.851L64.2905 16.1091V16.424H65.2905ZM75.4025 1.96V0.959999H74.8815L74.5829 1.38702L75.4025 1.96ZM81.5145 1.96H82.5145V0.959999H81.5145V1.96ZM81.5145 16.104H80.5145V17.104H81.5145V16.104ZM84.1385 16.104H85.1385V15.104H84.1385V16.104ZM84.1385 20.84V21.84H85.1385V20.84H84.1385ZM81.5145 20.84V19.84H80.5145V20.84H81.5145ZM81.5145 25V26H82.5145V25H81.5145ZM76.0425 25H75.0425V26H76.0425V25ZM76.0425 20.84H77.0425V19.84H76.0425V20.84ZM76.4265 7.976H77.4265V4.6514L75.5924 7.42433L76.4265 7.976ZM71.0505 16.104L70.2164 15.5523L69.1901 17.104H71.0505V16.104ZM76.4265 16.104V17.104H77.4265V16.104H76.4265ZM65.2905 20.84H66.2905V16.424H65.2905H64.2905V20.84H65.2905ZM65.2905 16.424L66.1101 16.997L76.2221 2.53297L75.4025 1.96L74.5829 1.38702L64.4709 15.851L65.2905 16.424ZM75.4025 1.96V2.96H81.5145V1.96V0.959999H75.4025V1.96ZM81.5145 1.96H80.5145V16.104H81.5145H82.5145V1.96H81.5145ZM81.5145 16.104V17.104H84.1385V16.104V15.104H81.5145V16.104ZM84.1385 16.104H83.1385V20.84H84.1385H85.1385V16.104H84.1385ZM84.1385 20.84V19.84H81.5145V20.84V21.84H84.1385V20.84ZM81.5145 20.84H80.5145V25H81.5145H82.5145V20.84H81.5145ZM81.5145 25V24H76.0425V25V26H81.5145V25ZM76.0425 25H77.0425V20.84H76.0425H75.0425V25H76.0425ZM76.0425 20.84V19.84H65.2905V20.84V21.84H76.0425V20.84ZM76.4265 7.976L75.5924 7.42433L70.2164 15.5523L71.0505 16.104L71.8846 16.6557L77.2606 8.52767L76.4265 7.976ZM71.0505 16.104V17.104H76.4265V16.104V15.104H71.0505V16.104ZM76.4265 16.104H77.4265V7.976H76.4265H75.4265V16.104H76.4265ZM89.2507 4.328L88.4226 3.76751L88.4187 3.7733L89.2507 4.328ZM102.979 4.328L102.147 4.88271L102.151 4.88848L102.979 4.328ZM102.979 21.736L102.151 21.1755L102.147 21.1813L102.979 21.736ZM89.2507 21.736L88.4187 22.2907L88.4226 22.2965L89.2507 21.736ZM99.0427 8.04L98.1143 8.4114L98.1167 8.4173L99.0427 8.04ZM93.2188 8.04L94.1449 8.4173L94.1472 8.41139L93.2188 8.04ZM92.7707 16.616L91.7862 16.791L91.7869 16.7949L92.7707 16.616ZM93.7947 18.92L93.0355 19.5708L93.048 19.5853L93.061 19.5994L93.7947 18.92ZM98.4347 18.92L97.6888 18.254L97.6873 18.2556L98.4347 18.92ZM99.4907 16.616L100.475 16.7949L100.475 16.791L99.4907 16.616ZM87.1387 13H88.1387C88.1387 9.44437 88.823 6.7724 90.0828 4.8827L89.2507 4.328L88.4187 3.7733C86.8625 6.1076 86.1387 9.21696 86.1387 13H87.1387ZM89.2507 4.328L90.0789 4.88848C91.2771 3.11805 93.2157 2.16 96.1307 2.16V1.16V0.159998C92.7311 0.159998 90.0831 1.31394 88.4226 3.76752L89.2507 4.328ZM96.1307 1.16V2.16C99.0463 2.16 100.97 3.118 102.147 4.8827L102.979 4.328L103.811 3.7733C102.171 1.314 99.5299 0.159998 96.1307 0.159998V1.16ZM102.979 4.328L102.151 4.88848C103.429 6.77711 104.123 9.44674 104.123 13H105.123H106.123C106.123 9.21459 105.387 6.10288 103.807 3.76752L102.979 4.328ZM105.123 13H104.123C104.123 16.5987 103.428 19.2885 102.151 21.1755L102.979 21.736L103.807 22.2965C105.389 19.9595 106.123 16.8253 106.123 13H105.123ZM102.979 21.736L102.147 21.1813C100.97 22.946 99.0463 23.904 96.1307 23.904V24.904V25.904C99.5299 25.904 102.171 24.75 103.811 22.2907L102.979 21.736ZM96.1307 24.904V23.904C93.2157 23.904 91.2771 22.9459 90.0789 21.1755L89.2507 21.736L88.4226 22.2965C90.0831 24.7501 92.7311 25.904 96.1307 25.904V24.904ZM89.2507 21.736L90.0828 21.1813C88.8241 19.2932 88.1387 16.6011 88.1387 13H87.1387H86.1387C86.1387 16.8229 86.8614 19.9548 88.4187 22.2907L89.2507 21.736ZM99.7467 13H100.747C100.747 10.7967 100.51 8.99163 99.9688 7.6627L99.0427 8.04L98.1167 8.4173C98.5139 9.39237 98.7467 10.8939 98.7467 13H99.7467ZM99.0427 8.04L99.9712 7.66861C99.6655 6.90432 99.1726 6.28279 98.48 5.86417C97.7986 5.45235 96.9959 5.28 96.1307 5.28V6.28V7.28C96.7376 7.28 97.1562 7.40099 97.4455 7.57583C97.7235 7.74388 97.9507 8.00235 98.1143 8.41139L99.0427 8.04ZM96.1307 6.28V5.28C95.2656 5.28 94.4629 5.45235 93.7815 5.86417C93.0889 6.28279 92.596 6.90432 92.2903 7.66861L93.2188 8.04L94.1472 8.41139C94.3108 8.00235 94.538 7.74388 94.816 7.57583C95.1053 7.40099 95.5239 7.28 96.1307 7.28V6.28ZM93.2188 8.04L92.2927 7.6627C91.7512 8.99163 91.5147 10.7967 91.5147 13H92.5147H93.5147C93.5147 10.8939 93.7476 9.39237 94.1448 8.4173L93.2188 8.04ZM92.5147 13H91.5147C91.5147 14.4839 91.6016 15.7527 91.7862 16.791L92.7707 16.616L93.7553 16.441C93.5986 15.5593 93.5147 14.4174 93.5147 13H92.5147ZM92.7707 16.616L91.7869 16.7949C91.9825 17.8709 92.3858 18.8129 93.0355 19.5708L93.7947 18.92L94.554 18.2692C94.1796 17.8325 93.9003 17.2384 93.7546 16.4371L92.7707 16.616ZM93.7947 18.92L93.061 19.5994C93.8368 20.4373 94.9176 20.784 96.1307 20.784V19.784V18.784C95.2959 18.784 94.8194 18.5547 94.5285 18.2406L93.7947 18.92ZM96.1307 19.784V20.784C97.3414 20.784 98.4233 20.4381 99.1822 19.5844L98.4347 18.92L97.6873 18.2556C97.4222 18.5539 96.9681 18.784 96.1307 18.784V19.784ZM98.4347 18.92L99.1807 19.586C99.8584 18.827 100.277 17.8798 100.475 16.7949L99.4907 16.616L98.5069 16.4371C98.3628 17.2296 98.0778 17.8183 97.6888 18.254L98.4347 18.92ZM99.4907 16.616L100.475 16.791C100.66 15.7527 100.747 14.4839 100.747 13H99.7467H98.7467C98.7467 14.4174 98.6629 15.5593 98.5062 16.441L99.4907 16.616ZM109.358 3.528L108.674 2.79794L108.667 2.80536L109.358 3.528ZM117.07 3.528L116.379 4.25064V4.25064L117.07 3.528ZM117.07 11.528L116.379 10.8054L117.07 11.528ZM109.358 11.528L108.666 12.2507L108.674 12.258L109.358 11.528ZM129.614 2.472L130.491 2.95181L131.3 1.472H129.614V2.472ZM117.294 25V26H117.887L118.171 25.4798L117.294 25ZM112.014 25L111.136 24.5202L110.327 26H112.014V25ZM124.334 2.472V1.472H123.741L123.456 1.99219L124.334 2.472ZM114.35 9.16L113.555 8.55255V8.55255L114.35 9.16ZM124.59 15.944L123.899 15.2214L124.59 15.944ZM132.27 15.944L132.961 15.2214L132.27 15.944ZM132.27 23.944L132.961 24.6666L132.27 23.944ZM124.59 23.944L123.899 24.6666L124.59 23.944ZM127.246 18.28L126.451 17.6725L126.44 17.6877L126.429 17.7033L127.246 18.28ZM129.55 21.576L128.755 20.9685V20.9686L129.55 21.576ZM129.55 18.312L128.739 18.8975L128.747 18.9086L128.755 18.9195L129.55 18.312ZM107.886 7.528H108.886C108.886 5.99429 109.315 4.95245 110.049 4.25064L109.358 3.528L108.667 2.80536C107.438 3.98088 106.886 5.60571 106.886 7.528H107.886ZM109.358 3.528L110.041 4.25802C110.831 3.51877 111.864 3.12 113.23 3.12V2.12V1.12C111.438 1.12 109.89 1.65989 108.674 2.79798L109.358 3.528ZM113.23 2.12V3.12C114.596 3.12 115.613 3.51879 116.379 4.25064L117.07 3.528L117.761 2.80536C116.563 1.65988 115.021 1.12 113.23 1.12V2.12ZM117.07 3.528L116.379 4.25064C117.112 4.95245 117.542 5.99429 117.542 7.528H118.542H119.542C119.542 5.60571 118.99 3.98088 117.761 2.80536L117.07 3.528ZM118.542 7.528H117.542C117.542 9.06171 117.112 10.1035 116.379 10.8054L117.07 11.528L117.761 12.2506C118.99 11.0751 119.542 9.45029 119.542 7.528H118.542ZM117.07 11.528L116.379 10.8054C115.613 11.5372 114.596 11.936 113.23 11.936V12.936V13.936C115.021 13.936 116.563 13.3961 117.761 12.2506L117.07 11.528ZM113.23 12.936V11.936C111.864 11.936 110.831 11.5372 110.041 10.798L109.358 11.528L108.674 12.258C109.89 13.3961 111.438 13.936 113.23 13.936V12.936ZM109.358 11.528L110.049 10.8054C109.315 10.1035 108.886 9.06171 108.886 7.528H107.886H106.886C106.886 9.45029 107.438 11.0751 108.667 12.2506L109.358 11.528ZM129.614 2.472L128.736 1.99219L116.416 24.5202L117.294 25L118.171 25.4798L130.491 2.95181L129.614 2.472ZM117.294 25V24H112.014V25V26H117.294V25ZM112.014 25L112.891 25.4798L125.211 2.95181L124.334 2.472L123.456 1.99219L111.136 24.5202L112.014 25ZM124.334 2.472V3.472H129.614V2.472V1.472H124.334V2.472ZM113.198 5.32V4.32C112.412 4.32 111.697 4.62285 111.225 5.30094C110.799 5.91312 110.662 6.70686 110.662 7.528H111.662H112.662C112.662 6.87714 112.781 6.56688 112.867 6.44306C112.901 6.39331 112.93 6.37306 112.958 6.35982C112.99 6.34422 113.061 6.32 113.198 6.32V5.32ZM111.662 7.528H110.662C110.662 8.3405 110.8 9.12871 111.229 9.73668C111.703 10.4084 112.418 10.704 113.198 10.704V9.704V8.704C113.059 8.704 112.987 8.67974 112.953 8.66375C112.924 8.65019 112.896 8.63028 112.863 8.58332C112.78 8.46595 112.662 8.16617 112.662 7.528H111.662ZM113.198 9.704V10.704C113.973 10.704 114.662 10.3982 115.144 9.76745L114.35 9.16L113.555 8.55255C113.483 8.64715 113.404 8.704 113.198 8.704V9.704ZM114.35 9.16L115.144 9.76745C115.613 9.15428 115.766 8.35258 115.766 7.528H114.766H113.766C113.766 8.15409 113.641 8.44039 113.555 8.55255L114.35 9.16ZM114.766 7.528H115.766C115.766 6.70399 115.625 5.90675 115.189 5.293C114.709 4.61637 113.986 4.32 113.198 4.32V5.32V6.32C113.455 6.32 113.516 6.39163 113.558 6.451C113.645 6.57325 113.766 6.88001 113.766 7.528H114.766ZM123.118 19.944H124.118C124.118 18.4103 124.547 17.3684 125.281 16.6666L124.59 15.944L123.899 15.2214C122.67 16.3969 122.118 18.0217 122.118 19.944H123.118ZM124.59 15.944L125.281 16.6666C126.046 15.9348 127.064 15.536 128.43 15.536V14.536V13.536C126.638 13.536 125.096 14.0759 123.899 15.2214L124.59 15.944ZM128.43 14.536V15.536C129.796 15.536 130.813 15.9348 131.579 16.6666L132.27 15.944L132.961 15.2214C131.763 14.0759 130.221 13.536 128.43 13.536V14.536ZM132.27 15.944L131.579 16.6666C132.312 17.3684 132.742 18.4103 132.742 19.944H133.742H134.742C134.742 18.0217 134.19 16.3969 132.961 15.2214L132.27 15.944ZM133.742 19.944H132.742C132.742 21.4777 132.312 22.5196 131.579 23.2214L132.27 23.944L132.961 24.6666C134.19 23.4911 134.742 21.8663 134.742 19.944H133.742ZM132.27 23.944L131.579 23.2214C130.813 23.9532 129.796 24.352 128.43 24.352V25.352V26.352C130.221 26.352 131.763 25.8121 132.961 24.6666L132.27 23.944ZM128.43 25.352V24.352C127.064 24.352 126.046 23.9532 125.281 23.2214L124.59 23.944L123.899 24.6666C125.096 25.8121 126.638 26.352 128.43 26.352V25.352ZM124.59 23.944L125.281 23.2214C124.547 22.5196 124.118 21.4777 124.118 19.944H123.118H122.118C122.118 21.8663 122.67 23.4911 123.899 24.6666L124.59 23.944ZM128.398 17.736V16.736C127.623 16.736 126.934 17.0418 126.451 17.6725L127.246 18.28L128.04 18.8874C128.112 18.7928 128.192 18.736 128.398 18.736V17.736ZM127.246 18.28L126.429 17.7033C125.997 18.315 125.862 19.1176 125.862 19.944H126.862H127.862C127.862 19.277 127.982 18.9704 128.063 18.8567L127.246 18.28ZM126.862 19.944H125.862C125.862 20.7565 126 21.5447 126.429 22.1527C126.903 22.8244 127.618 23.12 128.398 23.12V22.12V21.12C128.26 21.12 128.187 21.0957 128.153 21.0798C128.124 21.0662 128.096 21.0463 128.063 20.9993C127.98 20.882 127.862 20.5822 127.862 19.944H126.862ZM128.398 22.12V23.12C129.173 23.12 129.862 22.8142 130.344 22.1834L129.55 21.576L128.755 20.9686C128.683 21.0632 128.604 21.12 128.398 21.12V22.12ZM129.55 21.576L130.344 22.1835C130.813 21.5703 130.966 20.7686 130.966 19.944H129.966H128.966C128.966 20.5701 128.841 20.8564 128.755 20.9685L129.55 21.576ZM129.966 19.944H130.966C130.966 19.1194 130.813 18.3177 130.344 17.7045L129.55 18.312L128.755 18.9195C128.841 19.0316 128.966 19.3179 128.966 19.944H129.966ZM129.55 18.312L130.36 17.7265C129.887 17.0714 129.196 16.736 128.398 16.736V17.736V18.736C128.581 18.736 128.658 18.7846 128.739 18.8975L129.55 18.312Z" fill="#DADBDD" mask="url(#path-1-outside-1_530_2297)"/>
</svg>
