<svg width="136" height="124" viewBox="0 0 136 124" fill="none" xmlns="http://www.w3.org/2000/svg">
<path d="M106.411 0C92.6201 0 81.0399 9.64499 78.0617 22.5437H73.2158V13.1342C73.2158 9.81153 70.5124 7.10832 67.19 7.10832H27.3257C24.0031 7.10832 21.2999 9.81153 21.2999 13.1342V22.5437H1.86746C0.834598 22.5437 -0.00256348 23.3809 -0.00256348 24.4135V92.7489C-0.00256348 93.7815 0.834598 94.6186 1.86746 94.6186H54.7219C54.0629 99.5666 53.2221 104.123 50.9431 107.299H48.5672C47.5343 107.299 46.6971 108.136 46.6971 109.168V114.778C46.6971 115.81 47.5343 116.648 48.5672 116.648H66.4072C67.484 120.371 70.9502 123.09 74.949 123.09C78.9479 123.09 82.414 120.372 83.4911 116.648H101.331C102.364 116.648 103.201 115.81 103.201 114.778V109.168C103.201 108.136 102.364 107.299 101.331 107.299H98.9552C96.2978 103.596 95.5959 98.0158 94.8569 92.1268C94.8524 92.0915 94.8481 92.0563 94.8436 92.0212V56.7369L96.0411 56.2826C99.3564 57.5446 102.841 58.1837 106.411 58.1837C122.452 58.1837 135.503 45.133 135.503 29.0917C135.503 13.0507 122.452 0 106.411 0ZM25.0394 13.1342C25.0394 11.8735 26.0648 10.8478 27.3255 10.8478H67.1897C68.4503 10.8478 69.4758 11.8735 69.4758 13.1342V22.5437H25.0394V13.1342ZM3.73722 26.2835H77.4544C77.3653 27.2079 77.3184 28.1445 77.3184 29.092C77.3184 35.3488 79.2613 41.2768 82.9454 46.2892L82.2626 50.4983C81.1231 50.8401 79.9434 51.0152 78.7418 51.0152H58.7112V43.3616C58.7112 42.329 57.874 41.4919 56.8412 41.4919H38.007C36.9742 41.4919 36.137 42.329 36.137 43.3616V51.0152H16.1066C9.28604 51.0152 3.73722 45.4695 3.73722 38.6532V26.2835ZM39.8771 45.2314H54.9714V60.5459H39.8771V45.2314ZM74.949 119.35C73.0212 119.35 71.3111 118.257 70.4307 116.648H79.4676C78.5872 118.257 76.8771 119.35 74.949 119.35ZM99.4611 112.908H50.4372V111.038H98.0366H98.039H98.0406H99.4611V112.908ZM55.2944 107.299C57.3845 103.169 58.0708 98.015 58.7054 92.965C58.7067 92.9539 58.7086 92.9427 58.7096 92.9313C58.7239 92.8184 58.738 92.7054 58.7523 92.5924C60.1416 81.5221 61.3412 71.9614 74.949 71.9614C88.4489 71.9614 89.7371 81.3707 91.1131 92.3286C91.1139 92.3363 91.115 92.3434 91.1158 92.3511C91.1258 92.4317 91.1359 92.5118 91.1463 92.5927C91.7949 97.761 92.4626 103.067 94.6042 107.299H55.2944ZM71.2249 68.0024C71.2249 65.9486 72.8955 64.2777 74.949 64.2777C77.0028 64.2777 78.6734 65.9486 78.6734 68.0024C78.6734 68.1546 78.6644 68.306 78.6466 68.455C77.4833 68.3004 76.2524 68.2217 74.949 68.2217C73.6459 68.2217 72.415 68.3004 71.2517 68.455C71.2339 68.306 71.2249 68.1548 71.2249 68.0024ZM91.1036 76.7076C91.0015 76.5169 90.9012 76.3249 90.793 76.1385C88.8286 72.7591 86.0236 70.4831 82.3045 69.2691C82.3753 68.8528 82.4132 68.4288 82.4132 68.0024C82.4132 63.8866 79.0646 60.5382 74.949 60.5382C70.8335 60.5382 67.4851 63.8866 67.4851 68.0024C67.4851 68.429 67.523 68.8531 67.5938 69.2691C63.8747 70.4828 61.0697 72.7591 59.105 76.1385C56.6744 80.3201 55.8677 85.6342 55.1992 90.8791H3.73722V48.9545C6.69473 52.4962 11.1412 54.7544 16.1066 54.7544H36.1373V62.4154C36.1373 63.448 36.9744 64.2851 38.0073 64.2851H56.8414C57.8743 64.2851 58.7115 63.448 58.7115 62.4154V54.7544H78.7421C79.7124 54.7544 80.6715 54.6656 81.6148 54.494L80.8784 59.0349C80.7715 59.6941 81.0242 60.3605 81.5418 60.7829C81.881 61.0598 82.3 61.204 82.7243 61.204C82.9473 61.204 83.1721 61.1643 83.3872 61.0826L91.1038 58.1556V76.7076H91.1036ZM106.411 54.4444C103.079 54.4444 99.8334 53.8061 96.764 52.5479C96.3254 52.3681 95.8348 52.3615 95.3915 52.5299L92.4027 53.6635C92.3422 53.6828 92.2831 53.7054 92.2255 53.7308L85.088 56.4383L86.765 46.0991C86.8483 45.5859 86.7141 45.0614 86.3948 44.6512C82.9035 40.1657 81.0584 34.7856 81.0584 29.0922C81.0584 15.1129 92.4313 3.74005 106.411 3.74005C120.39 3.74005 131.763 15.1129 131.763 29.0922C131.763 43.0713 120.39 54.4444 106.411 54.4444ZM125.244 38.0886L116.577 23.0857L107.917 8.07409C107.583 7.49521 106.965 7.13881 106.297 7.13855C105.629 7.13855 105.012 7.49495 104.678 8.07329L87.3428 38.0883C87.0084 38.667 87.0084 39.3798 87.3423 39.9584C87.6764 40.537 88.2938 40.8934 88.9617 40.8934H123.625C124.294 40.8934 124.911 40.537 125.245 39.9584C125.578 39.38 125.578 38.6672 125.244 38.0886ZM92.2011 37.1541L106.296 12.7489L113.338 24.9552L120.386 37.1541H92.2011ZM108.167 21.8248V28.0474C108.167 29.08 107.33 29.9172 106.297 29.9172C105.264 29.9172 104.427 29.08 104.427 28.0474V21.8248C104.427 20.7922 105.264 19.9551 106.297 19.9551C107.33 19.9548 108.167 20.7919 108.167 21.8248ZM108.129 33.1943C108.153 33.3144 108.166 33.4374 108.166 33.5575C108.166 33.6803 108.153 33.8031 108.129 33.9235C108.105 34.0436 108.07 34.1611 108.022 34.2733C107.977 34.3854 107.918 34.4949 107.851 34.5965C107.784 34.6981 107.704 34.7941 107.619 34.8797C107.272 35.2295 106.788 35.43 106.297 35.43C105.806 35.43 105.322 35.2297 104.975 34.8797C104.625 34.5323 104.428 34.0518 104.428 33.5578C104.428 33.0664 104.625 32.5859 104.975 32.2359C105.322 31.8885 105.806 31.6883 106.297 31.6883C106.788 31.6883 107.272 31.8885 107.619 32.2359C107.704 32.3213 107.785 32.4175 107.851 32.5215C107.918 32.6231 107.977 32.7297 108.022 32.8447C108.07 32.9567 108.105 33.0741 108.129 33.1943Z" fill="url(#paint0_linear_448_1444)"/>
<defs>
<linearGradient id="paint0_linear_448_1444" x1="67.75" y1="0" x2="67.75" y2="123.09" gradientUnits="userSpaceOnUse">
<stop stop-color="#A95CEC"/>
<stop offset="1" stop-color="#DA22FF"/>
</linearGradient>
</defs>
</svg>
