<svg width="132" height="206" viewBox="0 0 132 206" fill="none" xmlns="http://www.w3.org/2000/svg">
<g opacity="0.1">
<mask id="path-1-outside-1_692_2558" maskUnits="userSpaceOnUse" x="0" y="0" width="169" height="206" fill="black">
<rect fill="white" width="169" height="206"/>
<path d="M1.72 167.6V128.96L90.2 2.39999H143.68V126.16H166.64V167.6H143.68V204H95.8V167.6H1.72ZM99.16 55.04L52.12 126.16H99.16V55.04Z"/>
</mask>
<path d="M1.72 167.6H0.22V169.1H1.72V167.6ZM1.72 128.96L0.490642 128.101L0.22 128.488V128.96H1.72ZM90.2 2.39999V0.899992H89.4184L88.9706 1.54053L90.2 2.39999ZM143.68 2.39999H145.18V0.899992H143.68V2.39999ZM143.68 126.16H142.18V127.66H143.68V126.16ZM166.64 126.16H168.14V124.66H166.64V126.16ZM166.64 167.6V169.1H168.14V167.6H166.64ZM143.68 167.6V166.1H142.18V167.6H143.68ZM143.68 204V205.5H145.18V204H143.68ZM95.8 204H94.3V205.5H95.8V204ZM95.8 167.6H97.3V166.1H95.8V167.6ZM99.16 55.04H100.66V50.0531L97.9089 54.2125L99.16 55.04ZM52.12 126.16L50.8689 125.332L49.3295 127.66H52.12V126.16ZM99.16 126.16V127.66H100.66V126.16H99.16ZM1.72 167.6H3.22V128.96H1.72H0.22V167.6H1.72ZM1.72 128.96L2.94936 129.819L91.4294 3.25946L90.2 2.39999L88.9706 1.54053L0.490642 128.101L1.72 128.96ZM90.2 2.39999V3.89999H143.68V2.39999V0.899992H90.2V2.39999ZM143.68 2.39999H142.18V126.16H143.68H145.18V2.39999H143.68ZM143.68 126.16V127.66H166.64V126.16V124.66H143.68V126.16ZM166.64 126.16H165.14V167.6H166.64H168.14V126.16H166.64ZM166.64 167.6V166.1H143.68V167.6V169.1H166.64V167.6ZM143.68 167.6H142.18V204H143.68H145.18V167.6H143.68ZM143.68 204V202.5H95.8V204V205.5H143.68V204ZM95.8 204H97.3V167.6H95.8H94.3V204H95.8ZM95.8 167.6V166.1H1.72V167.6V169.1H95.8V167.6ZM99.16 55.04L97.9089 54.2125L50.8689 125.332L52.12 126.16L53.3711 126.987L100.411 55.8675L99.16 55.04ZM52.12 126.16V127.66H99.16V126.16V124.66H52.12V126.16ZM99.16 126.16H100.66V55.04H99.16H97.66V126.16H99.16Z" fill="#8F9299" mask="url(#path-1-outside-1_692_2558)"/>
</g>
</svg>
