<svg width="74" height="40" viewBox="0 0 74 40" fill="none" xmlns="http://www.w3.org/2000/svg">
<mask id="path-1-outside-1_516_1783" maskUnits="userSpaceOnUse" x="0" y="0" width="74" height="40" fill="black">
<rect fill="white" width="74" height="40"/>
<path d="M1.98675 27.616C2.71209 27.04 3.04275 26.7733 2.97875 26.816C5.06942 25.088 6.71209 23.6693 7.90675 22.56C9.12275 21.4507 10.1468 20.288 10.9788 19.072C11.8108 17.856 12.2268 16.672 12.2268 15.52C12.2268 14.6453 12.0241 13.9627 11.6188 13.472C11.2134 12.9813 10.6054 12.736 9.79475 12.736C8.98409 12.736 8.34409 13.0453 7.87475 13.664C7.42675 14.2613 7.20275 15.1147 7.20275 16.224H1.92275C1.96542 14.4107 2.34942 12.896 3.07475 11.68C3.82142 10.464 4.79209 9.568 5.98675 8.992C7.20275 8.416 8.54675 8.128 10.0188 8.128C12.5574 8.128 14.4668 8.77866 15.7468 10.08C17.0481 11.3813 17.6988 13.0773 17.6988 15.168C17.6988 17.4507 16.9201 19.5733 15.3628 21.536C13.8054 23.4773 11.8214 25.376 9.41076 27.232H18.0508V31.68H1.98675V27.616ZM20.908 27.84V23.424L31.02 8.96H37.132V23.104H39.756V27.84H37.132V32H31.66V27.84H20.908ZM32.044 14.976L26.668 23.104H32.044V14.976ZM55.4923 1.6L46.9163 37.984H41.6363L50.2123 1.6H55.4923ZM72.4883 12.736L64.4563 32H58.8563L66.9843 13.344H57.0323V8.672H72.4883V12.736Z"/>
</mask>
<path d="M1.98676 27.616L1.05393 26.4413L0.486755 26.8917V27.616H1.98676ZM2.97875 26.816L2.02312 25.6598L3.81081 28.0641L2.97875 26.816ZM7.90675 22.56L6.89577 21.4518L6.88608 21.4608L7.90675 22.56ZM11.6188 13.472L10.4623 14.4273V14.4273L11.6188 13.472ZM7.87476 13.664L6.6797 12.7574L6.67475 12.764L7.87476 13.664ZM7.20275 16.224V17.724H8.70275V16.224H7.20275ZM1.92275 16.224L0.423172 16.1887L0.387047 17.724H1.92275V16.224ZM3.07475 11.68L1.7965 10.8951L1.79146 10.9033L1.78652 10.9116L3.07475 11.68ZM5.98676 8.992L5.34461 7.63636L5.3353 7.64085L5.98676 8.992ZM15.7468 10.08L14.6773 11.1319L14.6861 11.1407L15.7468 10.08ZM15.3628 21.536L16.5328 22.4746L16.5378 22.4684L15.3628 21.536ZM9.41075 27.232L8.49568 26.0435L5.00366 28.732H9.41075V27.232ZM18.0508 27.232H19.5508V25.732H18.0508V27.232ZM18.0508 31.68V33.18H19.5508V31.68H18.0508ZM1.98676 31.68H0.486755V33.18H1.98676V31.68ZM1.98676 27.616L2.91958 28.7907C3.2826 28.5024 3.55035 28.2887 3.72038 28.1516C3.80296 28.085 3.87148 28.0292 3.91754 27.9906C3.91969 27.9888 3.98513 27.9349 4.04491 27.8752C4.05717 27.8629 4.07875 27.8409 4.10423 27.8124C4.1209 27.7938 4.1805 27.727 4.24277 27.6316C4.27106 27.5882 4.33962 27.4794 4.39555 27.3263C4.42919 27.2341 4.59478 26.7778 4.37354 26.2405C4.082 25.5326 3.43777 25.3486 3.13274 25.3187C2.86133 25.2921 2.65228 25.3479 2.59145 25.3645C2.43916 25.406 2.32823 25.4633 2.30773 25.4737C2.26657 25.4946 2.23475 25.5131 2.21829 25.5228C2.18441 25.5429 2.15804 25.5604 2.14671 25.5679L2.97875 26.816L3.81081 28.0641C3.80347 28.069 3.78033 28.0843 3.7489 28.103C3.73367 28.112 3.70289 28.13 3.66257 28.1504C3.64291 28.1603 3.53264 28.2174 3.38081 28.2588C3.32021 28.2753 3.11134 28.331 2.84006 28.3044C2.53516 28.2745 1.89101 28.0907 1.59953 27.3828C1.37831 26.8456 1.54389 26.3894 1.57747 26.2975C1.63334 26.1444 1.70179 26.0359 1.72993 25.9928C1.79189 25.8978 1.85098 25.8317 1.86695 25.8138C1.89173 25.786 1.91241 25.765 1.92359 25.7538C1.97471 25.7027 2.01915 25.6672 1.98797 25.6934C1.96735 25.7108 1.91989 25.7496 1.83713 25.8164C1.67649 25.9459 1.41624 26.1536 1.05393 26.4413L1.98676 27.616ZM2.97875 26.816L3.93438 27.9722C6.03481 26.2361 7.70241 24.7967 8.92743 23.6592L7.90675 22.56L6.88608 21.4608C5.72176 22.542 4.10403 23.9399 2.02312 25.6598L2.97875 26.816ZM7.90675 22.56L8.91769 23.6681C10.2094 22.4898 11.3123 21.2409 12.2167 19.919L10.9788 19.072L9.74079 18.225C8.98124 19.3351 8.03614 20.4116 6.89581 21.4518L7.90675 22.56ZM10.9788 19.072L12.2167 19.919C13.1719 18.5229 13.7268 17.0487 13.7268 15.52H12.2268H10.7268C10.7268 16.2953 10.4496 17.1891 9.74079 18.225L10.9788 19.072ZM12.2268 15.52H13.7268C13.7268 14.4264 13.4732 13.3616 12.7752 12.5167L11.6188 13.472L10.4623 14.4273C10.575 14.5637 10.7268 14.8642 10.7268 15.52H12.2268ZM11.6188 13.472L12.7752 12.5167C12.01 11.5904 10.9202 11.236 9.79475 11.236V12.736V14.236C10.2907 14.236 10.4169 14.3723 10.4623 14.4273L11.6188 13.472ZM9.79475 12.736V11.236C8.53894 11.236 7.4469 11.7461 6.67972 12.7574L7.87476 13.664L9.06979 14.5706C9.24127 14.3445 9.42923 14.236 9.79475 14.236V12.736ZM7.87476 13.664L6.67475 12.764C5.95783 13.7199 5.70275 14.9405 5.70275 16.224H7.20275H8.70275C8.70275 15.2888 8.89568 14.8028 9.07475 14.564L7.87476 13.664ZM7.20275 16.224V14.724H1.92275V16.224V17.724H7.20275V16.224ZM1.92275 16.224L3.42234 16.2593C3.46059 14.6334 3.80231 13.3884 4.36298 12.4484L3.07475 11.68L1.78652 10.9116C0.89653 12.4036 0.470245 14.1879 0.423172 16.1887L1.92275 16.224ZM3.07475 11.68L4.35301 12.4649C4.96121 11.4744 5.72218 10.7848 6.63821 10.3432L5.98676 8.992L5.3353 7.64085C3.862 8.35119 2.68163 9.45361 1.7965 10.8951L3.07475 11.68ZM5.98676 8.992L6.62888 10.3476C7.62589 9.87534 8.7477 9.628 10.0188 9.628V8.128V6.628C8.34582 6.628 6.77962 6.95666 5.34463 7.63639L5.98676 8.992ZM10.0188 8.128V9.628C12.3156 9.628 13.7748 10.2142 14.6774 11.1319L15.7468 10.08L16.8161 9.02814C15.1587 7.3431 12.7993 6.628 10.0188 6.628V8.128ZM15.7468 10.08L14.6861 11.1407C15.6671 12.1216 16.1988 13.4163 16.1988 15.168H17.6988H19.1988C19.1988 12.7384 18.4291 10.6411 16.8074 9.01934L15.7468 10.08ZM17.6988 15.168H16.1988C16.1988 17.0786 15.5565 18.8786 14.1877 20.6036L15.3628 21.536L16.5378 22.4684C18.2837 20.268 19.1988 17.8228 19.1988 15.168H17.6988ZM15.3628 21.536L14.1927 20.5974C12.7245 22.4277 10.8318 24.2448 8.49568 26.0435L9.41075 27.232L10.3258 28.4205C12.811 26.5072 14.8864 24.527 16.5328 22.4746L15.3628 21.536ZM9.41075 27.232V28.732H18.0508V27.232V25.732H9.41075V27.232ZM18.0508 27.232H16.5508V31.68H18.0508H19.5508V27.232H18.0508ZM18.0508 31.68V30.18H1.98676V31.68V33.18H18.0508V31.68ZM1.98676 31.68H3.48676V27.616H1.98676H0.486755V31.68H1.98676ZM20.908 27.84H19.408V29.34H20.908V27.84ZM20.908 23.424L19.6786 22.5645L19.408 22.9517V23.424H20.908ZM31.02 8.96V7.46H30.2385L29.7906 8.10054L31.02 8.96ZM37.132 8.96H38.632V7.46H37.132V8.96ZM37.132 23.104H35.632V24.604H37.132V23.104ZM39.756 23.104H41.256V21.604H39.756V23.104ZM39.756 27.84V29.34H41.256V27.84H39.756ZM37.132 27.84V26.34H35.632V27.84H37.132ZM37.132 32V33.5H38.632V32H37.132ZM31.66 32H30.16V33.5H31.66V32ZM31.66 27.84H33.16V26.34H31.66V27.84ZM32.044 14.976H33.544V9.9891L30.7929 14.1485L32.044 14.976ZM26.668 23.104L25.4169 22.2765L23.8775 24.604H26.668V23.104ZM32.044 23.104V24.604H33.544V23.104H32.044ZM20.908 27.84H22.408V23.424H20.908H19.408V27.84H20.908ZM20.908 23.424L22.1374 24.2835L32.2494 9.81946L31.02 8.96L29.7906 8.10054L19.6786 22.5645L20.908 23.424ZM31.02 8.96V10.46H37.132V8.96V7.46H31.02V8.96ZM37.132 8.96H35.632V23.104H37.132H38.632V8.96H37.132ZM37.132 23.104V24.604H39.756V23.104V21.604H37.132V23.104ZM39.756 23.104H38.256V27.84H39.756H41.256V23.104H39.756ZM39.756 27.84V26.34H37.132V27.84V29.34H39.756V27.84ZM37.132 27.84H35.632V32H37.132H38.632V27.84H37.132ZM37.132 32V30.5H31.66V32V33.5H37.132V32ZM31.66 32H33.16V27.84H31.66H30.16V32H31.66ZM31.66 27.84V26.34H20.908V27.84V29.34H31.66V27.84ZM32.044 14.976L30.7929 14.1485L25.4169 22.2765L26.668 23.104L27.9191 23.9315L33.2951 15.8035L32.044 14.976ZM26.668 23.104V24.604H32.044V23.104V21.604H26.668V23.104ZM32.044 23.104H33.544V14.976H32.044H30.544V23.104H32.044ZM55.4922 1.6L56.9522 1.94413L57.3869 0.0999985H55.4922V1.6ZM46.9163 37.984V39.484H48.1038L48.3763 38.3281L46.9163 37.984ZM41.6363 37.984L40.1763 37.6399L39.7416 39.484H41.6363V37.984ZM50.2122 1.6V0.0999985H49.0247L48.7523 1.25587L50.2122 1.6ZM55.4922 1.6L54.0323 1.25587L45.4563 37.6399L46.9163 37.984L48.3763 38.3281L56.9522 1.94413L55.4922 1.6ZM46.9163 37.984V36.484H41.6363V37.984V39.484H46.9163V37.984ZM41.6363 37.984L43.0962 38.3281L51.6722 1.94413L50.2122 1.6L48.7523 1.25587L40.1763 37.6399L41.6363 37.984ZM50.2122 1.6V3.1H55.4922V1.6V0.0999985H50.2122V1.6ZM72.4883 12.736L73.8727 13.3132L73.9883 13.0362V12.736H72.4883ZM64.4563 32V33.5H65.456L65.8407 32.5772L64.4563 32ZM58.8563 32L57.4811 31.4009L56.5666 33.5H58.8563V32ZM66.9843 13.344L68.3594 13.9431L69.274 11.844H66.9843V13.344ZM57.0323 13.344H55.5323V14.844H57.0323V13.344ZM57.0323 8.672V7.172H55.5323V8.672H57.0323ZM72.4883 8.672H73.9883V7.172H72.4883V8.672ZM72.4883 12.736L71.1038 12.1587L63.0718 31.4228L64.4563 32L65.8407 32.5772L73.8727 13.3132L72.4883 12.736ZM64.4563 32V30.5H58.8563V32V33.5H64.4563V32ZM58.8563 32L60.2314 32.5991L68.3594 13.9431L66.9843 13.344L65.6091 12.7449L57.4811 31.4009L58.8563 32ZM66.9843 13.344V11.844H57.0323V13.344V14.844H66.9843V13.344ZM57.0323 13.344H58.5323V8.672H57.0323H55.5323V13.344H57.0323ZM57.0323 8.672V10.172H72.4883V8.672V7.172H57.0323V8.672ZM72.4883 8.672H70.9883V12.736H72.4883H73.9883V8.672H72.4883Z" fill="#DADBDD" mask="url(#path-1-outside-1_516_1783)"/>
</svg>
