<svg width="70" height="28" viewBox="0 0 70 28" fill="none" xmlns="http://www.w3.org/2000/svg">
<mask id="path-1-outside-1_530_2291" maskUnits="userSpaceOnUse" x="0" y="-0.5" width="70" height="28" fill="black">
<rect fill="white" y="-0.5" width="70" height="28"/>
<path d="M7.36738 18.652C7.68738 20.3373 8.66871 21.18 10.3114 21.18C11.442 21.18 12.242 20.6787 12.7114 19.676C13.1807 18.6733 13.4154 17.0413 13.4154 14.78C12.946 15.4413 12.306 15.9533 11.4954 16.316C10.6847 16.6787 9.77804 16.86 8.77538 16.86C7.41004 16.86 6.19404 16.5827 5.12738 16.028C4.06071 15.452 3.21804 14.6093 2.59938 13.5C2.00204 12.3693 1.70338 11.004 1.70338 9.404C1.70338 7.82533 2.02338 6.44933 2.66338 5.276C3.32471 4.10267 4.25271 3.196 5.44738 2.556C6.66338 1.916 8.09271 1.596 9.73538 1.596C12.8927 1.596 15.1007 2.57733 16.3594 4.54C17.618 6.50267 18.2474 9.39333 18.2474 13.212C18.2474 15.9853 17.9914 18.2787 17.4794 20.092C16.9887 21.884 16.146 23.2493 14.9514 24.188C13.778 25.1267 12.1674 25.596 10.1194 25.596C8.49804 25.596 7.11138 25.276 5.95938 24.636C4.82871 23.996 3.95404 23.1533 3.33538 22.108C2.73804 21.0627 2.39671 19.9107 2.31138 18.652H7.36738ZM10.0234 12.54C10.9194 12.54 11.634 12.2733 12.1674 11.74C12.7007 11.1853 12.9674 10.4387 12.9674 9.5C12.9674 8.476 12.69 7.68667 12.1354 7.132C11.5807 6.57733 10.834 6.3 9.89538 6.3C8.95671 6.3 8.21004 6.588 7.65538 7.164C7.12204 7.71867 6.85538 8.48667 6.85538 9.468C6.85538 10.3853 7.12204 11.132 7.65538 11.708C8.21004 12.2627 8.99938 12.54 10.0234 12.54ZM25.3269 12.956C23.3215 11.8893 22.3189 10.2147 22.3189 7.932C22.3189 6.78 22.6175 5.73467 23.2149 4.796C23.8122 3.836 24.7189 3.07867 25.9349 2.524C27.1509 1.948 28.6442 1.66 30.4149 1.66C32.1855 1.66 33.6682 1.948 34.8629 2.524C36.0789 3.07867 36.9855 3.836 37.5829 4.796C38.1802 5.73467 38.4789 6.78 38.4789 7.932C38.4789 9.084 38.2015 10.0867 37.6469 10.94C37.1135 11.7933 36.3882 12.4653 35.4709 12.956C36.6229 13.5107 37.5082 14.2787 38.1269 15.26C38.7455 16.22 39.0549 17.3507 39.0549 18.652C39.0549 20.1667 38.6709 21.4787 37.9029 22.588C37.1349 23.676 36.0895 24.508 34.7669 25.084C33.4655 25.66 32.0149 25.948 30.4149 25.948C28.8149 25.948 27.3535 25.66 26.0309 25.084C24.7295 24.508 23.6949 23.676 22.9269 22.588C22.1589 21.4787 21.7749 20.1667 21.7749 18.652C21.7749 17.3293 22.0842 16.188 22.7029 15.228C23.3215 14.2467 24.1962 13.4893 25.3269 12.956ZM33.1669 8.764C33.1669 7.88933 32.9109 7.21733 32.3989 6.748C31.9082 6.25733 31.2469 6.012 30.4149 6.012C29.5829 6.012 28.9109 6.25733 28.3989 6.748C27.9082 7.23867 27.6629 7.92133 27.6629 8.796C27.6629 9.628 27.9189 10.2893 28.4309 10.78C28.9429 11.2493 29.6042 11.484 30.4149 11.484C31.2255 11.484 31.8869 11.2387 32.3989 10.748C32.9109 10.2573 33.1669 9.596 33.1669 8.764ZM30.4149 15.324C29.4122 15.324 28.6015 15.6013 27.9829 16.156C27.3642 16.6893 27.0549 17.436 27.0549 18.396C27.0549 19.292 27.3535 20.028 27.9509 20.604C28.5695 21.18 29.3909 21.468 30.4149 21.468C31.4389 21.468 32.2389 21.18 32.8149 20.604C33.4122 20.028 33.7109 19.292 33.7109 18.396C33.7109 17.4573 33.4015 16.7107 32.7829 16.156C32.1855 15.6013 31.3962 15.324 30.4149 15.324ZM42.1089 8.028C42.1089 6.3 42.5995 4.96667 43.5809 4.028C44.5835 3.08933 45.8742 2.62 47.4529 2.62C49.0315 2.62 50.3115 3.08933 51.2929 4.028C52.2742 4.96667 52.7649 6.3 52.7649 8.028C52.7649 9.756 52.2742 11.0893 51.2929 12.028C50.3115 12.9667 49.0315 13.436 47.4529 13.436C45.8742 13.436 44.5835 12.9667 43.5809 12.028C42.5995 11.0893 42.1089 9.756 42.1089 8.028ZM63.8369 2.972L51.5169 25.5H46.2369L58.5569 2.972H63.8369ZM47.4209 5.82C46.3969 5.82 45.8849 6.556 45.8849 8.028C45.8849 9.47867 46.3969 10.204 47.4209 10.204C47.9115 10.204 48.2955 10.0227 48.5729 9.66C48.8502 9.29733 48.9889 8.75333 48.9889 8.028C48.9889 6.556 48.4662 5.82 47.4209 5.82ZM57.3409 20.444C57.3409 18.716 57.8315 17.3827 58.8129 16.444C59.7942 15.5053 61.0742 15.036 62.6529 15.036C64.2315 15.036 65.5115 15.5053 66.4929 16.444C67.4742 17.3827 67.9649 18.716 67.9649 20.444C67.9649 22.172 67.4742 23.5053 66.4929 24.444C65.5115 25.3827 64.2315 25.852 62.6529 25.852C61.0742 25.852 59.7942 25.3827 58.8129 24.444C57.8315 23.5053 57.3409 22.172 57.3409 20.444ZM62.6209 18.236C62.1302 18.236 61.7462 18.4173 61.4689 18.78C61.2129 19.1427 61.0849 19.6973 61.0849 20.444C61.0849 21.8947 61.5969 22.62 62.6209 22.62C63.1115 22.62 63.4955 22.4387 63.7729 22.076C64.0502 21.7133 64.1889 21.1693 64.1889 20.444C64.1889 19.7187 64.0502 19.1747 63.7729 18.812C63.4955 18.428 63.1115 18.236 62.6209 18.236Z"/>
</mask>
<path d="M7.36738 18.652L8.84105 18.3722L8.60937 17.152H7.36738V18.652ZM12.7114 19.676L14.0699 20.3119V20.3119L12.7114 19.676ZM13.4154 14.78H14.9154V10.0746L12.1921 13.9119L13.4154 14.78ZM11.4954 16.316L12.1079 17.6852L11.4954 16.316ZM5.12737 16.028L4.41465 17.3479L4.42496 17.3534L4.43535 17.3588L5.12737 16.028ZM2.59938 13.5L1.27309 14.2007L1.28104 14.2157L1.28933 14.2306L2.59938 13.5ZM2.66338 5.276L1.35665 4.53948L1.35152 4.54857L1.34653 4.55772L2.66338 5.276ZM5.44737 2.556L4.74873 1.22859L4.73904 1.23378L5.44737 2.556ZM16.3594 4.54L17.622 3.73025L17.622 3.73025L16.3594 4.54ZM17.4794 20.092L16.0358 19.6844L16.0326 19.6959L17.4794 20.092ZM14.9514 24.188L14.0246 23.0085L14.0143 23.0167L14.9514 24.188ZM5.95937 24.636L5.22045 25.9414L5.23091 25.9472L5.95937 24.636ZM3.33537 22.108L2.03301 22.8522L2.03868 22.8621L2.04451 22.872L3.33537 22.108ZM2.31137 18.652V17.152H0.706238L0.814812 18.7535L2.31137 18.652ZM12.1674 11.74L13.228 12.8007L13.2384 12.7903L13.2486 12.7797L12.1674 11.74ZM12.1354 7.132L11.0747 8.19266V8.19266L12.1354 7.132ZM7.65537 7.164L6.5749 6.12354L6.57413 6.12434L7.65537 7.164ZM7.65537 11.708L6.55473 12.7271L6.57433 12.7483L6.59472 12.7687L7.65537 11.708ZM7.36738 18.652L5.89371 18.9318C6.09639 19.9993 6.5442 20.9802 7.36617 21.686C8.19582 22.3984 9.23096 22.68 10.3114 22.68V21.18V19.68C9.74912 19.68 9.47226 19.5402 9.32058 19.41C9.16122 19.2731 8.95836 18.99 8.84105 18.3722L7.36738 18.652ZM10.3114 21.18V22.68C11.1023 22.68 11.8736 22.5026 12.5559 22.075C13.2402 21.6462 13.7344 21.0286 14.0699 20.3119L12.7114 19.676L11.3528 19.0401C11.219 19.326 11.0786 19.4604 10.9629 19.533C10.8451 19.6067 10.6512 19.68 10.3114 19.68V21.18ZM12.7114 19.676L14.0699 20.3119C14.6871 18.9933 14.9154 17.0787 14.9154 14.78H13.4154H11.9154C11.9154 17.0039 11.6743 18.3534 11.3528 19.0401L12.7114 19.676ZM13.4154 14.78L12.1921 13.9119C11.8924 14.3341 11.4728 14.6828 10.8828 14.9468L11.4954 16.316L12.1079 17.6852C13.1393 17.2238 13.9996 16.5485 14.6386 15.6481L13.4154 14.78ZM11.4954 16.316L10.8828 14.9468C10.2883 15.2128 9.59418 15.36 8.77538 15.36V16.86V18.36C9.9619 18.36 11.0811 18.1446 12.1079 17.6852L11.4954 16.316ZM8.77538 16.86V15.36C7.61798 15.36 6.64487 15.1264 5.8194 14.6972L5.12737 16.028L4.43535 17.3588C5.74322 18.0389 7.2021 18.36 8.77538 18.36V16.86ZM5.12737 16.028L5.8401 14.7081C5.03686 14.2744 4.39606 13.642 3.90942 12.7694L2.59938 13.5L1.28933 14.2306C2.04002 15.5767 3.08456 16.6296 4.41465 17.3479L5.12737 16.028ZM2.59938 13.5L3.92567 12.7993C3.46754 11.9322 3.20338 10.8199 3.20338 9.404H1.70338H0.203377C0.203377 11.1881 0.536537 12.8065 1.27309 14.2007L2.59938 13.5ZM1.70338 9.404H3.20338C3.20338 8.03079 3.48046 6.9105 3.98022 5.99428L2.66338 5.276L1.34653 4.55772C0.566292 5.98816 0.203377 7.61987 0.203377 9.404H1.70338ZM2.66338 5.276L3.9701 6.01252C4.49068 5.0889 5.2104 4.38464 6.15571 3.87822L5.44737 2.556L4.73904 1.23378C3.29502 2.00736 2.15873 3.11643 1.35665 4.53948L2.66338 5.276ZM5.44737 2.556L6.146 3.88338C7.10828 3.37691 8.28883 3.096 9.73537 3.096V1.596V0.0959988C7.89659 0.0959988 6.21848 0.455086 4.74876 1.22862L5.44737 2.556ZM9.73537 1.596V3.096C12.5826 3.096 14.2072 3.96266 15.0967 5.34975L16.3594 4.54L17.622 3.73025C15.9942 1.192 13.2028 0.0959988 9.73537 0.0959988V1.596ZM16.3594 4.54L15.0967 5.34975C16.1305 6.96172 16.7474 9.51528 16.7474 13.212H18.2474H19.7474C19.7474 9.27139 19.1056 6.04361 17.622 3.73025L16.3594 4.54ZM18.2474 13.212H16.7474C16.7474 15.906 16.4973 18.0501 16.0358 19.6844L17.4794 20.092L18.9229 20.4996C19.4855 18.5072 19.7474 16.0647 19.7474 13.212H18.2474ZM17.4794 20.092L16.0326 19.6959C15.6076 21.2483 14.9145 22.3094 14.0246 23.0085L14.9514 24.188L15.8781 25.3675C17.3776 24.1893 18.3699 22.5197 18.9261 20.4881L17.4794 20.092ZM14.9514 24.188L14.0143 23.0167C13.1892 23.6768 11.9496 24.096 10.1194 24.096V25.596V27.096C12.3852 27.096 14.3669 26.5765 15.8884 25.3593L14.9514 24.188ZM10.1194 25.596V24.096C8.69485 24.096 7.57119 23.8155 6.68784 23.3248L5.95937 24.636L5.23091 25.9472C6.65156 26.7365 8.30124 27.096 10.1194 27.096V25.596ZM5.95937 24.636L6.69827 23.3306C5.77931 22.8104 5.10209 22.148 4.62624 21.344L3.33537 22.108L2.04451 22.872C2.80599 24.1586 3.87811 25.1816 5.22047 25.9414L5.95937 24.636ZM3.33537 22.108L4.63774 21.3638C4.15827 20.5247 3.87869 19.5941 3.80794 18.5505L2.31137 18.652L0.814812 18.7535C0.914726 20.2272 1.31781 21.6006 2.03301 22.8522L3.33537 22.108ZM2.31137 18.652V20.152H7.36738V18.652V17.152H2.31137V18.652ZM10.0234 12.54V14.04C11.2369 14.04 12.3613 13.6674 13.228 12.8007L12.1674 11.74L11.1067 10.6793C10.9068 10.8793 10.6018 11.04 10.0234 11.04V12.54ZM12.1674 11.74L13.2486 12.7797C14.1073 11.8867 14.4674 10.7361 14.4674 9.5H12.9674H11.4674C11.4674 10.1412 11.2942 10.484 11.0861 10.7003L12.1674 11.74ZM12.9674 9.5H14.4674C14.4674 8.20464 14.1103 6.98563 13.196 6.07134L12.1354 7.132L11.0747 8.19266C11.2698 8.3877 11.4674 8.74736 11.4674 9.5H12.9674ZM12.1354 7.132L13.196 6.07134C12.3059 5.18119 11.1481 4.8 9.89538 4.8V6.3V7.8C10.52 7.8 10.8555 7.97348 11.0747 8.19266L12.1354 7.132ZM9.89538 6.3V4.8C8.62591 4.8 7.46152 5.20281 6.5749 6.12354L7.65537 7.164L8.73586 8.20446C8.95856 7.97319 9.28751 7.8 9.89538 7.8V6.3ZM7.65537 7.164L6.57413 6.12434C5.70377 7.02951 5.35538 8.21033 5.35538 9.468H6.85538H8.35538C8.35538 8.763 8.54032 8.40782 8.73663 8.20366L7.65537 7.164ZM6.85538 9.468H5.35538C5.35538 10.6953 5.72195 11.8277 6.55473 12.7271L7.65537 11.708L8.75602 10.6889C8.52213 10.4363 8.35538 10.0754 8.35538 9.468H6.85538ZM7.65537 11.708L6.59472 12.7687C7.50901 13.683 8.72802 14.04 10.0234 14.04V12.54V11.04C9.27073 11.04 8.91107 10.8424 8.71603 10.6473L7.65537 11.708ZM25.3269 12.956L25.9668 14.3126L28.6723 13.0365L26.0313 11.6317L25.3269 12.956ZM23.2149 4.796L24.4804 5.60131L24.4844 5.5949L24.4885 5.58845L23.2149 4.796ZM25.9349 2.524L26.5574 3.88873L26.5672 3.88424L26.577 3.8796L25.9349 2.524ZM34.8629 2.524L34.2114 3.87515L34.2258 3.88209L34.2404 3.88873L34.8629 2.524ZM37.5829 4.796L36.3093 5.58845L36.3133 5.5949L36.3174 5.60131L37.5829 4.796ZM37.6469 10.94L36.3892 10.1225L36.3819 10.1337L36.3749 10.145L37.6469 10.94ZM35.4709 12.956L34.7634 11.6333L32.1592 13.0263L34.8202 14.3075L35.4709 12.956ZM38.1269 15.26L36.858 16.0599L36.862 16.0663L36.866 16.0726L38.1269 15.26ZM37.9029 22.588L39.1284 23.4531L39.1362 23.4418L37.9029 22.588ZM34.7669 25.084L34.168 23.7087L34.1598 23.7124L34.7669 25.084ZM26.0309 25.084L25.4237 26.4557L25.432 26.4593L26.0309 25.084ZM22.9269 22.588L21.6935 23.4419L21.7014 23.453L22.9269 22.588ZM22.7029 15.228L23.9637 16.0406L23.9678 16.0343L23.9718 16.028L22.7029 15.228ZM32.3989 6.748L31.3382 7.80866L31.3613 7.83171L31.3853 7.85373L32.3989 6.748ZM28.3989 6.748L27.361 5.66502L27.3495 5.67606L27.3382 5.68734L28.3989 6.748ZM28.4309 10.78L27.393 11.863L27.405 11.8745L27.4173 11.8857L28.4309 10.78ZM32.3989 10.748L31.361 9.66502V9.66502L32.3989 10.748ZM27.9829 16.156L28.9623 17.2921L28.9733 17.2826L28.9842 17.2729L27.9829 16.156ZM27.9509 20.604L26.9097 21.6838L26.9191 21.6929L26.9287 21.7018L27.9509 20.604ZM32.8149 20.604L31.7737 19.5242L31.7639 19.5337L31.7542 19.5433L32.8149 20.604ZM32.7829 16.156L31.7622 17.2552L31.7718 17.2641L31.7816 17.2729L32.7829 16.156ZM25.3269 12.956L26.0313 11.6317C25.2296 11.2052 24.6974 10.6966 24.3578 10.1295C24.018 9.56191 23.8189 8.8485 23.8189 7.932H22.3189H20.8189C20.8189 9.29817 21.1211 10.5634 21.7839 11.6705C22.447 12.7781 23.4189 13.6401 24.6225 14.2803L25.3269 12.956ZM22.3189 7.932H23.8189C23.8189 7.05463 24.0418 6.29048 24.4804 5.60131L23.2149 4.796L21.9494 3.99069C21.1933 5.17885 20.8189 6.50537 20.8189 7.932H22.3189ZM23.2149 4.796L24.4885 5.58845C24.9032 4.92192 25.5602 4.3436 26.5574 3.88873L25.9349 2.524L25.3124 1.15927C23.8776 1.81373 22.7212 2.75008 21.9413 4.00355L23.2149 4.796ZM25.9349 2.524L26.577 3.8796C27.5394 3.42375 28.7992 3.16 30.4149 3.16V1.66V0.159998C28.4893 0.159998 26.7624 0.472242 25.2927 1.16839L25.9349 2.524ZM30.4149 1.66V3.16C32.032 3.16 33.2762 3.42422 34.2114 3.87515L34.8629 2.524L35.5143 1.17285C34.0602 0.471774 32.3391 0.159998 30.4149 0.159998V1.66ZM34.8629 2.524L34.2404 3.88873C35.2376 4.3436 35.8946 4.92192 36.3093 5.58845L37.5829 4.796L38.8565 4.00355C38.0765 2.75008 36.9202 1.81373 35.4854 1.15927L34.8629 2.524ZM37.5829 4.796L36.3174 5.60131C36.7559 6.29048 36.9789 7.05463 36.9789 7.932H38.4789H39.9789C39.9789 6.50537 39.6045 5.17885 38.8484 3.99069L37.5829 4.796ZM38.4789 7.932H36.9789C36.9789 8.83324 36.7655 9.54358 36.3892 10.1225L37.6469 10.94L38.9045 11.7575C39.6376 10.6298 39.9789 9.33476 39.9789 7.932H38.4789ZM37.6469 10.94L36.3749 10.145C35.9852 10.7684 35.4579 11.2619 34.7634 11.6333L35.4709 12.956L36.1784 14.2787C37.3186 13.6688 38.2419 12.8182 38.9189 11.735L37.6469 10.94ZM35.4709 12.956L34.8202 14.3075C35.7452 14.7529 36.4046 15.3408 36.858 16.0599L38.1269 15.26L39.3958 14.46C38.6118 13.2165 37.5005 12.2684 36.1216 11.6045L35.4709 12.956ZM38.1269 15.26L36.866 16.0726C37.3076 16.7578 37.5549 17.5976 37.5549 18.652H39.0549H40.5549C40.5549 17.1038 40.1835 15.6822 39.3877 14.4474L38.1269 15.26ZM39.0549 18.652H37.5549C37.5549 19.9005 37.243 20.9059 36.6696 21.7342L37.9029 22.588L39.1362 23.4418C40.0987 22.0514 40.5549 20.4329 40.5549 18.652H39.0549ZM37.9029 22.588L36.6774 21.723C36.0808 22.5682 35.2608 23.2329 34.168 23.7087L34.7669 25.084L35.3658 26.4593C36.9183 25.7831 38.189 24.7838 39.1283 23.453L37.9029 22.588ZM34.7669 25.084L34.1598 23.7124C33.0721 24.1938 31.8318 24.448 30.4149 24.448V25.948V27.448C32.198 27.448 33.859 27.1262 35.374 26.4556L34.7669 25.084ZM30.4149 25.948V24.448C28.9984 24.448 27.7438 24.1939 26.6298 23.7087L26.0309 25.084L25.432 26.4593C26.9632 27.1261 28.6314 27.448 30.4149 27.448V25.948ZM26.0309 25.084L26.638 23.7124C25.5671 23.2384 24.7531 22.574 24.1523 21.723L22.9269 22.588L21.7014 23.453C22.6367 24.778 23.892 25.7776 25.4238 26.4556L26.0309 25.084ZM22.9269 22.588L24.1602 21.7342C23.5867 20.9059 23.2749 19.9005 23.2749 18.652H21.7749H20.2749C20.2749 20.4329 20.731 22.0514 21.6936 23.4418L22.9269 22.588ZM21.7749 18.652H23.2749C23.2749 17.5709 23.5246 16.7219 23.9637 16.0406L22.7029 15.228L21.442 14.4154C20.6438 15.6541 20.2749 17.0877 20.2749 18.652H21.7749ZM22.7029 15.228L23.9718 16.028C24.4262 15.3071 25.0736 14.734 25.9668 14.3126L25.3269 12.956L24.687 11.5994C23.3188 12.2447 22.2169 13.1862 21.434 14.428L22.7029 15.228ZM33.1669 8.764H34.6669C34.6669 7.58537 34.311 6.46589 33.4125 5.64227L32.3989 6.748L31.3853 7.85373C31.5108 7.96877 31.6669 8.1933 31.6669 8.764H33.1669ZM32.3989 6.748L33.4595 5.68734C32.6328 4.86062 31.5599 4.512 30.4149 4.512V6.012V7.512C30.9338 7.512 31.1836 7.65404 31.3382 7.80866L32.3989 6.748ZM30.4149 6.012V4.512C29.2678 4.512 28.2001 4.8609 27.361 5.66502L28.3989 6.748L29.4367 7.83098C29.6217 7.65377 29.8979 7.512 30.4149 7.512V6.012ZM28.3989 6.748L27.3382 5.68734C26.4975 6.52809 26.1629 7.63267 26.1629 8.796H27.6629H29.1629C29.1629 8.21 29.319 7.94924 29.4595 7.80866L28.3989 6.748ZM27.6629 8.796H26.1629C26.1629 9.96003 26.5346 11.0403 27.393 11.863L28.4309 10.78L29.4687 9.69702C29.3032 9.53838 29.1629 9.29597 29.1629 8.796H27.6629ZM28.4309 10.78L27.4173 11.8857C28.2515 12.6505 29.2958 12.984 30.4149 12.984V11.484V9.984C29.9127 9.984 29.6342 9.8482 29.4445 9.67427L28.4309 10.78ZM30.4149 11.484V12.984C31.5526 12.984 32.6051 12.6279 33.4367 11.831L32.3989 10.748L31.361 9.66502C31.1686 9.84939 30.8985 9.984 30.4149 9.984V11.484ZM32.3989 10.748L33.4367 11.831C34.2952 11.0083 34.6669 9.92803 34.6669 8.764H33.1669H31.6669C31.6669 9.26397 31.5266 9.50638 31.361 9.66502L32.3989 10.748ZM30.4149 15.324V13.824C29.1229 13.824 27.9298 14.189 26.9816 15.0391L27.9829 16.156L28.9842 17.2729C29.2732 17.0137 29.7015 16.824 30.4149 16.824V15.324ZM27.9829 16.156L27.0035 15.0199C25.9953 15.889 25.5549 17.084 25.5549 18.396H27.0549H28.5549C28.5549 17.788 28.7332 17.4896 28.9623 17.2921L27.9829 16.156ZM27.0549 18.396H25.5549C25.5549 19.6632 25.9942 20.8009 26.9097 21.6838L27.9509 20.604L28.9921 19.5242C28.7129 19.2551 28.5549 18.9208 28.5549 18.396H27.0549ZM27.9509 20.604L26.9287 21.7018C27.8813 22.5887 29.0962 22.968 30.4149 22.968V21.468V19.968C29.6855 19.968 29.2578 19.7713 28.973 19.5062L27.9509 20.604ZM30.4149 21.468V22.968C31.7289 22.968 32.9502 22.59 33.8755 21.6647L32.8149 20.604L31.7542 19.5433C31.5275 19.77 31.1489 19.968 30.4149 19.968V21.468ZM32.8149 20.604L33.8561 21.6838C34.7716 20.8009 35.2109 19.6632 35.2109 18.396H33.7109H32.2109C32.2109 18.9208 32.0528 19.2551 31.7737 19.5242L32.8149 20.604ZM33.7109 18.396H35.2109C35.2109 17.0925 34.7632 15.9169 33.7842 15.0391L32.7829 16.156L31.7816 17.2729C32.0399 17.5045 32.2109 17.8222 32.2109 18.396H33.7109ZM32.7829 16.156L33.8036 15.0568C32.8743 14.1939 31.6932 13.824 30.4149 13.824V15.324V16.824C31.0992 16.824 31.4968 17.0088 31.7622 17.2552L32.7829 16.156ZM43.5809 4.028L42.5557 2.93297L42.5499 2.93847L42.544 2.94404L43.5809 4.028ZM51.2929 4.028L50.256 5.11196V5.11196L51.2929 4.028ZM51.2929 12.028L50.256 10.944L51.2929 12.028ZM43.5809 12.028L42.544 13.112L42.5499 13.1175L42.5557 13.123L43.5809 12.028ZM63.8369 2.972L65.1529 3.69172L66.3668 1.472H63.8369V2.972ZM51.5169 25.5V27H52.4062L52.8329 26.2197L51.5169 25.5ZM46.2369 25.5L44.9208 24.7803L43.7069 27H46.2369V25.5ZM58.5569 2.972V1.472H57.6675L57.2408 2.25228L58.5569 2.972ZM48.5729 9.66L47.3813 8.74882V8.74882L48.5729 9.66ZM58.8129 16.444L57.776 15.36L58.8129 16.444ZM66.4929 16.444L67.5297 15.36L66.4929 16.444ZM66.4929 24.444L67.5297 25.528L66.4929 24.444ZM58.8129 24.444L57.776 25.528L58.8129 24.444ZM61.4689 18.78L60.2773 17.8688L60.2599 17.8916L60.2434 17.915L61.4689 18.78ZM63.7729 22.076L62.5813 21.1648V21.1648L63.7729 22.076ZM63.7729 18.812L62.5569 19.6902L62.5689 19.7069L62.5813 19.7232L63.7729 18.812ZM42.1089 8.028H43.6089C43.6089 6.59143 44.0078 5.69534 44.6177 5.11196L43.5809 4.028L42.544 2.94404C41.1913 4.23799 40.6089 6.00856 40.6089 8.028H42.1089ZM43.5809 4.028L44.606 5.12303C45.2892 4.4835 46.1939 4.12 47.4529 4.12V2.62V1.12C45.5546 1.12 43.8779 1.69517 42.5557 2.93297L43.5809 4.028ZM47.4529 2.62V4.12C48.7126 4.12 49.599 4.48352 50.256 5.11196L51.2929 4.028L52.3297 2.94404C51.0241 1.69515 49.3504 1.12 47.4529 1.12V2.62ZM51.2929 4.028L50.256 5.11196C50.8659 5.69534 51.2649 6.59143 51.2649 8.028H52.7649H54.2649C54.2649 6.00856 53.6825 4.23799 52.3297 2.94404L51.2929 4.028ZM52.7649 8.028H51.2649C51.2649 9.46456 50.8659 10.3607 50.256 10.944L51.2929 12.028L52.3297 13.112C53.6825 11.818 54.2649 10.0474 54.2649 8.028H52.7649ZM51.2929 12.028L50.256 10.944C49.599 11.5725 48.7126 11.936 47.4529 11.936V13.436V14.936C49.3504 14.936 51.0241 14.3609 52.3297 13.112L51.2929 12.028ZM47.4529 13.436V11.936C46.1939 11.936 45.2892 11.5725 44.606 10.933L43.5809 12.028L42.5557 13.123C43.8779 14.3608 45.5546 14.936 47.4529 14.936V13.436ZM43.5809 12.028L44.6177 10.944C44.0078 10.3607 43.6089 9.46456 43.6089 8.028H42.1089H40.6089C40.6089 10.0474 41.1913 11.818 42.544 13.112L43.5809 12.028ZM63.8369 2.972L62.5208 2.25228L50.2008 24.7803L51.5169 25.5L52.8329 26.2197L65.1529 3.69172L63.8369 2.972ZM51.5169 25.5V24H46.2369V25.5V27H51.5169V25.5ZM46.2369 25.5L47.5529 26.2197L59.8729 3.69172L58.5569 2.972L57.2408 2.25228L44.9208 24.7803L46.2369 25.5ZM58.5569 2.972V4.472H63.8369V2.972V1.472H58.5569V2.972ZM47.4209 5.82V4.32C46.4986 4.32 45.6171 4.68227 45.0375 5.5154C44.5267 6.24968 44.3849 7.16429 44.3849 8.028H45.8849H47.3849C47.3849 7.74216 47.4102 7.53846 47.4421 7.40084C47.474 7.26338 47.5056 7.22088 47.5002 7.2286C47.4882 7.24596 47.4516 7.28459 47.3971 7.31072C47.3499 7.33333 47.3444 7.32 47.4209 7.32V5.82ZM45.8849 8.028H44.3849C44.3849 8.88408 44.5277 9.7944 45.0434 10.525C45.6267 11.3513 46.5075 11.704 47.4209 11.704V10.204V8.704C47.3415 8.704 47.3442 8.69027 47.3894 8.71163C47.4423 8.73661 47.4801 8.77476 47.4943 8.79497C47.5019 8.80572 47.4719 8.76783 47.441 8.63644C47.41 8.50461 47.3849 8.30725 47.3849 8.028H45.8849ZM47.4209 10.204V11.704C48.3383 11.704 49.1796 11.3359 49.7644 10.5712L48.5729 9.66L47.3813 8.74882C47.3772 8.75421 47.3802 8.74923 47.392 8.73957C47.4041 8.72961 47.4195 8.71957 47.4364 8.71163C47.4443 8.70789 47.4511 8.70528 47.4563 8.70355C47.4589 8.70271 47.4609 8.70212 47.4623 8.70175C47.4637 8.70137 47.4644 8.70123 47.4644 8.70123C47.4643 8.70124 47.4611 8.70192 47.454 8.70261C47.4469 8.7033 47.436 8.704 47.4209 8.704V10.204ZM48.5729 9.66L49.7644 10.5712C50.3291 9.83275 50.4889 8.9022 50.4889 8.028H48.9889H47.4889C47.4889 8.29997 47.4624 8.4878 47.4314 8.60949C47.4008 8.72923 47.3724 8.76057 47.3813 8.74882L48.5729 9.66ZM48.9889 8.028H50.4889C50.4889 7.15998 50.343 6.24012 49.8199 5.5035C49.2298 4.67255 48.3413 4.32 47.4209 4.32V5.82V7.32C47.5068 7.32 47.5099 7.33482 47.4695 7.31586C47.4213 7.29322 47.3864 7.2581 47.3739 7.2405C47.368 7.23229 47.3994 7.27299 47.4312 7.40752C47.4632 7.5426 47.4889 7.74395 47.4889 8.028H48.9889ZM57.3409 20.444H58.8409C58.8409 19.0074 59.2398 18.1113 59.8497 17.528L58.8129 16.444L57.776 15.36C56.4233 16.654 55.8409 18.4246 55.8409 20.444H57.3409ZM58.8129 16.444L59.8497 17.528C60.5067 16.8995 61.3931 16.536 62.6529 16.536V15.036V13.536C60.7553 13.536 59.0817 14.1111 57.776 15.36L58.8129 16.444ZM62.6529 15.036V16.536C63.9126 16.536 64.799 16.8995 65.456 17.528L66.4929 16.444L67.5297 15.36C66.2241 14.1111 64.5504 13.536 62.6529 13.536V15.036ZM66.4929 16.444L65.456 17.528C66.0659 18.1113 66.4649 19.0074 66.4649 20.444H67.9649H69.4649C69.4649 18.4246 68.8825 16.654 67.5297 15.36L66.4929 16.444ZM67.9649 20.444H66.4649C66.4649 21.8806 66.0659 22.7767 65.456 23.36L66.4929 24.444L67.5297 25.528C68.8825 24.234 69.4649 22.4634 69.4649 20.444H67.9649ZM66.4929 24.444L65.456 23.36C64.799 23.9885 63.9126 24.352 62.6529 24.352V25.852V27.352C64.5504 27.352 66.2241 26.7769 67.5297 25.528L66.4929 24.444ZM62.6529 25.852V24.352C61.3931 24.352 60.5067 23.9885 59.8497 23.36L58.8129 24.444L57.776 25.528C59.0817 26.7769 60.7553 27.352 62.6529 27.352V25.852ZM58.8129 24.444L59.8497 23.36C59.2398 22.7767 58.8409 21.8806 58.8409 20.444H57.3409H55.8409C55.8409 22.4634 56.4233 24.234 57.776 25.528L58.8129 24.444ZM62.6209 18.236V16.736C61.7034 16.736 60.8622 17.1041 60.2773 17.8688L61.4689 18.78L62.6604 19.6912C62.6645 19.6858 62.6615 19.6908 62.6498 19.7004C62.6377 19.7104 62.6222 19.7204 62.6054 19.7284C62.5975 19.7321 62.5907 19.7347 62.5854 19.7364C62.5829 19.7373 62.5809 19.7379 62.5795 19.7383C62.5781 19.7386 62.5773 19.7388 62.5774 19.7388C62.5774 19.7388 62.5807 19.7381 62.5877 19.7374C62.5948 19.7367 62.6057 19.736 62.6209 19.736V18.236ZM61.4689 18.78L60.2434 17.915C59.7238 18.6511 59.5849 19.5778 59.5849 20.444H61.0849H62.5849C62.5849 20.1512 62.6105 19.9439 62.6425 19.8053C62.6745 19.6663 62.7053 19.6295 62.6943 19.645L61.4689 18.78ZM61.0849 20.444H59.5849C59.5849 21.3001 59.7277 22.2104 60.2434 22.941C60.8267 23.7673 61.7075 24.12 62.6209 24.12V22.62V21.12C62.5415 21.12 62.5442 21.1063 62.5894 21.1276C62.6423 21.1526 62.6801 21.1908 62.6943 21.211C62.7019 21.2217 62.6719 21.1838 62.641 21.0524C62.61 20.9206 62.5849 20.7232 62.5849 20.444H61.0849ZM62.6209 22.62V24.12C63.5383 24.12 64.3796 23.7519 64.9644 22.9872L63.7729 22.076L62.5813 21.1648C62.5772 21.1702 62.5802 21.1652 62.592 21.1556C62.6041 21.1456 62.6195 21.1356 62.6364 21.1276C62.6443 21.1239 62.6511 21.1213 62.6563 21.1196C62.6589 21.1187 62.6609 21.1181 62.6623 21.1178C62.6637 21.1174 62.6644 21.1172 62.6644 21.1172C62.6644 21.1172 62.6611 21.1179 62.654 21.1186C62.6469 21.1193 62.636 21.12 62.6209 21.12V22.62ZM63.7729 22.076L64.9644 22.9872C65.5291 22.2488 65.6889 21.3182 65.6889 20.444H64.1889H62.6889C62.6889 20.716 62.6624 20.9038 62.6314 21.0255C62.6008 21.1452 62.5723 21.1766 62.5813 21.1648L63.7729 22.076ZM64.1889 20.444H65.6889C65.6889 19.5698 65.5291 18.6392 64.9644 17.9008L63.7729 18.812L62.5813 19.7232C62.5723 19.7114 62.6008 19.7428 62.6314 19.8625C62.6624 19.9842 62.6889 20.172 62.6889 20.444H64.1889ZM63.7729 18.812L64.9889 17.9338C64.4178 17.143 63.5728 16.736 62.6209 16.736V18.236V19.736C62.6456 19.736 62.6531 19.7384 62.6473 19.7371C62.6407 19.7357 62.6256 19.7314 62.6061 19.7216C62.5864 19.7118 62.5705 19.7005 62.5597 19.6911C62.5494 19.6822 62.5492 19.6797 62.5569 19.6902L63.7729 18.812Z" fill="#DADBDD" mask="url(#path-1-outside-1_530_2291)"/>
</svg>
