<svg width="261" height="47" viewBox="0 0 261 47" fill="none" xmlns="http://www.w3.org/2000/svg">
<mask id="path-1-outside-1_606_143" maskUnits="userSpaceOnUse" x="0" y="0" width="261" height="47" fill="black">
<rect fill="white" width="261" height="47"/>
<path d="M29.832 36.552H14.264L11.688 44H3.456L17.512 4.856H26.64L40.696 44H32.408L29.832 36.552ZM27.704 30.28L22.048 13.928L16.392 30.28H27.704ZM44.4939 28.376C44.4939 25.24 45.1099 22.4587 46.3419 20.032C47.6113 17.6053 49.3286 15.7387 51.4939 14.432C53.6593 13.1253 56.0673 12.472 58.7179 12.472C60.7339 12.472 62.6566 12.92 64.4859 13.816C66.3153 14.6747 67.7713 15.832 68.8539 17.288V2.56H76.8059V44H68.8539V39.408C67.8833 40.9387 66.5206 42.1707 64.7659 43.104C63.0113 44.0373 60.9766 44.504 58.6619 44.504C56.0486 44.504 53.6593 43.832 51.4939 42.488C49.3286 41.144 47.6113 39.2587 46.3419 36.832C45.1099 34.368 44.4939 31.5493 44.4939 28.376ZM68.9099 28.488C68.9099 26.584 68.5366 24.96 67.7899 23.616C67.0433 22.2347 66.0353 21.1893 64.7659 20.48C63.4966 19.7333 62.1339 19.36 60.6779 19.36C59.2219 19.36 57.8779 19.7147 56.6459 20.424C55.4139 21.1333 54.4059 22.1787 53.6219 23.56C52.8753 24.904 52.5019 26.5093 52.5019 28.376C52.5019 30.2427 52.8753 31.8853 53.6219 33.304C54.4059 34.6853 55.4139 35.7493 56.6459 36.496C57.9153 37.2427 59.2593 37.616 60.6779 37.616C62.1339 37.616 63.4966 37.2613 64.7659 36.552C66.0353 35.8053 67.0433 34.76 67.7899 33.416C68.5366 32.0347 68.9099 30.392 68.9099 28.488ZM97.9591 36.776L105.799 12.976H114.143L102.663 44H93.1431L81.7191 12.976H90.1191L97.9591 36.776ZM117.091 28.376C117.091 25.24 117.707 22.4587 118.939 20.032C120.208 17.6053 121.907 15.7387 124.035 14.432C126.2 13.1253 128.608 12.472 131.259 12.472C133.573 12.472 135.589 12.9387 137.307 13.872C139.061 14.8053 140.461 15.9813 141.507 17.4V12.976H149.403V44H141.507V39.464C140.499 40.92 139.099 42.1333 137.307 43.104C135.552 44.0373 133.517 44.504 131.203 44.504C128.589 44.504 126.2 43.832 124.035 42.488C121.907 41.144 120.208 39.2587 118.939 36.832C117.707 34.368 117.091 31.5493 117.091 28.376ZM141.507 28.488C141.507 26.584 141.133 24.96 140.387 23.616C139.64 22.2347 138.632 21.1893 137.363 20.48C136.093 19.7333 134.731 19.36 133.275 19.36C131.819 19.36 130.475 19.7147 129.243 20.424C128.011 21.1333 127.003 22.1787 126.219 23.56C125.472 24.904 125.099 26.5093 125.099 28.376C125.099 30.2427 125.472 31.8853 126.219 33.304C127.003 34.6853 128.011 35.7493 129.243 36.496C130.512 37.2427 131.856 37.616 133.275 37.616C134.731 37.616 136.093 37.2613 137.363 36.552C138.632 35.8053 139.64 34.76 140.387 33.416C141.133 32.0347 141.507 30.392 141.507 28.488ZM174.812 12.528C178.508 12.528 181.494 13.704 183.772 16.056C186.049 18.3707 187.188 21.6187 187.188 25.8V44H179.348V26.864C179.348 24.4 178.732 22.5147 177.5 21.208C176.268 19.864 174.588 19.192 172.46 19.192C170.294 19.192 168.577 19.864 167.308 21.208C166.076 22.5147 165.46 24.4 165.46 26.864V44H157.62V12.976H165.46V16.84C166.505 15.496 167.83 14.4507 169.436 13.704C171.078 12.92 172.87 12.528 174.812 12.528ZM193.187 28.488C193.187 25.2773 193.84 22.4773 195.147 20.088C196.454 17.6613 198.264 15.7947 200.579 14.488C202.894 13.144 205.544 12.472 208.531 12.472C212.376 12.472 215.55 13.4427 218.051 15.384C220.59 17.288 222.288 19.976 223.147 23.448H214.691C214.243 22.104 213.478 21.0587 212.395 20.312C211.35 19.528 210.043 19.136 208.475 19.136C206.235 19.136 204.462 19.9573 203.155 21.6C201.848 23.2053 201.195 25.5013 201.195 28.488C201.195 31.4373 201.848 33.7333 203.155 35.376C204.462 36.9813 206.235 37.784 208.475 37.784C211.648 37.784 213.72 36.3653 214.691 33.528H223.147C222.288 36.888 220.59 39.5573 218.051 41.536C215.512 43.5147 212.339 44.504 208.531 44.504C205.544 44.504 202.894 43.8507 200.579 42.544C198.264 41.2 196.454 39.3333 195.147 36.944C193.84 34.5173 193.187 31.6987 193.187 28.488ZM258.291 27.816C258.291 28.936 258.216 29.944 258.067 30.84H235.387C235.573 33.08 236.357 34.8347 237.739 36.104C239.12 37.3733 240.819 38.008 242.835 38.008C245.747 38.008 247.819 36.7573 249.051 34.256H257.507C256.611 37.2427 254.893 39.7067 252.355 41.648C249.816 43.552 246.699 44.504 243.003 44.504C240.016 44.504 237.328 43.8507 234.939 42.544C232.587 41.2 230.739 39.3147 229.395 36.888C228.088 34.4613 227.435 31.6613 227.435 28.488C227.435 25.2773 228.088 22.4587 229.395 20.032C230.701 17.6053 232.531 15.7387 234.883 14.432C237.235 13.1253 239.941 12.472 243.003 12.472C245.952 12.472 248.584 13.1067 250.899 14.376C253.251 15.6453 255.061 17.456 256.331 19.808C257.637 22.1227 258.291 24.792 258.291 27.816ZM250.171 25.576C250.133 23.56 249.405 21.9547 247.987 20.76C246.568 19.528 244.832 18.912 242.779 18.912C240.837 18.912 239.195 19.5093 237.851 20.704C236.544 21.8613 235.741 23.4853 235.443 25.576H250.171Z"/>
</mask>
<path d="M29.832 36.552L31.7221 35.8983L31.2565 34.552H29.832V36.552ZM14.264 36.552V34.552H12.8395L12.3739 35.8983L14.264 36.552ZM11.688 44V46H13.1125L13.5781 44.6537L11.688 44ZM3.456 44L1.57368 43.3241L0.612798 46H3.456V44ZM17.512 4.856V2.856H16.1051L15.6297 4.18008L17.512 4.856ZM26.64 4.856L28.5223 4.18008L28.0469 2.856H26.64V4.856ZM40.696 44V46H43.5392L42.5783 43.3241L40.696 44ZM32.408 44L30.5179 44.6537L30.9835 46H32.408V44ZM27.704 30.28V32.28H30.512L29.5941 29.6262L27.704 30.28ZM22.048 13.928L23.9381 13.2742L22.048 7.8097L20.1579 13.2742L22.048 13.928ZM16.392 30.28L14.5019 29.6262L13.584 32.28H16.392V30.28ZM29.832 36.552V34.552H14.264V36.552V38.552H29.832V36.552ZM14.264 36.552L12.3739 35.8983L9.79786 43.3463L11.688 44L13.5781 44.6537L16.1541 37.2057L14.264 36.552ZM11.688 44V42H3.456V44V46H11.688V44ZM3.456 44L5.33832 44.6759L19.3943 5.53191L17.512 4.856L15.6297 4.18008L1.57368 43.3241L3.456 44ZM17.512 4.856V6.856H26.64V4.856V2.856H17.512V4.856ZM26.64 4.856L24.7577 5.53191L38.8137 44.6759L40.696 44L42.5783 43.3241L28.5223 4.18008L26.64 4.856ZM40.696 44V42H32.408V44V46H40.696V44ZM32.408 44L34.2981 43.3463L31.7221 35.8983L29.832 36.552L27.9419 37.2057L30.5179 44.6537L32.408 44ZM27.704 30.28L29.5941 29.6262L23.9381 13.2742L22.048 13.928L20.1579 14.5818L25.8139 30.9338L27.704 30.28ZM22.048 13.928L20.1579 13.2742L14.5019 29.6262L16.392 30.28L18.2821 30.9338L23.9381 14.5818L22.048 13.928ZM16.392 30.28V32.28H27.704V30.28V28.28H16.392V30.28ZM46.3419 20.032L44.5697 19.105L44.5641 19.1158L44.5586 19.1266L46.3419 20.032ZM51.4939 14.432L52.5273 16.1444L52.5273 16.1444L51.4939 14.432ZM64.4859 13.816L63.6062 15.6121L63.6211 15.6194L63.6361 15.6265L64.4859 13.816ZM68.8539 17.288L67.249 18.4814L70.8539 23.3294V17.288H68.8539ZM68.8539 2.56V0.559999H66.8539V2.56H68.8539ZM76.8059 2.56H78.8059V0.559999H76.8059V2.56ZM76.8059 44V46H78.8059V44H76.8059ZM68.8539 44H66.8539V46H68.8539V44ZM68.8539 39.408H70.8539V32.5196L67.1649 38.3369L68.8539 39.408ZM64.7659 43.104L63.8267 41.3383L64.7659 43.104ZM51.4939 42.488L52.5487 40.7887L51.4939 42.488ZM46.3419 36.832L44.5531 37.7264L44.5613 37.7428L44.5697 37.759L46.3419 36.832ZM67.7899 23.616L66.0305 24.567L66.036 24.5772L66.0416 24.5873L67.7899 23.616ZM64.7659 20.48L63.7519 22.2039L63.771 22.2151L63.7903 22.2259L64.7659 20.48ZM56.6459 20.424L55.648 18.6908V18.6908L56.6459 20.424ZM53.6219 23.56L51.8826 22.5728L51.8781 22.5807L51.8736 22.5887L53.6219 23.56ZM53.6219 33.304L51.8521 34.2355L51.8669 34.2636L51.8826 34.2912L53.6219 33.304ZM56.6459 36.496L55.6093 38.2064L55.6206 38.2132L55.6319 38.2199L56.6459 36.496ZM64.7659 36.552L65.7416 38.2979L65.7609 38.2871L65.78 38.2759L64.7659 36.552ZM67.7899 33.416L69.5383 34.3873L69.5439 34.3772L69.5494 34.367L67.7899 33.416ZM44.4939 28.376H46.4939C46.4939 25.5066 47.056 23.0436 48.1253 20.9374L46.3419 20.032L44.5586 19.1266C43.1639 21.8738 42.4939 24.9734 42.4939 28.376H44.4939ZM46.3419 20.032L48.1141 20.959C49.2283 18.829 50.7014 17.2462 52.5273 16.1444L51.4939 14.432L50.4606 12.7196C47.9558 14.2311 45.9942 16.3817 44.5697 19.105L46.3419 20.032ZM51.4939 14.432L52.5273 16.1444C54.3655 15.0351 56.4132 14.472 58.7179 14.472V12.472V10.472C55.7214 10.472 52.9531 11.2155 50.4606 12.7196L51.4939 14.432ZM58.7179 12.472V14.472C60.4257 14.472 62.0478 14.8488 63.6062 15.6121L64.4859 13.816L65.3657 12.0199C63.2654 10.9912 61.0422 10.472 58.7179 10.472V12.472ZM64.4859 13.816L63.6361 15.6265C65.2013 16.3611 66.3849 17.3193 67.249 18.4814L68.8539 17.288L70.4589 16.0946C69.1577 14.3447 67.4293 12.9882 65.3358 12.0055L64.4859 13.816ZM68.8539 17.288H70.8539V2.56H68.8539H66.8539V17.288H68.8539ZM68.8539 2.56V4.56H76.8059V2.56V0.559999H68.8539V2.56ZM76.8059 2.56H74.8059V44H76.8059H78.8059V2.56H76.8059ZM76.8059 44V42H68.8539V44V46H76.8059V44ZM68.8539 44H70.8539V39.408H68.8539H66.8539V44H68.8539ZM68.8539 39.408L67.1649 38.3369C66.3974 39.5473 65.3058 40.5515 63.8267 41.3383L64.7659 43.104L65.7052 44.8697C67.7354 43.7898 69.3692 42.33 70.543 40.4791L68.8539 39.408ZM64.7659 43.104L63.8267 41.3383C62.4055 42.0942 60.7032 42.504 58.6619 42.504V44.504V46.504C61.25 46.504 63.6171 45.9804 65.7052 44.8697L64.7659 43.104ZM58.6619 44.504V42.504C56.4113 42.504 54.3889 41.931 52.5487 40.7887L51.4939 42.488L50.4392 44.1873C52.9296 45.733 55.6859 46.504 58.6619 46.504V44.504ZM51.4939 42.488L52.5487 40.7887C50.7099 39.6474 49.2305 38.0392 48.1141 35.905L46.3419 36.832L44.5697 37.759C45.9921 40.4781 47.9473 42.6406 50.4392 44.1873L51.4939 42.488ZM46.3419 36.832L48.1308 35.9376C47.0573 33.7907 46.4939 31.2861 46.4939 28.376H44.4939H42.4939C42.4939 31.8126 43.1625 34.9453 44.5531 37.7264L46.3419 36.832ZM68.9099 28.488H70.9099C70.9099 26.3242 70.4849 24.3487 69.5383 22.6447L67.7899 23.616L66.0416 24.5873C66.5883 25.5713 66.9099 26.8438 66.9099 28.488H68.9099ZM67.7899 23.616L69.5494 22.665C68.6372 20.9774 67.3689 19.6435 65.7416 18.7341L64.7659 20.48L63.7903 22.2259C64.7017 22.7352 65.4494 23.4919 66.0305 24.567L67.7899 23.616ZM64.7659 20.48L65.78 18.7561C64.207 17.8308 62.4948 17.36 60.6779 17.36V19.36V21.36C61.7731 21.36 62.7862 21.6358 63.7519 22.2039L64.7659 20.48ZM60.6779 19.36V17.36C58.8805 17.36 57.1912 17.8023 55.648 18.6908L56.6459 20.424L57.6439 22.1572C58.5647 21.6271 59.5633 21.36 60.6779 21.36V19.36ZM56.6459 20.424L55.648 18.6908C54.0716 19.5984 52.8216 20.9184 51.8826 22.5728L53.6219 23.56L55.3613 24.5472C55.9903 23.439 56.7563 22.6683 57.6439 22.1572L56.6459 20.424ZM53.6219 23.56L51.8736 22.5887C50.93 24.2872 50.5019 26.2418 50.5019 28.376H52.5019H54.5019C54.5019 26.7769 54.8205 25.5208 55.3703 24.5313L53.6219 23.56ZM52.5019 28.376H50.5019C50.5019 30.5137 50.9312 32.4857 51.8521 34.2355L53.6219 33.304L55.3918 32.3725C54.8194 31.2849 54.5019 29.9716 54.5019 28.376H52.5019ZM53.6219 33.304L51.8826 34.2912C52.8175 35.9385 54.0559 37.2649 55.6093 38.2064L56.6459 36.496L57.6825 34.7856C56.7719 34.2337 55.9944 33.4322 55.3613 32.3168L53.6219 33.304ZM56.6459 36.496L55.6319 38.2199C57.1964 39.1401 58.8888 39.616 60.6779 39.616V37.616V35.616C59.6298 35.616 58.6342 35.3452 57.66 34.7721L56.6459 36.496ZM60.6779 37.616V39.616C62.475 39.616 64.1737 39.1741 65.7416 38.2979L64.7659 36.552L63.7903 34.8061C62.8196 35.3486 61.7928 35.616 60.6779 35.616V37.616ZM64.7659 36.552L65.78 38.2759C67.3706 37.3402 68.6263 36.0288 69.5383 34.3873L67.7899 33.416L66.0416 32.4447C65.4603 33.4912 64.6999 34.2705 63.7519 34.8281L64.7659 36.552ZM67.7899 33.416L69.5494 34.367C70.4842 32.6376 70.9099 30.654 70.9099 28.488H68.9099H66.9099C66.9099 30.13 66.589 31.4317 66.0305 32.465L67.7899 33.416ZM97.9591 36.776L96.0595 37.4017L97.9591 43.1684L99.8587 37.4017L97.9591 36.776ZM105.799 12.976V10.976H104.352L103.899 12.3503L105.799 12.976ZM114.143 12.976L116.019 13.6701L117.016 10.976H114.143V12.976ZM102.663 44V46H104.056L104.539 44.6941L102.663 44ZM93.1431 44L91.2663 44.6911L91.7482 46H93.1431V44ZM81.7191 12.976V10.976H78.8513L79.8423 13.6671L81.7191 12.976ZM90.1191 12.976L92.0187 12.3503L91.566 10.976H90.1191V12.976ZM97.9591 36.776L99.8587 37.4017L107.699 13.6017L105.799 12.976L103.899 12.3503L96.0595 36.1503L97.9591 36.776ZM105.799 12.976V14.976H114.143V12.976V10.976H105.799V12.976ZM114.143 12.976L112.267 12.2819L100.787 43.3059L102.663 44L104.539 44.6941L116.019 13.6701L114.143 12.976ZM102.663 44V42H93.1431V44V46H102.663V44ZM93.1431 44L95.0199 43.3089L83.5959 12.2849L81.7191 12.976L79.8423 13.6671L91.2663 44.6911L93.1431 44ZM81.7191 12.976V14.976H90.1191V12.976V10.976H81.7191V12.976ZM90.1191 12.976L88.2195 13.6017L96.0595 37.4017L97.9591 36.776L99.8587 36.1503L92.0187 12.3503L90.1191 12.976ZM118.938 20.032L117.166 19.105L117.161 19.1158L117.155 19.1266L118.938 20.032ZM124.035 14.432L123.001 12.7196L122.995 12.7236L122.988 12.7277L124.035 14.432ZM137.307 13.872L136.351 15.6292L136.359 15.6335L136.367 15.6377L137.307 13.872ZM141.507 17.4L139.896 18.5864L143.507 23.4858V17.4H141.507ZM141.507 12.976V10.976H139.507V12.976H141.507ZM149.402 12.976H151.402V10.976H149.402V12.976ZM149.402 44V46H151.402V44H149.402ZM141.507 44H139.507V46H141.507V44ZM141.507 39.464H143.507V33.0615L139.862 38.3256L141.507 39.464ZM137.307 43.104L138.246 44.8697L138.252 44.8662L138.259 44.8626L137.307 43.104ZM124.035 42.488L122.967 44.179L122.973 44.1832L122.98 44.1873L124.035 42.488ZM118.938 36.832L117.15 37.7264L117.158 37.7428L117.166 37.759L118.938 36.832ZM140.387 23.616L138.627 24.567L138.633 24.5772L138.638 24.5873L140.387 23.616ZM137.363 20.48L136.348 22.2039L136.368 22.2151L136.387 22.2259L137.363 20.48ZM129.243 20.424L128.245 18.6908L128.245 18.6908L129.243 20.424ZM126.218 23.56L124.479 22.5728L124.475 22.5807L124.47 22.5887L126.218 23.56ZM126.218 33.304L124.449 34.2355L124.463 34.2636L124.479 34.2912L126.218 33.304ZM129.243 36.496L128.206 38.2064L128.217 38.2132L128.228 38.2199L129.243 36.496ZM137.363 36.552L138.338 38.2979L138.357 38.2871L138.377 38.2759L137.363 36.552ZM140.387 33.416L142.135 34.3873L142.14 34.3772L142.146 34.367L140.387 33.416ZM117.09 28.376H119.09C119.09 25.5066 119.653 23.0436 120.722 20.9374L118.938 20.032L117.155 19.1266C115.76 21.8738 115.09 24.9734 115.09 28.376H117.09ZM118.938 20.032L120.711 20.959C121.829 18.8203 123.29 17.2361 125.081 16.1363L124.035 14.432L122.988 12.7277C120.523 14.2412 118.586 16.3904 117.166 19.105L118.938 20.032ZM124.035 14.432L125.068 16.1444C126.906 15.0351 128.954 14.472 131.258 14.472V12.472V10.472C128.262 10.472 125.494 11.2155 123.001 12.7196L124.035 14.432ZM131.258 12.472V14.472C133.301 14.472 134.977 14.8822 136.351 15.6292L137.307 13.872L138.262 12.1147C136.201 10.9951 133.845 10.472 131.258 10.472V12.472ZM137.307 13.872L136.367 15.6377C137.892 16.4486 139.05 17.4377 139.896 18.5864L141.507 17.4L143.117 16.2136C141.872 14.5249 140.231 13.162 138.246 12.1063L137.307 13.872ZM141.507 17.4H143.507V12.976H141.507H139.507V17.4H141.507ZM141.507 12.976V14.976H149.402V12.976V10.976H141.507V12.976ZM149.402 12.976H147.402V44H149.402H151.402V12.976H149.402ZM149.402 44V42H141.507V44V46H149.402V44ZM141.507 44H143.507V39.464H141.507H139.507V44H141.507ZM141.507 39.464L139.862 38.3256C139.058 39.487 137.912 40.5017 136.354 41.3454L137.307 43.104L138.259 44.8626C140.285 43.765 141.939 42.353 143.151 40.6024L141.507 39.464ZM137.307 43.104L136.367 41.3383C134.946 42.0942 133.244 42.504 131.202 42.504V44.504V46.504C133.791 46.504 136.158 45.9804 138.246 44.8697L137.307 43.104ZM131.202 44.504V42.504C128.952 42.504 126.929 41.931 125.089 40.7887L124.035 42.488L122.98 44.1873C125.47 45.733 128.226 46.504 131.202 46.504V44.504ZM124.035 42.488L125.102 40.797C123.298 39.6576 121.832 38.0478 120.711 35.905L118.938 36.832L117.166 37.759C118.584 40.4696 120.515 42.6304 122.967 44.179L124.035 42.488ZM118.938 36.832L120.727 35.9376C119.654 33.7907 119.09 31.2861 119.09 28.376H117.09H115.09C115.09 31.8126 115.759 34.9453 117.15 37.7264L118.938 36.832ZM141.507 28.488H143.507C143.507 26.3242 143.081 24.3487 142.135 22.6447L140.387 23.616L138.638 24.5873C139.185 25.5713 139.507 26.8438 139.507 28.488H141.507ZM140.387 23.616L142.146 22.665C141.234 20.9774 139.965 19.6435 138.338 18.7341L137.363 20.48L136.387 22.2259C137.298 22.7352 138.046 23.4919 138.627 24.567L140.387 23.616ZM137.363 20.48L138.377 18.7561C136.804 17.8308 135.091 17.36 133.275 17.36V19.36V21.36C134.37 21.36 135.383 21.6358 136.348 22.2039L137.363 20.48ZM133.275 19.36V17.36C131.477 17.36 129.788 17.8023 128.245 18.6908L129.243 20.424L130.24 22.1572C131.161 21.6271 132.16 21.36 133.275 21.36V19.36ZM129.243 20.424L128.245 18.6908C126.668 19.5984 125.418 20.9184 124.479 22.5728L126.218 23.56L127.958 24.5472C128.587 23.439 129.353 22.6683 130.24 22.1572L129.243 20.424ZM126.218 23.56L124.47 22.5887C123.527 24.2872 123.099 26.2418 123.099 28.376H125.099H127.099C127.099 26.7769 127.417 25.5208 127.967 24.5313L126.218 23.56ZM125.099 28.376H123.099C123.099 30.5137 123.528 32.4857 124.449 34.2355L126.218 33.304L127.988 32.3725C127.416 31.2849 127.099 29.9716 127.099 28.376H125.099ZM126.218 33.304L124.479 34.2912C125.414 35.9385 126.653 37.2649 128.206 38.2064L129.243 36.496L130.279 34.7856C129.368 34.2337 128.591 33.4322 127.958 32.3168L126.218 33.304ZM129.243 36.496L128.228 38.2199C129.793 39.1401 131.485 39.616 133.275 39.616V37.616V35.616C132.226 35.616 131.231 35.3452 130.257 34.7721L129.243 36.496ZM133.275 37.616V39.616C135.072 39.616 136.77 39.1741 138.338 38.2979L137.363 36.552L136.387 34.8061C135.416 35.3486 134.389 35.616 133.275 35.616V37.616ZM137.363 36.552L138.377 38.2759C139.967 37.3402 141.223 36.0288 142.135 34.3873L140.387 33.416L138.638 32.4447C138.057 33.4912 137.296 34.2705 136.348 34.8281L137.363 36.552ZM140.387 33.416L142.146 34.367C143.081 32.6376 143.507 30.654 143.507 28.488H141.507H139.507C139.507 30.13 139.186 31.4317 138.627 32.465L140.387 33.416ZM183.772 16.056L182.335 17.4472L182.34 17.453L182.346 17.4587L183.772 16.056ZM187.188 44V46H189.188V44H187.188ZM179.348 44H177.348V46H179.348V44ZM177.5 21.208L176.025 22.5594L176.035 22.5698L176.044 22.58L177.5 21.208ZM167.308 21.208L165.854 19.8348L165.852 19.836L167.308 21.208ZM165.46 44V46H167.46V44H165.46ZM157.62 44H155.62V46H157.62V44ZM157.62 12.976V10.976H155.62V12.976H157.62ZM165.46 12.976H167.46V10.976H165.46V12.976ZM165.46 16.84H163.46V22.6691L167.038 18.0679L165.46 16.84ZM169.436 13.704L170.279 15.5174L170.288 15.5132L170.297 15.509L169.436 13.704ZM174.812 12.528V14.528C178.043 14.528 180.484 15.5361 182.335 17.4472L183.772 16.056L185.208 14.6648C182.504 11.8719 178.973 10.528 174.812 10.528V12.528ZM183.772 16.056L182.346 17.4587C184.158 19.3002 185.188 21.986 185.188 25.8H187.188H189.188C189.188 21.2514 187.94 17.4411 185.197 14.6533L183.772 16.056ZM187.188 25.8H185.188V44H187.188H189.188V25.8H187.188ZM187.188 44V42H179.348V44V46H187.188V44ZM179.348 44H181.348V26.864H179.348H177.348V44H179.348ZM179.348 26.864H181.348C181.348 24.0822 180.65 21.6334 178.955 19.836L177.5 21.208L176.044 22.58C176.814 23.396 177.348 24.7178 177.348 26.864H179.348ZM177.5 21.208L178.974 19.8566C177.299 18.0293 175.046 17.192 172.46 17.192V19.192V21.192C174.13 21.192 175.236 21.6987 176.025 22.5594L177.5 21.208ZM172.46 19.192V17.192C169.847 17.192 167.566 18.0218 165.854 19.8348L167.308 21.208L168.762 22.5812C169.588 21.7062 170.742 21.192 172.46 21.192V19.192ZM167.308 21.208L165.852 19.836C164.158 21.6334 163.46 24.0822 163.46 26.864H165.46H167.46C167.46 24.7178 167.993 23.396 168.763 22.58L167.308 21.208ZM165.46 26.864H163.46V44H165.46H167.46V26.864H165.46ZM165.46 44V42H157.62V44V46H165.46V44ZM157.62 44H159.62V12.976H157.62H155.62V44H157.62ZM157.62 12.976V14.976H165.46V12.976V10.976H157.62V12.976ZM165.46 12.976H163.46V16.84H165.46H167.46V12.976H165.46ZM165.46 16.84L167.038 18.0679C167.881 16.9848 168.95 16.1356 170.279 15.5174L169.436 13.704L168.592 11.8906C166.711 12.7657 165.129 14.0072 163.881 15.6121L165.46 16.84ZM169.436 13.704L170.297 15.509C171.653 14.8618 173.148 14.528 174.812 14.528V12.528V10.528C172.592 10.528 170.504 10.9782 168.574 11.899L169.436 13.704ZM195.147 20.088L196.902 21.0476L196.908 21.0362L195.147 20.088ZM200.579 14.488L201.562 16.2296L201.573 16.2237L201.583 16.2176L200.579 14.488ZM218.051 15.384L216.825 16.964L216.838 16.9741L216.851 16.984L218.051 15.384ZM223.147 23.448V25.448H225.702L225.089 22.9678L223.147 23.448ZM214.691 23.448L212.794 24.0805L213.25 25.448H214.691V23.448ZM212.395 20.312L211.195 21.912L211.227 21.9359L211.26 21.9584L212.395 20.312ZM203.155 21.6L204.706 22.8625L204.713 22.8538L204.72 22.845L203.155 21.6ZM203.155 35.376L201.59 36.621L201.597 36.6298L201.604 36.6385L203.155 35.376ZM214.691 33.528V31.528H213.261L212.799 32.8806L214.691 33.528ZM223.147 33.528L225.085 34.0232L225.722 31.528H223.147V33.528ZM218.051 41.536L219.281 43.1135L218.051 41.536ZM200.579 42.544L199.575 44.2736L199.585 44.2797L199.596 44.2856L200.579 42.544ZM195.147 36.944L193.386 37.8922L193.392 37.9036L195.147 36.944ZM193.187 28.488H195.187C195.187 25.5526 195.783 23.0941 196.902 21.0476L195.147 20.088L193.392 19.1284C191.898 21.8606 191.187 25.0021 191.187 28.488H193.187ZM195.147 20.088L196.908 21.0362C198.043 18.9292 199.589 17.3435 201.562 16.2296L200.579 14.488L199.596 12.7464C196.94 14.2458 194.865 16.3934 193.386 19.1398L195.147 20.088ZM200.579 14.488L201.583 16.2176C203.559 15.0706 205.855 14.472 208.531 14.472V12.472V10.472C205.233 10.472 202.229 11.2174 199.575 12.7584L200.579 14.488ZM208.531 12.472V14.472C212.03 14.472 214.745 15.3494 216.825 16.964L218.051 15.384L219.277 13.804C216.355 11.5359 212.722 10.472 208.531 10.472V12.472ZM218.051 15.384L216.851 16.984C218.974 18.5763 220.443 20.8435 221.206 23.9282L223.147 23.448L225.089 22.9678C224.134 19.1085 222.205 15.9997 219.251 13.784L218.051 15.384ZM223.147 23.448V21.448H214.691V23.448V25.448H223.147V23.448ZM214.691 23.448L216.588 22.8155C216.014 21.0936 214.999 19.6781 213.531 18.6656L212.395 20.312L211.26 21.9584C211.957 22.4392 212.472 23.1144 212.794 24.0805L214.691 23.448ZM212.395 20.312L213.595 18.712C212.139 17.6196 210.387 17.136 208.475 17.136V19.136V21.136C209.699 21.136 210.561 21.4364 211.195 21.912L212.395 20.312ZM208.475 19.136V17.136C205.673 17.136 203.304 18.1996 201.59 20.355L203.155 21.6L204.72 22.845C205.619 21.7151 206.797 21.136 208.475 21.136V19.136ZM203.155 21.6L201.604 20.3375C199.902 22.4279 199.195 25.2399 199.195 28.488H201.195H203.195C203.195 25.7627 203.794 23.9828 204.706 22.8625L203.155 21.6ZM201.195 28.488H199.195C199.195 31.7097 199.907 34.5056 201.59 36.621L203.155 35.376L204.72 34.131C203.79 32.9611 203.195 31.1649 203.195 28.488H201.195ZM203.155 35.376L201.604 36.6385C203.325 38.7526 205.69 39.784 208.475 39.784V37.784V35.784C206.78 35.784 205.599 35.2101 204.706 34.1135L203.155 35.376ZM208.475 37.784V39.784C210.359 39.784 212.092 39.3609 213.539 38.3703C214.996 37.3729 215.986 35.9202 216.583 34.1754L214.691 33.528L212.799 32.8806C212.425 33.9731 211.895 34.6484 211.279 35.0697C210.654 35.4977 209.765 35.784 208.475 35.784V37.784ZM214.691 33.528V35.528H223.147V33.528V31.528H214.691V33.528ZM223.147 33.528L221.209 33.0328C220.451 35.999 218.983 38.2739 216.822 39.9585L218.051 41.536L219.281 43.1135C222.196 40.8408 224.125 37.777 225.085 34.0232L223.147 33.528ZM218.051 41.536L216.822 39.9585C214.696 41.6155 211.978 42.504 208.531 42.504V44.504V46.504C212.7 46.504 216.329 45.4138 219.281 43.1135L218.051 41.536ZM208.531 44.504V42.504C205.846 42.504 203.541 41.9195 201.562 40.8024L200.579 42.544L199.596 44.2856C202.246 45.7818 205.243 46.504 208.531 46.504V44.504ZM200.579 42.544L201.583 40.8144C199.59 39.6571 198.037 38.0593 196.902 35.9844L195.147 36.944L193.392 37.9036C194.871 40.6074 196.939 42.7429 199.575 44.2736L200.579 42.544ZM195.147 36.944L196.908 35.9958C195.782 33.9053 195.187 31.4225 195.187 28.488H193.187H191.187C191.187 31.9748 191.898 35.1294 193.386 37.8922L195.147 36.944ZM258.067 30.84V32.84H259.761L260.039 31.1688L258.067 30.84ZM235.387 30.84V28.84H233.213L233.393 31.0061L235.387 30.84ZM237.739 36.104L236.385 37.5767L237.739 36.104ZM249.051 34.256V32.256H247.806L247.256 33.3723L249.051 34.256ZM257.507 34.256L259.422 34.8307L260.195 32.256H257.507V34.256ZM252.355 41.648L253.555 43.248L253.562 43.2424L253.569 43.2367L252.355 41.648ZM234.939 42.544L233.946 44.2805L233.963 44.2898L233.979 44.2987L234.939 42.544ZM229.395 36.888L227.634 37.8362L227.639 37.8466L227.645 37.857L229.395 36.888ZM229.395 20.032L227.634 19.0838L229.395 20.032ZM234.883 14.432L235.854 16.1803V16.1803L234.883 14.432ZM250.899 14.376L249.937 16.1297L249.949 16.136L250.899 14.376ZM256.331 19.808L254.571 20.7579L254.58 20.7746L254.589 20.7912L256.331 19.808ZM250.171 25.576V27.576H252.208L252.17 25.539L250.171 25.576ZM247.987 20.76L246.675 22.2701L246.687 22.28L246.698 22.2898L247.987 20.76ZM237.851 20.704L239.177 22.2012L239.179 22.1988L237.851 20.704ZM235.443 25.576L233.463 25.2932L233.137 27.576H235.443V25.576ZM258.291 27.816H256.291C256.291 28.8501 256.221 29.7455 256.094 30.5112L258.067 30.84L260.039 31.1688C260.21 30.1425 260.291 29.0219 260.291 27.816H258.291ZM258.067 30.84V28.84H235.387V30.84V32.84H258.067V30.84ZM235.387 30.84L233.393 31.0061C233.613 33.6416 234.563 35.9025 236.385 37.5767L237.739 36.104L239.092 34.6313C238.151 33.7668 237.533 32.5184 237.38 30.6739L235.387 30.84ZM237.739 36.104L236.385 37.5767C238.165 39.2118 240.358 40.008 242.835 40.008V38.008V36.008C241.279 36.008 240.075 35.5349 239.092 34.6313L237.739 36.104ZM242.835 38.008V40.008C244.581 40.008 246.2 39.6309 247.606 38.7823C249.017 37.9305 250.086 36.6802 250.845 35.1397L249.051 34.256L247.256 33.3723C246.783 34.3331 246.2 34.9588 245.539 35.3577C244.873 35.7598 244.001 36.008 242.835 36.008V38.008ZM249.051 34.256V36.256H257.507V34.256V32.256H249.051V34.256ZM257.507 34.256L255.591 33.6813C254.819 36.254 253.353 38.3669 251.14 40.0593L252.355 41.648L253.569 43.2367C256.434 41.0464 258.402 38.2313 259.422 34.8307L257.507 34.256ZM252.355 41.648L251.155 40.048C249.017 41.6512 246.34 42.504 243.003 42.504V44.504V46.504C247.057 46.504 250.615 45.4528 253.555 43.248L252.355 41.648ZM243.003 44.504V42.504C240.318 42.504 237.965 41.9198 235.898 40.7893L234.939 42.544L233.979 44.2987C236.69 45.7815 239.714 46.504 243.003 46.504V44.504ZM234.939 42.544L235.931 40.8075C233.905 39.6497 232.315 38.0334 231.144 35.919L229.395 36.888L227.645 37.857C229.162 40.5959 231.268 42.7503 233.946 44.2805L234.939 42.544ZM229.395 36.888L231.156 35.9398C230.028 33.846 229.435 31.3809 229.435 28.488H227.435H225.435C225.435 31.9418 226.148 35.0767 227.634 37.8362L229.395 36.888ZM227.435 28.488H229.435C229.435 25.5535 230.03 23.0707 231.156 20.9802L229.395 20.032L227.634 19.0838C226.146 21.8466 225.435 25.0012 225.435 28.488H227.435ZM229.395 20.032L231.156 20.9802C232.286 18.8816 233.845 17.2965 235.854 16.1803L234.883 14.432L233.911 12.6837C231.216 14.1808 229.117 16.3291 227.634 19.0838L229.395 20.032ZM234.883 14.432L235.854 16.1803C237.87 15.0603 240.234 14.472 243.003 14.472V12.472V10.472C239.649 10.472 236.599 11.1903 233.911 12.6837L234.883 14.432ZM243.003 12.472V14.472C245.656 14.472 247.95 15.0402 249.937 16.1296L250.899 14.376L251.86 12.6224C249.218 11.1731 246.248 10.472 243.003 10.472V12.472ZM250.899 14.376L249.949 16.136C251.957 17.2201 253.486 18.7492 254.571 20.7579L256.331 19.808L258.091 18.8581C256.636 16.1628 254.544 14.0706 251.848 12.616L250.899 14.376ZM256.331 19.808L254.589 20.7912C255.704 22.7665 256.291 25.0883 256.291 27.816H258.291H260.291C260.291 24.4956 259.57 21.4788 258.072 18.8248L256.331 19.808ZM250.171 25.576L252.17 25.539C252.123 23.0027 251.176 20.8315 249.275 19.2302L247.987 20.76L246.698 22.2898C247.634 23.0778 248.143 24.1173 248.171 25.613L250.171 25.576ZM247.987 20.76L249.298 19.2499C247.481 17.6717 245.266 16.912 242.779 16.912V18.912V20.912C244.398 20.912 245.655 21.3843 246.675 22.2701L247.987 20.76ZM242.779 18.912V16.912C240.39 16.912 238.262 17.662 236.522 19.2092L237.851 20.704L239.179 22.1988C240.127 21.3566 241.285 20.912 242.779 20.912V18.912ZM237.851 20.704L236.524 19.2068C234.792 20.7412 233.814 22.8357 233.463 25.2932L235.443 25.576L237.422 25.8588C237.669 24.135 238.296 22.9815 239.177 22.2012L237.851 20.704ZM235.443 25.576V27.576H250.171V25.576V23.576H235.443V25.576Z" fill="#ECEDEE" mask="url(#path-1-outside-1_606_143)"/>
</svg>
