<svg width="335" height="63" viewBox="0 0 335 63" fill="none" xmlns="http://www.w3.org/2000/svg">
<mask id="path-1-outside-1_165_814" maskUnits="userSpaceOnUse" x="0" y="0" width="335" height="63" fill="black">
<rect fill="white" width="335" height="63"/>
<path d="M29.832 38.552H14.264L11.688 46H3.456L17.512 6.856H26.64L40.696 46H32.408L29.832 38.552ZM27.704 32.28L22.048 15.928L16.392 32.28H27.704ZM54.3499 19.456C55.3579 18.0373 56.7393 16.8613 58.4939 15.928C60.2859 14.9573 62.3206 14.472 64.5979 14.472C67.2486 14.472 69.6379 15.1253 71.7659 16.432C73.9313 17.7387 75.6299 19.6053 76.8619 22.032C78.1313 24.4213 78.7659 27.2027 78.7659 30.376C78.7659 33.5493 78.1313 36.368 76.8619 38.832C75.6299 41.2587 73.9313 43.144 71.7659 44.488C69.6379 45.832 67.2486 46.504 64.5979 46.504C62.3206 46.504 60.3046 46.0373 58.5499 45.104C56.8326 44.1707 55.4326 42.9947 54.3499 41.576V60.784H46.5099V14.976H54.3499V19.456ZM70.7579 30.376C70.7579 28.5093 70.3659 26.904 69.5819 25.56C68.8353 24.1787 67.8273 23.1333 66.5579 22.424C65.3259 21.7147 63.9819 21.36 62.5259 21.36C61.1073 21.36 59.7633 21.7333 58.4939 22.48C57.2619 23.1893 56.2539 24.2347 55.4699 25.616C54.7233 26.9973 54.3499 28.6213 54.3499 30.488C54.3499 32.3547 54.7233 33.9787 55.4699 35.36C56.2539 36.7413 57.2619 37.8053 58.4939 38.552C59.7633 39.2613 61.1073 39.616 62.5259 39.616C63.9819 39.616 65.3259 39.2427 66.5579 38.496C67.8273 37.7493 68.8353 36.6853 69.5819 35.304C70.3659 33.9227 70.7579 32.28 70.7579 30.376ZM92.8631 19.456C93.8711 18.0373 95.2524 16.8613 97.0071 15.928C98.7991 14.9573 100.834 14.472 103.111 14.472C105.762 14.472 108.151 15.1253 110.279 16.432C112.444 17.7387 114.143 19.6053 115.375 22.032C116.644 24.4213 117.279 27.2027 117.279 30.376C117.279 33.5493 116.644 36.368 115.375 38.832C114.143 41.2587 112.444 43.144 110.279 44.488C108.151 45.832 105.762 46.504 103.111 46.504C100.834 46.504 98.8177 46.0373 97.0631 45.104C95.3457 44.1707 93.9457 42.9947 92.8631 41.576V60.784H85.0231V14.976H92.8631V19.456ZM109.271 30.376C109.271 28.5093 108.879 26.904 108.095 25.56C107.348 24.1787 106.34 23.1333 105.071 22.424C103.839 21.7147 102.495 21.36 101.039 21.36C99.6204 21.36 98.2764 21.7333 97.0071 22.48C95.7751 23.1893 94.7671 24.2347 93.9831 25.616C93.2364 26.9973 92.8631 28.6213 92.8631 30.488C92.8631 32.3547 93.2364 33.9787 93.9831 35.36C94.7671 36.7413 95.7751 37.8053 97.0071 38.552C98.2764 39.2613 99.6204 39.616 101.039 39.616C102.495 39.616 103.839 39.2427 105.071 38.496C106.34 37.7493 107.348 36.6853 108.095 35.304C108.879 33.9227 109.271 32.28 109.271 30.376ZM131.376 4.56V46H123.536V4.56H131.376ZM143.658 11.28C142.277 11.28 141.119 10.8507 140.186 9.992C139.29 9.096 138.842 7.99466 138.842 6.688C138.842 5.38133 139.29 4.29866 140.186 3.44C141.119 2.544 142.277 2.096 143.658 2.096C145.039 2.096 146.178 2.544 147.074 3.44C148.007 4.29866 148.474 5.38133 148.474 6.688C148.474 7.99466 148.007 9.096 147.074 9.992C146.178 10.8507 145.039 11.28 143.658 11.28ZM147.522 14.976V46H139.682V14.976H147.522ZM153.812 30.488C153.812 27.2773 154.465 24.4773 155.772 22.088C157.079 19.6613 158.889 17.7947 161.204 16.488C163.519 15.144 166.169 14.472 169.156 14.472C173.001 14.472 176.175 15.4427 178.676 17.384C181.215 19.288 182.913 21.976 183.772 25.448H175.316C174.868 24.104 174.103 23.0587 173.02 22.312C171.975 21.528 170.668 21.136 169.1 21.136C166.86 21.136 165.087 21.9573 163.78 23.6C162.473 25.2053 161.82 27.5013 161.82 30.488C161.82 33.4373 162.473 35.7333 163.78 37.376C165.087 38.9813 166.86 39.784 169.1 39.784C172.273 39.784 174.345 38.3653 175.316 35.528H183.772C182.913 38.888 181.215 41.5573 178.676 43.536C176.137 45.5147 172.964 46.504 169.156 46.504C166.169 46.504 163.519 45.8507 161.204 44.544C158.889 43.2 157.079 41.3333 155.772 38.944C154.465 36.5173 153.812 33.6987 153.812 30.488ZM188.06 30.376C188.06 27.24 188.676 24.4587 189.908 22.032C191.177 19.6053 192.876 17.7387 195.004 16.432C197.169 15.1253 199.577 14.472 202.228 14.472C204.542 14.472 206.558 14.9387 208.276 15.872C210.03 16.8053 211.43 17.9813 212.476 19.4V14.976H220.372V46H212.476V41.464C211.468 42.92 210.068 44.1333 208.276 45.104C206.521 46.0373 204.486 46.504 202.172 46.504C199.558 46.504 197.169 45.832 195.004 44.488C192.876 43.144 191.177 41.2587 189.908 38.832C188.676 36.368 188.06 33.5493 188.06 30.376ZM212.476 30.488C212.476 28.584 212.102 26.96 211.356 25.616C210.609 24.2347 209.601 23.1893 208.332 22.48C207.062 21.7333 205.7 21.36 204.244 21.36C202.788 21.36 201.444 21.7147 200.212 22.424C198.98 23.1333 197.972 24.1787 197.188 25.56C196.441 26.904 196.068 28.5093 196.068 30.376C196.068 32.2427 196.441 33.8853 197.188 35.304C197.972 36.6853 198.98 37.7493 200.212 38.496C201.481 39.2427 202.825 39.616 204.244 39.616C205.7 39.616 207.062 39.2613 208.332 38.552C209.601 37.8053 210.609 36.76 211.356 35.416C212.102 34.0347 212.476 32.392 212.476 30.488ZM237.717 21.416V36.424C237.717 37.4693 237.959 38.2347 238.445 38.72C238.967 39.168 239.826 39.392 241.021 39.392H244.661V46H239.733C233.125 46 229.821 42.7893 229.821 36.368V21.416H226.125V14.976H229.821V7.304H237.717V14.976H244.661V21.416H237.717ZM254.836 11.28C253.454 11.28 252.297 10.8507 251.364 9.992C250.468 9.096 250.02 7.99466 250.02 6.688C250.02 5.38133 250.468 4.29866 251.364 3.44C252.297 2.544 253.454 2.096 254.836 2.096C256.217 2.096 257.356 2.544 258.252 3.44C259.185 4.29866 259.652 5.38133 259.652 6.688C259.652 7.99466 259.185 9.096 258.252 9.992C257.356 10.8507 256.217 11.28 254.836 11.28ZM258.7 14.976V46H250.86V14.976H258.7ZM280.782 46.504C277.795 46.504 275.107 45.8507 272.718 44.544C270.328 43.2 268.443 41.3147 267.062 38.888C265.718 36.4613 265.046 33.6613 265.046 30.488C265.046 27.3147 265.736 24.5147 267.118 22.088C268.536 19.6613 270.459 17.7947 272.886 16.488C275.312 15.144 278.019 14.472 281.006 14.472C283.992 14.472 286.699 15.144 289.126 16.488C291.552 17.7947 293.456 19.6613 294.838 22.088C296.256 24.5147 296.966 27.3147 296.966 30.488C296.966 33.6613 296.238 36.4613 294.782 38.888C293.363 41.3147 291.422 43.2 288.958 44.544C286.531 45.8507 283.806 46.504 280.782 46.504ZM280.782 39.672C282.2 39.672 283.526 39.336 284.758 38.664C286.027 37.9547 287.035 36.9093 287.782 35.528C288.528 34.1467 288.902 32.4667 288.902 30.488C288.902 27.5387 288.118 25.28 286.55 23.712C285.019 22.1067 283.134 21.304 280.894 21.304C278.654 21.304 276.768 22.1067 275.238 23.712C273.744 25.28 272.998 27.5387 272.998 30.488C272.998 33.4373 273.726 35.7147 275.182 37.32C276.675 38.888 278.542 39.672 280.782 39.672ZM320.469 14.528C324.165 14.528 327.151 15.704 329.429 18.056C331.706 20.3707 332.845 23.6187 332.845 27.8V46H325.005V28.864C325.005 26.4 324.389 24.5147 323.157 23.208C321.925 21.864 320.245 21.192 318.117 21.192C315.951 21.192 314.234 21.864 312.965 23.208C311.733 24.5147 311.117 26.4 311.117 28.864V46H303.277V14.976H311.117V18.84C312.162 17.496 313.487 16.4507 315.093 15.704C316.735 14.92 318.527 14.528 320.469 14.528Z"/>
</mask>
<path d="M29.832 38.552L31.7221 37.8983L31.2565 36.552H29.832V38.552ZM14.264 38.552V36.552H12.8395L12.3739 37.8983L14.264 38.552ZM11.688 46V48H13.1125L13.5781 46.6537L11.688 46ZM3.456 46L1.57368 45.3241L0.612798 48H3.456V46ZM17.512 6.856V4.856H16.1051L15.6297 6.18008L17.512 6.856ZM26.64 6.856L28.5223 6.18008L28.0469 4.856H26.64V6.856ZM40.696 46V48H43.5392L42.5783 45.3241L40.696 46ZM32.408 46L30.5179 46.6537L30.9835 48H32.408V46ZM27.704 32.28V34.28H30.512L29.5941 31.6262L27.704 32.28ZM22.048 15.928L23.9381 15.2742L22.048 9.8097L20.1579 15.2742L22.048 15.928ZM16.392 32.28L14.5019 31.6262L13.584 34.28H16.392V32.28ZM29.832 38.552V36.552H14.264V38.552V40.552H29.832V38.552ZM14.264 38.552L12.3739 37.8983L9.79786 45.3463L11.688 46L13.5781 46.6537L16.1541 39.2057L14.264 38.552ZM11.688 46V44H3.456V46V48H11.688V46ZM3.456 46L5.33832 46.6759L19.3943 7.53191L17.512 6.856L15.6297 6.18008L1.57368 45.3241L3.456 46ZM17.512 6.856V8.856H26.64V6.856V4.856H17.512V6.856ZM26.64 6.856L24.7577 7.53191L38.8137 46.6759L40.696 46L42.5783 45.3241L28.5223 6.18008L26.64 6.856ZM40.696 46V44H32.408V46V48H40.696V46ZM32.408 46L34.2981 45.3463L31.7221 37.8983L29.832 38.552L27.9419 39.2057L30.5179 46.6537L32.408 46ZM27.704 32.28L29.5941 31.6262L23.9381 15.2742L22.048 15.928L20.1579 16.5818L25.8139 32.9338L27.704 32.28ZM22.048 15.928L20.1579 15.2742L14.5019 31.6262L16.392 32.28L18.2821 32.9338L23.9381 16.5818L22.048 15.928ZM16.392 32.28V34.28H27.704V32.28V30.28H16.392V32.28ZM54.3499 19.456H52.3499V25.7238L55.9803 20.6144L54.3499 19.456ZM58.4939 15.928L59.4332 17.6937L59.4398 17.6902L59.4465 17.6866L58.4939 15.928ZM71.7659 16.432L70.7194 18.1363L70.726 18.1404L70.7326 18.1444L71.7659 16.432ZM76.8619 22.032L75.0786 22.9374L75.087 22.9539L75.0957 22.9703L76.8619 22.032ZM76.8619 38.832L75.084 37.9161L75.0786 37.9266L76.8619 38.832ZM71.7659 44.488L70.7112 42.7887L70.7046 42.7928L70.698 42.797L71.7659 44.488ZM58.5499 45.104L57.5949 46.8612L57.6028 46.8655L57.6107 46.8697L58.5499 45.104ZM54.3499 41.576L55.9398 40.3627L52.3499 35.6586V41.576H54.3499ZM54.3499 60.784V62.784H56.3499V60.784H54.3499ZM46.5099 60.784H44.5099V62.784H46.5099V60.784ZM46.5099 14.976V12.976H44.5099V14.976H46.5099ZM54.3499 14.976H56.3499V12.976H54.3499V14.976ZM69.5819 25.56L67.8225 26.511L67.838 26.5396L67.8544 26.5677L69.5819 25.56ZM66.5579 22.424L65.56 24.1572L65.5711 24.1636L65.5823 24.1699L66.5579 22.424ZM58.4939 22.48L59.4919 24.2132L59.4999 24.2086L59.508 24.2039L58.4939 22.48ZM55.4699 25.616L53.7306 24.6288L53.7204 24.6468L53.7105 24.665L55.4699 25.616ZM55.4699 35.36L53.7105 36.311L53.7204 36.3292L53.7306 36.3472L55.4699 35.36ZM58.4939 38.552L57.4573 40.2624L57.4875 40.2807L57.5183 40.2979L58.4939 38.552ZM66.5579 38.496L65.5439 36.7721L65.5326 36.7788L65.5213 36.7856L66.5579 38.496ZM69.5819 35.304L67.8426 34.3168L67.8324 34.3348L67.8225 34.353L69.5819 35.304ZM54.3499 19.456L55.9803 20.6144C56.7842 19.483 57.9138 18.5019 59.4332 17.6937L58.4939 15.928L57.5547 14.1623C55.5648 15.2207 53.9317 16.5917 52.7196 18.2976L54.3499 19.456ZM58.4939 15.928L59.4465 17.6866C60.9129 16.8923 62.6135 16.472 64.5979 16.472V14.472V12.472C62.0277 12.472 59.6589 13.0224 57.5414 14.1694L58.4939 15.928ZM64.5979 14.472V16.472C66.9028 16.472 68.9258 17.035 70.7194 18.1363L71.7659 16.432L72.8125 14.7277C70.35 13.2156 67.5944 12.472 64.5979 12.472V14.472ZM71.7659 16.432L70.7326 18.1444C72.5528 19.2428 74.0027 20.8182 75.0786 22.9374L76.8619 22.032L78.6453 21.1266C77.2572 18.3925 75.3097 16.2345 72.7993 14.7196L71.7659 16.432ZM76.8619 22.032L75.0957 22.9703C76.187 25.0245 76.7659 27.4732 76.7659 30.376H78.7659H80.7659C80.7659 26.9321 80.0755 23.8181 78.6282 21.0937L76.8619 22.032ZM78.7659 30.376H76.7659C76.7659 33.2771 76.1875 35.7739 75.084 37.9161L76.8619 38.832L78.6399 39.7479C80.075 36.9621 80.7659 33.8215 80.7659 30.376H78.7659ZM76.8619 38.832L75.0786 37.9266C74.0006 40.05 72.5444 41.6509 70.7112 42.7887L71.7659 44.488L72.8207 46.1873C75.3182 44.6371 77.2593 42.4673 78.6453 39.7374L76.8619 38.832ZM71.7659 44.488L70.698 42.797C68.9069 43.9282 66.8916 44.504 64.5979 44.504V46.504V48.504C67.6056 48.504 70.3689 47.7358 72.8339 46.179L71.7659 44.488ZM64.5979 46.504V44.504C62.6 44.504 60.9149 44.0966 59.4892 43.3383L58.5499 45.104L57.6107 46.8697C59.6943 47.978 62.0412 48.504 64.5979 48.504V46.504ZM58.5499 45.104L59.505 43.3468C58.0114 42.535 56.8359 41.5367 55.9398 40.3627L54.3499 41.576L52.76 42.7893C54.0294 44.4526 55.6538 45.8063 57.5949 46.8612L58.5499 45.104ZM54.3499 41.576H52.3499V60.784H54.3499H56.3499V41.576H54.3499ZM54.3499 60.784V58.784H46.5099V60.784V62.784H54.3499V60.784ZM46.5099 60.784H48.5099V14.976H46.5099H44.5099V60.784H46.5099ZM46.5099 14.976V16.976H54.3499V14.976V12.976H46.5099V14.976ZM54.3499 14.976H52.3499V19.456H54.3499H56.3499V14.976H54.3499ZM70.7579 30.376H72.7579C72.7579 28.2261 72.3045 26.258 71.3095 24.5523L69.5819 25.56L67.8544 26.5677C68.4274 27.55 68.7579 28.7926 68.7579 30.376H70.7579ZM69.5819 25.56L71.3414 24.609C70.4292 22.9214 69.1609 21.5875 67.5336 20.6781L66.5579 22.424L65.5823 24.1699C66.4937 24.6792 67.2414 25.4359 67.8225 26.511L69.5819 25.56ZM66.5579 22.424L67.5559 20.6908C66.0127 19.8023 64.3233 19.36 62.5259 19.36V21.36V23.36C63.6405 23.36 64.6392 23.6271 65.56 24.1572L66.5579 22.424ZM62.5259 21.36V19.36C60.7368 19.36 59.0444 19.8359 57.4799 20.7561L58.4939 22.48L59.508 24.2039C60.4822 23.6308 61.4778 23.36 62.5259 23.36V21.36ZM58.4939 22.48L57.496 20.7468C55.9196 21.6544 54.6696 22.9744 53.7306 24.6288L55.4699 25.616L57.2093 26.6032C57.8383 25.495 58.6043 24.7243 59.4919 24.2132L58.4939 22.48ZM55.4699 25.616L53.7105 24.665C52.7787 26.3889 52.3499 28.3519 52.3499 30.488H54.3499H56.3499C56.3499 28.8908 56.6679 27.6057 57.2294 26.567L55.4699 25.616ZM54.3499 30.488H52.3499C52.3499 32.6241 52.7787 34.5871 53.7105 36.311L55.4699 35.36L57.2294 34.409C56.6679 33.3703 56.3499 32.0852 56.3499 30.488H54.3499ZM55.4699 35.36L53.7306 36.3472C54.6655 37.9945 55.9039 39.3209 57.4573 40.2624L58.4939 38.552L59.5305 36.8416C58.6199 36.2897 57.8424 35.4882 57.2093 34.3728L55.4699 35.36ZM58.4939 38.552L57.5183 40.2979C59.078 41.1695 60.7569 41.616 62.5259 41.616V39.616V37.616C61.4576 37.616 60.4485 37.3532 59.4696 36.8061L58.4939 38.552ZM62.5259 39.616V41.616C64.3433 41.616 66.0465 41.1446 67.5945 40.2064L66.5579 38.496L65.5213 36.7856C64.6054 37.3407 63.6206 37.616 62.5259 37.616V39.616ZM66.5579 38.496L67.572 40.2199C69.1765 39.276 70.4333 37.935 71.3414 36.255L69.5819 35.304L67.8225 34.353C67.2373 35.4357 66.478 36.2227 65.5439 36.7721L66.5579 38.496ZM69.5819 35.304L71.3213 36.2912C72.3072 34.5543 72.7579 32.5573 72.7579 30.376H70.7579H68.7579C68.7579 32.0027 68.4247 33.2911 67.8426 34.3168L69.5819 35.304ZM92.8631 19.456H90.8631V25.7238L94.4934 20.6144L92.8631 19.456ZM97.0071 15.928L97.9463 17.6937L97.953 17.6902L97.9596 17.6866L97.0071 15.928ZM110.279 16.432L109.233 18.1363L109.239 18.1404L109.246 18.1444L110.279 16.432ZM115.375 22.032L113.592 22.9374L113.6 22.9539L113.609 22.9703L115.375 22.032ZM115.375 38.832L113.597 37.9161L113.592 37.9266L115.375 38.832ZM110.279 44.488L109.224 42.7887L109.218 42.7928L109.211 42.797L110.279 44.488ZM97.0631 45.104L96.108 46.8612L96.1159 46.8655L96.1238 46.8697L97.0631 45.104ZM92.8631 41.576L94.453 40.3627L90.8631 35.6586V41.576H92.8631ZM92.8631 60.784V62.784H94.8631V60.784H92.8631ZM85.0231 60.784H83.0231V62.784H85.0231V60.784ZM85.0231 14.976V12.976H83.0231V14.976H85.0231ZM92.8631 14.976H94.8631V12.976H92.8631V14.976ZM108.095 25.56L106.336 26.511L106.351 26.5396L106.368 26.5677L108.095 25.56ZM105.071 22.424L104.073 24.1572L104.084 24.1636L104.095 24.1699L105.071 22.424ZM97.0071 22.48L98.005 24.2132L98.0131 24.2086L98.0211 24.2039L97.0071 22.48ZM93.9831 25.616L92.2437 24.6288L92.2335 24.6468L92.2237 24.665L93.9831 25.616ZM93.9831 35.36L92.2237 36.311L92.2335 36.3292L92.2437 36.3472L93.9831 35.36ZM97.0071 38.552L95.9705 40.2624L96.0006 40.2807L96.0314 40.2979L97.0071 38.552ZM105.071 38.496L104.057 36.7721L104.046 36.7788L104.034 36.7856L105.071 38.496ZM108.095 35.304L106.356 34.3168L106.345 34.3348L106.336 34.353L108.095 35.304ZM92.8631 19.456L94.4934 20.6144C95.2973 19.483 96.4269 18.5019 97.9463 17.6937L97.0071 15.928L96.0678 14.1623C94.0779 15.2207 92.4448 16.5917 91.2327 18.2976L92.8631 19.456ZM97.0071 15.928L97.9596 17.6866C99.4261 16.8923 101.127 16.472 103.111 16.472V14.472V12.472C100.541 12.472 98.1721 13.0224 96.0545 14.1694L97.0071 15.928ZM103.111 14.472V16.472C105.416 16.472 107.439 17.035 109.233 18.1363L110.279 16.432L111.326 14.7277C108.863 13.2156 106.107 12.472 103.111 12.472V14.472ZM110.279 16.432L109.246 18.1444C111.066 19.2428 112.516 20.8182 113.592 22.9374L115.375 22.032L117.158 21.1266C115.77 18.3925 113.823 16.2345 111.312 14.7196L110.279 16.432ZM115.375 22.032L113.609 22.9703C114.7 25.0245 115.279 27.4732 115.279 30.376H117.279H119.279C119.279 26.9321 118.589 23.8181 117.141 21.0937L115.375 22.032ZM117.279 30.376H115.279C115.279 33.2771 114.701 35.7739 113.597 37.9161L115.375 38.832L117.153 39.7479C118.588 36.9621 119.279 33.8215 119.279 30.376H117.279ZM115.375 38.832L113.592 37.9266C112.514 40.05 111.058 41.6509 109.224 42.7887L110.279 44.488L111.334 46.1873C113.831 44.6371 115.772 42.4673 117.158 39.7374L115.375 38.832ZM110.279 44.488L109.211 42.797C107.42 43.9282 105.405 44.504 103.111 44.504V46.504V48.504C106.119 48.504 108.882 47.7358 111.347 46.179L110.279 44.488ZM103.111 46.504V44.504C101.113 44.504 99.4281 44.0966 98.0023 43.3383L97.0631 45.104L96.1238 46.8697C98.2074 47.978 100.554 48.504 103.111 48.504V46.504ZM97.0631 45.104L98.0181 43.3468C96.5245 42.535 95.349 41.5367 94.453 40.3627L92.8631 41.576L91.2732 42.7893C92.5425 44.4526 94.1669 45.8063 96.108 46.8612L97.0631 45.104ZM92.8631 41.576H90.8631V60.784H92.8631H94.8631V41.576H92.8631ZM92.8631 60.784V58.784H85.0231V60.784V62.784H92.8631V60.784ZM85.0231 60.784H87.0231V14.976H85.0231H83.0231V60.784H85.0231ZM85.0231 14.976V16.976H92.8631V14.976V12.976H85.0231V14.976ZM92.8631 14.976H90.8631V19.456H92.8631H94.8631V14.976H92.8631ZM109.271 30.376H111.271C111.271 28.2261 110.818 26.258 109.823 24.5523L108.095 25.56L106.368 26.5677C106.94 27.55 107.271 28.7926 107.271 30.376H109.271ZM108.095 25.56L109.854 24.609C108.942 22.9214 107.674 21.5875 106.047 20.6781L105.071 22.424L104.095 24.1699C105.007 24.6792 105.754 25.4359 106.336 26.511L108.095 25.56ZM105.071 22.424L106.069 20.6908C104.526 19.8023 102.836 19.36 101.039 19.36V21.36V23.36C102.154 23.36 103.152 23.6271 104.073 24.1572L105.071 22.424ZM101.039 21.36V19.36C99.2499 19.36 97.5575 19.8359 95.993 20.7561L97.0071 22.48L98.0211 24.2039C98.9953 23.6308 99.9909 23.36 101.039 23.36V21.36ZM97.0071 22.48L96.0091 20.7468C94.4327 21.6544 93.1827 22.9744 92.2437 24.6288L93.9831 25.616L95.7224 26.6032C96.3514 25.495 97.1174 24.7243 98.005 24.2132L97.0071 22.48ZM93.9831 25.616L92.2237 24.665C91.2918 26.3889 90.8631 28.3519 90.8631 30.488H92.8631H94.8631C94.8631 28.8908 95.181 27.6057 95.7425 26.567L93.9831 25.616ZM92.8631 30.488H90.8631C90.8631 32.6241 91.2918 34.5871 92.2237 36.311L93.9831 35.36L95.7425 34.409C95.181 33.3703 94.8631 32.0852 94.8631 30.488H92.8631ZM93.9831 35.36L92.2437 36.3472C93.1786 37.9945 94.4171 39.3209 95.9705 40.2624L97.0071 38.552L98.0437 36.8416C97.1331 36.2897 96.3555 35.4882 95.7224 34.3728L93.9831 35.36ZM97.0071 38.552L96.0314 40.2979C97.5912 41.1695 99.27 41.616 101.039 41.616V39.616V37.616C99.9708 37.616 98.9616 37.3532 97.9827 36.8061L97.0071 38.552ZM101.039 39.616V41.616C102.856 41.616 104.56 41.1446 106.108 40.2064L105.071 38.496L104.034 36.7856C103.119 37.3407 102.134 37.616 101.039 37.616V39.616ZM105.071 38.496L106.085 40.2199C107.69 39.276 108.946 37.935 109.854 36.255L108.095 35.304L106.336 34.353C105.75 35.4357 104.991 36.2227 104.057 36.7721L105.071 38.496ZM108.095 35.304L109.834 36.2912C110.82 34.5543 111.271 32.5573 111.271 30.376H109.271H107.271C107.271 32.0027 106.938 33.2911 106.356 34.3168L108.095 35.304ZM131.376 4.56H133.376V2.56H131.376V4.56ZM131.376 46V48H133.376V46H131.376ZM123.536 46H121.536V48H123.536V46ZM123.536 4.56V2.56H121.536V4.56H123.536ZM131.376 4.56H129.376V46H131.376H133.376V4.56H131.376ZM131.376 46V44H123.536V46V48H131.376V46ZM123.536 46H125.536V4.56H123.536H121.536V46H123.536ZM123.536 4.56V6.56H131.376V4.56V2.56H123.536V4.56ZM140.186 9.992L138.772 11.4062L138.801 11.4357L138.832 11.4639L140.186 9.992ZM140.186 3.44L141.57 4.88397L141.571 4.88277L140.186 3.44ZM147.074 3.44L145.66 4.85421L145.689 4.88366L145.72 4.91186L147.074 3.44ZM147.074 9.992L148.458 11.436L148.459 11.4348L147.074 9.992ZM147.522 14.976H149.522V12.976H147.522V14.976ZM147.522 46V48H149.522V46H147.522ZM139.682 46H137.682V48H139.682V46ZM139.682 14.976V12.976H137.682V14.976H139.682ZM143.658 11.28V9.28C142.73 9.28 142.07 9.0076 141.54 8.52014L140.186 9.992L138.832 11.4639C140.169 12.6937 141.824 13.28 143.658 13.28V11.28ZM140.186 9.992L141.6 8.57779C141.092 8.06974 140.842 7.48273 140.842 6.688H138.842H136.842C136.842 8.50659 137.488 10.1223 138.772 11.4062L140.186 9.992ZM138.842 6.688H140.842C140.842 5.89423 141.09 5.34365 141.57 4.88397L140.186 3.44L138.802 1.99602C137.49 3.25368 136.842 4.86843 136.842 6.688H138.842ZM140.186 3.44L141.571 4.88277C142.105 4.3701 142.755 4.096 143.658 4.096V2.096V0.0959978C141.799 0.0959978 140.134 0.717893 138.801 1.99722L140.186 3.44ZM143.658 2.096V4.096C144.562 4.096 145.175 4.36895 145.66 4.85421L147.074 3.44L148.488 2.02578C147.182 0.71905 145.517 0.0959978 143.658 0.0959978V2.096ZM147.074 3.44L145.72 4.91186C146.228 5.37899 146.474 5.92147 146.474 6.688H148.474H150.474C150.474 4.84119 149.787 3.21833 148.428 1.96813L147.074 3.44ZM148.474 6.688H146.474C146.474 7.4562 146.225 8.03459 145.689 8.54923L147.074 9.992L148.459 11.4348C149.79 10.1574 150.474 8.53313 150.474 6.688H148.474ZM147.074 9.992L145.69 8.54802C145.21 9.00827 144.587 9.28 143.658 9.28V11.28V13.28C145.492 13.28 147.146 12.6931 148.458 11.436L147.074 9.992ZM147.522 14.976H145.522V46H147.522H149.522V14.976H147.522ZM147.522 46V44H139.682V46V48H147.522V46ZM139.682 46H141.682V14.976H139.682H137.682V46H139.682ZM139.682 14.976V16.976H147.522V14.976V12.976H139.682V14.976ZM155.772 22.088L157.527 23.0476L157.533 23.0362L155.772 22.088ZM161.204 16.488L162.187 18.2296L162.198 18.2237L162.208 18.2176L161.204 16.488ZM178.676 17.384L177.45 18.964L177.463 18.9741L177.476 18.984L178.676 17.384ZM183.772 25.448V27.448H186.327L185.714 24.9678L183.772 25.448ZM175.316 25.448L173.419 26.0805L173.875 27.448H175.316V25.448ZM173.02 22.312L171.82 23.912L171.852 23.9359L171.885 23.9584L173.02 22.312ZM163.78 23.6L165.331 24.8625L165.338 24.8538L165.345 24.845L163.78 23.6ZM163.78 37.376L162.215 38.621L162.222 38.6298L162.229 38.6385L163.78 37.376ZM175.316 35.528V33.528H173.886L173.424 34.8806L175.316 35.528ZM183.772 35.528L185.71 36.0232L186.347 33.528H183.772V35.528ZM178.676 43.536L179.906 45.1135L178.676 43.536ZM161.204 44.544L160.2 46.2736L160.21 46.2797L160.221 46.2856L161.204 44.544ZM155.772 38.944L154.011 39.8922L154.017 39.9036L155.772 38.944ZM153.812 30.488H155.812C155.812 27.5526 156.408 25.0941 157.527 23.0476L155.772 22.088L154.017 21.1284C152.523 23.8606 151.812 27.0021 151.812 30.488H153.812ZM155.772 22.088L157.533 23.0362C158.668 20.9292 160.214 19.3435 162.187 18.2296L161.204 16.488L160.221 14.7464C157.565 16.2458 155.49 18.3934 154.011 21.1398L155.772 22.088ZM161.204 16.488L162.208 18.2176C164.184 17.0706 166.48 16.472 169.156 16.472V14.472V12.472C165.858 12.472 162.854 13.2174 160.2 14.7584L161.204 16.488ZM169.156 14.472V16.472C172.655 16.472 175.37 17.3494 177.45 18.964L178.676 17.384L179.902 15.804C176.98 13.5359 173.347 12.472 169.156 12.472V14.472ZM178.676 17.384L177.476 18.984C179.599 20.5763 181.068 22.8435 181.831 25.9282L183.772 25.448L185.714 24.9678C184.759 21.1085 182.83 17.9997 179.876 15.784L178.676 17.384ZM183.772 25.448V23.448H175.316V25.448V27.448H183.772V25.448ZM175.316 25.448L177.213 24.8155C176.639 23.0936 175.624 21.6781 174.156 20.6656L173.02 22.312L171.885 23.9584C172.582 24.4392 173.097 25.1144 173.419 26.0805L175.316 25.448ZM173.02 22.312L174.22 20.712C172.764 19.6196 171.012 19.136 169.1 19.136V21.136V23.136C170.324 23.136 171.186 23.4364 171.82 23.912L173.02 22.312ZM169.1 21.136V19.136C166.298 19.136 163.929 20.1996 162.215 22.355L163.78 23.6L165.345 24.845C166.244 23.7151 167.422 23.136 169.1 23.136V21.136ZM163.78 23.6L162.229 22.3375C160.527 24.4279 159.82 27.2399 159.82 30.488H161.82H163.82C163.82 27.7627 164.419 25.9828 165.331 24.8625L163.78 23.6ZM161.82 30.488H159.82C159.82 33.7097 160.532 36.5056 162.215 38.621L163.78 37.376L165.345 36.131C164.415 34.9611 163.82 33.1649 163.82 30.488H161.82ZM163.78 37.376L162.229 38.6385C163.95 40.7526 166.315 41.784 169.1 41.784V39.784V37.784C167.405 37.784 166.224 37.2101 165.331 36.1135L163.78 37.376ZM169.1 39.784V41.784C170.984 41.784 172.717 41.3609 174.164 40.3703C175.621 39.3729 176.611 37.9202 177.208 36.1754L175.316 35.528L173.424 34.8806C173.05 35.9731 172.52 36.6484 171.904 37.0697C171.279 37.4977 170.39 37.784 169.1 37.784V39.784ZM175.316 35.528V37.528H183.772V35.528V33.528H175.316V35.528ZM183.772 35.528L181.834 35.0328C181.076 37.999 179.608 40.2739 177.447 41.9585L178.676 43.536L179.906 45.1135C182.821 42.8408 184.75 39.777 185.71 36.0232L183.772 35.528ZM178.676 43.536L177.447 41.9585C175.321 43.6155 172.603 44.504 169.156 44.504V46.504V48.504C173.325 48.504 176.954 47.4138 179.906 45.1135L178.676 43.536ZM169.156 46.504V44.504C166.471 44.504 164.166 43.9195 162.187 42.8024L161.204 44.544L160.221 46.2856C162.871 47.7818 165.868 48.504 169.156 48.504V46.504ZM161.204 44.544L162.208 42.8144C160.215 41.6571 158.662 40.0593 157.527 37.9844L155.772 38.944L154.017 39.9036C155.496 42.6074 157.564 44.7429 160.2 46.2736L161.204 44.544ZM155.772 38.944L157.533 37.9958C156.407 35.9053 155.812 33.4225 155.812 30.488H153.812H151.812C151.812 33.9748 152.523 37.1294 154.011 39.8922L155.772 38.944ZM189.908 22.032L188.135 21.105L188.13 21.1158L188.124 21.1266L189.908 22.032ZM195.004 16.432L193.97 14.7196L193.964 14.7236L193.957 14.7277L195.004 16.432ZM208.276 15.872L207.321 17.6292L207.328 17.6335L207.336 17.6377L208.276 15.872ZM212.476 19.4L210.865 20.5864L214.476 25.4858V19.4H212.476ZM212.476 14.976V12.976H210.476V14.976H212.476ZM220.372 14.976H222.372V12.976H220.372V14.976ZM220.372 46V48H222.372V46H220.372ZM212.476 46H210.476V48H212.476V46ZM212.476 41.464H214.476V35.0615L210.831 40.3256L212.476 41.464ZM208.276 45.104L209.215 46.8697L209.221 46.8662L209.228 46.8626L208.276 45.104ZM195.004 44.488L193.936 46.179L193.942 46.1832L193.949 46.1873L195.004 44.488ZM189.908 38.832L188.119 39.7264L188.127 39.7428L188.135 39.759L189.908 38.832ZM211.356 25.616L209.596 26.567L209.602 26.5772L209.607 26.5873L211.356 25.616ZM208.332 22.48L207.318 24.2039L207.337 24.2151L207.356 24.2259L208.332 22.48ZM200.212 22.424L199.214 20.6908V20.6908L200.212 22.424ZM197.188 25.56L195.448 24.5728L195.444 24.5807L195.439 24.5887L197.188 25.56ZM197.188 35.304L195.418 36.2355L195.433 36.2636L195.448 36.2912L197.188 35.304ZM200.212 38.496L199.175 40.2064L199.186 40.2132L199.198 40.2199L200.212 38.496ZM208.332 38.552L209.307 40.2979L209.327 40.2871L209.346 40.2759L208.332 38.552ZM211.356 35.416L213.104 36.3873L213.109 36.3772L213.115 36.367L211.356 35.416ZM188.06 30.376H190.06C190.06 27.5066 190.622 25.0436 191.691 22.9374L189.908 22.032L188.124 21.1266C186.73 23.8738 186.06 26.9734 186.06 30.376H188.06ZM189.908 22.032L191.68 22.959C192.798 20.8203 194.259 19.2361 196.05 18.1363L195.004 16.432L193.957 14.7277C191.492 16.2412 189.555 18.3904 188.135 21.105L189.908 22.032ZM195.004 16.432L196.037 18.1444C197.875 17.0351 199.923 16.472 202.228 16.472V14.472V12.472C199.231 12.472 196.463 13.2155 193.97 14.7196L195.004 16.432ZM202.228 14.472V16.472C204.27 16.472 205.946 16.8822 207.321 17.6292L208.276 15.872L209.231 14.1147C207.171 12.9951 204.814 12.472 202.228 12.472V14.472ZM208.276 15.872L207.336 17.6377C208.861 18.4486 210.019 19.4377 210.865 20.5864L212.476 19.4L214.086 18.2136C212.841 16.5249 211.2 15.162 209.215 14.1063L208.276 15.872ZM212.476 19.4H214.476V14.976H212.476H210.476V19.4H212.476ZM212.476 14.976V16.976H220.372V14.976V12.976H212.476V14.976ZM220.372 14.976H218.372V46H220.372H222.372V14.976H220.372ZM220.372 46V44H212.476V46V48H220.372V46ZM212.476 46H214.476V41.464H212.476H210.476V46H212.476ZM212.476 41.464L210.831 40.3256C210.027 41.487 208.881 42.5017 207.323 43.3454L208.276 45.104L209.228 46.8626C211.254 45.765 212.908 44.353 214.12 42.6024L212.476 41.464ZM208.276 45.104L207.336 43.3383C205.915 44.0942 204.213 44.504 202.172 44.504V46.504V48.504C204.76 48.504 207.127 47.9804 209.215 46.8697L208.276 45.104ZM202.172 46.504V44.504C199.921 44.504 197.899 43.931 196.058 42.7887L195.004 44.488L193.949 46.1873C196.439 47.733 199.195 48.504 202.172 48.504V46.504ZM195.004 44.488L196.072 42.797C194.267 41.6576 192.801 40.0478 191.68 37.905L189.908 38.832L188.135 39.759C189.553 42.4696 191.484 44.6304 193.936 46.179L195.004 44.488ZM189.908 38.832L191.696 37.9376C190.623 35.7907 190.06 33.2861 190.06 30.376H188.06H186.06C186.06 33.8126 186.728 36.9453 188.119 39.7264L189.908 38.832ZM212.476 30.488H214.476C214.476 28.3242 214.051 26.3487 213.104 24.6447L211.356 25.616L209.607 26.5873C210.154 27.5713 210.476 28.8438 210.476 30.488H212.476ZM211.356 25.616L213.115 24.665C212.203 22.9774 210.934 21.6435 209.307 20.7341L208.332 22.48L207.356 24.2259C208.267 24.7352 209.015 25.4919 209.596 26.567L211.356 25.616ZM208.332 22.48L209.346 20.7561C207.773 19.8308 206.06 19.36 204.244 19.36V21.36V23.36C205.339 23.36 206.352 23.6358 207.318 24.2039L208.332 22.48ZM204.244 21.36V19.36C202.446 19.36 200.757 19.8023 199.214 20.6908L200.212 22.424L201.209 24.1572C202.13 23.6271 203.129 23.36 204.244 23.36V21.36ZM200.212 22.424L199.214 20.6908C197.637 21.5984 196.387 22.9184 195.448 24.5728L197.188 25.56L198.927 26.5472C199.556 25.439 200.322 24.6683 201.209 24.1572L200.212 22.424ZM197.188 25.56L195.439 24.5887C194.496 26.2872 194.068 28.2418 194.068 30.376H196.068H198.068C198.068 28.7769 198.386 27.5208 198.936 26.5313L197.188 25.56ZM196.068 30.376H194.068C194.068 32.5137 194.497 34.4857 195.418 36.2355L197.188 35.304L198.957 34.3725C198.385 33.2849 198.068 31.9716 198.068 30.376H196.068ZM197.188 35.304L195.448 36.2912C196.383 37.9385 197.622 39.2649 199.175 40.2064L200.212 38.496L201.248 36.7856C200.338 36.2337 199.56 35.4322 198.927 34.3168L197.188 35.304ZM200.212 38.496L199.198 40.2199C200.762 41.1401 202.454 41.616 204.244 41.616V39.616V37.616C203.195 37.616 202.2 37.3452 201.226 36.7721L200.212 38.496ZM204.244 39.616V41.616C206.041 41.616 207.739 41.1741 209.307 40.2979L208.332 38.552L207.356 36.8061C206.385 37.3486 205.358 37.616 204.244 37.616V39.616ZM208.332 38.552L209.346 40.2759C210.936 39.3402 212.192 38.0288 213.104 36.3873L211.356 35.416L209.607 34.4447C209.026 35.4912 208.266 36.2705 207.318 36.8281L208.332 38.552ZM211.356 35.416L213.115 36.367C214.05 34.6376 214.476 32.654 214.476 30.488H212.476H210.476C210.476 32.13 210.155 33.4317 209.596 34.465L211.356 35.416ZM237.717 21.416V19.416H235.717V21.416H237.717ZM238.445 38.72L237.03 40.1342L237.085 40.1885L237.143 40.2385L238.445 38.72ZM244.661 39.392H246.661V37.392H244.661V39.392ZM244.661 46V48H246.661V46H244.661ZM229.821 21.416H231.821V19.416H229.821V21.416ZM226.125 21.416H224.125V23.416H226.125V21.416ZM226.125 14.976V12.976H224.125V14.976H226.125ZM229.821 14.976V16.976H231.821V14.976H229.821ZM229.821 7.304V5.304H227.821V7.304H229.821ZM237.717 7.304H239.717V5.304H237.717V7.304ZM237.717 14.976H235.717V16.976H237.717V14.976ZM244.661 14.976H246.661V12.976H244.661V14.976ZM244.661 21.416V23.416H246.661V21.416H244.661ZM237.717 21.416H235.717V36.424H237.717H239.717V21.416H237.717ZM237.717 36.424H235.717C235.717 37.7273 236.014 39.1173 237.03 40.1342L238.445 38.72L239.859 37.3058C239.905 37.3521 239.717 37.2114 239.717 36.424H237.717ZM238.445 38.72L237.143 40.2385C238.213 41.1558 239.668 41.392 241.021 41.392V39.392V37.392C240.539 37.392 240.204 37.3459 239.986 37.2888C239.768 37.232 239.72 37.1793 239.746 37.2015L238.445 38.72ZM241.021 39.392V41.392H244.661V39.392V37.392H241.021V39.392ZM244.661 39.392H242.661V46H244.661H246.661V39.392H244.661ZM244.661 46V44H239.733V46V48H244.661V46ZM239.733 46V44C236.723 44 234.835 43.2683 233.692 42.1577C232.56 41.0574 231.821 39.2556 231.821 36.368H229.821H227.821C227.821 39.9017 228.733 42.916 230.905 45.0263C233.066 47.1264 236.135 48 239.733 48V46ZM229.821 36.368H231.821V21.416H229.821H227.821V36.368H229.821ZM229.821 21.416V19.416H226.125V21.416V23.416H229.821V21.416ZM226.125 21.416H228.125V14.976H226.125H224.125V21.416H226.125ZM226.125 14.976V16.976H229.821V14.976V12.976H226.125V14.976ZM229.821 14.976H231.821V7.304H229.821H227.821V14.976H229.821ZM229.821 7.304V9.304H237.717V7.304V5.304H229.821V7.304ZM237.717 7.304H235.717V14.976H237.717H239.717V7.304H237.717ZM237.717 14.976V16.976H244.661V14.976V12.976H237.717V14.976ZM244.661 14.976H242.661V21.416H244.661H246.661V14.976H244.661ZM244.661 21.416V19.416H237.717V21.416V23.416H244.661V21.416ZM251.364 9.992L249.949 11.4062L249.979 11.4357L250.01 11.4639L251.364 9.992ZM251.364 3.44L252.747 4.88397L252.749 4.88277L251.364 3.44ZM258.252 3.44L256.837 4.85421L256.867 4.88366L256.898 4.91186L258.252 3.44ZM258.252 9.992L259.635 11.436L259.637 11.4348L258.252 9.992ZM258.7 14.976H260.7V12.976H258.7V14.976ZM258.7 46V48H260.7V46H258.7ZM250.86 46H248.86V48H250.86V46ZM250.86 14.976V12.976H248.86V14.976H250.86ZM254.836 11.28V9.28C253.907 9.28 253.248 9.0076 252.718 8.52014L251.364 9.992L250.01 11.4639C251.346 12.6937 253.001 13.28 254.836 13.28V11.28ZM251.364 9.992L252.778 8.57779C252.27 8.06974 252.02 7.48273 252.02 6.688H250.02H248.02C248.02 8.50659 248.665 10.1223 249.949 11.4062L251.364 9.992ZM250.02 6.688H252.02C252.02 5.89423 252.268 5.34365 252.747 4.88397L251.364 3.44L249.98 1.99602C248.667 3.25368 248.02 4.86843 248.02 6.688H250.02ZM251.364 3.44L252.749 4.88277C253.283 4.3701 253.932 4.096 254.836 4.096V2.096V0.0959978C252.976 0.0959978 251.311 0.717893 249.979 1.99722L251.364 3.44ZM254.836 2.096V4.096C255.739 4.096 256.352 4.36895 256.837 4.85421L258.252 3.44L259.666 2.02578C258.359 0.71905 256.695 0.0959978 254.836 0.0959978V2.096ZM258.252 3.44L256.898 4.91186C257.405 5.37899 257.652 5.92147 257.652 6.688H259.652H261.652C261.652 4.84119 260.965 3.21833 259.606 1.96813L258.252 3.44ZM259.652 6.688H257.652C257.652 7.4562 257.403 8.03459 256.867 8.54923L258.252 9.992L259.637 11.4348C260.967 10.1574 261.652 8.53313 261.652 6.688H259.652ZM258.252 9.992L256.868 8.54802C256.388 9.00827 255.765 9.28 254.836 9.28V11.28V13.28C256.669 13.28 258.324 12.6931 259.635 11.436L258.252 9.992ZM258.7 14.976H256.7V46H258.7H260.7V14.976H258.7ZM258.7 46V44H250.86V46V48H258.7V46ZM250.86 46H252.86V14.976H250.86H248.86V46H250.86ZM250.86 14.976V16.976H258.7V14.976V12.976H250.86V14.976ZM272.718 44.544L271.737 46.2872L271.747 46.293L271.758 46.2987L272.718 44.544ZM267.062 38.888L265.312 39.857L265.318 39.8672L265.323 39.8774L267.062 38.888ZM267.118 22.088L265.391 21.0786L265.385 21.0886L265.379 21.0986L267.118 22.088ZM272.886 16.488L273.834 18.2489L273.844 18.2433L273.855 18.2376L272.886 16.488ZM289.126 16.488L288.157 18.2376L288.167 18.2433L288.177 18.2489L289.126 16.488ZM294.838 22.088L293.099 23.0774L293.105 23.0874L293.111 23.0974L294.838 22.088ZM294.782 38.888L293.067 37.859L293.061 37.8688L293.055 37.8786L294.782 38.888ZM288.958 44.544L289.906 46.305L289.915 46.2998L288.958 44.544ZM284.758 38.664L285.715 40.4198L285.724 40.4149L285.733 40.4099L284.758 38.664ZM287.782 35.528L289.541 36.479V36.479L287.782 35.528ZM286.55 23.712L285.102 25.0921L285.119 25.1094L285.135 25.1262L286.55 23.712ZM275.238 23.712L273.79 22.3318L273.789 22.3327L275.238 23.712ZM275.182 37.32L273.7 38.6636L273.716 38.6817L273.733 38.6993L275.182 37.32ZM280.782 46.504V44.504C278.097 44.504 275.744 43.9198 273.677 42.7893L272.718 44.544L271.758 46.2987C274.469 47.7815 277.493 48.504 280.782 48.504V46.504ZM272.718 44.544L273.698 42.8008C271.631 41.6382 270.005 40.0161 268.8 37.8986L267.062 38.888L265.323 39.8774C266.881 42.6132 269.025 44.7618 271.737 46.2872L272.718 44.544ZM267.062 38.888L268.811 37.919C267.654 35.8293 267.046 33.3717 267.046 30.488H265.046H263.046C263.046 33.9509 263.781 37.0934 265.312 39.857L267.062 38.888ZM265.046 30.488H267.046C267.046 27.6135 267.668 25.1633 268.856 23.0774L267.118 22.088L265.379 21.0986C263.804 23.866 263.046 27.0159 263.046 30.488H265.046ZM267.118 22.088L268.844 23.0974C270.081 20.9814 271.737 19.3778 273.834 18.2489L272.886 16.488L271.937 14.7271C269.18 16.2116 266.991 18.3413 265.391 21.0786L267.118 22.088ZM272.886 16.488L273.855 18.2376C275.962 17.0703 278.331 16.472 281.006 16.472V14.472V12.472C277.707 12.472 274.662 13.2177 271.917 14.7384L272.886 16.488ZM281.006 14.472V16.472C283.68 16.472 286.049 17.0703 288.157 18.2376L289.126 16.488L290.095 14.7384C287.349 13.2177 284.304 12.472 281.006 12.472V14.472ZM289.126 16.488L288.177 18.2489C290.269 19.3752 291.901 20.9724 293.099 23.0774L294.838 22.088L296.576 21.0986C295.011 18.3503 292.835 16.2141 290.074 14.7271L289.126 16.488ZM294.838 22.088L293.111 23.0974C294.328 25.1799 294.966 27.6227 294.966 30.488H296.966H298.966C298.966 27.0066 298.184 23.8495 296.564 21.0786L294.838 22.088ZM296.966 30.488H294.966C294.966 33.3439 294.314 35.7797 293.067 37.859L294.782 38.888L296.497 39.917C298.161 37.143 298.966 33.9787 298.966 30.488H296.966ZM294.782 38.888L293.055 37.8786C291.82 39.9917 290.144 41.6187 288 42.7882L288.958 44.544L289.915 46.2998C292.699 44.7813 294.906 42.6377 296.508 39.8974L294.782 38.888ZM288.958 44.544L288.009 42.7831C285.902 43.9179 283.507 44.504 280.782 44.504V46.504V48.504C284.104 48.504 287.16 47.7834 289.906 46.3049L288.958 44.544ZM280.782 39.672V41.672C282.531 41.672 284.186 41.2538 285.715 40.4198L284.758 38.664L283.8 36.9082C282.865 37.4181 281.869 37.672 280.782 37.672V39.672ZM284.758 38.664L285.733 40.4099C287.36 39.5005 288.629 38.1665 289.541 36.479L287.782 35.528L286.022 34.577C285.441 35.6521 284.693 36.4088 283.782 36.9181L284.758 38.664ZM287.782 35.528L289.541 36.479C290.481 34.7392 290.902 32.7141 290.902 30.488H288.902H286.902C286.902 32.2193 286.575 33.5541 286.022 34.577L287.782 35.528ZM288.902 30.488H290.902C290.902 27.1893 290.018 24.3519 287.964 22.2978L286.55 23.712L285.135 25.1262C286.217 26.2081 286.902 27.8881 286.902 30.488H288.902ZM286.55 23.712L287.997 22.3318C286.085 20.3263 283.674 19.304 280.894 19.304V21.304V23.304C282.593 23.304 283.953 23.8871 285.102 25.0921L286.55 23.712ZM280.894 21.304V19.304C278.113 19.304 275.702 20.3263 273.79 22.3318L275.238 23.712L276.685 25.0921C277.834 23.8871 279.194 23.304 280.894 23.304V21.304ZM275.238 23.712L273.789 22.3327C271.83 24.3901 270.998 27.2143 270.998 30.488H272.998H274.998C274.998 27.863 275.659 26.1699 276.686 25.0913L275.238 23.712ZM272.998 30.488H270.998C270.998 33.7529 271.806 36.5752 273.7 38.6636L275.182 37.32L276.663 35.9764C275.645 34.8541 274.998 33.1218 274.998 30.488H272.998ZM275.182 37.32L273.733 38.6993C275.619 40.6788 278.015 41.672 280.782 41.672V39.672V37.672C279.068 37.672 277.731 37.0972 276.63 35.9407L275.182 37.32ZM329.428 18.056L327.992 19.4472L327.997 19.453L328.003 19.4587L329.428 18.056ZM332.845 46V48H334.845V46H332.845ZM325.005 46H323.005V48H325.005V46ZM323.156 23.208L321.682 24.5594L321.692 24.5698L321.701 24.58L323.156 23.208ZM312.965 23.208L311.51 21.8348L311.509 21.836L312.965 23.208ZM311.117 46V48H313.117V46H311.117ZM303.277 46H301.277V48H303.277V46ZM303.277 14.976V12.976H301.277V14.976H303.277ZM311.117 14.976H313.117V12.976H311.117V14.976ZM311.117 18.84H309.117V24.6691L312.695 20.0679L311.117 18.84ZM315.092 15.704L315.936 17.5174L315.945 17.5132L315.954 17.509L315.092 15.704ZM320.469 14.528V16.528C323.699 16.528 326.141 17.5361 327.992 19.4472L329.428 18.056L330.865 16.6648C328.161 13.8719 324.63 12.528 320.469 12.528V14.528ZM329.428 18.056L328.003 19.4587C329.815 21.3002 330.845 23.986 330.845 27.8H332.845H334.845C334.845 23.2514 333.597 19.4411 330.854 16.6533L329.428 18.056ZM332.845 27.8H330.845V46H332.845H334.845V27.8H332.845ZM332.845 46V44H325.005V46V48H332.845V46ZM325.005 46H327.005V28.864H325.005H323.005V46H325.005ZM325.005 28.864H327.005C327.005 26.0822 326.306 23.6334 324.612 21.836L323.156 23.208L321.701 24.58C322.471 25.396 323.005 26.7178 323.005 28.864H325.005ZM323.156 23.208L324.631 21.8566C322.956 20.0293 320.703 19.192 318.117 19.192V21.192V23.192C319.786 23.192 320.893 23.6987 321.682 24.5594L323.156 23.208ZM318.117 21.192V19.192C315.504 19.192 313.223 20.0218 311.51 21.8348L312.965 23.208L314.419 24.5812C315.245 23.7062 316.399 23.192 318.117 23.192V21.192ZM312.965 23.208L311.509 21.836C309.815 23.6334 309.117 26.0822 309.117 28.864H311.117H313.117C313.117 26.7178 313.65 25.396 314.42 24.58L312.965 23.208ZM311.117 28.864H309.117V46H311.117H313.117V28.864H311.117ZM311.117 46V44H303.277V46V48H311.117V46ZM303.277 46H305.277V14.976H303.277H301.277V46H303.277ZM303.277 14.976V16.976H311.117V14.976V12.976H303.277V14.976ZM311.117 14.976H309.117V18.84H311.117H313.117V14.976H311.117ZM311.117 18.84L312.695 20.0679C313.538 18.9848 314.607 18.1356 315.936 17.5174L315.092 15.704L314.249 13.8906C312.367 14.7657 310.786 16.0072 309.538 17.6121L311.117 18.84ZM315.092 15.704L315.954 17.509C317.31 16.8618 318.805 16.528 320.469 16.528V14.528V12.528C318.249 12.528 316.16 12.9782 314.231 13.899L315.092 15.704Z" fill="#ECEDEE" mask="url(#path-1-outside-1_165_814)"/>
</svg>
