<svg width="118" height="28" viewBox="0 0 118 28" fill="none" xmlns="http://www.w3.org/2000/svg">
<mask id="path-1-outside-1_530_2300" maskUnits="userSpaceOnUse" x="0" y="0" width="118" height="28" fill="black">
<rect fill="white" width="118" height="28"/>
<path d="M7.2155 19.152C7.5355 20.8373 8.51683 21.68 10.1595 21.68C11.2902 21.68 12.0902 21.1787 12.5595 20.176C13.0288 19.1733 13.2635 17.5413 13.2635 15.28C12.7942 15.9413 12.1542 16.4533 11.3435 16.816C10.5328 17.1787 9.62617 17.36 8.6235 17.36C7.25817 17.36 6.04217 17.0827 4.9755 16.528C3.90883 15.952 3.06617 15.1093 2.4475 14C1.85017 12.8693 1.5515 11.504 1.5515 9.904C1.5515 8.32533 1.8715 6.94933 2.5115 5.776C3.17283 4.60267 4.10083 3.696 5.2955 3.056C6.5115 2.416 7.94083 2.096 9.5835 2.096C12.7408 2.096 14.9488 3.07733 16.2075 5.04C17.4662 7.00267 18.0955 9.89333 18.0955 13.712C18.0955 16.4853 17.8395 18.7787 17.3275 20.592C16.8368 22.384 15.9942 23.7493 14.7995 24.688C13.6262 25.6267 12.0155 26.096 9.9675 26.096C8.34617 26.096 6.9595 25.776 5.8075 25.136C4.67683 24.496 3.80217 23.6533 3.1835 22.608C2.58617 21.5627 2.24483 20.4107 2.1595 19.152H7.2155ZM9.8715 13.04C10.7675 13.04 11.4822 12.7733 12.0155 12.24C12.5488 11.6853 12.8155 10.9387 12.8155 10C12.8155 8.976 12.5382 8.18667 11.9835 7.632C11.4288 7.07733 10.6822 6.8 9.7435 6.8C8.80483 6.8 8.05817 7.088 7.5035 7.664C6.97017 8.21867 6.7035 8.98667 6.7035 9.968C6.7035 10.8853 6.97017 11.632 7.5035 12.208C8.05817 12.7627 8.8475 13.04 9.8715 13.04ZM27.223 19.152C27.543 20.8373 28.5243 21.68 30.167 21.68C31.2977 21.68 32.0977 21.1787 32.567 20.176C33.0363 19.1733 33.271 17.5413 33.271 15.28C32.8017 15.9413 32.1617 16.4533 31.351 16.816C30.5403 17.1787 29.6337 17.36 28.631 17.36C27.2657 17.36 26.0497 17.0827 24.983 16.528C23.9163 15.952 23.0737 15.1093 22.455 14C21.8577 12.8693 21.559 11.504 21.559 9.904C21.559 8.32533 21.879 6.94933 22.519 5.776C23.1803 4.60267 24.1083 3.696 25.303 3.056C26.519 2.416 27.9483 2.096 29.591 2.096C32.7483 2.096 34.9563 3.07733 36.215 5.04C37.4737 7.00267 38.103 9.89333 38.103 13.712C38.103 16.4853 37.847 18.7787 37.335 20.592C36.8443 22.384 36.0017 23.7493 34.807 24.688C33.6337 25.6267 32.023 26.096 29.975 26.096C28.3537 26.096 26.967 25.776 25.815 25.136C24.6843 24.496 23.8097 23.6533 23.191 22.608C22.5937 21.5627 22.2523 20.4107 22.167 19.152H27.223ZM29.879 13.04C30.775 13.04 31.4897 12.7733 32.023 12.24C32.5563 11.6853 32.823 10.9387 32.823 10C32.823 8.976 32.5457 8.18667 31.991 7.632C31.4363 7.07733 30.6897 6.8 29.751 6.8C28.8123 6.8 28.0657 7.088 27.511 7.664C26.9777 8.21867 26.711 8.98667 26.711 9.968C26.711 10.8853 26.9777 11.632 27.511 12.208C28.0657 12.7627 28.855 13.04 29.879 13.04ZM44.4465 26.256C43.4865 26.256 42.6972 25.9787 42.0785 25.424C41.4812 24.848 41.1825 24.144 41.1825 23.312C41.1825 22.4587 41.4812 21.744 42.0785 21.168C42.6972 20.592 43.4865 20.304 44.4465 20.304C45.3852 20.304 46.1532 20.592 46.7505 21.168C47.3692 21.744 47.6785 22.4587 47.6785 23.312C47.6785 24.144 47.3692 24.848 46.7505 25.424C46.1532 25.9787 45.3852 26.256 44.4465 26.256ZM56.5818 19.152C56.9018 20.8373 57.8831 21.68 59.5258 21.68C60.6564 21.68 61.4564 21.1787 61.9258 20.176C62.3951 19.1733 62.6298 17.5413 62.6298 15.28C62.1604 15.9413 61.5204 16.4533 60.7098 16.816C59.8991 17.1787 58.9924 17.36 57.9898 17.36C56.6244 17.36 55.4084 17.0827 54.3418 16.528C53.2751 15.952 52.4324 15.1093 51.8138 14C51.2164 12.8693 50.9178 11.504 50.9178 9.904C50.9178 8.32533 51.2378 6.94933 51.8778 5.776C52.5391 4.60267 53.4671 3.696 54.6618 3.056C55.8778 2.416 57.3071 2.096 58.9498 2.096C62.1071 2.096 64.3151 3.07733 65.5738 5.04C66.8324 7.00267 67.4618 9.89333 67.4618 13.712C67.4618 16.4853 67.2058 18.7787 66.6938 20.592C66.2031 22.384 65.3604 23.7493 64.1658 24.688C62.9924 25.6267 61.3818 26.096 59.3338 26.096C57.7124 26.096 56.3258 25.776 55.1738 25.136C54.0431 24.496 53.1684 23.6533 52.5498 22.608C51.9524 21.5627 51.6111 20.4107 51.5258 19.152H56.5818ZM59.2378 13.04C60.1338 13.04 60.8484 12.7733 61.3818 12.24C61.9151 11.6853 62.1818 10.9387 62.1818 10C62.1818 8.976 61.9044 8.18667 61.3498 7.632C60.7951 7.07733 60.0484 6.8 59.1098 6.8C58.1711 6.8 57.4244 7.088 56.8698 7.664C56.3364 8.21867 56.0698 8.98667 56.0698 9.968C56.0698 10.8853 56.3364 11.632 56.8698 12.208C57.4244 12.7627 58.2138 13.04 59.2378 13.04ZM76.5892 19.152C76.9092 20.8373 77.8906 21.68 79.5332 21.68C80.6639 21.68 81.4639 21.1787 81.9332 20.176C82.4026 19.1733 82.6372 17.5413 82.6372 15.28C82.1679 15.9413 81.5279 16.4533 80.7172 16.816C79.9066 17.1787 78.9999 17.36 77.9972 17.36C76.6319 17.36 75.4159 17.0827 74.3492 16.528C73.2826 15.952 72.4399 15.1093 71.8212 14C71.2239 12.8693 70.9252 11.504 70.9252 9.904C70.9252 8.32533 71.2452 6.94933 71.8852 5.776C72.5466 4.60267 73.4746 3.696 74.6692 3.056C75.8852 2.416 77.3146 2.096 78.9572 2.096C82.1146 2.096 84.3226 3.07733 85.5812 5.04C86.8399 7.00267 87.4692 9.89333 87.4692 13.712C87.4692 16.4853 87.2132 18.7787 86.7012 20.592C86.2106 22.384 85.3679 23.7493 84.1732 24.688C82.9999 25.6267 81.3892 26.096 79.3412 26.096C77.7199 26.096 76.3332 25.776 75.1812 25.136C74.0506 24.496 73.1759 23.6533 72.5572 22.608C71.9599 21.5627 71.6186 20.4107 71.5332 19.152H76.5892ZM79.2452 13.04C80.1412 13.04 80.8559 12.7733 81.3892 12.24C81.9226 11.6853 82.1892 10.9387 82.1892 10C82.1892 8.976 81.9119 8.18667 81.3572 7.632C80.8026 7.07733 80.0559 6.8 79.1172 6.8C78.1786 6.8 77.4319 7.088 76.8772 7.664C76.3439 8.21867 76.0772 8.98667 76.0772 9.968C76.0772 10.8853 76.3439 11.632 76.8772 12.208C77.4319 12.7627 78.2212 13.04 79.2452 13.04ZM90.2608 8.528C90.2608 6.8 90.7514 5.46667 91.7328 4.528C92.7354 3.58933 94.0261 3.12 95.6048 3.12C97.1834 3.12 98.4634 3.58933 99.4448 4.528C100.426 5.46667 100.917 6.8 100.917 8.528C100.917 10.256 100.426 11.5893 99.4448 12.528C98.4634 13.4667 97.1834 13.936 95.6048 13.936C94.0261 13.936 92.7354 13.4667 91.7328 12.528C90.7514 11.5893 90.2608 10.256 90.2608 8.528ZM111.989 3.472L99.6688 26H94.3888L106.709 3.472H111.989ZM95.5728 6.32C94.5488 6.32 94.0368 7.056 94.0368 8.528C94.0368 9.97867 94.5488 10.704 95.5728 10.704C96.0634 10.704 96.4474 10.5227 96.7248 10.16C97.0021 9.79733 97.1408 9.25333 97.1408 8.528C97.1408 7.056 96.6181 6.32 95.5728 6.32ZM105.493 20.944C105.493 19.216 105.983 17.8827 106.965 16.944C107.946 16.0053 109.226 15.536 110.805 15.536C112.383 15.536 113.663 16.0053 114.645 16.944C115.626 17.8827 116.117 19.216 116.117 20.944C116.117 22.672 115.626 24.0053 114.645 24.944C113.663 25.8827 112.383 26.352 110.805 26.352C109.226 26.352 107.946 25.8827 106.965 24.944C105.983 24.0053 105.493 22.672 105.493 20.944ZM110.773 18.736C110.282 18.736 109.898 18.9173 109.621 19.28C109.365 19.6427 109.237 20.1973 109.237 20.944C109.237 22.3947 109.749 23.12 110.773 23.12C111.263 23.12 111.647 22.9387 111.925 22.576C112.202 22.2133 112.341 21.6693 112.341 20.944C112.341 20.2187 112.202 19.6747 111.925 19.312C111.647 18.928 111.263 18.736 110.773 18.736Z"/>
</mask>
<path d="M7.2155 19.152L8.68917 18.8722L8.45749 17.652H7.2155V19.152ZM12.5595 20.176L13.918 20.8119V20.8119L12.5595 20.176ZM13.2635 15.28H14.7635V10.5746L12.0402 14.4119L13.2635 15.28ZM11.3435 16.816L11.9561 18.1852L11.3435 16.816ZM4.9755 16.528L4.26278 17.8479L4.27308 17.8534L4.28347 17.8588L4.9755 16.528ZM2.4475 14L1.12121 14.7007L1.12916 14.7157L1.13745 14.7306L2.4475 14ZM2.5115 5.776L1.20477 5.03948L1.19965 5.04857L1.19466 5.05772L2.5115 5.776ZM5.2955 3.056L4.59686 1.72859L4.58717 1.73378L5.2955 3.056ZM16.2075 5.04L17.4702 4.23025V4.23025L16.2075 5.04ZM17.3275 20.592L15.8839 20.1844L15.8808 20.1959L17.3275 20.592ZM14.7995 24.688L13.8727 23.5085L13.8625 23.5167L14.7995 24.688ZM5.8075 25.136L5.06858 26.4414L5.07904 26.4472L5.8075 25.136ZM3.1835 22.608L1.88114 23.3522L1.88681 23.3621L1.89264 23.372L3.1835 22.608ZM2.1595 19.152V17.652H0.554363L0.662937 19.2535L2.1595 19.152ZM12.0155 12.24L13.0762 13.3007L13.0866 13.2903L13.0968 13.2797L12.0155 12.24ZM11.9835 7.632L10.9228 8.69266V8.69266L11.9835 7.632ZM7.5035 7.664L6.42302 6.62354L6.42225 6.62434L7.5035 7.664ZM7.5035 12.208L6.40286 13.2271L6.42245 13.2483L6.44284 13.2687L7.5035 12.208ZM7.2155 19.152L5.74183 19.4318C5.94452 20.4993 6.39233 21.4802 7.21429 22.186C8.04395 22.8984 9.07909 23.18 10.1595 23.18V21.68V20.18C9.59725 20.18 9.32038 20.0402 9.1687 19.91C9.00934 19.7731 8.80649 19.49 8.68917 18.8722L7.2155 19.152ZM10.1595 21.68V23.18C10.9504 23.18 11.7218 23.0026 12.404 22.575C13.0883 22.1462 13.5825 21.5286 13.918 20.8119L12.5595 20.176L11.201 19.5401C11.0671 19.826 10.9267 19.9604 10.811 20.033C10.6932 20.1067 10.4993 20.18 10.1595 20.18V21.68ZM12.5595 20.176L13.918 20.8119C14.5353 19.4933 14.7635 17.5787 14.7635 15.28H13.2635H11.7635C11.7635 17.5039 11.5224 18.8534 11.201 19.5401L12.5595 20.176ZM13.2635 15.28L12.0402 14.4119C11.7406 14.8341 11.3209 15.1828 10.731 15.4468L11.3435 16.816L11.9561 18.1852C12.9874 17.7238 13.8478 17.0485 14.4868 16.1481L13.2635 15.28ZM11.3435 16.816L10.731 15.4468C10.1364 15.7128 9.44231 15.86 8.6235 15.86V17.36V18.86C9.81002 18.86 10.9293 18.6446 11.9561 18.1852L11.3435 16.816ZM8.6235 17.36V15.86C7.46611 15.86 6.493 15.6264 5.66753 15.1972L4.9755 16.528L4.28347 17.8588C5.59134 18.5389 7.05023 18.86 8.6235 18.86V17.36ZM4.9755 16.528L5.68822 15.2081C4.88498 14.7744 4.24419 14.142 3.75755 13.2694L2.4475 14L1.13745 14.7306C1.88814 16.0767 2.93269 17.1296 4.26278 17.8479L4.9755 16.528ZM2.4475 14L3.77379 13.2993C3.31567 12.4322 3.0515 11.3199 3.0515 9.904H1.5515H0.0515022C0.0515022 11.6881 0.384663 13.3065 1.12121 14.7007L2.4475 14ZM1.5515 9.904H3.0515C3.0515 8.53079 3.32859 7.4105 3.82834 6.49428L2.5115 5.776L1.19466 5.05772C0.414417 6.48816 0.0515022 8.11987 0.0515022 9.904H1.5515ZM2.5115 5.776L3.81823 6.51252C4.33881 5.5889 5.05852 4.88464 6.00383 4.37822L5.2955 3.056L4.58717 1.73378C3.14315 2.50736 2.00686 3.61643 1.20477 5.03948L2.5115 5.776ZM5.2955 3.056L5.99412 4.38338C6.9564 3.87691 8.13695 3.596 9.5835 3.596V2.096V0.595999C7.74472 0.595999 6.0666 0.955086 4.59688 1.72862L5.2955 3.056ZM9.5835 2.096V3.596C12.4307 3.596 14.0553 4.46266 14.9448 5.84975L16.2075 5.04L17.4702 4.23025C15.8424 1.692 13.051 0.595999 9.5835 0.595999V2.096ZM16.2075 5.04L14.9448 5.84975C15.9786 7.46172 16.5955 10.0153 16.5955 13.712H18.0955H19.5955C19.5955 9.77139 18.9537 6.54361 17.4702 4.23025L16.2075 5.04ZM18.0955 13.712H16.5955C16.5955 16.406 16.3454 18.5501 15.8839 20.1844L17.3275 20.592L18.7711 20.9996C19.3336 19.0072 19.5955 16.5647 19.5955 13.712H18.0955ZM17.3275 20.592L15.8808 20.1959C15.4557 21.7483 14.7626 22.8094 13.8728 23.5085L14.7995 24.688L15.7262 25.8675C17.2257 24.6893 18.218 23.0197 18.7743 20.9881L17.3275 20.592ZM14.7995 24.688L13.8625 23.5167C13.0373 24.1768 11.7977 24.596 9.9675 24.596V26.096V27.596C12.2333 27.596 14.215 27.0765 15.7365 25.8593L14.7995 24.688ZM9.9675 26.096V24.596C8.54297 24.596 7.41932 24.3155 6.53596 23.8248L5.8075 25.136L5.07904 26.4472C6.49969 27.2365 8.14936 27.596 9.9675 27.596V26.096ZM5.8075 25.136L6.5464 23.8306C5.62744 23.3104 4.95022 22.648 4.47437 21.844L3.1835 22.608L1.89264 23.372C2.65412 24.6586 3.72623 25.6816 5.0686 26.4414L5.8075 25.136ZM3.1835 22.608L4.48587 21.8638C4.0064 21.0247 3.72682 20.0941 3.65607 19.0505L2.1595 19.152L0.662937 19.2535C0.762852 20.7272 1.16594 22.1006 1.88114 23.3522L3.1835 22.608ZM2.1595 19.152V20.652H7.2155V19.152V17.652H2.1595V19.152ZM9.8715 13.04V14.54C11.085 14.54 12.2094 14.1674 13.0762 13.3007L12.0155 12.24L10.9548 11.1793C10.7549 11.3793 10.45 11.54 9.8715 11.54V13.04ZM12.0155 12.24L13.0968 13.2797C13.9554 12.3867 14.3155 11.2361 14.3155 10H12.8155H11.3155C11.3155 10.6412 11.1423 10.984 10.9342 11.2003L12.0155 12.24ZM12.8155 10H14.3155C14.3155 8.70464 13.9585 7.48563 13.0442 6.57134L11.9835 7.632L10.9228 8.69266C11.1179 8.8877 11.3155 9.24736 11.3155 10H12.8155ZM11.9835 7.632L13.0442 6.57134C12.154 5.68119 10.9962 5.3 9.7435 5.3V6.8V8.3C10.3681 8.3 10.7037 8.47348 10.9228 8.69266L11.9835 7.632ZM9.7435 6.8V5.3C8.47403 5.3 7.30964 5.70281 6.42302 6.62354L7.5035 7.664L8.58398 8.70446C8.80669 8.47319 9.13564 8.3 9.7435 8.3V6.8ZM7.5035 7.664L6.42225 6.62434C5.55189 7.52951 5.2035 8.71033 5.2035 9.968H6.7035H8.2035C8.2035 9.263 8.38845 8.90782 8.58475 8.70366L7.5035 7.664ZM6.7035 9.968H5.2035C5.2035 11.1953 5.57008 12.3277 6.40286 13.2271L7.5035 12.208L8.60414 11.1889C8.37025 10.9363 8.2035 10.5754 8.2035 9.968H6.7035ZM7.5035 12.208L6.44284 13.2687C7.35714 14.183 8.57615 14.54 9.8715 14.54V13.04V11.54C9.11886 11.54 8.7592 11.3424 8.56416 11.1473L7.5035 12.208ZM27.223 19.152L28.6967 18.8722L28.465 17.652H27.223V19.152ZM32.567 20.176L33.9255 20.8119V20.8119L32.567 20.176ZM33.271 15.28H34.771V10.5746L32.0477 14.4119L33.271 15.28ZM31.351 16.816L31.9635 18.1852L31.351 16.816ZM24.983 16.528L24.2703 17.8479L24.2806 17.8534L24.291 17.8588L24.983 16.528ZM22.455 14L21.1287 14.7007L21.1367 14.7157L21.145 14.7306L22.455 14ZM22.519 5.776L21.2123 5.03948L21.2071 5.04857L21.2022 5.05772L22.519 5.776ZM25.303 3.056L24.6044 1.72859L24.5947 1.73378L25.303 3.056ZM36.215 5.04L37.4777 4.23025V4.23025L36.215 5.04ZM37.335 20.592L35.8914 20.1844L35.8883 20.1959L37.335 20.592ZM34.807 24.688L33.8802 23.5085L33.87 23.5167L34.807 24.688ZM25.815 25.136L25.0761 26.4414L25.0865 26.4472L25.815 25.136ZM23.191 22.608L21.8886 23.3522L21.8943 23.3621L21.9001 23.372L23.191 22.608ZM22.167 19.152V17.652H20.5619L20.6704 19.2535L22.167 19.152ZM32.023 12.24L33.0837 13.3007L33.0941 13.2903L33.1042 13.2797L32.023 12.24ZM31.991 7.632L30.9303 8.69266V8.69266L31.991 7.632ZM27.511 7.664L26.4305 6.62354L26.4298 6.62434L27.511 7.664ZM27.511 12.208L26.4104 13.2271L26.43 13.2483L26.4503 13.2687L27.511 12.208ZM27.223 19.152L25.7493 19.4318C25.952 20.4993 26.3998 21.4802 27.2218 22.186C28.0515 22.8984 29.0866 23.18 30.167 23.18V21.68V20.18C29.6048 20.18 29.3279 20.0402 29.1762 19.91C29.0168 19.7731 28.814 19.49 28.6967 18.8722L27.223 19.152ZM30.167 21.68V23.18C30.9579 23.18 31.7293 23.0026 32.4115 22.575C33.0958 22.1462 33.59 21.5286 33.9255 20.8119L32.567 20.176L31.2085 19.5401C31.0746 19.826 30.9342 19.9604 30.8185 20.033C30.7007 20.1067 30.5068 20.18 30.167 20.18V21.68ZM32.567 20.176L33.9255 20.8119C34.5428 19.4933 34.771 17.5787 34.771 15.28H33.271H31.771C31.771 17.5039 31.5299 18.8534 31.2085 19.5401L32.567 20.176ZM33.271 15.28L32.0477 14.4119C31.7481 14.8341 31.3284 15.1828 30.7384 15.4468L31.351 16.816L31.9635 18.1852C32.9949 17.7238 33.8553 17.0485 34.4943 16.1481L33.271 15.28ZM31.351 16.816L30.7384 15.4468C30.1439 15.7128 29.4498 15.86 28.631 15.86V17.36V18.86C29.8175 18.86 30.9368 18.6446 31.9635 18.1852L31.351 16.816ZM28.631 17.36V15.86C27.4736 15.86 26.5005 15.6264 25.675 15.1972L24.983 16.528L24.291 17.8588C25.5988 18.5389 27.0577 18.86 28.631 18.86V17.36ZM24.983 16.528L25.6957 15.2081C24.8925 14.7744 24.2517 14.142 23.765 13.2694L22.455 14L21.145 14.7306C21.8956 16.0767 22.9402 17.1296 24.2703 17.8479L24.983 16.528ZM22.455 14L23.7813 13.2993C23.3232 12.4322 23.059 11.3199 23.059 9.904H21.559H20.059C20.059 11.6881 20.3922 13.3065 21.1287 14.7007L22.455 14ZM21.559 9.904H23.059C23.059 8.53079 23.3361 7.4105 23.8358 6.49428L22.519 5.776L21.2022 5.05772C20.4219 6.48816 20.059 8.11987 20.059 9.904H21.559ZM22.519 5.776L23.8257 6.51252C24.3463 5.5889 25.066 4.88464 26.0113 4.37822L25.303 3.056L24.5947 1.73378C23.1507 2.50736 22.0144 3.61643 21.2123 5.03948L22.519 5.776ZM25.303 3.056L26.0016 4.38338C26.9639 3.87691 28.1444 3.596 29.591 3.596V2.096V0.595999C27.7522 0.595999 26.0741 0.955086 24.6044 1.72862L25.303 3.056ZM29.591 2.096V3.596C32.4382 3.596 34.0628 4.46266 34.9523 5.84975L36.215 5.04L37.4777 4.23025C35.8499 1.692 33.0585 0.595999 29.591 0.595999V2.096ZM36.215 5.04L34.9523 5.84975C35.9861 7.46172 36.603 10.0153 36.603 13.712H38.103H39.603C39.603 9.77139 38.9612 6.54361 37.4777 4.23025L36.215 5.04ZM38.103 13.712H36.603C36.603 16.406 36.3529 18.5501 35.8914 20.1844L37.335 20.592L38.7786 20.9996C39.3411 19.0072 39.603 16.5647 39.603 13.712H38.103ZM37.335 20.592L35.8883 20.1959C35.4632 21.7483 34.7701 22.8094 33.8803 23.5085L34.807 24.688L35.7337 25.8675C37.2332 24.6893 38.2255 23.0197 38.7817 20.9881L37.335 20.592ZM34.807 24.688L33.87 23.5167C33.0448 24.1768 31.8052 24.596 29.975 24.596V26.096V27.596C32.2408 27.596 34.2225 27.0765 35.744 25.8593L34.807 24.688ZM29.975 26.096V24.596C28.5505 24.596 27.4268 24.3155 26.5435 23.8248L25.815 25.136L25.0865 26.4472C26.5072 27.2365 28.1569 27.596 29.975 27.596V26.096ZM25.815 25.136L26.5539 23.8306C25.6349 23.3104 24.9577 22.648 24.4819 21.844L23.191 22.608L21.9001 23.372C22.6616 24.6586 23.7337 25.6816 25.0761 26.4414L25.815 25.136ZM23.191 22.608L24.4934 21.8638C24.0139 21.0247 23.7343 20.0941 23.6636 19.0505L22.167 19.152L20.6704 19.2535C20.7704 20.7272 21.1734 22.1006 21.8886 23.3522L23.191 22.608ZM22.167 19.152V20.652H27.223V19.152V17.652H22.167V19.152ZM29.879 13.04V14.54C31.0925 14.54 32.2169 14.1674 33.0837 13.3007L32.023 12.24L30.9623 11.1793C30.7624 11.3793 30.4575 11.54 29.879 11.54V13.04ZM32.023 12.24L33.1042 13.2797C33.9629 12.3867 34.323 11.2361 34.323 10H32.823H31.323C31.323 10.6412 31.1498 10.984 30.9417 11.2003L32.023 12.24ZM32.823 10H34.323C34.323 8.70464 33.966 7.48563 33.0517 6.57134L31.991 7.632L30.9303 8.69266C31.1254 8.8877 31.323 9.24736 31.323 10H32.823ZM31.991 7.632L33.0517 6.57134C32.1615 5.68119 31.0037 5.3 29.751 5.3V6.8V8.3C30.3756 8.3 30.7112 8.47348 30.9303 8.69266L31.991 7.632ZM29.751 6.8V5.3C28.4815 5.3 27.3171 5.70281 26.4305 6.62354L27.511 7.664L28.5915 8.70446C28.8142 8.47319 29.1431 8.3 29.751 8.3V6.8ZM27.511 7.664L26.4298 6.62434C25.5594 7.52951 25.211 8.71033 25.211 9.968H26.711H28.211C28.211 9.263 28.3959 8.90782 28.5922 8.70366L27.511 7.664ZM26.711 9.968H25.211C25.211 11.1953 25.5776 12.3277 26.4104 13.2271L27.511 12.208L28.6116 11.1889C28.3778 10.9363 28.211 10.5754 28.211 9.968H26.711ZM27.511 12.208L26.4503 13.2687C27.3646 14.183 28.5836 14.54 29.879 14.54V13.04V11.54C29.1264 11.54 28.7667 11.3424 28.5717 11.1473L27.511 12.208ZM42.0785 25.424L41.0373 26.5038L41.0569 26.5227L41.0772 26.5409L42.0785 25.424ZM42.0785 21.168L41.0564 20.0702L41.0468 20.0791L41.0373 20.0882L42.0785 21.168ZM46.7505 21.168L45.7093 22.2478L45.7188 22.2569L45.7284 22.2658L46.7505 21.168ZM46.7505 25.424L47.7712 26.5232L47.7726 26.5218L46.7505 25.424ZM44.4465 26.256V24.756C43.7949 24.756 43.3809 24.5771 43.0798 24.3071L42.0785 25.424L41.0772 26.5409C42.0134 27.3802 43.1781 27.756 44.4465 27.756V26.256ZM42.0785 25.424L43.1197 24.3442C42.8164 24.0518 42.6825 23.7379 42.6825 23.312H41.1825H39.6825C39.6825 24.5501 40.1459 25.6442 41.0373 26.5038L42.0785 25.424ZM41.1825 23.312H42.6825C42.6825 22.853 42.8248 22.5322 43.1197 22.2478L42.0785 21.168L41.0373 20.0882C40.1376 20.9558 39.6825 22.0644 39.6825 23.312H41.1825ZM42.0785 21.168L43.1006 22.2658C43.4036 21.9837 43.8104 21.804 44.4465 21.804V20.304V18.804C43.1626 18.804 41.9907 19.2003 41.0564 20.0702L42.0785 21.168ZM44.4465 20.304V21.804C45.052 21.804 45.4289 21.9774 45.7093 22.2478L46.7505 21.168L47.7917 20.0882C46.8774 19.2066 45.7183 18.804 44.4465 18.804V20.304ZM46.7505 21.168L45.7284 22.2658C46.039 22.555 46.1785 22.8706 46.1785 23.312H47.6785H49.1785C49.1785 22.0468 48.6993 20.933 47.7726 20.0702L46.7505 21.168ZM47.6785 23.312H46.1785C46.1785 23.7201 46.0478 24.0288 45.7284 24.3262L46.7505 25.424L47.7726 26.5218C48.6905 25.6672 49.1785 24.5679 49.1785 23.312H47.6785ZM46.7505 25.424L45.7298 24.3248C45.4519 24.5828 45.068 24.756 44.4465 24.756V26.256V27.756C45.7023 27.756 46.8544 27.3745 47.7712 26.5232L46.7505 25.424ZM56.5818 19.152L58.0554 18.8722L57.8237 17.652H56.5818V19.152ZM61.9258 20.176L63.2843 20.8119V20.8119L61.9258 20.176ZM62.6298 15.28H64.1298V10.5746L61.4065 14.4119L62.6298 15.28ZM60.7098 16.816L61.3223 18.1852L60.7098 16.816ZM54.3418 16.528L53.629 17.8479L53.6393 17.8534L53.6497 17.8588L54.3418 16.528ZM51.8138 14L50.4875 14.7007L50.4954 14.7157L50.5037 14.7306L51.8138 14ZM51.8778 5.776L50.571 5.03948L50.5659 5.04857L50.5609 5.05772L51.8778 5.776ZM54.6618 3.056L53.9631 1.72859L53.9534 1.73378L54.6618 3.056ZM65.5738 5.04L66.8364 4.23025L66.8364 4.23025L65.5738 5.04ZM66.6938 20.592L65.2501 20.1844L65.247 20.1959L66.6938 20.592ZM64.1658 24.688L63.239 23.5085L63.2287 23.5167L64.1658 24.688ZM55.1738 25.136L54.4348 26.4414L54.4453 26.4472L55.1738 25.136ZM52.5498 22.608L51.2474 23.3522L51.2531 23.3621L51.2589 23.372L52.5498 22.608ZM51.5258 19.152V17.652H49.9206L50.0292 19.2535L51.5258 19.152ZM61.3818 12.24L62.4424 13.3007L62.4528 13.2903L62.463 13.2797L61.3818 12.24ZM61.3498 7.632L60.2891 8.69266V8.69266L61.3498 7.632ZM56.8698 7.664L55.7893 6.62354L55.7885 6.62434L56.8698 7.664ZM56.8698 12.208L55.7691 13.2271L55.7887 13.2483L55.8091 13.2687L56.8698 12.208ZM56.5818 19.152L55.1081 19.4318C55.3108 20.4993 55.7586 21.4802 56.5806 22.186C57.4102 22.8984 58.4453 23.18 59.5258 23.18V21.68V20.18C58.9635 20.18 58.6866 20.0402 58.535 19.91C58.3756 19.7731 58.1727 19.49 58.0554 18.8722L56.5818 19.152ZM59.5258 21.68V23.18C60.3166 23.18 61.088 23.0026 61.7703 22.575C62.4545 22.1462 62.9488 21.5286 63.2843 20.8119L61.9258 20.176L60.5672 19.5401C60.4334 19.826 60.293 19.9604 60.1772 20.033C60.0595 20.1067 59.8655 20.18 59.5258 20.18V21.68ZM61.9258 20.176L63.2843 20.8119C63.9015 19.4933 64.1298 17.5787 64.1298 15.28H62.6298H61.1298C61.1298 17.5039 60.8887 18.8534 60.5672 19.5401L61.9258 20.176ZM62.6298 15.28L61.4065 14.4119C61.1068 14.8341 60.6872 15.1828 60.0972 15.4468L60.7098 16.816L61.3223 18.1852C62.3537 17.7238 63.214 17.0485 63.853 16.1481L62.6298 15.28ZM60.7098 16.816L60.0972 15.4468C59.5027 15.7128 58.8086 15.86 57.9898 15.86V17.36V18.86C59.1763 18.86 60.2955 18.6446 61.3223 18.1852L60.7098 16.816ZM57.9898 17.36V15.86C56.8324 15.86 55.8592 15.6264 55.0338 15.1972L54.3418 16.528L53.6497 17.8588C54.9576 18.5389 56.4165 18.86 57.9898 18.86V17.36ZM54.3418 16.528L55.0545 15.2081C54.2512 14.7744 53.6104 14.142 53.1238 13.2694L51.8138 14L50.5037 14.7306C51.2544 16.0767 52.2989 17.1296 53.629 17.8479L54.3418 16.528ZM51.8138 14L53.14 13.2993C52.6819 12.4322 52.4178 11.3199 52.4178 9.904H50.9178H49.4178C49.4178 11.6881 49.7509 13.3065 50.4875 14.7007L51.8138 14ZM50.9178 9.904H52.4178C52.4178 8.53079 52.6948 7.4105 53.1946 6.49428L51.8778 5.776L50.5609 5.05772C49.7807 6.48816 49.4178 8.11987 49.4178 9.904H50.9178ZM51.8778 5.776L53.1845 6.51252C53.7051 5.5889 54.4248 4.88464 55.3701 4.37822L54.6618 3.056L53.9534 1.73378C52.5094 2.50736 51.3731 3.61643 50.571 5.03948L51.8778 5.776ZM54.6618 3.056L55.3604 4.38338C56.3227 3.87691 57.5032 3.596 58.9498 3.596V2.096V0.595999C57.111 0.595999 55.4329 0.955086 53.9631 1.72862L54.6618 3.056ZM58.9498 2.096V3.596C61.797 3.596 63.4216 4.46266 64.3111 5.84975L65.5738 5.04L66.8364 4.23025C65.2086 1.692 62.4172 0.595999 58.9498 0.595999V2.096ZM65.5738 5.04L64.3111 5.84975C65.3449 7.46172 65.9618 10.0153 65.9618 13.712H67.4618H68.9618C68.9618 9.77139 68.32 6.54361 66.8364 4.23025L65.5738 5.04ZM67.4618 13.712H65.9618C65.9618 16.406 65.7116 18.5501 65.2502 20.1844L66.6938 20.592L68.1373 20.9996C68.6999 19.0072 68.9618 16.5647 68.9618 13.712H67.4618ZM66.6938 20.592L65.247 20.1959C64.8219 21.7483 64.1288 22.8094 63.239 23.5085L64.1658 24.688L65.0925 25.8675C66.592 24.6893 67.5842 23.0197 68.1405 20.9881L66.6938 20.592ZM64.1658 24.688L63.2287 23.5167C62.4036 24.1768 61.1639 24.596 59.3338 24.596V26.096V27.596C61.5996 27.596 63.5813 27.0765 65.1028 25.8593L64.1658 24.688ZM59.3338 26.096V24.596C57.9092 24.596 56.7856 24.3155 55.9022 23.8248L55.1738 25.136L54.4453 26.4472C55.8659 27.2365 57.5156 27.596 59.3338 27.596V26.096ZM55.1738 25.136L55.9127 23.8306C54.9937 23.3104 54.3165 22.648 53.8406 21.844L52.5498 22.608L51.2589 23.372C52.0204 24.6586 53.0925 25.6816 54.4349 26.4414L55.1738 25.136ZM52.5498 22.608L53.8521 21.8638C53.3727 21.0247 53.0931 20.0941 53.0223 19.0505L51.5258 19.152L50.0292 19.2535C50.1291 20.7272 50.5322 22.1006 51.2474 23.3522L52.5498 22.608ZM51.5258 19.152V20.652H56.5818V19.152V17.652H51.5258V19.152ZM59.2378 13.04V14.54C60.4513 14.54 61.5757 14.1674 62.4424 13.3007L61.3818 12.24L60.3211 11.1793C60.1212 11.3793 59.8162 11.54 59.2378 11.54V13.04ZM61.3818 12.24L62.463 13.2797C63.3216 12.3867 63.6818 11.2361 63.6818 10H62.1818H60.6818C60.6818 10.6412 60.5085 10.984 60.3005 11.2003L61.3818 12.24ZM62.1818 10H63.6818C63.6818 8.70464 63.3247 7.48563 62.4104 6.57134L61.3498 7.632L60.2891 8.69266C60.4841 8.8877 60.6818 9.24736 60.6818 10H62.1818ZM61.3498 7.632L62.4104 6.57134C61.5203 5.68119 60.3624 5.3 59.1098 5.3V6.8V8.3C59.7344 8.3 60.0699 8.47348 60.2891 8.69266L61.3498 7.632ZM59.1098 6.8V5.3C57.8403 5.3 56.6759 5.70281 55.7893 6.62354L56.8698 7.664L57.9502 8.70446C58.1729 8.47319 58.5019 8.3 59.1098 8.3V6.8ZM56.8698 7.664L55.7885 6.62434C54.9181 7.52951 54.5698 8.71033 54.5698 9.968H56.0698H57.5698C57.5698 9.263 57.7547 8.90782 57.951 8.70366L56.8698 7.664ZM56.0698 9.968H54.5698C54.5698 11.1953 54.9363 12.3277 55.7691 13.2271L56.8698 12.208L57.9704 11.1889C57.7365 10.9363 57.5698 10.5754 57.5698 9.968H56.0698ZM56.8698 12.208L55.8091 13.2687C56.7234 14.183 57.9424 14.54 59.2378 14.54V13.04V11.54C58.4851 11.54 58.1255 11.3424 57.9304 11.1473L56.8698 12.208ZM76.5892 19.152L78.0629 18.8722L77.8312 17.652H76.5892V19.152ZM81.9332 20.176L83.2918 20.8119V20.8119L81.9332 20.176ZM82.6372 15.28H84.1372V10.5746L81.414 14.4119L82.6372 15.28ZM80.7172 16.816L81.3298 18.1852L80.7172 16.816ZM74.3492 16.528L73.6365 17.8479L73.6468 17.8534L73.6572 17.8588L74.3492 16.528ZM71.8212 14L70.495 14.7007L70.5029 14.7157L70.5112 14.7306L71.8212 14ZM71.8852 5.776L70.5785 5.03948L70.5734 5.04857L70.5684 5.05772L71.8852 5.776ZM74.6692 3.056L73.9706 1.72859L73.9609 1.73378L74.6692 3.056ZM85.5812 5.04L86.8439 4.23025L86.8439 4.23025L85.5812 5.04ZM86.7012 20.592L85.2576 20.1844L85.2545 20.1959L86.7012 20.592ZM84.1732 24.688L83.2465 23.5085L83.2362 23.5167L84.1732 24.688ZM75.1812 25.136L74.4423 26.4414L74.4528 26.4472L75.1812 25.136ZM72.5572 22.608L71.2549 23.3522L71.2606 23.3621L71.2664 23.372L72.5572 22.608ZM71.5332 19.152V17.652H69.9281L70.0367 19.2535L71.5332 19.152ZM81.3892 12.24L82.4499 13.3007L82.4603 13.2903L82.4705 13.2797L81.3892 12.24ZM81.3572 7.632L80.2966 8.69266V8.69266L81.3572 7.632ZM76.8772 7.664L75.7968 6.62354L75.796 6.62434L76.8772 7.664ZM76.8772 12.208L75.7766 13.2271L75.7962 13.2483L75.8166 13.2687L76.8772 12.208ZM76.5892 19.152L75.1156 19.4318C75.3183 20.4993 75.7661 21.4802 76.588 22.186C77.4177 22.8984 78.4528 23.18 79.5332 23.18V21.68V20.18C78.971 20.18 78.6941 20.0402 78.5424 19.91C78.3831 19.7731 78.1802 19.49 78.0629 18.8722L76.5892 19.152ZM79.5332 21.68V23.18C80.3241 23.18 81.0955 23.0026 81.7778 22.575C82.462 22.1462 82.9563 21.5286 83.2918 20.8119L81.9332 20.176L80.5747 19.5401C80.4409 19.826 80.3005 19.9604 80.1847 20.033C80.067 20.1067 79.873 20.18 79.5332 20.18V21.68ZM81.9332 20.176L83.2918 20.8119C83.909 19.4933 84.1372 17.5787 84.1372 15.28H82.6372H81.1372C81.1372 17.5039 80.8961 18.8534 80.5747 19.5401L81.9332 20.176ZM82.6372 15.28L81.414 14.4119C81.1143 14.8341 80.6947 15.1828 80.1047 15.4468L80.7172 16.816L81.3298 18.1852C82.3612 17.7238 83.2215 17.0485 83.8605 16.1481L82.6372 15.28ZM80.7172 16.816L80.1047 15.4468C79.5102 15.7128 78.8161 15.86 77.9972 15.86V17.36V18.86C79.1838 18.86 80.303 18.6446 81.3298 18.1852L80.7172 16.816ZM77.9972 17.36V15.86C76.8399 15.86 75.8667 15.6264 75.0413 15.1972L74.3492 16.528L73.6572 17.8588C74.9651 18.5389 76.424 18.86 77.9972 18.86V17.36ZM74.3492 16.528L75.062 15.2081C74.2587 14.7744 73.6179 14.142 73.1313 13.2694L71.8212 14L70.5112 14.7306C71.2619 16.0767 72.3064 17.1296 73.6365 17.8479L74.3492 16.528ZM71.8212 14L73.1475 13.2993C72.6894 12.4322 72.4252 11.3199 72.4252 9.904H70.9252H69.4252C69.4252 11.6881 69.7584 13.3065 70.495 14.7007L71.8212 14ZM70.9252 9.904H72.4252C72.4252 8.53079 72.7023 7.4105 73.2021 6.49428L71.8852 5.776L70.5684 5.05772C69.7882 6.48816 69.4252 8.11987 69.4252 9.904H70.9252ZM71.8852 5.776L73.192 6.51252C73.7126 5.5889 74.4323 4.88464 75.3776 4.37822L74.6692 3.056L73.9609 1.73378C72.5169 2.50736 71.3806 3.61643 70.5785 5.03948L71.8852 5.776ZM74.6692 3.056L75.3679 4.38338C76.3301 3.87691 77.5107 3.596 78.9572 3.596V2.096V0.595999C77.1185 0.595999 75.4403 0.955086 73.9706 1.72862L74.6692 3.056ZM78.9572 2.096V3.596C81.8045 3.596 83.429 4.46266 84.3186 5.84975L85.5812 5.04L86.8439 4.23025C85.2161 1.692 82.4247 0.595999 78.9572 0.595999V2.096ZM85.5812 5.04L84.3186 5.84975C85.3524 7.46172 85.9692 10.0153 85.9692 13.712H87.4692H88.9692C88.9692 9.77139 88.3275 6.54361 86.8439 4.23025L85.5812 5.04ZM87.4692 13.712H85.9692C85.9692 16.406 85.7191 18.5501 85.2577 20.1844L86.7012 20.592L88.1448 20.9996C88.7074 19.0072 88.9692 16.5647 88.9692 13.712H87.4692ZM86.7012 20.592L85.2545 20.1959C84.8294 21.7483 84.1363 22.8094 83.2465 23.5085L84.1732 24.688L85.1 25.8675C86.5995 24.6893 87.5917 23.0197 88.148 20.9881L86.7012 20.592ZM84.1732 24.688L83.2362 23.5167C82.4111 24.1768 81.1714 24.596 79.3412 24.596V26.096V27.596C81.6071 27.596 83.5888 27.0765 85.1103 25.8593L84.1732 24.688ZM79.3412 26.096V24.596C77.9167 24.596 76.7931 24.3155 75.9097 23.8248L75.1812 25.136L74.4528 26.4472C75.8734 27.2365 77.5231 27.596 79.3412 27.596V26.096ZM75.1812 25.136L75.9201 23.8306C75.0012 23.3104 74.324 22.648 73.8481 21.844L72.5572 22.608L71.2664 23.372C72.0279 24.6586 73.1 25.6816 74.4423 26.4414L75.1812 25.136ZM72.5572 22.608L73.8596 21.8638C73.3801 21.0247 73.1006 20.0941 73.0298 19.0505L71.5332 19.152L70.0367 19.2535C70.1366 20.7272 70.5397 22.1006 71.2549 23.3522L72.5572 22.608ZM71.5332 19.152V20.652H76.5892V19.152V17.652H71.5332V19.152ZM79.2452 13.04V14.54C80.4588 14.54 81.5832 14.1674 82.4499 13.3007L81.3892 12.24L80.3286 11.1793C80.1286 11.3793 79.8237 11.54 79.2452 11.54V13.04ZM81.3892 12.24L82.4705 13.2797C83.3291 12.3867 83.6892 11.2361 83.6892 10H82.1892H80.6892C80.6892 10.6412 80.516 10.984 80.308 11.2003L81.3892 12.24ZM82.1892 10H83.6892C83.6892 8.70464 83.3322 7.48563 82.4179 6.57134L81.3572 7.632L80.2966 8.69266C80.4916 8.8877 80.6892 9.24736 80.6892 10H82.1892ZM81.3572 7.632L82.4179 6.57134C81.5278 5.68119 80.3699 5.3 79.1172 5.3V6.8V8.3C79.7419 8.3 80.0774 8.47348 80.2966 8.69266L81.3572 7.632ZM79.1172 6.8V5.3C77.8478 5.3 76.6834 5.70281 75.7968 6.62354L76.8772 7.664L77.9577 8.70446C78.1804 8.47319 78.5094 8.3 79.1172 8.3V6.8ZM76.8772 7.664L75.796 6.62434C74.9256 7.52951 74.5772 8.71033 74.5772 9.968H76.0772H77.5772C77.5772 9.263 77.7622 8.90782 77.9585 8.70366L76.8772 7.664ZM76.0772 9.968H74.5772C74.5772 11.1953 74.9438 12.3277 75.7766 13.2271L76.8772 12.208L77.9779 11.1889C77.744 10.9363 77.5772 10.5754 77.5772 9.968H76.0772ZM76.8772 12.208L75.8166 13.2687C76.7309 14.183 77.9499 14.54 79.2452 14.54V13.04V11.54C78.4926 11.54 78.1329 11.3424 77.9379 11.1473L76.8772 12.208ZM91.7328 4.528L90.7076 3.43297L90.7017 3.43847L90.6959 3.44404L91.7328 4.528ZM99.4447 4.528L98.4079 5.61196V5.61196L99.4447 4.528ZM99.4447 12.528L98.4079 11.444L99.4447 12.528ZM91.7328 12.528L90.6959 13.612L90.7017 13.6175L90.7076 13.623L91.7328 12.528ZM111.989 3.472L113.305 4.19172L114.519 1.972H111.989V3.472ZM99.6687 26V27.5H100.558L100.985 26.7197L99.6687 26ZM94.3887 26L93.0727 25.2803L91.8588 27.5H94.3887V26ZM106.709 3.472V1.972H105.819L105.393 2.75228L106.709 3.472ZM96.7247 10.16L95.5332 9.24882V9.24882L96.7247 10.16ZM106.965 16.944L105.928 15.86L106.965 16.944ZM114.645 16.944L115.682 15.86L114.645 16.944ZM114.645 24.944L115.682 26.028L114.645 24.944ZM106.965 24.944L105.928 26.028L106.965 24.944ZM109.621 19.28L108.429 18.3688L108.412 18.3916L108.395 18.415L109.621 19.28ZM111.925 22.576L110.733 21.6648V21.6648L111.925 22.576ZM111.925 19.312L110.709 20.1902L110.721 20.2069L110.733 20.2232L111.925 19.312ZM90.2607 8.528H91.7608C91.7608 7.09143 92.1597 6.19534 92.7696 5.61196L91.7328 4.528L90.6959 3.44404C89.3431 4.73799 88.7607 6.50856 88.7607 8.528H90.2607ZM91.7328 4.528L92.7579 5.62303C93.441 4.9835 94.3457 4.62 95.6048 4.62V3.12V1.62C93.7064 1.62 92.0298 2.19517 90.7076 3.43297L91.7328 4.528ZM95.6048 3.12V4.62C96.8645 4.62 97.7509 4.98352 98.4079 5.61196L99.4447 4.528L100.482 3.44404C99.1759 2.19515 97.5023 1.62 95.6048 1.62V3.12ZM99.4447 4.528L98.4079 5.61196C99.0178 6.19534 99.4167 7.09143 99.4167 8.528H100.917H102.417C102.417 6.50856 101.834 4.73799 100.482 3.44404L99.4447 4.528ZM100.917 8.528H99.4167C99.4167 9.96456 99.0178 10.8607 98.4079 11.444L99.4447 12.528L100.482 13.612C101.834 12.318 102.417 10.5474 102.417 8.528H100.917ZM99.4447 12.528L98.4079 11.444C97.7509 12.0725 96.8645 12.436 95.6048 12.436V13.936V15.436C97.5023 15.436 99.1759 14.8609 100.482 13.612L99.4447 12.528ZM95.6048 13.936V12.436C94.3457 12.436 93.441 12.0725 92.7579 11.433L91.7328 12.528L90.7076 13.623C92.0298 14.8608 93.7064 15.436 95.6048 15.436V13.936ZM91.7328 12.528L92.7696 11.444C92.1597 10.8607 91.7608 9.96456 91.7608 8.528H90.2607H88.7607C88.7607 10.5474 89.3431 12.318 90.6959 13.612L91.7328 12.528ZM111.989 3.472L110.673 2.75228L98.3527 25.2803L99.6687 26L100.985 26.7197L113.305 4.19172L111.989 3.472ZM99.6687 26V24.5H94.3887V26V27.5H99.6687V26ZM94.3887 26L95.7048 26.7197L108.025 4.19172L106.709 3.472L105.393 2.75228L93.0727 25.2803L94.3887 26ZM106.709 3.472V4.972H111.989V3.472V1.972H106.709V3.472ZM95.5728 6.32V4.82C94.6505 4.82 93.769 5.18227 93.1894 6.0154C92.6786 6.74968 92.5368 7.66429 92.5368 8.528H94.0368H95.5368C95.5368 8.24216 95.5621 8.03846 95.594 7.90084C95.6259 7.76338 95.6575 7.72088 95.6521 7.7286C95.64 7.74596 95.6035 7.78459 95.5489 7.81072C95.5018 7.83333 95.4963 7.82 95.5728 7.82V6.32ZM94.0368 8.528H92.5368C92.5368 9.38408 92.6796 10.2944 93.1953 11.025C93.7786 11.8513 94.6594 12.204 95.5728 12.204V10.704V9.204C95.4934 9.204 95.496 9.19027 95.5413 9.21163C95.5942 9.23661 95.6319 9.27476 95.6462 9.29497C95.6538 9.30572 95.6238 9.26783 95.5929 9.13644C95.5619 9.00461 95.5368 8.80725 95.5368 8.528H94.0368ZM95.5728 10.704V12.204C96.4902 12.204 97.3315 11.8359 97.9163 11.0712L96.7247 10.16L95.5332 9.24882C95.5291 9.25421 95.5321 9.24923 95.5439 9.23957C95.556 9.22961 95.5714 9.21957 95.5882 9.21163C95.5961 9.20789 95.603 9.20528 95.6082 9.20355C95.6107 9.20271 95.6127 9.20212 95.6142 9.20175C95.6156 9.20137 95.6163 9.20123 95.6163 9.20123C95.6162 9.20124 95.6129 9.20192 95.6059 9.20261C95.5988 9.2033 95.5879 9.204 95.5728 9.204V10.704ZM96.7247 10.16L97.9163 11.0712C98.481 10.3328 98.6407 9.4022 98.6407 8.528H97.1407H95.6407C95.6407 8.79997 95.6143 8.9878 95.5832 9.10949C95.5527 9.22923 95.5242 9.26057 95.5332 9.24882L96.7247 10.16ZM97.1407 8.528H98.6407C98.6407 7.65998 98.4949 6.74012 97.9717 6.0035C97.3817 5.17255 96.4931 4.82 95.5728 4.82V6.32V7.82C95.6586 7.82 95.6618 7.83482 95.6214 7.81586C95.5732 7.79322 95.5383 7.7581 95.5258 7.7405C95.5199 7.73229 95.5512 7.77299 95.5831 7.90752C95.6151 8.0426 95.6407 8.24395 95.6407 8.528H97.1407ZM105.493 20.944H106.993C106.993 19.5074 107.392 18.6113 108.002 18.028L106.965 16.944L105.928 15.86C104.575 17.154 103.993 18.9246 103.993 20.944H105.493ZM106.965 16.944L108.002 18.028C108.659 17.3995 109.545 17.036 110.805 17.036V15.536V14.036C108.907 14.036 107.234 14.6111 105.928 15.86L106.965 16.944ZM110.805 15.536V17.036C112.065 17.036 112.951 17.3995 113.608 18.028L114.645 16.944L115.682 15.86C114.376 14.6111 112.702 14.036 110.805 14.036V15.536ZM114.645 16.944L113.608 18.028C114.218 18.6113 114.617 19.5074 114.617 20.944H116.117H117.617C117.617 18.9246 117.034 17.154 115.682 15.86L114.645 16.944ZM116.117 20.944H114.617C114.617 22.3806 114.218 23.2767 113.608 23.86L114.645 24.944L115.682 26.028C117.034 24.734 117.617 22.9634 117.617 20.944H116.117ZM114.645 24.944L113.608 23.86C112.951 24.4885 112.065 24.852 110.805 24.852V26.352V27.852C112.702 27.852 114.376 27.2769 115.682 26.028L114.645 24.944ZM110.805 26.352V24.852C109.545 24.852 108.659 24.4885 108.002 23.86L106.965 24.944L105.928 26.028C107.234 27.2769 108.907 27.852 110.805 27.852V26.352ZM106.965 24.944L108.002 23.86C107.392 23.2767 106.993 22.3806 106.993 20.944H105.493H103.993C103.993 22.9634 104.575 24.734 105.928 26.028L106.965 24.944ZM110.773 18.736V17.236C109.855 17.236 109.014 17.6041 108.429 18.3688L109.621 19.28L110.812 20.1912C110.816 20.1858 110.813 20.1908 110.802 20.2004C110.79 20.2104 110.774 20.2204 110.757 20.2284C110.749 20.2321 110.743 20.2347 110.737 20.2364C110.735 20.2373 110.733 20.2379 110.731 20.2383C110.73 20.2386 110.729 20.2388 110.729 20.2388C110.729 20.2388 110.733 20.2381 110.74 20.2374C110.747 20.2367 110.758 20.236 110.773 20.236V18.736ZM109.621 19.28L108.395 18.415C107.876 19.1511 107.737 20.0778 107.737 20.944H109.237H110.737C110.737 20.6512 110.762 20.4439 110.794 20.3053C110.826 20.1663 110.857 20.1295 110.846 20.145L109.621 19.28ZM109.237 20.944H107.737C107.737 21.8001 107.88 22.7104 108.395 23.441C108.979 24.2673 109.859 24.62 110.773 24.62V23.12V21.62C110.693 21.62 110.696 21.6063 110.741 21.6276C110.794 21.6526 110.832 21.6908 110.846 21.711C110.854 21.7217 110.824 21.6838 110.793 21.5524C110.762 21.4206 110.737 21.2232 110.737 20.944H109.237ZM110.773 23.12V24.62C111.69 24.62 112.531 24.2519 113.116 23.4872L111.925 22.576L110.733 21.6648C110.729 21.6702 110.732 21.6652 110.744 21.6556C110.756 21.6456 110.771 21.6356 110.788 21.6276C110.796 21.6239 110.803 21.6213 110.808 21.6196C110.811 21.6187 110.813 21.6181 110.814 21.6178C110.816 21.6174 110.816 21.6172 110.816 21.6172C110.816 21.6172 110.813 21.6179 110.806 21.6186C110.799 21.6193 110.788 21.62 110.773 21.62V23.12ZM111.925 22.576L113.116 23.4872C113.681 22.7488 113.841 21.8182 113.841 20.944H112.341H110.841C110.841 21.216 110.814 21.4038 110.783 21.5255C110.753 21.6452 110.724 21.6766 110.733 21.6648L111.925 22.576ZM112.341 20.944H113.841C113.841 20.0698 113.681 19.1392 113.116 18.4008L111.925 19.312L110.733 20.2232C110.724 20.2114 110.753 20.2428 110.783 20.3625C110.814 20.4842 110.841 20.672 110.841 20.944H112.341ZM111.925 19.312L113.141 18.4338C112.57 17.643 111.725 17.236 110.773 17.236V18.736V20.236C110.797 20.236 110.805 20.2384 110.799 20.2371C110.793 20.2357 110.777 20.2314 110.758 20.2216C110.738 20.2118 110.722 20.2005 110.712 20.1911C110.701 20.1822 110.701 20.1797 110.709 20.1902L111.925 19.312Z" fill="#DADBDD" mask="url(#path-1-outside-1_530_2300)"/>
</svg>
