<svg width="76" height="31" viewBox="0 0 76 31" fill="none" xmlns="http://www.w3.org/2000/svg">
<path d="M0.970549 18.9084C0.970549 18.9084 9.39127 12.7831 15.6667 11.0888C21.2882 9.57094 29.4441 8.115 36.0489 8.22737M36.0489 8.22737C43.3983 8.35241 48.8271 10.4194 46.706 16.5039C43.2033 26.5518 30.7139 25.8135 26.2592 19.2644C23.0709 14.5772 28.753 10.898 36.0489 8.22737ZM36.0489 8.22737C40.531 6.58667 45.6221 5.32659 49.6398 4.44723C59.2796 2.33733 67.2916 4.52969 67.2916 4.52969" stroke="#B4B6BB" stroke-width="1.5" stroke-linecap="round"/>
<path d="M68.495 1.5C68.8799 0.833333 69.8421 0.833334 70.227 1.5L73.6911 7.5C74.076 8.16667 73.5949 9 72.8251 9H65.8969C65.1271 9 64.646 8.16667 65.0309 7.5L68.495 1.5Z" fill="#B4B6BB"/>
</svg>
