<svg width="14" height="16" viewBox="0 0 14 16" fill="none" xmlns="http://www.w3.org/2000/svg">
<path d="M1 7C0.447715 7 0 7.44772 0 8C0 8.55228 0.447715 9 1 9L1 7ZM13.2071 8.70711C13.5976 8.31658 13.5976 7.68342 13.2071 7.29289L6.84315 0.928932C6.45262 0.538408 5.81946 0.538408 5.42893 0.928932C5.03841 1.31946 5.03841 1.95262 5.42893 2.34315L11.0858 8L5.42893 13.6569C5.03841 14.0474 5.03841 14.6805 5.42893 15.0711C5.81946 15.4616 6.45262 15.4616 6.84315 15.0711L13.2071 8.70711ZM1 8L1 9L12.5 9V8V7L1 7L1 8Z" fill="#ECEDEE"/>
</svg>
