<svg width="243" height="49" viewBox="0 0 243 49" fill="none" xmlns="http://www.w3.org/2000/svg">
<mask id="path-1-outside-1_656_1693" maskUnits="userSpaceOnUse" x="0" y="0" width="243" height="49" fill="black">
<rect fill="white" width="243" height="49"/>
<path d="M29.832 38.552H14.264L11.688 46H3.456L17.512 6.856H26.64L40.696 46H32.408L29.832 38.552ZM27.704 32.28L22.048 15.928L16.392 32.28H27.704ZM54.3499 19.792C55.3579 18.1493 56.6646 16.8613 58.2699 15.928C59.9126 14.9947 61.7793 14.528 63.8699 14.528V22.76H61.7979C59.3339 22.76 57.4673 23.3387 56.1979 24.496C54.9659 25.6533 54.3499 27.6693 54.3499 30.544V46H46.5099V14.976H54.3499V19.792ZM78.8386 21.416V36.424C78.8386 37.4693 79.0812 38.2347 79.5666 38.72C80.0892 39.168 80.9479 39.392 82.1426 39.392H85.7826V46H80.8546C74.2466 46 70.9426 42.7893 70.9426 36.368V21.416H67.2466V14.976H70.9426V7.304H78.8386V14.976H85.7826V21.416H78.8386ZM95.9575 11.28C94.5762 11.28 93.4188 10.8507 92.4855 9.992C91.5895 9.096 91.1415 7.99466 91.1415 6.688C91.1415 5.38133 91.5895 4.29866 92.4855 3.44C93.4188 2.544 94.5762 2.096 95.9575 2.096C97.3388 2.096 98.4775 2.544 99.3735 3.44C100.307 4.29866 100.774 5.38133 100.774 6.688C100.774 7.99466 100.307 9.096 99.3735 9.992C98.4775 10.8507 97.3388 11.28 95.9575 11.28ZM99.8215 14.976V46H91.9815V14.976H99.8215ZM122.351 21.416H116.919V46H108.967V21.416H105.439V14.976H108.967V13.408C108.967 9.6 110.05 6.8 112.215 5.008C114.381 3.216 117.647 2.376 122.015 2.488V9.096C120.111 9.05866 118.786 9.376 118.039 10.048C117.293 10.72 116.919 11.9333 116.919 13.688V14.976H122.351V21.416ZM131.968 11.28C130.587 11.28 129.429 10.8507 128.496 9.992C127.6 9.096 127.152 7.99466 127.152 6.688C127.152 5.38133 127.6 4.29866 128.496 3.44C129.429 2.544 130.587 2.096 131.968 2.096C133.349 2.096 134.488 2.544 135.384 3.44C136.317 4.29866 136.784 5.38133 136.784 6.688C136.784 7.99466 136.317 9.096 135.384 9.992C134.488 10.8507 133.349 11.28 131.968 11.28ZM135.832 14.976V46H127.992V14.976H135.832ZM142.122 30.488C142.122 27.2773 142.775 24.4773 144.082 22.088C145.389 19.6613 147.199 17.7947 149.514 16.488C151.829 15.144 154.479 14.472 157.466 14.472C161.311 14.472 164.485 15.4427 166.986 17.384C169.525 19.288 171.223 21.976 172.082 25.448H163.626C163.178 24.104 162.413 23.0587 161.33 22.312C160.285 21.528 158.978 21.136 157.41 21.136C155.17 21.136 153.397 21.9573 152.09 23.6C150.783 25.2053 150.13 27.5013 150.13 30.488C150.13 33.4373 150.783 35.7333 152.09 37.376C153.397 38.9813 155.17 39.784 157.41 39.784C160.583 39.784 162.655 38.3653 163.626 35.528H172.082C171.223 38.888 169.525 41.5573 166.986 43.536C164.447 45.5147 161.274 46.504 157.466 46.504C154.479 46.504 151.829 45.8507 149.514 44.544C147.199 43.2 145.389 41.3333 144.082 38.944C142.775 36.5173 142.122 33.6987 142.122 30.488ZM182.362 11.28C180.98 11.28 179.823 10.8507 178.89 9.992C177.994 9.096 177.546 7.99466 177.546 6.688C177.546 5.38133 177.994 4.29866 178.89 3.44C179.823 2.544 180.98 2.096 182.362 2.096C183.743 2.096 184.882 2.544 185.778 3.44C186.711 4.29866 187.178 5.38133 187.178 6.688C187.178 7.99466 186.711 9.096 185.778 9.992C184.882 10.8507 183.743 11.28 182.362 11.28ZM186.226 14.976V46H178.386V14.976H186.226ZM192.515 30.376C192.515 27.24 193.131 24.4587 194.363 22.032C195.633 19.6053 197.331 17.7387 199.459 16.432C201.625 15.1253 204.033 14.472 206.683 14.472C208.998 14.472 211.014 14.9387 212.731 15.872C214.486 16.8053 215.886 17.9813 216.931 19.4V14.976H224.827V46H216.931V41.464C215.923 42.92 214.523 44.1333 212.731 45.104C210.977 46.0373 208.942 46.504 206.627 46.504C204.014 46.504 201.625 45.832 199.459 44.488C197.331 43.144 195.633 41.2587 194.363 38.832C193.131 36.368 192.515 33.5493 192.515 30.376ZM216.931 30.488C216.931 28.584 216.558 26.96 215.811 25.616C215.065 24.2347 214.057 23.1893 212.787 22.48C211.518 21.7333 210.155 21.36 208.699 21.36C207.243 21.36 205.899 21.7147 204.667 22.424C203.435 23.1333 202.427 24.1787 201.643 25.56C200.897 26.904 200.523 28.5093 200.523 30.376C200.523 32.2427 200.897 33.8853 201.643 35.304C202.427 36.6853 203.435 37.7493 204.667 38.496C205.937 39.2427 207.281 39.616 208.699 39.616C210.155 39.616 211.518 39.2613 212.787 38.552C214.057 37.8053 215.065 36.76 215.811 35.416C216.558 34.0347 216.931 32.392 216.931 30.488ZM240.885 4.56V46H233.045V4.56H240.885Z"/>
</mask>
<path d="M29.832 38.552L31.7221 37.8983L31.2565 36.552H29.832V38.552ZM14.264 38.552V36.552H12.8395L12.3739 37.8983L14.264 38.552ZM11.688 46V48H13.1125L13.5781 46.6537L11.688 46ZM3.456 46L1.57368 45.3241L0.612798 48H3.456V46ZM17.512 6.856V4.856H16.1051L15.6297 6.18008L17.512 6.856ZM26.64 6.856L28.5223 6.18008L28.0469 4.856H26.64V6.856ZM40.696 46V48H43.5392L42.5783 45.3241L40.696 46ZM32.408 46L30.5179 46.6537L30.9835 48H32.408V46ZM27.704 32.28V34.28H30.512L29.5941 31.6262L27.704 32.28ZM22.048 15.928L23.9381 15.2742L22.048 9.8097L20.1579 15.2742L22.048 15.928ZM16.392 32.28L14.5019 31.6262L13.584 34.28H16.392V32.28ZM29.832 38.552V36.552H14.264V38.552V40.552H29.832V38.552ZM14.264 38.552L12.3739 37.8983L9.79786 45.3463L11.688 46L13.5781 46.6537L16.1541 39.2057L14.264 38.552ZM11.688 46V44H3.456V46V48H11.688V46ZM3.456 46L5.33832 46.6759L19.3943 7.53191L17.512 6.856L15.6297 6.18008L1.57368 45.3241L3.456 46ZM17.512 6.856V8.856H26.64V6.856V4.856H17.512V6.856ZM26.64 6.856L24.7577 7.53191L38.8137 46.6759L40.696 46L42.5783 45.3241L28.5223 6.18008L26.64 6.856ZM40.696 46V44H32.408V46V48H40.696V46ZM32.408 46L34.2981 45.3463L31.7221 37.8983L29.832 38.552L27.9419 39.2057L30.5179 46.6537L32.408 46ZM27.704 32.28L29.5941 31.6262L23.9381 15.2742L22.048 15.928L20.1579 16.5818L25.8139 32.9338L27.704 32.28ZM22.048 15.928L20.1579 15.2742L14.5019 31.6262L16.392 32.28L18.2821 32.9338L23.9381 16.5818L22.048 15.928ZM16.392 32.28V34.28H27.704V32.28V30.28H16.392V32.28ZM54.3499 19.792H52.3499V26.8752L56.0546 20.838L54.3499 19.792ZM58.2699 15.928L57.2819 14.1891L57.2733 14.194L57.2647 14.199L58.2699 15.928ZM63.8699 14.528H65.8699V12.528H63.8699V14.528ZM63.8699 22.76V24.76H65.8699V22.76H63.8699ZM56.1979 24.496L54.8504 23.0181L54.8394 23.0281L54.8286 23.0383L56.1979 24.496ZM54.3499 46V48H56.3499V46H54.3499ZM46.5099 46H44.5099V48H46.5099V46ZM46.5099 14.976V12.976H44.5099V14.976H46.5099ZM54.3499 14.976H56.3499V12.976H54.3499V14.976ZM54.3499 19.792L56.0546 20.838C56.8963 19.4663 57.9669 18.4176 59.2752 17.657L58.2699 15.928L57.2647 14.199C55.3623 15.305 53.8195 16.8324 52.6453 18.746L54.3499 19.792ZM58.2699 15.928L59.258 17.6669C60.5682 16.9225 62.0879 16.528 63.8699 16.528V14.528V12.528C61.4707 12.528 59.257 13.0669 57.2819 14.1891L58.2699 15.928ZM63.8699 14.528H61.8699V22.76H63.8699H65.8699V14.528H63.8699ZM63.8699 22.76V20.76H61.7979V22.76V24.76H63.8699V22.76ZM61.7979 22.76V20.76C59.0502 20.76 56.6209 21.4038 54.8504 23.0181L56.1979 24.496L57.5454 25.9739C58.3136 25.2735 59.6176 24.76 61.7979 24.76V22.76ZM56.1979 24.496L54.8286 23.0383C52.9885 24.7669 52.3499 27.4832 52.3499 30.544H54.3499H56.3499C56.3499 27.8555 56.9434 26.5398 57.5673 25.9537L56.1979 24.496ZM54.3499 30.544H52.3499V46H54.3499H56.3499V30.544H54.3499ZM54.3499 46V44H46.5099V46V48H54.3499V46ZM46.5099 46H48.5099V14.976H46.5099H44.5099V46H46.5099ZM46.5099 14.976V16.976H54.3499V14.976V12.976H46.5099V14.976ZM54.3499 14.976H52.3499V19.792H54.3499H56.3499V14.976H54.3499ZM78.8386 21.416V19.416H76.8386V21.416H78.8386ZM79.5666 38.72L78.1524 40.1342L78.2067 40.1885L78.265 40.2385L79.5666 38.72ZM85.7826 39.392H87.7826V37.392H85.7826V39.392ZM85.7826 46V48H87.7826V46H85.7826ZM70.9426 21.416H72.9426V19.416H70.9426V21.416ZM67.2466 21.416H65.2466V23.416H67.2466V21.416ZM67.2466 14.976V12.976H65.2466V14.976H67.2466ZM70.9426 14.976V16.976H72.9426V14.976H70.9426ZM70.9426 7.304V5.304H68.9426V7.304H70.9426ZM78.8386 7.304H80.8386V5.304H78.8386V7.304ZM78.8386 14.976H76.8386V16.976H78.8386V14.976ZM85.7826 14.976H87.7826V12.976H85.7826V14.976ZM85.7826 21.416V23.416H87.7826V21.416H85.7826ZM78.8386 21.416H76.8386V36.424H78.8386H80.8386V21.416H78.8386ZM78.8386 36.424H76.8386C76.8386 37.7273 77.1354 39.1173 78.1524 40.1342L79.5666 38.72L80.9808 37.3058C81.0271 37.3521 80.8386 37.2114 80.8386 36.424H78.8386ZM79.5666 38.72L78.265 40.2385C79.3351 41.1558 80.7896 41.392 82.1426 41.392V39.392V37.392C81.6609 37.392 81.3263 37.3459 81.1074 37.2888C80.8899 37.232 80.8423 37.1793 80.8681 37.2015L79.5666 38.72ZM82.1426 39.392V41.392H85.7826V39.392V37.392H82.1426V39.392ZM85.7826 39.392H83.7826V46H85.7826H87.7826V39.392H85.7826ZM85.7826 46V44H80.8546V46V48H85.7826V46ZM80.8546 46V44C77.8447 44 75.9573 43.2683 74.8144 42.1577C73.6821 41.0574 72.9426 39.2556 72.9426 36.368H70.9426H68.9426C68.9426 39.9017 69.855 42.916 72.0267 45.0263C74.1878 47.1264 77.2564 48 80.8546 48V46ZM70.9426 36.368H72.9426V21.416H70.9426H68.9426V36.368H70.9426ZM70.9426 21.416V19.416H67.2466V21.416V23.416H70.9426V21.416ZM67.2466 21.416H69.2466V14.976H67.2466H65.2466V21.416H67.2466ZM67.2466 14.976V16.976H70.9426V14.976V12.976H67.2466V14.976ZM70.9426 14.976H72.9426V7.304H70.9426H68.9426V14.976H70.9426ZM70.9426 7.304V9.304H78.8386V7.304V5.304H70.9426V7.304ZM78.8386 7.304H76.8386V14.976H78.8386H80.8386V7.304H78.8386ZM78.8386 14.976V16.976H85.7826V14.976V12.976H78.8386V14.976ZM85.7826 14.976H83.7826V21.416H85.7826H87.7826V14.976H85.7826ZM85.7826 21.416V19.416H78.8386V21.416V23.416H85.7826V21.416ZM92.4855 9.992L91.0713 11.4062L91.1007 11.4357L91.1314 11.4639L92.4855 9.992ZM92.4855 3.44L93.8693 4.88397L93.8706 4.88277L92.4855 3.44ZM99.3735 3.44L97.9593 4.85421L97.9887 4.88366L98.0194 4.91186L99.3735 3.44ZM99.3735 9.992L100.757 11.436L100.759 11.4348L99.3735 9.992ZM99.8215 14.976H101.822V12.976H99.8215V14.976ZM99.8215 46V48H101.822V46H99.8215ZM91.9815 46H89.9815V48H91.9815V46ZM91.9815 14.976V12.976H89.9815V14.976H91.9815ZM95.9575 11.28V9.28C95.0291 9.28 94.3695 9.0076 93.8396 8.52014L92.4855 9.992L91.1314 11.4639C92.4682 12.6937 94.1232 13.28 95.9575 13.28V11.28ZM92.4855 9.992L93.8997 8.57779C93.3917 8.06974 93.1415 7.48273 93.1415 6.688H91.1415H89.1415C89.1415 8.50659 89.7873 10.1223 91.0713 11.4062L92.4855 9.992ZM91.1415 6.688H93.1415C93.1415 5.89423 93.3897 5.34365 93.8693 4.88397L92.4855 3.44L91.1017 1.99602C89.7893 3.25368 89.1415 4.86843 89.1415 6.688H91.1415ZM92.4855 3.44L93.8706 4.88277C94.4046 4.3701 95.054 4.096 95.9575 4.096V2.096V0.0959978C94.0983 0.0959978 92.4331 0.717893 91.1004 1.99722L92.4855 3.44ZM95.9575 2.096V4.096C96.8611 4.096 97.474 4.36895 97.9593 4.85421L99.3735 3.44L100.788 2.02578C99.481 0.71905 97.8166 0.0959978 95.9575 0.0959978V2.096ZM99.3735 3.44L98.0194 4.91186C98.5271 5.37899 98.7735 5.92147 98.7735 6.688H100.773H102.773C102.773 4.84119 102.087 3.21833 100.728 1.96813L99.3735 3.44ZM100.773 6.688H98.7735C98.7735 7.4562 98.5245 8.03459 97.9884 8.54923L99.3735 9.992L100.759 11.4348C102.089 10.1574 102.773 8.53313 102.773 6.688H100.773ZM99.3735 9.992L97.9897 8.54802C97.5094 9.00827 96.8866 9.28 95.9575 9.28V11.28V13.28C97.7911 13.28 99.4456 12.6931 100.757 11.436L99.3735 9.992ZM99.8215 14.976H97.8215V46H99.8215H101.822V14.976H99.8215ZM99.8215 46V44H91.9815V46V48H99.8215V46ZM91.9815 46H93.9815V14.976H91.9815H89.9815V46H91.9815ZM91.9815 14.976V16.976H99.8215V14.976V12.976H91.9815V14.976ZM122.351 21.416V23.416H124.351V21.416H122.351ZM116.919 21.416V19.416H114.919V21.416H116.919ZM116.919 46V48H118.919V46H116.919ZM108.967 46H106.967V48H108.967V46ZM108.967 21.416H110.967V19.416H108.967V21.416ZM105.439 21.416H103.439V23.416H105.439V21.416ZM105.439 14.976V12.976H103.439V14.976H105.439ZM108.967 14.976V16.976H110.967V14.976H108.967ZM112.215 5.008L110.94 3.46721V3.46721L112.215 5.008ZM122.015 2.488H124.015V0.538624L122.067 0.488657L122.015 2.488ZM122.015 9.096L121.976 11.0956L124.015 11.1356V9.096H122.015ZM118.039 10.048L116.702 8.56141L118.039 10.048ZM116.919 14.976H114.919V16.976H116.919V14.976ZM122.351 14.976H124.351V12.976H122.351V14.976ZM122.351 21.416V19.416H116.919V21.416V23.416H122.351V21.416ZM116.919 21.416H114.919V46H116.919H118.919V21.416H116.919ZM116.919 46V44H108.967V46V48H116.919V46ZM108.967 46H110.967V21.416H108.967H106.967V46H108.967ZM108.967 21.416V19.416H105.439V21.416V23.416H108.967V21.416ZM105.439 21.416H107.439V14.976H105.439H103.439V21.416H105.439ZM105.439 14.976V16.976H108.967V14.976V12.976H105.439V14.976ZM108.967 14.976H110.967V13.408H108.967H106.967V14.976H108.967ZM108.967 13.408H110.967C110.967 9.97187 111.933 7.83797 113.491 6.54879L112.215 5.008L110.94 3.46721C108.167 5.76203 106.967 9.22813 106.967 13.408H108.967ZM112.215 5.008L113.491 6.54879C115.125 5.19608 117.823 4.38117 121.964 4.48734L122.015 2.488L122.067 0.488657C117.471 0.37083 113.636 1.23591 110.94 3.46721L112.215 5.008ZM122.015 2.488H120.015V9.096H122.015H124.015V2.488H122.015ZM122.015 9.096L122.055 7.09638C120.044 7.05697 118.044 7.35304 116.702 8.56141L118.039 10.048L119.377 11.5346C119.528 11.399 120.178 11.0604 121.976 11.0956L122.015 9.096ZM118.039 10.048L116.702 8.56141C115.308 9.81563 114.919 11.7648 114.919 13.688H116.919H118.919C118.919 12.1019 119.278 11.6244 119.377 11.5346L118.039 10.048ZM116.919 13.688H114.919V14.976H116.919H118.919V13.688H116.919ZM116.919 14.976V16.976H122.351V14.976V12.976H116.919V14.976ZM122.351 14.976H120.351V21.416H122.351H124.351V14.976H122.351ZM128.496 9.992L127.082 11.4062L127.111 11.4357L127.142 11.4639L128.496 9.992ZM128.496 3.44L129.88 4.88397L129.881 4.88277L128.496 3.44ZM135.384 3.44L133.97 4.85421L133.999 4.88366L134.03 4.91186L135.384 3.44ZM135.384 9.992L136.768 11.436L136.769 11.4348L135.384 9.992ZM135.832 14.976H137.832V12.976H135.832V14.976ZM135.832 46V48H137.832V46H135.832ZM127.992 46H125.992V48H127.992V46ZM127.992 14.976V12.976H125.992V14.976H127.992ZM131.968 11.28V9.28C131.04 9.28 130.38 9.0076 129.85 8.52014L128.496 9.992L127.142 11.4639C128.479 12.6937 130.134 13.28 131.968 13.28V11.28ZM128.496 9.992L129.91 8.57779C129.402 8.06974 129.152 7.48273 129.152 6.688H127.152H125.152C125.152 8.50659 125.798 10.1223 127.082 11.4062L128.496 9.992ZM127.152 6.688H129.152C129.152 5.89423 129.4 5.34365 129.88 4.88397L128.496 3.44L127.112 1.99602C125.8 3.25368 125.152 4.86843 125.152 6.688H127.152ZM128.496 3.44L129.881 4.88277C130.415 4.3701 131.065 4.096 131.968 4.096V2.096V0.0959978C130.109 0.0959978 128.444 0.717893 127.111 1.99722L128.496 3.44ZM131.968 2.096V4.096C132.872 4.096 133.485 4.36895 133.97 4.85421L135.384 3.44L136.798 2.02578C135.492 0.71905 133.827 0.0959978 131.968 0.0959978V2.096ZM135.384 3.44L134.03 4.91186C134.538 5.37899 134.784 5.92147 134.784 6.688H136.784H138.784C138.784 4.84119 138.097 3.21833 136.738 1.96813L135.384 3.44ZM136.784 6.688H134.784C134.784 7.4562 134.535 8.03459 133.999 8.54923L135.384 9.992L136.769 11.4348C138.1 10.1574 138.784 8.53313 138.784 6.688H136.784ZM135.384 9.992L134 8.54802C133.52 9.00827 132.897 9.28 131.968 9.28V11.28V13.28C133.802 13.28 135.456 12.6931 136.768 11.436L135.384 9.992ZM135.832 14.976H133.832V46H135.832H137.832V14.976H135.832ZM135.832 46V44H127.992V46V48H135.832V46ZM127.992 46H129.992V14.976H127.992H125.992V46H127.992ZM127.992 14.976V16.976H135.832V14.976V12.976H127.992V14.976ZM144.082 22.088L145.837 23.0476L145.843 23.0362L144.082 22.088ZM149.514 16.488L150.497 18.2296L150.508 18.2237L150.518 18.2176L149.514 16.488ZM166.986 17.384L165.76 18.964L165.773 18.9741L165.786 18.984L166.986 17.384ZM172.082 25.448V27.448H174.637L174.024 24.9678L172.082 25.448ZM163.626 25.448L161.729 26.0805L162.185 27.448H163.626V25.448ZM161.33 22.312L160.13 23.912L160.162 23.9359L160.195 23.9584L161.33 22.312ZM152.09 23.6L153.641 24.8625L153.648 24.8538L153.655 24.845L152.09 23.6ZM152.09 37.376L150.525 38.621L150.532 38.6298L150.539 38.6385L152.09 37.376ZM163.626 35.528V33.528H162.196L161.734 34.8806L163.626 35.528ZM172.082 35.528L174.02 36.0232L174.657 33.528H172.082V35.528ZM166.986 43.536L168.216 45.1135L166.986 43.536ZM149.514 44.544L148.51 46.2736L148.52 46.2797L148.531 46.2856L149.514 44.544ZM144.082 38.944L142.321 39.8922L142.327 39.9036L144.082 38.944ZM142.122 30.488H144.122C144.122 27.5526 144.718 25.0941 145.837 23.0476L144.082 22.088L142.327 21.1284C140.833 23.8606 140.122 27.0021 140.122 30.488H142.122ZM144.082 22.088L145.843 23.0362C146.978 20.9292 148.524 19.3435 150.497 18.2296L149.514 16.488L148.531 14.7464C145.875 16.2458 143.8 18.3934 142.321 21.1398L144.082 22.088ZM149.514 16.488L150.518 18.2176C152.494 17.0706 154.79 16.472 157.466 16.472V14.472V12.472C154.168 12.472 151.164 13.2174 148.51 14.7584L149.514 16.488ZM157.466 14.472V16.472C160.965 16.472 163.68 17.3494 165.76 18.964L166.986 17.384L168.212 15.804C165.29 13.5359 161.657 12.472 157.466 12.472V14.472ZM166.986 17.384L165.786 18.984C167.909 20.5763 169.378 22.8435 170.141 25.9282L172.082 25.448L174.024 24.9678C173.069 21.1085 171.14 17.9997 168.186 15.784L166.986 17.384ZM172.082 25.448V23.448H163.626V25.448V27.448H172.082V25.448ZM163.626 25.448L165.523 24.8155C164.949 23.0936 163.934 21.6781 162.466 20.6656L161.33 22.312L160.195 23.9584C160.892 24.4392 161.407 25.1144 161.729 26.0805L163.626 25.448ZM161.33 22.312L162.53 20.712C161.074 19.6196 159.322 19.136 157.41 19.136V21.136V23.136C158.634 23.136 159.496 23.4364 160.13 23.912L161.33 22.312ZM157.41 21.136V19.136C154.608 19.136 152.239 20.1996 150.525 22.355L152.09 23.6L153.655 24.845C154.554 23.7151 155.732 23.136 157.41 23.136V21.136ZM152.09 23.6L150.539 22.3375C148.837 24.4279 148.13 27.2399 148.13 30.488H150.13H152.13C152.13 27.7627 152.729 25.9828 153.641 24.8625L152.09 23.6ZM150.13 30.488H148.13C148.13 33.7097 148.842 36.5056 150.525 38.621L152.09 37.376L153.655 36.131C152.725 34.9611 152.13 33.1649 152.13 30.488H150.13ZM152.09 37.376L150.539 38.6385C152.26 40.7526 154.625 41.784 157.41 41.784V39.784V37.784C155.715 37.784 154.534 37.2101 153.641 36.1135L152.09 37.376ZM157.41 39.784V41.784C159.294 41.784 161.027 41.3609 162.474 40.3703C163.931 39.3729 164.921 37.9202 165.518 36.1754L163.626 35.528L161.734 34.8806C161.36 35.9731 160.83 36.6484 160.214 37.0697C159.589 37.4977 158.7 37.784 157.41 37.784V39.784ZM163.626 35.528V37.528H172.082V35.528V33.528H163.626V35.528ZM172.082 35.528L170.144 35.0328C169.386 37.999 167.918 40.2739 165.757 41.9585L166.986 43.536L168.216 45.1135C171.131 42.8408 173.06 39.777 174.02 36.0232L172.082 35.528ZM166.986 43.536L165.757 41.9585C163.631 43.6155 160.913 44.504 157.466 44.504V46.504V48.504C161.635 48.504 165.264 47.4138 168.216 45.1135L166.986 43.536ZM157.466 46.504V44.504C154.781 44.504 152.476 43.9195 150.497 42.8024L149.514 44.544L148.531 46.2856C151.181 47.7818 154.178 48.504 157.466 48.504V46.504ZM149.514 44.544L150.518 42.8144C148.525 41.6571 146.972 40.0593 145.837 37.9844L144.082 38.944L142.327 39.9036C143.806 42.6074 145.874 44.7429 148.51 46.2736L149.514 44.544ZM144.082 38.944L145.843 37.9958C144.717 35.9053 144.122 33.4225 144.122 30.488H142.122H140.122C140.122 33.9748 140.833 37.1294 142.321 39.8922L144.082 38.944ZM178.89 9.992L177.475 11.4062L177.505 11.4357L177.535 11.4639L178.89 9.992ZM178.89 3.44L180.273 4.88397L180.275 4.88277L178.89 3.44ZM185.778 3.44L184.363 4.85421L184.393 4.88366L184.423 4.91186L185.778 3.44ZM185.778 9.992L187.161 11.436L187.163 11.4348L185.778 9.992ZM186.226 14.976H188.226V12.976H186.226V14.976ZM186.226 46V48H188.226V46H186.226ZM178.386 46H176.386V48H178.386V46ZM178.386 14.976V12.976H176.386V14.976H178.386ZM182.362 11.28V9.28C181.433 9.28 180.774 9.0076 180.244 8.52014L178.89 9.992L177.535 11.4639C178.872 12.6937 180.527 13.28 182.362 13.28V11.28ZM178.89 9.992L180.304 8.57779C179.796 8.06974 179.546 7.48273 179.546 6.688H177.546H175.546C175.546 8.50659 176.191 10.1223 177.475 11.4062L178.89 9.992ZM177.546 6.688H179.546C179.546 5.89423 179.794 5.34365 180.273 4.88397L178.89 3.44L177.506 1.99602C176.193 3.25368 175.546 4.86843 175.546 6.688H177.546ZM178.89 3.44L180.275 4.88277C180.809 4.3701 181.458 4.096 182.362 4.096V2.096V0.0959978C180.502 0.0959978 178.837 0.717893 177.505 1.99722L178.89 3.44ZM182.362 2.096V4.096C183.265 4.096 183.878 4.36895 184.363 4.85421L185.778 3.44L187.192 2.02578C185.885 0.71905 184.221 0.0959978 182.362 0.0959978V2.096ZM185.778 3.44L184.423 4.91186C184.931 5.37899 185.178 5.92147 185.178 6.688H187.178H189.178C189.178 4.84119 188.491 3.21833 187.132 1.96813L185.778 3.44ZM187.178 6.688H185.178C185.178 7.4562 184.929 8.03459 184.393 8.54923L185.778 9.992L187.163 11.4348C188.493 10.1574 189.178 8.53313 189.178 6.688H187.178ZM185.778 9.992L184.394 8.54802C183.913 9.00827 183.291 9.28 182.362 9.28V11.28V13.28C184.195 13.28 185.85 12.6931 187.161 11.436L185.778 9.992ZM186.226 14.976H184.226V46H186.226H188.226V14.976H186.226ZM186.226 46V44H178.386V46V48H186.226V46ZM178.386 46H180.386V14.976H178.386H176.386V46H178.386ZM178.386 14.976V16.976H186.226V14.976V12.976H178.386V14.976ZM194.363 22.032L192.591 21.105L192.586 21.1158L192.58 21.1266L194.363 22.032ZM199.46 16.432L198.426 14.7196L198.42 14.7236L198.413 14.7277L199.46 16.432ZM212.731 15.872L211.776 17.6292L211.784 17.6335L211.792 17.6377L212.731 15.872ZM216.932 19.4L215.321 20.5864L218.932 25.4858V19.4H216.932ZM216.932 14.976V12.976H214.932V14.976H216.932ZM224.827 14.976H226.827V12.976H224.827V14.976ZM224.827 46V48H226.827V46H224.827ZM216.932 46H214.932V48H216.932V46ZM216.932 41.464H218.932V35.0615L215.287 40.3256L216.932 41.464ZM212.731 45.104L213.671 46.8697L213.677 46.8662L213.684 46.8626L212.731 45.104ZM199.46 44.488L198.392 46.179L198.398 46.1832L198.405 46.1873L199.46 44.488ZM194.363 38.832L192.575 39.7264L192.583 39.7428L192.591 39.759L194.363 38.832ZM215.811 25.616L214.052 26.567L214.058 26.5772L214.063 26.5873L215.811 25.616ZM212.787 22.48L211.773 24.2039L211.793 24.2151L211.812 24.2259L212.787 22.48ZM204.667 22.424L203.67 20.6908V20.6908L204.667 22.424ZM201.643 25.56L199.904 24.5728L199.9 24.5807L199.895 24.5887L201.643 25.56ZM201.643 35.304L199.874 36.2355L199.888 36.2636L199.904 36.2912L201.643 35.304ZM204.667 38.496L203.631 40.2064L203.642 40.2132L203.653 40.2199L204.667 38.496ZM212.787 38.552L213.763 40.2979L213.782 40.2871L213.802 40.2759L212.787 38.552ZM215.811 35.416L217.56 36.3873L217.565 36.3772L217.571 36.367L215.811 35.416ZM192.516 30.376H194.516C194.516 27.5066 195.078 25.0436 196.147 22.9374L194.363 22.032L192.58 21.1266C191.185 23.8738 190.516 26.9734 190.516 30.376H192.516ZM194.363 22.032L196.136 22.959C197.254 20.8203 198.715 19.2361 200.506 18.1363L199.46 16.432L198.413 14.7277C195.948 16.2412 194.011 18.3904 192.591 21.105L194.363 22.032ZM199.46 16.432L200.493 18.1444C202.331 17.0351 204.379 16.472 206.684 16.472V14.472V12.472C203.687 12.472 200.919 13.2155 198.426 14.7196L199.46 16.432ZM206.684 14.472V16.472C208.726 16.472 210.402 16.8822 211.776 17.6292L212.731 15.872L213.687 14.1147C211.626 12.9951 209.27 12.472 206.684 12.472V14.472ZM212.731 15.872L211.792 17.6377C213.317 18.4486 214.475 19.4377 215.321 20.5864L216.932 19.4L218.542 18.2136C217.297 16.5249 215.656 15.162 213.671 14.1063L212.731 15.872ZM216.932 19.4H218.932V14.976H216.932H214.932V19.4H216.932ZM216.932 14.976V16.976H224.827V14.976V12.976H216.932V14.976ZM224.827 14.976H222.827V46H224.827H226.827V14.976H224.827ZM224.827 46V44H216.932V46V48H224.827V46ZM216.932 46H218.932V41.464H216.932H214.932V46H216.932ZM216.932 41.464L215.287 40.3256C214.483 41.487 213.337 42.5017 211.779 43.3454L212.731 45.104L213.684 46.8626C215.71 45.765 217.364 44.353 218.576 42.6024L216.932 41.464ZM212.731 45.104L211.792 43.3383C210.371 44.0942 208.669 44.504 206.628 44.504V46.504V48.504C209.216 48.504 211.583 47.9804 213.671 46.8697L212.731 45.104ZM206.628 46.504V44.504C204.377 44.504 202.354 43.931 200.514 42.7887L199.46 44.488L198.405 46.1873C200.895 47.733 203.651 48.504 206.628 48.504V46.504ZM199.46 44.488L200.527 42.797C198.723 41.6576 197.257 40.0478 196.136 37.905L194.363 38.832L192.591 39.759C194.009 42.4696 195.94 44.6304 198.392 46.179L199.46 44.488ZM194.363 38.832L196.152 37.9376C195.079 35.7907 194.516 33.2861 194.516 30.376H192.516H190.516C190.516 33.8126 191.184 36.9453 192.575 39.7264L194.363 38.832ZM216.932 30.488H218.932C218.932 28.3242 218.506 26.3487 217.56 24.6447L215.811 25.616L214.063 26.5873C214.61 27.5713 214.932 28.8438 214.932 30.488H216.932ZM215.811 25.616L217.571 24.665C216.659 22.9774 215.39 21.6435 213.763 20.7341L212.787 22.48L211.812 24.2259C212.723 24.7352 213.471 25.4919 214.052 26.567L215.811 25.616ZM212.787 22.48L213.802 20.7561C212.229 19.8308 210.516 19.36 208.699 19.36V21.36V23.36C209.795 23.36 210.808 23.6358 211.773 24.2039L212.787 22.48ZM208.699 21.36V19.36C206.902 19.36 205.213 19.8023 203.67 20.6908L204.667 22.424L205.665 24.1572C206.586 23.6271 207.585 23.36 208.699 23.36V21.36ZM204.667 22.424L203.67 20.6908C202.093 21.5984 200.843 22.9184 199.904 24.5728L201.643 25.56L203.383 26.5472C204.012 25.439 204.778 24.6683 205.665 24.1572L204.667 22.424ZM201.643 25.56L199.895 24.5887C198.952 26.2872 198.523 28.2418 198.523 30.376H200.523H202.523C202.523 28.7769 202.842 27.5208 203.392 26.5313L201.643 25.56ZM200.523 30.376H198.523C198.523 32.5137 198.953 34.4857 199.874 36.2355L201.643 35.304L203.413 34.3725C202.841 33.2849 202.523 31.9716 202.523 30.376H200.523ZM201.643 35.304L199.904 36.2912C200.839 37.9385 202.077 39.2649 203.631 40.2064L204.667 38.496L205.704 36.7856C204.793 36.2337 204.016 35.4322 203.383 34.3168L201.643 35.304ZM204.667 38.496L203.653 40.2199C205.218 41.1401 206.91 41.616 208.699 41.616V39.616V37.616C207.651 37.616 206.656 37.3452 205.682 36.7721L204.667 38.496ZM208.699 39.616V41.616C210.497 41.616 212.195 41.1741 213.763 40.2979L212.787 38.552L211.812 36.8061C210.841 37.3486 209.814 37.616 208.699 37.616V39.616ZM212.787 38.552L213.802 40.2759C215.392 39.3402 216.648 38.0288 217.56 36.3873L215.811 35.416L214.063 34.4447C213.482 35.4912 212.721 36.2705 211.773 36.8281L212.787 38.552ZM215.811 35.416L217.571 36.367C218.506 34.6376 218.932 32.654 218.932 30.488H216.932H214.932C214.932 32.13 214.611 33.4317 214.052 34.465L215.811 35.416ZM240.885 4.56H242.885V2.56H240.885V4.56ZM240.885 46V48H242.885V46H240.885ZM233.045 46H231.045V48H233.045V46ZM233.045 4.56V2.56H231.045V4.56H233.045ZM240.885 4.56H238.885V46H240.885H242.885V4.56H240.885ZM240.885 46V44H233.045V46V48H240.885V46ZM233.045 46H235.045V4.56H233.045H231.045V46H233.045ZM233.045 4.56V6.56H240.885V4.56V2.56H233.045V4.56Z" fill="#ECEDEE" mask="url(#path-1-outside-1_656_1693)"/>
</svg>
