<svg width="72" height="43" viewBox="0 0 72 43" fill="none" xmlns="http://www.w3.org/2000/svg">
<path d="M20.1804 15.5737C20.0998 18.1073 21.366 19.2292 21.3974 19.9418C21.3825 20.0868 21.3331 20.2262 21.2533 20.3482C21.1735 20.4702 21.0657 20.5713 20.9388 20.6431L19.507 21.6453C19.3217 21.7752 19.1033 21.8497 18.8772 21.8601C18.8291 21.8579 17.9611 22.0648 16.5864 18.9954C15.7477 20.0424 14.6806 20.8836 13.4667 21.4546C12.2528 22.0256 10.9243 22.3112 9.58302 22.2896C7.76199 22.3892 2.82685 21.2561 3.08077 16.0022C2.90292 11.7203 6.89062 9.0603 11.0148 9.28513C11.809 9.28737 13.4309 9.32652 16.271 9.98648V8.23927C16.5719 5.27953 14.6267 2.98311 11.2586 3.32763C10.9902 3.32875 9.08861 3.2717 6.13111 4.4585C5.30784 4.83658 5.2027 4.77394 4.92865 4.77394C4.09979 4.77394 4.44095 2.37125 4.59979 2.067C5.18256 1.35111 8.61098 0.0144203 11.9756 0.0334361C14.2254 -0.165491 16.463 0.528827 18.205 1.96633C18.913 2.75842 19.4531 3.68577 19.7928 4.69239C20.1325 5.69901 20.2648 6.76403 20.1815 7.82316L20.1804 15.5737ZM10.5137 19.1968C14.1412 19.1442 15.677 16.963 16.0271 15.7885C16.3023 14.6643 16.2564 13.9529 16.2564 12.7236C15.1748 12.4641 13.6177 12.1811 11.8313 12.1789C10.1367 12.0514 7.04163 12.8086 7.16243 15.7874C7.02373 17.6655 8.40629 19.2997 10.5137 19.1968ZM29.6323 21.7751C28.7531 21.8556 28.3437 21.2315 28.2139 20.6151L22.6435 2.19787C22.535 1.88691 22.4634 1.56588 22.4287 1.23814C22.4081 1.10302 22.4421 0.965266 22.523 0.855152C22.604 0.745038 22.7254 0.671569 22.8605 0.650887C22.8873 0.646412 22.6222 0.650887 25.3493 0.650887C26.3314 0.552453 26.6513 1.32539 26.7531 1.81085L30.7486 17.5637L34.4578 1.81085C34.5171 1.45067 34.7867 0.572587 35.8896 0.665429H37.809C38.0518 0.645294 39.0518 0.6095 39.2274 1.82539L42.9656 17.7796L47.0898 1.82539C47.1435 1.58154 47.3941 0.553572 48.5082 0.665429H50.714C50.8091 0.650887 51.4019 0.574824 51.3012 1.62516C51.2531 1.8321 51.6827 0.432767 45.4008 20.6297C45.2721 21.246 44.8616 21.8702 43.9824 21.7896H41.8918C40.6681 21.9183 40.4925 20.7091 40.4735 20.5872L36.7643 5.24821L33.0976 20.5715C33.0797 20.6934 32.9041 21.9026 31.6793 21.774H29.6323V21.7751ZM60.223 22.4049C59.5652 22.406 56.4288 22.3713 53.8068 21.0301C53.5456 20.9196 53.3232 20.7339 53.1676 20.4967C53.0121 20.2596 52.9305 19.9815 52.9332 19.6979V18.4954C52.9332 17.5503 53.6267 17.7236 53.9209 17.8366C55.044 18.2907 55.7643 18.6353 57.1435 18.9104C61.2431 19.7527 63.0462 18.6532 63.4881 18.4093C64.959 17.5357 65.0753 15.5368 64.0753 14.4999C62.9031 13.5167 62.3438 13.4798 58.1323 12.1509C57.6133 12.0066 53.2442 10.6285 53.2341 6.29408C53.1659 3.13523 56.0361 0.00994569 61.0104 0.0356728C62.4277 0.0345542 66.2039 0.497643 67.2263 1.78288C67.3773 2.01666 67.4523 2.29183 67.4411 2.57035V3.70123C67.4411 4.19788 67.2599 4.4462 66.8963 4.4462C66.0339 4.35 64.5037 3.19675 61.3975 3.24373C60.6268 3.20347 56.9355 3.34552 57.101 6.03681C57.0529 8.15762 60.0775 8.95292 60.4232 9.04464C64.5015 10.2717 65.865 10.4753 67.4836 12.3534C69.4008 14.8422 68.3673 17.7561 67.9702 18.5547C65.8359 22.7483 60.3169 22.4071 60.223 22.4049ZM64.7196 34.1342C56.8863 39.9194 45.5149 42.9989 35.8057 42.9989C22.705 43.0852 10.0459 38.2681 0.316782 29.4944C-0.413645 28.8355 0.230652 27.9328 1.1188 28.4351C11.9113 34.6086 24.1306 37.8524 36.5641 37.8445C45.849 37.7947 55.0327 35.9112 63.5876 32.302C64.9053 31.7427 66.0227 33.1744 64.7196 34.1342ZM67.9847 30.4105C66.9825 29.1219 61.3538 29.8087 58.8337 30.1096C58.0742 30.1957 57.9455 29.5369 58.6335 29.0503C63.1156 25.8993 70.4769 26.802 71.3225 27.8612C72.1671 28.9205 71.0932 36.2964 66.8975 39.8199C66.2532 40.3646 65.6368 40.0772 65.9232 39.3613C66.8673 36.9843 68.987 31.7002 67.9847 30.4105Z" fill="#DADBDD"/>
</svg>
