<svg width="145" height="123" viewBox="0 0 145 123" fill="none" xmlns="http://www.w3.org/2000/svg">
<path opacity="0.1" d="M132.133 1.21527C133.14 1.49325 134.056 2.03375 134.786 2.78162C135.517 3.52949 136.036 4.45796 136.291 5.4723L141.335 25.6932L161.535 30.7425C162.548 30.9978 163.476 31.5178 164.223 32.2494C164.971 32.9811 165.511 33.8981 165.788 34.9069C166.066 35.9157 166.071 36.9801 165.803 37.9915C165.535 39.0029 165.004 39.9251 164.263 40.6638L140.638 64.314C139.917 65.0332 139.023 65.5538 138.042 65.8252C137.061 66.0966 136.026 66.1097 135.039 65.8631L116.327 61.1921L88.532 89.0048C87.1472 90.391 85.2691 91.1697 83.3108 91.1697C81.3524 91.1697 79.4743 90.391 78.0895 89.0048C76.7048 87.6186 75.9268 85.7385 75.9268 83.7781C75.9268 81.8177 76.7048 79.9376 78.0895 78.5514L105.873 50.7269L101.195 31.996C100.947 31.0057 100.959 29.9678 101.23 28.9835C101.501 27.9991 102.022 27.1019 102.743 26.3791L126.368 2.72888C127.108 1.9897 128.03 1.46013 129.04 1.19422C130.051 0.928305 131.114 0.935568 132.121 1.21527M78.6093 16.1149C80.5642 15.9832 82.3868 15.0794 83.6762 13.6025C84.9655 12.1255 85.6159 10.1964 85.4843 8.23937C85.3527 6.28238 84.4499 4.45786 82.9745 3.1672C81.4991 1.87653 79.572 1.22545 77.617 1.35717C61.893 2.45292 46.8136 8.04381 34.1701 17.4657C21.5267 26.8876 11.8506 39.7444 6.29125 54.509C0.731911 69.2735 -0.47699 85.3252 2.80815 100.757C6.09329 116.189 13.7344 130.353 24.8238 141.566C35.9132 152.779 49.9847 160.57 65.3669 164.013C80.7491 167.457 96.7953 166.408 111.6 160.991C126.404 155.575 139.344 146.018 148.882 133.457C158.421 120.895 164.157 105.857 165.409 90.1281C165.566 88.1743 164.941 86.2382 163.671 84.7457C162.402 83.2532 160.592 82.3267 158.641 82.1699C156.689 82.013 154.755 82.6388 153.264 83.9095C151.773 85.1802 150.847 86.9918 150.691 88.9456C149.667 101.857 144.962 114.203 137.134 124.517C129.307 134.83 118.687 142.677 106.536 147.126C94.3843 151.575 81.2125 152.439 68.5852 149.615C55.9579 146.79 44.406 140.397 35.3019 131.193C26.1977 121.99 19.9242 110.364 17.2265 97.6966C14.5288 85.029 15.5204 71.8525 20.0835 59.7326C24.6466 47.6126 32.5894 37.0587 42.9682 29.3247C53.347 21.5907 65.7254 17.0017 78.6329 16.1031M77.5107 48.8586C77.8645 49.7623 78.037 50.727 78.0183 51.6975C77.9996 52.668 77.7901 53.6254 77.4018 54.5148C77.0135 55.4043 76.4539 56.2084 75.7551 56.8814C75.0563 57.5544 74.2319 58.0829 73.329 58.4369C69.1158 60.0868 65.3799 62.762 62.4592 66.2207C59.5386 69.6793 57.5252 73.8122 56.6013 78.2456C55.6774 82.679 55.8721 87.273 57.1677 91.6121C58.4634 95.9513 60.8191 99.8987 64.0219 103.097C67.2246 106.296 71.1734 108.645 75.5111 109.932C79.8487 111.218 84.4383 111.403 88.8649 110.467C93.2915 109.532 97.4154 107.507 100.864 104.575C104.312 101.643 106.975 97.8971 108.614 93.6757C109.355 91.8959 110.762 90.4767 112.534 89.7208C114.306 88.9649 116.303 88.9322 118.099 89.6296C119.894 90.3271 121.347 91.6995 122.146 93.454C122.945 95.2085 123.027 97.2061 122.375 99.0206C119.852 105.539 115.745 111.324 110.426 115.853C105.106 120.382 98.7429 123.511 91.911 124.958C85.0792 126.405 77.9947 126.124 71.2988 124.14C64.603 122.156 58.507 118.531 53.5628 113.595C48.6186 108.658 44.9822 102.566 42.9826 95.8679C40.9831 89.1702 40.6836 82.0791 42.1112 75.2363C43.5388 68.3936 46.6485 62.0152 51.1588 56.6785C55.6692 51.3419 61.4377 47.2154 67.9424 44.6725C68.8452 44.3183 69.8089 44.1457 70.7784 44.1644C71.7479 44.1831 72.7042 44.3928 73.5927 44.7815C74.4813 45.1702 75.2846 45.7303 75.9568 46.4299C76.6291 47.1295 77.1571 47.9547 77.5107 48.8586Z" stroke="url(#paint0_linear_638_1071)" stroke-width="1.5"/>
<defs>
<linearGradient id="paint0_linear_638_1071" x1="1" y1="83.5" x2="166" y2="83.5" gradientUnits="userSpaceOnUse">
<stop stop-color="#A95CEC"/>
<stop offset="1" stop-color="#DA22FF"/>
</linearGradient>
</defs>
</svg>
