<svg width="120" height="105" viewBox="0 0 120 105" fill="none" xmlns="http://www.w3.org/2000/svg">
<path opacity="0.1" d="M152 77C152 57.1088 144.098 38.0322 130.033 23.967C115.968 9.90176 96.8912 2 77 2M152 77H2M152 77C152 96.8912 144.098 115.968 130.033 130.033C115.968 144.098 96.8912 152 77 152M77 2C57.1088 2 38.0322 9.90176 23.967 23.967C9.90176 38.0322 2 57.1088 2 77M77 2C72.9459 2 44.5676 35.5757 44.5676 77C44.5676 118.424 72.9459 152 77 152M77 2C81.0541 2 109.432 35.5757 109.432 77C109.432 118.424 81.0541 152 77 152M2 77C2 96.8912 9.90176 115.968 23.967 130.033C38.0322 144.098 57.1088 152 77 152" stroke="url(#paint0_linear_638_1079)" stroke-width="3" stroke-linecap="round" stroke-linejoin="round"/>
<defs>
<linearGradient id="paint0_linear_638_1079" x1="2" y1="77" x2="152" y2="77" gradientUnits="userSpaceOnUse">
<stop stop-color="#A95CEC"/>
<stop offset="1" stop-color="#DA22FF"/>
</linearGradient>
</defs>
</svg>
