<svg width="171" height="47" viewBox="0 0 171 47" fill="none" xmlns="http://www.w3.org/2000/svg">
<mask id="path-1-outside-1_430_76" maskUnits="userSpaceOnUse" x="0" y="0" width="171" height="47" fill="black">
<rect fill="white" width="171" height="47"/>
<path d="M2.96 24.4C2.96 20.5547 3.81867 17.12 5.536 14.096C7.29067 11.0347 9.66133 8.664 12.648 6.984C15.672 5.26667 19.0507 4.408 22.784 4.408C27.152 4.408 30.9787 5.528 34.264 7.768C37.5493 10.008 39.8453 13.1067 41.152 17.064H32.136C31.24 15.1973 29.9707 13.7973 28.328 12.864C26.7227 11.9307 24.856 11.464 22.728 11.464C20.4507 11.464 18.416 12.0053 16.624 13.088C14.8693 14.1333 13.488 15.6267 12.48 17.568C11.5093 19.5093 11.024 21.7867 11.024 24.4C11.024 26.976 11.5093 29.2533 12.48 31.232C13.488 33.1733 14.8693 34.6853 16.624 35.768C18.416 36.8133 20.4507 37.336 22.728 37.336C24.856 37.336 26.7227 36.8693 28.328 35.936C29.9707 34.9653 31.24 33.5467 32.136 31.68H41.152C39.8453 35.6747 37.5493 38.792 34.264 41.032C31.016 43.2347 27.1893 44.336 22.784 44.336C19.0507 44.336 15.672 43.496 12.648 41.816C9.66133 40.0987 7.29067 37.728 5.536 34.704C3.81867 31.68 2.96 28.2453 2.96 24.4ZM56.2484 2.56V44H48.4084V2.56H56.2484ZM78.3303 44.504C75.3436 44.504 72.6556 43.8507 70.2663 42.544C67.877 41.2 65.9916 39.3147 64.6103 36.888C63.2663 34.4613 62.5943 31.6613 62.5943 28.488C62.5943 25.3147 63.285 22.5147 64.6663 20.088C66.085 17.6613 68.0076 15.7947 70.4343 14.488C72.861 13.144 75.5676 12.472 78.5543 12.472C81.541 12.472 84.2476 13.144 86.6743 14.488C89.101 15.7947 91.005 17.6613 92.3863 20.088C93.805 22.5147 94.5143 25.3147 94.5143 28.488C94.5143 31.6613 93.7863 34.4613 92.3303 36.888C90.9116 39.3147 88.9703 41.2 86.5063 42.544C84.0796 43.8507 81.3543 44.504 78.3303 44.504ZM78.3303 37.672C79.749 37.672 81.0743 37.336 82.3063 36.664C83.5756 35.9547 84.5836 34.9093 85.3303 33.528C86.077 32.1467 86.4503 30.4667 86.4503 28.488C86.4503 25.5387 85.6663 23.28 84.0983 21.712C82.5676 20.1067 80.6823 19.304 78.4423 19.304C76.2023 19.304 74.317 20.1067 72.7863 21.712C71.293 23.28 70.5463 25.5387 70.5463 28.488C70.5463 31.4373 71.2743 33.7147 72.7303 35.32C74.2236 36.888 76.0903 37.672 78.3303 37.672ZM130.113 12.976V44H122.217V40.08C121.209 41.424 119.884 42.488 118.241 43.272C116.636 44.0187 114.881 44.392 112.977 44.392C110.551 44.392 108.404 43.888 106.537 42.88C104.671 41.8347 103.196 40.3227 102.113 38.344C101.068 36.328 100.545 33.9387 100.545 31.176V12.976H108.385V30.056C108.385 32.52 109.001 34.424 110.233 35.768C111.465 37.0747 113.145 37.728 115.273 37.728C117.439 37.728 119.137 37.0747 120.369 35.768C121.601 34.424 122.217 32.52 122.217 30.056V12.976H130.113ZM136.393 28.376C136.393 25.24 137.009 22.4587 138.241 20.032C139.51 17.6053 141.227 15.7387 143.393 14.432C145.558 13.1253 147.966 12.472 150.617 12.472C152.633 12.472 154.555 12.92 156.385 13.816C158.214 14.6747 159.67 15.832 160.753 17.288V2.56H168.705V44H160.753V39.408C159.782 40.9387 158.419 42.1707 156.665 43.104C154.91 44.0373 152.875 44.504 150.561 44.504C147.947 44.504 145.558 43.832 143.393 42.488C141.227 41.144 139.51 39.2587 138.241 36.832C137.009 34.368 136.393 31.5493 136.393 28.376ZM160.809 28.488C160.809 26.584 160.435 24.96 159.689 23.616C158.942 22.2347 157.934 21.1893 156.665 20.48C155.395 19.7333 154.033 19.36 152.577 19.36C151.121 19.36 149.777 19.7147 148.545 20.424C147.313 21.1333 146.305 22.1787 145.521 23.56C144.774 24.904 144.401 26.5093 144.401 28.376C144.401 30.2427 144.774 31.8853 145.521 33.304C146.305 34.6853 147.313 35.7493 148.545 36.496C149.814 37.2427 151.158 37.616 152.577 37.616C154.033 37.616 155.395 37.2613 156.665 36.552C157.934 35.8053 158.942 34.76 159.689 33.416C160.435 32.0347 160.809 30.392 160.809 28.488Z"/>
</mask>
<path d="M5.536 14.096L3.8008 13.1014L3.79688 13.1083L5.536 14.096ZM12.648 6.984L13.6285 8.72717L13.6357 8.72312L12.648 6.984ZM34.264 7.768L33.1373 9.42045L34.264 7.768ZM41.152 17.064V19.064H43.9186L43.0512 16.4369L41.152 17.064ZM32.136 17.064L30.333 17.9295L30.8775 19.064H32.136V17.064ZM28.328 12.864L27.3228 14.593L27.3313 14.598L27.34 14.6029L28.328 12.864ZM16.624 13.088L17.6476 14.8062L17.6582 14.7998L16.624 13.088ZM12.48 17.568L10.705 16.6464L10.698 16.6599L10.6911 16.6736L12.48 17.568ZM12.48 31.232L10.6844 32.1129L10.6945 32.1334L10.705 32.1536L12.48 31.232ZM16.624 35.768L15.5738 37.4701L15.5949 37.4831L15.6163 37.4956L16.624 35.768ZM28.328 35.936L29.3332 37.665L29.3394 37.6615L29.3455 37.6579L28.328 35.936ZM32.136 31.68V29.68H30.8775L30.333 30.8145L32.136 31.68ZM41.152 31.68L43.0529 32.3018L43.9105 29.68H41.152V31.68ZM34.264 41.032L35.3865 42.6873L35.3907 42.6845L34.264 41.032ZM12.648 41.816L11.6511 43.5498L11.6638 43.5572L11.6767 43.5643L12.648 41.816ZM5.536 34.704L3.79688 35.6916L3.80146 35.6997L3.80612 35.7078L5.536 34.704ZM2.96 24.4H4.96C4.96 20.8634 5.74639 17.7756 7.27512 15.0836L5.536 14.096L3.79688 13.1083C1.89095 16.4644 0.96 20.2459 0.96 24.4H2.96ZM5.536 14.096L7.27118 15.0906C8.85202 12.3325 10.966 10.2248 13.6285 8.72715L12.648 6.984L11.6675 5.24085C8.35668 7.10317 5.72932 9.73682 3.80082 13.1014L5.536 14.096ZM12.648 6.984L13.6357 8.72312C16.3365 7.18931 19.3706 6.408 22.784 6.408V4.408V2.408C18.7307 2.408 15.0075 3.34403 11.6603 5.24488L12.648 6.984ZM22.784 4.408V6.408C26.7914 6.408 30.2167 7.42911 33.1373 9.42045L34.264 7.768L35.3907 6.11554C31.7406 3.62688 27.5126 2.408 22.784 2.408V4.408ZM34.264 7.768L33.1373 9.42045C36.0412 11.4004 38.0769 14.1296 39.2528 17.6911L41.152 17.064L43.0512 16.4369C41.6138 12.0837 39.0575 8.61563 35.3907 6.11554L34.264 7.768ZM41.152 17.064V15.064H32.136V17.064V19.064H41.152V17.064ZM32.136 17.064L33.939 16.1985C32.8844 14.0014 31.347 12.2791 29.316 11.1251L28.328 12.864L27.34 14.6029C28.5943 15.3156 29.5956 16.3933 30.333 17.9295L32.136 17.064ZM28.328 12.864L29.3332 11.135C27.3803 9.99958 25.1568 9.464 22.728 9.464V11.464V13.464C24.5552 13.464 26.065 13.8618 27.3228 14.593L28.328 12.864ZM22.728 11.464V9.464C20.1192 9.464 17.721 10.0886 15.5898 11.3762L16.624 13.088L17.6582 14.7998C19.111 13.9221 20.7821 13.464 22.728 13.464V11.464ZM16.624 13.088L15.6004 11.3698C13.5032 12.6192 11.8718 14.3992 10.705 16.6464L12.48 17.568L14.255 18.4896C15.1042 16.8541 16.2355 15.6475 17.6476 14.8062L16.624 13.088ZM12.48 17.568L10.6911 16.6736C9.55609 18.9437 9.024 21.5388 9.024 24.4H11.024H13.024C13.024 22.0345 13.4626 20.075 14.2689 18.4624L12.48 17.568ZM11.024 24.4H9.024C9.024 27.23 9.55833 29.8174 10.6844 32.1129L12.48 31.232L14.2756 30.3511C13.4603 28.6893 13.024 26.722 13.024 24.4H11.024ZM12.48 31.232L10.705 32.1536C11.8691 34.3955 13.4925 36.1859 15.5738 37.4701L16.624 35.768L17.6742 34.0659C16.2462 33.1848 15.1069 31.9512 14.255 30.3104L12.48 31.232ZM16.624 35.768L15.6163 37.4956C17.7435 38.7364 20.1322 39.336 22.728 39.336V37.336V35.336C20.7692 35.336 19.0885 34.8902 17.6317 34.0404L16.624 35.768ZM22.728 37.336V39.336C25.1568 39.336 27.3803 38.8004 29.3332 37.665L28.328 35.936L27.3228 34.207C26.065 34.9382 24.5552 35.336 22.728 35.336V37.336ZM28.328 35.936L29.3455 37.6579C31.3581 36.4685 32.887 34.7373 33.939 32.5455L32.136 31.68L30.333 30.8145C29.593 32.3561 28.5832 33.4621 27.3105 34.2141L28.328 35.936ZM32.136 31.68V33.68H41.152V31.68V29.68H32.136V31.68ZM41.152 31.68L39.2511 31.0582C38.0733 34.6589 36.0363 37.403 33.1373 39.3795L34.264 41.032L35.3907 42.6845C39.0624 40.181 41.6174 36.6904 43.0529 32.3018L41.152 31.68ZM34.264 41.032L33.1415 39.3767C30.2645 41.3278 26.84 42.336 22.784 42.336V44.336V46.336C27.5387 46.336 31.7675 45.1415 35.3865 42.6873L34.264 41.032ZM22.784 44.336V42.336C19.3628 42.336 16.3229 41.5697 13.6193 40.0677L12.648 41.816L11.6767 43.5643C15.0211 45.4223 18.7385 46.336 22.784 46.336V44.336ZM12.648 41.816L13.6449 40.0822C10.9671 38.5424 8.84722 36.4255 7.26588 33.7002L5.536 34.704L3.80612 35.7078C5.73411 39.0305 8.35559 41.6549 11.6511 43.5498L12.648 41.816ZM5.536 34.704L7.27512 33.7164C5.74639 31.0244 4.96 27.9366 4.96 24.4H2.96H0.96C0.96 28.5541 1.89095 32.3356 3.79688 35.6916L5.536 34.704ZM56.2484 2.56H58.2484V0.559999H56.2484V2.56ZM56.2484 44V46H58.2484V44H56.2484ZM48.4084 44H46.4084V46H48.4084V44ZM48.4084 2.56V0.559999H46.4084V2.56H48.4084ZM56.2484 2.56H54.2484V44H56.2484H58.2484V2.56H56.2484ZM56.2484 44V42H48.4084V44V46H56.2484V44ZM48.4084 44H50.4084V2.56H48.4084H46.4084V44H48.4084ZM48.4084 2.56V4.56H56.2484V2.56V0.559999H48.4084V2.56ZM70.2663 42.544L69.2858 44.2872L69.2962 44.293L69.3067 44.2987L70.2663 42.544ZM64.6103 36.888L62.8607 37.857L62.8664 37.8672L62.8722 37.8774L64.6103 36.888ZM64.6663 20.088L62.9397 19.0786L62.9339 19.0886L62.9282 19.0986L64.6663 20.088ZM70.4343 14.488L71.3825 16.2489L71.3929 16.2433L71.4033 16.2376L70.4343 14.488ZM86.6743 14.488L85.7053 16.2376L85.7157 16.2433L85.7261 16.2489L86.6743 14.488ZM92.3863 20.088L90.6482 21.0774L90.6539 21.0874L90.6597 21.0974L92.3863 20.088ZM92.3303 36.888L90.6153 35.859L90.6095 35.8688L90.6037 35.8786L92.3303 36.888ZM86.5063 42.544L87.4545 44.305L87.464 44.2998L86.5063 42.544ZM82.3063 36.664L83.264 38.4198L83.273 38.4149L83.282 38.4099L82.3063 36.664ZM85.3303 33.528L87.0897 34.479V34.479L85.3303 33.528ZM84.0983 21.712L82.6508 23.0921L82.6673 23.1094L82.6841 23.1262L84.0983 21.712ZM72.7863 21.712L71.3388 20.3318L71.338 20.3327L72.7863 21.712ZM72.7303 35.32L71.2489 36.6636L71.2652 36.6817L71.282 36.6993L72.7303 35.32ZM78.3303 44.504V42.504C75.6458 42.504 73.2932 41.9198 71.2259 40.7893L70.2663 42.544L69.3067 44.2987C72.0181 45.7815 75.0415 46.504 78.3303 46.504V44.504ZM70.2663 42.544L71.2468 40.8008C69.1799 39.6382 67.5538 38.0161 66.3484 35.8986L64.6103 36.888L62.8722 37.8774C64.4295 40.6132 66.5741 42.7618 69.2858 44.2872L70.2663 42.544ZM64.6103 36.888L66.3599 35.919C65.2025 33.8293 64.5943 31.3717 64.5943 28.488H62.5943H60.5943C60.5943 31.9509 61.3301 35.0934 62.8607 37.857L64.6103 36.888ZM62.5943 28.488H64.5943C64.5943 25.6135 65.2171 23.1633 66.4044 21.0774L64.6663 20.088L62.9282 19.0986C61.3529 21.866 60.5943 25.0159 60.5943 28.488H62.5943ZM64.6663 20.088L66.3929 21.0974C67.63 18.9814 69.2861 17.3778 71.3825 16.2489L70.4343 14.488L69.4861 12.7271C66.7291 14.2116 64.54 16.3413 62.9397 19.0786L64.6663 20.088ZM70.4343 14.488L71.4033 16.2376C73.5109 15.0703 75.8799 14.472 78.5543 14.472V12.472V10.472C75.2554 10.472 72.2111 11.2177 69.4653 12.7384L70.4343 14.488ZM78.5543 12.472V14.472C81.2287 14.472 83.5978 15.0703 85.7053 16.2376L86.6743 14.488L87.6433 12.7384C84.8975 11.2177 81.8532 10.472 78.5543 10.472V12.472ZM86.6743 14.488L85.7261 16.2489C87.8177 17.3752 89.45 18.9724 90.6482 21.0774L92.3863 20.088L94.1244 19.0986C92.56 16.3503 90.3842 14.2141 87.6225 12.7271L86.6743 14.488ZM92.3863 20.088L90.6597 21.0974C91.8772 23.1799 92.5143 25.6227 92.5143 28.488H94.5143H96.5143C96.5143 25.0066 95.7328 21.8495 94.1129 19.0786L92.3863 20.088ZM94.5143 28.488H92.5143C92.5143 31.3439 91.8629 33.7797 90.6153 35.859L92.3303 36.888L94.0453 37.917C95.7097 35.143 96.5143 31.9787 96.5143 28.488H94.5143ZM92.3303 36.888L90.6037 35.8786C89.3684 37.9917 87.6927 39.6187 85.5486 40.7882L86.5063 42.544L87.464 44.2998C90.2479 42.7813 92.4549 40.6377 94.0569 37.8974L92.3303 36.888ZM86.5063 42.544L85.5581 40.7831C83.4505 41.9179 81.0562 42.504 78.3303 42.504V44.504V46.504C81.6524 46.504 84.7088 45.7834 87.4545 44.3049L86.5063 42.544ZM78.3303 37.672V39.672C80.0798 39.672 81.7349 39.2538 83.264 38.4198L82.3063 36.664L81.3486 34.9082C80.4137 35.4181 79.4182 35.672 78.3303 35.672V37.672ZM82.3063 36.664L83.282 38.4099C84.9092 37.5005 86.1776 36.1665 87.0897 34.479L85.3303 33.528L83.5709 32.577C82.9897 33.6521 82.2421 34.4088 81.3307 34.9181L82.3063 36.664ZM85.3303 33.528L87.0897 34.479C88.0302 32.7392 88.4503 30.7141 88.4503 28.488H86.4503H84.4503C84.4503 30.2193 84.1238 31.5541 83.5709 32.577L85.3303 33.528ZM86.4503 28.488H88.4503C88.4503 25.1893 87.5667 22.3519 85.5125 20.2978L84.0983 21.712L82.6841 23.1262C83.7659 24.2081 84.4503 25.8881 84.4503 28.488H86.4503ZM84.0983 21.712L85.5458 20.3318C83.6335 18.3263 81.2232 17.304 78.4423 17.304V19.304V21.304C80.1415 21.304 81.5018 21.8871 82.6508 23.0921L84.0983 21.712ZM78.4423 19.304V17.304C75.6615 17.304 73.2511 18.3263 71.3388 20.3318L72.7863 21.712L74.2338 23.0921C75.3828 21.8871 76.7431 21.304 78.4423 21.304V19.304ZM72.7863 21.712L71.338 20.3327C69.3786 22.3901 68.5463 25.2143 68.5463 28.488H70.5463H72.5463C72.5463 25.863 73.2074 24.1699 74.2346 23.0913L72.7863 21.712ZM70.5463 28.488H68.5463C68.5463 31.7529 69.3547 34.5752 71.2489 36.6636L72.7303 35.32L74.2118 33.9764C73.1939 32.8541 72.5463 31.1218 72.5463 28.488H70.5463ZM72.7303 35.32L71.282 36.6993C73.1673 38.6788 75.5642 39.672 78.3303 39.672V37.672V35.672C76.6164 35.672 75.28 35.0972 74.1786 33.9407L72.7303 35.32ZM130.113 12.976H132.113V10.976H130.113V12.976ZM130.113 44V46H132.113V44H130.113ZM122.217 44H120.217V46H122.217V44ZM122.217 40.08H124.217V34.08L120.617 38.88L122.217 40.08ZM118.241 43.272L119.085 45.0854L119.094 45.0812L119.103 45.077L118.241 43.272ZM106.537 42.88L105.56 44.625L105.573 44.6325L105.587 44.6398L106.537 42.88ZM102.113 38.344L100.338 39.2646L100.348 39.2844L100.359 39.304L102.113 38.344ZM100.545 12.976V10.976H98.5452V12.976H100.545ZM108.385 12.976H110.385V10.976H108.385V12.976ZM110.233 35.768L108.759 37.1194L108.768 37.1298L108.778 37.14L110.233 35.768ZM120.369 35.768L121.824 37.14L121.834 37.1298L121.844 37.1194L120.369 35.768ZM122.217 12.976V10.976H120.217V12.976H122.217ZM130.113 12.976H128.113V44H130.113H132.113V12.976H130.113ZM130.113 44V42H122.217V44V46H130.113V44ZM122.217 44H124.217V40.08H122.217H120.217V44H122.217ZM122.217 40.08L120.617 38.88C119.819 39.9445 118.756 40.8102 117.38 41.467L118.241 43.272L119.103 45.077C121.012 44.1658 122.6 42.9035 123.817 41.28L122.217 40.08ZM118.241 43.272L117.398 41.4586C116.076 42.0732 114.612 42.392 112.977 42.392V44.392V46.392C115.15 46.392 117.196 45.9641 119.085 45.0854L118.241 43.272ZM112.977 44.392V42.392C110.834 42.392 109.023 41.9491 107.488 41.1202L106.537 42.88L105.587 44.6398C107.785 45.8269 110.267 46.392 112.977 46.392V44.392ZM106.537 42.88L107.514 41.135C105.994 40.2833 104.78 39.0519 103.868 37.384L102.113 38.344L100.359 39.304C101.611 41.5934 103.348 43.386 105.56 44.625L106.537 42.88ZM102.113 38.344L103.889 37.4234C103.02 35.747 102.545 33.6868 102.545 31.176H100.545H98.5452C98.5452 34.1905 99.1163 36.909 100.338 39.2646L102.113 38.344ZM100.545 31.176H102.545V12.976H100.545H98.5452V31.176H100.545ZM100.545 12.976V14.976H108.385V12.976V10.976H100.545V12.976ZM108.385 12.976H106.385V30.056H108.385H110.385V12.976H108.385ZM108.385 30.056H106.385C106.385 32.8419 107.085 35.2933 108.759 37.1194L110.233 35.768L111.708 34.4166C110.918 33.5547 110.385 32.1981 110.385 30.056H108.385ZM110.233 35.768L108.778 37.14C110.458 38.9213 112.705 39.728 115.273 39.728V37.728V35.728C113.586 35.728 112.473 35.228 111.688 34.396L110.233 35.768ZM115.273 37.728V39.728C117.867 39.728 120.138 38.9285 121.824 37.14L120.369 35.768L118.914 34.396C118.136 35.2208 117.01 35.728 115.273 35.728V37.728ZM120.369 35.768L121.844 37.1194C123.518 35.2933 124.217 32.8419 124.217 30.056H122.217H120.217C120.217 32.1981 119.685 33.5547 118.895 34.4165L120.369 35.768ZM122.217 30.056H124.217V12.976H122.217H120.217V30.056H122.217ZM122.217 12.976V14.976H130.113V12.976V10.976H122.217V12.976ZM138.241 20.032L136.468 19.105L136.463 19.1158L136.457 19.1266L138.241 20.032ZM143.393 14.432L144.426 16.1444V16.1444L143.393 14.432ZM156.385 13.816L155.505 15.6121L155.52 15.6194L155.535 15.6265L156.385 13.816ZM160.753 17.288L159.148 18.4814L162.753 23.3294V17.288H160.753ZM160.753 2.56V0.559999H158.753V2.56H160.753ZM168.705 2.56H170.705V0.559999H168.705V2.56ZM168.705 44V46H170.705V44H168.705ZM160.753 44H158.753V46H160.753V44ZM160.753 39.408H162.753V32.5196L159.064 38.3369L160.753 39.408ZM156.665 43.104L155.725 41.3383L156.665 43.104ZM143.393 42.488L144.447 40.7887L143.393 42.488ZM138.241 36.832L136.452 37.7264L136.46 37.7428L136.468 37.759L138.241 36.832ZM159.689 23.616L157.929 24.567L157.935 24.5772L157.94 24.5873L159.689 23.616ZM156.665 20.48L155.651 22.2039L155.67 22.2151L155.689 22.2259L156.665 20.48ZM148.545 20.424L147.547 18.6908V18.6908L148.545 20.424ZM145.521 23.56L143.781 22.5728L143.777 22.5807L143.772 22.5887L145.521 23.56ZM145.521 33.304L143.751 34.2355L143.766 34.2636L143.781 34.2912L145.521 33.304ZM148.545 36.496L147.508 38.2064L147.519 38.2132L147.531 38.2199L148.545 36.496ZM156.665 36.552L157.64 38.2979L157.66 38.2871L157.679 38.2759L156.665 36.552ZM159.689 33.416L161.437 34.3873L161.443 34.3772L161.448 34.367L159.689 33.416ZM136.393 28.376H138.393C138.393 25.5066 138.955 23.0436 140.024 20.9374L138.241 20.032L136.457 19.1266C135.063 21.8738 134.393 24.9734 134.393 28.376H136.393ZM138.241 20.032L140.013 20.959C141.127 18.829 142.6 17.2462 144.426 16.1444L143.393 14.432L142.359 12.7196C139.855 14.2311 137.893 16.3817 136.468 19.105L138.241 20.032ZM143.393 14.432L144.426 16.1444C146.264 15.0351 148.312 14.472 150.617 14.472V12.472V10.472C147.62 10.472 144.852 11.2155 142.359 12.7196L143.393 14.432ZM150.617 12.472V14.472C152.324 14.472 153.947 14.8488 155.505 15.6121L156.385 13.816L157.264 12.0199C155.164 10.9912 152.941 10.472 150.617 10.472V12.472ZM156.385 13.816L155.535 15.6265C157.1 16.3611 158.284 17.3193 159.148 18.4814L160.753 17.288L162.358 16.0946C161.056 14.3447 159.328 12.9882 157.235 12.0055L156.385 13.816ZM160.753 17.288H162.753V2.56H160.753H158.753V17.288H160.753ZM160.753 2.56V4.56H168.705V2.56V0.559999H160.753V2.56ZM168.705 2.56H166.705V44H168.705H170.705V2.56H168.705ZM168.705 44V42H160.753V44V46H168.705V44ZM160.753 44H162.753V39.408H160.753H158.753V44H160.753ZM160.753 39.408L159.064 38.3369C158.296 39.5473 157.205 40.5515 155.725 41.3383L156.665 43.104L157.604 44.8697C159.634 43.7898 161.268 42.33 162.442 40.4791L160.753 39.408ZM156.665 43.104L155.725 41.3383C154.304 42.0942 152.602 42.504 150.561 42.504V44.504V46.504C153.149 46.504 155.516 45.9804 157.604 44.8697L156.665 43.104ZM150.561 44.504V42.504C148.31 42.504 146.288 41.931 144.447 40.7887L143.393 42.488L142.338 44.1873C144.828 45.733 147.585 46.504 150.561 46.504V44.504ZM143.393 42.488L144.447 40.7887C142.609 39.6474 141.129 38.0392 140.013 35.905L138.241 36.832L136.468 37.759C137.891 40.4781 139.846 42.6406 142.338 44.1873L143.393 42.488ZM138.241 36.832L140.03 35.9376C138.956 33.7907 138.393 31.2861 138.393 28.376H136.393H134.393C134.393 31.8126 135.061 34.9453 136.452 37.7264L138.241 36.832ZM160.809 28.488H162.809C162.809 26.3242 162.384 24.3487 161.437 22.6447L159.689 23.616L157.94 24.5873C158.487 25.5713 158.809 26.8438 158.809 28.488H160.809ZM159.689 23.616L161.448 22.665C160.536 20.9774 159.268 19.6435 157.64 18.7341L156.665 20.48L155.689 22.2259C156.6 22.7352 157.348 23.4919 157.929 24.567L159.689 23.616ZM156.665 20.48L157.679 18.7561C156.106 17.8308 154.394 17.36 152.577 17.36V19.36V21.36C153.672 21.36 154.685 21.6358 155.651 22.2039L156.665 20.48ZM152.577 19.36V17.36C150.779 17.36 149.09 17.8023 147.547 18.6908L148.545 20.424L149.543 22.1572C150.463 21.6271 151.462 21.36 152.577 21.36V19.36ZM148.545 20.424L147.547 18.6908C145.97 19.5984 144.72 20.9184 143.781 22.5728L145.521 23.56L147.26 24.5472C147.889 23.439 148.655 22.6683 149.543 22.1572L148.545 20.424ZM145.521 23.56L143.772 22.5887C142.829 24.2872 142.401 26.2418 142.401 28.376H144.401H146.401C146.401 26.7769 146.719 25.5208 147.269 24.5313L145.521 23.56ZM144.401 28.376H142.401C142.401 30.5137 142.83 32.4857 143.751 34.2355L145.521 33.304L147.291 32.3725C146.718 31.2849 146.401 29.9716 146.401 28.376H144.401ZM145.521 33.304L143.781 34.2912C144.716 35.9385 145.955 37.2649 147.508 38.2064L148.545 36.496L149.581 34.7856C148.671 34.2337 147.893 33.4322 147.26 32.3168L145.521 33.304ZM148.545 36.496L147.531 38.2199C149.095 39.1401 150.788 39.616 152.577 39.616V37.616V35.616C151.529 35.616 150.533 35.3452 149.559 34.7721L148.545 36.496ZM152.577 37.616V39.616C154.374 39.616 156.072 39.1741 157.64 38.2979L156.665 36.552L155.689 34.8061C154.718 35.3486 153.692 35.616 152.577 35.616V37.616ZM156.665 36.552L157.679 38.2759C159.269 37.3402 160.525 36.0288 161.437 34.3873L159.689 33.416L157.94 32.4447C157.359 33.4912 156.599 34.2705 155.651 34.8281L156.665 36.552ZM159.689 33.416L161.448 34.367C162.383 32.6376 162.809 30.654 162.809 28.488H160.809H158.809C158.809 30.13 158.488 31.4317 157.929 32.465L159.689 33.416Z" fill="#ECEDEE" mask="url(#path-1-outside-1_430_76)"/>
</svg>
