<svg width="51" height="50" viewBox="0 0 51 50" fill="none" xmlns="http://www.w3.org/2000/svg">
<path d="M45.4222 34.0695C43.6802 34.0695 42.2038 35.2168 41.719 36.7904H35.537V28.911H38.8837C38.9147 28.911 38.9456 28.911 38.9766 28.9088C39.012 28.911 39.0452 28.911 39.0807 28.911C45.6526 28.911 51 23.6009 51 17.0754C51 10.55 45.6523 5.23989 39.0807 5.23989C37.8589 5.23989 36.6392 5.42891 35.4771 5.79595C32.883 2.17603 28.6995 0 24.1312 0C18.0109 0 12.6879 3.98256 10.8616 9.5939C10.4964 9.55214 10.1289 9.53236 9.7593 9.53236C4.3784 9.53236 0 13.8798 0 19.223C0 24.5661 4.37823 28.9137 9.7593 28.9137H15.4631V36.7932H9.28105C8.79409 35.2195 7.31996 34.0722 5.57792 34.0722C3.44196 34.0722 1.70441 35.7976 1.70441 37.9185C1.70441 40.0395 3.44196 41.7648 5.57792 41.7648C7.3199 41.7648 8.79629 40.6175 9.28105 39.0438H16.5964C17.2228 39.0438 17.7297 38.5405 17.7297 37.9185V28.9137H24.3657V42.4766C22.7808 42.9602 21.6254 44.4239 21.6254 46.1537C21.6254 48.2747 23.363 50 25.499 50C27.6349 50 29.3725 48.2747 29.3725 46.1537C29.3725 44.424 28.217 42.958 26.6322 42.4766V28.9137H33.2682V37.9185C33.2682 38.5405 33.7751 39.0438 34.4015 39.0438H41.7169C42.2038 40.6175 43.6779 41.7648 45.42 41.7648C47.5559 41.7648 49.2935 40.0395 49.2935 37.9185C49.2935 35.7976 47.5559 34.0722 45.42 34.0722L45.4222 34.0695ZM5.5758 39.5137C4.69042 39.5137 3.96885 38.7972 3.96885 37.918C3.96885 37.0389 4.69042 36.3224 5.5758 36.3224C6.46118 36.3224 7.18274 37.0389 7.18274 37.918C7.18274 38.7972 6.46118 39.5137 5.5758 39.5137ZM27.106 46.1536C27.106 47.0328 26.3844 47.7492 25.499 47.7492C24.6137 47.7492 23.8921 47.0328 23.8921 46.1536C23.8921 45.2744 24.6137 44.558 25.499 44.558C26.3844 44.558 27.106 45.2744 27.106 46.1536ZM2.2666 19.223C2.2666 15.1152 5.62 11.783 9.75933 11.783C10.7487 11.783 11.6917 11.9786 12.5571 12.3237C13.3075 6.6397 18.2014 2.25095 24.1314 2.25095C28.6845 2.25095 32.6242 4.84009 34.5503 8.61407C35.9005 7.89977 37.441 7.49094 39.079 7.49094C44.4089 7.49094 48.7318 11.7812 48.7318 17.0758C48.7318 22.3683 44.4111 26.6607 39.079 26.6607C39.0126 26.6607 38.9484 26.652 38.882 26.652V26.6607H9.75935C5.6224 26.6607 2.26662 23.3309 2.26662 19.2207L2.2666 19.223ZM45.4222 39.5137C44.5368 39.5137 43.8152 38.7972 43.8152 37.918C43.8152 37.0389 44.5368 36.3224 45.4222 36.3224C46.3075 36.3224 47.0291 37.0389 47.0291 37.918C47.0291 38.7972 46.3075 39.5137 45.4222 39.5137Z" fill="#DADBDD"/>
</svg>
