<svg width="292" height="59" viewBox="0 0 292 59" fill="none" xmlns="http://www.w3.org/2000/svg">
<mask id="path-1-outside-1_33_267" maskUnits="userSpaceOnUse" x="0" y="0" width="292" height="59" fill="black">
<rect fill="white" width="292" height="59"/>
<path d="M2.96 22.4C2.96 18.5547 3.81867 15.12 5.536 12.096C7.29067 9.03466 9.66133 6.664 12.648 4.984C15.672 3.26667 19.0507 2.408 22.784 2.408C27.152 2.408 30.9787 3.528 34.264 5.768C37.5493 8.008 39.8453 11.1067 41.152 15.064H32.136C31.24 13.1973 29.9707 11.7973 28.328 10.864C26.7227 9.93066 24.856 9.464 22.728 9.464C20.4507 9.464 18.416 10.0053 16.624 11.088C14.8693 12.1333 13.488 13.6267 12.48 15.568C11.5093 17.5093 11.024 19.7867 11.024 22.4C11.024 24.976 11.5093 27.2533 12.48 29.232C13.488 31.1733 14.8693 32.6853 16.624 33.768C18.416 34.8133 20.4507 35.336 22.728 35.336C24.856 35.336 26.7227 34.8693 28.328 33.936C29.9707 32.9653 31.24 31.5467 32.136 29.68H41.152C39.8453 33.6747 37.5493 36.792 34.264 39.032C31.016 41.2347 27.1893 42.336 22.784 42.336C19.0507 42.336 15.672 41.496 12.648 39.816C9.66133 38.0987 7.29067 35.728 5.536 32.704C3.81867 29.68 2.96 26.2453 2.96 22.4ZM62.1844 42.504C59.1977 42.504 56.5097 41.8507 54.1204 40.544C51.731 39.2 49.8457 37.3147 48.4644 34.888C47.1204 32.4613 46.4484 29.6613 46.4484 26.488C46.4484 23.3147 47.139 20.5147 48.5204 18.088C49.939 15.6613 51.8617 13.7947 54.2884 12.488C56.715 11.144 59.4217 10.472 62.4084 10.472C65.395 10.472 68.1017 11.144 70.5284 12.488C72.955 13.7947 74.859 15.6613 76.2404 18.088C77.659 20.5147 78.3684 23.3147 78.3684 26.488C78.3684 29.6613 77.6404 32.4613 76.1844 34.888C74.7657 37.3147 72.8244 39.2 70.3604 40.544C67.9337 41.8507 65.2084 42.504 62.1844 42.504ZM62.1844 35.672C63.603 35.672 64.9284 35.336 66.1604 34.664C67.4297 33.9547 68.4377 32.9093 69.1844 31.528C69.931 30.1467 70.3044 28.4667 70.3044 26.488C70.3044 23.5387 69.5204 21.28 67.9524 19.712C66.4217 18.1067 64.5364 17.304 62.2964 17.304C60.0564 17.304 58.171 18.1067 56.6404 19.712C55.147 21.28 54.4004 23.5387 54.4004 26.488C54.4004 29.4373 55.1284 31.7147 56.5844 33.32C58.0777 34.888 59.9444 35.672 62.1844 35.672ZM123.207 10.528C127.015 10.528 130.077 11.704 132.391 14.056C134.743 16.3707 135.919 19.6187 135.919 23.8V42H128.079V24.864C128.079 22.4373 127.463 20.5893 126.231 19.32C124.999 18.0133 123.319 17.36 121.191 17.36C119.063 17.36 117.365 18.0133 116.095 19.32C114.863 20.5893 114.247 22.4373 114.247 24.864V42H106.407V24.864C106.407 22.4373 105.791 20.5893 104.559 19.32C103.327 18.0133 101.647 17.36 99.5193 17.36C97.354 17.36 95.6366 18.0133 94.3673 19.32C93.1353 20.5893 92.5193 22.4373 92.5193 24.864V42H84.6793V10.976H92.5193V14.728C93.5273 13.4213 94.8153 12.3947 96.3833 11.648C97.9886 10.9013 99.7433 10.528 101.647 10.528C104.074 10.528 106.239 11.0507 108.143 12.096C110.047 13.104 111.522 14.56 112.567 16.464C113.575 14.672 115.031 13.2347 116.935 12.152C118.877 11.0693 120.967 10.528 123.207 10.528ZM151.759 15.456C152.767 14.0373 154.148 12.8613 155.903 11.928C157.695 10.9573 159.73 10.472 162.007 10.472C164.658 10.472 167.047 11.1253 169.175 12.432C171.34 13.7387 173.039 15.6053 174.271 18.032C175.54 20.4213 176.175 23.2027 176.175 26.376C176.175 29.5493 175.54 32.368 174.271 34.832C173.039 37.2587 171.34 39.144 169.175 40.488C167.047 41.832 164.658 42.504 162.007 42.504C159.73 42.504 157.714 42.0373 155.959 41.104C154.242 40.1707 152.842 38.9947 151.759 37.576V56.784H143.919V10.976H151.759V15.456ZM168.167 26.376C168.167 24.5093 167.775 22.904 166.991 21.56C166.244 20.1787 165.236 19.1333 163.967 18.424C162.735 17.7147 161.391 17.36 159.935 17.36C158.516 17.36 157.172 17.7333 155.903 18.48C154.671 19.1893 153.663 20.2347 152.879 21.616C152.132 22.9973 151.759 24.6213 151.759 26.488C151.759 28.3547 152.132 29.9787 152.879 31.36C153.663 32.7413 154.671 33.8053 155.903 34.552C157.172 35.2613 158.516 35.616 159.935 35.616C161.391 35.616 162.735 35.2427 163.967 34.496C165.236 33.7493 166.244 32.6853 166.991 31.304C167.775 29.9227 168.167 28.28 168.167 26.376ZM180.416 26.376C180.416 23.24 181.032 20.4587 182.264 18.032C183.533 15.6053 185.232 13.7387 187.36 12.432C189.525 11.1253 191.933 10.472 194.584 10.472C196.899 10.472 198.915 10.9387 200.632 11.872C202.387 12.8053 203.787 13.9813 204.832 15.4V10.976H212.728V42H204.832V37.464C203.824 38.92 202.424 40.1333 200.632 41.104C198.877 42.0373 196.843 42.504 194.528 42.504C191.915 42.504 189.525 41.832 187.36 40.488C185.232 39.144 183.533 37.2587 182.264 34.832C181.032 32.368 180.416 29.5493 180.416 26.376ZM204.832 26.488C204.832 24.584 204.459 22.96 203.712 21.616C202.965 20.2347 201.957 19.1893 200.688 18.48C199.419 17.7333 198.056 17.36 196.6 17.36C195.144 17.36 193.8 17.7147 192.568 18.424C191.336 19.1333 190.328 20.1787 189.544 21.56C188.797 22.904 188.424 24.5093 188.424 26.376C188.424 28.2427 188.797 29.8853 189.544 31.304C190.328 32.6853 191.336 33.7493 192.568 34.496C193.837 35.2427 195.181 35.616 196.6 35.616C198.056 35.616 199.419 35.2613 200.688 34.552C201.957 33.8053 202.965 32.76 203.712 31.416C204.459 30.0347 204.832 28.392 204.832 26.488ZM238.137 10.528C241.833 10.528 244.82 11.704 247.097 14.056C249.375 16.3707 250.513 19.6187 250.513 23.8V42H242.673V24.864C242.673 22.4 242.057 20.5147 240.825 19.208C239.593 17.864 237.913 17.192 235.785 17.192C233.62 17.192 231.903 17.864 230.633 19.208C229.401 20.5147 228.785 22.4 228.785 24.864V42H220.945V10.976H228.785V14.84C229.831 13.496 231.156 12.4507 232.761 11.704C234.404 10.92 236.196 10.528 238.137 10.528ZM288.209 10.976L269.001 56.672H260.657L267.377 41.216L254.945 10.976H263.737L271.745 32.648L279.865 10.976H288.209Z"/>
</mask>
<path d="M5.536 12.096L3.8008 11.1014L3.79688 11.1083L5.536 12.096ZM12.648 4.984L13.6285 6.72717L13.6357 6.72312L12.648 4.984ZM34.264 5.768L33.1373 7.42045L34.264 5.768ZM41.152 15.064V17.064H43.9186L43.0512 14.4369L41.152 15.064ZM32.136 15.064L30.333 15.9295L30.8775 17.064H32.136V15.064ZM28.328 10.864L27.3228 12.593L27.3313 12.598L27.34 12.6029L28.328 10.864ZM16.624 11.088L17.6476 12.8062L17.6582 12.7998L16.624 11.088ZM12.48 15.568L10.705 14.6464L10.698 14.6599L10.6911 14.6736L12.48 15.568ZM12.48 29.232L10.6844 30.1129L10.6945 30.1334L10.705 30.1536L12.48 29.232ZM16.624 33.768L15.5738 35.4701L15.5949 35.4831L15.6163 35.4956L16.624 33.768ZM28.328 33.936L29.3332 35.665L29.3394 35.6615L29.3455 35.6579L28.328 33.936ZM32.136 29.68V27.68H30.8775L30.333 28.8145L32.136 29.68ZM41.152 29.68L43.0529 30.3018L43.9105 27.68H41.152V29.68ZM34.264 39.032L35.3865 40.6873L35.3907 40.6845L34.264 39.032ZM12.648 39.816L11.6511 41.5498L11.6638 41.5572L11.6767 41.5643L12.648 39.816ZM5.536 32.704L3.79688 33.6916L3.80146 33.6997L3.80612 33.7078L5.536 32.704ZM2.96 22.4H4.96C4.96 18.8634 5.74639 15.7756 7.27512 13.0836L5.536 12.096L3.79688 11.1083C1.89095 14.4644 0.96 18.2459 0.96 22.4H2.96ZM5.536 12.096L7.27118 13.0906C8.85202 10.3325 10.966 8.22483 13.6285 6.72715L12.648 4.984L11.6675 3.24085C8.35668 5.10317 5.72932 7.73682 3.80082 11.1014L5.536 12.096ZM12.648 4.984L13.6357 6.72312C16.3365 5.18931 19.3706 4.408 22.784 4.408V2.408V0.407999C18.7307 0.407999 15.0075 1.34403 11.6603 3.24488L12.648 4.984ZM22.784 2.408V4.408C26.7914 4.408 30.2167 5.42911 33.1373 7.42045L34.264 5.768L35.3907 4.11554C31.7406 1.62688 27.5126 0.407999 22.784 0.407999V2.408ZM34.264 5.768L33.1373 7.42045C36.0412 9.40037 38.0769 12.1296 39.2528 15.6911L41.152 15.064L43.0512 14.4369C41.6138 10.0837 39.0575 6.61563 35.3907 4.11554L34.264 5.768ZM41.152 15.064V13.064H32.136V15.064V17.064H41.152V15.064ZM32.136 15.064L33.939 14.1985C32.8844 12.0014 31.347 10.2791 29.316 9.12508L28.328 10.864L27.34 12.6029C28.5943 13.3156 29.5956 14.3933 30.333 15.9295L32.136 15.064ZM28.328 10.864L29.3332 9.13498C27.3803 7.99958 25.1568 7.464 22.728 7.464V9.464V11.464C24.5552 11.464 26.065 11.8618 27.3228 12.593L28.328 10.864ZM22.728 9.464V7.464C20.1192 7.464 17.721 8.08857 15.5898 9.37617L16.624 11.088L17.6582 12.7998C19.111 11.9221 20.7821 11.464 22.728 11.464V9.464ZM16.624 11.088L15.6004 9.36979C13.5032 10.6192 11.8718 12.3992 10.705 14.6464L12.48 15.568L14.255 16.4896C15.1042 14.8541 16.2355 13.6475 17.6476 12.8062L16.624 11.088ZM12.48 15.568L10.6911 14.6736C9.55609 16.9437 9.024 19.5388 9.024 22.4H11.024H13.024C13.024 20.0345 13.4626 18.075 14.2689 16.4624L12.48 15.568ZM11.024 22.4H9.024C9.024 25.23 9.55833 27.8174 10.6844 30.1129L12.48 29.232L14.2756 28.3511C13.4603 26.6893 13.024 24.722 13.024 22.4H11.024ZM12.48 29.232L10.705 30.1536C11.8691 32.3955 13.4925 34.1859 15.5738 35.4701L16.624 33.768L17.6742 32.0659C16.2462 31.1848 15.1069 29.9512 14.255 28.3104L12.48 29.232ZM16.624 33.768L15.6163 35.4956C17.7435 36.7364 20.1322 37.336 22.728 37.336V35.336V33.336C20.7692 33.336 19.0885 32.8902 17.6317 32.0404L16.624 33.768ZM22.728 35.336V37.336C25.1568 37.336 27.3803 36.8004 29.3332 35.665L28.328 33.936L27.3228 32.207C26.065 32.9382 24.5552 33.336 22.728 33.336V35.336ZM28.328 33.936L29.3455 35.6579C31.3581 34.4685 32.887 32.7373 33.939 30.5455L32.136 29.68L30.333 28.8145C29.593 30.3561 28.5832 31.4621 27.3105 32.2141L28.328 33.936ZM32.136 29.68V31.68H41.152V29.68V27.68H32.136V29.68ZM41.152 29.68L39.2511 29.0582C38.0733 32.6589 36.0363 35.403 33.1373 37.3795L34.264 39.032L35.3907 40.6845C39.0624 38.181 41.6174 34.6904 43.0529 30.3018L41.152 29.68ZM34.264 39.032L33.1415 37.3767C30.2645 39.3278 26.84 40.336 22.784 40.336V42.336V44.336C27.5387 44.336 31.7675 43.1415 35.3865 40.6873L34.264 39.032ZM22.784 42.336V40.336C19.3628 40.336 16.3229 39.5697 13.6193 38.0677L12.648 39.816L11.6767 41.5643C15.0211 43.4223 18.7385 44.336 22.784 44.336V42.336ZM12.648 39.816L13.6449 38.0822C10.9671 36.5424 8.84722 34.4255 7.26588 31.7002L5.536 32.704L3.80612 33.7078C5.73411 37.0305 8.35559 39.6549 11.6511 41.5498L12.648 39.816ZM5.536 32.704L7.27512 31.7164C5.74639 29.0244 4.96 25.9366 4.96 22.4H2.96H0.96C0.96 26.5541 1.89095 30.3356 3.79688 33.6916L5.536 32.704ZM54.1204 40.544L53.1399 42.2872L53.1503 42.293L53.1608 42.2987L54.1204 40.544ZM48.4644 34.888L46.7148 35.857L46.7205 35.8672L46.7262 35.8774L48.4644 34.888ZM48.5204 18.088L46.7938 17.0786L46.788 17.0886L46.7822 17.0986L48.5204 18.088ZM54.2884 12.488L55.2366 14.2489L55.247 14.2433L55.2574 14.2376L54.2884 12.488ZM70.5284 12.488L69.5594 14.2376L69.5697 14.2433L69.5802 14.2489L70.5284 12.488ZM76.2404 18.088L74.5023 19.0774L74.508 19.0874L74.5138 19.0974L76.2404 18.088ZM76.1844 34.888L74.4694 33.859L74.4635 33.8688L74.4578 33.8786L76.1844 34.888ZM70.3604 40.544L71.3086 42.305L71.3181 42.2998L70.3604 40.544ZM66.1604 34.664L67.1181 36.4198L67.1271 36.4149L67.136 36.4099L66.1604 34.664ZM69.1844 31.528L70.9438 32.479V32.479L69.1844 31.528ZM67.9524 19.712L66.5049 21.0921L66.5213 21.1094L66.5382 21.1262L67.9524 19.712ZM56.6404 19.712L55.1929 18.3318L55.1921 18.3327L56.6404 19.712ZM56.5844 33.32L55.1029 34.6636L55.1193 34.6817L55.1361 34.6993L56.5844 33.32ZM62.1844 42.504V40.504C59.4999 40.504 57.1473 39.9198 55.08 38.7893L54.1204 40.544L53.1608 42.2987C55.8721 43.7815 58.8955 44.504 62.1844 44.504V42.504ZM54.1204 40.544L55.1009 38.8008C53.0339 37.6382 51.4079 36.0161 50.2025 33.8986L48.4644 34.888L46.7262 35.8774C48.2836 38.6132 50.4282 40.7618 53.1399 42.2872L54.1204 40.544ZM48.4644 34.888L50.214 33.919C49.0566 31.8293 48.4484 29.3717 48.4484 26.488H46.4484H44.4484C44.4484 29.9509 45.1842 33.0934 46.7148 35.857L48.4644 34.888ZM46.4484 26.488H48.4484C48.4484 23.6135 49.0711 21.1633 50.2585 19.0774L48.5204 18.088L46.7822 17.0986C45.207 19.866 44.4484 23.0159 44.4484 26.488H46.4484ZM48.5204 18.088L50.247 19.0974C51.484 16.9814 53.1402 15.3778 55.2366 14.2489L54.2884 12.488L53.3402 10.7271C50.5832 12.2116 48.394 14.3413 46.7938 17.0786L48.5204 18.088ZM54.2884 12.488L55.2574 14.2376C57.3649 13.0703 59.734 12.472 62.4084 12.472V10.472V8.472C59.1095 8.472 56.0652 9.21767 53.3194 10.7384L54.2884 12.488ZM62.4084 10.472V12.472C65.0828 12.472 67.4518 13.0703 69.5594 14.2376L70.5284 12.488L71.4974 10.7384C68.7516 9.21767 65.7073 8.472 62.4084 8.472V10.472ZM70.5284 12.488L69.5802 14.2489C71.6718 15.3752 73.304 16.9724 74.5023 19.0774L76.2404 18.088L77.9785 17.0986C76.4141 14.3503 74.2383 12.2141 71.4766 10.7271L70.5284 12.488ZM76.2404 18.088L74.5138 19.0974C75.7312 21.1799 76.3684 23.6227 76.3684 26.488H78.3684H80.3684C80.3684 23.0066 79.5869 19.8495 77.967 17.0786L76.2404 18.088ZM78.3684 26.488H76.3684C76.3684 29.3439 75.717 31.7797 74.4694 33.859L76.1844 34.888L77.8994 35.917C79.5638 33.143 80.3684 29.9787 80.3684 26.488H78.3684ZM76.1844 34.888L74.4578 33.8786C73.2225 35.9917 71.5467 37.6187 69.4027 38.7882L70.3604 40.544L71.3181 42.2998C74.102 40.7813 76.309 38.6377 77.911 35.8974L76.1844 34.888ZM70.3604 40.544L69.4122 38.7831C67.3046 39.9179 64.9103 40.504 62.1844 40.504V42.504V44.504C65.5065 44.504 68.5629 43.7834 71.3086 42.3049L70.3604 40.544ZM62.1844 35.672V37.672C63.9339 37.672 65.589 37.2538 67.1181 36.4198L66.1604 34.664L65.2027 32.9082C64.2678 33.4181 63.2722 33.672 62.1844 33.672V35.672ZM66.1604 34.664L67.136 36.4099C68.7633 35.5005 70.0316 34.1665 70.9438 32.479L69.1844 31.528L67.425 30.577C66.8438 31.6521 66.0961 32.4088 65.1847 32.9181L66.1604 34.664ZM69.1844 31.528L70.9438 32.479C71.8842 30.7392 72.3044 28.7141 72.3044 26.488H70.3044H68.3044C68.3044 28.2193 67.9779 29.5541 67.425 30.577L69.1844 31.528ZM70.3044 26.488H72.3044C72.3044 23.1893 71.4207 20.3519 69.3666 18.2978L67.9524 19.712L66.5382 21.1262C67.62 22.2081 68.3044 23.8881 68.3044 26.488H70.3044ZM67.9524 19.712L69.3998 18.3318C67.4875 16.3263 65.0772 15.304 62.2964 15.304V17.304V19.304C63.9955 19.304 65.3559 19.8871 66.5049 21.0921L67.9524 19.712ZM62.2964 17.304V15.304C59.5155 15.304 57.1052 16.3263 55.1929 18.3318L56.6404 19.712L58.0879 21.0921C59.2369 19.8871 60.5972 19.304 62.2964 19.304V17.304ZM56.6404 19.712L55.1921 18.3327C53.2327 20.3901 52.4004 23.2143 52.4004 26.488H54.4004H56.4004C56.4004 23.863 57.0614 22.1699 58.0887 21.0913L56.6404 19.712ZM54.4004 26.488H52.4004C52.4004 29.7529 53.2088 32.5752 55.1029 34.6636L56.5844 33.32L58.0658 31.9764C57.048 30.8541 56.4004 29.1218 56.4004 26.488H54.4004ZM56.5844 33.32L55.1361 34.6993C57.0213 36.6788 59.4183 37.672 62.1844 37.672V35.672V33.672C60.4705 33.672 59.1341 33.0972 58.0327 31.9407L56.5844 33.32ZM132.391 14.056L130.966 15.4589L130.977 15.4703L130.988 15.4815L132.391 14.056ZM135.919 42V44H137.919V42H135.919ZM128.079 42H126.079V44H128.079V42ZM126.231 19.32L124.776 20.692L124.786 20.7026L124.796 20.7129L126.231 19.32ZM116.095 19.32L114.661 17.9264L114.66 17.927L116.095 19.32ZM114.247 42V44H116.247V42H114.247ZM106.407 42H104.407V44H106.407V42ZM104.559 19.32L103.104 20.692L103.114 20.7026L103.124 20.7129L104.559 19.32ZM94.3673 19.32L92.9328 17.9264L92.9322 17.927L94.3673 19.32ZM92.5193 42V44H94.5193V42H92.5193ZM84.6793 42H82.6793V44H84.6793V42ZM84.6793 10.976V8.976H82.6793V10.976H84.6793ZM92.5193 10.976H94.5193V8.976H92.5193V10.976ZM92.5193 14.728H90.5193V20.595L94.1029 15.9496L92.5193 14.728ZM96.3833 11.648L95.5399 9.83455L95.5316 9.83838L95.5234 9.84228L96.3833 11.648ZM108.143 12.096L107.181 13.8492L107.194 13.8565L107.208 13.8636L108.143 12.096ZM112.567 16.464L110.814 17.4265L112.546 20.5811L114.31 17.4445L112.567 16.464ZM116.935 12.152L115.961 10.4053L115.954 10.4093L115.947 10.4134L116.935 12.152ZM123.207 10.528V12.528C126.569 12.528 129.086 13.5483 130.966 15.4589L132.391 14.056L133.817 12.6531C131.068 9.85966 127.462 8.528 123.207 8.528V10.528ZM132.391 14.056L130.988 15.4815C132.863 17.3261 133.919 20.0037 133.919 23.8H135.919H137.919C137.919 19.2336 136.624 15.4152 133.794 12.6305L132.391 14.056ZM135.919 23.8H133.919V42H135.919H137.919V23.8H135.919ZM135.919 42V40H128.079V42V44H135.919V42ZM128.079 42H130.079V24.864H128.079H126.079V42H128.079ZM128.079 24.864H130.079C130.079 22.1141 129.378 19.6903 127.666 17.927L126.231 19.32L124.796 20.7129C125.549 21.4883 126.079 22.7606 126.079 24.864H128.079ZM126.231 19.32L127.687 17.948C126.007 16.1666 123.76 15.36 121.191 15.36V17.36V19.36C122.879 19.36 123.992 19.86 124.776 20.692L126.231 19.32ZM121.191 17.36V15.36C118.621 15.36 116.37 16.1667 114.661 17.9264L116.095 19.32L117.53 20.7136C118.359 19.86 119.505 19.36 121.191 19.36V17.36ZM116.095 19.32L114.66 17.927C112.949 19.6903 112.247 22.1141 112.247 24.864H114.247H116.247C116.247 22.7606 116.778 21.4883 117.53 20.7129L116.095 19.32ZM114.247 24.864H112.247V42H114.247H116.247V24.864H114.247ZM114.247 42V40H106.407V42V44H114.247V42ZM106.407 42H108.407V24.864H106.407H104.407V42H106.407ZM106.407 24.864H108.407C108.407 22.1141 107.706 19.6903 105.994 17.927L104.559 19.32L103.124 20.7129C103.877 21.4883 104.407 22.7606 104.407 24.864H106.407ZM104.559 19.32L106.014 17.948C104.335 16.1666 102.088 15.36 99.5193 15.36V17.36V19.36C101.207 19.36 102.32 19.86 103.104 20.692L104.559 19.32ZM99.5193 17.36V15.36C96.9235 15.36 94.649 16.1597 92.9328 17.9264L94.3673 19.32L95.8019 20.7136C96.6243 19.8669 97.7845 19.36 99.5193 19.36V17.36ZM94.3673 19.32L92.9322 17.927C91.2207 19.6903 90.5193 22.1141 90.5193 24.864H92.5193H94.5193C94.5193 22.7606 95.0499 21.4883 95.8025 20.7129L94.3673 19.32ZM92.5193 24.864H90.5193V42H92.5193H94.5193V24.864H92.5193ZM92.5193 42V40H84.6793V42V44H92.5193V42ZM84.6793 42H86.6793V10.976H84.6793H82.6793V42H84.6793ZM84.6793 10.976V12.976H92.5193V10.976V8.976H84.6793V10.976ZM92.5193 10.976H90.5193V14.728H92.5193H94.5193V10.976H92.5193ZM92.5193 14.728L94.1029 15.9496C94.9088 14.9049 95.9437 14.0725 97.2432 13.4537L96.3833 11.648L95.5234 9.84228C93.687 10.7168 92.1458 11.9378 90.9358 13.5064L92.5193 14.728ZM96.3833 11.648L97.2268 13.4614C98.5484 12.8467 100.012 12.528 101.647 12.528V10.528V8.528C99.4743 8.528 97.4289 8.95591 95.5399 9.83455L96.3833 11.648ZM101.647 10.528V12.528C103.778 12.528 105.605 12.9841 107.181 13.8492L108.143 12.096L109.106 10.3428C106.874 9.11728 104.37 8.528 101.647 8.528V10.528ZM108.143 12.096L107.208 13.8636C108.763 14.6872 109.955 15.8619 110.814 17.4265L112.567 16.464L114.32 15.5015C113.089 13.2581 111.331 11.5208 109.079 10.3284L108.143 12.096ZM112.567 16.464L114.31 17.4445C115.129 15.9898 116.314 14.8059 117.924 13.8906L116.935 12.152L115.947 10.4134C113.748 11.6634 112.022 13.3541 110.824 15.4835L112.567 16.464ZM116.935 12.152L117.909 13.8987C119.551 12.9835 121.306 12.528 123.207 12.528V10.528V8.528C120.629 8.528 118.203 9.15518 115.961 10.4053L116.935 12.152ZM151.759 15.456H149.759V21.7238L153.389 16.6144L151.759 15.456ZM155.903 11.928L156.842 13.6937L156.849 13.6902L156.856 13.6866L155.903 11.928ZM169.175 12.432L168.128 14.1363L168.135 14.1404L168.142 14.1444L169.175 12.432ZM174.271 18.032L172.488 18.9374L172.496 18.9539L172.505 18.9703L174.271 18.032ZM174.271 34.832L172.493 33.9161L172.488 33.9266L174.271 34.832ZM169.175 40.488L168.12 38.7887L168.114 38.7928L168.107 38.797L169.175 40.488ZM155.959 41.104L155.004 42.8612L155.012 42.8655L155.02 42.8697L155.959 41.104ZM151.759 37.576L153.349 36.3627L149.759 31.6586V37.576H151.759ZM151.759 56.784V58.784H153.759V56.784H151.759ZM143.919 56.784H141.919V58.784H143.919V56.784ZM143.919 10.976V8.976H141.919V10.976H143.919ZM151.759 10.976H153.759V8.976H151.759V10.976ZM166.991 21.56L165.232 22.511L165.247 22.5396L165.263 22.5677L166.991 21.56ZM163.967 18.424L162.969 20.1572L162.98 20.1636L162.991 20.1699L163.967 18.424ZM155.903 18.48L156.901 20.2132L156.909 20.2086L156.917 20.2039L155.903 18.48ZM152.879 21.616L151.14 20.6288L151.129 20.6468L151.12 20.665L152.879 21.616ZM152.879 31.36L151.12 32.311L151.129 32.3292L151.14 32.3472L152.879 31.36ZM155.903 34.552L154.866 36.2624L154.897 36.2807L154.927 36.2979L155.903 34.552ZM163.967 34.496L162.953 32.7721L162.942 32.7788L162.93 32.7856L163.967 34.496ZM166.991 31.304L165.252 30.3168L165.241 30.3348L165.232 30.353L166.991 31.304ZM151.759 15.456L153.389 16.6144C154.193 15.483 155.323 14.5019 156.842 13.6937L155.903 11.928L154.964 10.1623C152.974 11.2207 151.341 12.5917 150.129 14.2976L151.759 15.456ZM155.903 11.928L156.856 13.6866C158.322 12.8923 160.023 12.472 162.007 12.472V10.472V8.472C159.437 8.472 157.068 9.02241 154.95 10.1694L155.903 11.928ZM162.007 10.472V12.472C164.312 12.472 166.335 13.035 168.128 14.1363L169.175 12.432L170.222 10.7277C167.759 9.21563 165.003 8.472 162.007 8.472V10.472ZM169.175 12.432L168.142 14.1444C169.962 15.2428 171.412 16.8182 172.488 18.9374L174.271 18.032L176.054 17.1266C174.666 14.3925 172.719 12.2345 170.208 10.7196L169.175 12.432ZM174.271 18.032L172.505 18.9703C173.596 21.0245 174.175 23.4732 174.175 26.376H176.175H178.175C178.175 22.9321 177.485 19.8181 176.037 17.0937L174.271 18.032ZM176.175 26.376H174.175C174.175 29.2771 173.597 31.7739 172.493 33.9161L174.271 34.832L176.049 35.7479C177.484 32.9621 178.175 29.8215 178.175 26.376H176.175ZM174.271 34.832L172.488 33.9266C171.41 36.05 169.953 37.6509 168.12 38.7887L169.175 40.488L170.23 42.1873C172.727 40.6371 174.668 38.4673 176.054 35.7374L174.271 34.832ZM169.175 40.488L168.107 38.797C166.316 39.9282 164.301 40.504 162.007 40.504V42.504V44.504C165.015 44.504 167.778 43.7358 170.243 42.179L169.175 40.488ZM162.007 42.504V40.504C160.009 40.504 158.324 40.0966 156.898 39.3383L155.959 41.104L155.02 42.8697C157.103 43.978 159.45 44.504 162.007 44.504V42.504ZM155.959 41.104L156.914 39.3468C155.42 38.535 154.245 37.5367 153.349 36.3627L151.759 37.576L150.169 38.7893C151.438 40.4526 153.063 41.8063 155.004 42.8612L155.959 41.104ZM151.759 37.576H149.759V56.784H151.759H153.759V37.576H151.759ZM151.759 56.784V54.784H143.919V56.784V58.784H151.759V56.784ZM143.919 56.784H145.919V10.976H143.919H141.919V56.784H143.919ZM143.919 10.976V12.976H151.759V10.976V8.976H143.919V10.976ZM151.759 10.976H149.759V15.456H151.759H153.759V10.976H151.759ZM168.167 26.376H170.167C170.167 24.2261 169.714 22.258 168.719 20.5523L166.991 21.56L165.263 22.5677C165.836 23.55 166.167 24.7926 166.167 26.376H168.167ZM166.991 21.56L168.75 20.609C167.838 18.9214 166.57 17.5875 164.943 16.6781L163.967 18.424L162.991 20.1699C163.903 20.6792 164.65 21.4359 165.232 22.511L166.991 21.56ZM163.967 18.424L164.965 16.6908C163.422 15.8023 161.732 15.36 159.935 15.36V17.36V19.36C161.05 19.36 162.048 19.6271 162.969 20.1572L163.967 18.424ZM159.935 17.36V15.36C158.146 15.36 156.453 15.8359 154.889 16.7561L155.903 18.48L156.917 20.2039C157.891 19.6308 158.887 19.36 159.935 19.36V17.36ZM155.903 18.48L154.905 16.7468C153.329 17.6544 152.079 18.9744 151.14 20.6288L152.879 21.616L154.618 22.6032C155.247 21.495 156.013 20.7243 156.901 20.2132L155.903 18.48ZM152.879 21.616L151.12 20.665C150.188 22.3889 149.759 24.3519 149.759 26.488H151.759H153.759C153.759 24.8908 154.077 23.6057 154.638 22.567L152.879 21.616ZM151.759 26.488H149.759C149.759 28.6241 150.188 30.5871 151.12 32.311L152.879 31.36L154.638 30.409C154.077 29.3703 153.759 28.0852 153.759 26.488H151.759ZM152.879 31.36L151.14 32.3472C152.075 33.9945 153.313 35.3209 154.866 36.2624L155.903 34.552L156.94 32.8416C156.029 32.2897 155.251 31.4882 154.618 30.3728L152.879 31.36ZM155.903 34.552L154.927 36.2979C156.487 37.1695 158.166 37.616 159.935 37.616V35.616V33.616C158.867 33.616 157.858 33.3532 156.879 32.8061L155.903 34.552ZM159.935 35.616V37.616C161.752 37.616 163.456 37.1446 165.004 36.2064L163.967 34.496L162.93 32.7856C162.014 33.3407 161.03 33.616 159.935 33.616V35.616ZM163.967 34.496L164.981 36.2199C166.586 35.276 167.842 33.935 168.75 32.255L166.991 31.304L165.232 30.353C164.646 31.4357 163.887 32.2227 162.953 32.7721L163.967 34.496ZM166.991 31.304L168.73 32.2912C169.716 30.5543 170.167 28.5573 170.167 26.376H168.167H166.167C166.167 28.0027 165.834 29.2911 165.252 30.3168L166.991 31.304ZM182.264 18.032L180.492 17.105L180.486 17.1158L180.481 17.1266L182.264 18.032ZM187.36 12.432L186.327 10.7196L186.32 10.7236L186.314 10.7277L187.36 12.432ZM200.632 11.872L199.677 13.6292L199.685 13.6335L199.693 13.6377L200.632 11.872ZM204.832 15.4L203.222 16.5864L206.832 21.4858V15.4H204.832ZM204.832 10.976V8.976H202.832V10.976H204.832ZM212.728 10.976H214.728V8.976H212.728V10.976ZM212.728 42V44H214.728V42H212.728ZM204.832 42H202.832V44H204.832V42ZM204.832 37.464H206.832V31.0615L203.188 36.3256L204.832 37.464ZM200.632 41.104L201.571 42.8697L201.578 42.8662L201.585 42.8626L200.632 41.104ZM187.36 40.488L186.292 42.179L186.299 42.1832L186.305 42.1873L187.36 40.488ZM182.264 34.832L180.475 35.7264L180.483 35.7428L180.492 35.759L182.264 34.832ZM203.712 21.616L201.953 22.567L201.958 22.5772L201.964 22.5873L203.712 21.616ZM200.688 18.48L199.674 20.2039L199.693 20.2151L199.712 20.2259L200.688 18.48ZM192.568 18.424L191.57 16.6908V16.6908L192.568 18.424ZM189.544 21.56L187.805 20.5728L187.8 20.5807L187.796 20.5887L189.544 21.56ZM189.544 31.304L187.774 32.2355L187.789 32.2636L187.805 32.2912L189.544 31.304ZM192.568 34.496L191.532 36.2064L191.543 36.2132L191.554 36.2199L192.568 34.496ZM200.688 34.552L201.664 36.2979L201.683 36.2871L201.702 36.2759L200.688 34.552ZM203.712 31.416L205.46 32.3873L205.466 32.3772L205.472 32.367L203.712 31.416ZM180.416 26.376H182.416C182.416 23.5066 182.978 21.0436 184.047 18.9374L182.264 18.032L180.481 17.1266C179.086 19.8738 178.416 22.9734 178.416 26.376H180.416ZM182.264 18.032L184.036 18.959C185.155 16.8203 186.616 15.2361 188.407 14.1363L187.36 12.432L186.314 10.7277C183.849 12.2412 181.912 14.3904 180.492 17.105L182.264 18.032ZM187.36 12.432L188.393 14.1444C190.232 13.0351 192.279 12.472 194.584 12.472V10.472V8.472C191.588 8.472 188.819 9.21555 186.327 10.7196L187.36 12.432ZM194.584 10.472V12.472C196.627 12.472 198.303 12.8822 199.677 13.6292L200.632 11.872L201.587 10.1147C199.527 8.99514 197.171 8.472 194.584 8.472V10.472ZM200.632 11.872L199.693 13.6377C201.217 14.4486 202.376 15.4377 203.222 16.5864L204.832 15.4L206.442 14.2136C205.198 12.5249 203.556 11.162 201.571 10.1063L200.632 11.872ZM204.832 15.4H206.832V10.976H204.832H202.832V15.4H204.832ZM204.832 10.976V12.976H212.728V10.976V8.976H204.832V10.976ZM212.728 10.976H210.728V42H212.728H214.728V10.976H212.728ZM212.728 42V40H204.832V42V44H212.728V42ZM204.832 42H206.832V37.464H204.832H202.832V42H204.832ZM204.832 37.464L203.188 36.3256C202.384 37.487 201.237 38.5017 199.68 39.3454L200.632 41.104L201.585 42.8626C203.611 41.765 205.265 40.353 206.477 38.6024L204.832 37.464ZM200.632 41.104L199.693 39.3383C198.272 40.0942 196.569 40.504 194.528 40.504V42.504V44.504C197.116 44.504 199.483 43.9804 201.571 42.8697L200.632 41.104ZM194.528 42.504V40.504C192.278 40.504 190.255 39.931 188.415 38.7887L187.36 40.488L186.305 42.1873C188.796 43.733 191.552 44.504 194.528 44.504V42.504ZM187.36 40.488L188.428 38.797C186.624 37.6576 185.157 36.0478 184.036 33.905L182.264 34.832L180.492 35.759C181.91 38.4696 183.84 40.6304 186.292 42.179L187.36 40.488ZM182.264 34.832L184.053 33.9376C182.98 31.7907 182.416 29.2861 182.416 26.376H180.416H178.416C178.416 29.8126 179.085 32.9453 180.475 35.7264L182.264 34.832ZM204.832 26.488H206.832C206.832 24.3242 206.407 22.3487 205.46 20.6447L203.712 21.616L201.964 22.5873C202.51 23.5713 202.832 24.8438 202.832 26.488H204.832ZM203.712 21.616L205.472 20.665C204.559 18.9774 203.291 17.6435 201.664 16.7341L200.688 18.48L199.712 20.2259C200.624 20.7352 201.372 21.4919 201.953 22.567L203.712 21.616ZM200.688 18.48L201.702 16.7561C200.129 15.8308 198.417 15.36 196.6 15.36V17.36V19.36C197.695 19.36 198.708 19.6358 199.674 20.2039L200.688 18.48ZM196.6 17.36V15.36C194.803 15.36 193.113 15.8023 191.57 16.6908L192.568 18.424L193.566 20.1572C194.487 19.6271 195.486 19.36 196.6 19.36V17.36ZM192.568 18.424L191.57 16.6908C189.994 17.5984 188.744 18.9184 187.805 20.5728L189.544 21.56L191.284 22.5472C191.913 21.439 192.678 20.6683 193.566 20.1572L192.568 18.424ZM189.544 21.56L187.796 20.5887C186.852 22.2872 186.424 24.2418 186.424 26.376H188.424H190.424C190.424 24.7769 190.743 23.5208 191.292 22.5313L189.544 21.56ZM188.424 26.376H186.424C186.424 28.5137 186.853 30.4857 187.774 32.2355L189.544 31.304L191.314 30.3725C190.742 29.2849 190.424 27.9716 190.424 26.376H188.424ZM189.544 31.304L187.805 32.2912C188.74 33.9385 189.978 35.2649 191.532 36.2064L192.568 34.496L193.605 32.7856C192.694 32.2337 191.917 31.4322 191.284 30.3168L189.544 31.304ZM192.568 34.496L191.554 36.2199C193.119 37.1401 194.811 37.616 196.6 37.616V35.616V33.616C195.552 33.616 194.556 33.3452 193.582 32.7721L192.568 34.496ZM196.6 35.616V37.616C198.397 37.616 200.096 37.1741 201.664 36.2979L200.688 34.552L199.712 32.8061C198.742 33.3486 197.715 33.616 196.6 33.616V35.616ZM200.688 34.552L201.702 36.2759C203.293 35.3402 204.548 34.0288 205.46 32.3873L203.712 31.416L201.964 30.4447C201.382 31.4912 200.622 32.2705 199.674 32.8281L200.688 34.552ZM203.712 31.416L205.472 32.367C206.406 30.6376 206.832 28.654 206.832 26.488H204.832H202.832C202.832 28.13 202.511 29.4317 201.953 30.465L203.712 31.416ZM247.097 14.056L245.66 15.4472L245.666 15.453L245.672 15.4587L247.097 14.056ZM250.513 42V44H252.513V42H250.513ZM242.673 42H240.673V44H242.673V42ZM240.825 19.208L239.351 20.5594L239.36 20.5698L239.37 20.58L240.825 19.208ZM230.633 19.208L229.179 17.8348L229.178 17.836L230.633 19.208ZM228.785 42V44H230.785V42H228.785ZM220.945 42H218.945V44H220.945V42ZM220.945 10.976V8.976H218.945V10.976H220.945ZM228.785 10.976H230.785V8.976H228.785V10.976ZM228.785 14.84H226.785V20.6691L230.364 16.0679L228.785 14.84ZM232.761 11.704L233.605 13.5174L233.614 13.5132L233.623 13.509L232.761 11.704ZM238.137 10.528V12.528C241.368 12.528 243.81 13.5361 245.66 15.4472L247.097 14.056L248.534 12.6648C245.83 9.87191 242.298 8.528 238.137 8.528V10.528ZM247.097 14.056L245.672 15.4587C247.483 17.3002 248.513 19.986 248.513 23.8H250.513H252.513C252.513 19.2514 251.266 15.4411 248.523 12.6533L247.097 14.056ZM250.513 23.8H248.513V42H250.513H252.513V23.8H250.513ZM250.513 42V40H242.673V42V44H250.513V42ZM242.673 42H244.673V24.864H242.673H240.673V42H242.673ZM242.673 24.864H244.673C244.673 22.0822 243.975 19.6334 242.28 17.836L240.825 19.208L239.37 20.58C240.139 21.396 240.673 22.7178 240.673 24.864H242.673ZM240.825 19.208L242.3 17.8566C240.625 16.0293 238.371 15.192 235.785 15.192V17.192V19.192C237.455 19.192 238.562 19.6987 239.351 20.5594L240.825 19.208ZM235.785 17.192V15.192C233.172 15.192 230.891 16.0218 229.179 17.8348L230.633 19.208L232.087 20.5812C232.914 19.7062 234.068 19.192 235.785 19.192V17.192ZM230.633 19.208L229.178 17.836C227.483 19.6334 226.785 22.0822 226.785 24.864H228.785H230.785C230.785 22.7178 231.319 21.396 232.088 20.58L230.633 19.208ZM228.785 24.864H226.785V42H228.785H230.785V24.864H228.785ZM228.785 42V40H220.945V42V44H228.785V42ZM220.945 42H222.945V10.976H220.945H218.945V42H220.945ZM220.945 10.976V12.976H228.785V10.976V8.976H220.945V10.976ZM228.785 10.976H226.785V14.84H228.785H230.785V10.976H228.785ZM228.785 14.84L230.364 16.0679C231.206 14.9848 232.276 14.1356 233.605 13.5174L232.761 11.704L231.918 9.89056C230.036 10.7657 228.455 12.0072 227.207 13.6121L228.785 14.84ZM232.761 11.704L233.623 13.509C234.979 12.8618 236.474 12.528 238.137 12.528V10.528V8.528C235.918 8.528 233.829 8.97819 231.9 9.89904L232.761 11.704ZM288.209 10.976L290.052 11.751L291.219 8.976H288.209V10.976ZM269.001 56.672V58.672H270.329L270.844 57.447L269.001 56.672ZM260.657 56.672L258.823 55.8745L257.606 58.672H260.657V56.672ZM267.377 41.216L269.211 42.0135L269.548 41.2378L269.226 40.4555L267.377 41.216ZM254.945 10.976V8.976H251.96L253.095 11.7365L254.945 10.976ZM263.737 10.976L265.613 10.2828L265.13 8.976H263.737V10.976ZM271.745 32.648L269.869 33.3412L271.732 38.383L273.618 33.3497L271.745 32.648ZM279.865 10.976V8.976H278.478L277.992 10.2743L279.865 10.976ZM288.209 10.976L286.365 10.201L267.157 55.897L269.001 56.672L270.844 57.447L290.052 11.751L288.209 10.976ZM269.001 56.672V54.672H260.657V56.672V58.672H269.001V56.672ZM260.657 56.672L262.491 57.4695L269.211 42.0135L267.377 41.216L265.543 40.4185L258.823 55.8745L260.657 56.672ZM267.377 41.216L269.226 40.4555L256.794 10.2155L254.945 10.976L253.095 11.7365L265.527 41.9765L267.377 41.216ZM254.945 10.976V12.976H263.737V10.976V8.976H254.945V10.976ZM263.737 10.976L261.861 11.6692L269.869 33.3412L271.745 32.648L273.621 31.9548L265.613 10.2828L263.737 10.976ZM271.745 32.648L273.618 33.3497L281.738 11.6777L279.865 10.976L277.992 10.2743L269.872 31.9463L271.745 32.648ZM279.865 10.976V12.976H288.209V10.976V8.976H279.865V10.976Z" fill="#ECEDEE" mask="url(#path-1-outside-1_33_267)"/>
</svg>
