<svg width="176" height="61" viewBox="0 0 176 61" fill="none" xmlns="http://www.w3.org/2000/svg">
<mask id="path-1-outside-1_591_3509" maskUnits="userSpaceOnUse" x="0" y="0" width="176" height="61" fill="black">
<rect fill="white" width="176" height="61"/>
<path d="M2.96 24.4C2.96 20.5547 3.81867 17.12 5.536 14.096C7.29067 11.0347 9.66133 8.664 12.648 6.984C15.672 5.26667 19.0507 4.408 22.784 4.408C27.152 4.408 30.9787 5.528 34.264 7.768C37.5493 10.008 39.8453 13.1067 41.152 17.064H32.136C31.24 15.1973 29.9707 13.7973 28.328 12.864C26.7227 11.9307 24.856 11.464 22.728 11.464C20.4507 11.464 18.416 12.0053 16.624 13.088C14.8693 14.1333 13.488 15.6267 12.48 17.568C11.5093 19.5093 11.024 21.7867 11.024 24.4C11.024 26.976 11.5093 29.2533 12.48 31.232C13.488 33.1733 14.8693 34.6853 16.624 35.768C18.416 36.8133 20.4507 37.336 22.728 37.336C24.856 37.336 26.7227 36.8693 28.328 35.936C29.9707 34.9653 31.24 33.5467 32.136 31.68H41.152C39.8453 35.6747 37.5493 38.792 34.264 41.032C31.016 43.2347 27.1893 44.336 22.784 44.336C19.0507 44.336 15.672 43.496 12.648 41.816C9.66133 40.0987 7.29067 37.728 5.536 34.704C3.81867 31.68 2.96 28.2453 2.96 24.4ZM78.0884 12.976L58.8804 58.672H50.5364L57.2564 43.216L44.8244 12.976H53.6164L61.6244 34.648L69.7444 12.976H78.0884ZM90.7146 17.512C91.7226 16.0187 93.104 14.8053 94.8586 13.872C96.6506 12.9387 98.6853 12.472 100.963 12.472C103.613 12.472 106.003 13.1253 108.131 14.432C110.296 15.7387 111.995 17.6053 113.227 20.032C114.496 22.4213 115.131 25.2027 115.131 28.376C115.131 31.5493 114.496 34.368 113.227 36.832C111.995 39.2587 110.296 41.144 108.131 42.488C106.003 43.832 103.613 44.504 100.963 44.504C98.648 44.504 96.6133 44.056 94.8586 43.16C93.1413 42.2267 91.76 41.032 90.7146 39.576V44H82.8746V2.56H90.7146V17.512ZM107.123 28.376C107.123 26.5093 106.731 24.904 105.947 23.56C105.2 22.1787 104.192 21.1333 102.923 20.424C101.691 19.7147 100.347 19.36 98.8906 19.36C97.472 19.36 96.128 19.7333 94.8586 20.48C93.6266 21.1893 92.6186 22.2347 91.8346 23.616C91.088 24.9973 90.7146 26.6213 90.7146 28.488C90.7146 30.3547 91.088 31.9787 91.8346 33.36C92.6186 34.7413 93.6266 35.8053 94.8586 36.552C96.128 37.2613 97.472 37.616 98.8906 37.616C100.347 37.616 101.691 37.2427 102.923 36.496C104.192 35.7493 105.2 34.6853 105.947 33.304C106.731 31.9227 107.123 30.28 107.123 28.376ZM150.228 27.816C150.228 28.936 150.153 29.944 150.004 30.84H127.324C127.51 33.08 128.294 34.8347 129.676 36.104C131.057 37.3733 132.756 38.008 134.772 38.008C137.684 38.008 139.756 36.7573 140.988 34.256H149.444C148.548 37.2427 146.83 39.7067 144.292 41.648C141.753 43.552 138.636 44.504 134.94 44.504C131.953 44.504 129.265 43.8507 126.876 42.544C124.524 41.2 122.676 39.3147 121.332 36.888C120.025 34.4613 119.372 31.6613 119.372 28.488C119.372 25.2773 120.025 22.4587 121.332 20.032C122.638 17.6053 124.468 15.7387 126.82 14.432C129.172 13.1253 131.878 12.472 134.94 12.472C137.889 12.472 140.521 13.1067 142.836 14.376C145.188 15.6453 146.998 17.456 148.268 19.808C149.574 22.1227 150.228 24.792 150.228 27.816ZM142.108 25.576C142.07 23.56 141.342 21.9547 139.924 20.76C138.505 19.528 136.769 18.912 134.716 18.912C132.774 18.912 131.132 19.5093 129.788 20.704C128.481 21.8613 127.678 23.4853 127.38 25.576H142.108ZM164.35 17.792C165.358 16.1493 166.665 14.8613 168.27 13.928C169.913 12.9947 171.78 12.528 173.87 12.528V20.76H171.798C169.334 20.76 167.468 21.3387 166.198 22.496C164.966 23.6533 164.35 25.6693 164.35 28.544V44H156.51V12.976H164.35V17.792Z"/>
</mask>
<path d="M5.536 14.096L3.8008 13.1014L3.79688 13.1083L5.536 14.096ZM12.648 6.984L13.6285 8.72717L13.6357 8.72312L12.648 6.984ZM34.264 7.768L33.1373 9.42045L34.264 7.768ZM41.152 17.064V19.064H43.9186L43.0512 16.4369L41.152 17.064ZM32.136 17.064L30.333 17.9295L30.8775 19.064H32.136V17.064ZM28.328 12.864L27.3228 14.593L27.3313 14.598L27.34 14.6029L28.328 12.864ZM16.624 13.088L17.6476 14.8062L17.6582 14.7998L16.624 13.088ZM12.48 17.568L10.705 16.6464L10.698 16.6599L10.6911 16.6736L12.48 17.568ZM12.48 31.232L10.6844 32.1129L10.6945 32.1334L10.705 32.1536L12.48 31.232ZM16.624 35.768L15.5738 37.4701L15.5949 37.4831L15.6163 37.4956L16.624 35.768ZM28.328 35.936L29.3332 37.665L29.3394 37.6615L29.3455 37.6579L28.328 35.936ZM32.136 31.68V29.68H30.8775L30.333 30.8145L32.136 31.68ZM41.152 31.68L43.0529 32.3018L43.9105 29.68H41.152V31.68ZM34.264 41.032L35.3865 42.6873L35.3907 42.6845L34.264 41.032ZM12.648 41.816L11.6511 43.5498L11.6638 43.5572L11.6767 43.5643L12.648 41.816ZM5.536 34.704L3.79688 35.6916L3.80146 35.6997L3.80612 35.7078L5.536 34.704ZM2.96 24.4H4.96C4.96 20.8634 5.74639 17.7756 7.27512 15.0836L5.536 14.096L3.79688 13.1083C1.89095 16.4644 0.96 20.2459 0.96 24.4H2.96ZM5.536 14.096L7.27118 15.0906C8.85202 12.3325 10.966 10.2248 13.6285 8.72715L12.648 6.984L11.6675 5.24085C8.35668 7.10317 5.72932 9.73682 3.80082 13.1014L5.536 14.096ZM12.648 6.984L13.6357 8.72312C16.3365 7.18931 19.3706 6.408 22.784 6.408V4.408V2.408C18.7307 2.408 15.0075 3.34403 11.6603 5.24488L12.648 6.984ZM22.784 4.408V6.408C26.7914 6.408 30.2167 7.42911 33.1373 9.42045L34.264 7.768L35.3907 6.11554C31.7406 3.62688 27.5126 2.408 22.784 2.408V4.408ZM34.264 7.768L33.1373 9.42045C36.0412 11.4004 38.0769 14.1296 39.2528 17.6911L41.152 17.064L43.0512 16.4369C41.6138 12.0837 39.0575 8.61563 35.3907 6.11554L34.264 7.768ZM41.152 17.064V15.064H32.136V17.064V19.064H41.152V17.064ZM32.136 17.064L33.939 16.1985C32.8844 14.0014 31.347 12.2791 29.316 11.1251L28.328 12.864L27.34 14.6029C28.5943 15.3156 29.5956 16.3933 30.333 17.9295L32.136 17.064ZM28.328 12.864L29.3332 11.135C27.3803 9.99958 25.1568 9.464 22.728 9.464V11.464V13.464C24.5552 13.464 26.065 13.8618 27.3228 14.593L28.328 12.864ZM22.728 11.464V9.464C20.1192 9.464 17.721 10.0886 15.5898 11.3762L16.624 13.088L17.6582 14.7998C19.111 13.9221 20.7821 13.464 22.728 13.464V11.464ZM16.624 13.088L15.6004 11.3698C13.5032 12.6192 11.8718 14.3992 10.705 16.6464L12.48 17.568L14.255 18.4896C15.1042 16.8541 16.2355 15.6475 17.6476 14.8062L16.624 13.088ZM12.48 17.568L10.6911 16.6736C9.55609 18.9437 9.024 21.5388 9.024 24.4H11.024H13.024C13.024 22.0345 13.4626 20.075 14.2689 18.4624L12.48 17.568ZM11.024 24.4H9.024C9.024 27.23 9.55833 29.8174 10.6844 32.1129L12.48 31.232L14.2756 30.3511C13.4603 28.6893 13.024 26.722 13.024 24.4H11.024ZM12.48 31.232L10.705 32.1536C11.8691 34.3955 13.4925 36.1859 15.5738 37.4701L16.624 35.768L17.6742 34.0659C16.2462 33.1848 15.1069 31.9512 14.255 30.3104L12.48 31.232ZM16.624 35.768L15.6163 37.4956C17.7435 38.7364 20.1322 39.336 22.728 39.336V37.336V35.336C20.7692 35.336 19.0885 34.8902 17.6317 34.0404L16.624 35.768ZM22.728 37.336V39.336C25.1568 39.336 27.3803 38.8004 29.3332 37.665L28.328 35.936L27.3228 34.207C26.065 34.9382 24.5552 35.336 22.728 35.336V37.336ZM28.328 35.936L29.3455 37.6579C31.3581 36.4685 32.887 34.7373 33.939 32.5455L32.136 31.68L30.333 30.8145C29.593 32.3561 28.5832 33.4621 27.3105 34.2141L28.328 35.936ZM32.136 31.68V33.68H41.152V31.68V29.68H32.136V31.68ZM41.152 31.68L39.2511 31.0582C38.0733 34.6589 36.0363 37.403 33.1373 39.3795L34.264 41.032L35.3907 42.6845C39.0624 40.181 41.6174 36.6904 43.0529 32.3018L41.152 31.68ZM34.264 41.032L33.1415 39.3767C30.2645 41.3278 26.84 42.336 22.784 42.336V44.336V46.336C27.5387 46.336 31.7675 45.1415 35.3865 42.6873L34.264 41.032ZM22.784 44.336V42.336C19.3628 42.336 16.3229 41.5697 13.6193 40.0677L12.648 41.816L11.6767 43.5643C15.0211 45.4223 18.7385 46.336 22.784 46.336V44.336ZM12.648 41.816L13.6449 40.0822C10.9671 38.5424 8.84722 36.4255 7.26588 33.7002L5.536 34.704L3.80612 35.7078C5.73411 39.0305 8.35559 41.6549 11.6511 43.5498L12.648 41.816ZM5.536 34.704L7.27512 33.7164C5.74639 31.0244 4.96 27.9366 4.96 24.4H2.96H0.96C0.96 28.5541 1.89095 32.3356 3.79688 35.6916L5.536 34.704ZM78.0884 12.976L79.9321 13.751L81.0986 10.976H78.0884V12.976ZM58.8804 58.672V60.672H60.2092L60.7241 59.447L58.8804 58.672ZM50.5364 58.672L48.7022 57.8745L47.486 60.672H50.5364V58.672ZM57.2564 43.216L59.0905 44.0135L59.4278 43.2378L59.1062 42.4555L57.2564 43.216ZM44.8244 12.976V10.976H41.8397L42.9746 13.7365L44.8244 12.976ZM53.6164 12.976L55.4924 12.2828L55.0095 10.976H53.6164V12.976ZM61.6244 34.648L59.7484 35.3412L61.6114 40.383L63.4972 35.3497L61.6244 34.648ZM69.7444 12.976V10.976H68.358L67.8715 12.2743L69.7444 12.976ZM78.0884 12.976L76.2446 12.201L57.0366 57.897L58.8804 58.672L60.7241 59.447L79.9321 13.751L78.0884 12.976ZM58.8804 58.672V56.672H50.5364V58.672V60.672H58.8804V58.672ZM50.5364 58.672L52.3705 59.4695L59.0905 44.0135L57.2564 43.216L55.4222 42.4185L48.7022 57.8745L50.5364 58.672ZM57.2564 43.216L59.1062 42.4555L46.6742 12.2155L44.8244 12.976L42.9746 13.7365L55.4066 43.9765L57.2564 43.216ZM44.8244 12.976V14.976H53.6164V12.976V10.976H44.8244V12.976ZM53.6164 12.976L51.7404 13.6692L59.7484 35.3412L61.6244 34.648L63.5004 33.9548L55.4924 12.2828L53.6164 12.976ZM61.6244 34.648L63.4972 35.3497L71.6172 13.6777L69.7444 12.976L67.8715 12.2743L59.7515 33.9463L61.6244 34.648ZM69.7444 12.976V14.976H78.0884V12.976V10.976H69.7444V12.976ZM90.7146 17.512H88.7146V24.0498L92.3723 18.6309L90.7146 17.512ZM94.8586 13.872L93.9348 12.0982L93.9271 12.1022L93.9194 12.1063L94.8586 13.872ZM108.131 14.432L107.084 16.1363L107.091 16.1404L107.097 16.1444L108.131 14.432ZM113.227 20.032L111.443 20.9374L111.452 20.9539L111.46 20.9703L113.227 20.032ZM113.227 36.832L111.449 35.9161L111.443 35.9266L113.227 36.832ZM108.131 42.488L107.076 40.7887L107.069 40.7928L107.063 40.797L108.131 42.488ZM94.8586 43.16L93.9036 44.9172L93.9262 44.9295L93.9491 44.9412L94.8586 43.16ZM90.7146 39.576L92.3393 38.4096L88.7146 33.361V39.576H90.7146ZM90.7146 44V46H92.7146V44H90.7146ZM82.8746 44H80.8746V46H82.8746V44ZM82.8746 2.56V0.559999H80.8746V2.56H82.8746ZM90.7146 2.56H92.7146V0.559999H90.7146V2.56ZM105.947 23.56L104.187 24.511L104.203 24.5396L104.219 24.5677L105.947 23.56ZM102.923 20.424L101.925 22.1572L101.936 22.1636L101.947 22.1699L102.923 20.424ZM94.8586 20.48L95.8566 22.2132L95.8646 22.2086L95.8727 22.2039L94.8586 20.48ZM91.8346 23.616L90.0953 22.6288L90.0851 22.6468L90.0752 22.665L91.8346 23.616ZM91.8346 33.36L90.0752 34.311L90.0851 34.3292L90.0953 34.3472L91.8346 33.36ZM94.8586 36.552L93.822 38.2624L93.8522 38.2807L93.883 38.2979L94.8586 36.552ZM102.923 36.496L101.909 34.7721L101.897 34.7788L101.886 34.7856L102.923 36.496ZM105.947 33.304L104.207 32.3168L104.197 32.3348L104.187 32.353L105.947 33.304ZM90.7146 17.512L92.3723 18.6309C93.179 17.4358 94.3016 16.4336 95.7979 15.6377L94.8586 13.872L93.9194 12.1063C91.9063 13.177 90.2662 14.6015 89.0569 16.3931L90.7146 17.512ZM94.8586 13.872L95.7825 15.6458C97.2547 14.8791 98.9656 14.472 100.963 14.472V12.472V10.472C98.405 10.472 96.0466 10.9983 93.9348 12.0982L94.8586 13.872ZM100.963 12.472V14.472C103.268 14.472 105.291 15.035 107.084 16.1363L108.131 14.432L109.177 12.7277C106.715 11.2156 103.959 10.472 100.963 10.472V12.472ZM108.131 14.432L107.097 16.1444C108.918 17.2428 110.367 18.8182 111.443 20.9374L113.227 20.032L115.01 19.1266C113.622 16.3925 111.674 14.2345 109.164 12.7196L108.131 14.432ZM113.227 20.032L111.46 20.9703C112.552 23.0245 113.131 25.4732 113.131 28.376H115.131H117.131C117.131 24.9321 116.44 21.8181 114.993 19.0937L113.227 20.032ZM115.131 28.376H113.131C113.131 31.2771 112.552 33.7739 111.449 35.9161L113.227 36.832L115.005 37.7479C116.44 34.9621 117.131 31.8215 117.131 28.376H115.131ZM113.227 36.832L111.443 35.9266C110.365 38.05 108.909 39.6509 107.076 40.7887L108.131 42.488L109.185 44.1873C111.683 42.6371 113.624 40.4673 115.01 37.7374L113.227 36.832ZM108.131 42.488L107.063 40.797C105.272 41.9282 103.256 42.504 100.963 42.504V44.504V46.504C103.97 46.504 106.734 45.7358 109.199 44.179L108.131 42.488ZM100.963 44.504V42.504C98.909 42.504 97.1959 42.1078 95.7682 41.3788L94.8586 43.16L93.9491 44.9412C96.0307 46.0042 98.3869 46.504 100.963 46.504V44.504ZM94.8586 43.16L95.8137 41.4028C94.3369 40.6001 93.1933 39.5991 92.3393 38.4096L90.7146 39.576L89.09 40.7424C90.3266 42.4649 91.9457 43.8532 93.9036 44.9172L94.8586 43.16ZM90.7146 39.576H88.7146V44H90.7146H92.7146V39.576H90.7146ZM90.7146 44V42H82.8746V44V46H90.7146V44ZM82.8746 44H84.8746V2.56H82.8746H80.8746V44H82.8746ZM82.8746 2.56V4.56H90.7146V2.56V0.559999H82.8746V2.56ZM90.7146 2.56H88.7146V17.512H90.7146H92.7146V2.56H90.7146ZM107.123 28.376H109.123C109.123 26.2261 108.669 24.258 107.674 22.5523L105.947 23.56L104.219 24.5677C104.792 25.55 105.123 26.7926 105.123 28.376H107.123ZM105.947 23.56L107.706 22.609C106.794 20.9214 105.526 19.5875 103.898 18.6781L102.923 20.424L101.947 22.1699C102.858 22.6792 103.606 23.4359 104.187 24.511L105.947 23.56ZM102.923 20.424L103.921 18.6908C102.377 17.8023 100.688 17.36 98.8906 17.36V19.36V21.36C100.005 21.36 101.004 21.6271 101.925 22.1572L102.923 20.424ZM98.8906 19.36V17.36C97.1015 17.36 95.409 17.8359 93.8446 18.7561L94.8586 20.48L95.8727 22.2039C96.8469 21.6308 97.8425 21.36 98.8906 21.36V19.36ZM94.8586 20.48L93.8607 18.7468C92.2843 19.6544 91.0343 20.9744 90.0953 22.6288L91.8346 23.616L93.574 24.6032C94.203 23.495 94.969 22.7243 95.8566 22.2132L94.8586 20.48ZM91.8346 23.616L90.0752 22.665C89.1433 24.3889 88.7146 26.3519 88.7146 28.488H90.7146H92.7146C92.7146 26.8908 93.0326 25.6057 93.594 24.567L91.8346 23.616ZM90.7146 28.488H88.7146C88.7146 30.6241 89.1433 32.5871 90.0752 34.311L91.8346 33.36L93.594 32.409C93.0326 31.3703 92.7146 30.0852 92.7146 28.488H90.7146ZM91.8346 33.36L90.0953 34.3472C91.0302 35.9945 92.2686 37.3209 93.822 38.2624L94.8586 36.552L95.8952 34.8416C94.9846 34.2897 94.2071 33.4882 93.574 32.3728L91.8346 33.36ZM94.8586 36.552L93.883 38.2979C95.4427 39.1695 97.1216 39.616 98.8906 39.616V37.616V35.616C97.8223 35.616 96.8132 35.3532 95.8343 34.8061L94.8586 36.552ZM98.8906 37.616V39.616C100.708 39.616 102.411 39.1446 103.959 38.2064L102.923 36.496L101.886 34.7856C100.97 35.3407 99.9852 35.616 98.8906 35.616V37.616ZM102.923 36.496L103.937 38.2199C105.541 37.276 106.798 35.935 107.706 34.255L105.947 33.304L104.187 32.353C103.602 33.4357 102.843 34.2227 101.909 34.7721L102.923 36.496ZM105.947 33.304L107.686 34.2912C108.672 32.5543 109.123 30.5573 109.123 28.376H107.123H105.123C105.123 30.0027 104.789 31.2911 104.207 32.3168L105.947 33.304ZM150.004 30.84V32.84H151.698L151.977 31.1688L150.004 30.84ZM127.324 30.84V28.84H125.15L125.331 31.0061L127.324 30.84ZM129.676 36.104L128.323 37.5767L129.676 36.104ZM140.988 34.256V32.256H139.743L139.194 33.3723L140.988 34.256ZM149.444 34.256L151.359 34.8307L152.132 32.256H149.444V34.256ZM144.292 41.648L145.492 43.248L145.499 43.2424L145.507 43.2367L144.292 41.648ZM126.876 42.544L125.883 44.2805L125.9 44.2898L125.916 44.2987L126.876 42.544ZM121.332 36.888L119.571 37.8362L119.576 37.8466L119.582 37.857L121.332 36.888ZM121.332 20.032L119.571 19.0838L121.332 20.032ZM126.82 14.432L127.791 16.1803V16.1803L126.82 14.432ZM142.836 14.376L141.874 16.1297L141.886 16.136L142.836 14.376ZM148.268 19.808L146.508 20.7579L146.517 20.7746L146.526 20.7912L148.268 19.808ZM142.108 25.576V27.576H144.145L144.107 25.539L142.108 25.576ZM139.924 20.76L138.612 22.2701L138.624 22.28L138.635 22.2898L139.924 20.76ZM129.788 20.704L131.114 22.2012L131.116 22.1988L129.788 20.704ZM127.38 25.576L125.4 25.2932L125.074 27.576H127.38V25.576ZM150.228 27.816H148.228C148.228 28.8501 148.159 29.7455 148.031 30.5112L150.004 30.84L151.977 31.1688C152.148 30.1425 152.228 29.0219 152.228 27.816H150.228ZM150.004 30.84V28.84H127.324V30.84V32.84H150.004V30.84ZM127.324 30.84L125.331 31.0061C125.55 33.6416 126.501 35.9025 128.323 37.5767L129.676 36.104L131.029 34.6313C130.088 33.7668 129.471 32.5184 129.317 30.6739L127.324 30.84ZM129.676 36.104L128.323 37.5767C130.102 39.2118 132.295 40.008 134.772 40.008V38.008V36.008C133.216 36.008 132.012 35.5349 131.029 34.6313L129.676 36.104ZM134.772 38.008V40.008C136.518 40.008 138.137 39.6309 139.543 38.7823C140.954 37.9305 142.023 36.6802 142.782 35.1397L140.988 34.256L139.194 33.3723C138.72 34.3331 138.137 34.9588 137.476 35.3577C136.81 35.7598 135.938 36.008 134.772 36.008V38.008ZM140.988 34.256V36.256H149.444V34.256V32.256H140.988V34.256ZM149.444 34.256L147.528 33.6813C146.756 36.254 145.29 38.3669 143.077 40.0593L144.292 41.648L145.507 43.2367C148.371 41.0464 150.339 38.2313 151.359 34.8307L149.444 34.256ZM144.292 41.648L143.092 40.048C140.954 41.6512 138.277 42.504 134.94 42.504V44.504V46.504C138.995 46.504 142.552 45.4528 145.492 43.248L144.292 41.648ZM134.94 44.504V42.504C132.255 42.504 129.903 41.9198 127.835 40.7893L126.876 42.544L125.916 44.2987C128.628 45.7815 131.651 46.504 134.94 46.504V44.504ZM126.876 42.544L127.868 40.8075C125.842 39.6497 124.252 38.0334 123.081 35.919L121.332 36.888L119.582 37.857C121.099 40.5959 123.206 42.7503 125.883 44.2805L126.876 42.544ZM121.332 36.888L123.093 35.9398C121.965 33.846 121.372 31.3809 121.372 28.488H119.372H117.372C117.372 31.9418 118.085 35.0767 119.571 37.8362L121.332 36.888ZM119.372 28.488H121.372C121.372 25.5535 121.967 23.0707 123.093 20.9802L121.332 20.032L119.571 19.0838C118.083 21.8466 117.372 25.0012 117.372 28.488H119.372ZM121.332 20.032L123.093 20.9802C124.223 18.8816 125.782 17.2965 127.791 16.1803L126.82 14.432L125.848 12.6837C123.154 14.1808 121.054 16.3291 119.571 19.0838L121.332 20.032ZM126.82 14.432L127.791 16.1803C129.807 15.0603 132.171 14.472 134.94 14.472V12.472V10.472C131.586 10.472 128.536 11.1903 125.848 12.6837L126.82 14.432ZM134.94 12.472V14.472C137.593 14.472 139.887 15.0402 141.874 16.1296L142.836 14.376L143.797 12.6224C141.155 11.1731 138.185 10.472 134.94 10.472V12.472ZM142.836 14.376L141.886 16.136C143.895 17.2201 145.424 18.7492 146.508 20.7579L148.268 19.808L150.028 18.8581C148.573 16.1628 146.481 14.0706 143.786 12.616L142.836 14.376ZM148.268 19.808L146.526 20.7912C147.641 22.7665 148.228 25.0883 148.228 27.816H150.228H152.228C152.228 24.4956 151.508 21.4788 150.009 18.8248L148.268 19.808ZM142.108 25.576L144.107 25.539C144.06 23.0027 143.114 20.8315 141.212 19.2302L139.924 20.76L138.635 22.2898C139.571 23.0778 140.08 24.1173 140.108 25.613L142.108 25.576ZM139.924 20.76L141.235 19.2499C139.418 17.6717 137.203 16.912 134.716 16.912V18.912V20.912C136.335 20.912 137.592 21.3843 138.612 22.2701L139.924 20.76ZM134.716 18.912V16.912C132.327 16.912 130.2 17.662 128.459 19.2092L129.788 20.704L131.116 22.1988C132.064 21.3566 133.222 20.912 134.716 20.912V18.912ZM129.788 20.704L128.462 19.2068C126.729 20.7412 125.751 22.8357 125.4 25.2932L127.38 25.576L129.36 25.8588C129.606 24.135 130.233 22.9815 131.114 22.2012L129.788 20.704ZM127.38 25.576V27.576H142.108V25.576V23.576H127.38V25.576ZM164.35 17.792H162.35V24.8752L166.055 18.838L164.35 17.792ZM168.27 13.928L167.282 12.1891L167.274 12.194L167.265 12.199L168.27 13.928ZM173.87 12.528H175.87V10.528H173.87V12.528ZM173.87 20.76V22.76H175.87V20.76H173.87ZM166.198 22.496L164.851 21.0181L164.84 21.0281L164.829 21.0383L166.198 22.496ZM164.35 44V46H166.35V44H164.35ZM156.51 44H154.51V46H156.51V44ZM156.51 12.976V10.976H154.51V12.976H156.51ZM164.35 12.976H166.35V10.976H164.35V12.976ZM164.35 17.792L166.055 18.838C166.897 17.4663 167.967 16.4176 169.275 15.657L168.27 13.928L167.265 12.199C165.363 13.305 163.82 14.8324 162.646 16.746L164.35 17.792ZM168.27 13.928L169.258 15.6669C170.569 14.9225 172.088 14.528 173.87 14.528V12.528V10.528C171.471 10.528 169.257 11.0669 167.282 12.1891L168.27 13.928ZM173.87 12.528H171.87V20.76H173.87H175.87V12.528H173.87ZM173.87 20.76V18.76H171.798V20.76V22.76H173.87V20.76ZM171.798 20.76V18.76C169.051 18.76 166.621 19.4038 164.851 21.0181L166.198 22.496L167.546 23.9739C168.314 23.2735 169.618 22.76 171.798 22.76V20.76ZM166.198 22.496L164.829 21.0383C162.989 22.7669 162.35 25.4832 162.35 28.544H164.35H166.35C166.35 25.8555 166.944 24.5398 167.568 23.9537L166.198 22.496ZM164.35 28.544H162.35V44H164.35H166.35V28.544H164.35ZM164.35 44V42H156.51V44V46H164.35V44ZM156.51 44H158.51V12.976H156.51H154.51V44H156.51ZM156.51 12.976V14.976H164.35V12.976V10.976H156.51V12.976ZM164.35 12.976H162.35V17.792H164.35H166.35V12.976H164.35Z" fill="#ECEDEE" mask="url(#path-1-outside-1_591_3509)"/>
</svg>
