<svg width="127" height="141" viewBox="0 0 127 141" fill="none" xmlns="http://www.w3.org/2000/svg">
<g opacity="0.2">
<path d="M101.73 162V117.556C101.73 115.198 100.793 112.937 99.1261 111.27C97.4591 109.603 95.1982 108.667 92.8407 108.667H66.174C63.8166 108.667 61.5556 109.603 59.8887 111.27C58.2217 112.937 57.2852 115.198 57.2852 117.556V162" stroke="url(#paint0_linear_700_2845)" stroke-width="3" stroke-linecap="round" stroke-linejoin="round"/>
<path d="M17.2738 73.1111V126.444C17.2738 143.209 17.2738 151.582 22.4827 156.791C27.6915 162 36.0649 162 52.8293 162H106.163C122.927 162 131.3 162 136.509 156.791C141.718 151.582 141.718 143.209 141.718 126.444V73.1111M13.9049 15.4667C15.5227 8.99555 16.3315 5.76889 18.7404 3.88444C21.1582 2 24.4915 2 31.1582 2H127.834C134.5 2 137.834 2 140.252 3.88444C142.652 5.76889 143.469 8.99555 145.087 15.4667L155.78 58.2578C156.643 61.7067 157.078 63.4222 156.98 64.8267C156.859 66.5979 156.21 68.292 155.116 69.691C154.023 71.0899 152.536 72.1294 150.847 72.6756C149.514 73.1111 147.7 73.1111 144.065 73.1111C139.327 73.1111 136.954 73.1111 134.972 72.6489C132.223 72.0087 129.667 70.7236 127.514 68.8997C125.361 67.0758 123.673 64.7655 122.589 62.16C121.798 60.2756 121.416 57.9822 120.66 53.4222C120.447 52.1422 120.34 51.5022 120.216 51.3333C120.134 51.2195 120.025 51.1268 119.9 51.0629C119.775 50.999 119.637 50.9657 119.496 50.9657C119.355 50.9657 119.217 50.999 119.092 51.0629C118.967 51.1268 118.858 51.2195 118.776 51.3333C118.652 51.5022 118.545 52.1333 118.332 53.4222L117.612 57.7689L117.452 58.6578C116.692 62.6538 114.585 66.2685 111.483 68.8988C108.38 71.5291 104.469 73.0159 100.403 73.1111H98.5893C94.3657 73.0156 90.3142 71.4191 87.1607 68.6077C84.0073 65.7964 81.9581 61.9539 81.3804 57.7689L80.6604 53.4133C80.4471 52.1422 80.3404 51.5022 80.216 51.3333C80.1336 51.2195 80.0254 51.1268 79.9002 51.0629C79.775 50.999 79.6365 50.9657 79.496 50.9657C79.3555 50.9657 79.2169 50.999 79.0918 51.0629C78.9666 51.1268 78.8584 51.2195 78.776 51.3333C78.6515 51.5022 78.5449 52.1333 78.3315 53.4222L77.6115 57.7689L77.4515 58.6578C76.692 62.6538 74.5852 66.2685 71.4825 68.8988C68.3799 71.5291 64.4691 73.0159 60.4027 73.1111H58.5893C54.5229 73.0159 50.6121 71.5291 47.5094 68.8988C44.4068 66.2685 42.2999 62.6538 41.5404 58.6578L41.3804 57.7689L40.6604 53.4133C40.4471 52.1422 40.3404 51.5022 40.216 51.3333C40.1336 51.2195 40.0254 51.1268 39.9002 51.0629C39.775 50.999 39.6365 50.9657 39.496 50.9657C39.3555 50.9657 39.2169 50.999 39.0918 51.0629C38.9666 51.1268 38.8584 51.2195 38.776 51.3333C38.6515 51.5022 38.5449 52.1333 38.3315 53.4222C37.576 57.9911 37.1938 60.2667 36.4027 62.16C35.3202 64.7645 33.6335 67.0741 31.482 68.8979C29.3305 70.7217 26.7759 72.0075 24.0293 72.6489C22.0382 73.1111 19.6738 73.1111 14.9271 73.1111C11.2915 73.1111 9.47821 73.1111 8.14488 72.6756C6.45563 72.1294 4.96864 71.0899 3.8755 69.691C2.78236 68.292 2.13316 66.5979 2.01155 64.8267C1.92266 63.4222 2.34932 61.7067 3.21155 58.2578L13.9049 15.4667Z" stroke="url(#paint1_linear_700_2845)" stroke-width="3"/>
</g>
<defs>
<linearGradient id="paint0_linear_700_2845" x1="57.2852" y1="135.333" x2="101.73" y2="135.333" gradientUnits="userSpaceOnUse">
<stop stop-color="#A95CEC"/>
<stop offset="1" stop-color="#DA22FF"/>
</linearGradient>
<linearGradient id="paint1_linear_700_2845" x1="2" y1="82" x2="156.994" y2="82" gradientUnits="userSpaceOnUse">
<stop stop-color="#A95CEC"/>
<stop offset="1" stop-color="#DA22FF"/>
</linearGradient>
</defs>
</svg>
