<svg width="109" height="100" viewBox="0 0 109 100" fill="none" xmlns="http://www.w3.org/2000/svg">
<g opacity="0.3">
<path d="M80.7126 46.3571V1H89.7841V46.3571H80.7126ZM98.8555 46.3571V1H107.927V46.3571H98.8555ZM116.998 46.3571V1H126.07V46.3571H116.998ZM62.5698 82.6429C60.1719 82.6987 57.7877 82.2676 55.5613 81.3756C53.3348 80.4836 51.3124 79.1493 49.6165 77.4533C47.9205 75.7573 46.5861 73.735 45.6941 71.5085C44.8022 69.2821 44.3711 66.8978 44.4269 64.5C44.3711 62.1022 44.8022 59.7179 45.6941 57.4915C46.5861 55.265 47.9205 53.2427 49.6165 51.5467C51.3124 49.8507 53.3348 48.5164 55.5613 47.6244C57.7877 46.7324 60.1719 46.3013 62.5698 46.3571V37.2857C57.1873 37.2857 51.9257 38.8818 47.4503 41.8721C42.975 44.8625 39.4868 49.1128 37.427 54.0855C35.3673 59.0583 34.8283 64.5302 35.8784 69.8092C36.9285 75.0883 39.5204 79.9374 43.3264 83.7434C47.1323 87.5494 51.9815 90.1413 57.2605 91.1914C62.5396 92.2414 68.0115 91.7025 72.9842 89.6427C77.957 87.5829 82.2073 84.0948 85.1976 79.6194C88.188 75.1441 89.7841 69.8825 89.7841 64.5H80.7126C80.7685 66.8978 80.3374 69.2821 79.4454 71.5085C78.5534 73.735 77.2191 75.7573 75.5231 77.4533C73.8271 79.1493 71.8047 80.4836 69.5783 81.3756C67.3518 82.2676 64.9676 82.6987 62.5698 82.6429Z" stroke="#F5F6F6" stroke-width="1.5"/>
<path d="M121.04 75.6306L108.362 64.5L102.384 71.3217L115.048 82.4433L104.344 100.985L88.7998 95.7239C85.143 98.7915 80.9766 101.194 76.4899 102.822L73.265 118.929H51.8564L48.636 102.827C44.1814 101.171 40.046 98.7593 36.4123 95.6966L20.7777 100.985L10.0734 82.4433L22.4332 71.5803C21.5851 66.89 21.5744 62.0866 22.4015 57.3925L10.0734 46.5522L20.7777 28.0147L36.3216 33.2761C39.9794 30.2065 44.1474 27.8024 48.636 26.1732L51.8564 10.0714H62.5607V1H51.8564C49.7593 1.00022 47.727 1.72702 46.1054 3.05675C44.4837 4.38648 43.3729 6.23699 42.9619 8.29343L40.6759 19.7189C38.5929 20.7167 36.5818 21.8579 34.657 23.1343L23.6805 19.4195C21.6943 18.7488 19.5372 18.7867 17.5758 19.5268C15.6144 20.2669 13.9699 21.6634 12.9218 23.479L2.21752 42.021C1.16892 43.8366 0.781608 45.9594 1.12147 48.0283C1.46133 50.0973 2.50738 51.9846 4.0817 53.3694L12.8402 61.0665C12.7631 62.2095 12.6678 63.3434 12.6678 64.5C12.6678 65.6702 12.7101 66.8283 12.7948 67.9744L4.08624 75.6306C2.51044 77.0142 1.46266 78.901 1.12113 80.97C0.779609 83.039 1.16544 85.1624 2.21299 86.979L12.9173 105.521C13.9657 107.339 15.6117 108.736 17.5751 109.477C19.5385 110.217 21.6977 110.254 23.6851 109.58L34.725 105.843C36.6271 107.126 38.6154 108.276 40.6759 109.286L42.9573 120.707C43.3685 122.764 44.48 124.615 46.1026 125.945C47.7252 127.274 49.7585 128.001 51.8564 128H73.265C75.3621 128 77.3943 127.273 79.016 125.943C80.6376 124.614 81.7485 122.763 82.1595 120.707L84.4455 109.281C86.5284 108.283 88.5396 107.142 90.4644 105.866L101.436 109.576C103.423 110.248 105.58 110.212 107.543 109.472C109.505 108.733 111.151 107.337 112.2 105.521L122.904 86.979C123.952 85.1634 124.34 83.0406 124 80.9717C123.66 78.9027 122.614 77.0154 121.04 75.6306Z" stroke="#F5F6F6" stroke-width="1.5"/>
</g>
</svg>
