<svg width="115" height="120" viewBox="0 0 115 120" fill="none" xmlns="http://www.w3.org/2000/svg">
<g opacity="0.2">
<path d="M132.972 35.0004H139.954V41.982H132.972V35.0004ZM118.963 41.982H132.972V49.0095H118.963V41.982ZM118.963 28.0188H132.972V35.0004H118.963V28.0188ZM104.954 105V111.982H90.9905V119.009H76.9814V125.991H62.9722V119.009H48.9631V111.982H34.9999V105H20.9907V97.9726H0V105H6.98161V111.982H20.9907V119.009H34.9999V125.991H48.9631V132.973H62.9722V140H76.9814V132.973H90.9905V125.991H104.954V119.009H118.963V111.982H132.972V105H139.954V97.9726H118.963V105H104.954Z" fill="url(#paint0_linear_702_2869)"/>
<path d="M104.954 84.009V90.9906H90.9905V97.9722H76.9814V105H62.9722V97.9722H48.9631V90.9906H34.9999V84.009H20.9907V76.9814H0V84.009H6.98161V90.9906H20.9907V97.9722H34.9999V105H48.9631V111.981H62.9722V119.009H76.9814V111.981H90.9905V105H104.954V97.9722H118.963V90.9906H132.972V84.009H139.954V76.9814H118.963V84.009H104.954Z" fill="url(#paint1_linear_702_2869)"/>
<path d="M104.954 63.0184V70H90.9905V76.9816H76.9814V84.0091H62.9722V76.9816H48.9631V70H34.9999V63.0184H20.9907V55.9909H0V63.0184H6.98161V70H20.9907V76.9816H34.9999V84.0091H48.9631V90.9907H62.9722V97.9724H76.9814V90.9907H90.9905V84.0091H104.954V76.9816H118.963V70H132.972V63.0184H139.954V55.9909H118.963V63.0184H104.954ZM104.954 49.0093H118.963V55.9909H104.954V49.0093ZM104.954 20.991H118.963V28.0185H104.954V20.991Z" fill="url(#paint2_linear_702_2869)"/>
<path d="M90.9905 55.9906H104.954V63.0182H90.9905V55.9906ZM90.9905 14.0091H104.954V20.9907H90.9905V14.0091ZM76.9814 63.0182H90.9905V69.9998H76.9814V63.0182ZM76.9814 7.02754H90.9905V14.0091H76.9814V7.02754ZM62.9722 69.9998H76.9814V76.9814H62.9722V69.9998ZM62.9722 0H76.9814V7.02754H62.9722V0ZM48.9631 63.0182H62.9722V69.9998H48.9631V63.0182ZM48.9631 7.02754H62.9722V14.0091H48.9631V7.02754ZM34.9999 55.9906H48.9631V63.0182H34.9999V55.9906ZM34.9999 14.0091H48.9631V20.9907H34.9999V14.0091ZM20.9907 49.009H34.9999V55.9906H20.9907V49.009ZM20.9907 20.9907H34.9999V28.0183H20.9907V20.9907ZM6.98161 41.9815H20.9907V49.009H6.98161V41.9815ZM6.98161 28.0183H20.9907V34.9999H6.98161V28.0183ZM0 34.9999H6.98161V41.9815H0V34.9999Z" fill="url(#paint3_linear_702_2869)"/>
</g>
<defs>
<linearGradient id="paint0_linear_702_2869" x1="0" y1="84.0094" x2="139.954" y2="84.0094" gradientUnits="userSpaceOnUse">
<stop stop-color="#A95CEC"/>
<stop offset="1" stop-color="#DA22FF"/>
</linearGradient>
<linearGradient id="paint1_linear_702_2869" x1="0" y1="97.9952" x2="139.954" y2="97.9952" gradientUnits="userSpaceOnUse">
<stop stop-color="#A95CEC"/>
<stop offset="1" stop-color="#DA22FF"/>
</linearGradient>
<linearGradient id="paint2_linear_702_2869" x1="0" y1="59.4817" x2="139.954" y2="59.4817" gradientUnits="userSpaceOnUse">
<stop stop-color="#A95CEC"/>
<stop offset="1" stop-color="#DA22FF"/>
</linearGradient>
<linearGradient id="paint3_linear_702_2869" x1="0" y1="38.4907" x2="104.954" y2="38.4907" gradientUnits="userSpaceOnUse">
<stop stop-color="#A95CEC"/>
<stop offset="1" stop-color="#DA22FF"/>
</linearGradient>
</defs>
</svg>
