<svg width="111" height="113" viewBox="0 0 111 113" fill="none" xmlns="http://www.w3.org/2000/svg">
<g opacity="0.2">
<mask id="path-1-inside-1_700_2859" fill="white">
<path d="M138.512 65.8255C139.002 65.3217 139.386 64.7247 139.641 64.0699C139.896 63.415 140.018 62.7157 139.998 62.0132C139.512 45.952 132.915 30.6818 121.553 19.3197C110.191 7.95755 94.9208 1.3604 78.8597 0.874969C78.1566 0.85434 77.4565 0.975037 76.8009 1.22992C76.1453 1.4848 75.5476 1.8687 75.0431 2.35884C74.5386 2.84898 74.1376 3.43539 73.8638 4.08334C73.5901 4.73129 73.4492 5.4276 73.4495 6.131V62.1673C73.4495 63.5613 74.0033 64.8982 74.989 65.8839C75.9747 66.8696 77.3116 67.4234 78.7055 67.4234H134.742C135.445 67.4229 136.141 67.2812 136.789 67.0067C137.437 66.7323 138.023 66.3306 138.512 65.8255ZM129.051 56.9113H83.9616V11.8215C95.3785 13.3609 105.974 18.6067 114.12 26.7527C122.266 34.8988 127.512 45.4944 129.051 56.9113ZM120.649 77.9354C121.379 77.9354 122.1 78.0874 122.768 78.3817C123.436 78.676 124.035 79.1062 124.528 79.6448C125.02 80.1834 125.395 80.8187 125.629 81.5101C125.862 82.2016 125.949 82.9341 125.884 83.661C124.795 95.5914 120.33 106.965 113.013 116.451C105.696 125.936 95.8291 133.142 84.5663 137.225C73.3034 141.307 61.1108 142.098 49.415 139.504C37.7193 136.91 27.0042 131.038 18.5236 122.577C10.043 114.115 4.14761 103.413 1.52727 91.7233C-1.09309 80.0334 -0.330032 67.8391 3.72719 56.567C7.78439 45.295 14.9679 35.4116 24.4373 28.0733C33.9066 20.7349 45.27 16.2451 57.1978 15.1293C57.9258 15.0621 58.6599 15.1474 59.353 15.38C60.0462 15.6125 60.6832 15.987 61.2234 16.4797C61.7635 16.9724 62.195 17.5724 62.4901 18.2412C62.7853 18.9101 62.9376 19.6332 62.9374 20.3643V62.1673C62.9374 66.3493 64.5987 70.36 67.5558 73.3171C70.5129 76.2742 74.5236 77.9354 78.7055 77.9354H120.649ZM63.0776 130.496C75.1944 130.498 86.9399 126.314 96.3263 118.652C105.713 110.99 112.163 100.319 114.587 88.4475H78.7126C71.7426 88.4475 65.0582 85.6787 60.1297 80.7502C55.2012 75.8217 52.4324 69.1373 52.4324 62.1673V26.4543C39.6783 29.0795 28.3527 36.3456 20.6502 46.8446C12.9476 57.3436 9.41653 70.328 10.7411 83.2819C12.0656 96.2358 18.1515 108.237 27.8195 116.96C37.4874 125.683 50.0491 130.506 63.0706 130.496"/>
</mask>
<path d="M138.512 65.8255L137.435 64.7815L137.437 64.7798L138.512 65.8255ZM139.998 62.0132L141.497 61.9678L141.497 61.9709L139.998 62.0132ZM78.8597 0.874969L78.9037 -0.62439L78.905 -0.624344L78.8597 0.874969ZM73.4495 6.131L74.9495 6.13036V6.131H73.4495ZM134.742 67.4234L134.743 68.9234H134.742V67.4234ZM129.051 56.9113L130.538 56.7109L130.767 58.4113H129.051V56.9113ZM83.9616 56.9113V58.4113H82.4616V56.9113H83.9616ZM83.9616 11.8215H82.4616V10.1057L84.162 10.335L83.9616 11.8215ZM120.649 77.9354V76.4354H120.649L120.649 77.9354ZM125.884 83.661L127.378 83.795L127.377 83.7974L125.884 83.661ZM57.1978 15.1293L57.0581 13.6359L57.0598 13.6357L57.1978 15.1293ZM62.9374 20.3643H61.4374V20.364L62.9374 20.3643ZM114.587 88.4475V86.9475H116.424L116.056 88.7475L114.587 88.4475ZM52.4324 26.4543L52.13 24.9851L53.9324 24.6141V26.4543H52.4324ZM10.7411 83.2819L12.2333 83.1293L10.7411 83.2819ZM138.512 65.8255L137.437 64.7798C137.787 64.4198 138.061 63.9931 138.244 63.5252L139.641 64.0699L141.039 64.6145C140.711 65.4562 140.217 66.2236 139.588 66.8713L138.512 65.8255ZM139.641 64.0699L138.244 63.5252C138.426 63.0572 138.513 62.5575 138.499 62.0555L139.998 62.0132L141.497 61.9709C141.523 62.8739 141.367 63.7728 141.039 64.6145L139.641 64.0699ZM139.998 62.0132L138.499 62.0585C138.025 46.3793 131.584 31.4722 120.493 20.3803L121.553 19.3197L122.614 18.259C134.246 29.8913 141 45.5248 141.497 61.9678L139.998 62.0132ZM121.553 19.3197L120.493 20.3803C109.401 9.28844 94.4935 2.84818 78.8144 2.37428L78.8597 0.874969L78.905 -0.624344C95.3481 -0.127365 110.982 6.62668 122.614 18.259L121.553 19.3197ZM78.8597 0.874969L78.8157 2.37433C78.3133 2.35957 77.813 2.44583 77.3445 2.62798L76.8009 1.22992L76.2574 -0.168137C77.1001 -0.495758 78 -0.650909 78.9037 -0.62439L78.8597 0.874969ZM76.8009 1.22992L77.3445 2.62798C76.876 2.81012 76.4488 3.08446 76.0883 3.43472L75.0431 2.35884L73.9978 1.28296C74.6463 0.652954 75.4147 0.1595 76.2574 -0.168137L76.8009 1.22992ZM75.0431 2.35884L76.0883 3.43472C75.7278 3.78499 75.4412 4.20404 75.2456 4.66707L73.8638 4.08334L72.4821 3.49962C72.8339 2.66675 73.3493 1.91298 73.9978 1.28296L75.0431 2.35884ZM73.8638 4.08334L75.2456 4.66707C75.05 5.13011 74.9493 5.6277 74.9495 6.13036L73.4495 6.131L71.9495 6.13165C71.9491 5.22751 72.1302 4.33249 72.4821 3.49962L73.8638 4.08334ZM73.4495 6.131H74.9495V62.1673H73.4495H71.9495V6.131H73.4495ZM73.4495 62.1673H74.9495C74.9495 63.1635 75.3452 64.1189 76.0496 64.8233L74.989 65.8839L73.9283 66.9446C72.6613 65.6776 71.9495 63.9592 71.9495 62.1673H73.4495ZM74.989 65.8839L76.0496 64.8233C76.754 65.5276 77.7094 65.9234 78.7055 65.9234V67.4234V68.9234C76.9137 68.9234 75.1953 68.2116 73.9283 66.9446L74.989 65.8839ZM78.7055 67.4234V65.9234H134.742V67.4234V68.9234H78.7055V67.4234ZM134.742 67.4234L134.741 65.9234C135.243 65.923 135.741 65.8218 136.204 65.6256L136.789 67.0067L137.374 68.3878C136.542 68.7406 135.647 68.9227 134.743 68.9234L134.742 67.4234ZM136.789 67.0067L136.204 65.6256C136.667 65.4295 137.085 65.1425 137.435 64.7815L138.512 65.8255L139.589 66.8695C138.96 67.5188 138.207 68.035 137.374 68.3878L136.789 67.0067ZM129.051 56.9113V58.4113H83.9616V56.9113V55.4113H129.051V56.9113ZM83.9616 56.9113H82.4616V11.8215H83.9616H85.4616V56.9113H83.9616ZM83.9616 11.8215L84.162 10.335C95.9046 11.9183 106.802 17.3137 115.181 25.6921L114.12 26.7527L113.06 27.8134C105.146 19.8997 94.8524 14.8035 83.7611 13.3081L83.9616 11.8215ZM114.12 26.7527L115.181 25.6921C123.559 34.0705 128.955 44.9683 130.538 56.7109L129.051 56.9113L127.565 57.1117C126.069 46.0204 120.973 35.7271 113.06 27.8134L114.12 26.7527ZM120.649 77.9354L120.649 76.4354C121.587 76.4354 122.515 76.6308 123.373 77.0091L122.768 78.3817L122.163 79.7544C121.686 79.5441 121.17 79.4354 120.649 79.4354L120.649 77.9354ZM122.768 78.3817L123.373 77.0091C124.231 77.3874 125.002 77.9403 125.635 78.6326L124.528 79.6448L123.421 80.657C123.069 80.2721 122.641 79.9647 122.163 79.7544L122.768 78.3817ZM124.528 79.6448L125.635 78.6326C126.268 79.3249 126.75 80.1415 127.05 81.0303L125.629 81.5101L124.207 81.99C124.041 81.4958 123.773 81.0419 123.421 80.657L124.528 79.6448ZM125.629 81.5101L127.05 81.0303C127.35 81.9191 127.462 82.8607 127.378 83.795L125.884 83.661L124.39 83.527C124.436 83.0076 124.374 82.4841 124.207 81.99L125.629 81.5101ZM125.884 83.661L127.377 83.7974C126.263 96.0115 121.692 107.655 114.201 117.367L113.013 116.451L111.826 115.534C118.969 106.274 123.327 95.1713 124.39 83.5247L125.884 83.661ZM113.013 116.451L114.201 117.367C106.71 127.078 96.6082 134.455 85.0774 138.635L84.5663 137.225L84.0551 135.814C95.0501 131.829 104.683 124.795 111.826 115.534L113.013 116.451ZM84.5663 137.225L85.0774 138.635C73.5467 142.814 61.0641 143.624 49.0902 140.968L49.415 139.504L49.7398 138.039C61.1574 140.572 73.0601 139.8 84.0551 135.814L84.5663 137.225ZM49.415 139.504L49.0902 140.968C37.1164 138.312 26.1465 132.301 17.4642 123.638L18.5236 122.577L19.5831 121.515C27.862 129.775 38.3223 135.507 49.7398 138.039L49.415 139.504ZM18.5236 122.577L17.4642 123.638C8.78185 114.976 2.74626 104.019 0.0635834 92.0514L1.52727 91.7233L2.99094 91.3952C5.54898 102.807 11.3042 113.254 19.5831 121.515L18.5236 122.577ZM1.52727 91.7233L0.0635834 92.0514C-2.61909 80.0835 -1.83788 67.5991 2.31583 56.059L3.72719 56.567L5.13853 57.075C1.17783 68.079 0.432907 79.9833 2.99094 91.3952L1.52727 91.7233ZM3.72719 56.567L2.31583 56.059C6.46953 44.519 13.8239 34.4005 23.5184 26.8876L24.4373 28.0733L25.3561 29.2589C16.112 36.4227 9.09926 46.0711 5.13853 57.075L3.72719 56.567ZM24.4373 28.0733L23.5184 26.8876C33.2129 19.3747 44.8466 14.7782 57.0581 13.6359L57.1978 15.1293L57.3376 16.6228C45.6934 17.7121 34.6002 22.0951 25.3561 29.2589L24.4373 28.0733ZM57.1978 15.1293L57.0598 13.6357C57.9956 13.5492 58.9391 13.659 59.8301 13.9578L59.353 15.38L58.876 16.8021C58.3806 16.6359 57.8561 16.5749 57.3358 16.623L57.1978 15.1293ZM59.353 15.38L59.8301 13.9578C60.7211 14.2567 61.5399 14.7382 62.2342 15.3715L61.2234 16.4797L60.2125 17.588C59.8265 17.2359 59.3713 16.9682 58.876 16.8021L59.353 15.38ZM61.2234 16.4797L62.2342 15.3715C62.9285 16.0048 63.4831 16.7759 63.8625 17.6357L62.4901 18.2412L61.1178 18.8468C60.9069 18.3688 60.5985 17.9401 60.2125 17.588L61.2234 16.4797ZM62.4901 18.2412L63.8625 17.6357C64.2418 18.4955 64.4377 19.4249 64.4374 20.3647L62.9374 20.3643L61.4374 20.364C61.4376 19.8415 61.3287 19.3248 61.1178 18.8468L62.4901 18.2412ZM62.9374 20.3643H64.4374V62.1673H62.9374H61.4374V20.3643H62.9374ZM62.9374 62.1673H64.4374C64.4374 65.9515 65.9407 69.5806 68.6165 72.2564L67.5558 73.3171L66.4951 74.3777C63.2568 71.1393 61.4374 66.7471 61.4374 62.1673H62.9374ZM67.5558 73.3171L68.6165 72.2564C71.2923 74.9322 74.9214 76.4354 78.7055 76.4354V77.9354V79.4354C74.1258 79.4354 69.7335 77.6161 66.4951 74.3777L67.5558 73.3171ZM78.7055 77.9354V76.4354H120.649V77.9354V79.4354H78.7055V77.9354ZM63.0776 130.496L63.0779 128.996C74.8489 128.998 86.2592 124.934 95.3777 117.49L96.3263 118.652L97.2748 119.814C87.6206 127.695 75.5399 131.998 63.0773 131.996L63.0776 130.496ZM96.3263 118.652L95.3777 117.49C104.496 110.046 110.763 99.6807 113.117 88.1475L114.587 88.4475L116.056 88.7475C113.564 100.958 106.929 111.933 97.2748 119.814L96.3263 118.652ZM114.587 88.4475V89.9475H78.7126V88.4475V86.9475H114.587V88.4475ZM78.7126 88.4475V89.9475C71.3448 89.9475 64.2788 87.0207 59.069 81.8109L60.1297 80.7502L61.1903 79.6896C65.8375 84.3368 72.1404 86.9475 78.7126 86.9475V88.4475ZM60.1297 80.7502L59.069 81.8109C53.8592 76.6011 50.9324 69.5351 50.9324 62.1673H52.4324H53.9324C53.9324 68.7394 56.5431 75.0424 61.1903 79.6896L60.1297 80.7502ZM52.4324 62.1673H50.9324V26.4543H52.4324H53.9324V62.1673H52.4324ZM52.4324 26.4543L52.7348 27.9235C40.3447 30.4738 29.3423 37.5325 21.8596 47.7318L20.6502 46.8446L19.4408 45.9573C27.3631 35.1586 39.0119 27.6852 52.13 24.9851L52.4324 26.4543ZM20.6502 46.8446L21.8596 47.7318C14.3769 57.9312 10.9465 70.5451 12.2333 83.1293L10.7411 83.2819L9.24886 83.4344C7.88652 70.1109 11.5184 56.7559 19.4408 45.9573L20.6502 46.8446ZM10.7411 83.2819L12.2333 83.1293C13.52 95.7135 19.4322 107.372 28.8243 115.846L27.8195 116.96L26.8146 118.073C16.8707 109.102 10.6112 96.758 9.24886 83.4344L10.7411 83.2819ZM27.8195 116.96L28.8243 115.846C38.2163 124.32 50.4196 129.006 63.0694 128.996L63.0706 130.496L63.0718 131.996C49.6787 132.006 36.7585 127.045 26.8146 118.073L27.8195 116.96Z" fill="url(#paint0_linear_700_2859)" mask="url(#path-1-inside-1_700_2859)"/>
</g>
<defs>
<linearGradient id="paint0_linear_700_2859" x1="70" y1="141" x2="70" y2="0.872711" gradientUnits="userSpaceOnUse">
<stop stop-color="#A95CEC"/>
<stop offset="1" stop-color="#DA22FF"/>
</linearGradient>
</defs>
</svg>
