<svg width="50" height="50" viewBox="0 0 50 50" fill="none" xmlns="http://www.w3.org/2000/svg">
<circle cx="25" cy="25" r="24" stroke="#DC1414" stroke-width="1.5"/>
<path d="M30.3545 13.5C30.672 13.5 30.9322 13.608 31.1621 13.8379C31.3972 14.073 31.5 14.3245 31.5 14.6133C31.4999 14.902 31.3971 15.1536 31.1621 15.3887L21.3252 25.2256L21.6787 25.5791L31.1621 35.0635C31.3659 35.2672 31.4678 35.5093 31.4678 35.8223C31.4677 36.1259 31.3622 36.382 31.1299 36.6143C30.8948 36.8492 30.6432 36.9512 30.3545 36.9512C30.0658 36.9511 29.8141 36.8493 29.5791 36.6143V36.6133L18.708 25.7754C18.6244 25.6917 18.5779 25.6138 18.5527 25.543L18.5518 25.54L18.5137 25.3926C18.5049 25.3404 18.5 25.2848 18.5 25.2256C18.5 25.107 18.5186 25.0033 18.5518 24.9111L18.6084 24.7979C18.6337 24.7589 18.6659 24.7179 18.708 24.6758L29.5791 13.8047C29.7802 13.6037 30.0268 13.5001 30.3545 13.5Z" fill="#FF5C5C" stroke="#DC1414"/>
</svg>
