<svg width="50" height="50" viewBox="0 0 50 50" fill="none" xmlns="http://www.w3.org/2000/svg">
<circle cx="24" cy="24" r="24" transform="matrix(-1 0 0 1 49 1)" stroke="#DC1414" stroke-width="1.5"/>
<path d="M19.6455 13.5C19.328 13.5 19.0678 13.608 18.8379 13.8379C18.6028 14.073 18.5 14.3245 18.5 14.6133C18.5001 14.902 18.6029 15.1536 18.8379 15.3887L28.6748 25.2256L28.3213 25.5791L18.8379 35.0635C18.6341 35.2672 18.5322 35.5093 18.5322 35.8223C18.5323 36.1259 18.6378 36.382 18.8701 36.6143C19.1052 36.8492 19.3568 36.9512 19.6455 36.9512C19.9342 36.9511 20.1859 36.8493 20.4209 36.6143V36.6133L31.292 25.7754C31.3756 25.6917 31.4221 25.6138 31.4473 25.543L31.4482 25.54L31.4863 25.3926C31.4951 25.3404 31.5 25.2848 31.5 25.2256C31.5 25.107 31.4814 25.0033 31.4482 24.9111L31.3916 24.7979C31.3663 24.7589 31.3341 24.7179 31.292 24.6758L20.4209 13.8047C20.2198 13.6037 19.9732 13.5001 19.6455 13.5Z" fill="#FF5C5C" stroke="#DC1414"/>
</svg>
