<svg width="132" height="22" viewBox="0 0 132 22" fill="none" xmlns="http://www.w3.org/2000/svg">
<g clip-path="url(#clip0_2236_2151)">
<path d="M18.318 9.27459L9.687 14.1336L0.445 8.94159L0 9.18159V12.9516L9.687 18.3826L18.317 13.5426V15.5376L9.687 20.3976L0.445 15.2056L0 15.4456V16.0916L9.687 21.5236L19.355 16.0916V12.3226L18.91 12.0826L9.687 17.2556L1.037 12.4156V10.4196L9.687 15.2596L19.355 9.82959V6.11359L18.873 5.83659L9.687 10.9916L1.482 6.40959L9.687 1.80959L16.428 5.59659L17.021 5.26459V4.80259L9.687 0.683594L0 6.11459V6.70659L9.687 12.1386L18.317 7.27859L18.318 9.27459Z" fill="#EE3D2C"/>
<path d="M37.4474 18.4426V1.85156H34.8914V8.05856C34.8914 8.15156 34.8354 8.22556 34.7434 8.26256C34.7022 8.27696 34.6578 8.27934 34.6153 8.26942C34.5728 8.2595 34.534 8.2377 34.5034 8.20656C33.6324 7.19056 32.2804 6.61756 30.7984 6.61756C27.6314 6.61756 25.1484 9.27756 25.1484 12.6776C25.1484 14.3406 25.7234 15.8746 26.7784 17.0016C27.2917 17.5537 27.914 17.9931 28.6061 18.2919C29.2981 18.5907 30.0447 18.7425 30.7984 18.7376C32.2614 18.7376 33.6134 18.1276 34.5024 17.0756C34.5584 17.0016 34.6694 16.9826 34.7424 17.0016C34.8354 17.0386 34.8924 17.1116 34.8924 17.2046V18.4426H37.4474ZM31.3544 16.4286C29.3164 16.4286 27.7244 14.7846 27.7244 12.6786C27.7244 10.5716 29.3164 8.92756 31.3544 8.92756C33.3924 8.92756 34.9844 10.5716 34.9844 12.6776C34.9844 14.7836 33.3914 16.4276 31.3544 16.4276M51.1164 18.4436V6.89556H48.5794V8.05956C48.5794 8.15256 48.5234 8.22556 48.4304 8.26256C48.3881 8.2796 48.3412 8.28165 48.2976 8.26837C48.2539 8.25509 48.2161 8.22728 48.1904 8.18956C47.3384 7.17256 46.0044 6.59956 44.4854 6.59956C41.3184 6.59956 38.8364 9.26056 38.8364 12.6596C38.8364 16.0596 41.3184 18.7196 44.4864 18.7196C45.9494 18.7196 47.3014 18.1096 48.1904 17.0396C48.2454 16.9646 48.3564 16.9466 48.4304 16.9646C48.5234 17.0016 48.5794 17.0756 48.5794 17.1686V18.4246H51.1164V18.4436ZM45.0604 16.4296C43.0224 16.4296 41.4304 14.7846 41.4304 12.6796C41.4304 10.5726 43.0224 8.92856 45.0604 8.92856C47.0984 8.92856 48.6904 10.5726 48.6904 12.6786C48.6904 14.7846 47.0974 16.4296 45.0604 16.4296ZM72.8414 18.4436V6.89556H70.3034V8.05956C70.3034 8.15256 70.2484 8.22556 70.1554 8.26256C70.0624 8.29956 69.9704 8.26256 69.9154 8.18956C69.0624 7.17256 67.7294 6.59956 66.2104 6.59956C63.0244 6.59956 60.5614 9.26056 60.5614 12.6796C60.5614 16.0966 63.0434 18.7396 66.2104 18.7396C67.6734 18.7396 69.0254 18.1296 69.9144 17.0576C69.9704 16.9836 70.0814 16.9646 70.1554 16.9836C70.2484 17.0206 70.3034 17.0936 70.3034 17.1866V18.4426L72.8414 18.4436ZM66.7844 16.4296C64.7474 16.4296 63.1544 14.7846 63.1544 12.6796C63.1544 10.5726 64.7474 8.92856 66.7844 8.92856C68.8214 8.92856 70.4144 10.5726 70.4144 12.6786C70.4144 14.7846 68.8214 16.4296 66.7844 16.4296ZM77.4904 17.0756C77.5094 17.0756 77.5464 17.0566 77.5644 17.0566C77.6204 17.0566 77.6944 17.0936 77.7314 17.1306C78.6014 18.1466 79.9534 18.7196 81.4354 18.7196C84.6024 18.7196 87.0854 16.0596 87.0854 12.6596C87.0854 10.9966 86.5104 9.46356 85.4554 8.33656C84.9423 7.78429 84.32 7.3447 83.6279 7.04569C82.9359 6.74667 82.1893 6.59475 81.4354 6.59956C79.9724 6.59956 78.6204 7.20956 77.7314 8.26256C77.6754 8.33656 77.5834 8.35456 77.4914 8.33656C77.3984 8.29956 77.3424 8.22556 77.3424 8.13256V1.85156H74.7864V18.4416H77.3424V17.2796C77.3424 17.1866 77.3984 17.1126 77.4904 17.0756ZM77.2304 12.6786C77.2304 10.5726 78.8244 8.92856 80.8614 8.92856C82.8984 8.92856 84.4914 10.5726 84.4914 12.6786C84.4914 14.7846 82.8984 16.4286 80.8614 16.4286C78.8244 16.4286 77.2304 14.7666 77.2304 12.6786ZM94.4754 9.26256C94.7154 9.26256 94.9384 9.28156 95.0854 9.31856V6.69456C94.9451 6.66964 94.8029 6.65726 94.6604 6.65756C93.3264 6.65756 92.1044 7.34156 91.4564 8.43156C91.4004 8.52356 91.3074 8.56156 91.2154 8.52356C91.1695 8.51221 91.1284 8.48632 91.0983 8.44975C91.0682 8.41317 91.0507 8.36787 91.0484 8.32056V6.89756H88.5114V18.4636H91.0674V13.3636C91.0674 10.8336 92.3634 9.26356 94.4754 9.26356M99.2904 6.89656H96.6974V18.4626H99.2904V6.89656ZM97.9564 1.86956C97.7469 1.86427 97.5383 1.90098 97.3432 1.97753C97.148 2.05408 96.9701 2.16892 96.82 2.31527C96.6699 2.46163 96.5507 2.63655 96.4692 2.82972C96.3878 3.0229 96.3458 3.23042 96.3458 3.44006C96.3458 3.6497 96.3878 3.85723 96.4692 4.0504C96.5507 4.24358 96.6699 4.41849 96.82 4.56485C96.9701 4.71121 97.148 4.82605 97.3432 4.90259C97.5383 4.97914 97.7469 5.01585 97.9564 5.01056C98.1673 5.01809 98.3776 4.98305 98.5746 4.90754C98.7717 4.83203 98.9515 4.7176 99.1033 4.57107C99.2552 4.42454 99.376 4.24891 99.4585 4.05468C99.541 3.86045 99.5835 3.65159 99.5835 3.44056C99.5835 3.22954 99.541 3.02068 99.4585 2.82644C99.376 2.63221 99.2552 2.45659 99.1033 2.31006C98.9515 2.16353 98.7717 2.04909 98.5746 1.97358C98.3776 1.89807 98.1673 1.86303 97.9564 1.87056M106.884 6.59956C103.328 6.59956 100.753 9.14956 100.753 12.6796C100.753 14.3966 101.365 15.9296 102.457 17.0396C103.569 18.1476 105.124 18.7576 106.865 18.7576C108.31 18.7576 109.421 18.4806 111.533 16.9276L110.07 15.3946C109.032 16.0786 108.069 16.4106 107.125 16.4106C104.976 16.4106 103.365 14.8036 103.365 12.6786C103.365 10.5536 104.976 8.94656 107.125 8.94656C108.143 8.94656 109.088 9.27956 110.033 9.96256L111.662 8.42956C109.755 6.80356 108.032 6.59956 106.884 6.59956ZM116.033 13.3616C116.053 13.3427 116.077 13.3281 116.102 13.3186C116.128 13.3092 116.155 13.3051 116.182 13.3066H116.2C116.256 13.3066 116.311 13.3436 116.367 13.3796L120.46 18.4426H123.609L118.312 12.0496C118.237 11.9576 118.237 11.8276 118.33 11.7546L123.201 6.89456H120.071L115.867 11.1076C115.811 11.1626 115.719 11.1816 115.626 11.1626C115.588 11.1441 115.556 11.1153 115.533 11.0795C115.51 11.0436 115.497 11.0021 115.496 10.9596V1.86956H112.922V18.4606H115.478V13.9526C115.478 13.8976 115.496 13.8226 115.552 13.7866L116.033 13.3616Z" fill="white"/>
<path d="M127.777 18.7371C129.87 18.7371 132 17.4621 132 15.0421C132 13.4531 131 12.3621 128.963 11.6981L127.573 11.2361C126.629 10.9221 126.184 10.4781 126.184 9.86913C126.184 9.16713 126.814 8.68612 127.703 8.68612C128.555 8.68612 129.314 9.24113 129.796 10.2011L131.852 9.09313C131.093 7.54113 129.518 6.58012 127.703 6.58012C125.406 6.58012 123.74 8.05813 123.74 10.0721C123.74 11.6791 124.703 12.7511 126.684 13.3791L128.111 13.8411C129.111 14.1551 129.537 14.5611 129.537 15.2081C129.537 16.1881 128.629 16.5381 127.851 16.5381C126.814 16.5381 125.888 15.8731 125.444 14.7831L123.351 15.8921C124.036 17.6471 125.721 18.7371 127.777 18.7371ZM58.2308 18.6261C59.0458 18.6261 59.7688 18.5521 60.1758 18.4961V16.2801C59.7511 16.3239 59.3247 16.3483 58.8978 16.3531C57.8608 16.3531 57.0648 16.1691 57.0648 13.9331V9.18513C57.0648 9.05513 57.1568 8.96313 57.2868 8.96313H59.7868V6.87512H57.2868C57.2574 6.87624 57.2282 6.87129 57.2008 6.8606C57.1734 6.8499 57.1485 6.83368 57.1277 6.81294C57.1069 6.79221 57.0906 6.76741 57.0797 6.74008C57.0689 6.71276 57.0638 6.6835 57.0648 6.65413V3.32812H54.5088V6.67212C54.5088 6.80212 54.4158 6.89412 54.2858 6.89412H52.5078V8.98213H54.2858C54.4158 8.98213 54.5088 9.07412 54.5088 9.20312V14.5801C54.5088 18.6261 57.2128 18.6261 58.2308 18.6261Z" fill="white"/>
</g>
<defs>
<clipPath id="clip0_2236_2151">
<rect width="132" height="22" fill="white"/>
</clipPath>
</defs>
</svg>
