<svg width="54" height="22" viewBox="0 0 54 22" fill="none" xmlns="http://www.w3.org/2000/svg">
<mask id="path-1-outside-1_541_2660" maskUnits="userSpaceOnUse" x="0" y="0" width="54" height="22" fill="black">
<rect fill="white" width="54" height="22"/>
<path d="M4.16922 10.592C2.66522 9.792 1.91322 8.536 1.91322 6.824C1.91322 5.96 2.13722 5.176 2.58522 4.472C3.03322 3.752 3.71322 3.184 4.62522 2.768C5.53722 2.336 6.65722 2.12 7.98522 2.12C9.31322 2.12 10.4252 2.336 11.3212 2.768C12.2332 3.184 12.9132 3.752 13.3612 4.472C13.8092 5.176 14.0332 5.96 14.0332 6.824C14.0332 7.688 13.8252 8.44 13.4092 9.08C13.0092 9.72 12.4652 10.224 11.7772 10.592C12.6412 11.008 13.3052 11.584 13.7692 12.32C14.2332 13.04 14.4652 13.888 14.4652 14.864C14.4652 16 14.1772 16.984 13.6012 17.816C13.0252 18.632 12.2412 19.256 11.2492 19.688C10.2732 20.12 9.18522 20.336 7.98522 20.336C6.78522 20.336 5.68922 20.12 4.69722 19.688C3.72122 19.256 2.94522 18.632 2.36922 17.816C1.79322 16.984 1.50522 16 1.50522 14.864C1.50522 13.872 1.73722 13.016 2.20122 12.296C2.66522 11.56 3.32122 10.992 4.16922 10.592ZM10.0492 7.448C10.0492 6.792 9.85722 6.288 9.47322 5.936C9.10522 5.568 8.60922 5.384 7.98522 5.384C7.36122 5.384 6.85722 5.568 6.47322 5.936C6.10522 6.304 5.92122 6.816 5.92122 7.472C5.92122 8.096 6.11322 8.592 6.49722 8.96C6.88122 9.312 7.37722 9.488 7.98522 9.488C8.59322 9.488 9.08922 9.304 9.47322 8.936C9.85722 8.568 10.0492 8.072 10.0492 7.448ZM7.98522 12.368C7.23322 12.368 6.62522 12.576 6.16122 12.992C5.69722 13.392 5.46522 13.952 5.46522 14.672C5.46522 15.344 5.68922 15.896 6.13722 16.328C6.60122 16.76 7.21722 16.976 7.98522 16.976C8.75322 16.976 9.35322 16.76 9.78522 16.328C10.2332 15.896 10.4572 15.344 10.4572 14.672C10.4572 13.968 10.2252 13.408 9.76122 12.992C9.31322 12.576 8.72122 12.368 7.98522 12.368ZM17.0917 11C17.0917 8.248 17.6197 6.08 18.6757 4.496C19.7477 2.912 21.4677 2.12 23.8357 2.12C26.2037 2.12 27.9157 2.912 28.9717 4.496C30.0437 6.08 30.5797 8.248 30.5797 11C30.5797 13.784 30.0437 15.968 28.9717 17.552C27.9157 19.136 26.2037 19.928 23.8357 19.928C21.4677 19.928 19.7477 19.136 18.6757 17.552C17.6197 15.968 17.0917 13.784 17.0917 11ZM26.5477 11C26.5477 9.384 26.3717 8.144 26.0197 7.28C25.6677 6.4 24.9397 5.96 23.8357 5.96C22.7317 5.96 22.0037 6.4 21.6517 7.28C21.2997 8.144 21.1237 9.384 21.1237 11C21.1237 12.088 21.1877 12.992 21.3157 13.712C21.4437 14.416 21.6997 14.992 22.0837 15.44C22.4837 15.872 23.0677 16.088 23.8357 16.088C24.6037 16.088 25.1797 15.872 25.5637 15.44C25.9637 14.992 26.2277 14.416 26.3557 13.712C26.4837 12.992 26.5477 12.088 26.5477 11ZM32.652 6.896C32.652 5.6 33.02 4.6 33.756 3.896C34.508 3.192 35.476 2.84 36.66 2.84C37.844 2.84 38.804 3.192 39.54 3.896C40.276 4.6 40.644 5.6 40.644 6.896C40.644 8.192 40.276 9.192 39.54 9.896C38.804 10.6 37.844 10.952 36.66 10.952C35.476 10.952 34.508 10.6 33.756 9.896C33.02 9.192 32.652 8.192 32.652 6.896ZM48.948 3.104L39.708 20H35.748L44.988 3.104H48.948ZM36.636 5.24C35.868 5.24 35.484 5.792 35.484 6.896C35.484 7.984 35.868 8.528 36.636 8.528C37.004 8.528 37.292 8.392 37.5 8.12C37.708 7.848 37.812 7.44 37.812 6.896C37.812 5.792 37.42 5.24 36.636 5.24ZM44.076 16.208C44.076 14.912 44.444 13.912 45.18 13.208C45.916 12.504 46.876 12.152 48.06 12.152C49.244 12.152 50.204 12.504 50.94 13.208C51.676 13.912 52.044 14.912 52.044 16.208C52.044 17.504 51.676 18.504 50.94 19.208C50.204 19.912 49.244 20.264 48.06 20.264C46.876 20.264 45.916 19.912 45.18 19.208C44.444 18.504 44.076 17.504 44.076 16.208ZM48.036 14.552C47.668 14.552 47.38 14.688 47.172 14.96C46.98 15.232 46.884 15.648 46.884 16.208C46.884 17.296 47.268 17.84 48.036 17.84C48.404 17.84 48.692 17.704 48.9 17.432C49.108 17.16 49.212 16.752 49.212 16.208C49.212 15.664 49.108 15.256 48.9 14.984C48.692 14.696 48.404 14.552 48.036 14.552Z"/>
</mask>
<path d="M4.16922 10.592L4.80915 11.9486L7.51463 10.6725L4.87364 9.26769L4.16922 10.592ZM2.58522 4.472L3.85071 5.27731L3.85479 5.2709L3.85881 5.26445L2.58522 4.472ZM4.62522 2.768L5.24773 4.13273L5.25757 4.12824L5.26735 4.12361L4.62522 2.768ZM11.3212 2.768L10.6698 4.11915L10.6842 4.12609L10.6987 4.13273L11.3212 2.768ZM13.3612 4.472L12.0876 5.26445L12.0917 5.2709L12.0957 5.27731L13.3612 4.472ZM13.4092 9.08L12.1516 8.26252L12.1443 8.2737L12.1372 8.285L13.4092 9.08ZM11.7772 10.592L11.0697 9.26932L8.46551 10.6623L11.1265 11.9435L11.7772 10.592ZM13.7692 12.32L12.5003 13.12L12.5043 13.1263L12.5084 13.1326L13.7692 12.32ZM13.6012 17.816L14.8267 18.6811L14.8345 18.6698L13.6012 17.816ZM11.2492 19.688L10.6503 18.3127L10.6421 18.3164L11.2492 19.688ZM4.69722 19.688L4.09009 21.0597L4.09832 21.0633L4.69722 19.688ZM2.36922 17.816L1.13588 18.6699L1.14377 18.681L2.36922 17.816ZM2.20122 12.296L3.46208 13.1086L3.46613 13.1023L3.47011 13.096L2.20122 12.296ZM9.47322 5.936L8.41256 6.99666L8.43561 7.01971L8.45963 7.04173L9.47322 5.936ZM6.47322 5.936L5.43536 4.85302L5.42384 4.86406L5.41256 4.87534L6.47322 5.936ZM6.49722 8.96L5.45936 10.043L5.47137 10.0545L5.48363 10.0657L6.49722 8.96ZM9.47322 8.936L8.43536 7.85302V7.85302L9.47322 8.936ZM6.16122 12.992L7.14063 14.1281L7.15168 14.1186L7.16254 14.1089L6.16122 12.992ZM6.13722 16.328L5.09602 17.4078L5.10548 17.4169L5.11509 17.4258L6.13722 16.328ZM9.78522 16.328L8.74402 15.2482L8.7342 15.2577L8.72456 15.2673L9.78522 16.328ZM9.76122 12.992L8.74055 14.0912L8.75015 14.1001L8.7599 14.1089L9.76122 12.992ZM4.16922 10.592L4.87364 9.26769C4.32258 8.97457 3.97841 8.63727 3.76418 8.27946C3.54971 7.92125 3.41322 7.45516 3.41322 6.824H1.91322H0.413219C0.413219 7.90483 0.652733 8.92275 1.19026 9.82054C1.72803 10.7187 2.51186 11.4094 3.4648 11.9163L4.16922 10.592ZM1.91322 6.824H3.41322C3.41322 6.23463 3.56149 5.73181 3.85071 5.27731L2.58522 4.472L1.31973 3.66669C0.712955 4.62019 0.413219 5.68537 0.413219 6.824H1.91322ZM2.58522 4.472L3.85881 5.26445C4.1242 4.83792 4.5545 4.44894 5.24773 4.13273L4.62522 2.768L4.00271 1.40327C2.87194 1.91906 1.94224 2.66608 1.31164 3.67955L2.58522 4.472ZM4.62522 2.768L5.26735 4.12361C5.9257 3.81175 6.81217 3.62 7.98522 3.62V2.12V0.619998C6.50227 0.619998 5.14874 0.860242 3.98309 1.41239L4.62522 2.768ZM7.98522 2.12V3.62C9.15969 3.62 10.0332 3.81222 10.6698 4.11915L11.3212 2.768L11.9727 1.41685C10.8173 0.859774 9.46675 0.619998 7.98522 0.619998V2.12ZM11.3212 2.768L10.6987 4.13273C11.3919 4.44894 11.8222 4.83792 12.0876 5.26445L13.3612 4.472L14.6348 3.67955C14.0042 2.66608 13.0745 1.91906 11.9437 1.40327L11.3212 2.768ZM13.3612 4.472L12.0957 5.27731C12.385 5.73181 12.5332 6.23463 12.5332 6.824H14.0332H15.5332C15.5332 5.68537 15.2335 4.62019 14.6267 3.66669L13.3612 4.472ZM14.0332 6.824H12.5332C12.5332 7.43724 12.3892 7.89691 12.1516 8.26252L13.4092 9.08L14.6669 9.89748C15.2612 8.98309 15.5332 7.93876 15.5332 6.824H14.0332ZM13.4092 9.08L12.1372 8.285C11.8809 8.69511 11.5349 9.02053 11.0697 9.26932L11.7772 10.592L12.4847 11.9147C13.3956 11.4275 14.1375 10.7449 14.6812 9.875L13.4092 9.08ZM11.7772 10.592L11.1265 11.9435C11.7636 12.2502 12.2016 12.6462 12.5003 13.12L13.7692 12.32L15.0381 11.52C14.4088 10.5218 13.5189 9.76576 12.4279 9.2405L11.7772 10.592ZM13.7692 12.32L12.5084 13.1326C12.7953 13.5778 12.9652 14.1349 12.9652 14.864H14.4652H15.9652C15.9652 13.6411 15.6712 12.5022 15.0301 11.5074L13.7692 12.32ZM14.4652 14.864H12.9652C12.9652 15.7338 12.7494 16.4112 12.3679 16.9622L13.6012 17.816L14.8345 18.6698C15.6051 17.5568 15.9652 16.2662 15.9652 14.864H14.4652ZM13.6012 17.816L12.3758 16.951C11.9711 17.5242 11.4124 17.9809 10.6503 18.3127L11.2492 19.688L11.8481 21.0633C13.07 20.5311 14.0793 19.7398 14.8267 18.681L13.6012 17.816ZM11.2492 19.688L10.6421 18.3164C9.87976 18.6538 9.00214 18.836 7.98522 18.836V20.336V21.836C9.36831 21.836 10.6667 21.5862 11.8563 21.0596L11.2492 19.688ZM7.98522 20.336V18.836C6.96873 18.836 6.07952 18.6539 5.29612 18.3127L4.69722 19.688L4.09832 21.0633C5.29892 21.5861 6.60171 21.836 7.98522 21.836V20.336ZM4.69722 19.688L5.30434 18.3164C4.5588 17.9864 4.0034 17.53 3.59467 16.951L2.36922 17.816L1.14377 18.681C1.88705 19.734 2.88364 20.5256 4.0901 21.0596L4.69722 19.688ZM2.36922 17.816L3.60251 16.9622C3.22107 16.4112 3.00522 15.7338 3.00522 14.864H1.50522H0.00522232C0.00522232 16.2662 0.365368 17.5568 1.13593 18.6698L2.36922 17.816ZM1.50522 14.864H3.00522C3.00522 14.1136 3.17765 13.5499 3.46208 13.1086L2.20122 12.296L0.940365 11.4834C0.296791 12.4821 0.00522232 13.6304 0.00522232 14.864H1.50522ZM2.20122 12.296L3.47011 13.096C3.76987 12.6205 4.19862 12.2366 4.80915 11.9486L4.16922 10.592L3.52929 9.23535C2.44382 9.74737 1.56057 10.4995 0.932331 11.496L2.20122 12.296ZM10.0492 7.448H11.5492C11.5492 6.48803 11.2573 5.53656 10.4868 4.83027L9.47322 5.936L8.45963 7.04173C8.47335 7.0543 8.48758 7.07022 8.50349 7.11199C8.52216 7.16099 8.54922 7.26419 8.54922 7.448H10.0492ZM9.47322 5.936L10.5339 4.87534C9.82983 4.17129 8.92229 3.884 7.98522 3.884V5.384V6.884C8.29616 6.884 8.38061 6.96471 8.41256 6.99666L9.47322 5.936ZM7.98522 5.384V3.884C7.04619 3.884 6.14645 4.17156 5.43536 4.85302L6.47322 5.936L7.51108 7.01898C7.568 6.96443 7.67625 6.884 7.98522 6.884V5.384ZM6.47322 5.936L5.41256 4.87534C4.69448 5.59342 4.42122 6.52733 4.42122 7.472H5.92122H7.42122C7.42122 7.10467 7.51597 7.01457 7.53388 6.99666L6.47322 5.936ZM5.92122 7.472H4.42122C4.42122 8.42803 4.7289 9.34296 5.45936 10.043L6.49722 8.96L7.53508 7.87702C7.49754 7.84104 7.42122 7.76397 7.42122 7.472H5.92122ZM6.49722 8.96L5.48363 10.0657C6.18989 10.7131 7.06878 10.988 7.98522 10.988V9.488V7.988C7.68567 7.988 7.57255 7.91087 7.51081 7.85427L6.49722 8.96ZM7.98522 9.488V10.988C8.92024 10.988 9.80747 10.6933 10.5111 10.019L9.47322 8.936L8.43536 7.85302C8.37097 7.91473 8.2662 7.988 7.98522 7.988V9.488ZM9.47322 8.936L10.5111 10.019C11.2415 9.31896 11.5492 8.40403 11.5492 7.448H10.0492H8.54922C8.54922 7.73997 8.4729 7.81704 8.43536 7.85302L9.47322 8.936ZM7.98522 12.368V10.868C6.94395 10.868 5.95352 11.1636 5.1599 11.8751L6.16122 12.992L7.16254 14.1089C7.29692 13.9884 7.5225 13.868 7.98522 13.868V12.368ZM6.16122 12.992L5.18181 11.8559C4.32827 12.5917 3.96522 13.6 3.96522 14.672H5.46522H6.96522C6.96522 14.304 7.06617 14.1923 7.14063 14.1281L6.16122 12.992ZM5.46522 14.672H3.96522C3.96522 15.7152 4.32984 16.6689 5.09602 17.4078L6.13722 16.328L7.17842 15.2482C7.0486 15.123 6.96522 14.9728 6.96522 14.672H5.46522ZM6.13722 16.328L5.11509 17.4258C5.913 18.1687 6.92257 18.476 7.98522 18.476V16.976V15.476C7.51188 15.476 7.28944 15.3513 7.15935 15.2302L6.13722 16.328ZM7.98522 16.976V18.476C9.04322 18.476 10.0645 18.17 10.8459 17.3887L9.78522 16.328L8.72456 15.2673C8.6419 15.35 8.46322 15.476 7.98522 15.476V16.976ZM9.78522 16.328L10.8264 17.4078C11.5926 16.6689 11.9572 15.7152 11.9572 14.672H10.4572H8.95722C8.95722 14.9728 8.87384 15.123 8.74402 15.2482L9.78522 16.328ZM10.4572 14.672H11.9572C11.9572 13.6031 11.5869 12.6142 10.7625 11.8751L9.76122 12.992L8.7599 14.1089C8.86357 14.2018 8.95722 14.3329 8.95722 14.672H10.4572ZM9.76122 12.992L10.7819 11.8928C10.0019 11.1686 9.01823 10.868 7.98522 10.868V12.368V13.868C8.42421 13.868 8.62451 13.9834 8.74055 14.0912L9.76122 12.992ZM18.6757 4.496L17.4334 3.65526L17.4276 3.66395L18.6757 4.496ZM28.9717 4.496L27.7236 5.32807L27.7295 5.33672L28.9717 4.496ZM28.9717 17.552L27.7294 16.7113L27.7236 16.7199L28.9717 17.552ZM18.6757 17.552L17.4276 18.3841L17.4335 18.3927L18.6757 17.552ZM26.0197 7.28L24.627 7.8371L24.6306 7.84594L26.0197 7.28ZM21.6517 7.28L23.0409 7.84596L23.0444 7.83708L21.6517 7.28ZM21.3157 13.712L19.8389 13.9746L19.8399 13.9803L21.3157 13.712ZM22.0837 15.44L20.9448 16.4162L20.9635 16.438L20.9831 16.4591L22.0837 15.44ZM25.5637 15.44L24.4448 14.441L24.4426 14.4435L25.5637 15.44ZM26.3557 13.712L27.8315 13.9803L27.8326 13.9745L26.3557 13.712ZM17.0917 11H18.5917C18.5917 8.41856 19.0901 6.5786 19.9238 5.32805L18.6757 4.496L17.4276 3.66395C16.1493 5.5814 15.5917 8.07744 15.5917 11H17.0917ZM18.6757 4.496L19.918 5.33672C20.6432 4.26508 21.8312 3.62 23.8357 3.62V2.12V0.619998C21.1043 0.619998 18.8522 1.55892 17.4335 3.65528L18.6757 4.496ZM23.8357 2.12V3.62C25.8411 3.62 27.0149 4.265 27.7236 5.32805L28.9717 4.496L30.2198 3.66395C28.8165 1.559 26.5664 0.619998 23.8357 0.619998V2.12ZM28.9717 4.496L27.7295 5.33672C28.5747 6.58567 29.0797 8.42211 29.0797 11H30.5797H32.0797C32.0797 8.07389 31.5127 5.57433 30.214 3.65528L28.9717 4.496ZM30.5797 11H29.0797C29.0797 13.6141 28.5731 15.4647 27.7295 16.7113L28.9717 17.552L30.214 18.3927C31.5144 16.4713 32.0797 13.9539 32.0797 11H30.5797ZM28.9717 17.552L27.7236 16.7199C27.0149 17.783 25.8411 18.428 23.8357 18.428V19.928V21.428C26.5664 21.428 28.8165 20.489 30.2198 18.3841L28.9717 17.552ZM23.8357 19.928V18.428C21.8312 18.428 20.6432 17.7829 19.918 16.7113L18.6757 17.552L17.4335 18.3927C18.8522 20.4891 21.1043 21.428 23.8357 21.428V19.928ZM18.6757 17.552L19.9238 16.7199C19.0917 15.4718 18.5917 13.6176 18.5917 11H17.0917H15.5917C15.5917 13.9504 16.1478 16.4642 17.4276 18.3841L18.6757 17.552ZM26.5477 11H28.0477C28.0477 9.31109 27.869 7.84345 27.4089 6.71405L26.0197 7.28L24.6306 7.84594C24.8745 8.44455 25.0477 9.45691 25.0477 11H26.5477ZM26.0197 7.28L27.4124 6.72291C27.1299 6.01647 26.6605 5.41418 25.9856 5.00626C25.3275 4.60852 24.5814 4.46 23.8357 4.46V5.96V7.46C24.194 7.46 24.3639 7.53148 24.4338 7.57374C24.4869 7.60582 24.5576 7.66352 24.627 7.83709L26.0197 7.28ZM23.8357 5.96V4.46C23.09 4.46 22.3439 4.60852 21.6858 5.00626C21.0109 5.41418 20.5416 6.01647 20.259 6.72291L21.6517 7.28L23.0444 7.83708C23.1139 7.66352 23.1845 7.60582 23.2376 7.57374C23.3075 7.53148 23.4774 7.46 23.8357 7.46V5.96ZM21.6517 7.28L20.2626 6.71405C19.8025 7.84345 19.6237 9.31109 19.6237 11H21.1237H22.6237C22.6237 9.45691 22.797 8.44455 23.0409 7.84594L21.6517 7.28ZM21.1237 11H19.6237C19.6237 12.1379 19.69 13.1371 19.8389 13.9745L21.3157 13.712L22.7926 13.4494C22.6855 12.8469 22.6237 12.0381 22.6237 11H21.1237ZM21.3157 13.712L19.8399 13.9803C20.0054 14.8904 20.3544 15.7273 20.9448 16.4162L22.0837 15.44L23.2226 14.4638C23.0451 14.2567 22.8821 13.9416 22.7915 13.4437L21.3157 13.712ZM22.0837 15.44L20.9831 16.4591C21.7468 17.2839 22.784 17.588 23.8357 17.588V16.088V14.588C23.3515 14.588 23.2207 14.4601 23.1844 14.4209L22.0837 15.44ZM23.8357 16.088V17.588C24.8837 17.588 25.9305 17.2851 26.6848 16.4365L25.5637 15.44L24.4426 14.4435C24.4289 14.4589 24.3237 14.588 23.8357 14.588V16.088ZM25.5637 15.44L26.6826 16.439C27.2991 15.7485 27.6637 14.9036 27.8315 13.9803L26.3557 13.712L24.8799 13.4437C24.7918 13.9284 24.6283 14.2355 24.4448 14.441L25.5637 15.44ZM26.3557 13.712L27.8326 13.9745C27.9815 13.1371 28.0477 12.1379 28.0477 11H26.5477H25.0477C25.0477 12.0381 24.986 12.8469 24.8789 13.4494L26.3557 13.712ZM33.756 3.896L32.7308 2.80097L32.725 2.80647L32.7191 2.81204L33.756 3.896ZM39.54 3.896L38.5031 4.97996V4.97996L39.54 3.896ZM39.54 9.896L38.5031 8.81204L39.54 9.896ZM33.756 9.896L32.7191 10.98L32.725 10.9855L32.7308 10.991L33.756 9.896ZM48.948 3.104L50.264 3.82372L51.4779 1.604H48.948V3.104ZM39.708 20V21.5H40.5973L41.024 20.7197L39.708 20ZM35.748 20L34.4319 19.2803L33.218 21.5H35.748V20ZM44.988 3.104V1.604H44.0986L43.6719 2.38428L44.988 3.104ZM37.5 8.12L36.3084 7.20882L36.3084 7.20882L37.5 8.12ZM45.18 13.208L44.1431 12.124L45.18 13.208ZM50.94 13.208L51.9768 12.124L50.94 13.208ZM50.94 19.208L51.9768 20.292L50.94 19.208ZM45.18 19.208L44.1431 20.292L45.18 19.208ZM47.172 14.96L45.9804 14.0488L45.963 14.0716L45.9465 14.095L47.172 14.96ZM48.9 17.432L47.7084 16.5208V16.5208L48.9 17.432ZM48.9 14.984L47.684 15.8622L47.696 15.8789L47.7084 15.8952L48.9 14.984ZM32.652 6.896H34.152C34.152 5.89144 34.4282 5.32867 34.7928 4.97996L33.756 3.896L32.7191 2.81204C31.6117 3.87133 31.152 5.30856 31.152 6.896H32.652ZM33.756 3.896L34.7811 4.99103C35.2136 4.58616 35.7956 4.34 36.66 4.34V2.84V1.34C35.1563 1.34 33.8024 1.79784 32.7308 2.80097L33.756 3.896ZM36.66 2.84V4.34C37.5251 4.34 38.0915 4.58618 38.5031 4.97996L39.54 3.896L40.5768 2.81204C39.5165 1.79782 38.1629 1.34 36.66 1.34V2.84ZM39.54 3.896L38.5031 4.97996C38.8677 5.32867 39.144 5.89144 39.144 6.896H40.644H42.144C42.144 5.30856 41.6842 3.87133 40.5768 2.81204L39.54 3.896ZM40.644 6.896H39.144C39.144 7.90056 38.8677 8.46333 38.5031 8.81204L39.54 9.896L40.5768 10.98C41.6842 9.92067 42.144 8.48344 42.144 6.896H40.644ZM39.54 9.896L38.5031 8.81204C38.0915 9.20582 37.5251 9.452 36.66 9.452V10.952V12.452C38.1629 12.452 39.5165 11.9942 40.5768 10.98L39.54 9.896ZM36.66 10.952V9.452C35.7956 9.452 35.2136 9.20584 34.7811 8.80097L33.756 9.896L32.7308 10.991C33.8024 11.9942 35.1563 12.452 36.66 12.452V10.952ZM33.756 9.896L34.7928 8.81204C34.4282 8.46333 34.152 7.90056 34.152 6.896H32.652H31.152C31.152 8.48344 31.6117 9.92067 32.7191 10.98L33.756 9.896ZM48.948 3.104L47.6319 2.38428L38.3919 19.2803L39.708 20L41.024 20.7197L50.264 3.82372L48.948 3.104ZM39.708 20V18.5H35.748V20V21.5H39.708V20ZM35.748 20L37.064 20.7197L46.304 3.82372L44.988 3.104L43.6719 2.38428L34.4319 19.2803L35.748 20ZM44.988 3.104V4.604H48.948V3.104V1.604H44.988V3.104ZM36.636 5.24V3.74C35.8417 3.74 35.0562 4.05627 34.5406 4.7974C34.0938 5.43968 33.984 6.21629 33.984 6.896H35.484H36.984C36.984 6.70216 37.0013 6.57896 37.0172 6.51034C37.0331 6.44188 37.0407 6.45688 37.0033 6.5106C36.9593 6.57396 36.8827 6.64709 36.7802 6.69622C36.685 6.74183 36.6235 6.74 36.636 6.74V5.24ZM35.484 6.896H33.984C33.984 7.57075 34.0948 8.34507 34.5465 8.98502C35.0658 9.72065 35.8506 10.028 36.636 10.028V8.528V7.028C36.6206 7.028 36.6793 7.02561 36.7725 7.06963C36.8734 7.11728 36.9512 7.18943 36.9974 7.25497C37.037 7.31105 37.031 7.32983 37.0161 7.26644C37.0011 7.20261 36.984 7.08458 36.984 6.896H35.484ZM36.636 8.528V10.028C37.4308 10.028 38.176 9.70527 38.6915 9.03117L37.5 8.12L36.3084 7.20882C36.3387 7.1692 36.3988 7.11149 36.4875 7.06963C36.5726 7.02941 36.6328 7.028 36.636 7.028V8.528ZM37.5 8.12L38.6915 9.03117C39.1869 8.38342 39.312 7.58887 39.312 6.896H37.812H36.312C36.312 7.07731 36.2941 7.1858 36.2804 7.23949C36.2673 7.29123 36.2648 7.26591 36.3084 7.20882L37.5 8.12ZM37.812 6.896H39.312C39.312 6.21198 39.1987 5.43012 38.741 4.7855C38.2162 4.04655 37.4257 3.74 36.636 3.74V5.24V6.74C36.6565 6.74 36.6025 6.74332 36.5131 6.70136C36.4159 6.65572 36.3401 6.5861 36.295 6.5225C36.2565 6.46829 36.2633 6.45149 36.2788 6.51702C36.2945 6.5831 36.312 6.70394 36.312 6.896H37.812ZM44.076 16.208H45.576C45.576 15.2034 45.8522 14.6407 46.2168 14.292L45.18 13.208L44.1431 12.124C43.0357 13.1833 42.576 14.6206 42.576 16.208H44.076ZM45.18 13.208L46.2168 14.292C46.6285 13.8982 47.1949 13.652 48.06 13.652V12.152V10.652C46.5571 10.652 45.2035 11.1098 44.1431 12.124L45.18 13.208ZM48.06 12.152V13.652C48.9251 13.652 49.4915 13.8982 49.9031 14.292L50.94 13.208L51.9768 12.124C50.9165 11.1098 49.5629 10.652 48.06 10.652V12.152ZM50.94 13.208L49.9031 14.292C50.2677 14.6407 50.544 15.2034 50.544 16.208H52.044H53.544C53.544 14.6206 53.0843 13.1833 51.9768 12.124L50.94 13.208ZM52.044 16.208H50.544C50.544 17.2126 50.2677 17.7753 49.9031 18.124L50.94 19.208L51.9768 20.292C53.0843 19.2327 53.544 17.7954 53.544 16.208H52.044ZM50.94 19.208L49.9031 18.124C49.4915 18.5178 48.9251 18.764 48.06 18.764V20.264V21.764C49.5629 21.764 50.9165 21.3062 51.9768 20.292L50.94 19.208ZM48.06 20.264V18.764C47.1949 18.764 46.6285 18.5178 46.2168 18.124L45.18 19.208L44.1431 20.292C45.2035 21.3062 46.5571 21.764 48.06 21.764V20.264ZM45.18 19.208L46.2168 18.124C45.8522 17.7753 45.576 17.2126 45.576 16.208H44.076H42.576C42.576 17.7954 43.0357 19.2327 44.1431 20.292L45.18 19.208ZM48.036 14.552V13.052C47.2412 13.052 46.4959 13.3747 45.9804 14.0488L47.172 14.96L48.3635 15.8712C48.3332 15.9108 48.2731 15.9685 48.1845 16.0104C48.0993 16.0506 48.0391 16.052 48.036 16.052V14.552ZM47.172 14.96L45.9465 14.095C45.4909 14.7404 45.384 15.5285 45.384 16.208H46.884H48.384C48.384 16.0085 48.4016 15.8826 48.4176 15.8133C48.4336 15.7436 48.4404 15.7641 48.3974 15.825L47.172 14.96ZM46.884 16.208H45.384C45.384 16.8827 45.4948 17.6571 45.9465 18.297C46.4658 19.0327 47.2506 19.34 48.036 19.34V17.84V16.34C48.0206 16.34 48.0793 16.3376 48.1725 16.3816C48.2734 16.4293 48.3512 16.5014 48.3974 16.567C48.437 16.6231 48.431 16.6418 48.4161 16.5784C48.4011 16.5146 48.384 16.3966 48.384 16.208H46.884ZM48.036 17.84V19.34C48.8308 19.34 49.576 19.0173 50.0915 18.3432L48.9 17.432L47.7084 16.5208C47.7387 16.4812 47.7988 16.4235 47.8875 16.3816C47.9726 16.3414 48.0328 16.34 48.036 16.34V17.84ZM48.9 17.432L50.0915 18.3432C50.5869 17.6954 50.712 16.9009 50.712 16.208H49.212H47.712C47.712 16.3893 47.6941 16.4978 47.6805 16.5515C47.6673 16.6032 47.6648 16.5779 47.7084 16.5208L48.9 17.432ZM49.212 16.208H50.712C50.712 15.5151 50.5869 14.7206 50.0915 14.0728L48.9 14.984L47.7084 15.8952C47.6648 15.8381 47.6673 15.8128 47.6805 15.8645C47.6941 15.9182 47.712 16.0267 47.712 16.208H49.212ZM48.9 14.984L50.116 14.1058C49.6143 13.411 48.8652 13.052 48.036 13.052V14.552V16.052C48.0205 16.052 47.9494 16.0478 47.8572 16.0016C47.763 15.9546 47.7067 15.8938 47.684 15.8622L48.9 14.984Z" fill="#DADBDD" mask="url(#path-1-outside-1_541_2660)"/>
</svg>
