<svg width="51" height="56" viewBox="0 0 51 56" fill="none" xmlns="http://www.w3.org/2000/svg">
<mask id="path-1-inside-1_368_832" fill="white">
<path d="M2.02886 46.5529C5.86176 50.8854 10.9424 53.9244 16.5726 55.2523C22.2027 56.5802 28.1059 56.1317 33.4708 53.9685C38.8357 51.8053 43.3989 48.0336 46.5333 43.1718C49.6677 38.31 51.2193 32.5968 50.975 26.8173C50.7307 21.0379 48.7023 15.476 45.1688 10.8961C41.6353 6.31617 36.77 2.94307 31.2416 1.24041C25.7133 -0.462247 19.7933 -0.410889 14.2953 1.38743C8.79739 3.18574 3.99134 6.64274 0.537788 11.2833L1.92641 12.3167C5.16647 7.96306 9.6754 4.71977 14.8335 3.03263C19.9915 1.34548 25.5456 1.2973 30.7321 2.8947C35.9187 4.4921 40.4832 7.65667 43.7983 11.9534C47.1134 16.2502 49.0164 21.4683 49.2456 26.8904C49.4748 32.3126 48.0191 37.6726 45.0785 42.2339C42.1378 46.7951 37.8567 50.3337 32.8235 52.3631C27.7902 54.3926 22.252 54.8133 16.9699 53.5676C11.6878 52.3218 6.92125 49.4706 3.3253 45.406L2.02886 46.5529Z"/>
</mask>
<path d="M2.02886 46.5529C5.86176 50.8854 10.9424 53.9244 16.5726 55.2523C22.2027 56.5802 28.1059 56.1317 33.4708 53.9685C38.8357 51.8053 43.3989 48.0336 46.5333 43.1718C49.6677 38.31 51.2193 32.5968 50.975 26.8173C50.7307 21.0379 48.7023 15.476 45.1688 10.8961C41.6353 6.31617 36.77 2.94307 31.2416 1.24041C25.7133 -0.462247 19.7933 -0.410889 14.2953 1.38743C8.79739 3.18574 3.99134 6.64274 0.537788 11.2833L1.92641 12.3167C5.16647 7.96306 9.6754 4.71977 14.8335 3.03263C19.9915 1.34548 25.5456 1.2973 30.7321 2.8947C35.9187 4.4921 40.4832 7.65667 43.7983 11.9534C47.1134 16.2502 49.0164 21.4683 49.2456 26.8904C49.4748 32.3126 48.0191 37.6726 45.0785 42.2339C42.1378 46.7951 37.8567 50.3337 32.8235 52.3631C27.7902 54.3926 22.252 54.8133 16.9699 53.5676C11.6878 52.3218 6.92125 49.4706 3.3253 45.406L2.02886 46.5529Z" fill="#D9D9D9" stroke="#DC1414" stroke-width="2" mask="url(#path-1-inside-1_368_832)"/>
</svg>
