<svg width="54" height="22" viewBox="0 0 54 22" fill="none" xmlns="http://www.w3.org/2000/svg">
<mask id="path-1-outside-1_541_2657" maskUnits="userSpaceOnUse" x="0" y="0" width="54" height="22" fill="black">
<rect fill="white" width="54" height="22"/>
<path d="M13.6018 6.056H6.11378V9.368C6.43378 9.016 6.88178 8.728 7.45778 8.504C8.03378 8.28 8.65778 8.168 9.32978 8.168C10.5298 8.168 11.5218 8.44 12.3058 8.984C13.1058 9.528 13.6898 10.232 14.0578 11.096C14.4258 11.96 14.6098 12.896 14.6098 13.904C14.6098 15.776 14.0818 17.264 13.0258 18.368C11.9698 19.456 10.4818 20 8.56178 20C7.28178 20 6.16978 19.784 5.22578 19.352C4.28178 18.904 3.55378 18.288 3.04178 17.504C2.52978 16.72 2.24978 15.816 2.20178 14.792H6.20978C6.30578 15.288 6.53778 15.704 6.90578 16.04C7.27378 16.36 7.77778 16.52 8.41778 16.52C9.16978 16.52 9.72978 16.28 10.0978 15.8C10.4658 15.32 10.6498 14.68 10.6498 13.88C10.6498 13.096 10.4578 12.496 10.0738 12.08C9.68978 11.664 9.12978 11.456 8.39378 11.456C7.84978 11.456 7.40178 11.592 7.04978 11.864C6.69778 12.12 6.46578 12.464 6.35378 12.896H2.39378V2.456H13.6018V6.056ZM17.1152 11C17.1152 8.248 17.6432 6.08 18.6992 4.496C19.7712 2.912 21.4912 2.12 23.8592 2.12C26.2272 2.12 27.9392 2.912 28.9952 4.496C30.0672 6.08 30.6032 8.248 30.6032 11C30.6032 13.784 30.0672 15.968 28.9952 17.552C27.9392 19.136 26.2272 19.928 23.8592 19.928C21.4912 19.928 19.7712 19.136 18.6992 17.552C17.6432 15.968 17.1152 13.784 17.1152 11ZM26.5712 11C26.5712 9.384 26.3952 8.144 26.0432 7.28C25.6912 6.4 24.9632 5.96 23.8592 5.96C22.7552 5.96 22.0272 6.4 21.6752 7.28C21.3232 8.144 21.1472 9.384 21.1472 11C21.1472 12.088 21.2112 12.992 21.3392 13.712C21.4672 14.416 21.7232 14.992 22.1072 15.44C22.5072 15.872 23.0912 16.088 23.8592 16.088C24.6272 16.088 25.2032 15.872 25.5872 15.44C25.9872 14.992 26.2512 14.416 26.3792 13.712C26.5072 12.992 26.5712 12.088 26.5712 11ZM32.6754 6.896C32.6754 5.6 33.0434 4.6 33.7794 3.896C34.5314 3.192 35.4994 2.84 36.6834 2.84C37.8674 2.84 38.8274 3.192 39.5634 3.896C40.2994 4.6 40.6674 5.6 40.6674 6.896C40.6674 8.192 40.2994 9.192 39.5634 9.896C38.8274 10.6 37.8674 10.952 36.6834 10.952C35.4994 10.952 34.5314 10.6 33.7794 9.896C33.0434 9.192 32.6754 8.192 32.6754 6.896ZM48.9714 3.104L39.7314 20H35.7714L45.0114 3.104H48.9714ZM36.6594 5.24C35.8914 5.24 35.5074 5.792 35.5074 6.896C35.5074 7.984 35.8914 8.528 36.6594 8.528C37.0274 8.528 37.3154 8.392 37.5234 8.12C37.7314 7.848 37.8354 7.44 37.8354 6.896C37.8354 5.792 37.4434 5.24 36.6594 5.24ZM44.0994 16.208C44.0994 14.912 44.4674 13.912 45.2034 13.208C45.9394 12.504 46.8994 12.152 48.0834 12.152C49.2674 12.152 50.2274 12.504 50.9634 13.208C51.6994 13.912 52.0674 14.912 52.0674 16.208C52.0674 17.504 51.6994 18.504 50.9634 19.208C50.2274 19.912 49.2674 20.264 48.0834 20.264C46.8994 20.264 45.9394 19.912 45.2034 19.208C44.4674 18.504 44.0994 17.504 44.0994 16.208ZM48.0594 14.552C47.6914 14.552 47.4034 14.688 47.1954 14.96C47.0034 15.232 46.9074 15.648 46.9074 16.208C46.9074 17.296 47.2914 17.84 48.0594 17.84C48.4274 17.84 48.7154 17.704 48.9234 17.432C49.1314 17.16 49.2354 16.752 49.2354 16.208C49.2354 15.664 49.1314 15.256 48.9234 14.984C48.7154 14.696 48.4274 14.552 48.0594 14.552Z"/>
</mask>
<path d="M13.6018 6.056V7.556H15.1018V6.056H13.6018ZM6.11378 6.056V4.556H4.61378V6.056H6.11378ZM6.11378 9.368H4.61378V13.2479L7.22369 10.377L6.11378 9.368ZM7.45778 8.504L6.91412 7.10599H6.91411L7.45778 8.504ZM12.3058 8.984L11.4507 10.2164L11.4565 10.2204L11.4623 10.2244L12.3058 8.984ZM14.0578 11.096L15.4378 10.5082L14.0578 11.096ZM13.0258 18.368L14.1022 19.4127L14.1097 19.4048L13.0258 18.368ZM5.22578 19.352L4.58267 20.7071L4.5921 20.7116L4.6016 20.716L5.22578 19.352ZM3.04178 17.504L1.78588 18.3242L3.04178 17.504ZM2.20178 14.792V13.292H0.629826L0.70343 14.8622L2.20178 14.792ZM6.20979 14.792L7.68245 14.507L7.4473 13.292H6.20979V14.792ZM6.90578 16.04L5.89438 17.1477L5.9078 17.16L5.92152 17.1719L6.90578 16.04ZM10.0738 12.08L11.176 11.0626L11.176 11.0626L10.0738 12.08ZM7.04978 11.864L7.93204 13.0771L7.94969 13.0643L7.96695 13.0509L7.04978 11.864ZM6.35378 12.896V14.396H7.51449L7.80578 13.2724L6.35378 12.896ZM2.39378 12.896H0.893784V14.396H2.39378V12.896ZM2.39378 2.456V0.956H0.893784V2.456H2.39378ZM13.6018 2.456H15.1018V0.956H13.6018V2.456ZM13.6018 6.056V4.556H6.11378V6.056V7.556H13.6018V6.056ZM6.11378 6.056H4.61378V9.368H6.11378H7.61378V6.056H6.11378ZM6.11378 9.368L7.22369 10.377C7.34805 10.2402 7.57936 10.0662 8.00145 9.90201L7.45778 8.504L6.91411 7.10599C6.18421 7.38984 5.51952 7.79178 5.00387 8.35899L6.11378 9.368ZM7.45778 8.504L8.00145 9.90201C8.38955 9.75108 8.82746 9.668 9.32978 9.668V8.168V6.668C8.48811 6.668 7.67802 6.80892 6.91412 7.10599L7.45778 8.504ZM9.32978 8.168V9.668C10.3032 9.668 10.9757 9.88682 11.4507 10.2164L12.3058 8.984L13.1609 7.75162C12.0679 6.99318 10.7564 6.668 9.32978 6.668V8.168ZM12.3058 8.984L11.4623 10.2244C12.0322 10.6119 12.4259 11.0925 12.6777 11.6838L14.0578 11.096L15.4378 10.5082C14.9536 9.37146 14.1794 8.44409 13.1493 7.74361L12.3058 8.984ZM14.0578 11.096L12.6777 11.6838C12.9609 12.3486 13.1098 13.083 13.1098 13.904H14.6098H16.1098C16.1098 12.709 15.8907 11.5714 15.4378 10.5082L14.0578 11.096ZM14.6098 13.904H13.1098C13.1098 15.4816 12.6734 16.5663 11.9418 17.3312L13.0258 18.368L14.1097 19.4048C15.4902 17.9617 16.1098 16.0704 16.1098 13.904H14.6098ZM13.0258 18.368L11.9494 17.3233C11.2466 18.0474 10.1903 18.5 8.56178 18.5V20V21.5C10.7732 21.5 12.693 20.8646 14.1022 19.4127L13.0258 18.368ZM8.56178 20V18.5C7.44824 18.5 6.55799 18.312 5.84997 17.988L5.22578 19.352L4.6016 20.716C5.78158 21.256 7.11533 21.5 8.56178 21.5V20ZM5.22578 19.352L5.8689 17.9969C5.14478 17.6532 4.64155 17.2104 4.29769 16.6838L3.04178 17.504L1.78588 18.3242C2.46602 19.3656 3.41879 20.1548 4.58267 20.7071L5.22578 19.352ZM3.04178 17.504L4.29769 16.6838C3.94556 16.1446 3.73684 15.5047 3.70014 14.7218L2.20178 14.792L0.70343 14.8622C0.762726 16.1273 1.11401 17.2954 1.78588 18.3242L3.04178 17.504ZM2.20178 14.792V16.292H6.20979V14.792V13.292H2.20178V14.792ZM6.20979 14.792L4.73711 15.077C4.8935 15.885 5.28464 16.591 5.89438 17.1477L6.90578 16.04L7.91719 14.9323C7.79093 14.817 7.71807 14.691 7.68245 14.507L6.20979 14.792ZM6.90578 16.04L5.92152 17.1719C6.63829 17.7952 7.53104 18.02 8.41779 18.02V16.52V15.02C8.02452 15.02 7.90927 14.9248 7.89005 14.9081L6.90578 16.04ZM8.41779 16.52V18.02C9.5107 18.02 10.5677 17.6524 11.2882 16.7126L10.0978 15.8L8.90738 14.8874C8.89182 14.9076 8.82887 15.02 8.41779 15.02V16.52ZM10.0978 15.8L11.2882 16.7126C11.9133 15.8973 12.1498 14.9037 12.1498 13.88H10.6498H9.14978C9.14978 14.4563 9.01831 14.7427 8.90738 14.8874L10.0978 15.8ZM10.6498 13.88H12.1498C12.1498 12.865 11.9001 11.847 11.176 11.0626L10.0738 12.08L8.97158 13.0974C9.01549 13.145 9.14978 13.327 9.14978 13.88H10.6498ZM10.0738 12.08L11.176 11.0626C10.4291 10.2534 9.41582 9.956 8.39378 9.956V11.456V12.956C8.84375 12.956 8.95048 13.0746 8.97158 13.0974L10.0738 12.08ZM8.39378 11.456V9.956C7.59375 9.956 6.80161 10.1601 6.13261 10.6771L7.04978 11.864L7.96695 13.0509C8.00196 13.0239 8.10581 12.956 8.39378 12.956V11.456ZM7.04978 11.864L6.16753 10.6509C5.52675 11.1169 5.09861 11.7604 4.90179 12.5196L6.35378 12.896L7.80578 13.2724C7.83295 13.1676 7.86882 13.1231 7.93204 13.0771L7.04978 11.864ZM6.35378 12.896V11.396H2.39378V12.896V14.396H6.35378V12.896ZM2.39378 12.896H3.89378V2.456H2.39378H0.893784V12.896H2.39378ZM2.39378 2.456V3.956H13.6018V2.456V0.956H2.39378V2.456ZM13.6018 2.456H12.1018V6.056H13.6018H15.1018V2.456H13.6018ZM18.6992 4.496L17.4569 3.65526L17.4511 3.66395L18.6992 4.496ZM28.9952 4.496L27.747 5.32807L27.7529 5.33672L28.9952 4.496ZM28.9952 17.552L27.7529 16.7113L27.7471 16.7199L28.9952 17.552ZM18.6992 17.552L17.451 18.3841L17.4569 18.3927L18.6992 17.552ZM26.0432 7.28L24.6504 7.8371L24.654 7.84594L26.0432 7.28ZM21.6752 7.28L23.0643 7.84596L23.0679 7.83708L21.6752 7.28ZM21.3392 13.712L19.8623 13.9746L19.8633 13.9803L21.3392 13.712ZM22.1072 15.44L20.9683 16.4162L20.987 16.438L21.0065 16.4591L22.1072 15.44ZM25.5872 15.44L24.4682 14.441L24.466 14.4435L25.5872 15.44ZM26.3792 13.712L27.855 13.9803L27.856 13.9745L26.3792 13.712ZM17.1152 11H18.6152C18.6152 8.41856 19.1135 6.5786 19.9472 5.32805L18.6992 4.496L17.4511 3.66395C16.1728 5.5814 15.6152 8.07744 15.6152 11H17.1152ZM18.6992 4.496L19.9414 5.33672C20.6667 4.26508 21.8546 3.62 23.8592 3.62V2.12V0.619998C21.1277 0.619998 18.8757 1.55892 17.4569 3.65528L18.6992 4.496ZM23.8592 2.12V3.62C25.8645 3.62 27.0384 4.265 27.7471 5.32805L28.9952 4.496L30.2432 3.66395C28.8399 1.559 26.5898 0.619998 23.8592 0.619998V2.12ZM28.9952 4.496L27.7529 5.33672C28.5982 6.58567 29.1032 8.42211 29.1032 11H30.6032H32.1032C32.1032 8.07389 31.5362 5.57433 30.2374 3.65528L28.9952 4.496ZM30.6032 11H29.1032C29.1032 13.6141 28.5965 15.4647 27.7529 16.7113L28.9952 17.552L30.2374 18.3927C31.5378 16.4713 32.1032 13.9539 32.1032 11H30.6032ZM28.9952 17.552L27.7471 16.7199C27.0384 17.783 25.8645 18.428 23.8592 18.428V19.928V21.428C26.5898 21.428 28.8399 20.489 30.2432 18.3841L28.9952 17.552ZM23.8592 19.928V18.428C21.8546 18.428 20.6667 17.7829 19.9414 16.7113L18.6992 17.552L17.4569 18.3927C18.8757 20.4891 21.1277 21.428 23.8592 21.428V19.928ZM18.6992 17.552L19.9472 16.7199C19.1151 15.4718 18.6152 13.6176 18.6152 11H17.1152H15.6152C15.6152 13.9504 16.1712 16.4642 17.4511 18.3841L18.6992 17.552ZM26.5712 11H28.0712C28.0712 9.31109 27.8924 7.84345 27.4323 6.71405L26.0432 7.28L24.654 7.84594C24.8979 8.44455 25.0712 9.45691 25.0712 11H26.5712ZM26.0432 7.28L27.4359 6.72291C27.1533 6.01647 26.684 5.41418 26.009 5.00626C25.351 4.60852 24.6048 4.46 23.8592 4.46V5.96V7.46C24.2175 7.46 24.3873 7.53148 24.4573 7.57374C24.5103 7.60582 24.581 7.66352 24.6504 7.83709L26.0432 7.28ZM23.8592 5.96V4.46C23.1135 4.46 22.3673 4.60852 21.7093 5.00626C21.0343 5.41418 20.565 6.01647 20.2824 6.72291L21.6752 7.28L23.0679 7.83708C23.1373 7.66352 23.208 7.60582 23.261 7.57374C23.331 7.53148 23.5008 7.46 23.8592 7.46V5.96ZM21.6752 7.28L20.286 6.71405C19.8259 7.84345 19.6472 9.31109 19.6472 11H21.1472H22.6472C22.6472 9.45691 22.8204 8.44455 23.0643 7.84594L21.6752 7.28ZM21.1472 11H19.6472C19.6472 12.1379 19.7134 13.1371 19.8623 13.9745L21.3392 13.712L22.816 13.4494C22.7089 12.8469 22.6472 12.0381 22.6472 11H21.1472ZM21.3392 13.712L19.8633 13.9803C20.0288 14.8904 20.3778 15.7273 20.9683 16.4162L22.1072 15.44L23.246 14.4638C23.0685 14.2567 22.9055 13.9416 22.815 13.4437L21.3392 13.712ZM22.1072 15.44L21.0065 16.4591C21.7702 17.2839 22.8074 17.588 23.8592 17.588V16.088V14.588C23.3749 14.588 23.2441 14.4601 23.2078 14.4209L22.1072 15.44ZM23.8592 16.088V17.588C24.9071 17.588 25.954 17.2851 26.7083 16.4365L25.5872 15.44L24.466 14.4435C24.4523 14.4589 24.3472 14.588 23.8592 14.588V16.088ZM25.5872 15.44L26.7061 16.439C27.3226 15.7485 27.6871 14.9036 27.855 13.9803L26.3792 13.712L24.9034 13.4437C24.8152 13.9284 24.6517 14.2355 24.4683 14.441L25.5872 15.44ZM26.3792 13.712L27.856 13.9745C28.0049 13.1371 28.0712 12.1379 28.0712 11H26.5712H25.0712C25.0712 12.0381 25.0094 12.8469 24.9023 13.4494L26.3792 13.712ZM33.7794 3.896L32.7543 2.80097L32.7484 2.80647L32.7426 2.81204L33.7794 3.896ZM39.5634 3.896L38.5266 4.97996V4.97996L39.5634 3.896ZM39.5634 9.896L38.5266 8.81204L39.5634 9.896ZM33.7794 9.896L32.7426 10.98L32.7484 10.9855L32.7543 10.991L33.7794 9.896ZM48.9714 3.104L50.2875 3.82372L51.5014 1.604H48.9714V3.104ZM39.7314 20V21.5H40.6208L41.0475 20.7197L39.7314 20ZM35.7714 20L34.4554 19.2803L33.2414 21.5H35.7714V20ZM45.0114 3.104V1.604H44.1221L43.6954 2.38428L45.0114 3.104ZM37.5234 8.12L36.3319 7.20882L36.3319 7.20882L37.5234 8.12ZM45.2034 13.208L44.1666 12.124L45.2034 13.208ZM50.9634 13.208L52.0002 12.124L50.9634 13.208ZM50.9634 19.208L52.0002 20.292L50.9634 19.208ZM45.2034 19.208L44.1666 20.292L45.2034 19.208ZM47.1954 14.96L46.0039 14.0488L45.9865 14.0716L45.97 14.095L47.1954 14.96ZM48.9234 17.432L47.7319 16.5208V16.5208L48.9234 17.432ZM48.9234 14.984L47.7074 15.8622L47.7194 15.8789L47.7319 15.8952L48.9234 14.984ZM32.6754 6.896H34.1754C34.1754 5.89144 34.4517 5.32867 34.8162 4.97996L33.7794 3.896L32.7426 2.81204C31.6351 3.87133 31.1754 5.30856 31.1754 6.896H32.6754ZM33.7794 3.896L34.8046 4.99103C35.237 4.58616 35.8191 4.34 36.6834 4.34V2.84V1.34C35.1798 1.34 33.8258 1.79784 32.7543 2.80097L33.7794 3.896ZM36.6834 2.84V4.34C37.5485 4.34 38.1149 4.58618 38.5266 4.97996L39.5634 3.896L40.6003 2.81204C39.5399 1.79782 38.1863 1.34 36.6834 1.34V2.84ZM39.5634 3.896L38.5266 4.97996C38.8911 5.32867 39.1674 5.89144 39.1674 6.896H40.6674H42.1674C42.1674 5.30856 41.7077 3.87133 40.6002 2.81204L39.5634 3.896ZM40.6674 6.896H39.1674C39.1674 7.90056 38.8911 8.46333 38.5266 8.81204L39.5634 9.896L40.6002 10.98C41.7077 9.92067 42.1674 8.48344 42.1674 6.896H40.6674ZM39.5634 9.896L38.5266 8.81204C38.1149 9.20582 37.5485 9.452 36.6834 9.452V10.952V12.452C38.1863 12.452 39.5399 11.9942 40.6003 10.98L39.5634 9.896ZM36.6834 10.952V9.452C35.8191 9.452 35.237 9.20584 34.8046 8.80097L33.7794 9.896L32.7543 10.991C33.8258 11.9942 35.1798 12.452 36.6834 12.452V10.952ZM33.7794 9.896L34.8162 8.81204C34.4517 8.46333 34.1754 7.90056 34.1754 6.896H32.6754H31.1754C31.1754 8.48344 31.6351 9.92067 32.7426 10.98L33.7794 9.896ZM48.9714 3.104L47.6554 2.38428L38.4154 19.2803L39.7314 20L41.0475 20.7197L50.2875 3.82372L48.9714 3.104ZM39.7314 20V18.5H35.7714V20V21.5H39.7314V20ZM35.7714 20L37.0875 20.7197L46.3275 3.82372L45.0114 3.104L43.6954 2.38428L34.4554 19.2803L35.7714 20ZM45.0114 3.104V4.604H48.9714V3.104V1.604H45.0114V3.104ZM36.6594 5.24V3.74C35.8652 3.74 35.0796 4.05627 34.5641 4.7974C34.1173 5.43968 34.0074 6.21629 34.0074 6.896H35.5074H37.0074C37.0074 6.70216 37.0247 6.57896 37.0406 6.51034C37.0565 6.44188 37.0641 6.45688 37.0268 6.5106C36.9827 6.57396 36.9061 6.64709 36.8036 6.69622C36.7084 6.74183 36.647 6.74 36.6594 6.74V5.24ZM35.5074 6.896H34.0074C34.0074 7.57075 34.1182 8.34507 34.57 8.98502C35.0892 9.72065 35.8741 10.028 36.6594 10.028V8.528V7.028C36.6441 7.028 36.7027 7.02561 36.7959 7.06963C36.8968 7.11728 36.9746 7.18943 37.0209 7.25497C37.0604 7.31105 37.0545 7.32983 37.0395 7.26644C37.0245 7.20261 37.0074 7.08458 37.0074 6.896H35.5074ZM36.6594 8.528V10.028C37.4542 10.028 38.1995 9.70527 38.715 9.03117L37.5234 8.12L36.3319 7.20882C36.3622 7.1692 36.4222 7.11149 36.5109 7.06963C36.5961 7.02941 36.6563 7.028 36.6594 7.028V8.528ZM37.5234 8.12L38.715 9.03117C39.2103 8.38342 39.3354 7.58887 39.3354 6.896H37.8354H36.3354C36.3354 7.07731 36.3176 7.1858 36.3039 7.23949C36.2907 7.29123 36.2882 7.26591 36.3319 7.20882L37.5234 8.12ZM37.8354 6.896H39.3354C39.3354 6.21198 39.2222 5.43012 38.7644 4.7855C38.2396 4.04655 37.4491 3.74 36.6594 3.74V5.24V6.74C36.68 6.74 36.626 6.74332 36.5366 6.70136C36.4393 6.65572 36.3636 6.5861 36.3184 6.5225C36.2799 6.46829 36.2867 6.45149 36.3022 6.51702C36.3179 6.5831 36.3354 6.70394 36.3354 6.896H37.8354ZM44.0994 16.208H45.5994C45.5994 15.2034 45.8757 14.6407 46.2402 14.292L45.2034 13.208L44.1666 12.124C43.0591 13.1833 42.5994 14.6206 42.5994 16.208H44.0994ZM45.2034 13.208L46.2402 14.292C46.6519 13.8982 47.2183 13.652 48.0834 13.652V12.152V10.652C46.5805 10.652 45.2269 11.1098 44.1666 12.124L45.2034 13.208ZM48.0834 12.152V13.652C48.9485 13.652 49.5149 13.8982 49.9266 14.292L50.9634 13.208L52.0002 12.124C50.9399 11.1098 49.5863 10.652 48.0834 10.652V12.152ZM50.9634 13.208L49.9266 14.292C50.2911 14.6407 50.5674 15.2034 50.5674 16.208H52.0674H53.5674C53.5674 14.6206 53.1077 13.1833 52.0002 12.124L50.9634 13.208ZM52.0674 16.208H50.5674C50.5674 17.2126 50.2911 17.7753 49.9266 18.124L50.9634 19.208L52.0002 20.292C53.1077 19.2327 53.5674 17.7954 53.5674 16.208H52.0674ZM50.9634 19.208L49.9266 18.124C49.5149 18.5178 48.9485 18.764 48.0834 18.764V20.264V21.764C49.5863 21.764 50.9399 21.3062 52.0002 20.292L50.9634 19.208ZM48.0834 20.264V18.764C47.2183 18.764 46.6519 18.5178 46.2402 18.124L45.2034 19.208L44.1666 20.292C45.2269 21.3062 46.5805 21.764 48.0834 21.764V20.264ZM45.2034 19.208L46.2402 18.124C45.8757 17.7753 45.5994 17.2126 45.5994 16.208H44.0994H42.5994C42.5994 17.7954 43.0591 19.2327 44.1666 20.292L45.2034 19.208ZM48.0594 14.552V13.052C47.2646 13.052 46.5194 13.3747 46.0039 14.0488L47.1954 14.96L48.3869 15.8712C48.3566 15.9108 48.2966 15.9685 48.2079 16.0104C48.1228 16.0506 48.0626 16.052 48.0594 16.052V14.552ZM47.1954 14.96L45.97 14.095C45.5143 14.7404 45.4074 15.5285 45.4074 16.208H46.9074H48.4074C48.4074 16.0085 48.425 15.8826 48.441 15.8133C48.4571 15.7436 48.4638 15.7641 48.4209 15.825L47.1954 14.96ZM46.9074 16.208H45.4074C45.4074 16.8827 45.5182 17.6571 45.97 18.297C46.4892 19.0327 47.2741 19.34 48.0594 19.34V17.84V16.34C48.0441 16.34 48.1027 16.3376 48.1959 16.3816C48.2968 16.4293 48.3746 16.5014 48.4209 16.567C48.4604 16.6231 48.4545 16.6418 48.4395 16.5784C48.4245 16.5146 48.4074 16.3966 48.4074 16.208H46.9074ZM48.0594 17.84V19.34C48.8542 19.34 49.5995 19.0173 50.115 18.3432L48.9234 17.432L47.7319 16.5208C47.7622 16.4812 47.8222 16.4235 47.9109 16.3816C47.9961 16.3414 48.0563 16.34 48.0594 16.34V17.84ZM48.9234 17.432L50.1149 18.3432C50.6103 17.6954 50.7354 16.9009 50.7354 16.208H49.2354H47.7354C47.7354 16.3893 47.7176 16.4978 47.7039 16.5515C47.6907 16.6032 47.6882 16.5779 47.7319 16.5208L48.9234 17.432ZM49.2354 16.208H50.7354C50.7354 15.5151 50.6103 14.7206 50.115 14.0728L48.9234 14.984L47.7319 15.8952C47.6882 15.8381 47.6907 15.8128 47.7039 15.8645C47.7176 15.9182 47.7354 16.0267 47.7354 16.208H49.2354ZM48.9234 14.984L50.1394 14.1058C49.6377 13.411 48.8887 13.052 48.0594 13.052V14.552V16.052C48.044 16.052 47.9728 16.0478 47.8806 16.0016C47.7865 15.9546 47.7302 15.8938 47.7074 15.8622L48.9234 14.984Z" fill="#DADBDD" mask="url(#path-1-outside-1_541_2657)"/>
</svg>
