<svg width="48" height="72" viewBox="0 0 48 72" fill="none" xmlns="http://www.w3.org/2000/svg">
<path fill-rule="evenodd" clip-rule="evenodd" d="M23.998 35.9983C23.998 29.3711 29.3707 23.9985 35.9979 23.9985C42.6251 23.9985 47.9977 29.3711 47.9977 35.9983C47.9977 42.6255 42.6251 47.998 35.9979 47.998C29.3707 47.998 23.998 42.6255 23.998 35.9983Z" fill="#1ABCFE"/>
<path fill-rule="evenodd" clip-rule="evenodd" d="M0 60.0002C0 53.3731 5.3725 48.0005 11.9998 48.0005H23.9996V60.0002C23.9996 66.6274 18.627 72 11.9998 72C5.3725 72 0 66.6274 0 60.0002Z" fill="#0ACF83"/>
<path fill-rule="evenodd" clip-rule="evenodd" d="M24.0005 0V23.9995H36.0003C42.6275 23.9995 48.0001 18.6269 48.0001 11.9998C48.0001 5.37247 42.6275 0 36.0003 0H24.0005Z" fill="#FF7262"/>
<path fill-rule="evenodd" clip-rule="evenodd" d="M0 11.9998C0 18.6269 5.3725 23.9995 11.9998 23.9995H23.9996V0H11.9998C5.3725 0 0 5.37247 0 11.9998Z" fill="#F24E1E"/>
<path fill-rule="evenodd" clip-rule="evenodd" d="M0 35.9983C0 42.6255 5.3725 47.998 11.9998 47.998H23.9996V23.9985H11.9998C5.3725 23.9985 0 29.3711 0 35.9983Z" fill="#A259FF"/>
</svg>
