<svg width="106" height="41" viewBox="0 0 106 41" fill="none" xmlns="http://www.w3.org/2000/svg">
<mask id="path-1-outside-1_298_396" maskUnits="userSpaceOnUse" x="0" y="0" width="106" height="41" fill="black">
<rect fill="white" width="106" height="41"/>
<path d="M1.59075 31.76V25.136L16.7588 3.44H25.9268V24.656H29.8628V31.76H25.9268V38H17.7188V31.76H1.59075ZM18.2948 12.464L10.2308 24.656H18.2948V12.464ZM34.3631 20C34.3631 14.496 35.4191 10.16 37.5311 6.992C39.6751 3.824 43.1151 2.24 47.8511 2.24C52.5871 2.24 56.0111 3.824 58.1231 6.992C60.2671 10.16 61.3391 14.496 61.3391 20C61.3391 25.568 60.2671 29.936 58.1231 33.104C56.0111 36.272 52.5871 37.856 47.8511 37.856C43.1151 37.856 39.6751 36.272 37.5311 33.104C35.4191 29.936 34.3631 25.568 34.3631 20ZM53.2751 20C53.2751 16.768 52.9231 14.288 52.2191 12.56C51.5151 10.8 50.0591 9.92 47.8511 9.92C45.6431 9.92 44.1871 10.8 43.4831 12.56C42.7791 14.288 42.4271 16.768 42.4271 20C42.4271 22.176 42.5551 23.984 42.8111 25.424C43.0671 26.832 43.5791 27.984 44.3471 28.88C45.1471 29.744 46.3151 30.176 47.8511 30.176C49.3871 30.176 50.5391 29.744 51.3071 28.88C52.1071 27.984 52.6351 26.832 52.8911 25.424C53.1471 23.984 53.2751 22.176 53.2751 20ZM65.4836 11.792C65.4836 9.2 66.2196 7.2 67.6916 5.792C69.1956 4.384 71.1316 3.68 73.4996 3.68C75.8676 3.68 77.7876 4.384 79.2596 5.792C80.7316 7.2 81.4676 9.2 81.4676 11.792C81.4676 14.384 80.7316 16.384 79.2596 17.792C77.7876 19.2 75.8676 19.904 73.4996 19.904C71.1316 19.904 69.1956 19.2 67.6916 17.792C66.2196 16.384 65.4836 14.384 65.4836 11.792ZM98.0756 4.208L79.5956 38H71.6756L90.1556 4.208H98.0756ZM73.4516 8.48C71.9156 8.48 71.1476 9.584 71.1476 11.792C71.1476 13.968 71.9156 15.056 73.4516 15.056C74.1876 15.056 74.7636 14.784 75.1796 14.24C75.5956 13.696 75.8036 12.88 75.8036 11.792C75.8036 9.584 75.0196 8.48 73.4516 8.48ZM88.3316 30.416C88.3316 27.824 89.0676 25.824 90.5396 24.416C92.0116 23.008 93.9316 22.304 96.2996 22.304C98.6676 22.304 100.588 23.008 102.06 24.416C103.532 25.824 104.268 27.824 104.268 30.416C104.268 33.008 103.532 35.008 102.06 36.416C100.588 37.824 98.6676 38.528 96.2996 38.528C93.9316 38.528 92.0116 37.824 90.5396 36.416C89.0676 35.008 88.3316 33.008 88.3316 30.416ZM96.2516 27.104C95.5156 27.104 94.9396 27.376 94.5236 27.92C94.1396 28.464 93.9476 29.296 93.9476 30.416C93.9476 32.592 94.7156 33.68 96.2516 33.68C96.9876 33.68 97.5636 33.408 97.9796 32.864C98.3956 32.32 98.6036 31.504 98.6036 30.416C98.6036 29.328 98.3956 28.512 97.9796 27.968C97.5636 27.392 96.9876 27.104 96.2516 27.104Z"/>
</mask>
<path d="M1.59075 31.76H0.0907516V33.26H1.59075V31.76ZM1.59075 25.136L0.361393 24.2765L0.0907516 24.6637V25.136H1.59075ZM16.7588 3.44V1.94H15.9772L15.5294 2.58054L16.7588 3.44ZM25.9268 3.44H27.4268V1.94H25.9268V3.44ZM25.9268 24.656H24.4268V26.156H25.9268V24.656ZM29.8627 24.656H31.3627V23.156H29.8627V24.656ZM29.8627 31.76V33.26H31.3627V31.76H29.8627ZM25.9268 31.76V30.26H24.4268V31.76H25.9268ZM25.9268 38V39.5H27.4268V38H25.9268ZM17.7188 38H16.2188V39.5H17.7188V38ZM17.7188 31.76H19.2188V30.26H17.7188V31.76ZM18.2948 12.464H19.7948V7.4771L17.0437 11.6365L18.2948 12.464ZM10.2308 24.656L8.97965 23.8285L7.4402 26.156H10.2308V24.656ZM18.2948 24.656V26.156H19.7948V24.656H18.2948ZM1.59075 31.76H3.09075V25.136H1.59075H0.0907516V31.76H1.59075ZM1.59075 25.136L2.82011 25.9955L17.9881 4.29946L16.7588 3.44L15.5294 2.58054L0.361393 24.2765L1.59075 25.136ZM16.7588 3.44V4.94H25.9268V3.44V1.94H16.7588V3.44ZM25.9268 3.44H24.4268V24.656H25.9268H27.4268V3.44H25.9268ZM25.9268 24.656V26.156H29.8627V24.656V23.156H25.9268V24.656ZM29.8627 24.656H28.3627V31.76H29.8627H31.3627V24.656H29.8627ZM29.8627 31.76V30.26H25.9268V31.76V33.26H29.8627V31.76ZM25.9268 31.76H24.4268V38H25.9268H27.4268V31.76H25.9268ZM25.9268 38V36.5H17.7188V38V39.5H25.9268V38ZM17.7188 38H19.2188V31.76H17.7188H16.2188V38H17.7188ZM17.7188 31.76V30.26H1.59075V31.76V33.26H17.7188V31.76ZM18.2948 12.464L17.0437 11.6365L8.97965 23.8285L10.2308 24.656L11.4818 25.4835L19.5459 13.2915L18.2948 12.464ZM10.2308 24.656V26.156H18.2948V24.656V23.156H10.2308V24.656ZM18.2948 24.656H19.7948V12.464H18.2948H16.7948V24.656H18.2948ZM37.5311 6.992L36.2888 6.15126L36.2831 6.15995L37.5311 6.992ZM58.1231 6.992L56.875 7.82407L56.8809 7.83272L58.1231 6.992ZM58.1231 33.104L56.8808 32.2633L56.8751 32.2719L58.1231 33.104ZM37.5311 33.104L36.283 33.9361L36.2889 33.9447L37.5311 33.104ZM52.2191 12.56L50.8264 13.1171L50.83 13.1259L52.2191 12.56ZM43.4831 12.56L44.8723 13.126L44.8758 13.1171L43.4831 12.56ZM42.8111 25.424L41.3343 25.6866L41.3353 25.6923L42.8111 25.424ZM44.3471 28.88L43.2082 29.8562L43.227 29.878L43.2465 29.8991L44.3471 28.88ZM51.3071 28.88L50.1882 27.881L50.186 27.8835L51.3071 28.88ZM52.8911 25.424L54.3669 25.6923L54.368 25.6865L52.8911 25.424ZM34.3631 20H35.8631C35.8631 14.6666 36.8895 10.6586 38.7792 7.82405L37.5311 6.992L36.2831 6.15995C33.9487 9.6614 32.8631 14.3254 32.8631 20H34.3631ZM37.5311 6.992L38.7734 7.83272C40.5706 5.17708 43.4786 3.74 47.8511 3.74V2.24V0.739997C42.7517 0.739997 38.7796 2.47092 36.2889 6.15128L37.5311 6.992ZM47.8511 2.24V3.74C52.2245 3.74 55.1104 5.17699 56.8751 7.82405L58.1231 6.992L59.3712 6.15995C56.9119 2.471 52.9498 0.739997 47.8511 0.739997V2.24ZM58.1231 6.992L56.8809 7.83272C58.7981 10.6657 59.8391 14.6701 59.8391 20H61.3391H62.8391C62.8391 14.3219 61.7361 9.65432 59.3654 6.15128L58.1231 6.992ZM61.3391 20H59.8391C59.8391 25.3981 58.7965 29.4327 56.8809 32.2633L58.1231 33.104L59.3654 33.9447C61.7378 30.4393 62.8391 25.7379 62.8391 20H61.3391ZM58.1231 33.104L56.8751 32.2719C55.1104 34.919 52.2245 36.356 47.8511 36.356V37.856V39.356C52.9498 39.356 56.9119 37.625 59.3712 33.9361L58.1231 33.104ZM47.8511 37.856V36.356C43.4786 36.356 40.5706 34.9189 38.7734 32.2633L37.5311 33.104L36.2889 33.9447C38.7796 37.6251 42.7517 39.356 47.8511 39.356V37.856ZM37.5311 33.104L38.7792 32.2719C36.8911 29.4398 35.8631 25.4016 35.8631 20H34.3631H32.8631C32.8631 25.7344 33.9472 30.4322 36.2831 33.9361L37.5311 33.104ZM53.2751 20H54.7751C54.7751 16.6951 54.4204 13.9874 53.6083 11.9941L52.2191 12.56L50.83 13.1259C51.4259 14.5886 51.7751 16.8409 51.7751 20H53.2751ZM52.2191 12.56L53.6118 12.0029C53.1533 10.8565 52.4139 9.92418 51.375 9.29626C50.3529 8.67852 49.1488 8.42 47.8511 8.42V9.92V11.42C48.7614 11.42 49.3893 11.6015 49.8232 11.8637C50.2403 12.1158 50.581 12.5035 50.8264 13.1171L52.2191 12.56ZM47.8511 9.92V8.42C46.5534 8.42 45.3493 8.67852 44.3272 9.29626C43.2883 9.92418 42.549 10.8565 42.0904 12.0029L43.4831 12.56L44.8758 13.1171C45.1213 12.5035 45.4619 12.1158 45.879 11.8637C46.3129 11.6015 46.9408 11.42 47.8511 11.42V9.92ZM43.4831 12.56L42.094 11.9941C41.2819 13.9874 40.9271 16.6951 40.9271 20H42.4271H43.9271C43.9271 16.8409 44.2764 14.5886 44.8723 13.1259L43.4831 12.56ZM42.4271 20H40.9271C40.9271 22.2259 41.0574 24.1291 41.3343 25.6865L42.8111 25.424L44.288 25.1614C44.0529 23.8389 43.9271 22.1261 43.9271 20H42.4271ZM42.8111 25.424L41.3353 25.6923C41.6288 27.3064 42.2338 28.7193 43.2082 29.8562L44.3471 28.88L45.486 27.9038C44.9245 27.2487 44.5055 26.3576 44.2869 25.1557L42.8111 25.424ZM44.3471 28.88L43.2465 29.8991C44.4102 31.1559 46.0314 31.676 47.8511 31.676V30.176V28.676C46.5989 28.676 45.8841 28.3321 45.4478 27.8609L44.3471 28.88ZM47.8511 30.176V31.676C49.6671 31.676 51.2899 31.1571 52.4282 29.8765L51.3071 28.88L50.186 27.8835C49.7883 28.3309 49.1071 28.676 47.8511 28.676V30.176ZM51.3071 28.88L52.426 29.879C53.4426 28.7405 54.0711 27.3196 54.3669 25.6923L52.8911 25.424L51.4153 25.1557C51.1992 26.3444 50.7717 27.2275 50.1882 27.881L51.3071 28.88ZM52.8911 25.424L54.368 25.6865C54.6449 24.1291 54.7751 22.2259 54.7751 20H53.2751H51.7751C51.7751 22.1261 51.6494 23.8389 51.4143 25.1614L52.8911 25.424ZM67.6916 5.792L66.6665 4.69697L66.6606 4.70247L66.6548 4.70804L67.6916 5.792ZM79.2596 5.792L78.2228 6.87596V6.87596L79.2596 5.792ZM79.2596 17.792L78.2228 16.708L79.2596 17.792ZM67.6916 17.792L66.6548 18.876L66.6606 18.8815L66.6665 18.887L67.6916 17.792ZM98.0756 4.208L99.3917 4.92772L100.606 2.708H98.0756V4.208ZM79.5956 38V39.5H80.485L80.9117 38.7197L79.5956 38ZM71.6756 38L70.3596 37.2803L69.1457 39.5H71.6756V38ZM90.1556 4.208V2.708H89.2663L88.8396 3.48828L90.1556 4.208ZM75.1796 14.24L73.9881 13.3288V13.3288L75.1796 14.24ZM90.5396 24.416L89.5028 23.332L90.5396 24.416ZM102.06 24.416L103.096 23.332L102.06 24.416ZM102.06 36.416L103.096 37.5L102.06 36.416ZM90.5396 36.416L89.5028 37.5L90.5396 36.416ZM94.5236 27.92L93.3321 27.0088L93.3147 27.0316L93.2982 27.055L94.5236 27.92ZM97.9796 32.864L96.7881 31.9528V31.9528L97.9796 32.864ZM97.9796 27.968L96.7636 28.8462L96.7756 28.8629L96.7881 28.8792L97.9796 27.968ZM65.4836 11.792H66.9836C66.9836 9.49143 67.6279 7.92867 68.7285 6.87596L67.6916 5.792L66.6548 4.70804C64.8113 6.47133 63.9836 8.90856 63.9836 11.792H65.4836ZM67.6916 5.792L68.7168 6.88703C69.9012 5.77816 71.4513 5.18 73.4996 5.18V3.68V2.18C70.812 2.18 68.49 2.98984 66.6665 4.69697L67.6916 5.792ZM73.4996 3.68V5.18C75.5487 5.18 77.0751 5.77818 78.2228 6.87596L79.2596 5.792L80.2965 4.70804C78.5001 2.98981 76.1865 2.18 73.4996 2.18V3.68ZM79.2596 5.792L78.2228 6.87596C79.3233 7.92867 79.9676 9.49143 79.9676 11.792H81.4676H82.9676C82.9676 8.90856 82.1399 6.47133 80.2965 4.70804L79.2596 5.792ZM81.4676 11.792H79.9676C79.9676 14.0926 79.3233 15.6553 78.2228 16.708L79.2596 17.792L80.2965 18.876C82.1399 17.1127 82.9676 14.6754 82.9676 11.792H81.4676ZM79.2596 17.792L78.2228 16.708C77.0751 17.8058 75.5487 18.404 73.4996 18.404V19.904V21.404C76.1865 21.404 78.5001 20.5942 80.2965 18.876L79.2596 17.792ZM73.4996 19.904V18.404C71.4513 18.404 69.9012 17.8058 68.7168 16.697L67.6916 17.792L66.6665 18.887C68.49 20.5942 70.812 21.404 73.4996 21.404V19.904ZM67.6916 17.792L68.7285 16.708C67.6279 15.6553 66.9836 14.0926 66.9836 11.792H65.4836H63.9836C63.9836 14.6754 64.8113 17.1127 66.6548 18.876L67.6916 17.792ZM98.0756 4.208L96.7596 3.48828L78.2796 37.2803L79.5956 38L80.9117 38.7197L99.3917 4.92772L98.0756 4.208ZM79.5956 38V36.5H71.6756V38V39.5H79.5956V38ZM71.6756 38L72.9917 38.7197L91.4717 4.92772L90.1556 4.208L88.8396 3.48828L70.3596 37.2803L71.6756 38ZM90.1556 4.208V5.708H98.0756V4.208V2.708H90.1556V4.208ZM73.4516 8.48V6.98C72.2734 6.98 71.1998 7.43427 70.4923 8.4514C69.8535 9.36968 69.6476 10.5603 69.6476 11.792H71.1476H72.6476C72.6476 10.8157 72.8258 10.3503 72.955 10.1646C73.0069 10.09 73.0503 10.0596 73.0918 10.0397C73.1406 10.0163 73.2472 9.98 73.4516 9.98V8.48ZM71.1476 11.792H69.6476C69.6476 13.0107 69.8544 14.1931 70.4982 15.105C71.2094 16.1127 72.2823 16.556 73.4516 16.556V15.056V13.556C73.2443 13.556 73.1349 13.5196 73.0841 13.4956C73.041 13.4753 72.9988 13.4454 72.9491 13.375C72.8248 13.1989 72.6476 12.7493 72.6476 11.792H71.1476ZM73.4516 15.056V16.556C74.6144 16.556 75.6477 16.0973 76.3712 15.1512L75.1796 14.24L73.9881 13.3288C73.8796 13.4707 73.7608 13.556 73.4516 13.556V15.056ZM75.1796 14.24L76.3712 15.1512C77.0745 14.2314 77.3036 13.0289 77.3036 11.792H75.8036H74.3036C74.3036 12.7311 74.1167 13.1606 73.9881 13.3288L75.1796 14.24ZM75.8036 11.792H77.3036C77.3036 10.556 77.0924 9.36012 76.4386 8.4395C75.7178 7.42455 74.6334 6.98 73.4516 6.98V8.48V9.98C73.8379 9.98 73.9294 10.0874 73.9926 10.1765C74.1229 10.3599 74.3036 10.82 74.3036 11.792H75.8036ZM88.3316 30.416H89.8316C89.8316 28.1154 90.4759 26.5527 91.5765 25.5L90.5396 24.416L89.5028 23.332C87.6593 25.0953 86.8316 27.5326 86.8316 30.416H88.3316ZM90.5396 24.416L91.5765 25.5C92.7241 24.4022 94.2505 23.804 96.2996 23.804V22.304V20.804C93.6127 20.804 91.2991 21.6138 89.5028 23.332L90.5396 24.416ZM96.2996 22.304V23.804C98.3487 23.804 99.8751 24.4022 101.023 25.5L102.06 24.416L103.096 23.332C101.3 21.6138 98.9865 20.804 96.2996 20.804V22.304ZM102.06 24.416L101.023 25.5C102.123 26.5527 102.768 28.1154 102.768 30.416H104.268H105.768C105.768 27.5326 104.94 25.0953 103.096 23.332L102.06 24.416ZM104.268 30.416H102.768C102.768 32.7166 102.123 34.2793 101.023 35.332L102.06 36.416L103.096 37.5C104.94 35.7367 105.768 33.2994 105.768 30.416H104.268ZM102.06 36.416L101.023 35.332C99.8751 36.4298 98.3487 37.028 96.2996 37.028V38.528V40.028C98.9865 40.028 101.3 39.2182 103.096 37.5L102.06 36.416ZM96.2996 38.528V37.028C94.2505 37.028 92.7241 36.4298 91.5765 35.332L90.5396 36.416L89.5028 37.5C91.2991 39.2182 93.6127 40.028 96.2996 40.028V38.528ZM90.5396 36.416L91.5765 35.332C90.4759 34.2793 89.8316 32.7166 89.8316 30.416H88.3316H86.8316C86.8316 33.2994 87.6593 35.7367 89.5028 37.5L90.5396 36.416ZM96.2516 27.104V25.604C95.0888 25.604 94.0556 26.0627 93.3321 27.0088L94.5236 27.92L95.7152 28.8312C95.8237 28.6893 95.9424 28.604 96.2516 28.604V27.104ZM94.5236 27.92L93.2982 27.055C92.6505 27.9724 92.4476 29.1765 92.4476 30.416H93.9476H95.4476C95.4476 29.4155 95.6287 28.9556 95.7491 28.785L94.5236 27.92ZM93.9476 30.416H92.4476C92.4476 31.6347 92.6544 32.8171 93.2982 33.729C94.0094 34.7367 95.0823 35.18 96.2516 35.18V33.68V32.18C96.0443 32.18 95.9349 32.1436 95.8841 32.1196C95.841 32.0993 95.7988 32.0694 95.7491 31.999C95.6248 31.8229 95.4476 31.3733 95.4476 30.416H93.9476ZM96.2516 33.68V35.18C97.4144 35.18 98.4477 34.7213 99.1712 33.7752L97.9796 32.864L96.7881 31.9528C96.6796 32.0947 96.5608 32.18 96.2516 32.18V33.68ZM97.9796 32.864L99.1712 33.7752C99.8745 32.8554 100.104 31.6529 100.104 30.416H98.6036H97.1036C97.1036 31.3551 96.9167 31.7846 96.7881 31.9528L97.9796 32.864ZM98.6036 30.416H100.104C100.104 29.1791 99.8745 27.9766 99.1712 27.0568L97.9796 27.968L96.7881 28.8792C96.9167 29.0474 97.1036 29.4769 97.1036 30.416H98.6036ZM97.9796 27.968L99.1956 27.0898C98.4859 26.107 97.4489 25.604 96.2516 25.604V27.104V28.604C96.5264 28.604 96.6414 28.677 96.7636 28.8462L97.9796 27.968Z" fill="#DADBDD" mask="url(#path-1-outside-1_298_396)"/>
</svg>
