<svg width="32" height="32" viewBox="0 0 32 32" fill="none" xmlns="http://www.w3.org/2000/svg">
<rect x="0.5" y="0.5" width="31" height="31" stroke="#B4B6BB"/>
<path d="M25.5561 11.1858C25.4425 10.7623 25.2194 10.3761 24.9093 10.0661C24.5993 9.75602 24.2131 9.53297 23.7896 9.4193C22.6326 8.9723 11.4236 8.7533 8.17162 9.4318C7.74806 9.54551 7.36186 9.76864 7.0518 10.0788C6.74173 10.3889 6.51871 10.7752 6.40512 11.1988C5.88262 13.4903 5.84312 18.4443 6.41812 20.7873C6.53179 21.2108 6.75484 21.597 7.0649 21.907C7.37496 22.2171 7.76112 22.4401 8.18462 22.5538C10.4761 23.0813 21.3701 23.1553 23.8026 22.5538C24.2261 22.4401 24.6123 22.2171 24.9223 21.907C25.2324 21.597 25.4555 21.2108 25.5691 20.7873C26.1261 18.2908 26.1656 13.6438 25.5561 11.1858Z" fill="#D9D9D9"/>
<path d="M19.284 15.9862L14.0605 12.9907V18.9817L19.284 15.9862Z" fill="#020202" stroke="black" stroke-width="0.5" stroke-linecap="round" stroke-linejoin="round"/>
</svg>
