<svg width="32" height="32" viewBox="0 0 32 32" fill="none" xmlns="http://www.w3.org/2000/svg">
<rect x="0.5" y="0.5" width="31" height="31" stroke="#B4B6BB"/>
<path d="M20.376 12.3574C21.8291 12.4298 23.2082 13.0416 24.2412 14.0791C25.3428 15.1857 25.9609 16.6871 25.9609 18.251V24.5508C25.9606 24.8265 25.7368 25.0507 25.4609 25.0508H21.877C21.601 25.0508 21.3773 24.8266 21.377 24.5508V18.251C21.377 17.9059 21.2401 17.5746 20.998 17.3311C20.7557 17.0876 20.4268 16.9503 20.085 16.9502C19.7429 16.9502 19.4144 17.0875 19.1719 17.3311C18.9295 17.5747 18.792 17.9056 18.792 18.251V24.5508C18.7916 24.8265 18.5678 25.0507 18.292 25.0508H14.708C14.4321 25.0508 14.2084 24.8266 14.208 24.5508V18.251C14.208 16.687 14.827 15.1857 15.9287 14.0791C17.0306 12.9726 18.5258 12.3506 20.085 12.3506L20.376 12.3574ZM11.2246 13.2598C11.4523 13.3065 11.623 13.5085 11.623 13.75V24.5498C11.623 24.8259 11.3991 25.0498 11.123 25.0498H7.53906C7.26292 25.0498 7.03906 24.8259 7.03906 24.5498V13.75L7.04883 13.6494C7.0954 13.4215 7.29739 13.25 7.53906 13.25H11.123L11.2246 13.2598ZM20.085 13.3506C18.7923 13.3506 17.5514 13.8665 16.6367 14.7852C15.7222 15.7039 15.208 16.9509 15.208 18.251V24.0508H17.792V18.251C17.792 17.6418 18.0334 17.0565 18.4629 16.625C18.8926 16.1934 19.4763 15.9502 20.085 15.9502C20.6934 15.9503 21.2765 16.1936 21.7061 16.625C22.1355 17.0565 22.377 17.6418 22.377 18.251V24.0508H24.9609V18.251C24.9609 16.9509 24.4467 15.7039 23.5322 14.7852C22.6176 13.8666 21.3774 13.3507 20.085 13.3506ZM8.03906 24.0498H10.623V14.25H8.03906V24.0498ZM9.33105 6.9502C10.5989 6.95024 11.6229 7.98191 11.623 9.25C11.623 10.5181 10.599 11.5498 9.33105 11.5498C8.06319 11.5497 7.03911 10.5181 7.03906 9.25C7.03917 7.98195 8.06322 6.95031 9.33105 6.9502ZM9.33105 7.9502C8.61959 7.95031 8.03917 8.53015 8.03906 9.25C8.03911 9.9699 8.61956 10.5497 9.33105 10.5498C10.0426 10.5498 10.623 9.96995 10.623 9.25C10.6229 8.5301 10.0426 7.95024 9.33105 7.9502Z" fill="white"/>
</svg>
