<svg width="90" height="90" viewBox="0 0 90 90" fill="none" xmlns="http://www.w3.org/2000/svg">
<path d="M69.8918 1H20.1033C9.55286 1 1 9.5459 1 20.0877C1 30.6297 9.55286 39.1756 20.1033 39.1756H69.8918C80.4425 39.1756 88.9952 30.6297 88.9952 20.0877C88.9952 9.5459 80.4425 1 69.8918 1Z" stroke="url(#paint0_linear_48_355)" stroke-width="2" stroke-miterlimit="10"/>
<path d="M21.4691 30.3211C27.2774 30.3211 31.9859 25.6123 31.9859 19.8037C31.9859 13.9951 27.2774 9.28613 21.4691 9.28613C15.6608 9.28613 10.9523 13.9951 10.9523 19.8037C10.9523 25.6123 15.6608 30.3211 21.4691 30.3211Z" stroke="url(#paint1_linear_48_355)" stroke-width="2" stroke-miterlimit="10"/>
<path d="M20.108 88.9998H69.8966C80.447 88.9998 89 80.4539 89 69.9121C89 59.3701 80.447 50.8242 69.8966 50.8242H20.108C9.5575 50.8242 1.00464 59.3701 1.00464 69.9121C1.00464 80.4539 9.5575 88.9998 20.108 88.9998Z" stroke="url(#paint2_linear_48_355)" stroke-width="2" stroke-miterlimit="10"/>
<path d="M68.5218 80.6795C74.3303 80.6795 79.0388 75.9707 79.0388 70.1621C79.0388 64.3533 74.3303 59.6445 68.5218 59.6445C62.7135 59.6445 58.005 64.3533 58.005 70.1621C58.005 75.9707 62.7135 80.6795 68.5218 80.6795Z" stroke="url(#paint3_linear_48_355)" stroke-width="2" stroke-miterlimit="10"/>
<defs>
<linearGradient id="paint0_linear_48_355" x1="1" y1="20.0878" x2="88.9952" y2="20.0878" gradientUnits="userSpaceOnUse">
<stop stop-color="#A95CEC"/>
<stop offset="1" stop-color="#DA22FF"/>
</linearGradient>
<linearGradient id="paint1_linear_48_355" x1="10.9523" y1="19.8036" x2="31.9859" y2="19.8036" gradientUnits="userSpaceOnUse">
<stop stop-color="#A95CEC"/>
<stop offset="1" stop-color="#DA22FF"/>
</linearGradient>
<linearGradient id="paint2_linear_48_355" x1="1.00464" y1="69.912" x2="89" y2="69.912" gradientUnits="userSpaceOnUse">
<stop stop-color="#A95CEC"/>
<stop offset="1" stop-color="#DA22FF"/>
</linearGradient>
<linearGradient id="paint3_linear_48_355" x1="58.005" y1="70.162" x2="79.0388" y2="70.162" gradientUnits="userSpaceOnUse">
<stop stop-color="#A95CEC"/>
<stop offset="1" stop-color="#DA22FF"/>
</linearGradient>
</defs>
</svg>
