<svg width="32" height="32" viewBox="0 0 32 32" fill="none" xmlns="http://www.w3.org/2000/svg">
<rect x="0.5" y="0.5" width="31" height="31" stroke="#B4B6BB"/>
<path d="M20.2861 6.92871C22.929 6.92891 25.0713 9.07189 25.0713 11.7148V20.2861C25.0711 22.9289 22.9289 25.0711 20.2861 25.0713H11.7148C9.07189 25.0713 6.92891 22.929 6.92871 20.2861V11.7148C6.92871 9.07177 9.07177 6.92871 11.7148 6.92871H20.2861ZM11.7148 7.92871C9.62405 7.92871 7.92871 9.62405 7.92871 11.7148V20.2861C7.92891 22.3768 9.62417 24.0713 11.7148 24.0713H20.2861C22.3766 24.0711 24.0711 22.3766 24.0713 20.2861V11.7148C24.0713 9.62417 22.3768 7.92891 20.2861 7.92871H11.7148ZM14.2275 12.4756C14.961 12.095 15.7959 11.956 16.6133 12.0771L16.9229 12.1357C17.637 12.3011 18.2931 12.6634 18.8145 13.1846C19.4104 13.7806 19.7992 14.553 19.9229 15.3867L19.9561 15.6934C20.0054 16.4108 19.8575 17.1306 19.5244 17.7725C19.1438 18.5059 18.5408 19.1002 17.8027 19.4717C17.0648 19.843 16.2287 19.973 15.4131 19.8418C14.5973 19.7105 13.843 19.3245 13.2588 18.7402C12.6748 18.156 12.2894 17.4025 12.1582 16.5869C12.0269 15.7711 12.1568 14.9344 12.5283 14.1963C12.8998 13.4584 13.4943 12.8561 14.2275 12.4756ZM16.4668 13.0654C15.8576 12.9751 15.2351 13.0797 14.6885 13.3633C14.1418 13.647 13.6978 14.0963 13.4209 14.6465C13.1442 15.1965 13.0478 15.8198 13.1455 16.4277C13.2433 17.0357 13.5305 17.5977 13.9658 18.0332C14.4013 18.4686 14.9633 18.7566 15.5713 18.8545C16.1793 18.9523 16.8034 18.8559 17.3535 18.5791C17.9037 18.3022 18.353 17.8583 18.6367 17.3115C18.885 16.833 18.9958 16.2966 18.959 15.7617L18.9336 15.5332C18.8414 14.9117 18.5517 14.3359 18.1074 13.8916C17.7187 13.5031 17.2297 13.2326 16.6973 13.1094L16.4668 13.0654ZM20.8232 10.7959C21.0509 10.8426 21.2217 11.0446 21.2217 11.2861C21.2215 11.5275 21.0508 11.7296 20.8232 11.7764L20.7217 11.7861H20.7139C20.4381 11.7859 20.2141 11.5619 20.2139 11.2861C20.2139 11.0101 20.4379 10.7864 20.7139 10.7861H20.7217L20.8232 10.7959Z" fill="white"/>
</svg>
