<svg width="32" height="32" viewBox="0 0 32 32" fill="none" xmlns="http://www.w3.org/2000/svg">
<rect x="0.5" y="0.5" width="31" height="31" stroke="#B4B6BB"/>
<path d="M17.4002 14.962L12.6142 8.252C12.5587 8.17404 12.4854 8.11049 12.4003 8.06666C12.3152 8.02282 12.2209 7.99996 12.1252 8H9.59923C9.48913 8.00014 9.38119 8.03057 9.28724 8.08797C9.19328 8.14536 9.11692 8.2275 9.06653 8.32539C9.01614 8.42328 8.99366 8.53315 9.00154 8.64296C9.00942 8.75278 9.04737 8.85831 9.11123 8.948L15.2382 17.538M17.4002 14.962L23.5272 23.552C23.5911 23.6417 23.629 23.7472 23.6369 23.857C23.6448 23.9669 23.6223 24.0767 23.5719 24.1746C23.5215 24.2725 23.4452 24.3546 23.3512 24.412C23.2573 24.4694 23.1493 24.4999 23.0392 24.5H20.5132C20.4175 24.5 20.3232 24.4772 20.2381 24.4333C20.1531 24.3895 20.0797 24.326 20.0242 24.248L15.2382 17.538M17.4002 14.962L23.2422 8M15.2382 17.538L9.39623 24.5" stroke="white" stroke-width="1.5" stroke-linecap="round" stroke-linejoin="round"/>
</svg>
