<svg width="94" height="120" viewBox="0 0 94 120" fill="none" xmlns="http://www.w3.org/2000/svg">
<path d="M92.459 64.5875L84.1801 46.5897C84.0464 46.3119 83.7894 46.0959 83.4809 46.0342C83.1721 45.9725 82.8431 46.0549 82.6169 46.2605L68.0129 58.9104C68.0026 58.9309 67.9924 58.9412 67.9718 58.9619H26.6284C26.6078 58.9412 26.5974 58.9309 26.5871 58.9104L11.9833 46.2605C11.757 46.0549 11.4176 45.9725 11.1194 46.0342C10.8108 46.1062 10.5435 46.3119 10.42 46.5897L2.14105 64.5875C1.94564 64.9988 2.05877 65.4821 2.40843 65.7701L18.4316 78.9445L18.4213 78.9548C18.3905 79.0575 18.3802 79.1503 18.3802 79.2428C18.3802 79.253 18.3699 79.2633 18.3699 79.2735V114.899C18.3699 116.606 19.7686 117.994 21.4861 117.994H73.114C74.8315 117.994 76.2302 116.606 76.2302 114.899V79.2838C76.2302 79.2735 76.22 79.2735 76.22 79.2633C76.22 79.1605 76.2097 79.068 76.1788 78.965L76.1685 78.9548L92.1918 65.7803C92.5413 65.4821 92.6545 64.9988 92.459 64.5875ZM26.6181 60.957H67.9821L73.8237 78.276H20.7765L26.6181 60.957ZM19.059 76.8567L4.29049 64.721L11.685 48.6465L24.7566 59.9902L19.059 76.8567ZM74.2145 114.909C74.2145 115.516 73.7207 116.01 73.1037 116.01H21.4861C20.869 116.01 20.3754 115.516 20.3754 114.909V80.2815H74.2145V114.909ZM75.5412 76.8567L69.8436 59.9799L82.9151 48.6362L90.3097 64.7108L75.5412 76.8567Z" fill="url(#paint0_linear_48_316)"/>
<path d="M74.684 48.0364L63.6047 35.8484V31.659C63.6047 20.7133 58.9395 10.24 50.8066 2.91632C48.8078 1.11708 45.7963 1.11708 43.7975 2.91632C35.6604 10.24 30.9957 20.7133 30.9957 31.659V35.8484L19.9163 48.0364C17.1656 51.0633 15.6502 54.9842 15.6502 59.0736V66.9113C15.6502 67.4407 16.0799 67.8705 16.6093 67.8705H37.1336V71.515C37.1336 72.8884 38.2537 74.0086 39.6274 74.0086H54.9691C56.3423 74.0086 57.4627 72.8884 57.4627 71.515V67.8705H77.987C78.5163 67.8705 78.9462 67.4407 78.9462 66.9113L78.9499 59.0736C78.9499 54.9838 77.4346 51.063 74.684 48.0364ZM32.9133 31.6586C32.9133 21.258 37.3483 11.3022 45.0789 4.34393C46.345 3.20448 48.2554 3.20448 49.5215 4.34393C57.2517 11.3031 61.6869 21.259 61.6869 31.6586V56.7449H32.9137L32.9133 31.6586ZM17.5678 59.0736C17.5678 55.4633 18.9067 52.003 21.3351 49.3289L30.995 38.7024V65.9524H17.5676L17.5678 59.0736ZM32.9133 58.663H61.6865V65.9522H32.9133V58.663ZM55.5483 71.515C55.5483 71.8335 55.2874 72.0905 54.9728 72.0905H39.6272C39.3089 72.0905 39.0518 71.8296 39.0518 71.515V67.8705H55.5483V71.515ZM77.0321 65.9522H63.6047V38.7024L73.2647 49.3289C75.6931 51.999 77.0318 55.4594 77.0318 59.0734L77.0321 65.9522ZM47.3004 40.3748C51.2135 40.3748 54.3979 37.1906 54.3979 33.2775C54.3979 29.3644 51.2135 26.1801 47.3004 26.1801C43.3873 26.1801 40.203 29.3644 40.203 33.2775C40.203 37.1906 43.3873 40.3748 47.3004 40.3748ZM47.3004 28.0983C50.1547 28.0983 52.4796 30.4233 52.4796 33.2775C52.4796 36.1318 50.1547 38.4565 47.3004 38.4565C44.4462 38.4565 42.1214 36.1318 42.1214 33.2775C42.1214 30.4233 44.4425 28.0983 47.3004 28.0983Z" fill="url(#paint1_linear_48_316)"/>
<defs>
<linearGradient id="paint0_linear_48_316" x1="2.04581" y1="82.0043" x2="92.5543" y2="82.0043" gradientUnits="userSpaceOnUse">
<stop stop-color="#A95CEC"/>
<stop offset="1" stop-color="#DA22FF"/>
</linearGradient>
<linearGradient id="paint1_linear_48_316" x1="15.6502" y1="37.7877" x2="78.9499" y2="37.7877" gradientUnits="userSpaceOnUse">
<stop stop-color="#A95CEC"/>
<stop offset="1" stop-color="#DA22FF"/>
</linearGradient>
</defs>
</svg>
