<svg width="47" height="64" viewBox="0 0 47 64" fill="none" xmlns="http://www.w3.org/2000/svg">
<path d="M45.5897 30.8396C45.5897 43.5196 35.5402 53.7985 23.1437 53.7985C10.7472 53.7985 0.697266 43.5196 0.697266 30.8396C0.697266 18.1596 10.7472 7.87964 23.1437 7.87964C35.5402 7.87964 45.5897 18.1596 45.5897 30.8396Z" fill="#D33833"/>
<path d="M1.61156 36.5257C1.61156 36.5257 -0.0134363 12.5832 22.0475 11.8997L20.5085 9.33472L8.53704 13.3532L5.11705 17.2867L2.12406 23.0162L0.414062 29.6857L0.926562 34.1322" fill="#EF3D3A"/>
<path d="M7.76948 15.1775C3.83149 19.2075 1.3945 24.7705 1.3945 30.9255C1.3945 37.079 3.83149 42.6435 7.76948 46.6725C11.7095 50.7009 17.1395 53.1874 23.1429 53.1874C29.1464 53.1874 34.5764 50.7009 38.5164 46.6725C42.4544 42.6435 44.8919 37.079 44.8919 30.9255C44.8919 24.7705 42.4544 19.207 38.5164 15.1775C34.5764 11.15 29.1464 8.66354 23.1429 8.66304C17.14 8.66354 11.7095 11.1495 7.76948 15.178V15.1775ZM6.77298 47.6469C2.58799 43.3665 0 37.451 0 30.9255C0 24.399 2.58799 18.484 6.77298 14.2035C10.958 9.92204 16.75 7.26854 23.1429 7.26904C29.5369 7.26804 35.3299 9.92204 39.5134 14.2035C43.6994 18.484 46.2874 24.3995 46.2869 30.9255C46.2869 37.4505 43.6994 43.3665 39.5134 47.6469C35.3299 51.9279 29.5369 54.5819 23.1434 54.5819C16.75 54.5819 10.957 51.9279 6.77298 47.6469Z" fill="#231F20"/>
<path d="M32.5925 30.967L29.172 31.48L24.5545 31.993L21.5615 32.0785L18.654 31.9935L16.431 31.309L14.464 29.1715L12.925 24.8106L12.583 23.8701L10.5305 23.1861L9.33352 21.2191L8.47852 18.3971L9.41901 15.9171L11.642 15.1481L13.438 16.0031L14.293 17.8841L15.3195 17.7131L15.661 17.2856L15.3195 15.3191L15.2335 12.8391L15.7465 9.41909L15.7265 7.4651L17.286 4.9726L20.022 3.00561L24.811 0.953613L30.1125 1.72311L34.73 5.0581L36.8679 8.4781L38.2359 10.9581L38.5779 17.1146L37.5514 22.4166L35.6705 27.119L33.875 29.599" fill="#F0D6B7"/>
<path d="M35.1562 28.4873L33.1047 30.5398V38.4918L31.3148 45.8218L30.4543 45.8453L31.1378 54.0543L34.3867 53.6268L33.6177 45.7598L32.1667 45.7993L36.0982 45.5883C36.0982 45.5883 38.0642 40.6288 38.0642 40.3723C38.0642 40.1158 39.7752 33.1898 39.7752 33.1898L35.9262 29.1713L35.1567 28.4863L35.1562 28.4873ZM14.5488 29.7693L12.4113 30.6248L5.57031 35.3278L5.99831 36.6963L7.96531 42.5103L8.81981 52.1738L9.4183 53.1988L17.9688 56.1073L18.4828 55.5073L17.4563 48.3248V46.2733L29.6838 45.7598L30.6238 45.2468L23.1858 41.7408L24.5538 39.0908L22.5873 39.7743L21.8173 38.8338L20.7913 34.3873L19.9358 34.1308L18.0548 33.5318L16.4298 32.0788L14.5488 29.7693Z" fill="#335061"/>
<path d="M9.41817 15.9176L11.6412 15.1476L13.4372 16.0031L14.2922 17.8841L15.3187 17.7131L15.5752 16.6871L15.0622 14.7206L15.5752 10.0171L15.1472 7.45213L16.6867 5.65614L20.0216 3.00564L19.0806 1.72314L14.3777 4.03164L12.4112 5.57114L11.2992 7.96513L9.58917 10.2736L9.07617 13.0101L9.41817 15.9176Z" fill="#6D6B6D"/>
<path d="M20.8651 2.01068C20.2791 2.00468 19.5936 2.06468 19.5936 2.06468L14.0362 4.20317L11.8977 6.34117L10.9572 8.05116L12.9242 7.88016C12.9242 7.88016 14.2067 4.71617 19.3371 3.17717C22.5436 2.21518 21.8421 2.02118 20.8651 2.01068ZM15.1477 7.45216L10.4447 8.56366L9.07617 13.0101L9.41817 15.9171L10.3582 15.3196C10.3582 15.3196 8.56267 9.33266 15.4032 8.47766L15.1477 7.45216Z" fill="#DCD9D8"/>
<path d="M26.1355 0.237562C25.477 0.24907 24.8255 0.375643 24.2105 0.611561C19.0806 2.57806 15.3181 6.16905 15.4031 8.47754C15.5491 12.4095 15.4891 12.4125 15.4891 12.4125C15.4891 12.4125 16.9431 4.88705 24.2975 3.43305C30.3515 2.23656 33.5315 3.68905 34.729 5.05705C34.729 5.05705 30.604 0.147062 26.136 0.237062L26.1355 0.237562ZM35.2995 5.91255C35.027 5.91105 32.843 5.96655 32.7625 8.05104C32.7625 8.05104 32.7625 8.39254 32.9335 8.73454C32.9335 8.73454 34.9005 6.51105 36.0975 7.70804L35.328 5.91305C35.328 5.91305 35.318 5.91255 35.2995 5.91255ZM22.707 6.91755C22.287 6.92755 21.769 7.10304 21.1325 7.53754C19.2516 8.82004 19.4226 10.616 19.7646 10.958C20.1066 11.3 20.0141 11.988 20.2745 11.5155C20.5345 11.043 20.449 9.50454 21.3895 9.07704C22.33 8.64954 23.8725 8.17104 24.4695 8.96604C24.4695 8.96604 24.2085 6.88305 22.707 6.91805V6.91755ZM35.9255 12.1555C35.9255 12.1555 34.5165 12.4525 34.3865 13.6945C34.2565 14.9365 35.926 13.9505 36.1825 13.865L35.9255 12.1555ZM25.579 12.241C25.579 12.241 23.698 12.4975 23.698 13.6945C23.698 14.8915 25.836 14.806 26.4345 14.293L25.579 12.241ZM10.3586 15.32L8.39258 17.371L8.73458 19.9365L9.75958 22.5865L10.8721 22.9295C9.24708 20.963 10.0166 19.594 10.3586 17.713C10.7001 15.8315 13.9501 17.799 13.9501 17.799L13.8641 16.5155L12.5821 15.4905L10.3586 15.32ZM29.663 19.2435C29.1 19.2185 28.885 21.061 28.839 21.5365C28.994 21.0765 30.4245 20.1515 30.4245 20.1515C30.4245 20.1515 30.4245 19.4535 29.7265 19.2545C29.7058 19.2486 29.6845 19.2449 29.663 19.2435ZM28.839 21.5365C28.8253 21.5717 28.8219 21.61 28.829 21.647C28.829 21.647 28.832 21.6065 28.839 21.5365ZM14.2151 22.187L13.0951 23.272L13.3516 27.0345L16.0881 31.31C16.0881 31.31 19.1596 32.003 18.8241 31.738C15.1476 28.8305 14.8911 23.443 14.8056 22.844C14.7206 22.246 14.2151 22.187 14.2151 22.187ZM23.837 23.4615C23.4995 23.4665 23.276 23.5755 23.213 23.6595C22.9995 23.9445 23.4415 25.4955 23.4415 25.4955L23.869 25.5815C23.784 23.871 24.8095 23.6995 24.8095 23.6995C24.4305 23.5175 24.0995 23.4575 23.837 23.4615Z" fill="#F7E4CD"/>
<path d="M13.9503 29.6846L5.57031 35.3275L6.51081 37.979L8.7348 47.555L8.81981 52.601L10.0168 53.028C11.7268 48.923 8.39281 35.6695 8.39281 35.6695L16.4298 32.0786L13.9503 29.6846ZM17.2573 39.4085L17.0283 39.945C17.0283 39.945 16.8578 41.484 16.8578 41.9115C16.8578 42.3395 17.0283 45.9315 17.0283 45.9315H18.3968V40.8L17.2568 39.408L17.2573 39.4085ZM17.2853 46.7005L13.4378 46.8715L14.5488 47.6415L17.2853 48.069V46.7005ZM35.1562 28.4871L33.5322 30.2826L39.5177 34.7295L39.6887 32.6776L35.1562 28.4871ZM33.4462 45.247L30.4543 45.845L30.8813 48.24C31.9928 48.753 33.8742 47.3845 33.8742 47.3845L33.4462 45.247Z" fill="#49728B"/>
<path d="M16.4297 31.3101V32.0791L17.5167 33.2766L20.9367 34.8155L21.0227 32.2511L18.6532 31.9931L16.4297 31.3101ZM41.4591 43.452L38.7226 44.3075L36.0976 45.589L34.7031 45.334L33.6171 45.7605L34.5331 52.9445L37.8671 52.003L44.1951 51.661L45.1356 48.754L43.4256 43.709L41.4591 43.452ZM30.4542 45.8455L25.4692 45.8465L17.4562 46.2735L17.6017 50.208L18.4827 55.508L20.2527 62.6925L24.1857 63.547L30.6847 63.034L30.7697 61.751L29.9997 54.825L30.4542 45.8455ZM31.1127 45.1625L29.2312 40.374L27.2642 37.552C27.2642 37.552 27.6917 36.355 28.2907 36.355H30.2572L32.1381 37.039L31.9677 40.203L31.1127 45.1625Z" fill="white"/>
<path d="M17.1999 32.5066L16.9434 32.8491L18.3974 33.8746L20.7909 34.3871L20.7058 33.3621C19.8509 33.6186 17.1999 32.5066 17.1999 32.5066ZM29.0848 36.1831L27.1188 36.4391L30.4538 44.3061L31.1373 44.3921L31.4793 43.5371C31.4793 43.5371 29.0843 38.9191 29.0843 38.2351C29.0843 38.2351 29.5123 37.2091 30.1108 37.4651C30.7098 37.7221 31.9928 38.4061 31.9928 38.4061V36.7816L29.0848 36.1831ZM37.2088 45.1616L36.0973 45.5886L37.0378 50.2915C36.6958 50.206 34.4728 51.233 34.4728 51.233L34.7278 52.601L35.6698 52.2585L38.6618 51.8315L39.5173 52.943L42.0823 53.028L43.6218 52.686L44.9898 50.6345L44.9038 49.0946L43.9638 46.3581C44.2203 48.4101 43.1938 50.3775 43.1938 50.3775C42.7663 50.3775 37.9783 50.1205 37.9783 50.1205C37.9783 49.6075 37.2088 45.1616 37.2088 45.1616ZM30.6238 45.2466L29.3413 45.7601C29.3413 45.7601 28.9143 54.6535 30.1968 60.981C30.1968 60.981 27.6318 62.6055 23.8688 63.0325L31.0513 62.776L31.9068 62.263L30.8808 48.2396L30.6238 45.2466ZM32.8588 54.395C32.4908 54.397 31.9438 54.658 31.5573 54.6325C31.5008 55.983 31.6903 58.149 31.7538 59.566C32.6518 59.567 33.0363 59.37 33.7068 59.144C33.7823 57.4765 33.1783 55.933 33.0048 54.4105C32.9573 54.3983 32.9078 54.393 32.8588 54.395Z" fill="#DCD9D8"/>
<path d="M33.5306 31.909C32.4346 31.96 30.9566 33.3575 30.2681 33.6025C30.3571 33.8585 30.5031 34.061 30.5141 34.3875C30.9966 34.2685 31.5841 34.35 32.0026 34.5555C31.5186 34.6095 30.9836 34.6065 30.6636 34.837C30.5461 35.1755 30.6911 35.637 30.6126 36.107C31.7606 36.431 33.0721 36.604 34.5226 36.6465C34.8056 36.28 34.9016 35.58 34.8676 34.8875C34.8276 34.0525 34.6081 32.3355 34.0926 32.035C33.9226 31.9365 33.7336 31.9 33.5306 31.909ZM22.2631 32.283C21.1011 32.308 21.2221 34.337 21.2786 35.579C21.3261 36.628 21.8726 37.738 22.1086 38.4355C22.2206 38.7605 22.2456 39.1065 22.5236 39.1705C23.0156 39.2855 24.6386 38.637 25.1011 38.385C26.0786 37.852 26.8376 37.005 27.6676 36.4365L27.6986 35.6075C27.1996 35.3585 26.6236 35.1815 25.8901 35.1495C26.3876 34.8995 27.1186 34.903 27.5716 34.6055L27.5846 34.2745C26.7576 34.211 26.4421 33.8425 25.8971 33.544C25.0051 33.057 23.6651 32.5255 22.5131 32.3055C22.4308 32.2893 22.347 32.2818 22.2631 32.283ZM28.9781 34.0115C28.7571 34.0135 28.4936 34.097 28.1931 34.298C28.1361 34.9275 28.2831 35.133 28.4096 35.8555C30.1561 36.402 30.1721 34.0035 28.9781 34.0115Z" fill="#D33833"/>
<path d="M33.4216 31.3105L30.1726 33.1915L30.0006 34.1315V36.0125L31.1976 36.4405C31.1976 36.4405 30.5991 35.5855 31.0271 35.329C31.4546 35.0725 31.8826 35.329 32.1391 34.9015C32.3956 34.4735 32.1391 34.217 32.2241 33.704C32.3096 33.191 32.7371 33.106 33.1646 33.0205C33.5921 32.9355 34.7896 32.764 34.9606 33.1915L34.4476 31.6525L33.4216 31.3105ZM22.6536 31.8255C22.2301 31.8165 21.8441 31.8865 21.5611 32.079C19.5506 33.4465 21.1711 36.607 22.1561 38.466C22.0727 37.3974 21.983 36.3292 21.8871 35.2615C21.7061 33.2715 22.3656 33.619 24.0911 33.619C24.3551 33.619 25.7136 33.933 25.8111 34.132C26.2776 35.0845 25.0311 34.8725 26.3481 35.591C27.4601 36.197 29.4241 35.2225 28.9751 33.875C28.7236 33.575 27.6651 33.7815 27.2856 33.585L25.2816 32.546C24.6976 32.2425 23.5856 31.845 22.6536 31.8255ZM22.1556 38.4655L22.2191 39.2625L22.5251 39.171C22.4231 38.9685 22.2956 38.7295 22.1561 38.466L22.1556 38.4655Z" fill="#EF3D3A"/>
<path d="M24.9237 0.00318939C23.1287 0.0371893 21.3732 0.335689 19.9102 0.874187C18.8227 1.27419 17.7692 1.63219 16.8142 2.19318C14.2587 3.69318 11.5457 4.69718 10.7882 7.71667C8.92124 8.55267 8.35825 10.9422 8.45225 13.7152C8.47025 14.2557 8.76374 14.9312 8.66224 15.4397C8.61024 15.6977 8.26025 16.0282 8.19025 16.1961C7.29525 18.3296 8.01275 21.1341 9.04674 22.6506C9.67174 23.5666 10.7067 24.3791 12.0717 24.5946C12.1262 25.4121 12.3227 26.1156 12.7002 26.9441C12.9392 27.4681 13.8317 28.4101 13.5032 29.0786C13.3382 29.4156 11.8847 30.1471 11.4027 30.4366C9.77524 31.4126 8.59574 32.0111 7.09325 33.0926C6.12125 33.7926 4.60075 33.8826 4.84075 35.4966C5.00225 36.5856 5.62225 37.9356 5.97675 39.0276C6.36075 40.2061 6.91075 41.2856 7.22675 42.5086C7.92925 45.2341 8.07574 47.8021 8.24674 50.4641C8.31374 51.5066 8.20275 52.6096 8.47325 53.1851C8.75224 53.7801 9.78624 53.9701 10.5332 54.3171C12.6907 55.3146 14.9797 56.8381 17.8092 56.5356C18.4837 58.8036 19.1212 61.219 19.9307 63.2055C22.8322 64.2485 27.4127 64.0855 30.4292 63.723C31.3462 63.612 32.3137 63.1595 32.5292 62.3645C32.4647 61.8745 32.3932 61.3895 32.4242 60.81C33.3672 60.615 34.6507 60.454 34.8582 59.41C35.1492 57.9461 33.9337 55.8486 34.3392 54.2421C34.8852 54.0651 35.4682 53.9266 35.3812 53.0646C36.3012 52.5856 37.3927 52.4786 38.5577 52.5236C38.7077 52.8136 38.9212 53.0926 39.1132 53.2521C40.7452 53.5801 42.3257 53.6071 43.6807 53.1651C45.2142 52.6641 45.9457 49.5276 45.5952 48.0351C45.3462 46.9776 44.7832 45.2451 44.3032 44.2211C43.0027 41.4411 39.1267 43.1861 37.0522 44.2171C38.0587 41.5696 38.9242 38.8246 39.8122 35.8546C40.0772 34.9646 40.6012 33.7031 40.4837 32.7811C40.3737 31.9141 39.0217 31.0031 38.3102 30.3161C37.9147 29.9351 36.0707 28.5351 35.9637 28.0111C35.8602 27.5041 36.7157 26.3556 36.9907 25.7811C37.3857 24.9591 37.6687 23.9531 37.8632 23.2686C39.3132 18.1706 39.4607 11.1667 37.3877 6.97567C36.6027 5.38818 34.4077 3.19568 33.0352 2.15718C31.0112 0.627188 27.9142 -0.0528105 24.9237 0.00318939ZM25.1627 1.42319C27.5862 1.39969 30.2812 2.25468 32.1062 3.28418C33.6312 4.14418 34.7562 5.80818 35.8292 7.19267C34.3247 6.74617 33.0442 7.51367 33.2777 8.75467C34.5372 7.60017 36.6887 8.74217 37.3252 10.0187C37.9337 11.2387 37.9297 13.0472 38.0232 14.8612C38.2497 19.2601 37.2182 23.7986 35.0077 26.9781C34.4167 27.8271 33.9207 28.7551 33.0897 29.3396C31.0867 30.7461 28.0422 32.0211 25.4352 31.1466C21.9902 29.9906 20.4252 27.6951 18.5302 25.0666C18.5817 26.5106 19.5972 27.6956 20.6002 28.8001C21.4727 29.7626 22.5257 30.8501 23.6587 31.2991C22.7137 31.0771 21.2627 31.0076 20.8687 31.8561C18.6637 31.7096 16.6147 31.4841 15.5717 29.9896C14.7497 28.8116 13.9147 26.8081 13.5402 25.2606C13.4637 24.9426 13.3327 24.2656 13.3647 24.0921C13.4877 23.4206 14.6837 23.1256 14.2132 22.1871C13.3452 22.1791 13.1497 22.9771 12.3532 23.0561C10.2907 23.2601 8.83574 20.3226 8.92924 18.5501C9.00874 17.0431 10.2827 15.6012 12.0252 15.7917C13.2567 15.9267 13.6752 17.2706 13.9142 18.4666C14.6242 18.5046 15.6497 18.4361 15.9857 17.8821C15.9372 16.5306 15.3097 15.4467 15.3527 14.2047C15.4337 11.8707 16.7052 9.76467 15.7242 7.46567C16.7742 5.08368 19.8547 3.20368 22.1332 2.06718C23.0157 1.62719 24.0612 1.43519 25.1632 1.42419L25.1627 1.42319ZM18.8937 2.59618C18.9927 2.61218 19.0837 2.68918 19.1717 2.78318C19.1567 3.18868 18.7567 3.18018 18.4867 3.31018C18.0667 3.82668 17.4527 4.06818 16.9417 4.63418C16.4172 5.21418 15.8307 6.77217 15.1357 6.94417C14.7872 7.03117 14.3892 6.88417 14.0857 6.90417C13.2832 6.95467 12.7182 7.36567 11.9042 7.48367C12.9552 5.18618 16.2337 3.32718 18.7912 2.60268C18.8246 2.59345 18.8595 2.59123 18.8937 2.59618ZM23.2637 7.58267C21.9452 7.58417 20.4437 8.99367 20.0522 10.0692C19.8932 10.5062 19.6422 11.3642 20.2727 11.5167C20.9792 9.94217 22.1372 8.42417 24.4677 8.96667C24.9152 8.23117 24.1152 7.69067 23.5242 7.60167C23.4378 7.58883 23.3511 7.58248 23.2637 7.58267ZM14.9357 7.82267C15.8367 10.1157 14.2892 12.8407 14.8657 15.3482C15.0422 16.1162 15.6527 17.3081 14.6777 17.3341C14.7032 15.1492 11.9927 13.7627 9.95024 15.0472C9.81374 13.3902 9.57724 11.0607 10.7072 9.81767C11.7497 8.66967 13.1867 7.95517 14.9357 7.82267ZM35.8237 11.6212C35.7492 12.8797 36.2167 13.6372 36.5412 14.5272C35.9802 14.8802 34.8887 14.6602 34.2562 14.9367C34.2112 16.7981 37.1362 15.8807 37.5812 14.8442C36.9162 13.8782 36.4607 12.7192 35.9337 11.6257L35.8237 11.6212ZM25.6612 11.6497C25.3152 12.6317 26.2552 14.2987 26.7822 15.1417C26.0957 15.8082 24.8612 15.2547 23.9427 15.2117C23.0662 16.5962 25.6542 16.8566 26.7647 16.5286C27.0687 16.4391 27.5947 15.9837 27.6672 15.7787C27.9757 14.9122 27.3537 14.5322 27.0337 14.2202C26.3237 13.5282 26.1607 12.5652 25.6612 11.6497ZM30.9357 12.5547C30.8687 12.5457 30.7882 12.5697 30.6917 12.6397C30.6292 14.9477 32.3442 16.8581 33.6232 18.3996C34.2482 19.1521 35.0012 19.5821 34.3077 20.7511C33.1897 21.1761 31.3802 22.3936 29.8257 22.1276C29.0007 21.9866 29.1867 21.0501 28.8907 20.5411C28.3217 21.2896 28.5447 22.4221 29.1307 22.9311C31.8702 23.2021 33.7347 22.0341 35.4067 20.9596C35.3402 20.5386 35.9127 19.7796 35.7537 19.1466C35.6987 18.9286 35.2027 18.6126 34.9017 18.2831C33.6752 16.9457 31.9947 14.9472 31.3267 13.3842C31.2667 13.2442 31.2262 12.5932 30.9357 12.5547ZM11.4457 16.8721C10.8122 16.8621 10.2382 17.2796 10.1027 18.2636C10.3837 18.0796 10.6102 17.5561 11.1167 17.8051C10.6717 18.6736 10.7787 20.3651 11.3842 20.9151C11.3807 19.8841 11.2202 18.1216 12.0992 18.1751C12.7147 18.2121 12.8392 19.5301 13.3632 19.8291C13.7247 18.0901 12.5022 16.8881 11.4457 16.8721ZM36.4712 22.0521C35.1347 22.6621 34.0562 23.5506 32.3102 23.7181C32.2257 24.0066 32.2617 24.7346 32.3082 25.2131C34.5917 25.1656 35.6932 23.5336 36.4712 22.0521ZM25.5292 23.0126C26.1967 24.7991 29.2057 25.4291 31.7507 25.3021C31.7467 24.7731 31.7492 24.2371 31.6432 23.8031C29.6632 23.8611 26.9857 23.7781 25.5292 23.0126ZM25.2527 24.4416C23.9662 24.4431 25.0512 25.1586 25.2692 25.4386C25.7202 26.0186 26.2492 27.0081 27.0732 27.4461C28.3722 28.1361 30.9522 27.8466 31.8882 27.4661C32.2342 27.3261 32.5132 26.9376 32.6417 26.6096C29.7217 26.6796 26.2602 26.9706 25.2527 24.4416ZM34.9707 29.3566C35.9707 30.1621 36.5747 30.9201 37.5337 31.7816C38.0537 32.2481 39.0777 32.8071 39.1812 33.5616C39.2387 33.9826 38.9807 35.0141 38.8857 35.4876C38.4657 37.5646 37.5207 40.3086 36.6207 42.4851C36.2937 43.2761 35.9807 44.2651 35.5492 44.4361C34.3672 44.9041 32.9327 44.3906 31.9282 45.0161C33.2782 42.6736 34.7482 40.4606 36.0712 38.0901C35.8697 37.6201 35.3757 37.4196 35.2322 36.8961C36.1612 35.1416 35.7342 29.6946 33.3632 30.8446C33.6947 30.3576 34.5652 29.9556 34.9707 29.3566ZM14.1087 30.5966C14.3242 30.5116 15.8972 32.5581 16.1297 32.7241C17.4047 33.6291 18.9877 34.3441 20.4682 35.0506C20.5587 35.7301 20.7682 36.6106 21.1372 37.7886C21.5437 39.0896 21.8792 40.9256 23.5982 39.9876C23.4347 40.7306 22.4797 41.1916 22.7432 42.0581C22.9082 42.6016 24.7132 43.2731 25.2852 43.5961C26.3407 44.1911 27.3037 44.5201 28.1147 44.8681C24.4297 44.9691 20.9692 45.2691 17.5637 45.7326C17.1557 45.1006 17.3202 44.1266 17.2772 43.1201C17.2302 42.0271 17.6847 39.5631 17.2552 39.4101C16.7697 39.2376 16.6787 40.2216 16.6612 40.4386C16.5702 41.5926 17.2107 44.0361 16.5792 45.4176C15.8882 45.2221 15.5477 44.7026 14.9002 44.4666C14.6462 45.2666 15.4262 45.3051 15.3462 45.8131C15.2402 46.4846 13.9677 45.9231 13.9747 46.9216C14.8032 47.0546 16.0742 46.6641 16.9597 47.0376C17.1912 49.7541 17.5632 52.3281 17.9707 55.2136C14.4467 55.0306 12.1657 53.2796 9.56824 52.0651C9.40674 46.3201 8.49124 40.3601 6.22425 35.4951C8.60224 33.6601 11.2632 31.7191 14.1092 30.5971L14.1087 30.5966ZM33.6497 31.9096C33.8077 31.9171 33.9562 31.9566 34.0917 32.0356C34.6077 32.3366 34.8272 34.0536 34.8672 34.8886C34.9007 35.5811 34.8042 36.2801 34.5222 36.6471C33.0712 36.6046 31.7602 36.4321 30.6122 36.1081C30.6907 35.6381 30.5447 35.1756 30.6622 34.8366C30.9817 34.6066 31.5177 34.6106 32.0012 34.5566C31.5832 34.3506 30.9962 34.2691 30.5137 34.3881C30.5022 34.0611 30.3557 33.8591 30.2672 33.6031C30.9807 33.3486 32.5442 31.8551 33.6497 31.9096ZM31.0497 31.9731C30.4407 32.3701 29.9222 32.8666 29.3377 33.2906C28.0412 33.3551 27.3337 33.2011 26.3812 32.4566C26.3962 32.3966 26.4922 32.4236 26.4962 32.3501C27.8837 32.9686 29.6487 32.0981 31.0497 31.9731ZM17.3762 31.9976C18.0997 32.5001 19.4997 32.3761 20.5652 32.5631C20.6202 32.9046 20.3442 33.3531 20.3492 33.8286C19.4527 33.7736 16.6357 32.7486 17.3762 31.9976ZM22.2622 32.2841C22.3395 32.2821 22.4229 32.2896 22.5122 32.3066C23.6642 32.5266 25.0042 33.0576 25.8962 33.5451C26.4412 33.8431 26.7567 34.2111 27.5837 34.2751L27.5712 34.6061C27.1182 34.9036 26.3867 34.9001 25.8897 35.1501C26.6227 35.1821 27.1997 35.3586 27.6987 35.6076L27.6662 36.4371C26.8357 37.0056 26.0772 37.8521 25.0997 38.3851C24.6372 38.6371 23.0147 39.2861 22.5232 39.1711C22.2447 39.1066 22.2197 38.7611 22.1082 38.4361C21.8717 37.7386 21.3262 36.6291 21.2782 35.5801C21.2217 34.3376 21.1002 32.3076 22.2622 32.2841ZM28.9092 34.0156C28.9775 34.0103 29.0425 34.0121 29.1042 34.0211C30.1672 34.1776 30.0902 36.3821 28.4082 35.8561C28.2817 35.1341 28.1352 34.9281 28.1917 34.2986C28.4627 34.1181 28.7027 34.0321 28.9092 34.0156ZM29.8772 36.5226C30.4862 36.5876 30.9682 37.4276 31.8372 37.3726C31.6977 39.6386 31.7707 41.9126 31.1382 43.9886C29.9597 41.8276 29.2662 39.2186 27.7407 37.3801C27.9017 37.2091 28.0457 37.0196 28.2037 36.8446C28.8947 37.1336 29.3457 36.4656 29.8772 36.5226ZM33.3812 37.2436C34.2202 37.2371 34.9072 37.7856 35.2847 38.3921C34.1027 40.4171 32.9717 42.4961 31.5697 44.2821C32.1572 42.5531 32.4092 39.6596 32.4982 37.4536C32.7737 37.3201 33.0751 37.2484 33.3812 37.2436ZM26.9962 38.0151C28.3962 39.7921 29.2482 42.0776 30.1862 44.2836C27.9702 43.6156 25.7062 42.5316 23.7642 41.4326C24.1452 39.7806 25.6392 38.9246 26.9962 38.0151ZM41.7517 43.8791C42.3602 43.8941 42.9647 44.3881 43.2292 44.7886C43.7072 45.5106 44.1537 47.6361 44.4042 48.7646C44.7777 50.4441 43.9382 52.0791 42.6027 52.4031C41.6307 52.6391 40.1397 52.7016 39.5032 52.3941C40.2822 51.9686 41.4527 51.9661 42.3542 51.6741C41.0627 51.1181 39.1517 51.6421 37.5987 51.5451C37.4112 49.6276 37.2697 47.5486 36.8152 46.0351C37.7217 45.0716 39.9117 44.8401 41.1552 44.0446C41.3329 43.9307 41.5407 43.8731 41.7517 43.8791ZM41.6462 45.6681C40.0547 45.7151 38.8112 46.1366 38.1012 47.1371C39.3927 47.2196 40.3227 45.9331 41.6462 45.6681ZM35.3762 46.0606C35.4892 46.0649 35.5992 46.0788 35.7062 46.1021C36.5522 47.5571 36.7342 49.9766 36.7062 51.7326C36.1787 51.8346 35.8362 52.1366 35.1962 52.1166C35.0327 50.1161 34.5682 48.0126 34.3772 46.1066C34.6822 46.1006 35.0377 46.0466 35.3762 46.0606ZM25.5747 46.0821C27.2447 46.0551 28.8647 46.1531 30.2672 46.4451C30.6097 48.6716 30.4822 50.8676 30.7322 53.0501C31.0632 55.9541 30.8152 59.267 31.3822 61.988C28.2957 62.9445 24.0872 62.852 20.5952 61.792C19.0217 56.9706 18.1637 52.3941 17.5717 46.9496C19.8652 46.5206 22.7902 46.1271 25.5747 46.0821ZM32.9867 46.2741C33.5382 48.2676 33.5052 50.8041 33.7762 53.0576C32.9422 53.2406 32.3322 53.3301 31.4347 53.4651C31.2562 51.1241 31.1197 48.8176 31.1517 46.4796C31.7877 46.2666 32.3487 46.2796 32.9867 46.2741ZM40.2297 47.4221C39.5997 47.4301 39.0327 47.5671 38.7897 47.9381C39.8847 48.0281 41.1507 47.8531 42.2297 47.7391C41.7377 47.5691 40.9437 47.4126 40.2297 47.4221ZM40.0492 49.0421C39.4852 49.0491 38.9877 49.1561 38.7322 49.4306C39.8842 49.5271 41.3912 49.5511 42.6037 49.5251C42.1122 49.2961 40.9892 49.0301 40.0492 49.0421ZM32.6902 54.4101C32.8082 54.3916 32.9152 54.3876 33.0037 54.4111C33.1777 55.9336 33.7812 57.4766 33.7057 59.1441C33.0357 59.37 32.6507 59.5681 31.7522 59.5666C31.6892 58.1496 31.4992 55.9836 31.5562 54.6326C31.8872 54.6546 32.3367 54.4656 32.6902 54.4101Z" fill="#231F20"/>
<path d="M33.3821 37.243C33.0758 37.2477 32.7743 37.3194 32.4986 37.453C32.4096 39.659 32.1586 42.5525 31.5706 44.281C32.9731 42.4955 34.1036 40.416 35.2856 38.3915C34.9076 37.785 34.2211 37.2365 33.3821 37.243ZM26.9971 38.015C25.6401 38.925 24.1471 39.781 23.7656 41.433C25.7076 42.532 27.9716 43.6155 30.1876 44.2835C29.2496 42.0785 28.3976 39.7925 26.9971 38.015Z" fill="#81B0C4"/>
<path d="M31.0513 31.9727C30.4423 32.3702 29.9238 32.8662 29.3393 33.2907C28.0428 33.3547 27.3353 33.2007 26.3828 32.4562C26.3983 32.3962 26.4943 32.4232 26.4978 32.3497C27.8853 32.9682 29.6498 32.0977 31.0513 31.9727Z" fill="#F0D6B7"/>
<path d="M30.7091 38.3636C30.7091 38.4883 30.6595 38.6079 30.5713 38.6961C30.4831 38.7843 30.3635 38.8338 30.2388 38.8338C30.1141 38.8338 29.9945 38.7843 29.9063 38.6961C29.8181 38.6079 29.7686 38.4883 29.7686 38.3636C29.7686 38.2388 29.8181 38.1192 29.9063 38.031C29.9945 37.9429 30.1141 37.8933 30.2388 37.8933C30.3635 37.8933 30.4831 37.9429 30.5713 38.031C30.6595 38.1192 30.7091 38.2388 30.7091 38.3636ZM31.1796 40.5441C31.1796 40.6688 31.13 40.7885 31.0417 40.8767C30.9535 40.965 30.8338 41.0146 30.7091 41.0146C30.5843 41.0146 30.4646 40.965 30.3764 40.8767C30.2881 40.7885 30.2386 40.6688 30.2386 40.5441C30.2386 40.4193 30.2881 40.2996 30.3764 40.2114C30.4646 40.1231 30.5843 40.0736 30.7091 40.0736C30.8338 40.0736 30.9535 40.1231 31.0417 40.2114C31.13 40.2996 31.1796 40.4193 31.1796 40.5441Z" fill="#1D1919"/>
</svg>
