<svg width="30" height="52" viewBox="0 0 30 52" fill="none" xmlns="http://www.w3.org/2000/svg">
<path d="M22.4813 23.9433C22.59 25.3081 22.0164 26.6432 20.9979 27.6419C19.6826 28.9374 18.3871 30.2527 17.0916 31.558C16.3994 32.2504 15.6972 32.9525 14.995 33.6546C14.9456 33.615 14.916 33.5953 14.8863 33.5656C12.7997 31.4691 10.713 29.3725 8.62642 27.276C7.34081 25.9806 7.17269 23.9433 7.93417 22.3413C8.40885 21.3623 9.24943 20.6503 10.2581 20.2646C11.8404 19.6514 13.3238 19.9283 14.649 20.9963C14.7677 21.0854 14.8765 21.1843 14.9852 21.2831C15.0643 21.2139 15.1336 21.1546 15.1929 21.0953C17.4872 19.0482 21.0078 19.8394 22.1746 22.6874C22.3428 23.1028 22.4416 23.528 22.4813 23.9532V23.9433Z" stroke="white" stroke-linecap="round" stroke-linejoin="round"/>
<path d="M26.3065 1H3.67009C2.19544 1 1 2.19544 1 3.67009V48.3299C1 49.8046 2.19544 51 3.67009 51H26.3065C27.7812 51 28.9766 49.8046 28.9766 48.3299V3.67009C28.9766 2.19544 27.7812 1 26.3065 1Z" stroke="white" stroke-linecap="round" stroke-linejoin="round"/>
<path d="M26.3647 4.96582H3.59961V45.047H26.3647V4.96582Z" stroke="white" stroke-linecap="round" stroke-linejoin="round"/>
</svg>
