<svg width="53" height="108" viewBox="0 0 53 108" fill="none" xmlns="http://www.w3.org/2000/svg">
<path d="M6.81048 97.585H46.9911C49.7271 97.585 51.9681 99.7861 51.9681 102.531V106.337H1.8335V102.531C1.8335 99.8118 4.04839 97.585 6.81048 97.585Z" stroke="#ECEDEE" stroke-width="2" stroke-miterlimit="10"/>
<path d="M44.2881 41.7578H10.3613V49.0857H44.2881V41.7578Z" stroke="#ECEDEE" stroke-width="2" stroke-miterlimit="10"/>
<path d="M36.3548 41.7571C41.0452 41.6017 44.7974 37.64 44.7974 32.9272C44.7974 28.2147 40.8889 24.227 36.0422 24.227C34.114 24.227 32.3159 24.8484 30.8828 25.91V24.3305V18.0642H35.9641C36.7457 18.0642 37.3711 17.4427 37.3711 16.6659V10.5549C37.3711 9.77815 36.7457 9.15662 35.9641 9.15662H30.8828V2.50186C30.8828 1.67324 30.2052 1 29.3716 1H25.3066C24.4727 1 23.7951 1.67324 23.7951 2.50186V9.1825H18.714C17.9323 9.1825 17.3069 9.80387 17.3069 10.5809V16.6919C17.3069 17.4687 17.9323 18.0901 18.714 18.0901H23.7951V24.3305V25.9359C22.336 24.8744 20.5641 24.2527 18.6358 24.2527C13.7891 24.2527 9.88049 28.1369 9.88049 32.9532C9.88049 37.7694 13.6328 41.6017 18.3231 41.783" stroke="#ECEDEE" stroke-width="2" stroke-miterlimit="10"/>
<path d="M16.9266 49.1367C16.9266 49.1367 20.2881 53.1244 20.2881 58.7174C20.2881 64.3105 15.6238 69.2564 15.6238 69.2564C15.6238 69.2564 7.0769 78.0863 7.0769 87.4339C7.0769 94.1146 9.00516 96.5228 10.1256 97.3514" stroke="#ECEDEE" stroke-width="2" stroke-miterlimit="10"/>
<path d="M37.5082 49.1367C37.5082 49.1367 34.1469 53.1244 34.1469 58.7174C34.1469 64.3105 38.8112 69.2564 38.8112 69.2564C38.8112 69.2564 47.358 78.0863 47.358 87.4339C47.358 94.1146 45.4298 96.5228 44.3093 97.3514" stroke="#ECEDEE" stroke-width="2" stroke-miterlimit="10"/>
</svg>
