<svg width="58" height="32" viewBox="0 0 58 32" fill="none" xmlns="http://www.w3.org/2000/svg">
<path d="M1.01031 13.5461L18.1123 4.30396C18.1226 4.56183 18.1433 4.72686 18.1433 4.90222C18.1433 6.54228 18.133 8.17202 18.1536 9.81208C18.1536 10.2247 18.0195 10.4207 17.6585 10.5857C14.0586 12.298 10.469 14.0205 6.87946 15.7431C6.68348 15.8359 6.49781 15.9391 6.23994 16.0732C6.46687 16.197 6.62159 16.2898 6.79694 16.3723C10.4071 18.1671 14.0276 19.9722 17.6482 21.7567C18.0298 21.9423 18.1639 22.159 18.1536 22.5819C18.1226 24.1807 18.1433 25.7795 18.1433 27.3886C18.1433 27.5639 18.1433 27.7393 18.1433 28.0178C17.8751 27.8837 17.6894 27.8012 17.5038 27.7083C12.2019 24.8202 6.90009 21.932 1.58795 19.0439C1.40228 18.9407 1.19598 18.8685 1 18.786C1 17.0428 1 15.2893 1 13.5461H1.01031Z" stroke="white" stroke-miterlimit="10"/>
<path d="M21.126 31.3392C21.2085 31.0504 21.2807 30.741 21.3838 30.4625C24.9837 20.8594 28.5836 11.2562 32.1732 1.64281C32.3485 1.15801 32.5755 0.972341 33.1015 1.00329C34.0402 1.05486 34.9891 1.0136 36.0103 1.0136C32.2041 11.1634 28.4083 21.2513 24.6227 31.3496H21.126V31.3392Z" stroke="white" stroke-miterlimit="10"/>
<path d="M39.8465 4.30396C40.1044 4.42773 40.2591 4.49994 40.4138 4.58246C45.7878 7.49124 51.1619 10.4103 56.5462 13.3088C56.8763 13.4842 57.0001 13.6802 57.0001 14.0618C56.9795 15.4646 57.0001 16.8674 56.9795 18.2599C56.9795 18.4662 56.835 18.7654 56.67 18.8582C51.1825 21.8701 45.6847 24.8614 40.1972 27.8631C40.125 27.9043 40.0322 27.925 39.8981 27.9868C39.8774 27.7909 39.8568 27.6361 39.8568 27.4917C39.8568 25.8414 39.8671 24.1807 39.8465 22.5303C39.8465 22.1383 39.9909 21.9527 40.321 21.7876C43.9621 20.0031 47.6033 18.1981 51.2341 16.4033C51.3991 16.3208 51.5538 16.2382 51.7705 16.1248C51.2444 15.8669 50.7802 15.6297 50.3057 15.4027C46.9741 13.773 43.6424 12.1329 40.3107 10.5135C39.9703 10.3485 39.8362 10.1628 39.8465 9.77082C39.8671 7.98636 39.8465 6.2122 39.8465 4.30396Z" stroke="white" stroke-miterlimit="10"/>
</svg>
