<svg width="72" height="43" viewBox="0 0 72 43" fill="none" xmlns="http://www.w3.org/2000/svg">
<path d="M20.2645 15.6167C20.2645 16.5017 20.3604 17.2192 20.5277 17.7453C20.7401 18.3373 20.9958 18.9128 21.2928 19.4672C21.4124 19.6584 21.4601 19.8497 21.4601 20.0173C21.4601 20.2563 21.3168 20.4955 21.0059 20.7348L19.4993 21.7391C19.2841 21.8827 19.0688 21.9544 18.8772 21.9544C18.6383 21.9544 18.399 21.8348 18.1598 21.6195C17.8373 21.2735 17.549 20.8971 17.299 20.4955C17.0598 20.0893 16.8205 19.6345 16.5576 19.0846C14.6919 21.2846 12.3482 22.3848 9.52635 22.3849C7.5176 22.3849 5.91511 21.8108 4.74314 20.6631C3.57146 19.5148 2.97363 17.9843 2.97363 16.0712C2.97363 14.0384 3.69109 12.3883 5.14997 11.1446C6.60858 9.90103 8.54596 9.27921 11.0092 9.27921C11.8223 9.27921 12.6594 9.35087 13.5441 9.4705C14.4292 9.59012 15.3379 9.7814 16.2946 9.99667V8.25085C16.2946 6.4331 15.9118 5.16578 15.1703 4.42434C14.4052 3.68291 13.1136 3.32404 11.2722 3.32404C10.4351 3.32404 9.57432 3.41996 8.68928 3.63523C7.80424 3.85049 6.94347 4.11344 6.10639 4.44832C5.72382 4.61563 5.4369 4.71127 5.26931 4.75923C5.10173 4.80719 4.98239 4.83089 4.88675 4.83089C4.55186 4.83089 4.38456 4.59164 4.38456 4.08946V2.91749C4.38456 2.53493 4.43252 2.248 4.55186 2.0807C4.67148 1.91311 4.88675 1.74581 5.22163 1.57851C6.05862 1.14779 7.06299 0.78902 8.23477 0.502189C9.40701 0.191283 10.6506 0.0479619 11.9659 0.0479619C14.812 0.0479619 16.8927 0.693472 18.232 1.98506C19.5473 3.27636 20.2171 5.23744 20.2171 7.86829V15.6167H20.2645ZM10.5547 19.2519C11.3441 19.2519 12.1572 19.1086 13.018 18.8214C13.879 18.5344 14.6445 18.0083 15.29 17.2908C15.6728 16.8366 15.9597 16.3344 16.1031 15.7603C16.2467 15.1864 16.3423 14.4927 16.3423 13.6796V12.6752C15.617 12.4988 14.8824 12.3631 14.142 12.2687C13.3964 12.174 12.6456 12.1261 11.894 12.125C10.2915 12.125 9.11981 12.436 8.33069 13.0817C7.54158 13.7275 7.15873 14.6363 7.15873 15.8319C7.15873 16.9559 7.44565 17.793 8.04349 18.3671C8.61762 18.965 9.45469 19.2519 10.5547 19.2519ZM29.7589 21.8348C29.3284 21.8348 29.0415 21.7631 28.8502 21.5955C28.6589 21.4522 28.4913 21.1173 28.348 20.6631L22.728 2.17634C22.5841 1.69785 22.5125 1.38694 22.5125 1.21964C22.5125 0.837076 22.7037 0.62153 23.0866 0.62153H25.4302C25.8845 0.62153 26.1956 0.693472 26.3629 0.860775C26.5542 1.00438 26.6978 1.33926 26.8412 1.79349L30.859 17.6257L34.5898 1.79349C34.7094 1.31528 34.853 1.00438 35.044 0.860775C35.2356 0.717453 35.5705 0.621812 36.001 0.621812H37.9141C38.3684 0.621812 38.6796 0.693472 38.8706 0.860775C39.0621 1.00438 39.2294 1.33926 39.3251 1.79349L43.1039 17.817L47.241 1.79349C47.3844 1.31528 47.5519 1.00438 47.7192 0.860775C47.9105 0.717453 48.2214 0.621812 48.652 0.621812H50.876C51.2588 0.621812 51.4741 0.813095 51.4741 1.21964C51.4741 1.33926 51.4501 1.45889 51.4261 1.60221C51.4021 1.74553 51.3545 1.9371 51.2588 2.20032L45.4949 20.6868C45.3516 21.1653 45.1842 21.4762 44.9928 21.6195C44.8015 21.7631 44.4906 21.8588 44.0843 21.8588H42.0276C41.5731 21.8588 41.2622 21.7871 41.0706 21.6195C40.8793 21.4522 40.712 21.1413 40.6164 20.6631L36.9092 5.23744L33.2263 20.6388C33.107 21.1173 32.9633 21.4282 32.7721 21.5955C32.5808 21.7631 32.2459 21.8348 31.8156 21.8348H29.7589ZM60.4904 22.4806C59.2467 22.4806 58.0031 22.337 56.8075 22.0501C55.6115 21.7631 54.6791 21.4519 54.0573 21.0936C53.6744 20.8781 53.4112 20.6391 53.3158 20.4239C53.2228 20.2127 53.174 19.9848 53.1722 19.7541V18.5344C53.1722 18.0323 53.3635 17.793 53.7224 17.793C53.8688 17.7936 54.0142 17.8179 54.1529 17.865C54.2962 17.9129 54.5115 18.0083 54.7507 18.1039C55.5953 18.4757 56.4772 18.7563 57.3813 18.941C58.3181 19.1309 59.2715 19.2271 60.2274 19.2279C61.734 19.2279 62.9059 18.965 63.719 18.4388C64.5321 17.9126 64.9627 17.1475 64.9627 16.1668C64.9627 15.4973 64.7474 14.9472 64.3169 14.4927C63.8863 14.0382 63.0733 13.6319 61.9016 13.249L58.4336 12.173C56.6878 11.6229 55.3965 10.8098 54.6071 9.73344C53.818 8.6811 53.4115 7.50942 53.4115 6.2658C53.4115 5.26142 53.6267 4.37647 54.0573 3.61097C54.4875 2.84583 55.0616 2.17634 55.7791 1.65017C56.4965 1.10002 57.3096 0.693472 58.2663 0.406547C59.2228 0.119623 60.2271 0 61.2795 0C61.8056 0 62.3558 0.0239809 62.882 0.0956416C63.4321 0.167302 63.9343 0.262944 64.4365 0.358586C64.9147 0.478208 65.3692 0.597831 65.7997 0.741434C66.2301 0.884756 66.5649 1.02817 66.8041 1.17168C67.139 1.36325 67.378 1.55453 67.5216 1.76979C67.6651 1.96108 67.7368 2.22411 67.7368 2.55891V3.68291C67.7368 4.1851 67.5456 4.44832 67.1867 4.44832C66.9954 4.44832 66.6845 4.3524 66.2782 4.16112C64.9146 3.5393 63.384 3.2284 61.6863 3.2284C60.3231 3.2284 59.2467 3.44366 58.5053 3.89817C57.7642 4.3524 57.3813 5.04615 57.3813 6.02655C57.3813 6.69633 57.6205 7.27018 58.0988 7.72468C58.577 8.17919 59.462 8.63342 60.7296 9.03997L64.1256 10.1163C65.8474 10.6664 67.091 11.4316 67.8325 12.412C68.5739 13.3924 68.9328 14.5167 68.9328 15.7603C68.9328 16.7886 68.7172 17.7214 68.3107 18.5344C67.8804 19.3475 67.3063 20.065 66.5649 20.6391C65.8234 21.237 64.9387 21.6675 63.9103 21.9784C62.834 22.3133 61.71 22.4806 60.4904 22.4806Z" fill="white"/>
<path d="M65.0099 34.1034C57.1419 39.915 45.71 43.0001 35.881 43.0001C22.1055 43.0001 9.69348 37.9059 0.318628 29.4398C-0.422806 28.7703 0.246685 27.8616 1.13144 28.3875C11.2717 34.271 23.7796 37.8343 36.718 37.8343C45.4471 37.8343 55.0372 36.0168 63.8622 32.2859C65.1775 31.6878 66.3015 33.147 65.0099 34.1034ZM68.2865 30.3725C67.2822 29.0812 61.6379 29.7507 59.079 30.0616C58.3136 30.1576 58.1939 29.4878 58.8877 28.9856C63.3837 25.8286 70.7738 26.7376 71.6346 27.7897C72.4956 28.866 71.3953 36.2558 67.1862 39.7954C66.5407 40.3455 65.9189 40.0586 66.2058 39.3411C67.1622 36.9732 69.2909 31.6402 68.2865 30.3725Z" fill="#FF9900"/>
</svg>
