<svg width="80" height="69" viewBox="0 0 80 69" fill="none" xmlns="http://www.w3.org/2000/svg">
<path d="M68.7043 10.3946C68.7197 11.1642 69.5625 11.6286 70.2214 11.2304L72.8525 9.64015C73.5113 9.24197 73.492 8.27991 72.8178 7.90845L70.125 6.42493C69.4508 6.05346 68.6273 6.55119 68.6427 7.32084L68.7043 10.3946Z" fill="#333740"/>
<path d="M7.63887 57.6947C7.63887 57.6947 11.167 43.6762 15.5711 38.0137C24.4014 26.6605 52.998 17.7738 54.5978 31.9692C55.9892 44.3159 42.4604 49.8735 34.4564 45.2434C25.2085 39.8938 34.8791 21.7745 44.8312 13.9892C53.9182 6.8805 70.2262 8.93215 70.2262 8.93215" stroke="#333740" stroke-width="2" stroke-linecap="round"/>
</svg>
