<svg width="50" height="50" viewBox="0 0 50 50" fill="none" xmlns="http://www.w3.org/2000/svg">
<path d="M41.1393 13.236C42.1713 8.48382 40.4672 2.60638 35.2131 0.5681C31.4447 -0.893475 27.5247 0.520501 24.9964 4.17231C22.4672 0.520501 18.5472 -0.892869 14.7789 0.5681C9.52574 2.60638 7.82161 8.48382 8.85358 13.236C9.83545 17.7604 12.902 22.1042 17.7216 25.7988C21.3346 28.5681 24.6127 29.9871 24.7502 30.0462C24.8289 30.0797 24.9125 30.0968 24.9964 30.0968C25.0804 30.0968 25.164 30.0797 25.2427 30.0462C25.3803 29.9871 28.6577 28.5681 32.2707 25.7988C37.0899 22.1042 40.1568 17.7604 41.1393 13.236ZM39.9183 12.9711C39.7247 13.862 39.4512 14.7178 39.1134 15.5381C37.9869 13.5604 36.6882 12.9513 34.2456 12.1576C30.678 10.9981 30.8922 7.71367 31.0429 6.73477C31.3652 4.64104 34.799 3.07929 36.3248 2.56915C38.9933 4.38838 40.9874 8.04634 39.9183 12.9711ZM15.2311 1.73309C16.0031 1.43406 16.8645 1.25587 17.7618 1.25587C20.0497 1.25587 22.5731 2.4117 24.4561 5.65216C24.458 5.65547 24.4611 5.65767 24.463 5.66098C24.4644 5.66297 24.4643 5.6654 24.4656 5.66749C24.8683 6.31616 25.233 7.93887 24.9113 9.10754C24.7582 9.66463 23.5107 10.7339 21.9321 10.8083C18.8441 10.9541 17.3353 11.324 15.8448 14.255C15.5875 14.7609 15.4089 15.3743 15.2201 16.0236C14.8104 17.4311 14.3767 18.8715 13.1504 19.4901C11.7358 17.5876 10.6046 15.4121 10.0747 12.9711C8.80382 7.11742 11.8567 3.04271 15.2311 1.73309ZM13.9431 20.4944C15.4777 19.5934 15.9964 17.8278 16.4198 16.3727C16.5923 15.7813 16.7549 15.2229 16.959 14.8214C18.1735 12.4328 19.1834 12.1893 21.9912 12.0569C24.0246 11.9611 25.7971 10.6002 26.1166 9.43888C26.4813 8.11209 26.206 6.4106 25.7167 5.36727C28.3323 1.13167 32.0809 0.694843 34.7612 1.73309C34.8018 1.74885 34.8416 1.76998 34.882 1.78653C33.1391 2.52193 30.1824 4.10884 29.8078 6.54444C29.419 9.0697 30.2795 12.1826 33.8593 13.3464C36.4199 14.1788 37.3862 14.6671 38.4399 16.9669C37.7216 18.3307 36.8347 19.5846 35.8573 20.7237C34.544 17.2152 32.1995 15.2665 29.4447 15.478C26.7629 15.6807 24.4589 17.9179 24.0854 20.6811C23.6309 24.0437 20.7889 25.568 20.0352 25.9161C18.0518 24.5558 15.8208 22.7393 13.9431 20.4944ZM24.9964 28.7861C24.4417 28.5275 23.0052 27.8238 21.2247 26.6988C22.548 25.9301 24.8796 24.1368 25.3242 20.8484C25.6201 18.6569 27.4323 16.8835 29.5389 16.7241C31.8875 16.5473 33.8225 18.3859 34.9001 21.7744C30.9734 25.8575 26.134 28.256 24.9964 28.7861Z" fill="white"/>
<path d="M46.187 14.473C44.4322 14.6401 43.0579 16.2098 43.0579 18.0461V26.5183C41.6974 25.3851 39.6654 25.4565 38.3888 26.7325L30.8619 34.2595C30.211 34.91 29.8525 35.776 29.8525 36.6963V49.3751C29.8525 49.7205 30.1323 50 30.4774 50H41.1341C41.4791 50 41.7589 49.7205 41.7589 49.3751V43.4989C41.7589 42.971 41.9494 42.4602 42.2954 42.0611L48.4615 34.9455C49.4489 33.8067 49.9926 32.3488 49.9926 30.8414V17.924C49.9926 16.9488 49.5788 16.0139 48.8572 15.3579C48.1362 14.7018 47.1625 14.3765 46.187 14.473ZM48.7428 30.8414C48.7428 32.0485 48.3077 33.2147 47.5171 34.1264L41.3507 41.2428C40.8078 41.8695 40.5092 42.6707 40.5092 43.4989V48.7503H31.1023V36.6963C31.1023 36.1098 31.3308 35.5582 31.7456 35.1432L39.2724 27.6162C40.1372 26.752 41.5439 26.752 42.4086 27.6162C43.2731 28.4809 43.2731 29.8876 42.4086 30.7524L37.6507 35.5106C37.4066 35.7547 37.4066 36.1501 37.6507 36.3942C37.8948 36.6384 38.2902 36.6384 38.5344 36.3942L43.2923 31.6359C43.9668 30.9617 44.3047 30.0756 44.3062 29.1895C44.3071 29.1755 44.3077 29.1608 44.3077 29.1461V18.0461C44.3077 16.8469 45.1853 15.8235 46.3054 15.7167C46.9419 15.66 47.5484 15.8577 48.0166 16.2824C48.4779 16.7023 48.7428 17.3003 48.7428 17.924V30.8414Z" fill="white"/>
<path d="M7.6972 42.0606C8.04321 42.4603 8.23365 42.9711 8.23365 43.499V49.3752C8.23365 49.7206 8.51346 50.0001 8.85848 50.0001H19.5152C19.8602 50.0001 20.14 49.7206 20.14 49.3752V36.6964C20.14 35.7761 19.7816 34.9101 19.1307 34.2596L11.6037 26.7326C10.3277 25.4566 8.29588 25.3852 6.93467 26.5184V18.0462C6.93467 16.2099 5.56034 14.6402 3.80559 14.4731C2.83161 14.3772 1.85641 14.7019 1.13539 15.358C0.413757 16.0139 0 16.9489 0 17.924V30.8415C0 32.3488 0.543743 33.8068 1.53084 34.9456L7.6972 42.0606ZM1.24981 17.924C1.24981 17.3004 1.51467 16.7023 1.97603 16.2825C2.44379 15.8571 3.05222 15.6601 3.6872 15.7168C4.80732 15.8236 5.6849 16.8469 5.6849 18.0462V29.1462C5.6849 29.1609 5.68546 29.1755 5.68645 29.1896C5.68766 30.0757 6.02573 30.9618 6.70032 31.636L11.4582 36.3943C11.7024 36.6384 12.0978 36.6384 12.3419 36.3943C12.586 36.1502 12.586 35.7548 12.3419 35.5106L7.584 30.7525C6.71952 29.8877 6.71952 28.481 7.584 27.6163C8.44869 26.7521 9.85536 26.7521 10.7202 27.6163L18.247 35.1433C18.6618 35.5583 18.8903 36.1099 18.8903 36.6964V48.7502H9.48342V43.499C9.48342 42.6708 9.18474 41.8696 8.64189 41.2422L2.47522 34.1265C1.68493 33.2148 1.24981 32.0486 1.24981 30.8415V17.924Z" fill="white"/>
</svg>
