<svg width="41" height="52" viewBox="0 0 41 52" fill="none" xmlns="http://www.w3.org/2000/svg">
<path d="M2.95972 8.98581C2.95972 8.98581 8.91119 1 20.8142 1C27.9281 1 33.551 4.65175 36.9122 7.5959" stroke="#DADBDD" stroke-linecap="round" stroke-linejoin="round"/>
<path d="M1.27637 18.9303C1.27637 18.9303 8.35243 5.97852 20.7481 5.97852C28.8603 5.97852 34.875 11.8668 38.0592 15.923" stroke="#DADBDD" stroke-linecap="round" stroke-linejoin="round"/>
<path d="M1.84888 25.7158C4.61612 23.3402 6.87793 20.7499 8.68485 17.5783C11.2247 13.1305 16.2411 10.9319 21.2448 10.9319C28.3209 10.9319 33.9186 16.8202 35.1064 22.0641C35.536 23.9468 35.7128 25.9432 35.2328 27.826C34.6009 30.3405 33.5521 32.3243 34.1713 34.9904C34.74 37.4291 36.2183 39.6151 38.0379 41.3083" stroke="#DADBDD" stroke-linecap="round" stroke-linejoin="round"/>
<path d="M38.1125 19.4231C38.1125 19.4231 42.1054 26.9919 38.6685 36.0896" stroke="#DADBDD" stroke-linecap="round" stroke-linejoin="round"/>
<path d="M1.55762 32.5134C1.55762 32.5134 7.09211 28.3815 9.68244 23.8958C12.2728 19.4102 14.5852 15.8469 20.3218 15.8469C23.1902 15.8469 25.8563 17.2494 27.8022 19.2965C30.1019 21.7225 30.342 25.0331 29.9882 28.1921C29.685 30.934 28.7878 33.4233 29.2554 36.2284C29.8744 39.9307 32.0352 42.7737 35.093 44.8334" stroke="#DADBDD" stroke-linecap="round" stroke-linejoin="round"/>
<path d="M1 39.375C3.24917 37.884 5.372 36.1781 7.38109 34.3839C9.15011 32.8043 10.7675 31.1112 12.2837 29.2916C13.7243 27.5732 14.7225 25.6273 16.0872 23.8583C17.9825 21.3942 21.0278 20.5098 23.7698 22.2156C28.5966 25.2229 24.3257 31.5281 24.3257 31.5281C24.3257 31.5281 18.867 40.7018 8.29087 47.7778" stroke="#DADBDD" stroke-linecap="round" stroke-linejoin="round"/>
<path d="M20.8892 26.6379C20.8892 26.6379 16.6183 35.1797 2.75684 44.8461" stroke="#DADBDD" stroke-linecap="round" stroke-linejoin="round"/>
<path d="M24.8053 37.5552C24.8053 37.5552 22.0001 45.0483 29.152 48.9021" stroke="#DADBDD" stroke-linecap="round" stroke-linejoin="round"/>
<path d="M13.1819 49.5975C13.1819 49.5975 20.1821 40.1459 22.7725 51" stroke="#DADBDD" stroke-linecap="round" stroke-linejoin="round"/>
</svg>
