<svg width="55" height="44" viewBox="0 0 55 44" fill="none" xmlns="http://www.w3.org/2000/svg">
<path d="M36.4012 12.1479L41.1589 7.39018L41.476 5.38685C32.8061 -2.49666 19.0242 -1.60276 11.2085 7.25206C9.03777 9.71142 7.4272 12.7776 6.56836 15.9437L8.27236 15.7036L17.7876 14.1343L18.5222 13.3833C22.7549 8.73478 29.9115 8.10941 34.7985 12.0645L36.4012 12.1479Z" fill="#EA4335"/>
<path d="M47.937 15.8041C46.8435 11.7769 44.5982 8.15655 41.4766 5.38721L34.7991 12.0647C36.1907 13.2018 37.3059 14.6401 38.0607 16.2711C38.8154 17.902 39.19 19.6831 39.1562 21.4799V22.6652C42.438 22.6652 45.0992 25.3259 45.0992 28.608C45.0992 31.8903 42.4382 34.4844 39.1562 34.4844H27.2536L26.085 35.7531V42.8812L27.2536 43.9996H39.156C47.6931 44.0661 54.6679 37.2661 54.7344 28.729C54.7543 26.1813 54.1441 23.6682 52.9582 21.4132C51.7723 19.1583 50.0474 17.2314 47.937 15.8041Z" fill="#4285F4"/>
<path d="M15.367 43.9995H27.2529V34.484H15.367C14.5256 34.4837 13.6942 34.3016 12.9298 33.95L11.2436 34.4674L6.4525 39.2251L6.03516 40.8444C8.722 42.8732 12.0002 44.014 15.367 43.9995Z" fill="#34A853"/>
<path d="M15.366 13.1331C6.8289 13.1837 -0.0506044 20.146 0.000280469 28.6833C0.0143 31.0359 0.56512 33.3542 1.61077 35.4617C2.65643 37.5691 4.16932 39.4101 6.0342 40.8443L12.9289 33.9501C9.93779 32.5984 8.60837 29.0784 9.95981 26.0873C11.3113 23.0962 14.8315 21.7668 17.8224 23.118C19.1404 23.7136 20.196 24.7693 20.7914 26.0873L27.6861 19.1926C26.239 17.3008 24.3739 15.7695 22.2366 14.7183C20.0993 13.6671 17.7478 13.1244 15.366 13.1331Z" fill="#FBBC05"/>
</svg>
