<svg width="49" height="50" viewBox="0 0 49 50" fill="none" xmlns="http://www.w3.org/2000/svg">
<path fill-rule="evenodd" clip-rule="evenodd" d="M40.2832 9.24221L40.282 9.24104C39.6721 8.6311 38.8445 8.28804 37.9822 8.28857C37.1192 8.28857 36.2921 8.6311 35.6823 9.24104L35.0796 9.84379L34.4768 9.24104C33.867 8.6311 33.0398 8.28857 32.177 8.28857C31.3146 8.28804 30.4869 8.6311 29.8771 9.24104L29.8759 9.24221C28.319 10.7991 28.319 13.3234 29.8759 14.8804C31.3379 16.3423 33.1067 18.1111 34.0114 19.0158C34.2948 19.2993 34.6785 19.4586 35.0796 19.4586C35.4806 19.4586 35.8643 19.2993 36.1478 19.0158C37.0524 18.1111 38.8211 16.3423 40.2832 14.8804C41.8401 13.3234 41.8401 10.7991 40.2832 9.24221ZM39.3404 10.185C40.3763 11.2211 40.3763 12.9015 39.3404 13.9374C37.8783 15.3995 36.1095 17.1683 35.2049 18.073C35.1714 18.1064 35.1267 18.1248 35.0796 18.1243C35.0324 18.1248 34.9876 18.1064 34.9543 18.073L30.8188 13.9374C29.7828 12.9015 29.7828 11.2211 30.8188 10.185L30.8199 10.1839C31.1798 9.82407 31.6679 9.62236 32.177 9.62172C32.686 9.62236 33.1741 9.82407 33.534 10.1839L34.6081 11.2581C34.8683 11.5182 35.2908 11.5182 35.551 11.2581L36.6251 10.1839C36.985 9.82407 37.4731 9.62236 37.9822 9.62172C38.4911 9.62236 38.9793 9.82407 39.3392 10.1839L39.3404 10.185Z" fill="white"/>
<path fill-rule="evenodd" clip-rule="evenodd" d="M25.0771 20.6728C25.0771 17.6586 25.0771 10.3497 25.0771 7.33551C25.0771 6.80468 25.288 6.29656 25.6627 5.92038C26.0388 5.5457 26.5469 5.33488 27.0778 5.33488H31.7458V0.66686C31.7458 0.397455 31.9085 0.153375 32.1579 0.0506803C32.406 -0.0520144 32.6941 0.00400566 32.8848 0.194723L38.0237 5.33488H43.0824C43.6132 5.33488 44.1215 5.5457 44.4975 5.92038C44.8723 6.29656 45.083 6.80468 45.083 7.33551C45.083 10.3497 45.083 17.6586 45.083 20.6728C45.083 21.7771 44.1867 22.6734 43.0824 22.6734H27.0778C25.9734 22.6734 25.0771 21.7771 25.0771 20.6728ZM26.4109 20.6728C26.4109 21.0409 26.7096 21.3397 27.0778 21.3397H43.0824C43.4505 21.3397 43.7493 21.0409 43.7493 20.6728V7.33551C43.7493 7.15814 43.6786 6.9887 43.5546 6.86341C43.4292 6.7393 43.2599 6.66867 43.0824 6.66867H37.7476C37.5702 6.66867 37.4008 6.59794 37.2754 6.47394L33.0795 2.27668V6.00183C33.0795 6.36987 32.7808 6.66867 32.4127 6.66867H27.0778C26.9004 6.66867 26.7311 6.7393 26.6057 6.86341C26.4816 6.9887 26.4109 7.15814 26.4109 7.33551V20.6728Z" fill="white"/>
<path fill-rule="evenodd" clip-rule="evenodd" d="M14.9455 32.9914H11.5112L11.89 30.9028C11.9566 30.5413 11.7153 30.1932 11.3539 30.1279C10.9911 30.0625 10.6443 30.3026 10.5776 30.664L10.1548 32.9914H7.40205C7.03391 32.9914 6.73511 33.2901 6.73511 33.6583C6.73511 34.0264 7.03391 34.3251 7.40205 34.3251H9.91207L9.28392 37.7821H7.40205C7.03391 37.7821 6.73511 38.0809 6.73511 38.449C6.73511 38.8171 7.03391 39.1159 7.40205 39.1159H9.04117L8.66242 41.2045C8.59565 41.5659 8.83711 41.914 9.1985 41.9794C9.56129 42.0448 9.9081 41.8047 9.97477 41.4432L10.3976 39.1159H13.8319L13.4531 41.2045C13.3864 41.5659 13.6278 41.914 13.9893 41.9794C14.3521 42.0448 14.6988 41.8047 14.7654 41.4432L15.1883 39.1159H17.9411C18.3092 39.1159 18.608 38.8171 18.608 38.449C18.608 38.0809 18.3092 37.7821 17.9411 37.7821H15.431L16.0593 34.3251H17.9411C18.3092 34.3251 18.608 34.0264 18.608 33.6583C18.608 33.2901 18.3092 32.9914 17.9411 32.9914H16.3019L16.6808 30.9028C16.7474 30.5413 16.506 30.1932 16.1446 30.1279C15.7818 30.0625 15.4351 30.3026 15.3683 30.664L14.9455 32.9914ZM14.7029 34.3251H11.2685L10.6403 37.7821H14.0746L14.7029 34.3251Z" fill="white"/>
<path fill-rule="evenodd" clip-rule="evenodd" d="M2.66772 29.3273C2.66772 28.223 3.56399 27.3267 4.66831 27.3267H20.673C21.7773 27.3267 22.6735 28.223 22.6735 29.3273C22.6735 32.3416 22.6735 39.6504 22.6735 42.6646C22.6735 43.1954 22.4628 43.7036 22.088 44.0797C21.712 44.4545 21.2039 44.6652 20.673 44.6652H15.6142L10.4753 49.8054C10.2846 49.9961 9.99655 50.0521 9.74844 49.9494C9.49905 49.8467 9.33636 49.6027 9.33636 49.3333V44.6652H4.66831C4.13749 44.6652 3.62934 44.4545 3.25323 44.0797C2.87845 43.7036 2.66772 43.1954 2.66772 42.6646V29.3273ZM4.00145 29.3273V42.6646C4.00145 42.842 4.07213 43.0113 4.19618 43.1367C4.32154 43.2607 4.49093 43.3315 4.66831 43.3315H10.0032C10.3713 43.3315 10.67 43.6302 10.67 43.9983V47.7234L14.866 43.5262C14.9913 43.4021 15.1607 43.3315 15.3381 43.3315C15.3381 43.3315 18.7271 43.3315 20.673 43.3315C20.8504 43.3315 21.0197 43.2607 21.1451 43.1367C21.2691 43.0113 21.3399 42.842 21.3399 42.6646V29.3273C21.3399 28.9591 21.0411 28.6604 20.673 28.6604H4.66831C4.3002 28.6604 4.00145 28.9591 4.00145 29.3273Z" fill="white"/>
<path d="M18.8749 14.9995C18.3458 14.9995 17.9167 14.5706 17.9167 14.0414C17.9167 13.5123 18.3458 13.0833 18.8749 13.0833C19.4041 13.0833 19.833 13.5123 19.833 14.0414C19.833 14.5706 19.4041 14.9995 18.8749 14.9995Z" fill="white"/>
<path d="M14.0836 14.9995C13.5545 14.9995 13.1255 14.5706 13.1255 14.0414C13.1255 13.5123 13.5545 13.0833 14.0836 13.0833C14.6129 13.0833 15.0418 13.5123 15.0418 14.0414C15.0418 14.5706 14.6129 14.9995 14.0836 14.9995Z" fill="white"/>
<path d="M9.29285 14.9995C8.76373 14.9995 8.33472 14.5706 8.33472 14.0414C8.33472 13.5123 8.76373 13.0833 9.29285 13.0833C9.82197 13.0833 10.251 13.5123 10.251 14.0414C10.251 14.5706 9.82197 14.9995 9.29285 14.9995Z" fill="white"/>
<path fill-rule="evenodd" clip-rule="evenodd" d="M20.6727 24.0442C17.6585 24.0442 10.3497 24.0442 7.33546 24.0442C6.80462 24.0442 6.29651 23.8335 5.92044 23.4587C5.54565 23.0826 5.33494 22.5745 5.33494 22.0437V17.3756H0.666856C0.397453 17.3756 0.153374 17.2129 0.05068 16.9635C-0.0520143 16.7154 0.00400603 16.4273 0.194722 16.2366L5.33494 11.0977V6.03887C5.33494 5.50814 5.54565 4.99994 5.92044 4.62384C6.29651 4.24906 6.80462 4.03833 7.33546 4.03833C10.3497 4.03833 17.6585 4.03833 20.6727 4.03833C21.7771 4.03833 22.6733 4.9346 22.6733 6.03887V22.0437C22.6733 23.148 21.7771 24.0442 20.6727 24.0442ZM20.6727 22.7105C21.0408 22.7105 21.3396 22.4117 21.3396 22.0437V6.03887C21.3396 5.67084 21.0408 5.37203 20.6727 5.37203H7.33546C7.15808 5.37203 6.98875 5.44277 6.86335 5.56677C6.73935 5.69216 6.66862 5.8615 6.66862 6.03887V11.3738C6.66862 11.5512 6.59788 11.7206 6.47388 11.846L2.27667 16.0419H6.00178C6.36982 16.0419 6.66862 16.3406 6.66862 16.7088V22.0437C6.66862 22.2211 6.73935 22.3904 6.86335 22.5158C6.98875 22.6398 7.15808 22.7105 7.33546 22.7105H20.6727Z" fill="white"/>
<path fill-rule="evenodd" clip-rule="evenodd" d="M31.1091 32.4777H29.1899C28.8217 32.4777 28.5229 32.7764 28.5229 33.1446V39.8158C28.5229 40.1853 28.8217 40.4827 29.1899 40.4827H37.3389C38.1951 40.4827 38.9554 39.9386 39.2327 39.129L40.5985 35.1239C40.8066 34.513 40.7079 33.8381 40.3317 33.3139C39.9556 32.7884 39.3501 32.4777 38.7046 32.4777H36.684V31.6961C36.684 30.8839 36.1932 30.1517 35.441 29.8436C34.6901 29.5368 33.8272 29.7142 33.2577 30.2931L31.1091 32.4777ZM30.721 33.8114V39.149H29.8567V33.8114H30.721ZM32.0547 39.149H37.3389C37.6243 39.149 37.8778 38.9676 37.9697 38.6982L39.3354 34.693C39.4049 34.4889 39.3728 34.2648 39.2474 34.0902C39.122 33.9155 38.9194 33.8114 38.7046 33.8114H36.0172C36.0172 33.8114 35.3503 33.7554 35.3503 33.1259V31.6948C35.3503 31.4254 35.1863 31.1813 34.9355 31.0787C34.6861 30.9759 34.398 31.0346 34.2086 31.2279L32.0547 33.4167V39.149Z" fill="white"/>
<path fill-rule="evenodd" clip-rule="evenodd" d="M27.7847 46.0568C26.6804 46.0568 25.7842 45.1604 25.7842 44.0561V28.0514C25.7842 26.9471 26.6804 26.0508 27.7847 26.0508C30.799 26.0508 38.1077 26.0508 41.122 26.0508C41.6528 26.0508 42.1609 26.2616 42.537 26.6363C42.9118 27.0125 43.1225 27.5206 43.1225 28.0514V33.1103L48.2627 38.2491C48.4534 38.4398 48.5095 38.7279 48.4067 38.9759C48.304 39.2254 48.06 39.3881 47.7906 39.3881H43.1225V44.0561C43.1225 44.587 42.9118 45.0952 42.537 45.4713C42.1609 45.846 41.6528 46.0568 41.122 46.0568H27.7847ZM27.7847 44.7231H41.122C41.2993 44.7231 41.4687 44.6523 41.5941 44.5283C41.7181 44.4029 41.7888 44.2335 41.7888 44.0561V38.7213C41.7888 38.3531 42.0876 38.0543 42.4556 38.0543H46.1808L41.9835 33.8585C41.8595 33.7331 41.7888 33.5637 41.7888 33.3863C41.7888 33.3863 41.7888 29.9973 41.7888 28.0514C41.7888 27.874 41.7181 27.7046 41.5941 27.5793C41.4687 27.4552 41.2993 27.3846 41.122 27.3846H27.7847C27.4167 27.3846 27.1179 27.6833 27.1179 28.0514V44.0561C27.1179 44.4243 27.4167 44.7231 27.7847 44.7231Z" fill="white"/>
</svg>
