<svg width="100" height="100" viewBox="0 0 100 100" fill="none" xmlns="http://www.w3.org/2000/svg">
<path d="M49.995 99.9999C22.4659 99.9999 0.0469065 77.6274 0.000483034 50.0911C-0.0284912 43.5232 1.2463 37.0148 3.75098 30.9431C6.25566 24.8714 9.94042 19.3572 14.5917 14.72L19.6519 19.7623C15.6655 23.7375 12.5073 28.464 10.36 33.6682C8.21277 38.8723 7.11918 44.4507 7.14255 50.0804C7.13701 55.7102 8.2483 61.2852 10.4121 66.4826C12.5759 71.68 15.7492 76.3966 19.7483 80.3592C23.716 84.3351 28.4313 87.4864 33.6225 89.6316C38.8136 91.7767 44.3781 92.8732 49.995 92.8578H50.0664C54.7827 92.8626 59.4663 92.0755 63.922 90.5295L66.286 97.2716C61.075 99.0817 55.5971 100.004 50.0807 99.9999H49.995Z" fill="url(#paint0_linear_411_186)"/>
<path d="M46.3639 50.0268H53.506V64.3109H60.6481C62.5423 64.3109 64.3589 65.0634 65.6983 66.4028C67.0377 67.7422 67.7902 69.5588 67.7902 71.453V82.1661H60.6481V71.453H53.506V82.1661H46.3639V71.453H39.2219V82.1661H32.0798V71.453C32.0798 69.5588 32.8323 67.7422 34.1717 66.4028C35.5111 65.0634 37.3277 64.3109 39.2219 64.3109H46.3639V50.0268ZM74.9322 85.7371C75.8793 85.7371 76.7876 86.1134 77.4573 86.7831C78.127 87.4528 78.5033 88.3611 78.5033 89.3082C78.5033 90.2553 78.127 91.1636 77.4573 91.8333C76.7876 92.503 75.8793 92.8792 74.9322 92.8792C73.9851 92.8792 73.0768 92.503 72.4071 91.8333C71.7374 91.1636 71.3612 90.2553 71.3612 89.3082C71.3612 88.3611 71.7374 87.4528 72.4071 86.7831C73.0768 86.1134 73.9851 85.7371 74.9322 85.7371ZM24.9377 7.17432C25.8848 7.17432 26.7931 7.55055 27.4628 8.22025C28.1325 8.88995 28.5088 9.79826 28.5088 10.7454C28.5088 11.6925 28.1325 12.6008 27.4628 13.2705C26.7931 13.9402 25.8848 14.3164 24.9377 14.3164C23.9906 14.3164 23.0823 13.9402 22.4126 13.2705C21.7429 12.6008 21.3667 11.6925 21.3667 10.7454C21.3667 9.79826 21.7429 8.88995 22.4126 8.22025C23.0823 7.55055 23.9906 7.17432 24.9377 7.17432Z" fill="url(#paint1_linear_411_186)"/>
<path d="M67.5045 28.9791C65.9975 20.6514 58.6912 14.3164 49.935 14.3164C41.1788 14.3164 33.8725 20.6514 32.3655 28.9791C29.2369 29.725 26.4505 31.5024 24.4553 34.025C22.46 36.5476 21.372 39.6684 21.3667 42.8847C21.3667 50.7624 27.7731 57.1688 35.6508 57.1688H39.2219V50.0268H35.6508C31.712 50.0268 28.5088 46.8236 28.5088 42.8847C28.5088 38.9458 31.712 35.7426 35.6508 35.7426H39.2219V32.1716C39.2219 26.2651 44.0285 21.4585 49.935 21.4585C55.8415 21.4585 60.6481 26.2651 60.6481 32.1716V35.7426H64.2191C68.158 35.7426 71.3612 38.9494 71.3612 42.8847C71.3612 46.82 68.158 50.0268 64.2191 50.0268H60.6481V57.1688H64.2191C72.0968 57.1688 78.5033 50.7624 78.5033 42.8847C78.4979 39.6684 77.41 36.5476 75.4147 34.025C73.4195 31.5024 70.6331 29.725 67.5045 28.9791Z" fill="url(#paint2_linear_411_186)"/>
<path d="M85.2878 85.3408L80.2384 80.2878C84.2308 76.3196 87.3965 71.599 89.5523 66.3992C91.7081 61.1994 92.8112 55.6236 92.7977 49.9947C92.7977 26.3687 73.5748 7.14222 49.9453 7.14222C45.1244 7.14222 40.4642 7.91714 36.0861 9.44197L33.7363 2.69985C38.9501 0.89915 44.4293 -0.0134349 49.9453 0.000149449C77.5137 0.000149449 99.9398 22.4263 99.9398 49.9947C99.9398 63.3396 94.7368 75.8918 85.2878 85.3408Z" fill="url(#paint3_linear_411_186)"/>
<defs>
<linearGradient id="paint0_linear_411_186" x1="0" y1="57.3599" x2="66.286" y2="57.3599" gradientUnits="userSpaceOnUse">
<stop stop-color="#A95CEC"/>
<stop offset="1" stop-color="#DA22FF"/>
</linearGradient>
<linearGradient id="paint1_linear_411_186" x1="21.3667" y1="50.0268" x2="78.5033" y2="50.0268" gradientUnits="userSpaceOnUse">
<stop stop-color="#A95CEC"/>
<stop offset="1" stop-color="#DA22FF"/>
</linearGradient>
<linearGradient id="paint2_linear_411_186" x1="21.3667" y1="35.7426" x2="78.5033" y2="35.7426" gradientUnits="userSpaceOnUse">
<stop stop-color="#A95CEC"/>
<stop offset="1" stop-color="#DA22FF"/>
</linearGradient>
<linearGradient id="paint3_linear_411_186" x1="33.7363" y1="42.6704" x2="99.9398" y2="42.6704" gradientUnits="userSpaceOnUse">
<stop stop-color="#A95CEC"/>
<stop offset="1" stop-color="#DA22FF"/>
</linearGradient>
</defs>
</svg>
