<svg width="56" height="56" viewBox="0 0 56 56" fill="none" xmlns="http://www.w3.org/2000/svg">
<path d="M18.6701 0H35.2415L18.0401 54.089C17.8807 54.6326 17.5519 55.1112 17.1015 55.4549C16.6512 55.7986 16.1029 55.9896 15.5365 56H2.63779C1.91736 55.978 1.23508 55.6711 0.740739 55.1466C0.246397 54.6221 -0.0196063 53.9228 0.00112718 53.2023C0.00239796 52.8976 0.0495945 52.5947 0.141127 52.304L16.1711 1.90633C16.3311 1.36432 16.6596 0.887357 17.1089 0.544593C17.5583 0.201829 18.1051 0.0110793 18.6701 0Z" fill="#01579B"/>
<path d="M42.7466 37.3333H16.4733C16.1417 37.3424 15.8274 37.4826 15.599 37.7232C15.3707 37.9638 15.2471 38.285 15.2553 38.6166C15.2534 38.793 15.2868 38.9681 15.3533 39.1315C15.4198 39.295 15.5181 39.4435 15.6426 39.5686L32.5266 55.2393C33.0053 55.7214 33.6555 55.9941 34.3349 55.9976H49.2123L42.7466 37.3333Z" fill="#1976D2"/>
<path d="M39.8322 1.904C39.6719 1.3628 39.3436 0.886615 38.8947 0.544334C38.4459 0.202052 37.8998 0.0114165 37.3355 0H18.8672C19.432 0.0102817 19.9789 0.200128 20.4286 0.542034C20.8784 0.88394 21.2076 1.36015 21.3685 1.90167L37.3939 52.2993C37.6237 52.9902 37.58 53.7429 37.2719 54.4026C36.9637 55.0623 36.4145 55.5788 35.7372 55.846C35.466 55.9428 35.1805 55.9933 34.8925 55.9953H53.3609C54.0813 55.974 54.7638 55.6676 55.2586 55.1435C55.7533 54.6195 56.0199 53.9205 55.9999 53.2C55.9986 52.8952 55.9514 52.5924 55.8599 52.3017L39.8345 1.90633L39.8322 1.904Z" fill="#29B6F6"/>
</svg>
