<svg width="64" height="64" viewBox="0 0 64 64" fill="none" xmlns="http://www.w3.org/2000/svg">
<rect x="0.5" y="0.5" width="63" height="63" rx="11.5" fill="#22252B"/>
<rect x="0.5" y="0.5" width="63" height="63" rx="11.5" stroke="#333740"/>
<path d="M43 31.0769V36.6154H20.8462V21.8462H31.9231V20H20.8462C20.3565 20 19.8869 20.1945 19.5407 20.5407C19.1945 20.8869 19 21.3565 19 21.8462V36.6154C19 37.105 19.1945 37.5746 19.5407 37.9208C19.8869 38.267 20.3565 38.4615 20.8462 38.4615H28.2308V42.1538H24.5385V44H39.3077V42.1538H35.6154V38.4615H43C43.4896 38.4615 43.9592 38.267 44.3054 37.9208C44.6516 37.5746 44.8462 37.105 44.8462 36.6154V31.0769H43ZM33.7692 42.1538H30.0769V38.4615H33.7692V42.1538Z" fill="#B4B6BB"/>
<path d="M36.5392 30.1537L31.9238 25.5753L33.3915 24.126L36.5392 27.246L43.3792 20.4614L44.8469 21.9199L36.5392 30.1537Z" fill="#B4B6BB"/>
</svg>
