<svg width="64" height="64" viewBox="0 0 64 64" fill="none" xmlns="http://www.w3.org/2000/svg">
<rect x="0.5" y="0.5" width="63" height="63" rx="11.5" fill="#22252B"/>
<rect x="0.5" y="0.5" width="63" height="63" rx="11.5" stroke="#333740"/>
<path d="M41.3333 20H22.6667C21.2 20 20 21.2 20 22.6667V41.3333C20 42.8 21.2 44 22.6667 44H41.3333C42.8 44 44 42.8 44 41.3333V22.6667C44 21.2 42.8 20 41.3333 20ZM41.3333 41.3333H22.6667V22.6667H41.3333V41.3333ZM25.3333 29.3333H28V38.6667H25.3333V29.3333ZM30.6667 25.3333H33.3333V38.6667H30.6667V25.3333ZM36 33.3333H38.6667V38.6667H36V33.3333Z" fill="#B4B6BB"/>
</svg>
