<svg width="64" height="64" viewBox="0 0 64 64" fill="none" xmlns="http://www.w3.org/2000/svg">
<rect x="0.5" y="0.5" width="63" height="63" rx="11.5" fill="#22252B"/>
<rect x="0.5" y="0.5" width="63" height="63" rx="11.5" stroke="#333740"/>
<path d="M48.8625 29.8167H45.0553L38.5781 20.8973C38.3819 20.6278 38.1264 20.4069 37.8315 20.2515C37.5365 20.0961 37.2099 20.0104 36.8766 20.0009C36.5433 19.9914 36.2123 20.0584 35.909 20.1968C35.6057 20.3352 35.3381 20.5412 35.1268 20.7991L33.3746 22.8309L33.3473 22.8623C33.2458 22.9898 33.1168 23.0928 32.97 23.1636C32.8231 23.2344 32.6622 23.2712 32.4992 23.2712C32.3361 23.2712 32.1752 23.2344 32.0284 23.1636C31.8815 23.0928 31.7525 22.9898 31.651 22.8623L31.6237 22.8309L29.8715 20.7991C29.6602 20.5412 29.3926 20.3352 29.0893 20.1968C28.786 20.0584 28.455 19.9914 28.1217 20.0009C27.7885 20.0104 27.4618 20.0961 27.1668 20.2515C26.8719 20.4069 26.6165 20.6278 26.4202 20.8973L19.943 29.8167H16.1358C15.8465 29.8167 15.569 29.9316 15.3644 30.1362C15.1599 30.3408 15.0449 30.6182 15.0449 30.9076C15.0449 31.1969 15.1599 31.4744 15.3644 31.6789C15.569 31.8835 15.8465 31.9985 16.1358 31.9985H48.8625C49.1518 31.9985 49.4293 31.8835 49.6339 31.6789C49.8385 31.4744 49.9534 31.1969 49.9534 30.9076C49.9534 30.6182 49.8385 30.3408 49.6339 30.1362C49.4293 29.9316 49.1518 29.8167 48.8625 29.8167ZM28.182 22.1804L28.2079 22.2118L29.9601 24.2422C30.267 24.6196 30.6541 24.9238 31.0933 25.1327C31.5325 25.3416 32.0128 25.45 32.4992 25.45C32.9855 25.45 33.4658 25.3416 33.905 25.1327C34.3442 24.9238 34.7313 24.6196 35.0382 24.2422L36.7904 22.2118C36.7986 22.2009 36.8041 22.1914 36.8136 22.1804L42.3581 29.8167H22.6389L28.182 22.1804ZM39.5899 34.1802C38.3826 34.1805 37.2177 34.6256 36.3179 35.4306C35.4181 36.2356 34.8464 37.3439 34.7123 38.5438H30.286C30.1516 37.345 29.5804 36.2377 28.6816 35.4332C27.7828 34.6287 26.6192 34.1833 25.413 34.182C24.2067 34.1807 23.0421 34.6235 22.1416 35.4261C21.241 36.2287 20.6675 37.3347 20.5304 38.5332C20.3933 39.7316 20.7023 40.9386 21.3984 41.9238C22.0945 42.9089 23.129 43.6033 24.3044 43.8744C25.4798 44.1455 26.7139 43.9743 27.7712 43.3935C28.8284 42.8128 29.6348 41.863 30.0365 40.7256H34.9618C35.2618 41.5741 35.7893 42.3238 36.4866 42.8928C37.1839 43.4617 38.0243 43.8281 38.9157 43.9517C39.8072 44.0753 40.7154 43.9515 41.5413 43.5938C42.3671 43.2361 43.0787 42.6582 43.5983 41.9234C44.1179 41.1885 44.4255 40.325 44.4875 39.4272C44.5494 38.5293 44.3633 37.6317 43.9496 36.8325C43.5359 36.0332 42.9104 35.3631 42.1415 34.8953C41.3726 34.4276 40.4899 34.1802 39.5899 34.1802ZM25.4084 41.8165C24.869 41.8165 24.3417 41.6565 23.8932 41.3568C23.4447 41.0572 23.0952 40.6312 22.8887 40.1329C22.6823 39.6346 22.6283 39.0862 22.7336 38.5572C22.8388 38.0282 23.0985 37.5422 23.4799 37.1608C23.8613 36.7794 24.3473 36.5196 24.8763 36.4144C25.4053 36.3092 25.9537 36.3632 26.452 36.5696C26.9504 36.776 27.3763 37.1256 27.676 37.5741C27.9756 38.0226 28.1356 38.5498 28.1356 39.0892C28.1356 39.4474 28.0651 39.802 27.928 40.1329C27.7909 40.4638 27.5901 40.7644 27.3368 41.0177C27.0836 41.2709 26.7829 41.4718 26.452 41.6089C26.1212 41.7459 25.7665 41.8165 25.4084 41.8165ZM39.5899 41.8165C39.0505 41.8165 38.5233 41.6565 38.0748 41.3568C37.6263 41.0572 37.2767 40.6312 37.0703 40.1329C36.8639 39.6346 36.8099 39.0862 36.9151 38.5572C37.0203 38.0282 37.2801 37.5422 37.6615 37.1608C38.0429 36.7794 38.5289 36.5196 39.0579 36.4144C39.5869 36.3092 40.1353 36.3632 40.6336 36.5696C41.1319 36.776 41.5579 37.1256 41.8575 37.5741C42.1572 38.0226 42.3172 38.5498 42.3172 39.0892C42.3172 39.8125 42.0298 40.5062 41.5184 41.0177C41.0069 41.5291 40.3132 41.8165 39.5899 41.8165Z" fill="#B4B6BB"/>
</svg>
