<svg width="64" height="64" viewBox="0 0 64 64" fill="none" xmlns="http://www.w3.org/2000/svg">
<rect x="0.5" y="0.5" width="63" height="63" rx="11.5" fill="#22252B"/>
<rect x="0.5" y="0.5" width="63" height="63" rx="11.5" stroke="#333740"/>
<path d="M33.4993 36.6667C33.4993 38.1467 32.3127 39.3333 30.8327 39.3333C30.1254 39.3333 29.4472 39.0524 28.9471 38.5523C28.447 38.0522 28.166 37.3739 28.166 36.6667C28.166 35.1867 29.3527 34 30.8327 34C31.5399 34 32.2182 34.281 32.7183 34.781C33.2184 35.2811 33.4993 35.9594 33.4993 36.6667ZM32.286 43.3333C32.446 44.2933 32.7794 45.1867 33.246 46H22.8327C22.1254 46 21.4472 45.719 20.9471 45.219C20.447 44.7189 20.166 44.0406 20.166 43.3333V30C20.166 28.52 21.3527 27.3333 22.8327 27.3333H24.166V24.6667C24.166 20.9867 27.1527 18 30.8327 18C34.5127 18 37.4993 20.9867 37.4993 24.6667V27.3333H38.8327C39.5399 27.3333 40.2182 27.6143 40.7183 28.1144C41.2184 28.6145 41.4993 29.2928 41.4993 30V34.12C41.0593 34.0533 40.6194 34 40.166 34C39.7127 34 39.2727 34.0533 38.8327 34.12V30H22.8327V43.3333H32.286ZM26.8327 27.3333H34.8327V24.6667C34.8327 22.4533 33.046 20.6667 30.8327 20.6667C28.6193 20.6667 26.8327 22.4533 26.8327 24.6667V27.3333ZM43.286 37.7867L38.4993 42.5733L36.3793 40.4533L34.8327 42L38.4993 46L44.8327 39.6667L43.286 37.7867Z" fill="#B4B6BB"/>
</svg>
