<svg width="72" height="72" viewBox="0 0 72 72" fill="none" xmlns="http://www.w3.org/2000/svg">
<path d="M33.6422 0.0193755C33.4874 0.0334496 32.9947 0.0827093 32.5513 0.117895C22.3249 1.03975 12.746 6.55683 6.67918 15.0365C3.30088 19.7514 1.14018 25.0996 0.323754 30.7644C0.0351906 32.7418 0 33.3259 0 36.007C0 38.6882 0.0351906 39.2723 0.323754 41.2497C2.28035 54.7679 11.9015 66.1258 24.9501 70.334C27.2868 71.0869 29.7501 71.6006 32.5513 71.9103C33.6422 72.0299 38.3578 72.0299 39.4487 71.9103C44.2839 71.3755 48.3801 70.1792 52.4199 68.1173C53.0393 67.8006 53.1589 67.7162 53.0745 67.6458C53.0182 67.6036 50.3789 64.0639 47.2117 59.7854L41.4545 52.0094L34.2405 41.3341C30.271 35.4652 27.0053 30.6659 26.9771 30.6659C26.949 30.6589 26.9208 35.4019 26.9067 41.1934C26.8856 51.3338 26.8786 51.742 26.7519 51.9812C26.5689 52.3261 26.4282 52.4668 26.1326 52.6216C25.9073 52.7342 25.7103 52.7553 24.6475 52.7553H23.4299L23.1062 52.5512C22.895 52.4175 22.7402 52.2416 22.6346 52.0375L22.4868 51.7209L22.5009 37.6115L22.522 23.4951L22.7402 23.2207C22.8528 23.0729 23.0921 22.8829 23.261 22.7914C23.5496 22.6507 23.6622 22.6366 24.8798 22.6366C26.3155 22.6366 26.5548 22.6929 26.9279 23.101C27.0334 23.2136 30.9396 29.0966 35.6129 36.183C40.2862 43.2693 46.6768 52.9453 49.8158 57.6954L55.5167 66.3299L55.8053 66.1399C58.3601 64.4791 61.0628 62.1146 63.2023 59.6517C67.756 54.4231 70.6909 48.0475 71.6762 41.2497C71.9648 39.2723 72 38.6882 72 36.007C72 33.3259 71.9648 32.7418 71.6762 30.7644C69.7197 17.2462 60.0985 5.88831 47.0499 1.68013C44.7484 0.934197 42.2991 0.42049 39.5543 0.110858C38.8786 0.0404867 34.2264 -0.0369213 33.6422 0.0193755ZM48.3801 21.7921C48.7179 21.961 48.9924 22.2847 49.0909 22.6225C49.1472 22.8055 49.1613 26.7181 49.1472 35.5356L49.1261 48.1882L46.895 44.7682L44.6569 41.3482V32.1507C44.6569 26.2044 44.685 22.8618 44.7273 22.6999C44.8399 22.3058 45.0862 21.9962 45.424 21.8132C45.7126 21.6655 45.8182 21.6514 46.9232 21.6514C47.9648 21.6514 48.1478 21.6655 48.3801 21.7921Z" fill="#ECEDEE"/>
</svg>
