<svg width="48" height="40" viewBox="0 0 48 40" fill="none" xmlns="http://www.w3.org/2000/svg">
<mask id="path-1-outside-1_599_3754" maskUnits="userSpaceOnUse" x="0" y="0" width="48" height="40" fill="black">
<rect fill="white" width="48" height="40"/>
<path d="M2.16 20C2.16 14.496 3.216 10.16 5.328 6.992C7.472 3.824 10.912 2.24 15.648 2.24C20.384 2.24 23.808 3.824 25.92 6.992C28.064 10.16 29.136 14.496 29.136 20C29.136 25.568 28.064 29.936 25.92 33.104C23.808 36.272 20.384 37.856 15.648 37.856C10.912 37.856 7.472 36.272 5.328 33.104C3.216 29.936 2.16 25.568 2.16 20ZM21.072 20C21.072 16.768 20.72 14.288 20.016 12.56C19.312 10.8 17.856 9.92 15.648 9.92C13.44 9.92 11.984 10.8 11.28 12.56C10.576 14.288 10.224 16.768 10.224 20C10.224 22.176 10.352 23.984 10.608 25.424C10.864 26.832 11.376 27.984 12.144 28.88C12.944 29.744 14.112 30.176 15.648 30.176C17.184 30.176 18.336 29.744 19.104 28.88C19.904 27.984 20.432 26.832 20.688 25.424C20.944 23.984 21.072 22.176 21.072 20ZM33.0885 10.592V2.96H46.3845V38H37.8405V10.592H33.0885Z"/>
</mask>
<path d="M5.328 6.992L4.08572 6.15126L4.07993 6.15995L5.328 6.992ZM25.92 6.992L24.6719 7.82407L24.6777 7.83272L25.92 6.992ZM25.92 33.104L24.6777 32.2633L24.6719 32.2719L25.92 33.104ZM5.328 33.104L4.0799 33.9361L4.08575 33.9447L5.328 33.104ZM20.016 12.56L18.6233 13.1171L18.6269 13.1259L20.016 12.56ZM11.28 12.56L12.6692 13.126L12.6727 13.1171L11.28 12.56ZM10.608 25.424L9.13115 25.6866L9.1322 25.6923L10.608 25.424ZM12.144 28.88L11.0051 29.8562L11.0238 29.878L11.0434 29.8991L12.144 28.88ZM19.104 28.88L17.9851 27.881L17.9829 27.8835L19.104 28.88ZM20.688 25.424L22.1638 25.6923L22.1648 25.6865L20.688 25.424ZM2.16 20H3.66C3.66 14.6666 4.68638 10.6586 6.57608 7.82405L5.328 6.992L4.07993 6.15995C1.74562 9.6614 0.66 14.3254 0.66 20H2.16ZM5.328 6.992L6.57025 7.83272C8.3675 5.17708 11.2754 3.74 15.648 3.74V2.24V0.739997C10.5486 0.739997 6.5765 2.47092 4.08575 6.15128L5.328 6.992ZM15.648 2.24V3.74C20.0213 3.74 22.9072 5.17699 24.6719 7.82405L25.92 6.992L27.1681 6.15995C24.7088 2.471 20.7467 0.739997 15.648 0.739997V2.24ZM25.92 6.992L24.6777 7.83272C26.595 10.6657 27.636 14.6701 27.636 20H29.136H30.636C30.636 14.3219 29.533 9.65432 27.1623 6.15128L25.92 6.992ZM29.136 20H27.636C27.636 25.3981 26.5934 29.4327 24.6777 32.2633L25.92 33.104L27.1623 33.9447C29.5346 30.4393 30.636 25.7379 30.636 20H29.136ZM25.92 33.104L24.6719 32.2719C22.9072 34.919 20.0213 36.356 15.648 36.356V37.856V39.356C20.7467 39.356 24.7088 37.625 27.1681 33.9361L25.92 33.104ZM15.648 37.856V36.356C11.2754 36.356 8.3675 34.9189 6.57025 32.2633L5.328 33.104L4.08575 33.9447C6.5765 37.6251 10.5486 39.356 15.648 39.356V37.856ZM5.328 33.104L6.57608 32.2719C4.68797 29.4398 3.66 25.4016 3.66 20H2.16H0.66C0.66 25.7344 1.74403 30.4322 4.07993 33.9361L5.328 33.104ZM21.072 20H22.572C22.572 16.6951 22.2173 13.9874 21.4051 11.9941L20.016 12.56L18.6269 13.1259C19.2227 14.5886 19.572 16.8409 19.572 20H21.072ZM20.016 12.56L21.4087 12.0029C20.9501 10.8565 20.2108 9.92418 19.1719 9.29626C18.1498 8.67852 16.9457 8.42 15.648 8.42V9.92V11.42C16.5583 11.42 17.1862 11.6015 17.6201 11.8637C18.0372 12.1158 18.3779 12.5035 18.6233 13.1171L20.016 12.56ZM15.648 9.92V8.42C14.3503 8.42 13.1462 8.67852 12.1241 9.29626C11.0852 9.92418 10.3459 10.8565 9.88729 12.0029L11.28 12.56L12.6727 13.1171C12.9181 12.5035 13.2588 12.1158 13.6759 11.8637C14.1098 11.6015 14.7377 11.42 15.648 11.42V9.92ZM11.28 12.56L9.89086 11.9941C9.07874 13.9874 8.724 16.6951 8.724 20H10.224H11.724C11.724 16.8409 12.0733 14.5886 12.6691 13.1259L11.28 12.56ZM10.224 20H8.724C8.724 22.2259 8.85427 24.1291 9.13116 25.6865L10.608 25.424L12.0848 25.1614C11.8497 23.8389 11.724 22.1261 11.724 20H10.224ZM10.608 25.424L9.1322 25.6923C9.42566 27.3064 10.0307 28.7193 11.0051 29.8562L12.144 28.88L13.2829 27.9038C12.7213 27.2487 12.3023 26.3576 12.0838 25.1557L10.608 25.424ZM12.144 28.88L11.0434 29.8991C12.2071 31.1559 13.8282 31.676 15.648 31.676V30.176V28.676C14.3958 28.676 13.6809 28.3321 13.2446 27.8609L12.144 28.88ZM15.648 30.176V31.676C17.464 31.676 19.0868 31.1571 20.2251 29.8765L19.104 28.88L17.9829 27.8835C17.5852 28.3309 16.904 28.676 15.648 28.676V30.176ZM19.104 28.88L20.2229 29.879C21.2394 28.7405 21.8679 27.3196 22.1638 25.6923L20.688 25.424L19.2122 25.1557C18.9961 26.3444 18.5686 27.2275 17.9851 27.881L19.104 28.88ZM20.688 25.424L22.1648 25.6865C22.4417 24.1291 22.572 22.2259 22.572 20H21.072H19.572C19.572 22.1261 19.4463 23.8389 19.2112 25.1614L20.688 25.424ZM33.0885 10.592H31.5885V12.092H33.0885V10.592ZM33.0885 2.96V1.46H31.5885V2.96H33.0885ZM46.3845 2.96H47.8845V1.46H46.3845V2.96ZM46.3845 38V39.5H47.8845V38H46.3845ZM37.8405 38H36.3405V39.5H37.8405V38ZM37.8405 10.592H39.3405V9.092H37.8405V10.592ZM33.0885 10.592H34.5885V2.96H33.0885H31.5885V10.592H33.0885ZM33.0885 2.96V4.46H46.3845V2.96V1.46H33.0885V2.96ZM46.3845 2.96H44.8845V38H46.3845H47.8845V2.96H46.3845ZM46.3845 38V36.5H37.8405V38V39.5H46.3845V38ZM37.8405 38H39.3405V10.592H37.8405H36.3405V38H37.8405ZM37.8405 10.592V9.092H33.0885V10.592V12.092H37.8405V10.592Z" fill="#DADBDD" mask="url(#path-1-outside-1_599_3754)"/>
</svg>
