<svg width="227" height="197" viewBox="0 0 227 197" fill="none" xmlns="http://www.w3.org/2000/svg">
<g opacity="0.2">
<path d="M15.1333 0H0V15.1538H15.1333V0Z" fill="#DC1414"/>
<path d="M45.4 0H30.2667V15.1538H45.4V0Z" fill="#DC1414"/>
<path d="M60.5333 0H75.6667V15.1538H60.5333V0Z" fill="#DC1414"/>
<path d="M105.933 0H90.8V15.1538H105.933V0Z" fill="#DC1414"/>
<path d="M121.067 0H136.2V15.1538H121.067V0Z" fill="#DC1414"/>
<path d="M166.467 0H151.333V15.1538H166.467V0Z" fill="#DC1414"/>
<path d="M181.6 0H196.733V15.1538H181.6V0Z" fill="#DC1414"/>
<path d="M227 0H211.867V15.1538H227V0Z" fill="#DC1414"/>
<path d="M0 30.3077H15.1333V45.4615H0V30.3077Z" fill="#DC1414"/>
<path d="M45.4 30.3077H30.2667V45.4615H45.4V30.3077Z" fill="#DC1414"/>
<path d="M60.5333 30.3077H75.6667V45.4615H60.5333V30.3077Z" fill="#DC1414"/>
<path d="M105.933 30.3077H90.8V45.4615H105.933V30.3077Z" fill="#DC1414"/>
<path d="M121.067 30.3077H136.2V45.4615H121.067V30.3077Z" fill="#DC1414"/>
<path d="M166.467 30.3077H151.333V45.4615H166.467V30.3077Z" fill="#DC1414"/>
<path d="M181.6 30.3077H196.733V45.4615H181.6V30.3077Z" fill="#DC1414"/>
<path d="M227 30.3077H211.867V45.4615H227V30.3077Z" fill="#DC1414"/>
<path d="M0 60.6154H15.1333V75.7692H0V60.6154Z" fill="#DC1414"/>
<path d="M45.4 60.6154H30.2667V75.7692H45.4V60.6154Z" fill="#DC1414"/>
<path d="M60.5333 60.6154H75.6667V75.7692H60.5333V60.6154Z" fill="#DC1414"/>
<path d="M105.933 60.6154H90.8V75.7692H105.933V60.6154Z" fill="#DC1414"/>
<path d="M121.067 60.6154H136.2V75.7692H121.067V60.6154Z" fill="#DC1414"/>
<path d="M166.467 60.6154H151.333V75.7692H166.467V60.6154Z" fill="#DC1414"/>
<path d="M181.6 60.6154H196.733V75.7692H181.6V60.6154Z" fill="#DC1414"/>
<path d="M227 60.6154H211.867V75.7692H227V60.6154Z" fill="#DC1414"/>
<path d="M0 90.9231H15.1333V106.077H0V90.9231Z" fill="#DC1414"/>
<path d="M45.4 90.9231H30.2667V106.077H45.4V90.9231Z" fill="#DC1414"/>
<path d="M60.5333 90.9231H75.6667V106.077H60.5333V90.9231Z" fill="#DC1414"/>
<path d="M105.933 90.9231H90.8V106.077H105.933V90.9231Z" fill="#DC1414"/>
<path d="M121.067 90.9231H136.2V106.077H121.067V90.9231Z" fill="#DC1414"/>
<path d="M166.467 90.9231H151.333V106.077H166.467V90.9231Z" fill="#DC1414"/>
<path d="M181.6 90.9231H196.733V106.077H181.6V90.9231Z" fill="#DC1414"/>
<path d="M227 90.9231H211.867V106.077H227V90.9231Z" fill="#DC1414"/>
<path d="M0 121.231H15.1333V136.385H0V121.231Z" fill="#DC1414"/>
<path d="M45.4 121.231H30.2667V136.385H45.4V121.231Z" fill="#DC1414"/>
<path d="M60.5333 121.231H75.6667V136.385H60.5333V121.231Z" fill="#DC1414"/>
<path d="M105.933 121.231H90.8V136.385H105.933V121.231Z" fill="#DC1414"/>
<path d="M121.067 121.231H136.2V136.385H121.067V121.231Z" fill="#DC1414"/>
<path d="M166.467 121.231H151.333V136.385H166.467V121.231Z" fill="#DC1414"/>
<path d="M181.6 121.231H196.733V136.385H181.6V121.231Z" fill="#DC1414"/>
<path d="M227 121.231H211.867V136.385H227V121.231Z" fill="#DC1414"/>
<path d="M0 151.538H15.1333V166.692H0V151.538Z" fill="#DC1414"/>
<path d="M45.4 151.538H30.2667V166.692H45.4V151.538Z" fill="#DC1414"/>
<path d="M60.5333 151.538H75.6667V166.692H60.5333V151.538Z" fill="#DC1414"/>
<path d="M105.933 151.538H90.8V166.692H105.933V151.538Z" fill="#DC1414"/>
<path d="M121.067 151.538H136.2V166.692H121.067V151.538Z" fill="#DC1414"/>
<path d="M166.467 151.538H151.333V166.692H166.467V151.538Z" fill="#DC1414"/>
<path d="M181.6 151.538H196.733V166.692H181.6V151.538Z" fill="#DC1414"/>
<path d="M227 151.538H211.867V166.692H227V151.538Z" fill="#DC1414"/>
<path d="M0 181.846H15.1333V197H0V181.846Z" fill="#DC1414"/>
<path d="M45.4 181.846H30.2667V197H45.4V181.846Z" fill="#DC1414"/>
<path d="M60.5333 181.846H75.6667V197H60.5333V181.846Z" fill="#DC1414"/>
<path d="M105.933 181.846H90.8V197H105.933V181.846Z" fill="#DC1414"/>
<path d="M121.067 181.846H136.2V197H121.067V181.846Z" fill="#DC1414"/>
<path d="M166.467 181.846H151.333V197H166.467V181.846Z" fill="#DC1414"/>
<path d="M181.6 181.846H196.733V197H181.6V181.846Z" fill="#DC1414"/>
<path d="M227 181.846H211.867V197H227V181.846Z" fill="#DC1414"/>
</g>
</svg>
