<svg width="277" height="51" viewBox="0 0 277 51" fill="none" xmlns="http://www.w3.org/2000/svg">
<mask id="path-1-outside-1_615_776" maskUnits="userSpaceOnUse" x="0" y="0" width="277" height="51" fill="black">
<rect fill="white" width="277" height="51"/>
<path d="M33.984 48.888L28.048 41.776C26.4053 42.1867 24.7253 42.392 23.008 42.392C19.3493 42.392 15.9893 41.5333 12.928 39.816C9.86667 38.0987 7.44 35.728 5.648 32.704C3.856 29.6427 2.96 26.1893 2.96 22.344C2.96 18.536 3.856 15.12 5.648 12.096C7.44 9.03466 9.86667 6.64533 12.928 4.928C15.9893 3.21067 19.3493 2.352 23.008 2.352C26.704 2.352 30.064 3.21067 33.088 4.928C36.1493 6.64533 38.5573 9.03466 40.312 12.096C42.104 15.12 43 18.536 43 22.344C43 25.816 42.2533 28.9893 40.76 31.864C39.304 34.7013 37.3067 37.016 34.768 38.808L43.728 48.888H33.984ZM11.024 22.344C11.024 24.9573 11.528 27.2533 12.536 29.232C13.544 31.2107 14.944 32.7413 16.736 33.824C18.5653 34.8693 20.656 35.392 23.008 35.392C25.36 35.392 27.432 34.8693 29.224 33.824C31.016 32.7413 32.416 31.2107 33.424 29.232C34.432 27.2533 34.936 24.9573 34.936 22.344C34.936 19.7307 34.432 17.4533 33.424 15.512C32.416 13.5333 31.016 12.0213 29.224 10.976C27.432 9.93067 25.36 9.408 23.008 9.408C20.656 9.408 18.5653 9.93067 16.736 10.976C14.944 12.0213 13.544 13.5333 12.536 15.512C11.528 17.4533 11.024 19.7307 11.024 22.344ZM78.7901 10.976V42H70.8941V38.08C69.8861 39.424 68.5608 40.488 66.9181 41.272C65.3128 42.0187 63.5581 42.392 61.6541 42.392C59.2275 42.392 57.0808 41.888 55.2141 40.88C53.3475 39.8347 51.8728 38.3227 50.7901 36.344C49.7448 34.328 49.2221 31.9387 49.2221 29.176V10.976H57.0621V28.056C57.0621 30.52 57.6781 32.424 58.9101 33.768C60.1421 35.0747 61.8221 35.728 63.9501 35.728C66.1155 35.728 67.8141 35.0747 69.0461 33.768C70.2781 32.424 70.8941 30.52 70.8941 28.056V10.976H78.7901ZM85.0696 26.376C85.0696 23.24 85.6856 20.4587 86.9176 18.032C88.1869 15.6053 89.8856 13.7387 92.0136 12.432C94.1789 11.1253 96.5869 10.472 99.2376 10.472C101.552 10.472 103.568 10.9387 105.286 11.872C107.04 12.8053 108.44 13.9813 109.486 15.4V10.976H117.382V42H109.486V37.464C108.478 38.92 107.078 40.1333 105.286 41.104C103.531 42.0373 101.496 42.504 99.1816 42.504C96.5682 42.504 94.1789 41.832 92.0136 40.488C89.8856 39.144 88.1869 37.2587 86.9176 34.832C85.6856 32.368 85.0696 29.5493 85.0696 26.376ZM109.486 26.488C109.486 24.584 109.112 22.96 108.366 21.616C107.619 20.2347 106.611 19.1893 105.342 18.48C104.072 17.7333 102.71 17.36 101.254 17.36C99.7976 17.36 98.4536 17.7147 97.2216 18.424C95.9896 19.1333 94.9816 20.1787 94.1976 21.56C93.4509 22.904 93.0776 24.5093 93.0776 26.376C93.0776 28.2427 93.4509 29.8853 94.1976 31.304C94.9816 32.6853 95.9896 33.7493 97.2216 34.496C98.4909 35.2427 99.8349 35.616 101.254 35.616C102.71 35.616 104.072 35.2613 105.342 34.552C106.611 33.8053 107.619 32.76 108.366 31.416C109.112 30.0347 109.486 28.392 109.486 26.488ZM142.791 10.528C146.487 10.528 149.473 11.704 151.751 14.056C154.028 16.3707 155.167 19.6187 155.167 23.8V42H147.327V24.864C147.327 22.4 146.711 20.5147 145.479 19.208C144.247 17.864 142.567 17.192 140.439 17.192C138.273 17.192 136.556 17.864 135.287 19.208C134.055 20.5147 133.439 22.4 133.439 24.864V42H125.599V10.976H133.439V14.84C134.484 13.496 135.809 12.4507 137.415 11.704C139.057 10.92 140.849 10.528 142.791 10.528ZM172.31 17.416V32.424C172.31 33.4693 172.553 34.2347 173.038 34.72C173.561 35.168 174.419 35.392 175.614 35.392H179.254V42H174.326C167.718 42 164.414 38.7893 164.414 32.368V17.416H160.718V10.976H164.414V3.304H172.31V10.976H179.254V17.416H172.31ZM214.741 10.976V42H206.845V38.08C205.837 39.424 204.512 40.488 202.869 41.272C201.264 42.0187 199.509 42.392 197.605 42.392C195.178 42.392 193.032 41.888 191.165 40.88C189.298 39.8347 187.824 38.3227 186.741 36.344C185.696 34.328 185.173 31.9387 185.173 29.176V10.976H193.013V28.056C193.013 30.52 193.629 32.424 194.861 33.768C196.093 35.0747 197.773 35.728 199.901 35.728C202.066 35.728 203.765 35.0747 204.997 33.768C206.229 32.424 206.845 30.52 206.845 28.056V10.976H214.741ZM261.565 10.528C265.373 10.528 268.434 11.704 270.749 14.056C273.101 16.3707 274.277 19.6187 274.277 23.8V42H266.437V24.864C266.437 22.4373 265.821 20.5893 264.589 19.32C263.357 18.0133 261.677 17.36 259.549 17.36C257.421 17.36 255.722 18.0133 254.453 19.32C253.221 20.5893 252.605 22.4373 252.605 24.864V42H244.765V24.864C244.765 22.4373 244.149 20.5893 242.917 19.32C241.685 18.0133 240.005 17.36 237.877 17.36C235.711 17.36 233.994 18.0133 232.725 19.32C231.493 20.5893 230.877 22.4373 230.877 24.864V42H223.037V10.976H230.877V14.728C231.885 13.4213 233.173 12.3947 234.741 11.648C236.346 10.9013 238.101 10.528 240.005 10.528C242.431 10.528 244.597 11.0507 246.501 12.096C248.405 13.104 249.879 14.56 250.925 16.464C251.933 14.672 253.389 13.2347 255.293 12.152C257.234 11.0693 259.325 10.528 261.565 10.528Z"/>
</mask>
<path d="M33.984 48.888L32.4486 50.1696L33.0482 50.888H33.984V48.888ZM28.048 41.776L29.5835 40.4944L28.7797 39.5315L27.5629 39.8357L28.048 41.776ZM12.928 39.816L13.9065 38.0717L12.928 39.816ZM5.648 32.704L3.92195 33.7144L3.92742 33.7236L5.648 32.704ZM5.648 12.096L7.36861 13.1156L7.37403 13.1064L5.648 12.096ZM12.928 4.928L11.9495 3.18371L11.9495 3.18371L12.928 4.928ZM33.088 4.928L32.1003 6.66714L32.1095 6.67228L33.088 4.928ZM40.312 12.096L38.5768 13.0906L38.584 13.1031L38.5914 13.1156L40.312 12.096ZM40.76 31.864L38.9852 30.942L38.9806 30.9509L40.76 31.864ZM34.768 38.808L33.6146 37.1741L31.7867 38.4644L33.2732 40.1367L34.768 38.808ZM43.728 48.888V50.888H48.1817L45.2228 47.5593L43.728 48.888ZM12.536 29.232L14.3181 28.3241L12.536 29.232ZM16.736 33.824L15.7018 35.5358L15.7226 35.5484L15.7437 35.5605L16.736 33.824ZM29.224 33.824L30.2317 35.5516L30.245 35.5438L30.2582 35.5358L29.224 33.824ZM33.424 29.232L35.2061 30.1399V30.1398L33.424 29.232ZM33.424 15.512L31.6419 16.4199L31.6454 16.4268L31.649 16.4336L33.424 15.512ZM29.224 10.976L28.2163 12.7036V12.7036L29.224 10.976ZM16.736 10.976L15.7437 9.23951L15.736 9.24394L15.7283 9.24844L16.736 10.976ZM12.536 15.512L14.311 16.4336L14.3146 16.4268L14.3181 16.4199L12.536 15.512ZM33.984 48.888L35.5195 47.6064L29.5835 40.4944L28.048 41.776L26.5126 43.0576L32.4486 50.1696L33.984 48.888ZM28.048 41.776L27.5629 39.8357C26.0812 40.2062 24.5642 40.392 23.008 40.392V42.392V44.392C24.8865 44.392 26.7295 44.1672 28.5331 43.7163L28.048 41.776ZM23.008 42.392V40.392C19.6769 40.392 16.6561 39.6142 13.9065 38.0717L12.928 39.816L11.9495 41.5603C15.3226 43.4525 19.0217 44.392 23.008 44.392V42.392ZM12.928 39.816L13.9065 38.0717C11.1524 36.5267 8.98152 34.4062 7.36858 31.6844L5.648 32.704L3.92742 33.7236C5.89848 37.0498 8.58092 39.6706 11.9495 41.5603L12.928 39.816ZM5.648 32.704L7.37403 31.6936C5.77639 28.9643 4.96 25.865 4.96 22.344H2.96H0.96C0.96 26.5137 1.93561 30.321 3.92197 33.7144L5.648 32.704ZM2.96 22.344H4.96C4.96 18.8639 5.77463 15.8054 7.36858 13.1156L5.648 12.096L3.92742 11.0764C1.93737 14.4346 0.96 18.2081 0.96 22.344H2.96ZM5.648 12.096L7.37403 13.1064C8.98849 10.3483 11.1586 8.21381 13.9065 6.67228L12.928 4.928L11.9495 3.18371C8.57477 5.07685 5.89151 7.721 3.92197 11.0856L5.648 12.096ZM12.928 4.928L13.9065 6.67228C16.6561 5.12984 19.6769 4.352 23.008 4.352V2.352V0.352C19.0217 0.352 15.3226 1.29149 11.9495 3.18371L12.928 4.928ZM23.008 2.352V4.352C26.3803 4.352 29.3964 5.13156 32.1004 6.66712L33.088 4.928L34.0756 3.18887C30.7316 1.28977 27.0277 0.352 23.008 0.352V2.352ZM33.088 4.928L32.1095 6.67228C34.8537 8.21173 37.001 10.3412 38.5768 13.0906L40.312 12.096L42.0472 11.1014C40.1137 7.72813 37.4449 5.07893 34.0665 3.18371L33.088 4.928ZM40.312 12.096L38.5914 13.1156C40.1854 15.8054 41 18.8639 41 22.344H43H45C45 18.2081 44.0226 14.4346 42.0326 11.0764L40.312 12.096ZM43 22.344H41C41 25.5187 40.32 28.3724 38.9852 30.942L40.76 31.864L42.5348 32.786C44.1866 29.6062 45 26.1133 45 22.344H43ZM40.76 31.864L38.9806 30.9509C37.668 33.5088 35.8824 35.5733 33.6146 37.1741L34.768 38.808L35.9214 40.4419C38.7309 38.4587 40.94 35.8939 42.5394 32.7771L40.76 31.864ZM34.768 38.808L33.2732 40.1367L42.2332 50.2167L43.728 48.888L45.2228 47.5593L36.2628 37.4793L34.768 38.808ZM43.728 48.888V46.888H33.984V48.888V50.888H43.728V48.888ZM11.024 22.344H9.024C9.024 25.2173 9.57939 27.8343 10.7539 30.1399L12.536 29.232L14.3181 28.3241C13.4766 26.6724 13.024 24.6974 13.024 22.344H11.024ZM12.536 29.232L10.7539 30.1399C11.9206 32.43 13.5707 34.2483 15.7018 35.5358L16.736 33.824L17.7702 32.1122C16.3173 31.2343 15.1674 29.9914 14.3181 28.3241L12.536 29.232ZM16.736 33.824L15.7437 35.5605C17.9093 36.7979 20.3493 37.392 23.008 37.392V35.392V33.392C20.9627 33.392 19.2214 32.9407 17.7283 32.0875L16.736 33.824ZM23.008 35.392V37.392C25.6659 37.392 28.0947 36.7982 30.2317 35.5516L29.224 33.824L28.2163 32.0964C26.7693 32.9405 25.0542 33.392 23.008 33.392V35.392ZM29.224 33.824L30.2582 35.5358C32.3893 34.2483 34.0394 32.43 35.2061 30.1399L33.424 29.232L31.6419 28.3241C30.7926 29.9914 29.6427 31.2343 28.1898 32.1122L29.224 33.824ZM33.424 29.232L35.2061 30.1398C36.3806 27.8343 36.936 25.2173 36.936 22.344H34.936H32.936C32.936 24.6974 32.4834 26.6724 31.6419 28.3241L33.424 29.232ZM34.936 22.344H36.936C36.936 19.4719 36.381 16.8668 35.199 14.5904L33.424 15.512L31.649 16.4336C32.483 18.0398 32.936 19.9894 32.936 22.344H34.936ZM33.424 15.512L35.2061 14.6041C34.0367 12.3088 32.3787 10.5008 30.2317 9.24844L29.224 10.976L28.2163 12.7036C29.6533 13.5418 30.7953 14.7579 31.6419 16.4199L33.424 15.512ZM29.224 10.976L30.2317 9.24844C28.0947 8.00184 25.6659 7.408 23.008 7.408V9.408V11.408C25.0542 11.408 26.7693 11.8595 28.2163 12.7036L29.224 10.976ZM23.008 9.408V7.408C20.3493 7.408 17.9093 8.00207 15.7437 9.23951L16.736 10.976L17.7283 12.7125C19.2214 11.8593 20.9627 11.408 23.008 11.408V9.408ZM16.736 10.976L15.7283 9.24844C13.5813 10.5008 11.9233 12.3088 10.7539 14.6041L12.536 15.512L14.3181 16.4199C15.1647 14.7579 16.3067 13.5418 17.7437 12.7036L16.736 10.976ZM12.536 15.512L10.761 14.5904C9.579 16.8668 9.024 19.4719 9.024 22.344H11.024H13.024C13.024 19.9894 13.477 18.0398 14.311 16.4336L12.536 15.512ZM78.7901 10.976H80.7901V8.976H78.7901V10.976ZM78.7901 42V44H80.7901V42H78.7901ZM70.8941 42H68.8941V44H70.8941V42ZM70.8941 38.08H72.8941V32.08L69.2941 36.88L70.8941 38.08ZM66.9181 41.272L67.7616 43.0854L67.7706 43.0812L67.7796 43.077L66.9181 41.272ZM55.2141 40.88L54.2369 42.625L54.2503 42.6325L54.2638 42.6398L55.2141 40.88ZM50.7901 36.344L49.0146 37.2646L49.0249 37.2844L49.0356 37.304L50.7901 36.344ZM49.2221 10.976V8.976H47.2221V10.976H49.2221ZM57.0621 10.976H59.0621V8.976H57.0621V10.976ZM58.9101 33.768L57.4358 35.1194L57.4453 35.1298L57.4549 35.14L58.9101 33.768ZM69.0461 33.768L70.5013 35.14L70.5109 35.1298L70.5204 35.1194L69.0461 33.768ZM70.8941 10.976V8.976H68.8941V10.976H70.8941ZM78.7901 10.976H76.7901V42H78.7901H80.7901V10.976H78.7901ZM78.7901 42V40H70.8941V42V44H78.7901V42ZM70.8941 42H72.8941V38.08H70.8941H68.8941V42H70.8941ZM70.8941 38.08L69.2941 36.88C68.4958 37.9445 67.4328 38.8102 66.0567 39.467L66.9181 41.272L67.7796 43.077C69.6888 42.1658 71.2765 40.9035 72.4941 39.28L70.8941 38.08ZM66.9181 41.272L66.0747 39.4586C64.7531 40.0732 63.2891 40.392 61.6541 40.392V42.392V44.392C63.8272 44.392 65.8725 43.9641 67.7616 43.0854L66.9181 41.272ZM61.6541 42.392V40.392C59.511 40.392 57.6995 39.9491 56.1644 39.1202L55.2141 40.88L54.2638 42.6398C56.4621 43.8269 58.9439 44.392 61.6541 44.392V42.392ZM55.2141 40.88L56.1913 39.135C54.6705 38.2833 53.4573 37.0519 52.5447 35.384L50.7901 36.344L49.0356 37.304C50.2883 39.5934 52.0245 41.386 54.2369 42.625L55.2141 40.88ZM50.7901 36.344L52.5656 35.4234C51.6964 33.747 51.2221 31.6868 51.2221 29.176H49.2221H47.2221C47.2221 32.1905 47.7932 34.909 49.0146 37.2646L50.7901 36.344ZM49.2221 29.176H51.2221V10.976H49.2221H47.2221V29.176H49.2221ZM49.2221 10.976V12.976H57.0621V10.976V8.976H49.2221V10.976ZM57.0621 10.976H55.0621V28.056H57.0621H59.0621V10.976H57.0621ZM57.0621 28.056H55.0621C55.0621 30.8419 55.7619 33.2933 57.4358 35.1194L58.9101 33.768L60.3844 32.4166C59.5944 31.5547 59.0621 30.1981 59.0621 28.056H57.0621ZM58.9101 33.768L57.4549 35.14C59.1345 36.9213 61.3818 37.728 63.9501 37.728V35.728V33.728C62.2625 33.728 61.1498 33.228 60.3653 32.396L58.9101 33.768ZM63.9501 35.728V37.728C66.5441 37.728 68.815 36.9285 70.5013 35.14L69.0461 33.768L67.591 32.396C66.8132 33.2208 65.6869 33.728 63.9501 33.728V35.728ZM69.0461 33.768L70.5204 35.1194C72.1944 33.2933 72.8941 30.8419 72.8941 28.056H70.8941H68.8941C68.8941 30.1981 68.3619 31.5547 67.5718 32.4165L69.0461 33.768ZM70.8941 28.056H72.8941V10.976H70.8941H68.8941V28.056H70.8941ZM70.8941 10.976V12.976H78.7901V10.976V8.976H70.8941V10.976ZM86.9176 18.032L85.1454 17.105L85.1397 17.1158L85.1342 17.1266L86.9176 18.032ZM92.0136 12.432L90.9802 10.7196L90.9736 10.7236L90.967 10.7277L92.0136 12.432ZM105.286 11.872L104.331 13.6292L104.338 13.6335L104.346 13.6377L105.286 11.872ZM109.486 15.4L107.875 16.5864L111.486 21.4858V15.4H109.486ZM109.486 10.976V8.976H107.486V10.976H109.486ZM117.382 10.976H119.382V8.976H117.382V10.976ZM117.382 42V44H119.382V42H117.382ZM109.486 42H107.486V44H109.486V42ZM109.486 37.464H111.486V31.0615L107.841 36.3256L109.486 37.464ZM105.286 41.104L106.225 42.8697L106.231 42.8662L106.238 42.8626L105.286 41.104ZM92.0136 40.488L90.9456 42.179L90.9522 42.1832L90.9588 42.1873L92.0136 40.488ZM86.9176 34.832L85.1287 35.7264L85.1369 35.7428L85.1454 35.759L86.9176 34.832ZM108.366 21.616L106.606 22.567L106.612 22.5772L106.617 22.5873L108.366 21.616ZM105.342 18.48L104.328 20.2039L104.347 20.2151L104.366 20.2259L105.342 18.48ZM97.2216 18.424L96.2236 16.6908L96.2236 16.6908L97.2216 18.424ZM94.1976 21.56L92.4582 20.5728L92.4537 20.5807L92.4492 20.5887L94.1976 21.56ZM94.1976 31.304L92.4277 32.2355L92.4425 32.2636L92.4582 32.2912L94.1976 31.304ZM97.2216 34.496L96.185 36.2064L96.1962 36.2132L96.2075 36.2199L97.2216 34.496ZM105.342 34.552L106.317 36.2979L106.337 36.2871L106.356 36.2759L105.342 34.552ZM108.366 31.416L110.114 32.3873L110.119 32.3772L110.125 32.367L108.366 31.416ZM85.0696 26.376H87.0696C87.0696 23.5066 87.6316 21.0436 88.7009 18.9374L86.9176 18.032L85.1342 17.1266C83.7395 19.8738 83.0696 22.9734 83.0696 26.376H85.0696ZM86.9176 18.032L88.6898 18.959C89.8085 16.8203 91.269 15.2361 93.0601 14.1363L92.0136 12.432L90.967 10.7277C88.5021 12.2412 86.5653 14.3904 85.1454 17.105L86.9176 18.032ZM92.0136 12.432L93.0469 14.1444C94.8851 13.0351 96.9328 12.472 99.2376 12.472V10.472V8.472C96.241 8.472 93.4727 9.21555 90.9802 10.7196L92.0136 12.432ZM99.2376 10.472V12.472C101.28 12.472 102.956 12.8822 104.331 13.6292L105.286 11.872L106.241 10.1147C104.181 8.99514 101.824 8.472 99.2376 8.472V10.472ZM105.286 11.872L104.346 13.6377C105.871 14.4486 107.029 15.4377 107.875 16.5864L109.486 15.4L111.096 14.2136C109.851 12.5249 108.21 11.162 106.225 10.1063L105.286 11.872ZM109.486 15.4H111.486V10.976H109.486H107.486V15.4H109.486ZM109.486 10.976V12.976H117.382V10.976V8.976H109.486V10.976ZM117.382 10.976H115.382V42H117.382H119.382V10.976H117.382ZM117.382 42V40H109.486V42V44H117.382V42ZM109.486 42H111.486V37.464H109.486H107.486V42H109.486ZM109.486 37.464L107.841 36.3256C107.037 37.487 105.891 38.5017 104.333 39.3454L105.286 41.104L106.238 42.8626C108.264 41.765 109.918 40.353 111.13 38.6024L109.486 37.464ZM105.286 41.104L104.346 39.3383C102.925 40.0942 101.223 40.504 99.1816 40.504V42.504V44.504C101.77 44.504 104.137 43.9804 106.225 42.8697L105.286 41.104ZM99.1816 42.504V40.504C96.931 40.504 94.9086 39.931 93.0683 38.7887L92.0136 40.488L90.9588 42.1873C93.4492 43.733 96.2055 44.504 99.1816 44.504V42.504ZM92.0136 40.488L93.0816 38.797C91.2774 37.6576 89.8106 36.0478 88.6898 33.905L86.9176 34.832L85.1454 35.759C86.5632 38.4696 88.4937 40.6304 90.9456 42.179L92.0136 40.488ZM86.9176 34.832L88.7064 33.9376C87.633 31.7907 87.0696 29.2861 87.0696 26.376H85.0696H83.0696C83.0696 29.8126 83.7382 32.9453 85.1287 35.7264L86.9176 34.832ZM109.486 26.488H111.486C111.486 24.3242 111.061 22.3487 110.114 20.6447L108.366 21.616L106.617 22.5873C107.164 23.5713 107.486 24.8438 107.486 26.488H109.486ZM108.366 21.616L110.125 20.665C109.213 18.9774 107.944 17.6435 106.317 16.7341L105.342 18.48L104.366 20.2259C105.277 20.7352 106.025 21.4919 106.606 22.567L108.366 21.616ZM105.342 18.48L106.356 16.7561C104.783 15.8308 103.07 15.36 101.254 15.36V17.36V19.36C102.349 19.36 103.362 19.6358 104.328 20.2039L105.342 18.48ZM101.254 17.36V15.36C99.4562 15.36 97.7668 15.8023 96.2236 16.6908L97.2216 18.424L98.2195 20.1572C99.1404 19.6271 100.139 19.36 101.254 19.36V17.36ZM97.2216 18.424L96.2236 16.6908C94.6472 17.5984 93.3972 18.9184 92.4582 20.5728L94.1976 21.56L95.9369 22.5472C96.5659 21.439 97.3319 20.6683 98.2195 20.1572L97.2216 18.424ZM94.1976 21.56L92.4492 20.5887C91.5056 22.2872 91.0776 24.2418 91.0776 26.376H93.0776H95.0776C95.0776 24.7769 95.3962 23.5208 95.9459 22.5313L94.1976 21.56ZM93.0776 26.376H91.0776C91.0776 28.5137 91.5068 30.4857 92.4277 32.2355L94.1976 31.304L95.9674 30.3725C95.395 29.2849 95.0776 27.9716 95.0776 26.376H93.0776ZM94.1976 31.304L92.4582 32.2912C93.3931 33.9385 94.6316 35.2649 96.185 36.2064L97.2216 34.496L98.2582 32.7856C97.3476 32.2337 96.57 31.4322 95.9369 30.3168L94.1976 31.304ZM97.2216 34.496L96.2075 36.2199C97.772 37.1401 99.4644 37.616 101.254 37.616V35.616V33.616C100.205 33.616 99.2098 33.3452 98.2356 32.7721L97.2216 34.496ZM101.254 35.616V37.616C103.051 37.616 104.749 37.1741 106.317 36.2979L105.342 34.552L104.366 32.8061C103.395 33.3486 102.368 33.616 101.254 33.616V35.616ZM105.342 34.552L106.356 36.2759C107.946 35.3402 109.202 34.0288 110.114 32.3873L108.366 31.416L106.617 30.4447C106.036 31.4912 105.276 32.2705 104.328 32.8281L105.342 34.552ZM108.366 31.416L110.125 32.367C111.06 30.6376 111.486 28.654 111.486 26.488H109.486H107.486C107.486 28.13 107.165 29.4317 106.606 30.465L108.366 31.416ZM151.751 14.056L150.314 15.4472L150.319 15.453L150.325 15.4587L151.751 14.056ZM155.167 42V44H157.167V42H155.167ZM147.327 42H145.327V44H147.327V42ZM145.479 19.208L144.004 20.5594L144.014 20.5698L144.024 20.58L145.479 19.208ZM135.287 19.208L133.833 17.8348L133.832 17.836L135.287 19.208ZM133.439 42V44H135.439V42H133.439ZM125.599 42H123.599V44H125.599V42ZM125.599 10.976V8.976H123.599V10.976H125.599ZM133.439 10.976H135.439V8.976H133.439V10.976ZM133.439 14.84H131.439V20.6691L135.017 16.0679L133.439 14.84ZM137.415 11.704L138.258 13.5174L138.267 13.5132L138.276 13.509L137.415 11.704ZM142.791 10.528V12.528C146.022 12.528 148.463 13.5361 150.314 15.4472L151.751 14.056L153.188 12.6648C150.483 9.87191 146.952 8.528 142.791 8.528V10.528ZM151.751 14.056L150.325 15.4587C152.137 17.3002 153.167 19.986 153.167 23.8H155.167H157.167C157.167 19.2514 155.919 15.4411 153.176 12.6533L151.751 14.056ZM155.167 23.8H153.167V42H155.167H157.167V23.8H155.167ZM155.167 42V40H147.327V42V44H155.167V42ZM147.327 42H149.327V24.864H147.327H145.327V42H147.327ZM147.327 24.864H149.327C149.327 22.0822 148.629 19.6334 146.934 17.836L145.479 19.208L144.024 20.58C144.793 21.396 145.327 22.7178 145.327 24.864H147.327ZM145.479 19.208L146.953 17.8566C145.278 16.0293 143.025 15.192 140.439 15.192V17.192V19.192C142.109 19.192 143.215 19.6987 144.004 20.5594L145.479 19.208ZM140.439 17.192V15.192C137.826 15.192 135.545 16.0218 133.833 17.8348L135.287 19.208L136.741 20.5812C137.567 19.7062 138.721 19.192 140.439 19.192V17.192ZM135.287 19.208L133.832 17.836C132.137 19.6334 131.439 22.0822 131.439 24.864H133.439H135.439C135.439 22.7178 135.973 21.396 136.742 20.58L135.287 19.208ZM133.439 24.864H131.439V42H133.439H135.439V24.864H133.439ZM133.439 42V40H125.599V42V44H133.439V42ZM125.599 42H127.599V10.976H125.599H123.599V42H125.599ZM125.599 10.976V12.976H133.439V10.976V8.976H125.599V10.976ZM133.439 10.976H131.439V14.84H133.439H135.439V10.976H133.439ZM133.439 14.84L135.017 16.0679C135.86 14.9848 136.929 14.1356 138.258 13.5174L137.415 11.704L136.571 9.89056C134.69 10.7657 133.108 12.0072 131.86 13.6121L133.439 14.84ZM137.415 11.704L138.276 13.509C139.632 12.8618 141.127 12.528 142.791 12.528V10.528V8.528C140.572 8.528 138.483 8.97819 136.553 9.89904L137.415 11.704ZM172.31 17.416V15.416H170.31V17.416H172.31ZM173.038 34.72L171.624 36.1342L171.678 36.1885L171.737 36.2385L173.038 34.72ZM179.254 35.392H181.254V33.392H179.254V35.392ZM179.254 42V44H181.254V42H179.254ZM164.414 17.416H166.414V15.416H164.414V17.416ZM160.718 17.416H158.718V19.416H160.718V17.416ZM160.718 10.976V8.976H158.718V10.976H160.718ZM164.414 10.976V12.976H166.414V10.976H164.414ZM164.414 3.304V1.304H162.414V3.304H164.414ZM172.31 3.304H174.31V1.304H172.31V3.304ZM172.31 10.976H170.31V12.976H172.31V10.976ZM179.254 10.976H181.254V8.976H179.254V10.976ZM179.254 17.416V19.416H181.254V17.416H179.254ZM172.31 17.416H170.31V32.424H172.31H174.31V17.416H172.31ZM172.31 32.424H170.31C170.31 33.7273 170.607 35.1173 171.624 36.1342L173.038 34.72L174.452 33.3058C174.499 33.3521 174.31 33.2114 174.31 32.424H172.31ZM173.038 34.72L171.737 36.2385C172.807 37.1558 174.261 37.392 175.614 37.392V35.392V33.392C175.133 33.392 174.798 33.3459 174.579 33.2888C174.361 33.232 174.314 33.1793 174.34 33.2015L173.038 34.72ZM175.614 35.392V37.392H179.254V35.392V33.392H175.614V35.392ZM179.254 35.392H177.254V42H179.254H181.254V35.392H179.254ZM179.254 42V40H174.326V42V44H179.254V42ZM174.326 42V40C171.316 40 169.429 39.2683 168.286 38.1577C167.154 37.0574 166.414 35.2556 166.414 32.368H164.414H162.414C162.414 35.9017 163.327 38.916 165.498 41.0263C167.659 43.1264 170.728 44 174.326 44V42ZM164.414 32.368H166.414V17.416H164.414H162.414V32.368H164.414ZM164.414 17.416V15.416H160.718V17.416V19.416H164.414V17.416ZM160.718 17.416H162.718V10.976H160.718H158.718V17.416H160.718ZM160.718 10.976V12.976H164.414V10.976V8.976H160.718V10.976ZM164.414 10.976H166.414V3.304H164.414H162.414V10.976H164.414ZM164.414 3.304V5.304H172.31V3.304V1.304H164.414V3.304ZM172.31 3.304H170.31V10.976H172.31H174.31V3.304H172.31ZM172.31 10.976V12.976H179.254V10.976V8.976H172.31V10.976ZM179.254 10.976H177.254V17.416H179.254H181.254V10.976H179.254ZM179.254 17.416V15.416H172.31V17.416V19.416H179.254V17.416ZM214.741 10.976H216.741V8.976H214.741V10.976ZM214.741 42V44H216.741V42H214.741ZM206.845 42H204.845V44H206.845V42ZM206.845 38.08H208.845V32.08L205.245 36.88L206.845 38.08ZM202.869 41.272L203.713 43.0854L203.722 43.0812L203.731 43.077L202.869 41.272ZM191.165 40.88L190.188 42.625L190.201 42.6325L190.215 42.6398L191.165 40.88ZM186.741 36.344L184.966 37.2646L184.976 37.2844L184.987 37.304L186.741 36.344ZM185.173 10.976V8.976H183.173V10.976H185.173ZM193.013 10.976H195.013V8.976H193.013V10.976ZM194.861 33.768L193.387 35.1194L193.396 35.1298L193.406 35.14L194.861 33.768ZM204.997 33.768L206.452 35.14L206.462 35.1298L206.471 35.1194L204.997 33.768ZM206.845 10.976V8.976H204.845V10.976H206.845ZM214.741 10.976H212.741V42H214.741H216.741V10.976H214.741ZM214.741 42V40H206.845V42V44H214.741V42ZM206.845 42H208.845V38.08H206.845H204.845V42H206.845ZM206.845 38.08L205.245 36.88C204.447 37.9445 203.384 38.8102 202.008 39.467L202.869 41.272L203.731 43.077C205.64 42.1658 207.227 40.9035 208.445 39.28L206.845 38.08ZM202.869 41.272L202.026 39.4586C200.704 40.0732 199.24 40.392 197.605 40.392V42.392V44.392C199.778 44.392 201.823 43.9641 203.713 43.0854L202.869 41.272ZM197.605 42.392V40.392C195.462 40.392 193.65 39.9491 192.115 39.1202L191.165 40.88L190.215 42.6398C192.413 43.8269 194.895 44.392 197.605 44.392V42.392ZM191.165 40.88L192.142 39.135C190.621 38.2833 189.408 37.0519 188.496 35.384L186.741 36.344L184.987 37.304C186.239 39.5934 187.975 41.386 190.188 42.625L191.165 40.88ZM186.741 36.344L188.517 35.4234C187.647 33.747 187.173 31.6868 187.173 29.176H185.173H183.173C183.173 32.1905 183.744 34.909 184.966 37.2646L186.741 36.344ZM185.173 29.176H187.173V10.976H185.173H183.173V29.176H185.173ZM185.173 10.976V12.976H193.013V10.976V8.976H185.173V10.976ZM193.013 10.976H191.013V28.056H193.013H195.013V10.976H193.013ZM193.013 28.056H191.013C191.013 30.8419 191.713 33.2933 193.387 35.1194L194.861 33.768L196.335 32.4166C195.545 31.5547 195.013 30.1981 195.013 28.056H193.013ZM194.861 33.768L193.406 35.14C195.085 36.9213 197.333 37.728 199.901 37.728V35.728V33.728C198.213 33.728 197.101 33.228 196.316 32.396L194.861 33.768ZM199.901 35.728V37.728C202.495 37.728 204.766 36.9285 206.452 35.14L204.997 33.768L203.542 32.396C202.764 33.2208 201.638 33.728 199.901 33.728V35.728ZM204.997 33.768L206.471 35.1194C208.145 33.2933 208.845 30.8419 208.845 28.056H206.845H204.845C204.845 30.1981 204.313 31.5547 203.523 32.4165L204.997 33.768ZM206.845 28.056H208.845V10.976H206.845H204.845V28.056H206.845ZM206.845 10.976V12.976H214.741V10.976V8.976H206.845V10.976ZM270.749 14.056L269.323 15.4589L269.334 15.4703L269.346 15.4815L270.749 14.056ZM274.276 42V44H276.276V42H274.276ZM266.436 42H264.436V44H266.436V42ZM264.589 19.32L263.133 20.692L263.143 20.7026L263.153 20.7129L264.589 19.32ZM254.452 19.32L253.018 17.9264L253.017 17.927L254.452 19.32ZM252.605 42V44H254.605V42H252.605ZM244.764 42H242.764V44H244.764V42ZM242.917 19.32L241.461 20.692L241.471 20.7026L241.481 20.7129L242.917 19.32ZM232.725 19.32L231.29 17.9264L231.289 17.927L232.725 19.32ZM230.876 42V44H232.876V42H230.876ZM223.036 42H221.036V44H223.036V42ZM223.036 10.976V8.976H221.036V10.976H223.036ZM230.876 10.976H232.876V8.976H230.876V10.976ZM230.876 14.728H228.876V20.595L232.46 15.9496L230.876 14.728ZM234.741 11.648L233.897 9.83455L233.889 9.83838L233.881 9.84228L234.741 11.648ZM246.501 12.096L245.538 13.8492L245.551 13.8565L245.565 13.8636L246.501 12.096ZM250.924 16.464L249.171 17.4265L250.903 20.5811L252.668 17.4445L250.924 16.464ZM255.292 12.152L254.318 10.4053L254.311 10.4093L254.304 10.4134L255.292 12.152ZM261.565 10.528V12.528C264.926 12.528 267.443 13.5483 269.323 15.4589L270.749 14.056L272.174 12.6531C269.425 9.85966 265.819 8.528 261.565 8.528V10.528ZM270.749 14.056L269.346 15.4815C271.22 17.3261 272.276 20.0037 272.276 23.8H274.276H276.276C276.276 19.2336 274.981 15.4152 272.151 12.6305L270.749 14.056ZM274.276 23.8H272.276V42H274.276H276.276V23.8H274.276ZM274.276 42V40H266.436V42V44H274.276V42ZM266.436 42H268.436V24.864H266.436H264.436V42H266.436ZM266.436 24.864H268.436C268.436 22.1141 267.735 19.6903 266.024 17.927L264.589 19.32L263.153 20.7129C263.906 21.4883 264.436 22.7606 264.436 24.864H266.436ZM264.589 19.32L266.044 17.948C264.364 16.1666 262.117 15.36 259.548 15.36V17.36V19.36C261.236 19.36 262.349 19.86 263.133 20.692L264.589 19.32ZM259.548 17.36V15.36C256.979 15.36 254.727 16.1667 253.018 17.9264L254.452 19.32L255.887 20.7136C256.716 19.86 257.862 19.36 259.548 19.36V17.36ZM254.452 19.32L253.017 17.927C251.306 19.6903 250.605 22.1141 250.605 24.864H252.605H254.605C254.605 22.7606 255.135 21.4883 255.888 20.7129L254.452 19.32ZM252.605 24.864H250.605V42H252.605H254.605V24.864H252.605ZM252.605 42V40H244.764V42V44H252.605V42ZM244.764 42H246.764V24.864H244.764H242.764V42H244.764ZM244.764 24.864H246.764C246.764 22.1141 246.063 19.6903 244.352 17.927L242.917 19.32L241.481 20.7129C242.234 21.4883 242.764 22.7606 242.764 24.864H244.764ZM242.917 19.32L244.372 17.948C242.692 16.1666 240.445 15.36 237.876 15.36V17.36V19.36C239.564 19.36 240.677 19.86 241.461 20.692L242.917 19.32ZM237.876 17.36V15.36C235.281 15.36 233.006 16.1597 231.29 17.9264L232.725 19.32L234.159 20.7136C234.982 19.8669 236.142 19.36 237.876 19.36V17.36ZM232.725 19.32L231.289 17.927C229.578 19.6903 228.876 22.1141 228.876 24.864H230.876H232.876C232.876 22.7606 233.407 21.4883 234.16 20.7129L232.725 19.32ZM230.876 24.864H228.876V42H230.876H232.876V24.864H230.876ZM230.876 42V40H223.036V42V44H230.876V42ZM223.036 42H225.036V10.976H223.036H221.036V42H223.036ZM223.036 10.976V12.976H230.876V10.976V8.976H223.036V10.976ZM230.876 10.976H228.876V14.728H230.876H232.876V10.976H230.876ZM230.876 14.728L232.46 15.9496C233.266 14.9049 234.301 14.0725 235.6 13.4537L234.741 11.648L233.881 9.84228C232.044 10.7168 230.503 11.9378 229.293 13.5064L230.876 14.728ZM234.741 11.648L235.584 13.4614C236.906 12.8467 238.37 12.528 240.005 12.528V10.528V8.528C237.831 8.528 235.786 8.95591 233.897 9.83455L234.741 11.648ZM240.005 10.528V12.528C242.135 12.528 243.962 12.9841 245.538 13.8492L246.501 12.096L247.463 10.3428C245.231 9.11728 242.728 8.528 240.005 8.528V10.528ZM246.501 12.096L245.565 13.8636C247.12 14.6872 248.312 15.8619 249.171 17.4265L250.924 16.464L252.678 15.5015C251.446 13.2581 249.689 11.5208 247.436 10.3284L246.501 12.096ZM250.924 16.464L252.668 17.4445C253.486 15.9898 254.671 14.8059 256.281 13.8906L255.292 12.152L254.304 10.4134C252.106 11.6634 250.379 13.3541 249.181 15.4835L250.924 16.464ZM255.292 12.152L256.267 13.8987C257.908 12.9835 259.663 12.528 261.565 12.528V10.528V8.528C258.986 8.528 256.56 9.15518 254.318 10.4053L255.292 12.152Z" fill="#ECEDEE" mask="url(#path-1-outside-1_615_776)"/>
</svg>
