<svg width="221" height="192" viewBox="0 0 221 192" fill="none" xmlns="http://www.w3.org/2000/svg">
<path d="M190.72 159.558C190.735 158.788 191.578 158.324 192.237 158.722L204.801 166.315C205.46 166.713 205.44 167.675 204.766 168.047L191.908 175.131C191.234 175.502 190.41 175.005 190.426 174.235L190.72 159.558Z" fill="#B4B6BB"/>
<path d="M21.2001 31.3727C21.2001 31.3727 30.9907 70.2746 43.2124 85.9882C67.7166 117.494 147.073 142.155 151.513 102.762C155.374 68.4993 117.831 53.0768 95.6196 65.9254C69.9565 80.7707 96.7927 131.052 124.41 152.657C149.627 172.384 194.882 166.69 194.882 166.69" stroke="#B4B6BB" stroke-width="2" stroke-linecap="round"/>
</svg>
