<svg width="85" height="28" viewBox="0 0 85 28" fill="none" xmlns="http://www.w3.org/2000/svg">
<mask id="path-1-outside-1_516_1789" maskUnits="userSpaceOnUse" x="0" y="0" width="85" height="28" fill="black">
<rect fill="white" width="85" height="28"/>
<path d="M2.0715 7.728V2.64H10.9355V26H5.2395V7.728H2.0715ZM14.9988 14C14.9988 10.3307 15.7028 7.44 17.1108 5.328C18.5401 3.216 20.8334 2.16 23.9908 2.16C27.1481 2.16 29.4308 3.216 30.8388 5.328C32.2681 7.44 32.9828 10.3307 32.9828 14C32.9828 17.712 32.2681 20.624 30.8388 22.736C29.4308 24.848 27.1481 25.904 23.9908 25.904C20.8334 25.904 18.5401 24.848 17.1108 22.736C15.7028 20.624 14.9988 17.712 14.9988 14ZM27.6068 14C27.6068 11.8453 27.3721 10.192 26.9028 9.04C26.4334 7.86667 25.4628 7.28 23.9908 7.28C22.5188 7.28 21.5481 7.86667 21.0788 9.04C20.6094 10.192 20.3748 11.8453 20.3748 14C20.3748 15.4507 20.4601 16.656 20.6308 17.616C20.8014 18.5547 21.1428 19.3227 21.6548 19.92C22.1881 20.496 22.9668 20.784 23.9908 20.784C25.0148 20.784 25.7828 20.496 26.2948 19.92C26.8281 19.3227 27.1801 18.5547 27.3508 17.616C27.5214 16.656 27.6068 15.4507 27.6068 14ZM36.1938 14C36.1938 10.3307 36.8978 7.44 38.3058 5.328C39.7351 3.216 42.0284 2.16 45.1858 2.16C48.3431 2.16 50.6258 3.216 52.0338 5.328C53.4631 7.44 54.1778 10.3307 54.1778 14C54.1778 17.712 53.4631 20.624 52.0338 22.736C50.6258 24.848 48.3431 25.904 45.1858 25.904C42.0284 25.904 39.7351 24.848 38.3058 22.736C36.8978 20.624 36.1938 17.712 36.1938 14ZM48.8018 14C48.8018 11.8453 48.5671 10.192 48.0978 9.04C47.6284 7.86667 46.6578 7.28 45.1858 7.28C43.7138 7.28 42.7431 7.86667 42.2738 9.04C41.8044 10.192 41.5698 11.8453 41.5698 14C41.5698 15.4507 41.6551 16.656 41.8258 17.616C41.9964 18.5547 42.3378 19.3227 42.8498 19.92C43.3831 20.496 44.1618 20.784 45.1858 20.784C46.2098 20.784 46.9778 20.496 47.4898 19.92C48.0231 19.3227 48.3751 18.5547 48.5458 17.616C48.7164 16.656 48.8018 15.4507 48.8018 14ZM56.9407 8.528C56.9407 6.8 57.4314 5.46667 58.4127 4.528C59.4154 3.58933 60.7061 3.12 62.2847 3.12C63.8634 3.12 65.1434 3.58933 66.1247 4.528C67.1061 5.46667 67.5967 6.8 67.5967 8.528C67.5967 10.256 67.1061 11.5893 66.1247 12.528C65.1434 13.4667 63.8634 13.936 62.2847 13.936C60.7061 13.936 59.4154 13.4667 58.4127 12.528C57.4314 11.5893 56.9407 10.256 56.9407 8.528ZM78.6687 3.472L66.3487 26H61.0687L73.3887 3.472H78.6687ZM62.2527 6.32C61.2287 6.32 60.7167 7.056 60.7167 8.528C60.7167 9.97867 61.2287 10.704 62.2527 10.704C62.7434 10.704 63.1274 10.5227 63.4047 10.16C63.6821 9.79733 63.8207 9.25333 63.8207 8.528C63.8207 7.056 63.2981 6.32 62.2527 6.32ZM72.1727 20.944C72.1727 19.216 72.6634 17.8827 73.6447 16.944C74.6261 16.0053 75.9061 15.536 77.4847 15.536C79.0634 15.536 80.3434 16.0053 81.3247 16.944C82.3061 17.8827 82.7967 19.216 82.7967 20.944C82.7967 22.672 82.3061 24.0053 81.3247 24.944C80.3434 25.8827 79.0634 26.352 77.4847 26.352C75.9061 26.352 74.6261 25.8827 73.6447 24.944C72.6634 24.0053 72.1727 22.672 72.1727 20.944ZM77.4527 18.736C76.9621 18.736 76.5781 18.9173 76.3007 19.28C76.0447 19.6427 75.9167 20.1973 75.9167 20.944C75.9167 22.3947 76.4287 23.12 77.4527 23.12C77.9434 23.12 78.3274 22.9387 78.6047 22.576C78.8821 22.2133 79.0207 21.6693 79.0207 20.944C79.0207 20.2187 78.8821 19.6747 78.6047 19.312C78.3274 18.928 77.9434 18.736 77.4527 18.736Z"/>
</mask>
<path d="M2.0715 7.728H0.571499V9.228H2.0715V7.728ZM2.0715 2.64V1.14H0.571499V2.64H2.0715ZM10.9355 2.64H12.4355V1.14H10.9355V2.64ZM10.9355 26V27.5H12.4355V26H10.9355ZM5.2395 26H3.7395V27.5H5.2395V26ZM5.2395 7.728H6.7395V6.228H5.2395V7.728ZM2.0715 7.728H3.5715V2.64H2.0715H0.571499V7.728H2.0715ZM2.0715 2.64V4.14H10.9355V2.64V1.14H2.0715V2.64ZM10.9355 2.64H9.4355V26H10.9355H12.4355V2.64H10.9355ZM10.9355 26V24.5H5.2395V26V27.5H10.9355V26ZM5.2395 26H6.7395V7.728H5.2395H3.7395V26H5.2395ZM5.2395 7.728V6.228H2.0715V7.728V9.228H5.2395V7.728ZM17.1108 5.328L15.8685 4.48726L15.8627 4.49595L17.1108 5.328ZM30.8388 5.328L29.5906 6.16007L29.5965 6.16872L30.8388 5.328ZM30.8388 22.736L29.5965 21.8953L29.5907 21.9039L30.8388 22.736ZM17.1108 22.736L15.8626 23.5681L15.8685 23.5767L17.1108 22.736ZM26.9028 9.04L25.51 9.5971L25.5136 9.60594L26.9028 9.04ZM21.0788 9.04L22.4679 9.60596L22.4715 9.59708L21.0788 9.04ZM20.6308 17.616L19.1539 17.8786L19.1549 17.8843L20.6308 17.616ZM21.6548 19.92L20.5159 20.8962L20.5346 20.918L20.5541 20.9391L21.6548 19.92ZM26.2948 19.92L25.1758 18.921L25.1736 18.9235L26.2948 19.92ZM27.3507 17.616L28.8266 17.8843L28.8276 17.8785L27.3507 17.616ZM14.9987 14H16.4987C16.4987 10.5012 17.1731 7.9386 18.3588 6.16005L17.1108 5.328L15.8627 4.49595C14.2324 6.9414 13.4987 10.1601 13.4987 14H14.9987ZM17.1108 5.328L18.353 6.16872C19.4356 4.56908 21.1968 3.66 23.9907 3.66V2.16V0.659998C20.47 0.659998 17.6446 1.86292 15.8685 4.48728L17.1108 5.328ZM23.9907 2.16V3.66C26.7854 3.66 28.53 4.56899 29.5907 6.16005L30.8388 5.328L32.0868 4.49595C30.3315 1.863 27.5107 0.659998 23.9907 0.659998V2.16ZM30.8388 5.328L29.5965 6.16872C30.7991 7.94567 31.4827 10.5048 31.4827 14H32.9827H34.4827C34.4827 10.1566 33.7371 6.93433 32.081 4.48728L30.8388 5.328ZM32.9827 14H31.4827C31.4827 17.5421 30.7974 20.1207 29.5965 21.8953L30.8388 22.736L32.081 23.5767C33.7387 21.1273 34.4827 17.8819 34.4827 14H32.9827ZM30.8388 22.736L29.5907 21.9039C28.53 23.495 26.7854 24.404 23.9907 24.404V25.904V27.404C27.5107 27.404 30.3315 26.201 32.0868 23.5681L30.8388 22.736ZM23.9907 25.904V24.404C21.1968 24.404 19.4356 23.4949 18.353 21.8953L17.1108 22.736L15.8685 23.5767C17.6446 26.2011 20.47 27.404 23.9907 27.404V25.904ZM17.1108 22.736L18.3588 21.9039C17.1747 20.1278 16.4987 17.5456 16.4987 14H14.9987H13.4987C13.4987 17.8784 14.2308 21.1202 15.8627 23.5681L17.1108 22.736ZM27.6068 14H29.1068C29.1068 11.7724 28.8693 9.89145 28.2919 8.47405L26.9028 9.04L25.5136 9.60594C25.8748 10.4926 26.1068 11.9182 26.1068 14H27.6068ZM26.9028 9.04L28.2955 8.48291C27.9542 7.62981 27.3949 6.91752 26.5986 6.43626C25.8192 5.96518 24.9204 5.78 23.9907 5.78V7.28V8.78C24.5331 8.78 24.8556 8.88815 25.0469 9.00374C25.2213 9.10915 25.3819 9.27686 25.51 9.59709L26.9028 9.04ZM23.9907 7.28V5.78C23.0611 5.78 22.1623 5.96518 21.3829 6.43626C20.5866 6.91752 20.0273 7.62981 19.686 8.48291L21.0788 9.04L22.4715 9.59708C22.5996 9.27686 22.7602 9.10915 22.9346 9.00374C23.1259 8.88815 23.4484 8.78 23.9907 8.78V7.28ZM21.0788 9.04L19.6896 8.47405C19.1122 9.89145 18.8748 11.7724 18.8748 14H20.3748H21.8748C21.8748 11.9182 22.1067 10.4926 22.4679 9.60594L21.0788 9.04ZM20.3748 14H18.8748C18.8748 15.5006 18.9624 16.8011 19.1539 17.8785L20.6308 17.616L22.1076 17.3534C21.9578 16.5109 21.8748 15.4008 21.8748 14H20.3748ZM20.6308 17.616L19.1549 17.8843C19.3631 19.0291 19.7974 20.058 20.5159 20.8962L21.6548 19.92L22.7936 18.9438C22.4881 18.5873 22.2398 18.0803 22.1066 17.3477L20.6308 17.616ZM21.6548 19.92L20.5541 20.9391C21.4511 21.9079 22.683 22.284 23.9907 22.284V20.784V19.284C23.2505 19.284 22.925 19.0841 22.7554 18.9009L21.6548 19.92ZM23.9907 20.784V22.284C25.2947 22.284 26.5336 21.9091 27.4159 20.9165L26.2948 19.92L25.1736 18.9235C25.0319 19.0829 24.7348 19.284 23.9907 19.284V20.784ZM26.2948 19.92L27.4137 20.919C28.1635 20.0792 28.616 19.0423 28.8266 17.8843L27.3507 17.616L25.8749 17.3477C25.7442 18.067 25.4927 18.5661 25.1758 18.921L26.2948 19.92ZM27.3507 17.616L28.8276 17.8785C29.0191 16.8011 29.1068 15.5006 29.1068 14H27.6068H26.1068C26.1068 15.4008 26.0237 16.5109 25.8739 17.3534L27.3507 17.616ZM38.3058 5.328L37.0635 4.48726L37.0577 4.49595L38.3058 5.328ZM52.0338 5.328L50.7857 6.16007L50.7915 6.16872L52.0338 5.328ZM52.0338 22.736L50.7915 21.8953L50.7857 21.9039L52.0338 22.736ZM38.3058 22.736L37.0576 23.5681L37.0635 23.5767L38.3058 22.736ZM48.0978 9.04L46.705 9.5971L46.7086 9.60594L48.0978 9.04ZM42.2738 9.04L43.6629 9.60596L43.6665 9.59708L42.2738 9.04ZM41.8258 17.616L40.3489 17.8786L40.35 17.8843L41.8258 17.616ZM42.8498 19.92L41.7109 20.8962L41.7296 20.918L41.7491 20.9391L42.8498 19.92ZM47.4898 19.92L46.3708 18.921L46.3686 18.9235L47.4898 19.92ZM48.5458 17.616L50.0216 17.8843L50.0226 17.8785L48.5458 17.616ZM36.1938 14H37.6938C37.6938 10.5012 38.3681 7.9386 39.5538 6.16005L38.3058 5.328L37.0577 4.49595C35.4274 6.9414 34.6938 10.1601 34.6938 14H36.1938ZM38.3058 5.328L39.548 6.16872C40.6306 4.56908 42.3919 3.66 45.1858 3.66V2.16V0.659998C41.665 0.659998 38.8396 1.86292 37.0635 4.48728L38.3058 5.328ZM45.1858 2.16V3.66C47.9804 3.66 49.725 4.56899 50.7857 6.16005L52.0338 5.328L53.2818 4.49595C51.5265 1.863 48.7057 0.659998 45.1858 0.659998V2.16ZM52.0338 5.328L50.7915 6.16872C51.9941 7.94567 52.6778 10.5048 52.6778 14H54.1778H55.6778C55.6778 10.1566 54.9321 6.93433 53.276 4.48728L52.0338 5.328ZM54.1778 14H52.6778C52.6778 17.5421 51.9925 20.1207 50.7915 21.8953L52.0338 22.736L53.276 23.5767C54.9337 21.1273 55.6778 17.8819 55.6778 14H54.1778ZM52.0338 22.736L50.7857 21.9039C49.725 23.495 47.9804 24.404 45.1858 24.404V25.904V27.404C48.7057 27.404 51.5265 26.201 53.2818 23.5681L52.0338 22.736ZM45.1858 25.904V24.404C42.3919 24.404 40.6306 23.4949 39.548 21.8953L38.3058 22.736L37.0635 23.5767C38.8396 26.2011 41.665 27.404 45.1858 27.404V25.904ZM38.3058 22.736L39.5538 21.9039C38.3697 20.1278 37.6938 17.5456 37.6938 14H36.1938H34.6938C34.6938 17.8784 35.4258 21.1202 37.0577 23.5681L38.3058 22.736ZM48.8018 14H50.3018C50.3018 11.7724 50.0643 9.89145 49.4869 8.47405L48.0978 9.04L46.7086 9.60594C47.0698 10.4926 47.3018 11.9182 47.3018 14H48.8018ZM48.0978 9.04L49.4905 8.48291C49.1492 7.62981 48.5899 6.91752 47.7936 6.43626C47.0142 5.96518 46.1154 5.78 45.1858 5.78V7.28V8.78C45.7281 8.78 46.0506 8.88815 46.2419 9.00374C46.4163 9.10915 46.577 9.27686 46.705 9.59709L48.0978 9.04ZM45.1858 7.28V5.78C44.2561 5.78 43.3573 5.96518 42.5779 6.43626C41.7816 6.91752 41.2223 7.62981 40.881 8.48291L42.2738 9.04L43.6665 9.59708C43.7946 9.27686 43.9552 9.10915 44.1296 9.00374C44.3209 8.88815 44.6434 8.78 45.1858 8.78V7.28ZM42.2738 9.04L40.8846 8.47405C40.3072 9.89145 40.0698 11.7724 40.0698 14H41.5698H43.0698C43.0698 11.9182 43.3017 10.4926 43.6629 9.60594L42.2738 9.04ZM41.5698 14H40.0698C40.0698 15.5006 40.1574 16.8011 40.3489 17.8785L41.8258 17.616L43.3026 17.3534C43.1528 16.5109 43.0698 15.4008 43.0698 14H41.5698ZM41.8258 17.616L40.35 17.8843C40.5581 19.0291 40.9924 20.058 41.7109 20.8962L42.8498 19.92L43.9886 18.9438C43.6831 18.5873 43.4348 18.0803 43.3016 17.3477L41.8258 17.616ZM42.8498 19.92L41.7491 20.9391C42.6461 21.9079 43.878 22.284 45.1858 22.284V20.784V19.284C44.4455 19.284 44.12 19.0841 43.9504 18.9009L42.8498 19.92ZM45.1858 20.784V22.284C46.4897 22.284 47.7286 21.9091 48.6109 20.9165L47.4898 19.92L46.3686 18.9235C46.2269 19.0829 45.9298 19.284 45.1858 19.284V20.784ZM47.4898 19.92L48.6087 20.919C49.3585 20.0792 49.811 19.0423 50.0216 17.8843L48.5458 17.616L47.0699 17.3477C46.9392 18.067 46.6877 18.5661 46.3708 18.921L47.4898 19.92ZM48.5458 17.616L50.0226 17.8785C50.2141 16.8011 50.3018 15.5006 50.3018 14H48.8018H47.3018C47.3018 15.4008 47.2187 16.5109 47.0689 17.3534L48.5458 17.616ZM58.4127 4.528L57.3876 3.43297L57.3817 3.43847L57.3759 3.44404L58.4127 4.528ZM66.1247 4.528L65.0879 5.61196V5.61196L66.1247 4.528ZM66.1247 12.528L65.0879 11.444L66.1247 12.528ZM58.4127 12.528L57.3759 13.612L57.3817 13.6175L57.3876 13.623L58.4127 12.528ZM78.6687 3.472L79.9848 4.19172L81.1987 1.972H78.6687V3.472ZM66.3487 26V27.5H67.2381L67.6648 26.7197L66.3487 26ZM61.0687 26L59.7527 25.2803L58.5388 27.5H61.0687V26ZM73.3887 3.472V1.972H72.4994L72.0727 2.75228L73.3887 3.472ZM63.4047 10.16L62.2132 9.24882V9.24882L63.4047 10.16ZM73.6447 16.944L72.6079 15.86L73.6447 16.944ZM81.3247 16.944L82.3616 15.86L81.3247 16.944ZM81.3247 24.944L82.3616 26.028L81.3247 24.944ZM73.6447 24.944L72.6079 26.028L73.6447 24.944ZM76.3008 19.28L75.1092 18.3688L75.0918 18.3916L75.0753 18.415L76.3008 19.28ZM78.6047 22.576L77.4132 21.6648V21.6648L78.6047 22.576ZM78.6047 19.312L77.3887 20.1902L77.4007 20.2069L77.4132 20.2232L78.6047 19.312ZM56.9407 8.528H58.4407C58.4407 7.09143 58.8397 6.19534 59.4496 5.61196L58.4127 4.528L57.3759 3.44404C56.0231 4.73799 55.4407 6.50856 55.4407 8.528H56.9407ZM58.4127 4.528L59.4379 5.62303C60.121 4.9835 61.0257 4.62 62.2847 4.62V3.12V1.62C60.3864 1.62 58.7098 2.19517 57.3876 3.43297L58.4127 4.528ZM62.2847 3.12V4.62C63.5445 4.62 64.4309 4.98352 65.0879 5.61196L66.1247 4.528L67.1616 3.44404C65.8559 2.19515 64.1823 1.62 62.2847 1.62V3.12ZM66.1247 4.528L65.0879 5.61196C65.6978 6.19534 66.0967 7.09143 66.0967 8.528H67.5967H69.0967C69.0967 6.50856 68.5144 4.73799 67.1616 3.44404L66.1247 4.528ZM67.5967 8.528H66.0967C66.0967 9.96456 65.6978 10.8607 65.0879 11.444L66.1247 12.528L67.1616 13.612C68.5144 12.318 69.0967 10.5474 69.0967 8.528H67.5967ZM66.1247 12.528L65.0879 11.444C64.4309 12.0725 63.5445 12.436 62.2847 12.436V13.936V15.436C64.1823 15.436 65.8559 14.8609 67.1616 13.612L66.1247 12.528ZM62.2847 13.936V12.436C61.0257 12.436 60.121 12.0725 59.4379 11.433L58.4127 12.528L57.3876 13.623C58.7098 14.8608 60.3864 15.436 62.2847 15.436V13.936ZM58.4127 12.528L59.4496 11.444C58.8397 10.8607 58.4407 9.96456 58.4407 8.528H56.9407H55.4407C55.4407 10.5474 56.0231 12.318 57.3759 13.612L58.4127 12.528ZM78.6687 3.472L77.3527 2.75228L65.0327 25.2803L66.3487 26L67.6648 26.7197L79.9848 4.19172L78.6687 3.472ZM66.3487 26V24.5H61.0687V26V27.5H66.3487V26ZM61.0687 26L62.3848 26.7197L74.7048 4.19172L73.3887 3.472L72.0727 2.75228L59.7527 25.2803L61.0687 26ZM73.3887 3.472V4.972H78.6687V3.472V1.972H73.3887V3.472ZM62.2527 6.32V4.82C61.3305 4.82 60.449 5.18227 59.8694 6.0154C59.3586 6.74968 59.2167 7.66429 59.2167 8.528H60.7167H62.2167C62.2167 8.24216 62.2421 8.03846 62.274 7.90084C62.3058 7.76338 62.3375 7.72088 62.3321 7.7286C62.32 7.74596 62.2835 7.78459 62.2289 7.81072C62.1818 7.83333 62.1763 7.82 62.2527 7.82V6.32ZM60.7167 8.528H59.2167C59.2167 9.38408 59.3596 10.2944 59.8753 11.025C60.4586 11.8513 61.3394 12.204 62.2527 12.204V10.704V9.204C62.1734 9.204 62.176 9.19027 62.2213 9.21163C62.2742 9.23661 62.3119 9.27476 62.3262 9.29497C62.3338 9.30572 62.3038 9.26783 62.2729 9.13644C62.2419 9.00461 62.2167 8.80725 62.2167 8.528H60.7167ZM62.2527 10.704V12.204C63.1702 12.204 64.0115 11.8359 64.5963 11.0712L63.4047 10.16L62.2132 9.24882C62.2091 9.25421 62.2121 9.24923 62.2238 9.23957C62.2359 9.22961 62.2514 9.21957 62.2682 9.21163C62.2761 9.20789 62.283 9.20528 62.2882 9.20355C62.2907 9.20271 62.2927 9.20212 62.2942 9.20175C62.2956 9.20137 62.2963 9.20123 62.2962 9.20123C62.2962 9.20124 62.2929 9.20192 62.2859 9.20261C62.2788 9.2033 62.2679 9.204 62.2527 9.204V10.704ZM63.4047 10.16L64.5963 11.0712C65.161 10.3328 65.3207 9.4022 65.3207 8.528H63.8207H62.3207C62.3207 8.79997 62.2942 8.9878 62.2632 9.10949C62.2327 9.22923 62.2042 9.26057 62.2132 9.24882L63.4047 10.16ZM63.8207 8.528H65.3207C65.3207 7.65998 65.1749 6.74012 64.6517 6.0035C64.0616 5.17255 63.1731 4.82 62.2527 4.82V6.32V7.82C62.3386 7.82 62.3418 7.83482 62.3014 7.81586C62.2532 7.79322 62.2183 7.7581 62.2058 7.7405C62.1999 7.73229 62.2312 7.77299 62.2631 7.90752C62.2951 8.0426 62.3207 8.24395 62.3207 8.528H63.8207ZM72.1727 20.944H73.6727C73.6727 19.5074 74.0717 18.6113 74.6816 18.028L73.6447 16.944L72.6079 15.86C71.2551 17.154 70.6727 18.9246 70.6727 20.944H72.1727ZM73.6447 16.944L74.6816 18.028C75.3386 17.3995 76.225 17.036 77.4847 17.036V15.536V14.036C75.5872 14.036 73.9136 14.6111 72.6079 15.86L73.6447 16.944ZM77.4847 15.536V17.036C78.7445 17.036 79.6309 17.3995 80.2879 18.028L81.3247 16.944L82.3616 15.86C81.0559 14.6111 79.3823 14.036 77.4847 14.036V15.536ZM81.3247 16.944L80.2879 18.028C80.8978 18.6113 81.2967 19.5074 81.2967 20.944H82.7967H84.2967C84.2967 18.9246 83.7144 17.154 82.3616 15.86L81.3247 16.944ZM82.7967 20.944H81.2967C81.2967 22.3806 80.8978 23.2767 80.2879 23.86L81.3247 24.944L82.3616 26.028C83.7144 24.734 84.2967 22.9634 84.2967 20.944H82.7967ZM81.3247 24.944L80.2879 23.86C79.6309 24.4885 78.7445 24.852 77.4847 24.852V26.352V27.852C79.3823 27.852 81.0559 27.2769 82.3616 26.028L81.3247 24.944ZM77.4847 26.352V24.852C76.225 24.852 75.3386 24.4885 74.6816 23.86L73.6447 24.944L72.6079 26.028C73.9136 27.2769 75.5872 27.852 77.4847 27.852V26.352ZM73.6447 24.944L74.6816 23.86C74.0717 23.2767 73.6727 22.3806 73.6727 20.944H72.1727H70.6727C70.6727 22.9634 71.2551 24.734 72.6079 26.028L73.6447 24.944ZM77.4527 18.736V17.236C76.5353 17.236 75.694 17.6041 75.1092 18.3688L76.3008 19.28L77.4923 20.1912C77.4964 20.1858 77.4934 20.1908 77.4817 20.2004C77.4695 20.2104 77.4541 20.2204 77.4373 20.2284C77.4293 20.2321 77.4225 20.2347 77.4173 20.2364C77.4148 20.2373 77.4127 20.2379 77.4113 20.2383C77.4099 20.2386 77.4092 20.2388 77.4092 20.2388C77.4093 20.2388 77.4126 20.2381 77.4196 20.2374C77.4267 20.2367 77.4376 20.236 77.4527 20.236V18.736ZM76.3008 19.28L75.0753 18.415C74.5557 19.1511 74.4167 20.0778 74.4167 20.944H75.9167H77.4167C77.4167 20.6512 77.4423 20.4439 77.4743 20.3053C77.5064 20.1663 77.5372 20.1295 77.5262 20.145L76.3008 19.28ZM75.9167 20.944H74.4167C74.4167 21.8001 74.5596 22.7104 75.0753 23.441C75.6586 24.2673 76.5394 24.62 77.4527 24.62V23.12V21.62C77.3734 21.62 77.376 21.6063 77.4213 21.6276C77.4742 21.6526 77.5119 21.6908 77.5262 21.711C77.5338 21.7217 77.5038 21.6838 77.4729 21.5524C77.4419 21.4206 77.4167 21.2232 77.4167 20.944H75.9167ZM77.4527 23.12V24.62C78.3702 24.62 79.2115 24.2519 79.7963 23.4872L78.6047 22.576L77.4132 21.6648C77.4091 21.6702 77.4121 21.6652 77.4238 21.6556C77.4359 21.6456 77.4514 21.6356 77.4682 21.6276C77.4761 21.6239 77.483 21.6213 77.4882 21.6196C77.4907 21.6187 77.4927 21.6181 77.4942 21.6178C77.4956 21.6174 77.4963 21.6172 77.4962 21.6172C77.4962 21.6172 77.4929 21.6179 77.4859 21.6186C77.4788 21.6193 77.4679 21.62 77.4527 21.62V23.12ZM78.6047 22.576L79.7963 23.4872C80.361 22.7488 80.5207 21.8182 80.5207 20.944H79.0207H77.5207C77.5207 21.216 77.4942 21.4038 77.4632 21.5255C77.4327 21.6452 77.4042 21.6766 77.4132 21.6648L78.6047 22.576ZM79.0207 20.944H80.5207C80.5207 20.0698 80.361 19.1392 79.7963 18.4008L78.6047 19.312L77.4132 20.2232C77.4042 20.2114 77.4327 20.2428 77.4632 20.3625C77.4942 20.4842 77.5207 20.672 77.5207 20.944H79.0207ZM78.6047 19.312L79.8208 18.4338C79.2497 17.643 78.4047 17.236 77.4527 17.236V18.736V20.236C77.4775 20.236 77.485 20.2384 77.4791 20.2371C77.4726 20.2357 77.4574 20.2314 77.4379 20.2216C77.4183 20.2118 77.4023 20.2005 77.3916 20.1911C77.3813 20.1822 77.3811 20.1797 77.3887 20.1902L78.6047 19.312Z" fill="#DADBDD" mask="url(#path-1-outside-1_516_1789)"/>
</svg>
