<svg width="104" height="41" viewBox="0 0 104 41" fill="none" xmlns="http://www.w3.org/2000/svg">
<mask id="path-1-outside-1_304_433" maskUnits="userSpaceOnUse" x="0" y="0" width="104" height="41" fill="black">
<rect fill="white" width="104" height="41"/>
<path d="M18.6877 12.416C18.4317 11.232 17.9837 10.352 17.3437 9.776C16.7037 9.168 15.7917 8.864 14.6077 8.864C12.7837 8.864 11.4717 9.664 10.6717 11.264C9.87169 12.832 9.45569 15.328 9.42369 18.752C10.1277 17.632 11.1357 16.752 12.4477 16.112C13.7917 15.472 15.2637 15.152 16.8637 15.152C19.9997 15.152 22.5117 16.144 24.3997 18.128C26.3197 20.112 27.2797 22.88 27.2797 26.432C27.2797 28.768 26.7997 30.816 25.8397 32.576C24.9117 34.336 23.5357 35.712 21.7117 36.704C19.9197 37.696 17.7917 38.192 15.3277 38.192C10.3997 38.192 6.97569 36.656 5.05569 33.584C3.13569 30.48 2.17569 26.032 2.17569 20.24C2.17569 14.16 3.18369 9.648 5.19969 6.704C7.24769 3.728 10.5117 2.24 14.9917 2.24C17.3917 2.24 19.4077 2.72 21.0397 3.68C22.7037 4.608 23.9517 5.84 24.7837 7.376C25.6477 8.912 26.1597 10.592 26.3197 12.416H18.6877ZM14.8957 21.632C13.5197 21.632 12.3677 22.048 11.4397 22.88C10.5437 23.68 10.0957 24.832 10.0957 26.336C10.0957 27.872 10.5117 29.072 11.3437 29.936C12.2077 30.8 13.4237 31.232 14.9917 31.232C16.3997 31.232 17.5037 30.816 18.3037 29.984C19.1357 29.12 19.5517 27.952 19.5517 26.48C19.5517 24.976 19.1517 23.792 18.3517 22.928C17.5517 22.064 16.3997 21.632 14.8957 21.632ZM32.4022 20C32.4022 14.496 33.4582 10.16 35.5702 6.992C37.7142 3.824 41.1542 2.24 45.8902 2.24C50.6262 2.24 54.0502 3.824 56.1622 6.992C58.3062 10.16 59.3782 14.496 59.3782 20C59.3782 25.568 58.3062 29.936 56.1622 33.104C54.0502 36.272 50.6262 37.856 45.8902 37.856C41.1542 37.856 37.7142 36.272 35.5702 33.104C33.4582 29.936 32.4022 25.568 32.4022 20ZM51.3142 20C51.3142 16.768 50.9622 14.288 50.2582 12.56C49.5542 10.8 48.0982 9.92 45.8902 9.92C43.6822 9.92 42.2262 10.8 41.5222 12.56C40.8182 14.288 40.4662 16.768 40.4662 20C40.4662 22.176 40.5942 23.984 40.8502 25.424C41.1062 26.832 41.6182 27.984 42.3862 28.88C43.1862 29.744 44.3542 30.176 45.8902 30.176C47.4262 30.176 48.5782 29.744 49.3462 28.88C50.1462 27.984 50.6742 26.832 50.9302 25.424C51.1862 23.984 51.3142 22.176 51.3142 20ZM63.5227 11.792C63.5227 9.2 64.2587 7.2 65.7307 5.792C67.2347 4.384 69.1707 3.68 71.5387 3.68C73.9067 3.68 75.8267 4.384 77.2987 5.792C78.7707 7.2 79.5067 9.2 79.5067 11.792C79.5067 14.384 78.7707 16.384 77.2987 17.792C75.8267 19.2 73.9067 19.904 71.5387 19.904C69.1707 19.904 67.2347 19.2 65.7307 17.792C64.2587 16.384 63.5227 14.384 63.5227 11.792ZM96.1147 4.208L77.6347 38H69.7147L88.1947 4.208H96.1147ZM71.4907 8.48C69.9547 8.48 69.1867 9.584 69.1867 11.792C69.1867 13.968 69.9547 15.056 71.4907 15.056C72.2267 15.056 72.8027 14.784 73.2187 14.24C73.6347 13.696 73.8427 12.88 73.8427 11.792C73.8427 9.584 73.0587 8.48 71.4907 8.48ZM86.3707 30.416C86.3707 27.824 87.1067 25.824 88.5787 24.416C90.0507 23.008 91.9707 22.304 94.3387 22.304C96.7067 22.304 98.6267 23.008 100.099 24.416C101.571 25.824 102.307 27.824 102.307 30.416C102.307 33.008 101.571 35.008 100.099 36.416C98.6267 37.824 96.7067 38.528 94.3387 38.528C91.9707 38.528 90.0507 37.824 88.5787 36.416C87.1067 35.008 86.3707 33.008 86.3707 30.416ZM94.2907 27.104C93.5547 27.104 92.9787 27.376 92.5627 27.92C92.1787 28.464 91.9867 29.296 91.9867 30.416C91.9867 32.592 92.7547 33.68 94.2907 33.68C95.0267 33.68 95.6027 33.408 96.0187 32.864C96.4347 32.32 96.6427 31.504 96.6427 30.416C96.6427 29.328 96.4347 28.512 96.0187 27.968C95.6027 27.392 95.0267 27.104 94.2907 27.104Z"/>
</mask>
<path d="M18.6877 12.416L17.2216 12.733L17.4774 13.916H18.6877V12.416ZM17.3437 9.776L16.3106 10.8635L16.3252 10.8774L16.3402 10.8909L17.3437 9.776ZM10.6717 11.264L12.0079 11.9457L12.0133 11.9348L10.6717 11.264ZM9.42369 18.752L7.92376 18.738L7.87424 24.0357L10.6936 19.5503L9.42369 18.752ZM12.4477 16.112L11.8028 14.7576L11.7901 14.7638L12.4477 16.112ZM24.3997 18.128L23.313 19.1621L23.3218 19.1711L24.3997 18.128ZM25.8397 32.576L24.5228 31.8577L24.5178 31.867L24.5128 31.8764L25.8397 32.576ZM21.7117 36.704L20.995 35.3862L20.9852 35.3917L21.7117 36.704ZM5.05569 33.584L3.77999 34.3731L3.78369 34.379L5.05569 33.584ZM5.19969 6.704L3.96401 5.85364L3.96206 5.85649L5.19969 6.704ZM21.0397 3.68L20.2792 4.9729L20.294 4.98164L20.3091 4.99004L21.0397 3.68ZM24.7837 7.376L23.4648 8.09042L23.4705 8.10095L23.4763 8.11139L24.7837 7.376ZM26.3197 12.416V13.916H27.957L27.8139 12.2849L26.3197 12.416ZM11.4397 22.88L12.4387 23.9989L12.441 23.9969L11.4397 22.88ZM11.3437 29.936L10.2632 30.9765L10.273 30.9867L10.283 30.9967L11.3437 29.936ZM18.3037 29.984L17.2232 28.9435L17.2224 28.9443L18.3037 29.984ZM18.6877 12.416L20.1538 12.099C19.8575 10.7285 19.2993 9.51805 18.3471 8.66106L17.3437 9.776L16.3402 10.8909C16.668 11.1859 17.0059 11.7355 17.2216 12.733L18.6877 12.416ZM17.3437 9.776L18.3768 8.6885C17.3739 7.73577 16.042 7.364 14.6077 7.364V8.864V10.364C15.5414 10.364 16.0334 10.6002 16.3106 10.8635L17.3437 9.776ZM14.6077 8.864V7.364C13.4722 7.364 12.4068 7.61502 11.4748 8.1833C10.5411 8.75263 9.83496 9.58336 9.33005 10.5932L10.6717 11.264L12.0133 11.9348C12.3084 11.3446 12.6583 10.9754 13.0366 10.7447C13.4166 10.513 13.9192 10.364 14.6077 10.364V8.864ZM10.6717 11.264L9.33554 10.5823C8.37091 12.473 7.95625 15.2613 7.92376 18.738L9.42369 18.752L10.9236 18.766C10.9551 15.3947 11.3725 13.191 12.0078 11.9457L10.6717 11.264ZM9.42369 18.752L10.6936 19.5503C11.2336 18.6912 12.0178 17.9906 13.1053 17.4602L12.4477 16.112L11.7901 14.7638C10.2535 15.5134 9.02173 16.5728 8.15373 17.9537L9.42369 18.752ZM12.4477 16.112L13.0926 17.4663C14.2203 16.9293 15.4698 16.652 16.8637 16.652V15.152V13.652C15.0576 13.652 13.3631 14.0147 11.8028 14.7577L12.4477 16.112ZM16.8637 15.152V16.652C19.6542 16.652 21.7502 17.5197 23.3131 19.162L24.3997 18.128L25.4863 17.094C23.2732 14.7683 20.3452 13.652 16.8637 13.652V15.152ZM24.3997 18.128L23.3218 19.1711C24.8998 20.8018 25.7797 23.1532 25.7797 26.432H27.2797H28.7797C28.7797 22.6068 27.7396 19.4222 25.4776 17.0849L24.3997 18.128ZM27.2797 26.432H25.7797C25.7797 28.5587 25.3442 30.352 24.5228 31.8577L25.8397 32.576L27.1565 33.2943C28.2552 31.28 28.7797 28.9773 28.7797 26.432H27.2797ZM25.8397 32.576L24.5128 31.8764C23.729 33.3629 22.5711 34.5291 20.995 35.3863L21.7117 36.704L22.4283 38.0217C24.5003 36.8949 26.0943 35.3091 27.1665 33.2756L25.8397 32.576ZM21.7117 36.704L20.9852 35.3917C19.4566 36.2379 17.589 36.692 15.3277 36.692V38.192V39.692C17.9944 39.692 20.3828 39.1541 22.4382 38.0163L21.7117 36.704ZM15.3277 38.192V36.692C10.7094 36.692 7.87918 35.2714 6.32769 32.789L5.05569 33.584L3.78369 34.379C6.07219 38.0406 10.09 39.692 15.3277 39.692V38.192ZM5.05569 33.584L6.33137 32.7949C4.62043 30.0289 3.67569 25.9022 3.67569 20.24H2.17569H0.67569C0.67569 26.1618 1.65094 30.9311 3.78001 34.3731L5.05569 33.584ZM2.17569 20.24H3.67569C3.67569 14.2724 4.67491 10.1252 6.43732 7.55151L5.19969 6.704L3.96206 5.85649C1.69246 9.17082 0.67569 14.0476 0.67569 20.24H2.17569ZM5.19969 6.704L6.43536 7.55436C8.13527 5.08418 10.8715 3.74 14.9917 3.74V2.24V0.739997C10.1519 0.739997 6.3601 2.37182 3.96401 5.85364L5.19969 6.704ZM14.9917 2.24V3.74C17.1947 3.74 18.9317 4.18026 20.2792 4.9729L21.0397 3.68L21.8002 2.3871C19.8837 1.25974 17.5886 0.739997 14.9917 0.739997V2.24ZM21.0397 3.68L20.3091 4.99004C21.7478 5.79243 22.7806 6.82736 23.4648 8.09042L24.7837 7.376L26.1026 6.66157C25.1228 4.85264 23.6595 3.42357 21.7703 2.36995L21.0397 3.68ZM24.7837 7.376L23.4763 8.11139C24.2317 9.45425 24.6833 10.927 24.8254 12.5471L26.3197 12.416L27.8139 12.2849C27.6361 10.257 27.0637 8.36975 26.0911 6.64061L24.7837 7.376ZM26.3197 12.416V10.916H18.6877V12.416V13.916H26.3197V12.416ZM14.8957 21.632V20.132C13.1916 20.132 11.671 20.6581 10.4384 21.7631L11.4397 22.88L12.441 23.9969C13.0644 23.4379 13.8478 23.132 14.8957 23.132V21.632ZM11.4397 22.88L10.4407 21.7611C9.14868 22.9147 8.59569 24.5205 8.59569 26.336H10.0957H11.5957C11.5957 25.1435 11.9387 24.4453 12.4387 23.9989L11.4397 22.88ZM10.0957 26.336H8.59569C8.59569 28.1466 9.0925 29.7607 10.2632 30.9765L11.3437 29.936L12.4242 28.8955C11.9309 28.3833 11.5957 27.5974 11.5957 26.336H10.0957ZM11.3437 29.936L10.283 30.9967C11.502 32.2157 13.1438 32.732 14.9917 32.732V31.232V29.732C13.7035 29.732 12.9134 29.3843 12.4044 28.8753L11.3437 29.936ZM14.9917 31.232V32.732C16.7116 32.732 18.2418 32.2125 19.3849 31.0237L18.3037 29.984L17.2224 28.9443C16.7656 29.4195 16.0878 29.732 14.9917 29.732V31.232ZM18.3037 29.984L19.3842 31.0245C20.5437 29.8204 21.0517 28.2469 21.0517 26.48H19.5517H18.0517C18.0517 27.6571 17.7277 28.4196 17.2232 28.9435L18.3037 29.984ZM19.5517 26.48H21.0517C21.0517 24.7067 20.5744 23.1207 19.4523 21.9089L18.3517 22.928L17.251 23.9471C17.729 24.4633 18.0517 25.2453 18.0517 26.48H19.5517ZM18.3517 22.928L19.4523 21.9089C18.2945 20.6584 16.6945 20.132 14.8957 20.132V21.632V23.132C16.1048 23.132 16.8089 23.4696 17.251 23.9471L18.3517 22.928ZM35.5702 6.992L34.3279 6.15126L34.3221 6.15995L35.5702 6.992ZM56.1622 6.992L54.9141 7.82407L54.9199 7.83272L56.1622 6.992ZM56.1622 33.104L54.9199 32.2633L54.9141 32.2719L56.1622 33.104ZM35.5702 33.104L34.3221 33.9361L34.3279 33.9447L35.5702 33.104ZM50.2582 12.56L48.8654 13.1171L48.869 13.1259L50.2582 12.56ZM41.5222 12.56L42.9114 13.126L42.9149 13.1171L41.5222 12.56ZM40.8502 25.424L39.3733 25.6866L39.3744 25.6923L40.8502 25.424ZM42.3862 28.88L41.2473 29.8562L41.266 29.878L41.2855 29.8991L42.3862 28.88ZM49.3462 28.88L48.2273 27.881L48.2251 27.8835L49.3462 28.88ZM50.9302 25.424L52.406 25.6923L52.407 25.6865L50.9302 25.424ZM32.4022 20H33.9022C33.9022 14.6666 34.9286 10.6586 36.8183 7.82405L35.5702 6.992L34.3221 6.15995C31.9878 9.6614 30.9022 14.3254 30.9022 20H32.4022ZM35.5702 6.992L36.8124 7.83272C38.6097 5.17708 41.5176 3.74 45.8902 3.74V2.24V0.739997C40.7908 0.739997 36.8187 2.47092 34.3279 6.15128L35.5702 6.992ZM45.8902 2.24V3.74C50.2635 3.74 53.1494 5.17699 54.9141 7.82405L56.1622 6.992L57.4103 6.15995C54.951 2.471 50.9888 0.739997 45.8902 0.739997V2.24ZM56.1622 6.992L54.9199 7.83272C56.8372 10.6657 57.8782 14.6701 57.8782 20H59.3782H60.8782C60.8782 14.3219 59.7752 9.65432 57.4044 6.15128L56.1622 6.992ZM59.3782 20H57.8782C57.8782 25.3981 56.8356 29.4327 54.9199 32.2633L56.1622 33.104L57.4044 33.9447C59.7768 30.4393 60.8782 25.7379 60.8782 20H59.3782ZM56.1622 33.104L54.9141 32.2719C53.1494 34.919 50.2635 36.356 45.8902 36.356V37.856V39.356C50.9888 39.356 54.951 37.625 57.4103 33.9361L56.1622 33.104ZM45.8902 37.856V36.356C41.5176 36.356 38.6097 34.9189 36.8124 32.2633L35.5702 33.104L34.3279 33.9447C36.8187 37.6251 40.7908 39.356 45.8902 39.356V37.856ZM35.5702 33.104L36.8183 32.2719C34.9302 29.4398 33.9022 25.4016 33.9022 20H32.4022H30.9022C30.9022 25.7344 31.9862 30.4322 34.3221 33.9361L35.5702 33.104ZM51.3142 20H52.8142C52.8142 16.6951 52.4594 13.9874 51.6473 11.9941L50.2582 12.56L48.869 13.1259C49.4649 14.5886 49.8142 16.8409 49.8142 20H51.3142ZM50.2582 12.56L51.6509 12.0029C51.1923 10.8565 50.453 9.92418 49.4141 9.29626C48.392 8.67852 47.1879 8.42 45.8902 8.42V9.92V11.42C46.8005 11.42 47.4284 11.6015 47.8623 11.8637C48.2794 12.1158 48.62 12.5035 48.8655 13.1171L50.2582 12.56ZM45.8902 9.92V8.42C44.5925 8.42 43.3884 8.67852 42.3663 9.29626C41.3274 9.92418 40.5881 10.8565 40.1295 12.0029L41.5222 12.56L42.9149 13.1171C43.1603 12.5035 43.501 12.1158 43.9181 11.8637C44.352 11.6015 44.9799 11.42 45.8902 11.42V9.92ZM41.5222 12.56L40.133 11.9941C39.3209 13.9874 38.9662 16.6951 38.9662 20H40.4662H41.9662C41.9662 16.8409 42.3155 14.5886 42.9113 13.1259L41.5222 12.56ZM40.4662 20H38.9662C38.9662 22.2259 39.0965 24.1291 39.3733 25.6865L40.8502 25.424L42.327 25.1614C42.0919 23.8389 41.9662 22.1261 41.9662 20H40.4662ZM40.8502 25.424L39.3744 25.6923C39.6679 27.3064 40.2728 28.7193 41.2473 29.8562L42.3862 28.88L43.5251 27.9038C42.9635 27.2487 42.5445 26.3576 42.326 25.1557L40.8502 25.424ZM42.3862 28.88L41.2855 29.8991C42.4492 31.1559 44.0704 31.676 45.8902 31.676V30.176V28.676C44.638 28.676 43.9231 28.3321 43.4868 27.8609L42.3862 28.88ZM45.8902 30.176V31.676C47.7062 31.676 49.329 31.1571 50.4673 29.8765L49.3462 28.88L48.2251 27.8835C47.8274 28.3309 47.1462 28.676 45.8902 28.676V30.176ZM49.3462 28.88L50.4651 29.879C51.4816 28.7405 52.1101 27.3196 52.406 25.6923L50.9302 25.424L49.4544 25.1557C49.2383 26.3444 48.8108 27.2275 48.2273 27.881L49.3462 28.88ZM50.9302 25.424L52.407 25.6865C52.6839 24.1291 52.8142 22.2259 52.8142 20H51.3142H49.8142C49.8142 22.1261 49.6885 23.8389 49.4533 25.1614L50.9302 25.424ZM65.7307 5.792L64.7055 4.69697L64.6997 4.70247L64.6938 4.70804L65.7307 5.792ZM77.2987 5.792L76.2618 6.87596V6.87596L77.2987 5.792ZM77.2987 17.792L76.2618 16.708L77.2987 17.792ZM65.7307 17.792L64.6938 18.876L64.6997 18.8815L64.7055 18.887L65.7307 17.792ZM96.1147 4.208L97.4307 4.92772L98.6447 2.708H96.1147V4.208ZM77.6347 38V39.5H78.524L78.9507 38.7197L77.6347 38ZM69.7147 38L68.3986 37.2803L67.1847 39.5H69.7147V38ZM88.1947 4.208V2.708H87.3053L86.8786 3.48828L88.1947 4.208ZM73.2187 14.24L72.0271 13.3288V13.3288L73.2187 14.24ZM88.5787 24.416L87.5419 23.332L88.5787 24.416ZM100.099 24.416L101.136 23.332L100.099 24.416ZM100.099 36.416L101.136 37.5L100.099 36.416ZM88.5787 36.416L87.5419 37.5L88.5787 36.416ZM92.5627 27.92L91.3712 27.0088L91.3537 27.0316L91.3372 27.055L92.5627 27.92ZM96.0187 32.864L94.8271 31.9528V31.9528L96.0187 32.864ZM96.0187 27.968L94.8027 28.8462L94.8147 28.8629L94.8271 28.8792L96.0187 27.968ZM63.5227 11.792H65.0227C65.0227 9.49143 65.667 7.92867 66.7675 6.87596L65.7307 5.792L64.6938 4.70804C62.8504 6.47133 62.0227 8.90856 62.0227 11.792H63.5227ZM65.7307 5.792L66.7558 6.88703C67.9403 5.77816 69.4903 5.18 71.5387 5.18V3.68V2.18C68.851 2.18 66.5291 2.98984 64.7055 4.69697L65.7307 5.792ZM71.5387 3.68V5.18C73.5878 5.18 75.1142 5.77818 76.2618 6.87596L77.2987 5.792L78.3355 4.70804C76.5392 2.98981 74.2256 2.18 71.5387 2.18V3.68ZM77.2987 5.792L76.2618 6.87596C77.3624 7.92867 78.0067 9.49143 78.0067 11.792H79.5067H81.0067C81.0067 8.90856 80.179 6.47133 78.3355 4.70804L77.2987 5.792ZM79.5067 11.792H78.0067C78.0067 14.0926 77.3624 15.6553 76.2618 16.708L77.2987 17.792L78.3355 18.876C80.179 17.1127 81.0067 14.6754 81.0067 11.792H79.5067ZM77.2987 17.792L76.2618 16.708C75.1142 17.8058 73.5878 18.404 71.5387 18.404V19.904V21.404C74.2256 21.404 76.5392 20.5942 78.3355 18.876L77.2987 17.792ZM71.5387 19.904V18.404C69.4903 18.404 67.9403 17.8058 66.7558 16.697L65.7307 17.792L64.7055 18.887C66.5291 20.5942 68.851 21.404 71.5387 21.404V19.904ZM65.7307 17.792L66.7675 16.708C65.667 15.6553 65.0227 14.0926 65.0227 11.792H63.5227H62.0227C62.0227 14.6754 62.8504 17.1127 64.6938 18.876L65.7307 17.792ZM96.1147 4.208L94.7986 3.48828L76.3186 37.2803L77.6347 38L78.9507 38.7197L97.4307 4.92772L96.1147 4.208ZM77.6347 38V36.5H69.7147V38V39.5H77.6347V38ZM69.7147 38L71.0307 38.7197L89.5107 4.92772L88.1947 4.208L86.8786 3.48828L68.3986 37.2803L69.7147 38ZM88.1947 4.208V5.708H96.1147V4.208V2.708H88.1947V4.208ZM71.4907 8.48V6.98C70.3124 6.98 69.2389 7.43427 68.5313 8.4514C67.8925 9.36968 67.6867 10.5603 67.6867 11.792H69.1867H70.6867C70.6867 10.8157 70.8648 10.3503 70.994 10.1646C71.046 10.09 71.0894 10.0596 71.1309 10.0397C71.1797 10.0163 71.2862 9.98 71.4907 9.98V8.48ZM69.1867 11.792H67.6867C67.6867 13.0107 67.8935 14.1931 68.5372 15.105C69.2485 16.1127 70.3213 16.556 71.4907 16.556V15.056V13.556C71.2833 13.556 71.174 13.5196 71.1232 13.4956C71.0801 13.4753 71.0379 13.4454 70.9881 13.375C70.8639 13.1989 70.6867 12.7493 70.6867 11.792H69.1867ZM71.4907 15.056V16.556C72.6535 16.556 73.6867 16.0973 74.4102 15.1512L73.2187 14.24L72.0271 13.3288C71.9186 13.4707 71.7999 13.556 71.4907 13.556V15.056ZM73.2187 14.24L74.4102 15.1512C75.1136 14.2314 75.3427 13.0289 75.3427 11.792H73.8427H72.3427C72.3427 12.7311 72.1558 13.1606 72.0271 13.3288L73.2187 14.24ZM73.8427 11.792H75.3427C75.3427 10.556 75.1315 9.36012 74.4777 8.4395C73.7569 7.42455 72.6724 6.98 71.4907 6.98V8.48V9.98C71.877 9.98 71.9685 10.0874 72.0317 10.1765C72.1619 10.3599 72.3427 10.82 72.3427 11.792H73.8427ZM86.3707 30.416H87.8707C87.8707 28.1154 88.515 26.5527 89.6155 25.5L88.5787 24.416L87.5419 23.332C85.6984 25.0953 84.8707 27.5326 84.8707 30.416H86.3707ZM88.5787 24.416L89.6155 25.5C90.7632 24.4022 92.2896 23.804 94.3387 23.804V22.304V20.804C91.6518 20.804 89.3382 21.6138 87.5419 23.332L88.5787 24.416ZM94.3387 22.304V23.804C96.3878 23.804 97.9142 24.4022 99.0618 25.5L100.099 24.416L101.136 23.332C99.3392 21.6138 97.0256 20.804 94.3387 20.804V22.304ZM100.099 24.416L99.0618 25.5C100.162 26.5527 100.807 28.1154 100.807 30.416H102.307H103.807C103.807 27.5326 102.979 25.0953 101.136 23.332L100.099 24.416ZM102.307 30.416H100.807C100.807 32.7166 100.162 34.2793 99.0618 35.332L100.099 36.416L101.136 37.5C102.979 35.7367 103.807 33.2994 103.807 30.416H102.307ZM100.099 36.416L99.0618 35.332C97.9142 36.4298 96.3878 37.028 94.3387 37.028V38.528V40.028C97.0256 40.028 99.3392 39.2182 101.136 37.5L100.099 36.416ZM94.3387 38.528V37.028C92.2896 37.028 90.7632 36.4298 89.6155 35.332L88.5787 36.416L87.5419 37.5C89.3382 39.2182 91.6518 40.028 94.3387 40.028V38.528ZM88.5787 36.416L89.6155 35.332C88.515 34.2793 87.8707 32.7166 87.8707 30.416H86.3707H84.8707C84.8707 33.2994 85.6984 35.7367 87.5419 37.5L88.5787 36.416ZM94.2907 27.104V25.604C93.1279 25.604 92.0946 26.0627 91.3712 27.0088L92.5627 27.92L93.7542 28.8312C93.8627 28.6893 93.9815 28.604 94.2907 28.604V27.104ZM92.5627 27.92L91.3372 27.055C90.6896 27.9724 90.4867 29.1765 90.4867 30.416H91.9867H93.4867C93.4867 29.4155 93.6678 28.9556 93.7881 28.785L92.5627 27.92ZM91.9867 30.416H90.4867C90.4867 31.6347 90.6935 32.8171 91.3372 33.729C92.0485 34.7367 93.1213 35.18 94.2907 35.18V33.68V32.18C94.0833 32.18 93.974 32.1436 93.9232 32.1196C93.8801 32.0993 93.8379 32.0694 93.7881 31.999C93.6639 31.8229 93.4867 31.3733 93.4867 30.416H91.9867ZM94.2907 33.68V35.18C95.4535 35.18 96.4867 34.7213 97.2102 33.7752L96.0187 32.864L94.8271 31.9528C94.7186 32.0947 94.5999 32.18 94.2907 32.18V33.68ZM96.0187 32.864L97.2102 33.7752C97.9136 32.8554 98.1427 31.6529 98.1427 30.416H96.6427H95.1427C95.1427 31.3551 94.9558 31.7846 94.8271 31.9528L96.0187 32.864ZM96.6427 30.416H98.1427C98.1427 29.1791 97.9136 27.9766 97.2102 27.0568L96.0187 27.968L94.8271 28.8792C94.9558 29.0474 95.1427 29.4769 95.1427 30.416H96.6427ZM96.0187 27.968L97.2347 27.0898C96.525 26.107 95.4879 25.604 94.2907 25.604V27.104V28.604C94.5654 28.604 94.6804 28.677 94.8027 28.8462L96.0187 27.968Z" fill="#DADBDD" mask="url(#path-1-outside-1_304_433)"/>
</svg>
