<svg width="105" height="104" viewBox="0 0 105 104" fill="none" xmlns="http://www.w3.org/2000/svg">
<rect x="1" y="0.5" width="103" height="103" rx="11.5" fill="black"/>
<rect x="1" y="0.5" width="103" height="103" rx="11.5" fill="url(#paint0_linear_444_356)" fill-opacity="0.8"/>
<rect x="1" y="0.5" width="103" height="103" rx="11.5" stroke="#22252B"/>
<path d="M32.3809 53.9805C38.1852 47.0876 43.4586 43.1187 45.8645 41.4883C46.651 40.9544 47.688 41.1287 48.2853 41.8677C49.4197 43.2809 50.513 44.7267 51.5639 46.2031C52.3642 47.3243 54.053 47.36 54.9395 46.3061C59.0362 41.4407 64.5731 36.6467 64.5731 36.6467" stroke="url(#paint1_linear_444_356)" stroke-width="2" stroke-linecap="round" stroke-linejoin="round"/>
<path d="M69.4023 39.4427C70.06 36.2385 70.0531 33.4136 69.9976 32.0833C69.9902 31.8573 69.8971 31.6425 69.7373 31.4825C69.5775 31.3225 69.3629 31.2293 69.1368 31.2216C66.6688 31.1299 64.1986 31.3297 61.7774 31.8169C61.0316 31.9694 60.785 32.8817 61.3218 33.4195L67.7997 39.8974C68.3385 40.4352 69.2498 40.1876 69.4023 39.4427ZM32.6459 72.7602C31.5286 72.7235 30.6728 72.048 30.5599 70.9367C30.4697 70.065 30.4004 68.7704 30.4004 66.8568C30.4004 64.9432 30.4717 63.6476 30.5589 62.7769C30.6728 61.6656 31.5286 60.9901 32.6459 60.9524C33.3065 60.9306 34.191 60.9138 35.3529 60.9138C36.5147 60.9138 37.3993 60.9306 38.0599 60.9534C39.1772 60.9901 40.033 61.6656 40.1459 62.7769C40.2351 63.6486 40.3054 64.9432 40.3054 66.8568C40.3054 68.7704 40.2341 70.066 40.1469 70.9367C40.033 72.048 39.1772 72.7235 38.0599 72.7612C37.3983 72.783 36.5147 72.7998 35.3529 72.7998C34.191 72.7998 33.3065 72.783 32.6459 72.7602ZM64.6291 72.7344C63.3414 72.6552 62.447 71.7261 62.3539 70.4394C62.2271 68.6952 62.0964 65.5365 62.0964 59.9233C62.0964 54.3101 62.2271 51.1514 62.3539 49.4072C62.447 48.1205 63.3414 47.1904 64.6291 47.1122C65.2531 47.0736 66.0485 47.0468 67.0489 47.0468C68.0493 47.0468 68.8446 47.0736 69.4687 47.1122C70.7563 47.1914 71.6507 48.1205 71.7438 49.4072C71.8706 51.1514 72.0014 54.3101 72.0014 59.9233C72.0014 65.5365 71.8706 68.6952 71.7438 70.4394C71.6507 71.7261 70.7563 72.6562 69.4687 72.7344C68.8446 72.773 68.0503 72.7998 67.0489 72.7998C66.0485 72.7998 65.2531 72.773 64.6291 72.7344ZM48.7246 72.7522C47.4726 72.6978 46.5584 71.8608 46.4534 70.6128C46.3455 69.3271 46.2484 67.2391 46.2484 63.8853C46.2484 60.5315 46.3455 58.4435 46.4534 57.1578C46.5584 55.9098 47.4726 55.0728 48.7236 55.0183C49.5489 54.9844 50.3749 54.9685 51.2009 54.9708C52.233 54.9708 53.0452 54.9906 53.6771 55.0183C54.9291 55.0728 55.8434 55.9098 55.9483 57.1578C56.0563 58.4435 56.1534 60.5315 56.1534 63.8853C56.1534 67.2391 56.0563 69.3271 55.9483 70.6128C55.8434 71.8608 54.9291 72.6978 53.6781 72.7522C53.0452 72.78 52.233 72.7998 51.2009 72.7998C50.3752 72.8017 49.5496 72.7859 48.7246 72.7522Z" stroke="url(#paint2_linear_444_356)" stroke-width="2" stroke-linecap="round" stroke-linejoin="round"/>
<defs>
<linearGradient id="paint0_linear_444_356" x1="52.5" y1="-118.95" x2="52.5" y2="297.7" gradientUnits="userSpaceOnUse">
<stop offset="0.236759" stop-opacity="0"/>
<stop offset="0.712901" stop-color="#4276CA"/>
</linearGradient>
<linearGradient id="paint1_linear_444_356" x1="32.3809" y1="45.3136" x2="64.5731" y2="45.3136" gradientUnits="userSpaceOnUse">
<stop stop-color="#A95CEC"/>
<stop offset="1" stop-color="#DA22FF"/>
</linearGradient>
<linearGradient id="paint2_linear_444_356" x1="30.4004" y1="52" x2="72.0014" y2="52" gradientUnits="userSpaceOnUse">
<stop stop-color="#A95CEC"/>
<stop offset="1" stop-color="#DA22FF"/>
</linearGradient>
</defs>
</svg>
