<svg width="64" height="64" viewBox="0 0 64 64" fill="none" xmlns="http://www.w3.org/2000/svg">
<rect x="0.5" y="0.5" width="63" height="63" rx="11.5" fill="#22252B"/>
<rect x="0.5" y="0.5" width="63" height="63" rx="11.5" stroke="#333740"/>
<path d="M41.0965 33.1987C41.9394 31.9872 42.4482 30.5751 42.5717 29.1045C42.6953 27.6338 42.4293 26.1566 41.8004 24.8215C41.1716 23.4863 40.2021 22.3404 38.9896 21.499C37.7771 20.6576 36.3644 20.1505 34.8936 20.0287C33.4228 19.9068 31.9458 20.1746 30.6114 20.805C29.277 21.4354 28.1322 22.4062 27.2922 23.6197C26.4523 24.8331 25.9468 26.2465 25.8267 27.7174C25.7066 29.1883 25.9761 30.6649 26.6081 31.9985" stroke="#B4B6BB" stroke-width="2" stroke-linecap="round" stroke-linejoin="round"/>
<path d="M34.2019 24.7978C32.8757 24.7978 31.8015 25.6043 31.8015 26.598C31.8015 27.5918 32.8757 28.3983 34.2019 28.3983C35.5281 28.3983 36.6022 29.2048 36.6022 30.1985C36.6022 31.1922 35.5281 31.9987 34.2019 31.9987M34.2019 24.7978C35.246 24.7978 36.1366 25.2983 36.4654 25.998M34.2019 24.7978V23.5977M34.2019 31.9987C33.1577 31.9987 32.2672 31.4982 31.9384 30.7986M34.2019 31.9987V33.1989M21 34.399H23.8744C24.2273 34.399 24.5753 34.4782 24.891 34.6318L27.3417 35.8176C27.6573 35.97 28.0054 36.0492 28.3594 36.0492H29.61C30.8198 36.0492 31.8015 36.9985 31.8015 38.1699C31.8015 38.2179 31.7691 38.2587 31.7223 38.2719L28.6727 39.1156C28.1255 39.2668 27.542 39.2139 27.0309 38.9668L24.4109 37.6994M31.8015 37.3994L37.3139 35.706C37.7938 35.5587 38.308 35.5668 38.783 35.7291C39.258 35.8914 39.6696 36.1996 39.9591 36.6097C40.402 37.2218 40.2219 38.1003 39.5762 38.4723L30.557 43.6774C30.2749 43.8405 29.9626 43.9446 29.6391 43.9832C29.3156 44.0218 28.9876 43.9941 28.6751 43.9018L21 41.6239" stroke="#B4B6BB" stroke-width="2" stroke-linecap="round" stroke-linejoin="round"/>
</svg>
