<svg width="64" height="64" viewBox="0 0 64 64" fill="none" xmlns="http://www.w3.org/2000/svg">
<rect x="0.5" y="0.5" width="63" height="63" rx="11.5" fill="#22252B"/>
<rect x="0.5" y="0.5" width="63" height="63" rx="11.5" stroke="#333740"/>
<path d="M17.6316 32C17.6316 33.6414 17.9813 35.1529 18.6807 36.5346C19.3801 37.9162 20.6201 39.383 22.4007 40.9349V36.8498C22.4007 36.6202 22.4785 36.4279 22.634 36.2727C22.7895 36.1175 22.9837 36.0404 23.2165 36.0415C23.4492 36.0426 23.6434 36.1196 23.7989 36.2727C23.9545 36.4257 24.0323 36.6181 24.0323 36.8498V42.4464C24.0323 42.8215 23.9072 43.1324 23.657 43.3792C23.4068 43.6271 23.093 43.751 22.7156 43.751H17.0671C16.8354 43.751 16.6412 43.674 16.4846 43.5199C16.329 43.3658 16.2513 43.1734 16.2513 42.9427C16.2513 42.7132 16.329 42.5214 16.4846 42.3672C16.6412 42.212 16.8354 42.1344 17.0671 42.1344H21.2928C19.3415 40.4521 17.9715 38.7962 17.1829 37.1666C16.3943 35.5371 16 33.8149 16 32C16 29.6268 16.626 27.4628 17.8779 25.5077C19.1299 23.5527 20.7566 22.0682 22.758 21.054C22.9723 20.9419 23.1942 20.9193 23.4237 20.9861C23.6532 21.0529 23.8049 21.1984 23.8789 21.4226C23.9529 21.6468 23.9376 21.8623 23.8332 22.0692C23.7288 22.2762 23.5809 22.4362 23.3894 22.5494C21.6578 23.4256 20.2655 24.7097 19.2126 26.4017C18.1586 28.0938 17.6316 29.9599 17.6316 32ZM33.1316 44C32.0221 44 31.0649 43.6012 30.26 42.8037C29.4551 42.0062 29.0526 41.0578 29.0526 39.9585C29.0526 38.8722 29.4225 37.9421 30.1621 37.1683C30.9018 36.3944 31.8834 35.9806 33.1071 35.9267C33.5063 34.9772 34.1301 34.1991 34.9785 33.5923C35.8269 32.9856 36.8429 32.6827 38.0263 32.6838C39.3631 32.6838 40.5237 33.123 41.5081 34.0013C42.4914 34.8786 43.0608 36.056 43.2164 37.5336H43.7173C44.6299 37.5336 45.4049 37.8413 46.0423 38.4567C46.6797 39.0721 46.9989 39.8286 47 40.7264C47 41.6306 46.6846 42.4023 46.0537 43.0414C45.4228 43.6805 44.6505 44 43.7368 44H33.1316ZM34.073 22.8484V26.9013C34.073 27.1319 33.9952 27.3243 33.8397 27.4784C33.6841 27.6325 33.49 27.7096 33.2572 27.7096C33.0244 27.7096 32.8303 27.6325 32.6747 27.4784C32.5192 27.3243 32.4414 27.1319 32.4414 26.9013V21.3062C32.4414 20.9312 32.5665 20.6197 32.8167 20.3718C33.0669 20.1239 33.3812 20 33.7597 20H39.4066C39.6394 20 39.8336 20.0771 39.9891 20.2312C40.1446 20.3864 40.2224 20.5787 40.2224 20.8083C40.2224 21.0379 40.1446 21.2302 39.9891 21.3854C39.8336 21.5395 39.6394 21.6166 39.4066 21.6166H35.1808C36.7058 22.9368 37.8224 24.1644 38.5305 25.2992C39.2375 26.4341 39.7471 27.5732 40.0593 28.7167C40.1332 28.9204 40.1049 29.1144 39.9744 29.2987C39.8439 29.483 39.6737 29.6053 39.4637 29.6656C39.2538 29.726 39.0586 29.6899 38.878 29.5573C38.6996 29.4258 38.5707 29.2588 38.4913 29.0562C38.1976 28.0054 37.7364 27.0187 37.1077 26.0962C36.4769 25.1736 35.4653 24.0921 34.073 22.8484ZM33.1316 42.3834H43.7368C44.185 42.3834 44.5689 42.225 44.8887 41.9081C45.2085 41.5913 45.3684 41.2108 45.3684 40.7668C45.3684 40.3228 45.2085 39.9423 44.8887 39.6255C44.5689 39.3086 44.185 39.1502 43.7368 39.1502H41.6974V37.9378C41.6974 36.9279 41.3401 36.0695 40.6254 35.3625C39.9108 34.6555 39.0444 34.3015 38.0263 34.3004C37.0082 34.2993 36.1576 34.6065 35.4745 35.2219C34.7914 35.8373 34.4287 36.5766 34.3863 37.4398V37.5336H33.1316C32.4605 37.5336 31.8845 37.7713 31.4037 38.2465C30.9241 38.7229 30.6842 39.2935 30.6842 39.9585C30.6842 40.6235 30.9241 41.1941 31.4037 41.6705C31.8845 42.1458 32.4605 42.3834 33.1316 42.3834Z" fill="#B4B6BB"/>
</svg>
