<svg width="64" height="64" viewBox="0 0 64 64" fill="none" xmlns="http://www.w3.org/2000/svg">
<rect x="0.5" y="0.5" width="63" height="63" rx="11.5" fill="#22252B"/>
<rect x="0.5" y="0.5" width="63" height="63" rx="11.5" stroke="#333740"/>
<path d="M30.6 32L33 29.6M33 29.6L35.4 27.2L37.8 29.6M33 29.6L34.8 31.4M30.0696 35.0732C29.3616 35.7812 28.23 35.7716 27.5316 35.0732C27.1932 34.7366 27.0023 34.2793 27.001 33.802C26.9996 33.3247 27.1879 32.8665 27.5244 32.528C27.8632 32.1901 28.3221 32.0003 28.8006 32.0003C29.2791 32.0003 29.738 32.1901 30.0768 32.528C30.4133 32.8665 30.6016 33.3247 30.6002 33.802C30.5989 34.2793 30.408 34.7366 30.0696 35.0732Z" stroke="#B4B6BB" stroke-width="2" stroke-linecap="round" stroke-linejoin="round"/>
<path d="M42.6 31.0196V27.536C42.6 25.568 42.6 24.584 42.1152 23.942C41.6304 23.3 40.5336 22.9892 38.3412 22.3652C37.0189 21.9854 35.7242 21.5151 34.4664 20.9576C33.0276 20.3192 32.3088 20 31.8 20C31.2912 20 30.5724 20.3192 29.1336 20.9576C28.0776 21.4256 26.7576 21.9392 25.2588 22.3652C23.0664 22.9892 21.9708 23.3012 21.4848 23.942C21 24.584 21 25.568 21 27.536V31.0196C21 37.7696 27.0756 41.8196 30.1128 43.4228C30.8412 43.8068 31.2048 44 31.8 44C32.3952 44 32.7588 43.808 33.4872 43.424C36.5244 41.8184 42.6 37.7696 42.6 31.0196Z" stroke="#B4B6BB" stroke-width="2" stroke-linecap="round" stroke-linejoin="round"/>
</svg>
