<svg width="64" height="64" viewBox="0 0 64 64" fill="none" xmlns="http://www.w3.org/2000/svg">
<rect x="0.5" y="0.5" width="63" height="63" rx="11.5" fill="#22252B"/>
<rect x="0.5" y="0.5" width="63" height="63" rx="11.5" stroke="#333740"/>
<path d="M21.1426 33.1426C24.4912 29.1659 27.5336 26.8761 28.9216 25.9355C29.3753 25.6275 29.9736 25.7281 30.3182 26.1544C30.9727 26.9698 31.6034 27.8038 32.2097 28.6556C32.6714 29.3025 33.6457 29.3231 34.1572 28.715C36.5207 25.9081 39.715 23.1423 39.715 23.1423" stroke="#B4B6BB" stroke-width="2" stroke-linecap="round" stroke-linejoin="round"/>
<path d="M42.5011 24.7555C42.8805 22.9068 42.8765 21.2771 42.8445 20.5096C42.8403 20.3792 42.7866 20.2553 42.6944 20.163C42.6022 20.0707 42.4783 20.0169 42.348 20.0125C40.9241 19.9596 39.499 20.0749 38.1021 20.3559C37.6718 20.4439 37.5296 20.9702 37.8393 21.2805L41.5765 25.0177C41.8874 25.328 42.4131 25.1852 42.5011 24.7555ZM21.2955 43.977C20.6509 43.9559 20.1571 43.5662 20.092 42.925C20.04 42.4222 20 41.6753 20 40.5713C20 39.4672 20.0411 38.7198 20.0914 38.2175C20.1571 37.5763 20.6509 37.1866 21.2955 37.1649C21.6766 37.1523 22.1869 37.1426 22.8572 37.1426C23.5275 37.1426 24.0378 37.1523 24.419 37.1655C25.0635 37.1866 25.5573 37.5763 25.6224 38.2175C25.6738 38.7204 25.7144 39.4672 25.7144 40.5713C25.7144 41.6753 25.6733 42.4227 25.623 42.925C25.5573 43.5662 25.0635 43.9559 24.419 43.9776C24.0372 43.9902 23.5275 43.9999 22.8572 43.9999C22.1869 43.9999 21.6766 43.9902 21.2955 43.977ZM39.7473 43.9622C39.0044 43.9165 38.4884 43.3805 38.4347 42.6382C38.3616 41.6319 38.2861 39.8095 38.2861 36.5712C38.2861 33.3328 38.3616 31.5105 38.4347 30.5042C38.4884 29.7619 39.0044 29.2253 39.7473 29.1801C40.1073 29.1578 40.5662 29.1424 41.1434 29.1424C41.7205 29.1424 42.1794 29.1578 42.5394 29.1801C43.2823 29.2258 43.7983 29.7619 43.852 30.5042C43.9251 31.5105 44.0006 33.3328 44.0006 36.5712C44.0006 39.8095 43.9251 41.6319 43.852 42.6382C43.7983 43.3805 43.2823 43.917 42.5394 43.9622C42.1794 43.9845 41.7211 43.9999 41.1434 43.9999C40.5662 43.9999 40.1073 43.9845 39.7473 43.9622ZM30.5717 43.9725C29.8494 43.941 29.3219 43.4582 29.2614 42.7382C29.1991 41.9964 29.1431 40.7918 29.1431 38.8569C29.1431 36.922 29.1991 35.7174 29.2614 34.9757C29.3219 34.2557 29.8494 33.7728 30.5711 33.7414C31.0472 33.7218 31.5237 33.7126 32.0003 33.714C32.5957 33.714 33.0643 33.7254 33.4289 33.7414C34.1512 33.7728 34.6786 34.2557 34.7392 34.9757C34.8015 35.7174 34.8575 36.922 34.8575 38.8569C34.8575 40.7918 34.8015 41.9964 34.7392 42.7382C34.6786 43.4582 34.1512 43.941 33.4295 43.9725C33.0643 43.9885 32.5957 43.9999 32.0003 43.9999C31.5239 44.001 31.0476 43.9919 30.5717 43.9725Z" stroke="#B4B6BB" stroke-width="2" stroke-linecap="round" stroke-linejoin="round"/>
</svg>
