<svg width="64" height="64" viewBox="0 0 64 64" fill="none" xmlns="http://www.w3.org/2000/svg">
<rect x="0.5" y="0.5" width="63" height="63" rx="11.5" fill="#22252B"/>
<rect x="0.5" y="0.5" width="63" height="63" rx="11.5" stroke="#333740"/>
<path d="M22.65 44C20.5295 44 18.7247 43.2566 17.2355 41.7697C15.7452 40.2817 15 38.4629 15 36.3131C15 34.2834 15.693 32.5234 17.0791 31.0331C18.4652 29.5429 20.0932 28.7417 21.9632 28.6297C22.3451 26.1326 23.4841 24.0697 25.3802 22.4411C27.2763 20.8126 29.4829 19.9989 32 20C34.8413 20 37.2519 20.9983 39.2318 22.9949C41.2106 24.9903 42.2 27.4206 42.2 30.2857V32H43.2472C44.8747 32.0526 46.2403 32.6554 47.3442 33.8086C48.4481 34.9617 49 36.3589 49 38C49 39.6811 48.4362 41.1017 47.3085 42.2617C46.1808 43.4206 44.7834 44 43.1163 44H33.8955C33.1135 44 32.4607 43.736 31.9371 43.208C31.4135 42.68 31.1511 42.0206 31.15 41.2297V31.2817L27.58 34.8611L26.3764 33.6817L32 28.0109L37.6236 33.6817L36.42 34.8611L32.85 31.2817V41.2314C32.85 41.4943 32.9588 41.736 33.1764 41.9566C33.394 42.1771 33.6343 42.2869 33.8972 42.2857H43.05C44.24 42.2857 45.2458 41.8714 46.0675 41.0429C46.8892 40.2143 47.3 39.2 47.3 38C47.3 36.8 46.8892 35.7857 46.0675 34.9571C45.2458 34.1286 44.24 33.7143 43.05 33.7143H40.5V30.2857C40.5 27.9143 39.671 25.8926 38.0129 24.2206C36.3548 22.5486 34.3505 21.7131 32 21.7143C29.6495 21.7154 27.6452 22.5514 25.9871 24.2223C24.329 25.8931 23.5 27.9143 23.5 30.2857H22.5854C21.0067 30.2857 19.6314 30.8714 18.4595 32.0429C17.2876 33.2143 16.7011 34.6286 16.7 36.2857C16.6989 37.9429 17.2797 39.3571 18.4425 40.5286C19.6053 41.7 21.0078 42.2857 22.65 42.2857H26.9V44H22.65Z" fill="#B4B6BB"/>
</svg>
