<svg width="64" height="64" viewBox="0 0 64 64" fill="none" xmlns="http://www.w3.org/2000/svg">
<rect x="0.5" y="0.5" width="63" height="63" rx="11.5" fill="#22252B"/>
<rect x="0.5" y="0.5" width="63" height="63" rx="11.5" stroke="#333740"/>
<path d="M27.9518 20.1886C29.0069 19.9186 30.1151 19.9388 31.1597 20.2471C32.2044 20.5555 33.1471 21.1405 33.8886 21.9408C34.6629 21.5585 35.5266 21.3959 36.3862 21.4705C37.2459 21.5451 38.0689 21.854 38.7664 22.3638C39.4639 22.8737 40.0092 23.5652 40.3436 24.3635C40.678 25.1619 40.7887 26.0367 40.6638 26.8936C41.6034 27.5277 42.3154 28.448 42.6947 29.5188C43.074 30.5896 43.1006 31.7543 42.7706 32.8415C42.4406 33.9286 41.7715 34.8806 40.8617 35.5573C39.952 36.234 38.8498 36.5995 37.7174 36.6001H37.3802V39.4996C37.3802 39.9964 37.782 40.3997 38.277 40.3997H38.863C39.1368 40.036 39.5708 39.7996 40.0587 39.7996H40.0707C40.4671 39.7996 40.8473 39.9577 41.1276 40.239C41.4079 40.5203 41.5653 40.9019 41.5653 41.2997C41.5653 41.6976 41.4079 42.0792 41.1276 42.3605C40.8473 42.6418 40.4671 42.7999 40.0707 42.7999H40.0587C39.5696 42.7999 39.1356 42.5647 38.863 42.1998H38.277C37.5635 42.1998 36.8792 41.9153 36.3746 41.4089C35.8701 40.9026 35.5866 40.2157 35.5866 39.4996V36.6001H32.8962V41.2913C33.1498 41.4786 33.3381 41.7414 33.4341 42.0423C33.5301 42.3433 33.529 42.667 33.4309 42.9672C33.3328 43.2675 33.1428 43.529 32.8879 43.7145C32.6329 43.8999 32.3262 43.9999 32.0113 44H31.9994C31.6857 44 31.3799 43.9009 31.1254 43.7168C30.8709 43.5327 30.6806 43.2729 30.5814 42.9742C30.4822 42.6756 30.4791 42.3531 30.5727 42.0526C30.6662 41.752 30.8516 41.4887 31.1026 41.2997V36.6001H28.4121V39.4996C28.4121 40.2157 28.1287 40.9026 27.6241 41.4089C27.1196 41.9153 26.4352 42.1998 25.7217 42.1998H25.1358C24.8643 42.5647 24.4303 42.7999 23.94 42.7999H23.9281C23.5317 42.7999 23.1515 42.6418 22.8712 42.3605C22.5909 42.0792 22.4334 41.6976 22.4334 41.2997C22.4334 40.9019 22.5909 40.5203 22.8712 40.239C23.1515 39.9577 23.5317 39.7996 23.9281 39.7996H23.94C24.4303 39.7996 24.8631 40.036 25.1358 40.3997H25.7217C25.9595 40.3997 26.1876 40.3048 26.3558 40.136C26.524 39.9672 26.6185 39.7383 26.6185 39.4996V36.6001H26.2813C25.1401 36.5993 24.0299 36.2277 23.1166 35.5411C22.2033 34.8545 21.5359 33.8896 21.2143 32.7907C20.8926 31.6918 20.934 30.5179 21.3322 29.4446C21.7304 28.3713 22.4641 27.4562 23.4235 26.836C23.2429 25.3645 23.6031 23.8775 24.4368 22.6535C25.2704 21.4296 26.5201 20.554 27.9518 20.1886ZM27.5596 34.7987H37.7186C38.5072 34.7979 39.2723 34.5292 39.8893 34.0362C40.5063 33.5433 40.9389 32.8553 41.1167 32.0842C41.2944 31.3131 41.2068 30.5043 40.8681 29.7895C40.5295 29.0747 39.9597 28.4961 39.2516 28.1477C39.0595 28.0534 38.9074 27.8934 38.8225 27.6965C38.7377 27.4995 38.7257 27.2786 38.7888 27.0736C38.9713 26.4787 38.9617 25.8412 38.7615 25.2521C38.5612 24.6629 38.1806 24.1524 37.674 23.7934C37.1674 23.4344 36.5606 23.2453 35.9405 23.2531C35.3204 23.2609 34.7186 23.4653 34.2211 23.8369C34.1248 23.9087 34.0152 23.9605 33.8986 23.989C33.7821 24.0175 33.6611 24.0223 33.5427 24.0031C33.4243 23.9838 33.3109 23.9409 33.2093 23.8769C33.1077 23.813 33.0199 23.7292 32.9512 23.6305C32.38 22.8117 31.5419 22.2187 30.5816 21.9538C29.6213 21.689 28.599 21.7688 27.6911 22.1796C26.7831 22.5904 26.0466 23.3064 25.6085 24.2041C25.1703 25.1017 25.0581 26.1246 25.2912 27.0964C25.3398 27.298 25.3175 27.5101 25.2282 27.6971C25.1388 27.8841 24.9879 28.0343 24.801 28.1225C24.0827 28.4611 23.5008 29.0352 23.151 29.7501C22.8013 30.4651 22.7047 31.2782 22.8771 32.0557C23.0495 32.8331 23.4806 33.5284 24.0994 34.027C24.7182 34.5256 25.4877 34.7978 26.2813 34.7987H27.5596Z" fill="#B4B6BB"/>
</svg>
