<svg width="105" height="104" viewBox="0 0 105 104" fill="none" xmlns="http://www.w3.org/2000/svg">
<rect x="1" y="0.5" width="103" height="103" rx="11.5" fill="black"/>
<rect x="1" y="0.5" width="103" height="103" rx="11.5" fill="url(#paint0_linear_444_350)" fill-opacity="0.8"/>
<rect x="1" y="0.5" width="103" height="103" rx="11.5" stroke="#22252B"/>
<path d="M67.8349 54.0777C69.2958 51.9778 70.1777 49.5301 70.3919 46.981C70.606 44.4319 70.1449 41.8714 69.055 39.5571C67.965 37.2429 66.2846 35.2566 64.183 33.7982C62.0814 32.3399 59.6326 31.4608 57.0833 31.2497C54.534 31.0385 51.974 31.5026 49.661 32.5953C47.3481 33.688 45.3638 35.3707 43.9079 37.474C42.4519 39.5774 41.5758 42.0272 41.3676 44.5767C41.1595 47.1263 41.6266 49.6858 42.722 51.9974" stroke="url(#paint1_linear_444_350)" stroke-width="2" stroke-linecap="round" stroke-linejoin="round"/>
<path d="M55.8829 39.5161C53.5842 39.5161 51.7223 40.914 51.7223 42.6364C51.7223 44.3589 53.5842 45.7568 55.8829 45.7568C58.1816 45.7568 60.0434 47.1548 60.0434 48.8772C60.0434 50.5997 58.1816 51.9976 55.8829 51.9976M55.8829 39.5161C57.6927 39.5161 59.2362 40.3835 59.8062 41.5963M55.8829 39.5161V37.4358M55.8829 51.9976C54.073 51.9976 52.5295 51.1301 51.9595 49.9174M55.8829 51.9976V54.0779M33 56.1581H37.9822C38.5938 56.1581 39.1971 56.2954 39.7442 56.5617L43.9921 58.617C44.5392 58.8812 45.1425 59.0185 45.7562 59.0185H47.9238C50.0207 59.0185 51.7223 60.664 51.7223 62.6943C51.7223 62.7775 51.6662 62.8483 51.585 62.8711L46.2991 64.3336C45.3506 64.5956 44.3392 64.5039 43.4533 64.0756L38.9121 61.8789M51.7223 61.3588L61.277 58.4235C62.1088 58.1683 63 58.1823 63.8233 58.4636C64.6467 58.7449 65.3601 59.2791 65.8619 59.99C66.6295 61.0509 66.3174 62.5737 65.1983 63.2185L49.5651 72.2406C49.0763 72.5235 48.535 72.7038 47.9742 72.7707C47.4134 72.8376 46.8449 72.7896 46.3033 72.6296L33 68.6813" stroke="url(#paint2_linear_444_350)" stroke-width="2" stroke-linecap="round" stroke-linejoin="round"/>
<defs>
<linearGradient id="paint0_linear_444_350" x1="52.5" y1="-118.95" x2="52.5" y2="297.7" gradientUnits="userSpaceOnUse">
<stop offset="0.236759" stop-opacity="0"/>
<stop offset="0.712901" stop-color="#4276CA"/>
</linearGradient>
<linearGradient id="paint1_linear_444_350" x1="41.3193" y1="42.6388" x2="70.443" y2="42.6388" gradientUnits="userSpaceOnUse">
<stop stop-color="#A95CEC"/>
<stop offset="1" stop-color="#DA22FF"/>
</linearGradient>
<linearGradient id="paint2_linear_444_350" x1="33" y1="55.1179" x2="66.2843" y2="55.1179" gradientUnits="userSpaceOnUse">
<stop stop-color="#A95CEC"/>
<stop offset="1" stop-color="#DA22FF"/>
</linearGradient>
</defs>
</svg>
