<svg width="64" height="64" viewBox="0 0 64 64" fill="none" xmlns="http://www.w3.org/2000/svg">
<rect x="0.5" y="0.5" width="63" height="63" rx="11.5" fill="#22252B"/>
<rect x="0.5" y="0.5" width="63" height="63" rx="11.5" stroke="#333740"/>
<path d="M25.8966 36.2857H20.7241C19.7733 36.2857 19 35.5169 19 34.5714V29.4286C19 28.4832 19.7733 27.7143 20.7241 27.7143H25.8966C26.8474 27.7143 27.6207 28.4832 27.6207 29.4286V34.5714C27.6207 35.5169 26.8474 36.2857 25.8966 36.2857ZM20.7241 29.4286V34.5714H25.8966V29.4286H20.7241ZM31.931 44C31.619 44 31.3098 43.9886 31.0034 43.9657C27.2517 43.6811 23.7966 41.624 21.7595 38.4629L23.2121 37.5371C24.0777 38.8774 25.2432 40.0006 26.6174 40.8191C27.9917 41.6376 29.5376 42.1292 31.1345 42.2557C31.3971 42.2757 31.6626 42.2857 31.931 42.2857V44ZM37.9655 44L36.1552 43.1429C34.6897 42.4571 33.6552 40.9143 33.6552 39.2857V33.7143H42.2759V39.2857C42.2759 40.9143 41.3276 42.4571 39.7759 43.1429L37.9655 44ZM35.3793 35.4286V39.2857C35.3793 40.3143 35.9828 41.1714 36.8448 41.6L37.9655 42.1143L39.0862 41.6C39.9483 41.1714 40.5517 40.2286 40.5517 39.2857V35.4286H35.3793ZM41.6741 28.5714C42.0655 29.6703 42.2759 30.818 42.2759 32H44C44 30.8257 43.8284 29.6789 43.4966 28.5714H41.6741ZM41.4138 26.8572H38.8276C37.8767 26.8572 37.1034 26.0883 37.1034 25.1429V22.5715C37.1034 21.626 37.8767 20.8572 38.8276 20.8572H41.4138C42.3647 20.8572 43.1379 21.626 43.1379 22.5715V25.1429C43.1379 26.0883 42.3647 26.8572 41.4138 26.8572ZM38.8276 22.5715V25.1429H41.4138V22.5715H38.8276ZM35.3793 20.5006C34.2603 20.1688 33.0988 20.0001 31.931 20C29.9038 19.9958 27.9083 20.5012 26.1302 21.4693C24.352 22.4373 22.8488 23.8367 21.7603 25.5372L23.2121 26.4629C24.4668 24.5023 26.3542 23.0238 28.5649 22.2698C30.7756 21.5157 33.1784 21.5308 35.3793 22.3126V20.5006Z" fill="#B4B6BB"/>
</svg>
