<svg width="64" height="64" viewBox="0 0 64 64" fill="none" xmlns="http://www.w3.org/2000/svg">
<rect x="0.5" y="0.5" width="63" height="63" rx="11.5" fill="#22252B"/>
<rect x="0.5" y="0.5" width="63" height="63" rx="11.5" stroke="#333740"/>
<path d="M39.2 28.8284V30.2M39.2 28.8284C38.6269 28.8306 38.062 28.6927 37.5544 28.4266C37.0468 28.1606 36.6119 27.7745 36.2876 27.302M39.2 28.8284C39.7731 28.8306 40.338 28.6927 40.8456 28.4266C41.3532 28.1606 41.7881 27.7745 42.1124 27.302M36.2876 27.302L35 28.142M36.2876 27.302C35.9032 26.7422 35.6974 26.0791 35.6974 25.4C35.6974 24.7209 35.9032 24.0578 36.2876 23.498M42.1124 27.302L43.4 28.142M42.1124 27.302C42.4968 26.7422 42.7026 26.0791 42.7026 25.4C42.7026 24.7209 42.4968 24.0578 42.1124 23.498M39.2 21.9716C39.7731 21.9694 40.338 22.1073 40.8456 22.3734C41.3532 22.6394 41.7881 23.0255 42.1124 23.498M39.2 21.9716C38.6269 21.9694 38.062 22.1073 37.5544 22.3734C37.0468 22.6394 36.6119 23.0255 36.2876 23.498M39.2 21.9716V20.6M42.1124 23.498L43.4 22.6568M36.2876 23.498L35 22.658M20 24.8C20 23.12 20 22.28 20.3264 21.638C20.6141 21.0732 21.0732 20.6141 21.638 20.3264C22.28 20 23.12 20 24.8 20C26.48 20 27.32 20 27.962 20.3264C28.5268 20.6141 28.9859 21.0732 29.2736 21.638C29.6 22.28 29.6 23.12 29.6 24.8C29.6 26.48 29.6 27.32 29.2736 27.962C28.9859 28.5268 28.5268 28.9859 27.962 29.2736C27.32 29.6 26.48 29.6 24.8 29.6C23.12 29.6 22.28 29.6 21.638 29.2736C21.0732 28.9859 20.6141 28.5268 20.3264 27.962C20 27.32 20 26.48 20 24.8ZM20 39.2C20 37.52 20 36.68 20.3264 36.038C20.6143 35.4737 21.0734 35.015 21.638 34.7276C22.28 34.4 23.12 34.4 24.8 34.4C26.48 34.4 27.32 34.4 27.962 34.7276C28.5266 35.015 28.9857 35.4737 29.2736 36.038C29.6 36.68 29.6 37.52 29.6 39.2C29.6 40.88 29.6 41.72 29.2736 42.362C28.9857 42.9263 28.5266 43.385 27.962 43.6724C27.32 44 26.48 44 24.8 44C23.12 44 22.28 44 21.638 43.6724C21.0734 43.385 20.6143 42.9263 20.3264 42.362C20 41.72 20 40.88 20 39.2ZM34.4 39.2C34.4 37.52 34.4 36.68 34.7276 36.038C35.0152 35.4739 35.4739 35.0152 36.038 34.7276C36.68 34.4 37.52 34.4 39.2 34.4C40.88 34.4 41.72 34.4 42.362 34.7276C42.9261 35.0152 43.3848 35.4739 43.6724 36.038C44 36.68 44 37.52 44 39.2C44 40.88 44 41.72 43.6724 42.362C43.3848 42.9261 42.9261 43.3848 42.362 43.6724C41.72 44 40.88 44 39.2 44C37.52 44 36.68 44 36.038 43.6724C35.4739 43.3848 35.0152 42.9261 34.7276 42.362C34.4 41.72 34.4 40.88 34.4 39.2Z" stroke="#B4B6BB" stroke-width="2" stroke-linecap="round" stroke-linejoin="round"/>
</svg>
