<svg width="105" height="104" viewBox="0 0 105 104" fill="none" xmlns="http://www.w3.org/2000/svg">
<rect x="1" y="0.5" width="103" height="103" rx="11.5" fill="black"/>
<rect x="1" y="0.5" width="103" height="103" rx="11.5" fill="url(#paint0_linear_444_344)" fill-opacity="0.8"/>
<rect x="1" y="0.5" width="103" height="103" rx="11.5" stroke="#22252B"/>
<path fill-rule="evenodd" clip-rule="evenodd" d="M37.466 41.8187L49.6135 36.0087C50.3118 35.6756 51.0761 35.5027 51.8502 35.5027C52.6243 35.5027 53.3886 35.6756 54.0868 36.0087L66.2344 41.8187C66.6676 42.0272 67.0332 42.353 67.2893 42.759C67.5453 43.1649 67.6815 43.6345 67.6823 44.114V45.5428C67.6822 49.6587 66.643 53.7084 64.6605 57.319C62.678 60.9295 59.8159 63.9848 56.3379 66.2036L53.4996 68.014C53.0076 68.3291 52.435 68.4966 51.8502 68.4966C51.2653 68.4966 50.6928 68.3291 50.2008 68.014L47.3625 66.2064C43.884 63.9874 41.0217 60.9317 39.0392 57.3206C37.0567 53.7095 36.0177 49.6592 36.0181 45.5428V44.114C36.0181 43.1356 36.5823 42.2433 37.466 41.8187ZM47.7425 32.1296L35.5978 37.9396C34.4311 38.499 33.4464 39.3751 32.7569 40.4674C32.0674 41.5596 31.7012 42.8236 31.7002 44.114V45.5428C31.7 50.381 32.9211 55.1415 35.2512 59.3858C37.5813 63.6302 40.9454 67.2219 45.0337 69.8302L47.872 71.6377C49.0592 72.3966 50.4399 72.7999 51.8502 72.7999C53.2605 72.7999 54.6412 72.3966 55.8284 71.6377L58.6667 69.8302C62.755 67.2219 66.1191 63.6302 68.4492 59.3858C70.7793 55.1415 72.0004 50.381 72.0002 45.5428V44.114C72.0002 41.4801 70.4861 39.0786 68.1026 37.9396L55.955 32.1296C54.6737 31.5176 53.271 31.2 51.8502 31.2C50.4294 31.2 49.0238 31.5176 47.7425 32.1296ZM53.2031 56.9333C52.991 57.1303 52.8209 57.3679 52.7029 57.6319C52.5849 57.8958 52.5214 58.1808 52.5163 58.4697C52.5112 58.7586 52.5645 59.0456 52.6731 59.3136C52.7817 59.5815 52.9433 59.8249 53.1483 60.0293C53.3533 60.2336 53.5975 60.3947 53.8664 60.5029C54.1352 60.6111 54.4231 60.6643 54.713 60.6592C55.0029 60.6541 55.2888 60.5909 55.5536 60.4732C55.8184 60.3556 56.0568 60.1861 56.2544 59.9746C57.9096 58.3277 59.4727 55.9636 60.6183 53.6769C61.7295 51.4619 62.6448 48.9342 62.6448 46.9774C62.6448 46.4067 62.4174 45.8594 62.0125 45.4558C61.6076 45.0523 61.0585 44.8255 60.4859 44.8255C59.9133 44.8255 59.3642 45.0523 58.9593 45.4558C58.5544 45.8594 58.327 46.4067 58.327 46.9774C58.327 47.8898 57.8031 49.6658 56.7553 51.7545C55.742 53.7715 54.4265 55.7111 53.2031 56.9333Z" fill="url(#paint1_linear_444_344)"/>
<defs>
<linearGradient id="paint0_linear_444_344" x1="52.5" y1="-118.95" x2="52.5" y2="297.7" gradientUnits="userSpaceOnUse">
<stop offset="0.236759" stop-opacity="0"/>
<stop offset="0.712901" stop-color="#4276CA"/>
</linearGradient>
<linearGradient id="paint1_linear_444_344" x1="31.7002" y1="52" x2="72.0002" y2="52" gradientUnits="userSpaceOnUse">
<stop stop-color="#A95CEC"/>
<stop offset="1" stop-color="#DA22FF"/>
</linearGradient>
</defs>
</svg>
