<svg width="64" height="64" viewBox="0 0 64 64" fill="none" xmlns="http://www.w3.org/2000/svg">
<rect x="0.5" y="0.5" width="63" height="63" rx="11.5" fill="#22252B"/>
<rect x="0.5" y="0.5" width="63" height="63" rx="11.5" stroke="#333740"/>
<path d="M30.5 39.506H23.9855C20.1275 39.5 17 36.4894 17 32.7754C17 29.0614 20.1275 26.0524 23.9855 26.0524C24.575 23.4094 26.6765 21.2523 29.498 20.3928C32.318 19.5348 35.432 20.1033 37.664 21.8928C39.896 23.6779 40.907 26.4034 40.319 29.0464H41.804C42.9136 29.0489 43.9934 29.406 44.8858 30.0655C45.7782 30.725 46.4364 31.6524 46.7645 32.7124M44 44L47 41L44 38M39.5 38L36.5 41L39.5 44" stroke="#B4B6BB" stroke-width="2.66667" stroke-linecap="round" stroke-linejoin="round"/>
</svg>
