<svg width="104" height="104" viewBox="0 0 104 104" fill="none" xmlns="http://www.w3.org/2000/svg">
<rect x="0.5" y="0.5" width="103" height="103" rx="11.5" fill="black"/>
<rect x="0.5" y="0.5" width="103" height="103" rx="11.5" fill="url(#paint0_linear_444_343)" fill-opacity="0.8"/>
<rect x="0.5" y="0.5" width="103" height="103" rx="11.5" stroke="#22252B"/>
<path d="M50.4066 69.6C48.845 69.6021 47.2813 68.6656 46.8269 66.7904C46.6905 66.2276 46.4232 65.705 46.0467 65.265C45.6702 64.8251 45.1951 64.4803 44.6601 64.2586C44.1252 64.037 43.5454 63.9448 42.9681 63.9896C42.3908 64.0343 41.8322 64.2148 41.3378 64.5162C38.0461 66.5216 34.2765 62.7541 36.2818 59.4602C36.5828 58.966 36.763 58.4078 36.8076 57.8308C36.8523 57.2539 36.7602 56.6746 36.5388 56.1399C36.3174 55.6053 35.973 55.1305 35.5336 54.754C35.0941 54.3775 34.5721 54.11 34.0098 53.9733C30.2637 53.0645 30.2637 47.7354 34.0098 46.8266C34.5726 46.6903 35.0952 46.4229 35.5351 46.0464C35.9751 45.6699 36.3199 45.1949 36.5415 44.6599C36.7632 44.1249 36.8553 43.5452 36.8106 42.9679C36.7658 42.3906 36.5854 41.832 36.2839 41.3376C34.2786 38.0458 38.0461 34.2762 41.3399 36.2816C43.4733 37.5786 46.2381 36.4309 46.8269 34.0096C47.7357 30.2634 53.0647 30.2634 53.9735 34.0096C54.1099 34.5723 54.3772 35.0949 54.7537 35.5349C55.1302 35.9748 55.6053 36.3196 56.1403 36.5413C56.6752 36.7629 57.2549 36.8551 57.8323 36.8103C58.4096 36.7656 58.9682 36.5851 59.4626 36.2837C62.7543 34.2784 66.5239 38.0458 64.5186 41.3397C64.2176 41.8339 64.0374 42.3921 63.9928 42.9691C63.9481 43.546 64.0402 44.1253 64.2616 44.66C64.483 45.1946 64.8274 45.6695 65.2668 46.0459C65.7063 46.4224 66.2283 46.6899 66.7906 46.8266C68.6807 47.2853 69.6173 48.8682 69.6023 50.4405" stroke="url(#paint1_linear_444_343)" stroke-width="2.66667" stroke-linecap="round" stroke-linejoin="round"/>
<path d="M65.3355 69.6C64.2039 69.6 63.1186 69.1505 62.3185 68.3503C61.5183 67.5502 61.0688 66.4649 61.0688 65.3333C61.0688 64.2017 61.5183 63.1165 62.3185 62.3163C63.1186 61.5162 64.2039 61.0667 65.3355 61.0667M65.3355 69.6C66.4671 69.6 67.5523 69.1505 68.3525 68.3503C69.1526 67.5502 69.6021 66.4649 69.6021 65.3333C69.6021 64.2017 69.1526 63.1165 68.3525 62.3163C67.5523 61.5162 66.4671 61.0667 65.3355 61.0667M65.3355 69.6V72.8M65.3355 61.0667V57.8667M71.8016 61.6L69.0304 63.2M61.6427 67.4667L58.8693 69.0667M58.8693 61.6L61.6427 63.2M69.0304 67.4667L71.8037 69.0667M44 50.4C44 52.0974 44.6743 53.7253 45.8745 54.9255C47.0747 56.1257 48.7026 56.8 50.4 56.8C52.0974 56.8 53.7253 56.1257 54.9255 54.9255C56.1257 53.7253 56.8 52.0974 56.8 50.4C56.8 48.7026 56.1257 47.0747 54.9255 45.8745C53.7253 44.6743 52.0974 44 50.4 44C48.7026 44 47.0747 44.6743 45.8745 45.8745C44.6743 47.0747 44 48.7026 44 50.4Z" stroke="url(#paint2_linear_444_343)" stroke-width="2.66667" stroke-linecap="round" stroke-linejoin="round"/>
<defs>
<linearGradient id="paint0_linear_444_343" x1="52" y1="-118.95" x2="52" y2="297.7" gradientUnits="userSpaceOnUse">
<stop offset="0.236759" stop-opacity="0"/>
<stop offset="0.712901" stop-color="#4276CA"/>
</linearGradient>
<linearGradient id="paint1_linear_444_343" x1="31.2002" y1="50.4" x2="69.6025" y2="50.4" gradientUnits="userSpaceOnUse">
<stop stop-color="#A95CEC"/>
<stop offset="1" stop-color="#DA22FF"/>
</linearGradient>
<linearGradient id="paint2_linear_444_343" x1="44" y1="58.4" x2="71.8037" y2="58.4" gradientUnits="userSpaceOnUse">
<stop stop-color="#A95CEC"/>
<stop offset="1" stop-color="#DA22FF"/>
</linearGradient>
</defs>
</svg>
