<svg width="64" height="64" viewBox="0 0 64 64" fill="none" xmlns="http://www.w3.org/2000/svg">
<rect x="0.5" y="0.5" width="63" height="63" rx="11.5" fill="#22252B"/>
<rect x="0.5" y="0.5" width="63" height="63" rx="11.5" stroke="#333740"/>
<path d="M42.2857 32.8571V37.1428H21.7143V23.4285H30.2857V21.7142H21.7143C21.2596 21.7142 20.8236 21.8948 20.5021 22.2163C20.1806 22.5378 20 22.9739 20 23.4285V37.1428C20 37.5975 20.1806 38.0335 20.5021 38.355C20.8236 38.6765 21.2596 38.8571 21.7143 38.8571H28.5714V42.2857H25.1429V43.9999H38.8571V42.2857H35.4286V38.8571H42.2857C42.7404 38.8571 43.1764 38.6765 43.4979 38.355C43.8194 38.0335 44 37.5975 44 37.1428V32.8571H42.2857ZM33.7143 42.2857H30.2857V38.8571H33.7143V42.2857Z" fill="#B4B6BB"/>
<path d="M44 26.8571V25.1429H42.1991C42.0879 24.6065 41.875 24.0964 41.5717 23.6403L42.8489 22.3631L41.6369 21.1511L40.3597 22.4283C39.9036 22.125 39.3935 21.9121 38.8571 21.8009V20H37.1429V21.8009C36.6065 21.9121 36.0964 22.125 35.6403 22.4283L34.3631 21.1511L33.1511 22.3631L34.4283 23.6403C34.125 24.0964 33.9121 24.6065 33.8009 25.1429H32V26.8571H33.8009C33.9121 27.3935 34.125 27.9036 34.4283 28.3597L33.1511 29.6369L34.3631 30.8489L35.6403 29.5717C36.0964 29.875 36.6065 30.0879 37.1429 30.1991V32H38.8571V30.1991C39.3935 30.0879 39.9036 29.875 40.3597 29.5717L41.6369 30.8489L42.8489 29.6369L41.5717 28.3597C41.875 27.9036 42.0879 27.3935 42.1991 26.8571H44ZM38 28.5714C37.4914 28.5714 36.9943 28.4206 36.5714 28.1381C36.1485 27.8555 35.8189 27.4539 35.6243 26.984C35.4297 26.5142 35.3788 25.9971 35.478 25.4983C35.5772 24.9995 35.8221 24.5413 36.1817 24.1817C36.5413 23.8221 36.9995 23.5772 37.4983 23.478C37.9971 23.3788 38.5142 23.4297 38.984 23.6243C39.4539 23.8189 39.8555 24.1485 40.1381 24.5714C40.4206 24.9943 40.5714 25.4914 40.5714 26C40.5707 26.6818 40.2996 27.3354 39.8175 27.8175C39.3354 28.2996 38.6818 28.5707 38 28.5714Z" fill="#B4B6BB"/>
</svg>
