<svg width="64" height="64" viewBox="0 0 64 64" fill="none" xmlns="http://www.w3.org/2000/svg">
<rect x="0.5" y="0.5" width="63" height="63" rx="11.5" fill="#22252B"/>
<rect x="0.5" y="0.5" width="63" height="63" rx="11.5" stroke="#333740"/>
<path d="M31.5002 34.1176C31.5002 34.4921 31.3487 34.8512 31.0791 35.1159C30.8095 35.3807 30.4439 35.5294 30.0626 35.5294C29.6814 35.5294 29.3157 35.3807 29.0462 35.1159C28.7766 34.8512 28.6251 34.4921 28.6251 34.1176C28.6251 33.7432 28.7766 33.3841 29.0462 33.1194C29.3157 32.8546 29.6814 32.7059 30.0626 32.7059C30.4439 32.7059 30.8095 32.8546 31.0791 33.1194C31.3487 33.3841 31.5002 33.7432 31.5002 34.1176ZM25.7501 25.6471H24.3126C23.1688 25.6471 22.0719 26.0933 21.2631 26.8875C20.4544 27.6818 20 28.7591 20 29.8824V38.3529C20 39.4762 20.4544 40.5535 21.2631 41.3477C22.0719 42.142 23.1688 42.5882 24.3126 42.5882H28.6251V41.7609C28.625 41.5645 28.6457 41.3687 28.6869 41.1765H24.3126C23.5501 41.1765 22.8188 40.879 22.2796 40.3495C21.7404 39.82 21.4375 39.1018 21.4375 38.3529V29.8824C21.4375 29.1335 21.7404 28.4153 22.2796 27.8858C22.8188 27.3563 23.5501 27.0588 24.3126 27.0588H35.8127C36.5752 27.0588 37.3065 27.3563 37.8457 27.8858C38.3849 28.4153 38.6878 29.1335 38.6878 29.8824C39.1851 29.8842 39.6643 29.9435 40.1253 30.0602V29.8824C40.1253 28.7591 39.6709 27.6818 38.8622 26.8875C38.0534 26.0933 36.9565 25.6471 35.8127 25.6471H34.3752V24.2353C34.3752 23.112 33.9208 22.0348 33.1121 21.2405C32.3033 20.4462 31.2064 20 30.0626 20C28.9189 20 27.822 20.4462 27.0132 21.2405C26.2044 22.0348 25.7501 23.112 25.7501 24.2353V25.6471ZM27.1876 24.2353C27.1876 23.4864 27.4905 22.7683 28.0297 22.2388C28.5689 21.7092 29.3001 21.4118 30.0626 21.4118C30.8251 21.4118 31.5564 21.7092 32.0956 22.2388C32.6348 22.7683 32.9377 23.4864 32.9377 24.2353V25.6471H27.1876V24.2353ZM38.6878 39.7647C39.5949 39.7646 40.4788 39.4837 41.214 38.9618C41.9491 38.4398 42.4979 37.7036 42.7824 36.8577C43.0669 36.0118 43.0726 35.0993 42.7985 34.2501C42.5245 33.4008 41.9848 32.6581 41.2562 32.1274C40.5276 31.5968 39.6471 31.3053 38.7401 31.2944C37.8331 31.2836 36.9456 31.5538 36.204 32.0668C35.4624 32.5798 34.9044 33.3094 34.6094 34.1518C34.3143 34.9943 34.2973 35.9066 34.5606 36.7591L30.4838 40.7628C30.2142 41.0275 30.0627 41.3865 30.0626 41.7609V43.2941C30.0626 43.4813 30.1384 43.6609 30.2732 43.7933C30.408 43.9256 30.5908 44 30.7814 44H33.6564C33.8471 44 34.0299 43.9256 34.1647 43.7933C34.2995 43.6609 34.3752 43.4813 34.3752 43.2941V42.5882H35.094C35.2846 42.5882 35.4674 42.5139 35.6022 42.3815C35.737 42.2491 35.8127 42.0696 35.8127 41.8824V41.1765H36.5315C36.7221 41.1765 36.9049 41.1021 37.0397 40.9697C37.1745 40.8373 37.2502 40.6578 37.2502 40.4706V39.5247C37.7002 39.68 38.1846 39.7647 38.6878 39.7647ZM39.7659 33.4118C40.0518 33.4118 40.3261 33.5233 40.5283 33.7219C40.7305 33.9205 40.844 34.1898 40.844 34.4706C40.844 34.7514 40.7305 35.0207 40.5283 35.2193C40.3261 35.4179 40.0518 35.5294 39.7659 35.5294C39.48 35.5294 39.2057 35.4179 39.0035 35.2193C38.8013 35.0207 38.6878 34.7514 38.6878 34.4706C38.6878 34.1898 38.8013 33.9205 39.0035 33.7219C39.2057 33.5233 39.48 33.4118 39.7659 33.4118Z" fill="#B4B6BB"/>
</svg>
