<svg width="64" height="64" viewBox="0 0 64 64" fill="none" xmlns="http://www.w3.org/2000/svg">
<rect x="0.5" y="0.5" width="63" height="63" rx="11.5" fill="#22252B"/>
<rect x="0.5" y="0.5" width="63" height="63" rx="11.5" stroke="#333740"/>
<path d="M42.1543 21H21.8466C21.3978 21 20.9673 21.1783 20.65 21.4957C20.3326 21.813 20.1543 22.2435 20.1543 22.6923V36.2308C20.1543 36.6796 20.3326 37.11 20.65 37.4274C20.9673 37.7448 21.3978 37.9231 21.8466 37.9231H28.6158V41.3077H25.2312V43H38.7697V41.3077H35.3851V37.9231H42.1543C42.6031 37.9231 43.0336 37.7448 43.3509 37.4274C43.6683 37.11 43.8466 36.6796 43.8466 36.2308V22.6923C43.8466 22.2435 43.6683 21.813 43.3509 21.4957C43.0336 21.1783 42.6031 21 42.1543 21ZM33.6928 41.3077H30.3081V37.9231H33.6928V41.3077ZM42.1543 36.2308H21.8466V22.6923H42.1543V36.2308Z" fill="#B4B6BB"/>
</svg>
