<svg width="64" height="64" viewBox="0 0 64 64" fill="none" xmlns="http://www.w3.org/2000/svg">
<rect x="0.5" y="0.5" width="63" height="63" rx="11.5" fill="#22252B"/>
<rect x="0.5" y="0.5" width="63" height="63" rx="11.5" stroke="#333740"/>
<path d="M32.996 24.7989C33.1876 24.2559 33.2462 23.6748 33.1668 23.1044C33.0875 22.5341 32.8725 21.9911 32.5399 21.521C32.2073 21.0509 31.7667 20.6674 31.2553 20.4028C30.7439 20.1381 30.1764 20 29.6005 20C29.0247 20 28.4572 20.1381 27.9458 20.4028C27.4343 20.6674 26.9938 21.0509 26.6612 21.521C26.3286 21.9911 26.1136 22.5341 26.0342 23.1044C25.9549 23.6748 26.0135 24.2559 26.2051 24.7989C23.4626 24.8085 21.9996 24.9069 21.0538 25.8527C20.108 26.7985 20.0096 28.2616 20 31.0028C20.5429 30.8119 21.1238 30.7538 21.6938 30.8335C22.2638 30.9133 22.8063 31.1285 23.276 31.4612C23.7457 31.7938 24.1288 32.2343 24.3932 32.7455C24.6575 33.2567 24.7955 33.8239 24.7955 34.3995C24.7955 34.975 24.6575 35.5422 24.3932 36.0534C24.1288 36.5647 23.7457 37.0051 23.276 37.3377C22.8063 37.6704 22.2638 37.8856 21.6938 37.9654C21.1238 38.0451 20.5429 37.9871 20 37.7961C20.0096 40.5374 20.108 42.0004 21.0538 42.9462C21.9996 43.892 23.4626 43.9904 26.2039 44C26.0129 43.4571 25.9549 42.8762 26.0346 42.3062C26.1144 41.7362 26.3296 41.1937 26.6623 40.724C26.9949 40.2543 27.4353 39.8712 27.9466 39.6068C28.4578 39.3425 29.025 39.2045 29.6005 39.2045C30.1761 39.2045 30.7433 39.3425 31.2545 39.6068C31.7657 39.8712 32.2062 40.2543 32.5388 40.724C32.8715 41.1937 33.0867 41.7362 33.1665 42.3062C33.2462 42.8762 33.1882 43.4571 32.9972 44C35.7385 43.9904 37.2015 43.892 38.1473 42.9462C39.0931 42.0004 39.1915 40.5374 39.2011 37.7949C39.7441 37.9865 40.3252 38.0451 40.8956 37.9658C41.4659 37.8864 42.0089 37.6714 42.479 37.3388C42.9491 37.0062 43.3326 36.5657 43.5972 36.0542C43.8619 35.5428 44 34.9753 44 34.3995C44 33.8236 43.8619 33.2561 43.5972 32.7447C43.3326 32.2333 42.9491 31.7927 42.479 31.4601C42.0089 31.1275 41.4659 30.9125 40.8956 30.8332C40.3252 30.7538 39.7441 30.8124 39.2011 31.004C39.1915 28.2615 39.0931 26.7985 38.1473 25.8527C37.2015 24.9057 35.7385 24.8085 32.996 24.7989Z" stroke="#B4B6BB" stroke-width="2" stroke-linecap="round" stroke-linejoin="round"/>
</svg>
