<svg width="64" height="64" viewBox="0 0 64 64" fill="none" xmlns="http://www.w3.org/2000/svg">
<rect x="0.5" y="0.5" width="63" height="63" rx="11.5" fill="#22252B"/>
<rect x="0.5" y="0.5" width="63" height="63" rx="11.5" stroke="#333740"/>
<path fill-rule="evenodd" clip-rule="evenodd" d="M17 32C17 32 21.5 20 32 20C42.5 20 47 32 47 32C47 32 45.2761 36.5969 41.4728 40.1005L39.7055 37.6262C41.7377 35.666 43.0629 33.3279 43.7156 31.9995C42.4482 29.4198 38.6278 23 32 23C25.3752 23 21.5552 29.4141 20.2845 32.0005C21.5518 34.5802 25.3722 41 32 41C32.8878 41 33.7251 40.8849 34.5127 40.6791L36.3562 43.26C35.0379 43.7257 33.5875 44 32 44C21.5 44 17 32 17 32ZM34.1571 37.6006C33.4877 37.8585 32.7604 38 32 38C28.6863 38 26 35.3137 26 32C26 28.6863 28.6863 26 32 26C35.3137 26 38 28.6863 38 32C38 33.468 37.4728 34.8129 36.5975 35.8556L40.7207 41.6281L38.2794 43.3718L34.1571 37.6006ZM32 35C33.6568 35 35 33.6569 35 32C35 30.3431 33.6568 29 32 29C30.3432 29 29 30.3431 29 32C29 33.6569 30.3432 35 32 35Z" fill="#B4B6BB"/>
</svg>
