<svg width="71" height="28" viewBox="0 0 71 28" fill="none" xmlns="http://www.w3.org/2000/svg">
<mask id="path-1-outside-1_516_1786" maskUnits="userSpaceOnUse" x="0" y="0" width="71" height="28" fill="black">
<rect fill="white" width="71" height="28"/>
<path d="M2.76513 9.232C2.85046 6.94933 3.59713 5.18933 5.00513 3.952C6.41313 2.71467 8.32246 2.096 10.7331 2.096C12.3331 2.096 13.6985 2.37333 14.8291 2.928C15.9811 3.48267 16.8451 4.24 17.4211 5.2C18.0185 6.16 18.3171 7.23733 18.3171 8.432C18.3171 9.84 17.9651 10.992 17.2611 11.888C16.5571 12.7627 15.7358 13.36 14.7971 13.68V13.808C16.0131 14.2133 16.9731 14.8853 17.6771 15.824C18.3811 16.7627 18.7331 17.968 18.7331 19.44C18.7331 20.7627 18.4238 21.936 17.8051 22.96C17.2078 23.9627 16.3225 24.752 15.1491 25.328C13.9971 25.904 12.6211 26.192 11.0211 26.192C8.46113 26.192 6.41313 25.5627 4.87713 24.304C3.36246 23.0453 2.56246 21.1467 2.47713 18.608H7.78913C7.81046 19.5467 8.07713 20.2933 8.58913 20.848C9.10113 21.3813 9.84779 21.648 10.8291 21.648C11.6611 21.648 12.3011 21.4133 12.7491 20.944C13.2185 20.4533 13.4531 19.8133 13.4531 19.024C13.4531 18 13.1225 17.264 12.4611 16.816C11.8211 16.3467 10.7865 16.112 9.35713 16.112H8.33313V11.664H9.35713C10.4451 11.664 11.3198 11.4827 11.9811 11.12C12.6638 10.736 13.0051 10.064 13.0051 9.104C13.0051 8.336 12.7918 7.73867 12.3651 7.312C11.9385 6.88533 11.3518 6.672 10.6051 6.672C9.79446 6.672 9.18646 6.91733 8.78113 7.408C8.39713 7.89867 8.17313 8.50667 8.10913 9.232H2.76513ZM22.2681 14C22.2681 10.3307 22.9721 7.44 24.3801 5.328C25.8095 3.216 28.1028 2.16 31.2601 2.16C34.4175 2.16 36.7001 3.216 38.1081 5.328C39.5375 7.44 40.2521 10.3307 40.2521 14C40.2521 17.712 39.5375 20.624 38.1081 22.736C36.7001 24.848 34.4175 25.904 31.2601 25.904C28.1028 25.904 25.8095 24.848 24.3801 22.736C22.9721 20.624 22.2681 17.712 22.2681 14ZM34.8761 14C34.8761 11.8453 34.6415 10.192 34.1721 9.04C33.7028 7.86667 32.7321 7.28 31.2601 7.28C29.7881 7.28 28.8175 7.86667 28.3481 9.04C27.8788 10.192 27.6441 11.8453 27.6441 14C27.6441 15.4507 27.7295 16.656 27.9001 17.616C28.0708 18.5547 28.4121 19.3227 28.9241 19.92C29.4575 20.496 30.2361 20.784 31.2601 20.784C32.2841 20.784 33.0521 20.496 33.5641 19.92C34.0975 19.3227 34.4495 18.5547 34.6201 17.616C34.7908 16.656 34.8761 15.4507 34.8761 14ZM43.0151 8.528C43.0151 6.8 43.5058 5.46667 44.4871 4.528C45.4898 3.58933 46.7805 3.12 48.3591 3.12C49.9378 3.12 51.2178 3.58933 52.1991 4.528C53.1805 5.46667 53.6711 6.8 53.6711 8.528C53.6711 10.256 53.1805 11.5893 52.1991 12.528C51.2178 13.4667 49.9378 13.936 48.3591 13.936C46.7805 13.936 45.4898 13.4667 44.4871 12.528C43.5058 11.5893 43.0151 10.256 43.0151 8.528ZM64.7431 3.472L52.4231 26H47.1431L59.4631 3.472H64.7431ZM48.3271 6.32C47.3031 6.32 46.7911 7.056 46.7911 8.528C46.7911 9.97867 47.3031 10.704 48.3271 10.704C48.8178 10.704 49.2018 10.5227 49.4791 10.16C49.7565 9.79733 49.8951 9.25333 49.8951 8.528C49.8951 7.056 49.3725 6.32 48.3271 6.32ZM58.2471 20.944C58.2471 19.216 58.7378 17.8827 59.7191 16.944C60.7005 16.0053 61.9805 15.536 63.5591 15.536C65.1378 15.536 66.4178 16.0053 67.3991 16.944C68.3805 17.8827 68.8711 19.216 68.8711 20.944C68.8711 22.672 68.3805 24.0053 67.3991 24.944C66.4178 25.8827 65.1378 26.352 63.5591 26.352C61.9805 26.352 60.7005 25.8827 59.7191 24.944C58.7378 24.0053 58.2471 22.672 58.2471 20.944ZM63.5271 18.736C63.0365 18.736 62.6525 18.9173 62.3751 19.28C62.1191 19.6427 61.9911 20.1973 61.9911 20.944C61.9911 22.3947 62.5031 23.12 63.5271 23.12C64.0178 23.12 64.4018 22.9387 64.6791 22.576C64.9565 22.2133 65.0951 21.6693 65.0951 20.944C65.0951 20.2187 64.9565 19.6747 64.6791 19.312C64.4018 18.928 64.0178 18.736 63.5271 18.736Z"/>
</mask>
<path d="M2.76513 9.232L1.26617 9.17596L1.208 10.732H2.76513V9.232ZM5.00513 3.952L5.9953 5.07875V5.07875L5.00513 3.952ZM14.8291 2.928L14.1685 4.27472L14.1784 4.2795L14.8291 2.928ZM17.4211 5.2L16.1349 5.97174L16.1411 5.98215L16.1475 5.99245L17.4211 5.2ZM17.2611 11.888L18.4296 12.8285L18.4352 12.8217L18.4406 12.8147L17.2611 11.888ZM14.7971 13.68L14.3131 12.2602L13.2971 12.6066V13.68H14.7971ZM14.7971 13.808H13.2971V14.8891L14.3228 15.231L14.7971 13.808ZM17.6771 15.824L18.8771 14.924L17.6771 15.824ZM17.8051 22.96L16.5212 22.1843L16.5165 22.1923L17.8051 22.96ZM15.1491 25.328L14.4881 23.9815L14.4783 23.9864L15.1491 25.328ZM4.87713 24.304L3.91843 25.4577L3.92639 25.4642L4.87713 24.304ZM2.47713 18.608V17.108H0.925858L0.977974 18.6584L2.47713 18.608ZM7.78912 18.608L9.28873 18.5739L9.25542 17.108H7.78912V18.608ZM8.58913 20.848L7.48692 21.8654L7.49688 21.8762L7.50704 21.8868L8.58913 20.848ZM12.7491 20.944L11.6652 19.9072L11.6641 19.9083L12.7491 20.944ZM12.4611 16.816L11.5741 18.0256L11.5967 18.0422L11.6199 18.0579L12.4611 16.816ZM8.33312 16.112H6.83312V17.612H8.33312V16.112ZM8.33312 11.664V10.164H6.83312V11.664H8.33312ZM11.9811 11.12L12.7024 12.4352L12.7095 12.4313L12.7165 12.4274L11.9811 11.12ZM12.3651 7.312L13.4258 6.25134V6.25134L12.3651 7.312ZM8.78113 7.408L7.62468 6.45268L7.61207 6.46794L7.59987 6.48354L8.78113 7.408ZM8.10912 9.232V10.732H9.4826L9.60332 9.36384L8.10912 9.232ZM2.76513 9.232L4.26408 9.28803C4.33764 7.3203 4.96256 5.9863 5.9953 5.07875L5.00513 3.952L4.01495 2.82525C2.23169 4.39237 1.36328 6.57836 1.26617 9.17596L2.76513 9.232ZM5.00513 3.952L5.9953 5.07875C7.05862 4.14431 8.57989 3.596 10.7331 3.596V2.096V0.595999C8.06503 0.595999 5.76763 1.28502 4.01495 2.82525L5.00513 3.952ZM10.7331 2.096V3.596C12.1642 3.596 13.2913 3.84439 14.1685 4.27468L14.8291 2.928L15.4898 1.58132C14.1056 0.902278 12.502 0.595999 10.7331 0.595999V2.096ZM14.8291 2.928L14.1784 4.2795C15.1051 4.72568 15.7302 5.29725 16.1349 5.97174L17.4211 5.2L18.7074 4.42826C17.9601 3.18275 16.8572 2.23966 15.4799 1.5765L14.8291 2.928ZM17.4211 5.2L16.1475 5.99245C16.5884 6.70093 16.8171 7.50086 16.8171 8.432H18.3171H19.8171C19.8171 6.9738 19.4485 5.61907 18.6947 4.40755L17.4211 5.2ZM18.3171 8.432H16.8171C16.8171 9.58506 16.5329 10.387 16.0816 10.9613L17.2611 11.888L18.4406 12.8147C19.3974 11.597 19.8171 10.0949 19.8171 8.432H18.3171ZM17.2611 11.888L16.0926 10.9475C15.5426 11.6309 14.9485 12.0436 14.3131 12.2602L14.7971 13.68L15.2811 15.0998C16.5231 14.6764 17.5717 13.8945 18.4296 12.8285L17.2611 11.888ZM14.7971 13.68H13.2971V13.808H14.7971H16.2971V13.68H14.7971ZM14.7971 13.808L14.3228 15.231C15.2774 15.5492 15.9732 16.052 16.4771 16.724L17.6771 15.824L18.8771 14.924C17.9731 13.7186 16.7489 12.8774 15.2715 12.385L14.7971 13.808ZM17.6771 15.824L16.4771 16.724C16.9415 17.3432 17.2331 18.2088 17.2331 19.44H18.7331H20.2331C20.2331 17.7272 19.8207 16.1822 18.8771 14.924L17.6771 15.824ZM18.7331 19.44H17.2331C17.2331 20.519 16.9839 21.4186 16.5213 22.1843L17.8051 22.96L19.089 23.7357C19.8637 22.4534 20.2331 21.0064 20.2331 19.44H18.7331ZM17.8051 22.96L16.5165 22.1923C16.0853 22.9161 15.4329 23.5177 14.4881 23.9815L15.1491 25.328L15.8101 26.6745C17.212 25.9863 18.3303 25.0093 19.0938 23.7277L17.8051 22.96ZM15.1491 25.328L14.4783 23.9864C13.5789 24.4361 12.4435 24.692 11.0211 24.692V26.192V27.692C12.7988 27.692 14.4153 27.3719 15.8199 26.6696L15.1491 25.328ZM11.0211 26.192V24.692C8.70596 24.692 7.02633 24.1259 5.82786 23.1438L4.87713 24.304L3.92639 25.4642C5.79993 26.9995 8.21629 27.692 11.0211 27.692V26.192ZM4.87713 24.304L5.8358 23.1503C4.74013 22.2398 4.05167 20.8004 3.97628 18.5576L2.47713 18.608L0.977974 18.6584C1.07325 21.493 1.98479 23.8508 3.91845 25.4577L4.87713 24.304ZM2.47713 18.608V20.108H7.78912V18.608V17.108H2.47713V18.608ZM7.78912 18.608L6.28951 18.6421C6.31705 19.8535 6.67085 20.9813 7.48692 21.8654L8.58913 20.848L9.69133 19.8306C9.48341 19.6053 9.30387 19.2398 9.28873 18.5739L7.78912 18.608ZM8.58913 20.848L7.50704 21.8868C8.38567 22.802 9.57859 23.148 10.8291 23.148V21.648V20.148C10.117 20.148 9.81658 19.9606 9.6712 19.8092L8.58913 20.848ZM10.8291 21.648V23.148C11.949 23.148 13.0286 22.8236 13.8342 21.9797L12.7491 20.944L11.6641 19.9083C11.5736 20.0031 11.3733 20.148 10.8291 20.148V21.648ZM12.7491 20.944L13.8331 21.9808C14.6126 21.1658 14.9531 20.1322 14.9531 19.024H13.4531H11.9531C11.9531 19.4944 11.8243 19.7408 11.6652 19.9072L12.7491 20.944ZM13.4531 19.024H14.9531C14.9531 17.6596 14.4907 16.3791 13.3024 15.5741L12.4611 16.816L11.6199 18.0579C11.7542 18.1489 11.9531 18.3404 11.9531 19.024H13.4531ZM12.4611 16.816L13.3482 15.6064C12.3153 14.8489 10.8814 14.612 9.35712 14.612V16.112V17.612C10.6916 17.612 11.327 17.8444 11.5741 18.0256L12.4611 16.816ZM9.35712 16.112V14.612H8.33312V16.112V17.612H9.35712V16.112ZM8.33312 16.112H9.83312V11.664H8.33312H6.83312V16.112H8.33312ZM8.33312 11.664V13.164H9.35712V11.664V10.164H8.33312V11.664ZM9.35712 11.664V13.164C10.5929 13.164 11.7436 12.961 12.7024 12.4352L11.9811 11.12L11.2599 9.80478C10.8959 10.0044 10.2974 10.164 9.35712 10.164V11.664ZM11.9811 11.12L12.7165 12.4274C13.985 11.7139 14.5051 10.4618 14.5051 9.104H13.0051H11.5051C11.5051 9.66618 11.3426 9.75814 11.2457 9.81263L11.9811 11.12ZM13.0051 9.104H14.5051C14.5051 8.05211 14.2052 7.03076 13.4258 6.25134L12.3651 7.312L11.3045 8.37266C11.3784 8.44657 11.5051 8.61989 11.5051 9.104H13.0051ZM12.3651 7.312L13.4258 6.25134C12.6542 5.47971 11.6495 5.172 10.6051 5.172V6.672V8.172C11.0541 8.172 11.2228 8.29095 11.3045 8.37266L12.3651 7.312ZM10.6051 6.672V5.172C9.47973 5.172 8.38989 5.52637 7.62468 6.45268L8.78113 7.408L9.93757 8.36332C9.98302 8.30829 10.1092 8.172 10.6051 8.172V6.672ZM8.78113 7.408L7.59987 6.48354C7.00866 7.23897 6.70004 8.13564 6.61493 9.10016L8.10912 9.232L9.60332 9.36384C9.64622 8.87769 9.78559 8.55836 9.96239 8.33246L8.78113 7.408ZM8.10912 9.232V7.732H2.76513V9.232V10.732H8.10912V9.232ZM24.3801 5.328L23.1378 4.48726L23.132 4.49595L24.3801 5.328ZM38.1081 5.328L36.86 6.16007L36.8659 6.16872L38.1081 5.328ZM38.1081 22.736L36.8658 21.8953L36.86 21.9039L38.1081 22.736ZM24.3801 22.736L23.132 23.5681L23.1379 23.5767L24.3801 22.736ZM34.1721 9.04L32.7794 9.5971L32.783 9.60594L34.1721 9.04ZM28.3481 9.04L29.7373 9.60596L29.7408 9.59708L28.3481 9.04ZM27.9001 17.616L26.4233 17.8786L26.4243 17.8843L27.9001 17.616ZM28.9241 19.92L27.7852 20.8962L27.804 20.918L27.8235 20.9391L28.9241 19.92ZM33.5641 19.92L32.4452 18.921L32.443 18.9235L33.5641 19.92ZM34.6201 17.616L36.0959 17.8843L36.097 17.8785L34.6201 17.616ZM22.2681 14H23.7681C23.7681 10.5012 24.4425 7.9386 25.6282 6.16005L24.3801 5.328L23.132 4.49595C21.5017 6.9414 20.7681 10.1601 20.7681 14H22.2681ZM24.3801 5.328L25.6224 6.16872C26.705 4.56908 28.4662 3.66 31.2601 3.66V2.16V0.659998C27.7394 0.659998 24.914 1.86292 23.1379 4.48728L24.3801 5.328ZM31.2601 2.16V3.66C34.0548 3.66 35.7993 4.56899 36.86 6.16005L38.1081 5.328L39.3562 4.49595C37.6009 1.863 34.7801 0.659998 31.2601 0.659998V2.16ZM38.1081 5.328L36.8659 6.16872C38.0685 7.94567 38.7521 10.5048 38.7521 14H40.2521H41.7521C41.7521 10.1566 41.0065 6.93433 39.3504 4.48728L38.1081 5.328ZM40.2521 14H38.7521C38.7521 17.5421 38.0668 20.1207 36.8659 21.8953L38.1081 22.736L39.3504 23.5767C41.0081 21.1273 41.7521 17.8819 41.7521 14H40.2521ZM38.1081 22.736L36.86 21.9039C35.7993 23.495 34.0548 24.404 31.2601 24.404V25.904V27.404C34.7801 27.404 37.6009 26.201 39.3562 23.5681L38.1081 22.736ZM31.2601 25.904V24.404C28.4662 24.404 26.705 23.4949 25.6224 21.8953L24.3801 22.736L23.1379 23.5767C24.914 26.2011 27.7394 27.404 31.2601 27.404V25.904ZM24.3801 22.736L25.6282 21.9039C24.4441 20.1278 23.7681 17.5456 23.7681 14H22.2681H20.7681C20.7681 17.8784 21.5002 21.1202 23.132 23.5681L24.3801 22.736ZM34.8761 14H36.3761C36.3761 11.7724 36.1387 9.89145 35.5613 8.47405L34.1721 9.04L32.783 9.60594C33.1442 10.4926 33.3761 11.9182 33.3761 14H34.8761ZM34.1721 9.04L35.5648 8.48291C35.2236 7.62981 34.6643 6.91752 33.868 6.43626C33.0886 5.96518 32.1898 5.78 31.2601 5.78V7.28V8.78C31.8024 8.78 32.125 8.88815 32.3162 9.00374C32.4906 9.10915 32.6513 9.27686 32.7794 9.59709L34.1721 9.04ZM31.2601 7.28V5.78C30.3304 5.78 29.4316 5.96518 28.6522 6.43626C27.856 6.91752 27.2967 7.62981 26.9554 8.48291L28.3481 9.04L29.7408 9.59708C29.8689 9.27686 30.0296 9.10915 30.204 9.00374C30.3953 8.88815 30.7178 8.78 31.2601 8.78V7.28ZM28.3481 9.04L26.959 8.47405C26.3815 9.89145 26.1441 11.7724 26.1441 14H27.6441H29.1441C29.1441 11.9182 29.3761 10.4926 29.7373 9.60594L28.3481 9.04ZM27.6441 14H26.1441C26.1441 15.5006 26.2317 16.8011 26.4233 17.8785L27.9001 17.616L29.377 17.3534C29.2272 16.5109 29.1441 15.4008 29.1441 14H27.6441ZM27.9001 17.616L26.4243 17.8843C26.6325 19.0291 27.0668 20.058 27.7852 20.8962L28.9241 19.92L30.063 18.9438C29.7575 18.5873 29.5091 18.0803 29.3759 17.3477L27.9001 17.616ZM28.9241 19.92L27.8235 20.9391C28.7205 21.9079 29.9524 22.284 31.2601 22.284V20.784V19.284C30.5199 19.284 30.1944 19.0841 30.0248 18.9009L28.9241 19.92ZM31.2601 20.784V22.284C32.5641 22.284 33.8029 21.9091 34.6852 20.9165L33.5641 19.92L32.443 18.9235C32.3013 19.0829 32.0042 19.284 31.2601 19.284V20.784ZM33.5641 19.92L34.683 20.919C35.4329 20.0792 35.8854 19.0423 36.0959 17.8843L34.6201 17.616L33.1443 17.3477C33.0135 18.067 32.762 18.5661 32.4452 18.921L33.5641 19.92ZM34.6201 17.616L36.097 17.8785C36.2885 16.8011 36.3761 15.5006 36.3761 14H34.8761H33.3761C33.3761 15.4008 33.2931 16.5109 33.1433 17.3534L34.6201 17.616ZM44.4871 4.528L43.462 3.43297L43.4561 3.43847L43.4503 3.44404L44.4871 4.528ZM52.1991 4.528L51.1623 5.61196V5.61196L52.1991 4.528ZM52.1991 12.528L51.1623 11.444L52.1991 12.528ZM44.4871 12.528L43.4503 13.612L43.4561 13.6175L43.462 13.623L44.4871 12.528ZM64.7431 3.472L66.0592 4.19172L67.2731 1.972H64.7431V3.472ZM52.4231 26V27.5H53.3125L53.7392 26.7197L52.4231 26ZM47.1431 26L45.8271 25.2803L44.6132 27.5H47.1431V26ZM59.4631 3.472V1.972H58.5738L58.1471 2.75228L59.4631 3.472ZM49.4791 10.16L48.2876 9.24882V9.24882L49.4791 10.16ZM59.7191 16.944L58.6823 15.86L59.7191 16.944ZM67.3991 16.944L68.436 15.86L67.3991 16.944ZM67.3991 24.944L68.436 26.028L67.3991 24.944ZM59.7191 24.944L58.6823 26.028L59.7191 24.944ZM62.3751 19.28L61.1836 18.3688L61.1662 18.3916L61.1497 18.415L62.3751 19.28ZM64.6791 22.576L63.4876 21.6648V21.6648L64.6791 22.576ZM64.6791 19.312L63.4631 20.1902L63.4751 20.2069L63.4876 20.2232L64.6791 19.312ZM43.0151 8.528H44.5151C44.5151 7.09143 44.9141 6.19534 45.524 5.61196L44.4871 4.528L43.4503 3.44404C42.0975 4.73799 41.5151 6.50856 41.5151 8.528H43.0151ZM44.4871 4.528L45.5123 5.62303C46.1954 4.9835 47.1001 4.62 48.3591 4.62V3.12V1.62C46.4608 1.62 44.7842 2.19517 43.462 3.43297L44.4871 4.528ZM48.3591 3.12V4.62C49.6189 4.62 50.5053 4.98352 51.1623 5.61196L52.1991 4.528L53.236 3.44404C51.9303 2.19515 50.2567 1.62 48.3591 1.62V3.12ZM52.1991 4.528L51.1623 5.61196C51.7722 6.19534 52.1711 7.09143 52.1711 8.528H53.6711H55.1711C55.1711 6.50856 54.5887 4.73799 53.236 3.44404L52.1991 4.528ZM53.6711 8.528H52.1711C52.1711 9.96456 51.7722 10.8607 51.1623 11.444L52.1991 12.528L53.236 13.612C54.5887 12.318 55.1711 10.5474 55.1711 8.528H53.6711ZM52.1991 12.528L51.1623 11.444C50.5053 12.0725 49.6189 12.436 48.3591 12.436V13.936V15.436C50.2567 15.436 51.9303 14.8609 53.236 13.612L52.1991 12.528ZM48.3591 13.936V12.436C47.1001 12.436 46.1954 12.0725 45.5123 11.433L44.4871 12.528L43.462 13.623C44.7842 14.8608 46.4608 15.436 48.3591 15.436V13.936ZM44.4871 12.528L45.524 11.444C44.9141 10.8607 44.5151 9.96456 44.5151 8.528H43.0151H41.5151C41.5151 10.5474 42.0975 12.318 43.4503 13.612L44.4871 12.528ZM64.7431 3.472L63.4271 2.75228L51.1071 25.2803L52.4231 26L53.7392 26.7197L66.0592 4.19172L64.7431 3.472ZM52.4231 26V24.5H47.1431V26V27.5H52.4231V26ZM47.1431 26L48.4592 26.7197L60.7792 4.19172L59.4631 3.472L58.1471 2.75228L45.8271 25.2803L47.1431 26ZM59.4631 3.472V4.972H64.7431V3.472V1.972H59.4631V3.472ZM48.3271 6.32V4.82C47.4049 4.82 46.5233 5.18227 45.9438 6.0154C45.433 6.74968 45.2911 7.66429 45.2911 8.528H46.7911H48.2911C48.2911 8.24216 48.3164 8.03846 48.3484 7.90084C48.3802 7.76338 48.4118 7.72088 48.4065 7.7286C48.3944 7.74596 48.3578 7.78459 48.3033 7.81072C48.2561 7.83333 48.2507 7.82 48.3271 7.82V6.32ZM46.7911 8.528H45.2911C45.2911 9.38408 45.4339 10.2944 45.9497 11.025C46.5329 11.8513 47.4138 12.204 48.3271 12.204V10.704V9.204C48.2478 9.204 48.2504 9.19027 48.2956 9.21163C48.3485 9.23661 48.3863 9.27476 48.4006 9.29497C48.4082 9.30572 48.3782 9.26783 48.3473 9.13644C48.3162 9.00461 48.2911 8.80725 48.2911 8.528H46.7911ZM48.3271 10.704V12.204C49.2446 12.204 50.0858 11.8359 50.6707 11.0712L49.4791 10.16L48.2876 9.24882C48.2835 9.25421 48.2865 9.24923 48.2982 9.23957C48.3103 9.22961 48.3258 9.21957 48.3426 9.21163C48.3505 9.20789 48.3573 9.20528 48.3626 9.20355C48.3651 9.20271 48.3671 9.20212 48.3685 9.20175C48.3699 9.20137 48.3707 9.20123 48.3706 9.20123C48.3706 9.20124 48.3673 9.20192 48.3603 9.20261C48.3532 9.2033 48.3423 9.204 48.3271 9.204V10.704ZM49.4791 10.16L50.6707 11.0712C51.2353 10.3328 51.3951 9.4022 51.3951 8.528H49.8951H48.3951C48.3951 8.79997 48.3686 8.9878 48.3376 9.10949C48.3071 9.22923 48.2786 9.26057 48.2876 9.24882L49.4791 10.16ZM49.8951 8.528H51.3951C51.3951 7.65998 51.2492 6.74012 50.7261 6.0035C50.136 5.17255 49.2475 4.82 48.3271 4.82V6.32V7.82C48.413 7.82 48.4162 7.83482 48.3758 7.81586C48.3275 7.79322 48.2926 7.7581 48.2801 7.7405C48.2743 7.73229 48.3056 7.77299 48.3375 7.90752C48.3694 8.0426 48.3951 8.24395 48.3951 8.528H49.8951ZM58.2471 20.944H59.7471C59.7471 19.5074 60.1461 18.6113 60.756 18.028L59.7191 16.944L58.6823 15.86C57.3295 17.154 56.7471 18.9246 56.7471 20.944H58.2471ZM59.7191 16.944L60.756 18.028C61.413 17.3995 62.2994 17.036 63.5591 17.036V15.536V14.036C61.6616 14.036 59.9879 14.6111 58.6823 15.86L59.7191 16.944ZM63.5591 15.536V17.036C64.8189 17.036 65.7053 17.3995 66.3623 18.028L67.3991 16.944L68.436 15.86C67.1303 14.6111 65.4567 14.036 63.5591 14.036V15.536ZM67.3991 16.944L66.3623 18.028C66.9722 18.6113 67.3711 19.5074 67.3711 20.944H68.8711H70.3711C70.3711 18.9246 69.7887 17.154 68.436 15.86L67.3991 16.944ZM68.8711 20.944H67.3711C67.3711 22.3806 66.9722 23.2767 66.3623 23.86L67.3991 24.944L68.436 26.028C69.7887 24.734 70.3711 22.9634 70.3711 20.944H68.8711ZM67.3991 24.944L66.3623 23.86C65.7053 24.4885 64.8189 24.852 63.5591 24.852V26.352V27.852C65.4567 27.852 67.1303 27.2769 68.436 26.028L67.3991 24.944ZM63.5591 26.352V24.852C62.2994 24.852 61.413 24.4885 60.756 23.86L59.7191 24.944L58.6823 26.028C59.9879 27.2769 61.6616 27.852 63.5591 27.852V26.352ZM59.7191 24.944L60.756 23.86C60.1461 23.2767 59.7471 22.3806 59.7471 20.944H58.2471H56.7471C56.7471 22.9634 57.3295 24.734 58.6823 26.028L59.7191 24.944ZM63.5271 18.736V17.236C62.6097 17.236 61.7684 17.6041 61.1836 18.3688L62.3751 19.28L63.5667 20.1912C63.5708 20.1858 63.5678 20.1908 63.556 20.2004C63.5439 20.2104 63.5285 20.2204 63.5116 20.2284C63.5037 20.2321 63.4969 20.2347 63.4917 20.2364C63.4891 20.2373 63.4871 20.2379 63.4857 20.2383C63.4843 20.2386 63.4836 20.2388 63.4836 20.2388C63.4837 20.2388 63.4869 20.2381 63.494 20.2374C63.5011 20.2367 63.512 20.236 63.5271 20.236V18.736ZM62.3751 19.28L61.1497 18.415C60.63 19.1511 60.4911 20.0778 60.4911 20.944H61.9911H63.4911C63.4911 20.6512 63.5167 20.4439 63.5487 20.3053C63.5808 20.1663 63.6115 20.1295 63.6006 20.145L62.3751 19.28ZM61.9911 20.944H60.4911C60.4911 21.8001 60.6339 22.7104 61.1497 23.441C61.7329 24.2673 62.6138 24.62 63.5271 24.62V23.12V21.62C63.4478 21.62 63.4504 21.6063 63.4956 21.6276C63.5485 21.6526 63.5863 21.6908 63.6006 21.711C63.6082 21.7217 63.5782 21.6838 63.5472 21.5524C63.5162 21.4206 63.4911 21.2232 63.4911 20.944H61.9911ZM63.5271 23.12V24.62C64.4446 24.62 65.2858 24.2519 65.8707 23.4872L64.6791 22.576L63.4876 21.6648C63.4835 21.6702 63.4865 21.6652 63.4982 21.6556C63.5103 21.6456 63.5258 21.6356 63.5426 21.6276C63.5505 21.6239 63.5573 21.6213 63.5626 21.6196C63.5651 21.6187 63.5671 21.6181 63.5685 21.6178C63.5699 21.6174 63.5707 21.6172 63.5706 21.6172C63.5706 21.6172 63.5673 21.6179 63.5603 21.6186C63.5532 21.6193 63.5423 21.62 63.5271 21.62V23.12ZM64.6791 22.576L65.8707 23.4872C66.4353 22.7488 66.5951 21.8182 66.5951 20.944H65.0951H63.5951C63.5951 21.216 63.5686 21.4038 63.5376 21.5255C63.5071 21.6452 63.4786 21.6766 63.4876 21.6648L64.6791 22.576ZM65.0951 20.944H66.5951C66.5951 20.0698 66.4353 19.1392 65.8707 18.4008L64.6791 19.312L63.4876 20.2232C63.4786 20.2114 63.5071 20.2428 63.5376 20.3625C63.5686 20.4842 63.5951 20.672 63.5951 20.944H65.0951ZM64.6791 19.312L65.8951 18.4338C65.3241 17.643 64.479 17.236 63.5271 17.236V18.736V20.236C63.5519 20.236 63.5593 20.2384 63.5535 20.2371C63.547 20.2357 63.5318 20.2314 63.5123 20.2216C63.4926 20.2118 63.4767 20.2005 63.466 20.1911C63.4557 20.1822 63.4555 20.1797 63.4631 20.1902L64.6791 19.312Z" fill="#DADBDD" mask="url(#path-1-outside-1_516_1786)"/>
</svg>
