<svg width="191" height="47" viewBox="0 0 191 47" fill="none" xmlns="http://www.w3.org/2000/svg">
<mask id="path-1-outside-1_615_584" maskUnits="userSpaceOnUse" x="0" y="0" width="191" height="47" fill="black">
<rect fill="white" width="191" height="47"/>
<path d="M31.464 4.912V11.24H21.048V44H13.208V11.24H2.792V4.912H31.464ZM55.2163 12.528C57.5683 12.528 59.659 13.0507 61.4883 14.096C63.3176 15.104 64.7363 16.616 65.7443 18.632C66.7896 20.6107 67.3123 23 67.3123 25.8V44H59.4723V26.864C59.4723 24.4 58.8563 22.5147 57.6243 21.208C56.3923 19.864 54.7123 19.192 52.5843 19.192C50.419 19.192 48.7016 19.864 47.4323 21.208C46.2003 22.5147 45.5843 24.4 45.5843 26.864V44H37.7443V2.56H45.5843V16.84C46.5923 15.496 47.9363 14.4507 49.6163 13.704C51.2963 12.92 53.163 12.528 55.2163 12.528ZM83.1678 17.792C84.1758 16.1493 85.4824 14.8613 87.0878 13.928C88.7304 12.9947 90.5971 12.528 92.6878 12.528V20.76H90.6158C88.1518 20.76 86.2851 21.3387 85.0158 22.496C83.7838 23.6533 83.1678 25.6693 83.1678 28.544V44H75.3278V12.976H83.1678V17.792ZM127.368 27.816C127.368 28.936 127.294 29.944 127.144 30.84H104.464C104.651 33.08 105.435 34.8347 106.816 36.104C108.198 37.3733 109.896 38.008 111.912 38.008C114.824 38.008 116.896 36.7573 118.128 34.256H126.584C125.688 37.2427 123.971 39.7067 121.432 41.648C118.894 43.552 115.776 44.504 112.08 44.504C109.094 44.504 106.406 43.8507 104.016 42.544C101.664 41.2 99.8164 39.3147 98.4724 36.888C97.1657 34.4613 96.5124 31.6613 96.5124 28.488C96.5124 25.2773 97.1657 22.4587 98.4724 20.032C99.779 17.6053 101.608 15.7387 103.96 14.432C106.312 13.1253 109.019 12.472 112.08 12.472C115.03 12.472 117.662 13.1067 119.976 14.376C122.328 15.6453 124.139 17.456 125.408 19.808C126.715 22.1227 127.368 24.792 127.368 27.816ZM119.248 25.576C119.211 23.56 118.483 21.9547 117.064 20.76C115.646 19.528 113.91 18.912 111.856 18.912C109.915 18.912 108.272 19.5093 106.928 20.704C105.622 21.8613 104.819 23.4853 104.52 25.576H119.248ZM131.635 28.376C131.635 25.24 132.251 22.4587 133.483 20.032C134.752 17.6053 136.451 15.7387 138.579 14.432C140.744 13.1253 143.152 12.472 145.803 12.472C148.118 12.472 150.134 12.9387 151.851 13.872C153.606 14.8053 155.006 15.9813 156.051 17.4V12.976H163.947V44H156.051V39.464C155.043 40.92 153.643 42.1333 151.851 43.104C150.096 44.0373 148.062 44.504 145.747 44.504C143.134 44.504 140.744 43.832 138.579 42.488C136.451 41.144 134.752 39.2587 133.483 36.832C132.251 34.368 131.635 31.5493 131.635 28.376ZM156.051 28.488C156.051 26.584 155.678 24.96 154.931 23.616C154.184 22.2347 153.176 21.1893 151.907 20.48C150.638 19.7333 149.275 19.36 147.819 19.36C146.363 19.36 145.019 19.7147 143.787 20.424C142.555 21.1333 141.547 22.1787 140.763 23.56C140.016 24.904 139.643 26.5093 139.643 28.376C139.643 30.2427 140.016 31.8853 140.763 33.304C141.547 34.6853 142.555 35.7493 143.787 36.496C145.056 37.2427 146.4 37.616 147.819 37.616C149.275 37.616 150.638 37.2613 151.907 36.552C153.176 35.8053 154.184 34.76 154.931 33.416C155.678 32.0347 156.051 30.392 156.051 28.488ZM181.292 19.416V34.424C181.292 35.4693 181.535 36.2347 182.02 36.72C182.543 37.168 183.401 37.392 184.596 37.392H188.236V44H183.308C176.7 44 173.396 40.7893 173.396 34.368V19.416H169.7V12.976H173.396V5.304H181.292V12.976H188.236V19.416H181.292Z"/>
</mask>
<path d="M31.464 4.912H33.464V2.912H31.464V4.912ZM31.464 11.24V13.24H33.464V11.24H31.464ZM21.048 11.24V9.24H19.048V11.24H21.048ZM21.048 44V46H23.048V44H21.048ZM13.208 44H11.208V46H13.208V44ZM13.208 11.24H15.208V9.24H13.208V11.24ZM2.792 11.24H0.792V13.24H2.792V11.24ZM2.792 4.912V2.912H0.792V4.912H2.792ZM31.464 4.912H29.464V11.24H31.464H33.464V4.912H31.464ZM31.464 11.24V9.24H21.048V11.24V13.24H31.464V11.24ZM21.048 11.24H19.048V44H21.048H23.048V11.24H21.048ZM21.048 44V42H13.208V44V46H21.048V44ZM13.208 44H15.208V11.24H13.208H11.208V44H13.208ZM13.208 11.24V9.24H2.792V11.24V13.24H13.208V11.24ZM2.792 11.24H4.792V4.912H2.792H0.792V11.24H2.792ZM2.792 4.912V6.912H31.464V4.912V2.912H2.792V4.912ZM61.4883 14.096L60.496 15.8325L60.5095 15.8402L60.5231 15.8477L61.4883 14.096ZM65.7443 18.632L63.9555 19.5264L63.9655 19.5464L63.9759 19.5662L65.7443 18.632ZM67.3123 44V46H69.3123V44H67.3123ZM59.4723 44H57.4723V46H59.4723V44ZM57.6243 21.208L56.15 22.5594L56.1595 22.5698L56.1691 22.58L57.6243 21.208ZM47.4323 21.208L45.9783 19.8348L45.9771 19.836L47.4323 21.208ZM45.5843 44V46H47.5843V44H45.5843ZM37.7443 44H35.7443V46H37.7443V44ZM37.7443 2.56V0.559999H35.7443V2.56H37.7443ZM45.5843 2.56H47.5843V0.559999H45.5843V2.56ZM45.5843 16.84H43.5843V22.84L47.1843 18.04L45.5843 16.84ZM49.6163 13.704L50.4286 15.5316L50.4454 15.5241L50.4621 15.5164L49.6163 13.704ZM55.2163 12.528V14.528C57.2616 14.528 59.0029 14.9793 60.496 15.8325L61.4883 14.096L62.4806 12.3595C60.3151 11.1221 57.875 10.528 55.2163 10.528V12.528ZM61.4883 14.096L60.5231 15.8477C61.9689 16.6443 63.1137 17.8429 63.9555 19.5264L65.7443 18.632L67.5332 17.7376C66.3589 15.3891 64.6664 13.5636 62.4535 12.3443L61.4883 14.096ZM65.7443 18.632L63.9759 19.5662C64.8356 21.1936 65.3123 23.2454 65.3123 25.8H67.3123H69.3123C69.3123 22.7546 68.7437 20.0278 67.5127 17.6978L65.7443 18.632ZM67.3123 25.8H65.3123V44H67.3123H69.3123V25.8H67.3123ZM67.3123 44V42H59.4723V44V46H67.3123V44ZM59.4723 44H61.4723V26.864H59.4723H57.4723V44H59.4723ZM59.4723 26.864H61.4723C61.4723 24.0822 60.7742 21.6334 59.0795 19.836L57.6243 21.208L56.1691 22.58C56.9384 23.396 57.4723 24.7178 57.4723 26.864H59.4723ZM57.6243 21.208L59.0986 19.8566C57.4236 18.0293 55.1703 17.192 52.5843 17.192V19.192V21.192C54.2543 21.192 55.361 21.6987 56.15 22.5594L57.6243 21.208ZM52.5843 19.192V17.192C49.9713 17.192 47.6905 18.0218 45.9783 19.8348L47.4323 21.208L48.8863 22.5812C49.7128 21.7062 50.8667 21.192 52.5843 21.192V19.192ZM47.4323 21.208L45.9771 19.836C44.2824 21.6334 43.5843 24.0822 43.5843 26.864H45.5843H47.5843C47.5843 24.7178 48.1182 23.396 48.8875 22.58L47.4323 21.208ZM45.5843 26.864H43.5843V44H45.5843H47.5843V26.864H45.5843ZM45.5843 44V42H37.7443V44V46H45.5843V44ZM37.7443 44H39.7443V2.56H37.7443H35.7443V44H37.7443ZM37.7443 2.56V4.56H45.5843V2.56V0.559999H37.7443V2.56ZM45.5843 2.56H43.5843V16.84H45.5843H47.5843V2.56H45.5843ZM45.5843 16.84L47.1843 18.04C47.9686 16.9942 49.0302 16.1531 50.4286 15.5316L49.6163 13.704L48.804 11.8764C46.8424 12.7482 45.216 13.9978 43.9843 15.64L45.5843 16.84ZM49.6163 13.704L50.4621 15.5164C51.8499 14.8687 53.4235 14.528 55.2163 14.528V12.528V10.528C52.9024 10.528 50.7427 10.9713 48.7705 11.8916L49.6163 13.704ZM83.1678 17.792H81.1678V24.8752L84.8724 18.838L83.1678 17.792ZM87.0878 13.928L86.0997 12.1891L86.0911 12.194L86.0825 12.199L87.0878 13.928ZM92.6878 12.528H94.6878V10.528H92.6878V12.528ZM92.6878 20.76V22.76H94.6878V20.76H92.6878ZM85.0158 22.496L83.6682 21.0181L83.6572 21.0281L83.6464 21.0383L85.0158 22.496ZM83.1678 44V46H85.1678V44H83.1678ZM75.3278 44H73.3278V46H75.3278V44ZM75.3278 12.976V10.976H73.3278V12.976H75.3278ZM83.1678 12.976H85.1678V10.976H83.1678V12.976ZM83.1678 17.792L84.8724 18.838C85.7141 17.4663 86.7847 16.4176 88.093 15.657L87.0878 13.928L86.0825 12.199C84.1801 13.305 82.6374 14.8324 81.4631 16.746L83.1678 17.792ZM87.0878 13.928L88.0758 15.6669C89.386 14.9225 90.9057 14.528 92.6878 14.528V12.528V10.528C90.2885 10.528 88.0748 11.0669 86.0997 12.1891L87.0878 13.928ZM92.6878 12.528H90.6878V20.76H92.6878H94.6878V12.528H92.6878ZM92.6878 20.76V18.76H90.6158V20.76V22.76H92.6878V20.76ZM90.6158 20.76V18.76C87.8681 18.76 85.4388 19.4038 83.6682 21.0181L85.0158 22.496L86.3633 23.9739C87.1314 23.2735 88.4354 22.76 90.6158 22.76V20.76ZM85.0158 22.496L83.6464 21.0383C81.8063 22.7669 81.1678 25.4832 81.1678 28.544H83.1678H85.1678C85.1678 25.8555 85.7612 24.5398 86.3851 23.9537L85.0158 22.496ZM83.1678 28.544H81.1678V44H83.1678H85.1678V28.544H83.1678ZM83.1678 44V42H75.3278V44V46H83.1678V44ZM75.3278 44H77.3278V12.976H75.3278H73.3278V44H75.3278ZM75.3278 12.976V14.976H83.1678V12.976V10.976H75.3278V12.976ZM83.1678 12.976H81.1678V17.792H83.1678H85.1678V12.976H83.1678ZM127.144 30.84V32.84H128.839L129.117 31.1688L127.144 30.84ZM104.464 30.84V28.84H102.291L102.471 31.0061L104.464 30.84ZM106.816 36.104L105.463 37.5767L106.816 36.104ZM118.128 34.256V32.256H116.884L116.334 33.3723L118.128 34.256ZM126.584 34.256L128.5 34.8307L129.272 32.256H126.584V34.256ZM121.432 41.648L122.632 43.248L122.64 43.2424L122.647 43.2367L121.432 41.648ZM104.016 42.544L103.024 44.2805L103.04 44.2898L103.057 44.2987L104.016 42.544ZM98.4724 36.888L96.7114 37.8362L96.717 37.8466L96.7228 37.857L98.4724 36.888ZM98.4724 20.032L96.7114 19.0838L98.4724 20.032ZM103.96 14.432L104.932 16.1803V16.1803L103.96 14.432ZM119.976 14.376L119.015 16.1297L119.027 16.136L119.976 14.376ZM125.408 19.808L123.648 20.7579L123.657 20.7746L123.667 20.7912L125.408 19.808ZM119.248 25.576V27.576H121.286L121.248 25.539L119.248 25.576ZM117.064 20.76L115.753 22.2701L115.764 22.28L115.776 22.2898L117.064 20.76ZM106.928 20.704L108.254 22.2012L108.257 22.1988L106.928 20.704ZM104.52 25.576L102.54 25.2932L102.214 27.576H104.52V25.576ZM127.368 27.816H125.368C125.368 28.8501 125.299 29.7455 125.172 30.5112L127.144 30.84L129.117 31.1688C129.288 30.1425 129.368 29.0219 129.368 27.816H127.368ZM127.144 30.84V28.84H104.464V30.84V32.84H127.144V30.84ZM104.464 30.84L102.471 31.0061C102.691 33.6416 103.641 35.9025 105.463 37.5767L106.816 36.104L108.17 34.6313C107.229 33.7668 106.611 32.5184 106.457 30.6739L104.464 30.84ZM106.816 36.104L105.463 37.5767C107.243 39.2118 109.436 40.008 111.912 40.008V38.008V36.008C110.357 36.008 109.153 35.5349 108.17 34.6313L106.816 36.104ZM111.912 38.008V40.008C113.658 40.008 115.278 39.6309 116.684 38.7823C118.095 37.9305 119.164 36.6802 119.923 35.1397L118.128 34.256L116.334 33.3723C115.861 34.3331 115.278 34.9588 114.617 35.3577C113.951 35.7598 113.078 36.008 111.912 36.008V38.008ZM118.128 34.256V36.256H126.584V34.256V32.256H118.128V34.256ZM126.584 34.256L124.669 33.6813C123.897 36.254 122.431 38.3669 120.217 40.0593L121.432 41.648L122.647 43.2367C125.512 41.0464 127.48 38.2313 128.5 34.8307L126.584 34.256ZM121.432 41.648L120.232 40.048C118.095 41.6512 115.418 42.504 112.08 42.504V44.504V46.504C116.135 46.504 119.693 45.4528 122.632 43.248L121.432 41.648ZM112.08 44.504V42.504C109.396 42.504 107.043 41.9198 104.976 40.7893L104.016 42.544L103.057 44.2987C105.768 45.7815 108.792 46.504 112.08 46.504V44.504ZM104.016 42.544L105.009 40.8075C102.983 39.6497 101.393 38.0334 100.222 35.919L98.4724 36.888L96.7228 37.857C98.2397 40.5959 100.346 42.7503 103.024 44.2805L104.016 42.544ZM98.4724 36.888L100.233 35.9398C99.1059 33.846 98.5124 31.3809 98.5124 28.488H96.5124H94.5124C94.5124 31.9418 95.2255 35.0767 96.7114 37.8362L98.4724 36.888ZM96.5124 28.488H98.5124C98.5124 25.5535 99.1077 23.0707 100.233 20.9802L98.4724 20.032L96.7114 19.0838C95.2238 21.8466 94.5124 25.0012 94.5124 28.488H96.5124ZM98.4724 20.032L100.233 20.9802C101.363 18.8816 102.922 17.2965 104.932 16.1803L103.96 14.432L102.989 12.6837C100.294 14.1808 98.1947 16.3291 96.7114 19.0838L98.4724 20.032ZM103.96 14.432L104.932 16.1803C106.948 15.0603 109.311 14.472 112.08 14.472V12.472V10.472C108.727 10.472 105.677 11.1903 102.989 12.6837L103.96 14.432ZM112.08 12.472V14.472C114.734 14.472 117.028 15.0402 119.015 16.1296L119.976 14.376L120.938 12.6224C118.295 11.1731 115.326 10.472 112.08 10.472V12.472ZM119.976 14.376L119.027 16.136C121.035 17.2201 122.564 18.7492 123.648 20.7579L125.408 19.808L127.168 18.8581C125.714 16.1628 123.622 14.0706 120.926 12.616L119.976 14.376ZM125.408 19.808L123.667 20.7912C124.782 22.7665 125.368 25.0883 125.368 27.816H127.368H129.368C129.368 24.4956 128.648 21.4788 127.15 18.8248L125.408 19.808ZM119.248 25.576L121.248 25.539C121.201 23.0027 120.254 20.8315 118.353 19.2302L117.064 20.76L115.776 22.2898C116.712 23.0778 117.221 24.1173 117.249 25.613L119.248 25.576ZM117.064 20.76L118.376 19.2499C116.558 17.6717 114.343 16.912 111.856 16.912V18.912V20.912C113.476 20.912 114.733 21.3843 115.753 22.2701L117.064 20.76ZM111.856 18.912V16.912C109.468 16.912 107.34 17.662 105.6 19.2092L106.928 20.704L108.257 22.1988C109.205 21.3566 110.363 20.912 111.856 20.912V18.912ZM106.928 20.704L105.602 19.2068C103.87 20.7412 102.892 22.8357 102.54 25.2932L104.52 25.576L106.5 25.8588C106.747 24.135 107.373 22.9815 108.254 22.2012L106.928 20.704ZM104.52 25.576V27.576H119.248V25.576V23.576H104.52V25.576ZM133.483 20.032L131.711 19.105L131.705 19.1158L131.7 19.1266L133.483 20.032ZM138.579 14.432L137.546 12.7196L137.539 12.7236L137.532 12.7277L138.579 14.432ZM151.851 13.872L150.896 15.6292L150.904 15.6335L150.912 15.6377L151.851 13.872ZM156.051 17.4L154.441 18.5864L158.051 23.4858V17.4H156.051ZM156.051 12.976V10.976H154.051V12.976H156.051ZM163.947 12.976H165.947V10.976H163.947V12.976ZM163.947 44V46H165.947V44H163.947ZM156.051 44H154.051V46H156.051V44ZM156.051 39.464H158.051V33.0615L154.406 38.3256L156.051 39.464ZM151.851 43.104L152.79 44.8697L152.797 44.8662L152.803 44.8626L151.851 43.104ZM138.579 42.488L137.511 44.179L137.518 44.1832L137.524 44.1873L138.579 42.488ZM133.483 36.832L131.694 37.7264L131.702 37.7428L131.711 37.759L133.483 36.832ZM154.931 23.616L153.171 24.567L153.177 24.5772L153.183 24.5873L154.931 23.616ZM151.907 20.48L150.893 22.2039L150.912 22.2151L150.931 22.2259L151.907 20.48ZM143.787 20.424L142.789 18.6908V18.6908L143.787 20.424ZM140.763 23.56L139.024 22.5728L139.019 22.5807L139.015 22.5887L140.763 23.56ZM140.763 33.304L138.993 34.2355L139.008 34.2636L139.024 34.2912L140.763 33.304ZM143.787 36.496L142.75 38.2064L142.762 38.2132L142.773 38.2199L143.787 36.496ZM151.907 36.552L152.883 38.2979L152.902 38.2871L152.921 38.2759L151.907 36.552ZM154.931 33.416L156.679 34.3873L156.685 34.3772L156.69 34.367L154.931 33.416ZM131.635 28.376H133.635C133.635 25.5066 134.197 23.0436 135.266 20.9374L133.483 20.032L131.7 19.1266C130.305 21.8738 129.635 24.9734 129.635 28.376H131.635ZM133.483 20.032L135.255 20.959C136.374 18.8203 137.834 17.2361 139.625 16.1363L138.579 14.432L137.532 12.7277C135.067 14.2412 133.131 16.3904 131.711 19.105L133.483 20.032ZM138.579 14.432L139.612 16.1444C141.45 15.0351 143.498 14.472 145.803 14.472V12.472V10.472C142.806 10.472 140.038 11.2155 137.546 12.7196L138.579 14.432ZM145.803 12.472V14.472C147.845 14.472 149.521 14.8822 150.896 15.6292L151.851 13.872L152.806 12.1147C150.746 10.9951 148.39 10.472 145.803 10.472V12.472ZM151.851 13.872L150.912 15.6377C152.436 16.4486 153.594 17.4377 154.441 18.5864L156.051 17.4L157.661 16.2136C156.417 14.5249 154.775 13.162 152.79 12.1063L151.851 13.872ZM156.051 17.4H158.051V12.976H156.051H154.051V17.4H156.051ZM156.051 12.976V14.976H163.947V12.976V10.976H156.051V12.976ZM163.947 12.976H161.947V44H163.947H165.947V12.976H163.947ZM163.947 44V42H156.051V44V46H163.947V44ZM156.051 44H158.051V39.464H156.051H154.051V44H156.051ZM156.051 39.464L154.406 38.3256C153.602 39.487 152.456 40.5017 150.898 41.3454L151.851 43.104L152.803 44.8626C154.83 43.765 156.483 42.353 157.695 40.6024L156.051 39.464ZM151.851 43.104L150.912 41.3383C149.49 42.0942 147.788 42.504 145.747 42.504V44.504V46.504C148.335 46.504 150.702 45.9804 152.79 44.8697L151.851 43.104ZM145.747 44.504V42.504C143.496 42.504 141.474 41.931 139.634 40.7887L138.579 42.488L137.524 44.1873C140.015 45.733 142.771 46.504 145.747 46.504V44.504ZM138.579 42.488L139.647 40.797C137.843 39.6576 136.376 38.0478 135.255 35.905L133.483 36.832L131.711 37.759C133.129 40.4696 135.059 42.6304 137.511 44.179L138.579 42.488ZM133.483 36.832L135.272 35.9376C134.198 33.7907 133.635 31.2861 133.635 28.376H131.635H129.635C129.635 31.8126 130.303 34.9453 131.694 37.7264L133.483 36.832ZM156.051 28.488H158.051C158.051 26.3242 157.626 24.3487 156.679 22.6447L154.931 23.616L153.183 24.5873C153.729 25.5713 154.051 26.8438 154.051 28.488H156.051ZM154.931 23.616L156.69 22.665C155.778 20.9774 154.51 19.6435 152.883 18.7341L151.907 20.48L150.931 22.2259C151.843 22.7352 152.59 23.4919 153.171 24.567L154.931 23.616ZM151.907 20.48L152.921 18.7561C151.348 17.8308 149.636 17.36 147.819 17.36V19.36V21.36C148.914 21.36 149.927 21.6358 150.893 22.2039L151.907 20.48ZM147.819 19.36V17.36C146.021 17.36 144.332 17.8023 142.789 18.6908L143.787 20.424L144.785 22.1572C145.706 21.6271 146.704 21.36 147.819 21.36V19.36ZM143.787 20.424L142.789 18.6908C141.213 19.5984 139.963 20.9184 139.024 22.5728L140.763 23.56L142.502 24.5472C143.131 23.439 143.897 22.6683 144.785 22.1572L143.787 20.424ZM140.763 23.56L139.015 22.5887C138.071 24.2872 137.643 26.2418 137.643 28.376H139.643H141.643C141.643 26.7769 141.961 25.5208 142.511 24.5313L140.763 23.56ZM139.643 28.376H137.643C137.643 30.5137 138.072 32.4857 138.993 34.2355L140.763 33.304L142.533 32.3725C141.96 31.2849 141.643 29.9716 141.643 28.376H139.643ZM140.763 33.304L139.024 34.2912C139.958 35.9385 141.197 37.2649 142.75 38.2064L143.787 36.496L144.823 34.7856C143.913 34.2337 143.135 33.4322 142.502 32.3168L140.763 33.304ZM143.787 36.496L142.773 38.2199C144.337 39.1401 146.03 39.616 147.819 39.616V37.616V35.616C146.771 35.616 145.775 35.3452 144.801 34.7721L143.787 36.496ZM147.819 37.616V39.616C149.616 39.616 151.315 39.1741 152.883 38.2979L151.907 36.552L150.931 34.8061C149.96 35.3486 148.934 35.616 147.819 35.616V37.616ZM151.907 36.552L152.921 38.2759C154.512 37.3402 155.767 36.0288 156.679 34.3873L154.931 33.416L153.183 32.4447C152.601 33.4912 151.841 34.2705 150.893 34.8281L151.907 36.552ZM154.931 33.416L156.69 34.367C157.625 32.6376 158.051 30.654 158.051 28.488H156.051H154.051C154.051 30.13 153.73 31.4317 153.171 32.465L154.931 33.416ZM181.292 19.416V17.416H179.292V19.416H181.292ZM182.02 36.72L180.606 38.1342L180.66 38.1885L180.718 38.2385L182.02 36.72ZM188.236 37.392H190.236V35.392H188.236V37.392ZM188.236 44V46H190.236V44H188.236ZM173.396 19.416H175.396V17.416H173.396V19.416ZM169.7 19.416H167.7V21.416H169.7V19.416ZM169.7 12.976V10.976H167.7V12.976H169.7ZM173.396 12.976V14.976H175.396V12.976H173.396ZM173.396 5.304V3.304H171.396V5.304H173.396ZM181.292 5.304H183.292V3.304H181.292V5.304ZM181.292 12.976H179.292V14.976H181.292V12.976ZM188.236 12.976H190.236V10.976H188.236V12.976ZM188.236 19.416V21.416H190.236V19.416H188.236ZM181.292 19.416H179.292V34.424H181.292H183.292V19.416H181.292ZM181.292 34.424H179.292C179.292 35.7273 179.589 37.1173 180.606 38.1342L182.02 36.72L183.434 35.3058C183.48 35.3521 183.292 35.2114 183.292 34.424H181.292ZM182.02 36.72L180.718 38.2385C181.789 39.1558 183.243 39.392 184.596 39.392V37.392V35.392C184.114 35.392 183.78 35.3459 183.561 35.2888C183.343 35.232 183.296 35.1793 183.322 35.2015L182.02 36.72ZM184.596 37.392V39.392H188.236V37.392V35.392H184.596V37.392ZM188.236 37.392H186.236V44H188.236H190.236V37.392H188.236ZM188.236 44V42H183.308V44V46H188.236V44ZM183.308 44V42C180.298 42 178.411 41.2683 177.268 40.1577C176.136 39.0574 175.396 37.2556 175.396 34.368H173.396H171.396C171.396 37.9017 172.308 40.916 174.48 43.0263C176.641 45.1264 179.71 46 183.308 46V44ZM173.396 34.368H175.396V19.416H173.396H171.396V34.368H173.396ZM173.396 19.416V17.416H169.7V19.416V21.416H173.396V19.416ZM169.7 19.416H171.7V12.976H169.7H167.7V19.416H169.7ZM169.7 12.976V14.976H173.396V12.976V10.976H169.7V12.976ZM173.396 12.976H175.396V5.304H173.396H171.396V12.976H173.396ZM173.396 5.304V7.304H181.292V5.304V3.304H173.396V5.304ZM181.292 5.304H179.292V12.976H181.292H183.292V5.304H181.292ZM181.292 12.976V14.976H188.236V12.976V10.976H181.292V12.976ZM188.236 12.976H186.236V19.416H188.236H190.236V12.976H188.236ZM188.236 19.416V17.416H181.292V19.416V21.416H188.236V19.416Z" fill="#ECEDEE" mask="url(#path-1-outside-1_615_584)"/>
</svg>
