<svg width="61" height="40" viewBox="0 0 61 40" fill="none" xmlns="http://www.w3.org/2000/svg">
<mask id="path-1-outside-1_298_392" maskUnits="userSpaceOnUse" x="0" y="0" width="61" height="40" fill="black">
<rect fill="white" width="61" height="40"/>
<path d="M2.56738 12.848C2.69538 9.424 3.81538 6.784 5.92738 4.928C8.03938 3.072 10.9034 2.144 14.5194 2.144C16.9194 2.144 18.9674 2.56 20.6634 3.392C22.3914 4.224 23.6874 5.36 24.5514 6.8C25.4474 8.24 25.8954 9.856 25.8954 11.648C25.8954 13.76 25.3674 15.488 24.3114 16.832C23.2554 18.144 22.0234 19.04 20.6154 19.52V19.712C22.4394 20.32 23.8794 21.328 24.9354 22.736C25.9914 24.144 26.5194 25.952 26.5194 28.16C26.5194 30.144 26.0554 31.904 25.1274 33.44C24.2314 34.944 22.9034 36.128 21.1434 36.992C19.4154 37.856 17.3514 38.288 14.9514 38.288C11.1114 38.288 8.03938 37.344 5.73538 35.456C3.46338 33.568 2.26338 30.72 2.13538 26.912H10.1034C10.1354 28.32 10.5354 29.44 11.3034 30.272C12.0714 31.072 13.1914 31.472 14.6634 31.472C15.9114 31.472 16.8714 31.12 17.5434 30.416C18.2474 29.68 18.5994 28.72 18.5994 27.536C18.5994 26 18.1034 24.896 17.1114 24.224C16.1514 23.52 14.5994 23.168 12.4554 23.168H10.9194V16.496H12.4554C14.0874 16.496 15.3994 16.224 16.3914 15.68C17.4154 15.104 17.9274 14.096 17.9274 12.656C17.9274 11.504 17.6074 10.608 16.9674 9.968C16.3274 9.328 15.4474 9.008 14.3274 9.008C13.1114 9.008 12.1994 9.376 11.5914 10.112C11.0154 10.848 10.6794 11.76 10.5834 12.848H2.56738ZM48.4779 38L43.3419 30.56L39.0219 38H30.1419L38.9739 24.32L29.9019 11.216H39.1179L44.2539 18.608L48.5739 11.216H57.4539L48.4779 24.704L57.6939 38H48.4779Z"/>
</mask>
<path d="M2.56738 12.848L1.06843 12.792L1.01025 14.348H2.56738V12.848ZM5.92738 4.928L6.91755 6.05475V6.05475L5.92738 4.928ZM20.6634 3.392L20.0027 4.73872L20.0127 4.7435L20.6634 3.392ZM24.5514 6.8L23.2651 7.57174L23.2714 7.58215L23.2778 7.59245L24.5514 6.8ZM24.3114 16.832L25.4799 17.7725L25.4854 17.7657L25.4909 17.7587L24.3114 16.832ZM20.6154 19.52L20.1314 18.1002L19.1154 18.4466V19.52H20.6154ZM20.6154 19.712H19.1154V20.7931L20.141 21.135L20.6154 19.712ZM25.1274 33.44L23.8435 32.6643L23.8387 32.6723L25.1274 33.44ZM21.1434 36.992L20.4824 35.6455L20.4726 35.6504L21.1434 36.992ZM5.73537 35.456L4.77668 36.6097L4.78465 36.6162L5.73537 35.456ZM2.13538 26.912V25.412H0.584106L0.636223 26.9624L2.13538 26.912ZM10.1034 26.912L11.603 26.8779L11.5697 25.412H10.1034V26.912ZM11.3034 30.272L10.2012 31.2894L10.2111 31.3002L10.2213 31.3108L11.3034 30.272ZM17.5434 30.416L16.4594 29.3792L16.4583 29.3803L17.5434 30.416ZM17.1114 24.224L16.2243 25.4336L16.2469 25.4502L16.2701 25.4659L17.1114 24.224ZM10.9194 23.168H9.41938V24.668H10.9194V23.168ZM10.9194 16.496V14.996H9.41938V16.496H10.9194ZM16.3914 15.68L17.1126 16.9952L17.1197 16.9913L17.1268 16.9874L16.3914 15.68ZM16.9674 9.968L18.028 8.90734V8.90734L16.9674 9.968ZM11.5914 10.112L10.4349 9.15668L10.4223 9.17194L10.4101 9.18754L11.5914 10.112ZM10.5834 12.848V14.348H11.9569L12.0776 12.9798L10.5834 12.848ZM2.56738 12.848L4.06633 12.904C4.18256 9.79497 5.18082 7.58097 6.91755 6.05475L5.92738 4.928L4.9372 3.80125C2.44994 5.98703 1.2082 9.05303 1.06843 12.792L2.56738 12.848ZM5.92738 4.928L6.91755 6.05475C8.68488 4.50164 11.1608 3.644 14.5194 3.644V2.144V0.643998C10.646 0.643998 7.39388 1.64235 4.9372 3.80125L5.92738 4.928ZM14.5194 2.144V3.644C16.7505 3.644 18.5603 4.03105 20.0027 4.73868L20.6634 3.392L21.324 2.04532C19.3745 1.08894 17.0883 0.643998 14.5194 0.643998V2.144ZM20.6634 3.392L20.0127 4.7435C21.5153 5.46701 22.5724 6.41724 23.2651 7.57174L24.5514 6.8L25.8376 6.02826C24.8023 4.30275 23.2674 2.98099 21.3141 2.0405L20.6634 3.392ZM24.5514 6.8L23.2778 7.59245C24.0173 8.78093 24.3954 10.1195 24.3954 11.648H25.8954H27.3954C27.3954 9.59247 26.8775 7.69907 25.825 6.00755L24.5514 6.8ZM25.8954 11.648H24.3954C24.3954 13.5051 23.9351 14.883 23.1319 15.9053L24.3114 16.832L25.4909 17.7587C26.7996 16.093 27.3954 14.0149 27.3954 11.648H25.8954ZM24.3114 16.832L23.1429 15.8915C22.2408 17.0122 21.2361 17.7236 20.1314 18.1002L20.6154 19.52L21.0994 20.9398C22.8107 20.3564 24.2699 19.2758 25.4799 17.7725L24.3114 16.832ZM20.6154 19.52H19.1154V19.712H20.6154H22.1154V19.52H20.6154ZM20.6154 19.712L20.141 21.135C21.7036 21.6559 22.8794 22.4947 23.7354 23.636L24.9354 22.736L26.1354 21.836C24.8794 20.1613 23.1751 18.9841 21.0897 18.289L20.6154 19.712ZM24.9354 22.736L23.7354 23.636C24.5518 24.7245 25.0194 26.1928 25.0194 28.16H26.5194H28.0194C28.0194 25.7112 27.431 23.5635 26.1354 21.836L24.9354 22.736ZM26.5194 28.16H25.0194C25.0194 29.9003 24.6155 31.3866 23.8435 32.6643L25.1274 33.44L26.4113 34.2157C27.4953 32.4214 28.0194 30.3877 28.0194 28.16H26.5194ZM25.1274 33.44L23.8387 32.6723C23.1089 33.8974 22.0138 34.8937 20.4824 35.6455L21.1434 36.992L21.8044 38.3385C23.7929 37.3623 25.3539 35.9906 26.416 34.2077L25.1274 33.44ZM21.1434 36.992L20.4726 35.6504C18.9972 36.3881 17.1737 36.788 14.9514 36.788V38.288V39.788C17.529 39.788 19.8336 39.3239 21.8142 38.3336L21.1434 36.992ZM14.9514 38.288V36.788C11.3562 36.788 8.65258 35.9072 6.68611 34.2958L5.73537 35.456L4.78465 36.6162C7.42618 38.7808 10.8665 39.788 14.9514 39.788V38.288ZM5.73537 35.456L6.69405 34.3023C4.84105 32.7625 3.75259 30.3737 3.63453 26.8616L2.13538 26.912L0.636223 26.9624C0.77417 31.0663 2.08571 34.3735 4.7767 36.6097L5.73537 35.456ZM2.13538 26.912V28.412H10.1034V26.912V25.412H2.13538V26.912ZM10.1034 26.912L8.60377 26.9461C8.64196 28.6268 9.1291 30.128 10.2012 31.2894L11.3034 30.272L12.4056 29.2546C11.9417 28.752 11.6288 28.0132 11.603 26.8779L10.1034 26.912ZM11.3034 30.272L10.2213 31.3108C11.3559 32.4927 12.9222 32.972 14.6634 32.972V31.472V29.972C13.4606 29.972 12.7868 29.6513 12.3855 29.2332L11.3034 30.272ZM14.6634 31.472V32.972C16.1992 32.972 17.5989 32.5303 18.6284 31.4517L17.5434 30.416L16.4583 29.3803C16.1439 29.7097 15.6235 29.972 14.6634 29.972V31.472ZM17.5434 30.416L18.6273 31.4528C19.6416 30.3925 20.0994 29.0389 20.0994 27.536H18.5994H17.0994C17.0994 28.4011 16.8532 28.9675 16.4594 29.3792L17.5434 30.416ZM18.5994 27.536H20.0994C20.0994 25.6596 19.4716 24.0111 17.9527 22.9821L17.1114 24.224L16.2701 25.4659C16.7351 25.7809 17.0994 26.3404 17.0994 27.536H18.5994ZM17.1114 24.224L17.9984 23.0144C16.6455 22.0223 14.6943 21.668 12.4554 21.668V23.168V24.668C14.5045 24.668 15.6572 25.0177 16.2243 25.4336L17.1114 24.224ZM12.4554 23.168V21.668H10.9194V23.168V24.668H12.4554V23.168ZM10.9194 23.168H12.4194V16.496H10.9194H9.41938V23.168H10.9194ZM10.9194 16.496V17.996H12.4554V16.496V14.996H10.9194V16.496ZM12.4554 16.496V17.996C14.2351 17.996 15.8232 17.7023 17.1126 16.9952L16.3914 15.68L15.6701 14.3648C14.9755 14.7457 13.9396 14.996 12.4554 14.996V16.496ZM16.3914 15.68L17.1268 16.9874C18.7366 16.0819 19.4274 14.4938 19.4274 12.656H17.9274H16.4274C16.4274 13.6982 16.0942 14.1261 15.656 14.3726L16.3914 15.68ZM17.9274 12.656H19.4274C19.4274 11.2201 19.0208 9.90009 18.028 8.90734L16.9674 9.968L15.9067 11.0287C16.194 11.3159 16.4274 11.7879 16.4274 12.656H17.9274ZM16.9674 9.968L18.028 8.90734C17.0431 7.92238 15.7451 7.508 14.3274 7.508V9.008V10.508C15.1497 10.508 15.6117 10.7336 15.9067 11.0287L16.9674 9.968ZM14.3274 9.008V7.508C12.7966 7.508 11.4028 7.98504 10.4349 9.15668L11.5914 10.112L12.7478 11.0673C12.9959 10.767 13.4261 10.508 14.3274 10.508V9.008ZM11.5914 10.112L10.4101 9.18754C9.62691 10.1883 9.20628 11.389 9.08918 12.7162L10.5834 12.848L12.0776 12.9798C12.1525 12.131 12.4038 11.5077 12.7726 11.0365L11.5914 10.112ZM10.5834 12.848V11.348H2.56738V12.848V14.348H10.5834V12.848ZM48.4779 38L47.2435 38.8522L47.6907 39.5H48.4779V38ZM43.3419 30.56L44.5763 29.7078L43.2325 27.7612L42.0447 29.8068L43.3419 30.56ZM39.0219 38V39.5H39.8854L40.3191 38.7532L39.0219 38ZM30.1419 38L28.8817 37.1864L27.388 39.5H30.1419V38ZM38.9739 24.32L40.2341 25.1336L40.7781 24.2909L40.2072 23.4662L38.9739 24.32ZM29.9019 11.216V9.716H27.039L28.6686 12.0698L29.9019 11.216ZM39.1179 11.216L40.3497 10.3601L39.9022 9.716H39.1179V11.216ZM44.2539 18.608L43.022 19.4639L44.3631 21.394L45.5489 19.3649L44.2539 18.608ZM48.5739 11.216V9.716H47.7131L47.2788 10.4591L48.5739 11.216ZM57.4539 11.216L58.7026 12.047L60.2539 9.716H57.4539V11.216ZM48.4779 24.704L47.2291 23.873L46.6647 24.7212L47.2451 25.5585L48.4779 24.704ZM57.6939 38V39.5H60.5587L58.9267 37.1455L57.6939 38ZM48.4779 38L49.7123 37.1478L44.5763 29.7078L43.3419 30.56L42.1075 31.4122L47.2435 38.8522L48.4779 38ZM43.3419 30.56L42.0447 29.8068L37.7247 37.2468L39.0219 38L40.3191 38.7532L44.6391 31.3132L43.3419 30.56ZM39.0219 38V36.5H30.1419V38V39.5H39.0219V38ZM30.1419 38L31.4021 38.8136L40.2341 25.1336L38.9739 24.32L37.7137 23.5064L28.8817 37.1864L30.1419 38ZM38.9739 24.32L40.2072 23.4662L31.1352 10.3622L29.9019 11.216L28.6686 12.0698L37.7406 25.1738L38.9739 24.32ZM29.9019 11.216V12.716H39.1179V11.216V9.716H29.9019V11.216ZM39.1179 11.216L37.886 12.0719L43.022 19.4639L44.2539 18.608L45.4857 17.7521L40.3497 10.3601L39.1179 11.216ZM44.2539 18.608L45.5489 19.3649L49.8689 11.9729L48.5739 11.216L47.2788 10.4591L42.9588 17.8511L44.2539 18.608ZM48.5739 11.216V12.716H57.4539V11.216V9.716H48.5739V11.216ZM57.4539 11.216L56.2051 10.385L47.2291 23.873L48.4779 24.704L49.7266 25.535L58.7026 12.047L57.4539 11.216ZM48.4779 24.704L47.2451 25.5585L56.4611 38.8545L57.6939 38L58.9267 37.1455L49.7107 23.8495L48.4779 24.704ZM57.6939 38V36.5H48.4779V38V39.5H57.6939V38Z" fill="#DADBDD" mask="url(#path-1-outside-1_298_392)"/>
</svg>
