<svg width="60" height="40" viewBox="0 0 60 40" fill="none" xmlns="http://www.w3.org/2000/svg">
<mask id="path-1-outside-1_599_3765" maskUnits="userSpaceOnUse" x="0" y="0" width="60" height="40" fill="black">
<rect fill="white" width="60" height="40"/>
<path d="M2.16 20C2.16 14.496 3.216 10.16 5.328 6.992C7.472 3.824 10.912 2.24 15.648 2.24C20.384 2.24 23.808 3.824 25.92 6.992C28.064 10.16 29.136 14.496 29.136 20C29.136 25.568 28.064 29.936 25.92 33.104C23.808 36.272 20.384 37.856 15.648 37.856C10.912 37.856 7.472 36.272 5.328 33.104C3.216 29.936 2.16 25.568 2.16 20ZM21.072 20C21.072 16.768 20.72 14.288 20.016 12.56C19.312 10.8 17.856 9.92 15.648 9.92C13.44 9.92 11.984 10.8 11.28 12.56C10.576 14.288 10.224 16.768 10.224 20C10.224 22.176 10.352 23.984 10.608 25.424C10.864 26.832 11.376 27.984 12.144 28.88C12.944 29.744 14.112 30.176 15.648 30.176C17.184 30.176 18.336 29.744 19.104 28.88C19.904 27.984 20.432 26.832 20.688 25.424C20.944 23.984 21.072 22.176 21.072 20ZM34.2405 12.848C34.3685 9.424 35.4885 6.784 37.6005 4.928C39.7125 3.072 42.5765 2.144 46.1925 2.144C48.5925 2.144 50.6405 2.56 52.3365 3.392C54.0645 4.224 55.3605 5.36 56.2245 6.8C57.1205 8.24 57.5685 9.856 57.5685 11.648C57.5685 13.76 57.0405 15.488 55.9845 16.832C54.9285 18.144 53.6965 19.04 52.2885 19.52V19.712C54.1125 20.32 55.5525 21.328 56.6085 22.736C57.6645 24.144 58.1925 25.952 58.1925 28.16C58.1925 30.144 57.7285 31.904 56.8005 33.44C55.9045 34.944 54.5765 36.128 52.8165 36.992C51.0885 37.856 49.0245 38.288 46.6245 38.288C42.7845 38.288 39.7125 37.344 37.4085 35.456C35.1365 33.568 33.9365 30.72 33.8085 26.912H41.7765C41.8085 28.32 42.2085 29.44 42.9765 30.272C43.7445 31.072 44.8645 31.472 46.3365 31.472C47.5845 31.472 48.5445 31.12 49.2165 30.416C49.9205 29.68 50.2725 28.72 50.2725 27.536C50.2725 26 49.7765 24.896 48.7845 24.224C47.8245 23.52 46.2725 23.168 44.1285 23.168H42.5925V16.496H44.1285C45.7605 16.496 47.0725 16.224 48.0645 15.68C49.0885 15.104 49.6005 14.096 49.6005 12.656C49.6005 11.504 49.2805 10.608 48.6405 9.968C48.0005 9.328 47.1205 9.008 46.0005 9.008C44.7845 9.008 43.8725 9.376 43.2645 10.112C42.6885 10.848 42.3525 11.76 42.2565 12.848H34.2405Z"/>
</mask>
<path d="M5.328 6.992L4.08572 6.15126L4.07993 6.15995L5.328 6.992ZM25.92 6.992L24.6719 7.82407L24.6777 7.83272L25.92 6.992ZM25.92 33.104L24.6777 32.2633L24.6719 32.2719L25.92 33.104ZM5.328 33.104L4.0799 33.9361L4.08575 33.9447L5.328 33.104ZM20.016 12.56L18.6233 13.1171L18.6269 13.1259L20.016 12.56ZM11.28 12.56L12.6692 13.126L12.6727 13.1171L11.28 12.56ZM10.608 25.424L9.13115 25.6866L9.1322 25.6923L10.608 25.424ZM12.144 28.88L11.0051 29.8562L11.0238 29.878L11.0434 29.8991L12.144 28.88ZM19.104 28.88L17.9851 27.881L17.9829 27.8835L19.104 28.88ZM20.688 25.424L22.1638 25.6923L22.1648 25.6865L20.688 25.424ZM2.16 20H3.66C3.66 14.6666 4.68638 10.6586 6.57608 7.82405L5.328 6.992L4.07993 6.15995C1.74562 9.6614 0.66 14.3254 0.66 20H2.16ZM5.328 6.992L6.57025 7.83272C8.3675 5.17708 11.2754 3.74 15.648 3.74V2.24V0.739997C10.5486 0.739997 6.5765 2.47092 4.08575 6.15128L5.328 6.992ZM15.648 2.24V3.74C20.0213 3.74 22.9072 5.17699 24.6719 7.82405L25.92 6.992L27.1681 6.15995C24.7088 2.471 20.7467 0.739997 15.648 0.739997V2.24ZM25.92 6.992L24.6777 7.83272C26.595 10.6657 27.636 14.6701 27.636 20H29.136H30.636C30.636 14.3219 29.533 9.65432 27.1623 6.15128L25.92 6.992ZM29.136 20H27.636C27.636 25.3981 26.5934 29.4327 24.6777 32.2633L25.92 33.104L27.1623 33.9447C29.5346 30.4393 30.636 25.7379 30.636 20H29.136ZM25.92 33.104L24.6719 32.2719C22.9072 34.919 20.0213 36.356 15.648 36.356V37.856V39.356C20.7467 39.356 24.7088 37.625 27.1681 33.9361L25.92 33.104ZM15.648 37.856V36.356C11.2754 36.356 8.3675 34.9189 6.57025 32.2633L5.328 33.104L4.08575 33.9447C6.5765 37.6251 10.5486 39.356 15.648 39.356V37.856ZM5.328 33.104L6.57608 32.2719C4.68797 29.4398 3.66 25.4016 3.66 20H2.16H0.66C0.66 25.7344 1.74403 30.4322 4.07993 33.9361L5.328 33.104ZM21.072 20H22.572C22.572 16.6951 22.2173 13.9874 21.4051 11.9941L20.016 12.56L18.6269 13.1259C19.2227 14.5886 19.572 16.8409 19.572 20H21.072ZM20.016 12.56L21.4087 12.0029C20.9501 10.8565 20.2108 9.92418 19.1719 9.29626C18.1498 8.67852 16.9457 8.42 15.648 8.42V9.92V11.42C16.5583 11.42 17.1862 11.6015 17.6201 11.8637C18.0372 12.1158 18.3779 12.5035 18.6233 13.1171L20.016 12.56ZM15.648 9.92V8.42C14.3503 8.42 13.1462 8.67852 12.1241 9.29626C11.0852 9.92418 10.3459 10.8565 9.88729 12.0029L11.28 12.56L12.6727 13.1171C12.9181 12.5035 13.2588 12.1158 13.6759 11.8637C14.1098 11.6015 14.7377 11.42 15.648 11.42V9.92ZM11.28 12.56L9.89086 11.9941C9.07874 13.9874 8.724 16.6951 8.724 20H10.224H11.724C11.724 16.8409 12.0733 14.5886 12.6691 13.1259L11.28 12.56ZM10.224 20H8.724C8.724 22.2259 8.85427 24.1291 9.13116 25.6865L10.608 25.424L12.0848 25.1614C11.8497 23.8389 11.724 22.1261 11.724 20H10.224ZM10.608 25.424L9.1322 25.6923C9.42566 27.3064 10.0307 28.7193 11.0051 29.8562L12.144 28.88L13.2829 27.9038C12.7213 27.2487 12.3023 26.3576 12.0838 25.1557L10.608 25.424ZM12.144 28.88L11.0434 29.8991C12.2071 31.1559 13.8282 31.676 15.648 31.676V30.176V28.676C14.3958 28.676 13.6809 28.3321 13.2446 27.8609L12.144 28.88ZM15.648 30.176V31.676C17.464 31.676 19.0868 31.1571 20.2251 29.8765L19.104 28.88L17.9829 27.8835C17.5852 28.3309 16.904 28.676 15.648 28.676V30.176ZM19.104 28.88L20.2229 29.879C21.2394 28.7405 21.8679 27.3196 22.1638 25.6923L20.688 25.424L19.2122 25.1557C18.9961 26.3444 18.5686 27.2275 17.9851 27.881L19.104 28.88ZM20.688 25.424L22.1648 25.6865C22.4417 24.1291 22.572 22.2259 22.572 20H21.072H19.572C19.572 22.1261 19.4463 23.8389 19.2112 25.1614L20.688 25.424ZM34.2405 12.848L32.7415 12.792L32.6834 14.348H34.2405V12.848ZM37.6005 4.928L38.5907 6.05475V6.05475L37.6005 4.928ZM52.3365 3.392L51.6758 4.73872L51.6858 4.7435L52.3365 3.392ZM56.2245 6.8L54.9383 7.57174L54.9445 7.58215L54.9509 7.59245L56.2245 6.8ZM55.9845 16.832L57.153 17.7725L57.1585 17.7657L57.164 17.7587L55.9845 16.832ZM52.2885 19.52L51.8045 18.1002L50.7885 18.4466V19.52H52.2885ZM52.2885 19.712H50.7885V20.7931L51.8142 21.135L52.2885 19.712ZM56.8005 33.44L55.5166 32.6643L55.5118 32.6723L56.8005 33.44ZM52.8165 36.992L52.1555 35.6455L52.1457 35.6504L52.8165 36.992ZM37.4085 35.456L36.4498 36.6097L36.4578 36.6162L37.4085 35.456ZM33.8085 26.912V25.412H32.2572L32.3093 26.9624L33.8085 26.912ZM41.7765 26.912L43.2761 26.8779L43.2428 25.412H41.7765V26.912ZM42.9765 30.272L41.8743 31.2894L41.8843 31.3002L41.8944 31.3108L42.9765 30.272ZM49.2165 30.416L48.1325 29.3792L48.1315 29.3803L49.2165 30.416ZM48.7845 24.224L47.8975 25.4336L47.92 25.4502L47.9432 25.4659L48.7845 24.224ZM42.5925 23.168H41.0925V24.668H42.5925V23.168ZM42.5925 16.496V14.996H41.0925V16.496H42.5925ZM48.0645 15.68L48.7858 16.9952L48.7928 16.9913L48.7999 16.9874L48.0645 15.68ZM48.6405 9.968L49.7012 8.90734V8.90734L48.6405 9.968ZM43.2645 10.112L42.1081 9.15668L42.0954 9.17194L42.0832 9.18754L43.2645 10.112ZM42.2565 12.848V14.348H43.63L43.7507 12.9798L42.2565 12.848ZM34.2405 12.848L35.7395 12.904C35.8557 9.79497 36.8539 7.58097 38.5907 6.05475L37.6005 4.928L36.6103 3.80125C34.1231 5.98703 32.8813 9.05303 32.7415 12.792L34.2405 12.848ZM37.6005 4.928L38.5907 6.05475C40.358 4.50164 42.8339 3.644 46.1925 3.644V2.144V0.643998C42.3191 0.643998 39.067 1.64235 36.6103 3.80125L37.6005 4.928ZM46.1925 2.144V3.644C48.4236 3.644 50.2334 4.03105 51.6759 4.73868L52.3365 3.392L52.9971 2.04532C51.0476 1.08894 48.7614 0.643998 46.1925 0.643998V2.144ZM52.3365 3.392L51.6858 4.7435C53.1884 5.46701 54.2456 6.41724 54.9383 7.57174L56.2245 6.8L57.5107 6.02826C56.4754 4.30275 54.9406 2.98099 52.9872 2.0405L52.3365 3.392ZM56.2245 6.8L54.9509 7.59245C55.6904 8.78093 56.0685 10.1195 56.0685 11.648H57.5685H59.0685C59.0685 9.59247 58.5506 7.69907 57.4981 6.00755L56.2245 6.8ZM57.5685 11.648H56.0685C56.0685 13.5051 55.6083 14.883 54.805 15.9053L55.9845 16.832L57.164 17.7587C58.4727 16.093 59.0685 14.0149 59.0685 11.648H57.5685ZM55.9845 16.832L54.816 15.8915C53.914 17.0122 52.9092 17.7236 51.8045 18.1002L52.2885 19.52L52.7725 20.9398C54.4838 20.3564 55.943 19.2758 57.153 17.7725L55.9845 16.832ZM52.2885 19.52H50.7885V19.712H52.2885H53.7885V19.52H52.2885ZM52.2885 19.712L51.8142 21.135C53.3767 21.6559 54.5525 22.4947 55.4085 23.636L56.6085 22.736L57.8085 21.836C56.5525 20.1613 54.8483 18.9841 52.7628 18.289L52.2885 19.712ZM56.6085 22.736L55.4085 23.636C56.2249 24.7245 56.6925 26.1928 56.6925 28.16H58.1925H59.6925C59.6925 25.7112 59.1041 23.5635 57.8085 21.836L56.6085 22.736ZM58.1925 28.16H56.6925C56.6925 29.9003 56.2886 31.3866 55.5166 32.6643L56.8005 33.44L58.0844 34.2157C59.1684 32.4214 59.6925 30.3877 59.6925 28.16H58.1925ZM56.8005 33.44L55.5118 32.6723C54.782 33.8974 53.687 34.8937 52.1555 35.6455L52.8165 36.992L53.4775 38.3385C55.466 37.3623 57.027 35.9906 58.0892 34.2077L56.8005 33.44ZM52.8165 36.992L52.1457 35.6504C50.6703 36.3881 48.8469 36.788 46.6245 36.788V38.288V39.788C49.2021 39.788 51.5067 39.3239 53.4873 38.3336L52.8165 36.992ZM46.6245 38.288V36.788C43.0293 36.788 40.3257 35.9072 38.3592 34.2958L37.4085 35.456L36.4578 36.6162C39.0993 38.7808 42.5397 39.788 46.6245 39.788V38.288ZM37.4085 35.456L38.3672 34.3023C36.5142 32.7625 35.4257 30.3737 35.3077 26.8616L33.8085 26.912L32.3093 26.9624C32.4473 31.0663 33.7588 34.3735 36.4498 36.6097L37.4085 35.456ZM33.8085 26.912V28.412H41.7765V26.912V25.412H33.8085V26.912ZM41.7765 26.912L40.2769 26.9461C40.3151 28.6268 40.8022 30.128 41.8743 31.2894L42.9765 30.272L44.0787 29.2546C43.6148 28.752 43.3019 28.0132 43.2761 26.8779L41.7765 26.912ZM42.9765 30.272L41.8944 31.3108C43.029 32.4927 44.5953 32.972 46.3365 32.972V31.472V29.972C45.1337 29.972 44.46 29.6513 44.0586 29.2332L42.9765 30.272ZM46.3365 31.472V32.972C47.8723 32.972 49.272 32.5303 50.3015 31.4517L49.2165 30.416L48.1315 29.3803C47.817 29.7097 47.2967 29.972 46.3365 29.972V31.472ZM49.2165 30.416L50.3005 31.4528C51.3147 30.3925 51.7725 29.0389 51.7725 27.536H50.2725H48.7725C48.7725 28.4011 48.5263 28.9675 48.1325 29.3792L49.2165 30.416ZM50.2725 27.536H51.7725C51.7725 25.6596 51.1448 24.0111 49.6258 22.9821L48.7845 24.224L47.9432 25.4659C48.4082 25.7809 48.7725 26.3404 48.7725 27.536H50.2725ZM48.7845 24.224L49.6715 23.0144C48.3187 22.0223 46.3674 21.668 44.1285 21.668V23.168V24.668C46.1776 24.668 47.3303 25.0177 47.8975 25.4336L48.7845 24.224ZM44.1285 23.168V21.668H42.5925V23.168V24.668H44.1285V23.168ZM42.5925 23.168H44.0925V16.496H42.5925H41.0925V23.168H42.5925ZM42.5925 16.496V17.996H44.1285V16.496V14.996H42.5925V16.496ZM44.1285 16.496V17.996C45.9082 17.996 47.4963 17.7023 48.7858 16.9952L48.0645 15.68L47.3433 14.3648C46.6487 14.7457 45.6128 14.996 44.1285 14.996V16.496ZM48.0645 15.68L48.7999 16.9874C50.4097 16.0819 51.1005 14.4938 51.1005 12.656H49.6005H48.1005C48.1005 13.6982 47.7673 14.1261 47.3291 14.3726L48.0645 15.68ZM49.6005 12.656H51.1005C51.1005 11.2201 50.6939 9.90009 49.7012 8.90734L48.6405 9.968L47.5798 11.0287C47.8671 11.3159 48.1005 11.7879 48.1005 12.656H49.6005ZM48.6405 9.968L49.7012 8.90734C48.7162 7.92238 47.4182 7.508 46.0005 7.508V9.008V10.508C46.8228 10.508 47.2848 10.7336 47.5798 11.0287L48.6405 9.968ZM46.0005 9.008V7.508C44.4698 7.508 43.0759 7.98504 42.1081 9.15668L43.2645 10.112L44.4209 11.0673C44.6691 10.767 45.0992 10.508 46.0005 10.508V9.008ZM43.2645 10.112L42.0832 9.18754C41.3 10.1883 40.8794 11.389 40.7623 12.7162L42.2565 12.848L43.7507 12.9798C43.8256 12.131 44.077 11.5077 44.4458 11.0365L43.2645 10.112ZM42.2565 12.848V11.348H34.2405V12.848V14.348H42.2565V12.848Z" fill="#DADBDD" mask="url(#path-1-outside-1_599_3765)"/>
</svg>
