<svg width="60" height="40" viewBox="0 0 60 40" fill="none" xmlns="http://www.w3.org/2000/svg">
<mask id="path-1-outside-1_599_3759" maskUnits="userSpaceOnUse" x="0" y="0" width="60" height="40" fill="black">
<rect fill="white" width="60" height="40"/>
<path d="M2.16 20C2.16 14.496 3.216 10.16 5.328 6.992C7.472 3.824 10.912 2.24 15.648 2.24C20.384 2.24 23.808 3.824 25.92 6.992C28.064 10.16 29.136 14.496 29.136 20C29.136 25.568 28.064 29.936 25.92 33.104C23.808 36.272 20.384 37.856 15.648 37.856C10.912 37.856 7.472 36.272 5.328 33.104C3.216 29.936 2.16 25.568 2.16 20ZM21.072 20C21.072 16.768 20.72 14.288 20.016 12.56C19.312 10.8 17.856 9.92 15.648 9.92C13.44 9.92 11.984 10.8 11.28 12.56C10.576 14.288 10.224 16.768 10.224 20C10.224 22.176 10.352 23.984 10.608 25.424C10.864 26.832 11.376 27.984 12.144 28.88C12.944 29.744 14.112 30.176 15.648 30.176C17.184 30.176 18.336 29.744 19.104 28.88C19.904 27.984 20.432 26.832 20.688 25.424C20.944 23.984 21.072 22.176 21.072 20ZM33.6645 31.424C34.7525 30.56 35.2485 30.16 35.1525 30.224C38.2885 27.632 40.7525 25.504 42.5445 23.84C44.3685 22.176 45.9045 20.432 47.1525 18.608C48.4005 16.784 49.0245 15.008 49.0245 13.28C49.0245 11.968 48.7205 10.944 48.1125 10.208C47.5045 9.472 46.5925 9.104 45.3765 9.104C44.1605 9.104 43.2005 9.568 42.4965 10.496C41.8245 11.392 41.4885 12.672 41.4885 14.336H33.5685C33.6325 11.616 34.2085 9.344 35.2965 7.52C36.4165 5.696 37.8725 4.352 39.6645 3.488C41.4885 2.624 43.5045 2.192 45.7125 2.192C49.5205 2.192 52.3845 3.168 54.3045 5.12C56.2565 7.072 57.2325 9.616 57.2325 12.752C57.2325 16.176 56.0645 19.36 53.7285 22.304C51.3925 25.216 48.4165 28.064 44.8005 30.848H57.7605V37.52H33.6645V31.424Z"/>
</mask>
<path d="M5.328 6.992L4.08572 6.15126L4.07993 6.15995L5.328 6.992ZM25.92 6.992L24.6719 7.82407L24.6777 7.83272L25.92 6.992ZM25.92 33.104L24.6777 32.2633L24.6719 32.2719L25.92 33.104ZM5.328 33.104L4.0799 33.9361L4.08575 33.9447L5.328 33.104ZM20.016 12.56L18.6233 13.1171L18.6269 13.1259L20.016 12.56ZM11.28 12.56L12.6692 13.126L12.6727 13.1171L11.28 12.56ZM10.608 25.424L9.13115 25.6866L9.1322 25.6923L10.608 25.424ZM12.144 28.88L11.0051 29.8562L11.0238 29.878L11.0434 29.8991L12.144 28.88ZM19.104 28.88L17.9851 27.881L17.9829 27.8835L19.104 28.88ZM20.688 25.424L22.1638 25.6923L22.1648 25.6865L20.688 25.424ZM2.16 20H3.66C3.66 14.6666 4.68638 10.6586 6.57608 7.82405L5.328 6.992L4.07993 6.15995C1.74562 9.6614 0.66 14.3254 0.66 20H2.16ZM5.328 6.992L6.57025 7.83272C8.3675 5.17708 11.2754 3.74 15.648 3.74V2.24V0.739997C10.5486 0.739997 6.5765 2.47092 4.08575 6.15128L5.328 6.992ZM15.648 2.24V3.74C20.0213 3.74 22.9072 5.17699 24.6719 7.82405L25.92 6.992L27.1681 6.15995C24.7088 2.471 20.7467 0.739997 15.648 0.739997V2.24ZM25.92 6.992L24.6777 7.83272C26.595 10.6657 27.636 14.6701 27.636 20H29.136H30.636C30.636 14.3219 29.533 9.65432 27.1623 6.15128L25.92 6.992ZM29.136 20H27.636C27.636 25.3981 26.5934 29.4327 24.6777 32.2633L25.92 33.104L27.1623 33.9447C29.5346 30.4393 30.636 25.7379 30.636 20H29.136ZM25.92 33.104L24.6719 32.2719C22.9072 34.919 20.0213 36.356 15.648 36.356V37.856V39.356C20.7467 39.356 24.7088 37.625 27.1681 33.9361L25.92 33.104ZM15.648 37.856V36.356C11.2754 36.356 8.3675 34.9189 6.57025 32.2633L5.328 33.104L4.08575 33.9447C6.5765 37.6251 10.5486 39.356 15.648 39.356V37.856ZM5.328 33.104L6.57608 32.2719C4.68797 29.4398 3.66 25.4016 3.66 20H2.16H0.66C0.66 25.7344 1.74403 30.4322 4.07993 33.9361L5.328 33.104ZM21.072 20H22.572C22.572 16.6951 22.2173 13.9874 21.4051 11.9941L20.016 12.56L18.6269 13.1259C19.2227 14.5886 19.572 16.8409 19.572 20H21.072ZM20.016 12.56L21.4087 12.0029C20.9501 10.8565 20.2108 9.92418 19.1719 9.29626C18.1498 8.67852 16.9457 8.42 15.648 8.42V9.92V11.42C16.5583 11.42 17.1862 11.6015 17.6201 11.8637C18.0372 12.1158 18.3779 12.5035 18.6233 13.1171L20.016 12.56ZM15.648 9.92V8.42C14.3503 8.42 13.1462 8.67852 12.1241 9.29626C11.0852 9.92418 10.3459 10.8565 9.88729 12.0029L11.28 12.56L12.6727 13.1171C12.9181 12.5035 13.2588 12.1158 13.6759 11.8637C14.1098 11.6015 14.7377 11.42 15.648 11.42V9.92ZM11.28 12.56L9.89086 11.9941C9.07874 13.9874 8.724 16.6951 8.724 20H10.224H11.724C11.724 16.8409 12.0733 14.5886 12.6691 13.1259L11.28 12.56ZM10.224 20H8.724C8.724 22.2259 8.85427 24.1291 9.13116 25.6865L10.608 25.424L12.0848 25.1614C11.8497 23.8389 11.724 22.1261 11.724 20H10.224ZM10.608 25.424L9.1322 25.6923C9.42566 27.3064 10.0307 28.7193 11.0051 29.8562L12.144 28.88L13.2829 27.9038C12.7213 27.2487 12.3023 26.3576 12.0838 25.1557L10.608 25.424ZM12.144 28.88L11.0434 29.8991C12.2071 31.1559 13.8282 31.676 15.648 31.676V30.176V28.676C14.3958 28.676 13.6809 28.3321 13.2446 27.8609L12.144 28.88ZM15.648 30.176V31.676C17.464 31.676 19.0868 31.1571 20.2251 29.8765L19.104 28.88L17.9829 27.8835C17.5852 28.3309 16.904 28.676 15.648 28.676V30.176ZM19.104 28.88L20.2229 29.879C21.2394 28.7405 21.8679 27.3196 22.1638 25.6923L20.688 25.424L19.2122 25.1557C18.9961 26.3444 18.5686 27.2275 17.9851 27.881L19.104 28.88ZM20.688 25.424L22.1648 25.6865C22.4417 24.1291 22.572 22.2259 22.572 20H21.072H19.572C19.572 22.1261 19.4463 23.8389 19.2112 25.1614L20.688 25.424ZM33.6645 31.424L32.7317 30.2493L32.1645 30.6997V31.424H33.6645ZM35.1525 30.224L34.1969 29.0678L35.9846 31.4721L35.1525 30.224ZM42.5445 23.84L41.5335 22.7318L41.5238 22.7408L42.5445 23.84ZM48.1125 10.208L46.9561 11.1633V11.1633L48.1125 10.208ZM42.4965 10.496L41.3014 9.58941L41.2965 9.596L42.4965 10.496ZM41.4885 14.336V15.836H42.9885V14.336H41.4885ZM33.5685 14.336L32.0689 14.3007L32.0328 15.836H33.5685V14.336ZM35.2965 7.52L34.0182 6.7351L34.0132 6.74331L34.0083 6.75158L35.2965 7.52ZM39.6645 3.488L39.0224 2.13236L39.0131 2.13685L39.6645 3.488ZM54.3045 5.12L53.2351 6.17189L53.2438 6.18066L54.3045 5.12ZM53.7285 22.304L54.8986 23.2426L54.9035 23.2364L53.7285 22.304ZM44.8005 30.848L43.8854 29.6595L40.3934 32.348H44.8005V30.848ZM57.7605 30.848H59.2605V29.348H57.7605V30.848ZM57.7605 37.52V39.02H59.2605V37.52H57.7605ZM33.6645 37.52H32.1645V39.02H33.6645V37.52ZM33.6645 31.424L34.5973 32.5987C35.1417 32.1664 35.5414 31.8474 35.7941 31.6436C35.918 31.5437 36.0156 31.4642 36.0783 31.4116C36.0888 31.4028 36.1595 31.3444 36.2214 31.2824C36.2339 31.2699 36.2557 31.2477 36.2814 31.219C36.2982 31.2001 36.358 31.1332 36.4203 31.0376C36.4486 30.9942 36.5172 30.8854 36.5732 30.7322C36.6068 30.64 36.7724 30.1836 36.5512 29.6463C36.2596 28.9384 35.6154 28.7544 35.3103 28.7245C35.0389 28.6979 34.8298 28.7537 34.7689 28.7703C34.6165 28.8119 34.5054 28.8693 34.4847 28.8797C34.4433 28.9007 34.4112 28.9193 34.3945 28.9293C34.36 28.9497 34.3328 28.9677 34.3204 28.9759L35.1525 30.224L35.9846 31.4721C35.9782 31.4763 35.9559 31.4912 35.9251 31.5094C35.9101 31.5183 35.8796 31.5361 35.8395 31.5564C35.8201 31.5662 35.71 31.6232 35.5582 31.6646C35.4977 31.6811 35.2889 31.7368 35.0176 31.7102C34.7128 31.6803 34.0686 31.4965 33.7772 30.7887C33.556 30.2515 33.7215 29.7953 33.7551 29.7034C33.8109 29.5504 33.8794 29.4419 33.9075 29.3988C33.9693 29.304 34.0283 29.238 34.0441 29.2203C34.0687 29.1928 34.0892 29.172 34.1001 29.1611C34.149 29.1121 34.1882 29.0812 34.1487 29.1144C34.1114 29.1458 34.035 29.2083 33.9109 29.3084C33.6676 29.5046 33.2753 29.8176 32.7317 30.2493L33.6645 31.424ZM35.1525 30.224L36.1081 31.3802C39.2539 28.7801 41.7428 26.6314 43.5652 24.9392L42.5445 23.84L41.5238 22.7408C39.7622 24.3766 37.3231 26.4839 34.1969 29.0678L35.1525 30.224ZM42.5445 23.84L43.5554 24.9481C45.4551 23.2151 47.07 21.3849 48.3905 19.455L47.1525 18.608L45.9145 17.761C44.739 19.4791 43.2819 21.1369 41.5336 22.7318L42.5445 23.84ZM47.1525 18.608L48.3905 19.455C49.7617 17.4509 50.5245 15.3847 50.5245 13.28H49.0245H47.5245C47.5245 14.6313 47.0393 16.1171 45.9145 17.761L47.1525 18.608ZM49.0245 13.28H50.5245C50.5245 11.7491 50.1696 10.343 49.2689 9.25267L48.1125 10.208L46.9561 11.1633C47.2714 11.545 47.5245 12.1869 47.5245 13.28H49.0245ZM48.1125 10.208L49.2689 9.25268C48.3011 8.08104 46.9072 7.604 45.3765 7.604V9.104V10.604C46.2778 10.604 46.7079 10.863 46.9561 11.1633L48.1125 10.208ZM45.3765 9.104V7.604C43.7154 7.604 42.3033 8.2688 41.3015 9.58942L42.4965 10.496L43.6915 11.4026C44.0977 10.8672 44.6056 10.604 45.3765 10.604V9.104ZM42.4965 10.496L41.2965 9.596C40.3556 10.8506 39.9885 12.4978 39.9885 14.336H41.4885H42.9885C42.9885 12.8462 43.2934 11.9334 43.6965 11.396L42.4965 10.496ZM41.4885 14.336V12.836H33.5685V14.336V15.836H41.4885V14.336ZM33.5685 14.336L35.0681 14.3713C35.1277 11.8387 35.6614 9.83637 36.5847 8.28841L35.2965 7.52L34.0083 6.75158C32.7556 8.85163 32.1373 11.3933 32.0689 14.3007L33.5685 14.336ZM35.2965 7.52L36.5748 8.30489C37.5563 6.70639 38.8026 5.56881 40.3159 4.83915L39.6645 3.488L39.0131 2.13685C36.9424 3.13519 35.2767 4.68561 34.0182 6.7351L35.2965 7.52ZM39.6645 3.488L40.3066 4.8436C41.9116 4.08334 43.7054 3.692 45.7125 3.692V2.192V0.691998C43.3036 0.691998 41.0654 1.16466 39.0224 2.13239L39.6645 3.488ZM45.7125 2.192V3.692C49.2787 3.692 51.6925 4.60357 53.2351 6.17186L54.3045 5.12L55.3739 4.06814C53.0765 1.73243 49.7623 0.691998 45.7125 0.691998V2.192ZM54.3045 5.12L53.2438 6.18066C54.8755 7.81228 55.7325 9.95493 55.7325 12.752H57.2325H58.7325C58.7325 9.27707 57.6375 6.33172 55.3652 4.05934L54.3045 5.12ZM57.2325 12.752H55.7325C55.7325 15.8039 54.7009 18.6653 52.5535 21.3716L53.7285 22.304L54.9035 23.2364C57.4281 20.0547 58.7325 16.5481 58.7325 12.752H57.2325ZM53.7285 22.304L52.5585 21.3654C50.3116 24.1663 47.4269 26.9328 43.8854 29.6595L44.8005 30.848L45.7156 32.0365C49.4061 29.1952 52.4734 26.2657 54.8985 23.2426L53.7285 22.304ZM44.8005 30.848V32.348H57.7605V30.848V29.348H44.8005V30.848ZM57.7605 30.848H56.2605V37.52H57.7605H59.2605V30.848H57.7605ZM57.7605 37.52V36.02H33.6645V37.52V39.02H57.7605V37.52ZM33.6645 37.52H35.1645V31.424H33.6645H32.1645V37.52H33.6645Z" fill="#DADBDD" mask="url(#path-1-outside-1_599_3759)"/>
</svg>
