<svg width="106" height="40" viewBox="0 0 106 40" fill="none" xmlns="http://www.w3.org/2000/svg">
<mask id="path-1-outside-1_298_400" maskUnits="userSpaceOnUse" x="0" y="0" width="106" height="40" fill="black">
<rect fill="white" width="106" height="40"/>
<path d="M2.44887 31.424C3.53687 30.56 4.03287 30.16 3.93687 30.224C7.07287 27.632 9.53687 25.504 11.3289 23.84C13.1529 22.176 14.6889 20.432 15.9369 18.608C17.1849 16.784 17.8089 15.008 17.8089 13.28C17.8089 11.968 17.5049 10.944 16.8969 10.208C16.2889 9.472 15.3769 9.104 14.1609 9.104C12.9449 9.104 11.9849 9.568 11.2809 10.496C10.6089 11.392 10.2729 12.672 10.2729 14.336H2.35287C2.41687 11.616 2.99287 9.344 4.08087 7.52C5.20087 5.696 6.65687 4.352 8.44887 3.488C10.2729 2.624 12.2889 2.192 14.4969 2.192C18.3049 2.192 21.1689 3.168 23.0889 5.12C25.0409 7.072 26.0169 9.616 26.0169 12.752C26.0169 16.176 24.8489 19.36 22.5129 22.304C20.1769 25.216 17.2009 28.064 13.5849 30.848H26.5449V37.52H2.44887V31.424ZM35.2947 38.384C33.8547 38.384 32.6707 37.968 31.7427 37.136C30.8467 36.272 30.3987 35.216 30.3987 33.968C30.3987 32.688 30.8467 31.616 31.7427 30.752C32.6707 29.888 33.8547 29.456 35.2947 29.456C36.7027 29.456 37.8547 29.888 38.7507 30.752C39.6787 31.616 40.1427 32.688 40.1427 33.968C40.1427 35.216 39.6787 36.272 38.7507 37.136C37.8547 37.968 36.7027 38.384 35.2947 38.384ZM69.3376 10.112H54.3616V16.736C55.0016 16.032 55.8976 15.456 57.0496 15.008C58.2016 14.56 59.4496 14.336 60.7936 14.336C63.1936 14.336 65.1776 14.88 66.7456 15.968C68.3456 17.056 69.5136 18.464 70.2496 20.192C70.9856 21.92 71.3536 23.792 71.3536 25.808C71.3536 29.552 70.2976 32.528 68.1856 34.736C66.0736 36.912 63.0976 38 59.2576 38C56.6976 38 54.4736 37.568 52.5856 36.704C50.6976 35.808 49.2416 34.576 48.2176 33.008C47.1936 31.44 46.6336 29.632 46.5376 27.584H54.5536C54.7456 28.576 55.2096 29.408 55.9456 30.08C56.6816 30.72 57.6896 31.04 58.9696 31.04C60.4736 31.04 61.5936 30.56 62.3296 29.6C63.0656 28.64 63.4336 27.36 63.4336 25.76C63.4336 24.192 63.0496 22.992 62.2816 22.16C61.5136 21.328 60.3936 20.912 58.9216 20.912C57.8336 20.912 56.9376 21.184 56.2336 21.728C55.5296 22.24 55.0656 22.928 54.8416 23.792H46.9216V2.912H69.3376V10.112ZM93.0204 38L87.8844 30.56L83.5644 38H74.6844L83.5164 24.32L74.4444 11.216H83.6604L88.7964 18.608L93.1164 11.216H101.996L93.0204 24.704L102.236 38H93.0204Z"/>
</mask>
<path d="M2.44887 31.424L1.51605 30.2493L0.948874 30.6997V31.424H2.44887ZM3.93687 30.224L2.98125 29.0678L4.76892 31.4721L3.93687 30.224ZM11.3289 23.84L10.3179 22.7318L10.3082 22.7408L11.3289 23.84ZM16.8969 10.208L15.7404 11.1633V11.1633L16.8969 10.208ZM11.2809 10.496L10.0858 9.58941L10.0809 9.596L11.2809 10.496ZM10.2729 14.336V15.836H11.7729V14.336H10.2729ZM2.35287 14.336L0.853289 14.3007L0.817165 15.836H2.35287V14.336ZM4.08087 7.52L2.80262 6.7351L2.79758 6.74331L2.79264 6.75158L4.08087 7.52ZM8.44888 3.488L7.80673 2.13236L7.79742 2.13685L8.44888 3.488ZM23.0889 5.12L22.0194 6.17189L22.0282 6.18066L23.0889 5.12ZM22.5129 22.304L23.6829 23.2426L23.6879 23.2364L22.5129 22.304ZM13.5849 30.848L12.6698 29.6595L9.17778 32.348H13.5849V30.848ZM26.5449 30.848H28.0449V29.348H26.5449V30.848ZM26.5449 37.52V39.02H28.0449V37.52H26.5449ZM2.44887 37.52H0.948874V39.02H2.44887V37.52ZM2.44887 31.424L3.3817 32.5987C3.92605 32.1664 4.32581 31.8474 4.5785 31.6436C4.70241 31.5437 4.79994 31.4642 4.86266 31.4116C4.87315 31.4028 4.94383 31.3444 5.00578 31.2824C5.01831 31.2699 5.04011 31.2477 5.06577 31.219C5.08262 31.2001 5.14234 31.1332 5.20468 31.0376C5.23302 30.9942 5.30161 30.8854 5.35755 30.7322C5.3912 30.64 5.5568 30.1836 5.33554 29.6463C5.044 28.9384 4.39975 28.7544 4.09468 28.7245C3.82324 28.6979 3.61414 28.7537 3.55326 28.7703C3.40085 28.8119 3.28976 28.8693 3.26905 28.8797C3.22768 28.9007 3.1956 28.9193 3.17884 28.9293C3.14434 28.9497 3.11716 28.9677 3.10482 28.9759L3.93687 30.224L4.76892 31.4721C4.76259 31.4763 4.74026 31.4912 4.70944 31.5094C4.69452 31.5183 4.664 31.5361 4.62389 31.5564C4.60444 31.5662 4.49433 31.6232 4.34262 31.6646C4.28207 31.6811 4.07325 31.7368 3.802 31.7102C3.49714 31.6803 2.85301 31.4965 2.56153 30.7887C2.34033 30.2515 2.5059 29.7953 2.53947 29.7034C2.59532 29.5504 2.66375 29.4419 2.69185 29.3988C2.75372 29.304 2.81269 29.238 2.82849 29.2203C2.85309 29.1928 2.87356 29.172 2.88446 29.1611C2.93341 29.1121 2.9726 29.0812 2.93309 29.1144C2.89581 29.1458 2.81934 29.2083 2.69525 29.3084C2.45194 29.5046 2.0597 29.8176 1.51605 30.2493L2.44887 31.424ZM3.93687 30.224L4.8925 31.3802C8.03827 28.7801 10.5272 26.6314 12.3496 24.9392L11.3289 23.84L10.3082 22.7408C8.54655 24.3766 6.10748 26.4839 2.98125 29.0678L3.93687 30.224ZM11.3289 23.84L12.3398 24.9481C14.2395 23.2151 15.8544 21.3849 17.1748 19.455L15.9369 18.608L14.6989 17.761C13.5234 19.4791 12.0663 21.1369 10.3179 22.7318L11.3289 23.84ZM15.9369 18.608L17.1748 19.455C18.5461 17.4509 19.3089 15.3847 19.3089 13.28H17.8089H16.3089C16.3089 14.6313 15.8237 16.1171 14.6989 17.761L15.9369 18.608ZM17.8089 13.28H19.3089C19.3089 11.7491 18.954 10.343 18.0533 9.25267L16.8969 10.208L15.7404 11.1633C16.0558 11.545 16.3089 12.1869 16.3089 13.28H17.8089ZM16.8969 10.208L18.0533 9.25268C17.0854 8.08104 15.6916 7.604 14.1609 7.604V9.104V10.604C15.0621 10.604 15.4923 10.863 15.7404 11.1633L16.8969 10.208ZM14.1609 9.104V7.604C12.4997 7.604 11.0877 8.2688 10.0858 9.58942L11.2809 10.496L12.4759 11.4026C12.8821 10.8672 13.39 10.604 14.1609 10.604V9.104ZM11.2809 10.496L10.0809 9.596C9.13995 10.8506 8.77287 12.4978 8.77287 14.336H10.2729H11.7729C11.7729 12.8462 12.0778 11.9334 12.4809 11.396L11.2809 10.496ZM10.2729 14.336V12.836H2.35287V14.336V15.836H10.2729V14.336ZM2.35287 14.336L3.85246 14.3713C3.91205 11.8387 4.44576 9.83637 5.3691 8.28841L4.08087 7.52L2.79264 6.75158C1.53998 8.85163 0.9217 11.3933 0.853289 14.3007L2.35287 14.336ZM4.08087 7.52L5.35913 8.30489C6.34067 6.70639 7.58696 5.56881 9.10032 4.83915L8.44888 3.488L7.79742 2.13685C5.72678 3.13519 4.06108 4.68561 2.80262 6.7351L4.08087 7.52ZM8.44888 3.488L9.091 4.8436C10.696 4.08334 12.4898 3.692 14.4969 3.692V2.192V0.691998C12.0879 0.691998 9.84974 1.16466 7.80674 2.13239L8.44888 3.488ZM14.4969 2.192V3.692C18.063 3.692 20.4769 4.60357 22.0195 6.17186L23.0889 5.12L24.1583 4.06814C21.8608 1.73243 18.5467 0.691998 14.4969 0.691998V2.192ZM23.0889 5.12L22.0282 6.18066C23.6598 7.81228 24.5169 9.95493 24.5169 12.752H26.0169H27.5169C27.5169 9.27707 26.4219 6.33172 24.1495 4.05934L23.0889 5.12ZM26.0169 12.752H24.5169C24.5169 15.8039 23.4853 18.6653 21.3378 21.3716L22.5129 22.304L23.6879 23.2364C26.2125 20.0547 27.5169 16.5481 27.5169 12.752H26.0169ZM22.5129 22.304L21.3428 21.3654C19.0959 24.1663 16.2113 26.9328 12.6698 29.6595L13.5849 30.848L14.5 32.0365C18.1905 29.1952 21.2578 26.2657 23.6829 23.2426L22.5129 22.304ZM13.5849 30.848V32.348H26.5449V30.848V29.348H13.5849V30.848ZM26.5449 30.848H25.0449V37.52H26.5449H28.0449V30.848H26.5449ZM26.5449 37.52V36.02H2.44887V37.52V39.02H26.5449V37.52ZM2.44887 37.52H3.94887V31.424H2.44887H0.948874V37.52H2.44887ZM31.7427 37.136L30.7015 38.2158L30.7211 38.2347L30.7414 38.2529L31.7427 37.136ZM31.7427 30.752L30.7206 29.6542L30.711 29.6631L30.7015 29.6722L31.7427 30.752ZM38.7507 30.752L37.7095 31.8318L37.719 31.8409L37.7286 31.8498L38.7507 30.752ZM38.7507 37.136L39.7714 38.2352L39.7729 38.2338L38.7507 37.136ZM35.2948 38.384V36.884C34.1632 36.884 33.3545 36.5664 32.7441 36.0191L31.7427 37.136L30.7414 38.2529C31.987 39.3696 33.5463 39.884 35.2948 39.884V38.384ZM31.7427 37.136L32.784 36.0562C32.182 35.4758 31.8988 34.8099 31.8988 33.968H30.3988H28.8988C28.8988 35.6221 29.5115 37.0682 30.7015 38.2158L31.7427 37.136ZM30.3988 33.968H31.8988C31.8988 33.0823 32.1904 32.4042 32.784 31.8318L31.7427 30.752L30.7015 29.6722C29.5031 30.8278 28.8988 32.2937 28.8988 33.968H30.3988ZM31.7427 30.752L32.7649 31.8498C33.3772 31.2797 34.1786 30.956 35.2948 30.956V29.456V27.956C33.5309 27.956 31.9643 28.4963 30.7206 29.6542L31.7427 30.752ZM35.2948 29.456V30.956C36.3696 30.956 37.1305 31.2734 37.7095 31.8318L38.7507 30.752L39.792 29.6722C38.579 28.5026 37.0359 27.956 35.2948 27.956V29.456ZM38.7507 30.752L37.7286 31.8498C38.3486 32.427 38.6427 33.0999 38.6427 33.968H40.1427H41.6427C41.6427 32.2761 41.0089 30.805 39.7729 29.6542L38.7507 30.752ZM40.1427 33.968H38.6427C38.6427 34.7921 38.3574 35.4528 37.7286 36.0382L38.7507 37.136L39.7729 38.2338C41.0001 37.0912 41.6427 35.6399 41.6427 33.968H40.1427ZM38.7507 37.136L37.7301 36.0368C37.1535 36.5722 36.3856 36.884 35.2948 36.884V38.384V39.884C37.0199 39.884 38.556 39.3638 39.7714 38.2352L38.7507 37.136ZM69.3376 10.112V11.612H70.8376V10.112H69.3376ZM54.3616 10.112V8.612H52.8616V10.112H54.3616ZM54.3616 16.736H52.8616V20.6159L55.4715 17.745L54.3616 16.736ZM57.0496 15.008L56.506 13.61L57.0496 15.008ZM66.7456 15.968L65.8905 17.2004L65.8963 17.2044L65.9022 17.2084L66.7456 15.968ZM70.2496 20.192L71.6297 19.6042L70.2496 20.192ZM68.1856 34.736L69.262 35.7807L69.2696 35.7728L68.1856 34.736ZM52.5856 36.704L51.9425 38.0591L51.9519 38.0636L51.9614 38.068L52.5856 36.704ZM48.2176 33.008L46.9617 33.8282V33.8282L48.2176 33.008ZM46.5376 27.584V26.084H44.9657L45.0393 27.6542L46.5376 27.584ZM54.5536 27.584L56.0263 27.299L55.7911 26.084H54.5536V27.584ZM55.9456 30.08L54.9342 31.1877L54.9476 31.2L54.9614 31.2119L55.9456 30.08ZM62.2816 22.16L63.3838 21.1426V21.1426L62.2816 22.16ZM56.2336 21.728L57.1159 22.9411L57.1335 22.9283L57.1508 22.9149L56.2336 21.728ZM54.8416 23.792V25.292H56.0023L56.2936 24.1684L54.8416 23.792ZM46.9216 23.792H45.4216V25.292H46.9216V23.792ZM46.9216 2.912V1.412H45.4216V2.912H46.9216ZM69.3376 2.912H70.8376V1.412H69.3376V2.912ZM69.3376 10.112V8.612H54.3616V10.112V11.612H69.3376V10.112ZM54.3616 10.112H52.8616V16.736H54.3616H55.8616V10.112H54.3616ZM54.3616 16.736L55.4715 17.745C55.9159 17.2562 56.5952 16.7942 57.5933 16.406L57.0496 15.008L56.506 13.61C55.2001 14.1178 54.0874 14.8078 53.2517 15.727L54.3616 16.736ZM57.0496 15.008L57.5933 16.406C58.5574 16.0311 59.6193 15.836 60.7936 15.836V14.336V12.836C59.28 12.836 57.8459 13.0889 56.506 13.61L57.0496 15.008ZM60.7936 14.336V15.836C62.967 15.836 64.6315 16.3268 65.8905 17.2004L66.7456 15.968L67.6007 14.7356C65.7237 13.4332 63.4202 12.836 60.7936 12.836V14.336ZM66.7456 15.968L65.9022 17.2084C67.272 18.1399 68.2498 19.3245 68.8696 20.7798L70.2496 20.192L71.6297 19.6042C70.7775 17.6035 69.4192 15.9721 67.5891 14.7276L66.7456 15.968ZM70.2496 20.192L68.8696 20.7798C69.5208 22.3086 69.8536 23.979 69.8536 25.808H71.3536H72.8536C72.8536 23.605 72.4505 21.5314 71.6297 19.6042L70.2496 20.192ZM71.3536 25.808H69.8536C69.8536 29.2576 68.8892 31.8303 67.1017 33.6992L68.1856 34.736L69.2696 35.7728C71.706 33.2257 72.8536 29.8464 72.8536 25.808H71.3536ZM68.1856 34.736L67.1093 33.6913C65.3504 35.5034 62.8062 36.5 59.2576 36.5V38V39.5C63.3891 39.5 66.7968 38.3206 69.262 35.7807L68.1856 34.736ZM59.2576 38V36.5C56.8641 36.5 54.8618 36.096 53.2098 35.34L52.5856 36.704L51.9614 38.068C54.0854 39.04 56.5312 39.5 59.2576 39.5V38ZM52.5856 36.704L53.2287 35.3489C51.5606 34.5572 50.3294 33.4984 49.4735 32.1878L48.2176 33.008L46.9617 33.8282C48.1539 35.6536 49.8346 37.0588 51.9425 38.0591L52.5856 36.704ZM48.2176 33.008L49.4735 32.1878C48.6094 30.8646 48.1207 29.3207 48.036 27.5138L46.5376 27.584L45.0393 27.6542C45.1466 29.9433 45.7778 32.0154 46.9617 33.8282L48.2176 33.008ZM46.5376 27.584V29.084H54.5536V27.584V26.084H46.5376V27.584ZM54.5536 27.584L53.081 27.869C53.3333 29.173 53.9565 30.295 54.9342 31.1877L55.9456 30.08L56.957 28.9723C56.4628 28.521 56.1579 27.979 56.0263 27.299L54.5536 27.584ZM55.9456 30.08L54.9614 31.2119C56.0461 32.1552 57.4429 32.54 58.9696 32.54V31.04V29.54C57.9364 29.54 57.3171 29.2848 56.9299 28.9481L55.9456 30.08ZM58.9696 31.04V32.54C60.8145 32.54 62.4316 31.9324 63.52 30.5126L62.3296 29.6L61.1392 28.6874C60.7557 29.1876 60.1327 29.54 58.9696 29.54V31.04ZM62.3296 29.6L63.52 30.5126C64.5131 29.2173 64.9336 27.5837 64.9336 25.76H63.4336H61.9336C61.9336 27.1363 61.6181 28.0627 61.1392 28.6874L62.3296 29.6ZM63.4336 25.76H64.9336C64.9336 23.961 64.4919 22.343 63.3838 21.1426L62.2816 22.16L61.1794 23.1774C61.6073 23.641 61.9336 24.423 61.9336 25.76H63.4336ZM62.2816 22.16L63.3838 21.1426C62.2529 19.9174 60.6797 19.412 58.9216 19.412V20.912V22.412C60.1076 22.412 60.7743 22.7386 61.1794 23.1774L62.2816 22.16ZM58.9216 20.912V19.412C57.5776 19.412 56.3374 19.7521 55.3165 20.5411L56.2336 21.728L57.1508 22.9149C57.5378 22.6159 58.0897 22.412 58.9216 22.412V20.912ZM56.2336 21.728L55.3514 20.5149C54.3586 21.2369 53.6985 22.2244 53.3896 23.4156L54.8416 23.792L56.2936 24.1684C56.4328 23.6316 56.7007 23.2431 57.1159 22.9411L56.2336 21.728ZM54.8416 23.792V22.292H46.9216V23.792V25.292H54.8416V23.792ZM46.9216 23.792H48.4216V2.912H46.9216H45.4216V23.792H46.9216ZM46.9216 2.912V4.412H69.3376V2.912V1.412H46.9216V2.912ZM69.3376 2.912H67.8376V10.112H69.3376H70.8376V2.912H69.3376ZM93.0204 38L91.7859 38.8522L92.2332 39.5H93.0204V38ZM87.8844 30.56L89.1188 29.7078L87.775 27.7612L86.5872 29.8068L87.8844 30.56ZM83.5644 38V39.5H84.4279L84.8616 38.7532L83.5644 38ZM74.6844 38L73.4242 37.1864L71.9305 39.5H74.6844V38ZM83.5164 24.32L84.7766 25.1336L85.3206 24.2909L84.7497 23.4662L83.5164 24.32ZM74.4444 11.216V9.716H71.5815L73.2111 12.0698L74.4444 11.216ZM83.6604 11.216L84.8922 10.3601L84.4447 9.716H83.6604V11.216ZM88.7964 18.608L87.5645 19.4639L88.9056 21.394L90.0914 19.3649L88.7964 18.608ZM93.1164 11.216V9.716H92.2556L91.8213 10.4591L93.1164 11.216ZM101.996 11.216L103.245 12.047L104.796 9.716H101.996V11.216ZM93.0204 24.704L91.7716 23.873L91.2072 24.7212L91.7876 25.5585L93.0204 24.704ZM102.236 38V39.5H105.101L103.469 37.1455L102.236 38ZM93.0204 38L94.2548 37.1478L89.1188 29.7078L87.8844 30.56L86.6499 31.4122L91.7859 38.8522L93.0204 38ZM87.8844 30.56L86.5872 29.8068L82.2672 37.2468L83.5644 38L84.8616 38.7532L89.1816 31.3132L87.8844 30.56ZM83.5644 38V36.5H74.6844V38V39.5H83.5644V38ZM74.6844 38L75.9446 38.8136L84.7766 25.1336L83.5164 24.32L82.2562 23.5064L73.4242 37.1864L74.6844 38ZM83.5164 24.32L84.7497 23.4662L75.6777 10.3622L74.4444 11.216L73.2111 12.0698L82.2831 25.1738L83.5164 24.32ZM74.4444 11.216V12.716H83.6604V11.216V9.716H74.4444V11.216ZM83.6604 11.216L82.4285 12.0719L87.5645 19.4639L88.7964 18.608L90.0282 17.7521L84.8922 10.3601L83.6604 11.216ZM88.7964 18.608L90.0914 19.3649L94.4114 11.9729L93.1164 11.216L91.8213 10.4591L87.5013 17.8511L88.7964 18.608ZM93.1164 11.216V12.716H101.996V11.216V9.716H93.1164V11.216ZM101.996 11.216L100.748 10.385L91.7716 23.873L93.0204 24.704L94.2691 25.535L103.245 12.047L101.996 11.216ZM93.0204 24.704L91.7876 25.5585L101.004 38.8545L102.236 38L103.469 37.1455L94.2532 23.8495L93.0204 24.704ZM102.236 38V36.5H93.0204V38V39.5H102.236V38Z" fill="#DADBDD" mask="url(#path-1-outside-1_298_400)"/>
</svg>
