<svg width="54" height="56" viewBox="0 0 54 56" fill="none" xmlns="http://www.w3.org/2000/svg">
<path d="M44.6629 39.7584L40.0045 36.6852L36.1185 43.1766L31.5987 41.8555L27.6191 47.9295L27.8228 49.8412L49.4617 45.8537L48.205 32.3331L44.6629 39.7584ZM24.4841 33.9297L27.9561 33.4523C28.5176 33.7047 28.9084 33.8009 29.5819 33.9722C30.6315 34.2448 31.8449 34.507 33.6428 33.6015C34.0611 33.3941 34.9331 32.5971 35.2854 32.1424L49.5093 29.5627L50.9603 47.1247L26.5908 51.5163L24.4841 33.9297ZM50.9055 27.6015L49.5014 27.869L46.8037 0L0.842773 5.32911L6.50538 51.279L11.886 50.498C11.456 49.8845 10.787 49.1423 9.64485 48.1925C8.06071 46.8764 8.62023 44.64 9.55576 43.2279C10.7923 40.8423 17.1638 37.8105 16.8027 33.9977C16.6732 32.6112 16.4533 30.8072 15.1656 29.5696C15.117 30.0834 15.2045 30.5767 15.2045 30.5767C15.2045 30.5767 14.6758 29.9023 14.4128 28.9837C14.1514 28.6306 13.9459 28.5184 13.6677 28.0472C13.4693 28.5918 13.4957 29.2236 13.4957 29.2236C13.4957 29.2236 13.0633 28.2025 12.9936 27.3403C12.7375 27.7259 12.6732 28.4586 12.6732 28.4586C12.6732 28.4586 12.1118 26.8487 12.2399 25.981C11.9839 25.2265 11.2239 23.7286 11.4385 20.3253C12.8407 21.3076 15.9291 21.0747 17.1319 19.3015C17.531 18.7138 17.8055 17.1109 16.9325 13.9512C16.3721 11.9256 14.9846 8.90896 14.4435 7.76417L14.3791 7.81117C14.6644 8.73321 15.2521 10.6654 15.4781 11.6036C16.1612 14.4455 16.3439 15.4358 16.0235 16.7465C15.7507 17.886 15.0968 18.6306 13.4393 19.464C11.7818 20.2998 9.5813 18.2654 9.44275 18.1533C7.83204 16.8699 6.5859 14.7774 6.44735 13.7597C6.30246 12.6468 7.08902 11.9785 7.48526 11.0688C6.91777 11.2302 6.28571 11.5187 6.28571 11.5187C6.28571 11.5187 7.04038 10.7377 7.97059 10.0625C8.35641 9.8075 8.58222 9.64503 8.98827 9.30785C8.40055 9.29825 7.92298 9.31501 7.92298 9.31501C7.92298 9.31501 8.90346 8.78532 9.9195 8.39951C9.17627 8.36701 8.4641 8.3944 8.4641 8.3944C8.4641 8.3944 10.6517 7.41555 12.3793 6.69807C13.5672 6.21089 14.7277 6.35475 15.38 7.29825C16.2362 8.53377 17.1354 9.20465 19.041 9.62031C20.2113 9.10125 20.5663 8.83559 22.0368 8.43404C23.3303 7.01052 24.3464 6.82681 24.3464 6.82681C24.3464 6.82681 23.8425 7.28946 23.7074 8.01573C24.441 7.43762 25.2449 6.95494 25.2449 6.95494C25.2449 6.95494 24.9333 7.33871 24.6429 7.94952L24.7099 8.05027C25.5662 7.53652 26.5722 7.13232 26.5722 7.13232C26.5722 7.13232 26.2845 7.49606 25.9475 7.96628C26.5935 7.96097 27.9023 7.99366 28.4108 8.05108C31.4107 8.11729 32.0329 4.84806 33.1838 4.43772C34.6251 3.92316 35.2694 3.61152 37.7258 6.02452C39.8326 8.09686 41.4793 11.8038 40.6613 12.6343C39.9755 13.3238 38.6233 12.3652 37.1246 10.4976C36.3329 9.50832 35.7337 8.33881 35.453 6.85256C35.2165 5.59824 34.2951 4.87115 34.2951 4.87115C34.2951 4.87115 34.8291 6.06253 34.8291 7.11188C34.8291 7.6857 34.9006 9.82957 35.8202 11.0334C35.7292 11.2092 35.6869 11.9035 35.5862 12.0368C34.5166 10.7438 32.2191 9.81894 31.8441 9.54613C33.1123 10.5851 36.0268 12.9715 37.1458 15.26C38.205 17.4233 37.5811 19.4065 38.1165 19.9193C38.2693 20.0658 40.3938 22.7136 40.8025 24.0437C41.5157 26.3615 40.8448 28.7984 39.9119 30.3092L37.3056 30.7152C36.9243 30.6094 36.6674 30.5564 36.3259 30.3588C36.5148 30.0251 36.8889 29.1938 36.8924 29.0215L36.7453 28.7641C35.934 29.9129 34.5757 31.0287 33.447 31.6693C31.9696 32.507 30.2669 32.3772 29.1583 32.0347C26.0127 31.0649 23.0375 28.9388 22.32 28.3799C22.32 28.3799 22.298 28.8256 22.4328 28.9263C23.2255 29.8214 25.0428 31.439 26.7998 32.5679L23.0551 32.9801L24.8256 46.7636C24.0409 46.8756 23.9183 46.9312 23.0596 47.053C22.3023 44.378 20.854 42.6312 19.2705 41.6135C17.8743 40.716 15.9485 40.5139 14.1057 40.8793L13.9871 41.017C15.2688 40.8838 16.7817 41.0692 18.3358 42.0531C19.8611 43.0179 21.0904 45.5095 21.5433 47.0089C22.123 48.9259 22.5238 50.9772 20.9633 53.1509C19.8539 54.6964 16.6147 55.55 13.997 53.7026C14.696 54.827 15.6404 55.7458 16.9131 55.9188C18.8019 56.1757 20.5945 55.8473 21.8284 54.5807C22.8812 53.4977 23.4407 51.233 23.2936 48.8482L24.9607 48.6065L25.5627 52.8871L53.157 49.5641L50.9055 27.6015ZM34.1167 15.9769C34.0399 16.1524 33.9181 16.2681 34.0999 16.8399L34.1106 16.8726L34.1398 16.9468L34.2156 17.118C34.543 17.7879 34.9022 18.4189 35.5042 18.742C35.6596 18.7153 35.8208 18.6979 35.9879 18.6899C36.5528 18.6654 36.9094 18.7543 37.1344 18.8761C37.1548 18.7632 37.1589 18.5989 37.1466 18.3564C37.1025 17.5081 37.3144 16.066 35.6843 15.3068C35.0692 15.0218 34.2058 15.1092 33.9181 15.4658C33.9702 15.4728 34.017 15.4834 34.0542 15.4959C34.49 15.6467 34.1952 15.7967 34.1167 15.9769ZM38.6868 23.8903C38.4733 23.7717 37.4742 23.8187 36.7716 23.9025C35.4335 24.0605 33.9888 24.5237 33.6728 24.771C33.0974 25.2159 33.3585 25.9908 33.784 26.3094C34.9764 27.1999 36.0215 27.7975 37.1237 27.652C37.8008 27.5627 38.3983 26.4902 38.8211 25.5177C39.1105 24.8478 39.1105 24.1251 38.6868 23.8903ZM26.8415 17.026C27.2184 16.6678 24.9625 16.1974 23.2114 17.3916C21.9201 18.2724 21.8786 20.1612 23.1152 21.2318C23.2165 21.3197 23.3236 21.4008 23.4356 21.4746C23.8399 21.283 24.2562 21.1176 24.6817 20.9795C25.4814 20.7199 26.1469 20.5857 26.6932 20.5141C26.9545 20.2219 27.259 19.7076 27.183 18.7755C27.0788 17.5106 26.1222 17.7108 26.8415 17.026Z" fill="white"/>
</svg>
