<svg width="38" height="44" viewBox="0 0 38 44" fill="none" xmlns="http://www.w3.org/2000/svg">
<path d="M37.6468 32.3981L36.9201 30.9115L22.8482 1.98004C22.5673 1.41201 22.1379 0.929227 21.6049 0.582061C21.0719 0.234894 20.4548 0.0360676 19.8179 0.00632621C19.7457 0.00177199 19.6734 -0.000324397 19.601 4.05942e-05C19.0031 -0.000967837 18.4147 0.148747 17.8911 0.435147C17.3674 0.721547 16.9256 1.13525 16.6071 1.63746L0.553014 26.8023C0.185331 27.3701 -0.0068472 28.0323 0.000186382 28.7072C0.00721997 29.3821 0.213158 30.0403 0.592595 30.6004L8.44073 42.3672C8.78152 42.8729 9.24341 43.2868 9.78499 43.5717C10.3266 43.8567 10.9309 44.0038 11.5439 43.9999C11.8946 43.9995 12.2436 43.9508 12.5809 43.8554L35.359 37.3355C35.8604 37.1934 36.3256 36.947 36.7236 36.6127C37.1216 36.2783 37.4434 35.8637 37.6674 35.3964C37.8899 34.9268 38.0035 34.4138 37.9999 33.8949C37.9964 33.3761 37.8757 32.8646 37.6468 32.3981ZM32.0453 33.3472L14.2053 38.4544L20.657 8.54545L32.639 33.1712L32.0437 33.3252L32.0453 33.3472Z" fill="#00BFA5"/>
</svg>
