<svg width="80" height="32" viewBox="0 0 80 32" fill="none" xmlns="http://www.w3.org/2000/svg">
<path d="M0 0V2.188H15.572V0H0ZM17.78 0V2.188H39.968C39.968 2.188 37.7 0 34.7 0H17.78ZM44.324 0V2.188H57.748L56.948 0H44.324ZM67.372 0L66.572 2.188H79.876V0H67.372ZM0 4.256V6.448H15.572V4.256H0ZM17.78 4.26V6.448H42.54C42.54 6.448 42.256 4.764 41.752 4.26H17.78ZM44.324 4.26V6.448H59.22L58.48 4.26H44.324ZM65.78 4.26L65.04 6.448H79.88V4.26H65.78ZM4.476 8.52V10.712H11.22V8.52H4.476ZM22.252 8.52V10.712H29V8.52H22.252ZM35.556 8.52V10.712H42.3C42.3 10.712 42.728 9.552 42.728 8.52H35.556ZM48.796 8.52V10.712H60.756L59.956 8.52H48.796ZM64.308 8.52L63.508 10.712H75.524V8.52H64.308ZM4.48 12.776V14.964H11.224V12.776H4.48ZM22.256 12.776V14.964H39.484C39.484 14.964 40.924 13.844 41.384 12.776H22.256ZM48.8 12.776V14.964H55.544V13.748L55.972 14.968H68.328L68.784 13.748V14.968H75.528V12.776H62.868L62.196 14.632L61.524 12.776H48.8ZM4.48 17.04V19.228H11.224V17.04H4.48ZM22.256 17.04V19.228H41.384C40.924 18.164 39.48 17.04 39.48 17.04H22.256ZM48.8 17.04V19.228H55.544V17.04H48.8ZM56.768 17.04L57.584 19.228H66.848L67.624 17.04H56.768ZM68.784 17.04V19.228H75.528V17.04H68.784ZM4.48 21.292V23.48H11.224V21.292H4.48ZM22.256 21.292V23.48H29V21.292H22.256ZM35.56 21.292V23.48H42.732C42.6977 22.7336 42.5534 21.9963 42.304 21.292H35.56ZM48.8 21.292V23.48H55.544V21.292H48.8ZM58.3 21.292L59.092 23.48H65.3L66.1 21.292H58.3ZM68.784 21.292V23.48H75.528V21.292H68.784ZM0.12 25.548V27.744H15.692V25.548H0.12ZM17.78 25.548V27.744H41.752C42.256 27.24 42.544 25.548 42.544 25.548H17.78ZM44.444 25.548V27.744H55.54V25.548H44.444ZM59.832 25.548L60.644 27.744H63.804L64.564 25.548H59.832ZM68.78 25.548V27.744H80V25.548H68.78ZM0.12 29.812V32H15.692V29.812H0.12ZM17.78 29.812V31.996H34.7C37.7 31.996 39.968 29.812 39.968 29.812H17.78ZM44.444 29.812V32H55.54V29.812H44.444ZM61.372 29.812L62.152 31.996H62.288L63.08 29.812H61.372ZM68.78 29.812V32H80V29.812H68.78Z" fill="white"/>
</svg>
