<svg width="108" height="108" viewBox="0 0 108 108" fill="none" xmlns="http://www.w3.org/2000/svg">
<path d="M19.3846 73.2308C15.3044 73.2308 11.3912 74.8516 8.50605 77.7368C5.62087 80.622 4 84.5351 4 88.6154C4 92.6956 5.62087 96.6088 8.50605 99.4939C11.3912 102.379 15.3044 104 19.3846 104C23.4649 104 27.378 102.379 30.2632 99.4939C33.1484 96.6088 34.7692 92.6956 34.7692 88.6154C34.7692 84.5351 33.1484 80.622 30.2632 77.7368C27.378 74.8516 23.4649 73.2308 19.3846 73.2308ZM19.3846 73.2308L42.4615 30.9231M88.6154 73.2308C84.5351 73.2308 80.622 74.8516 77.7368 77.7368C74.8516 80.622 73.2308 84.5351 73.2308 88.6154C73.2308 92.6956 74.8516 96.6088 77.7368 99.4939C80.622 102.379 84.5351 104 88.6154 104C92.6956 104 96.6088 102.379 99.4939 99.4939C102.379 96.6088 104 92.6956 104 88.6154C104 84.5351 102.379 80.622 99.4939 77.7368C96.6088 74.8516 92.6956 73.2308 88.6154 73.2308ZM88.6154 73.2308L65.5385 30.9231M69.3846 19.3846C69.3846 23.4649 67.7637 27.378 64.8786 30.2632C61.9934 33.1484 58.0803 34.7692 54 34.7692C49.9197 34.7692 46.0066 33.1484 43.1214 30.2632C40.2363 27.378 38.6154 23.4649 38.6154 19.3846C38.6154 15.3044 40.2363 11.3912 43.1214 8.50605C46.0066 5.62087 49.9197 4 54 4C58.0803 4 61.9934 5.62087 64.8786 8.50605C67.7637 11.3912 69.3846 15.3044 69.3846 19.3846Z" stroke="white" stroke-width="8" stroke-linecap="round" stroke-linejoin="round"/>
</svg>
