<svg width="96" height="28" viewBox="0 0 96 28" fill="none" xmlns="http://www.w3.org/2000/svg">
<path d="M92.6266 13.65L83.8136 9.35955V6.80337L95.1906 12.5096V14.8416L83.8136 20.4966V17.9955L92.6266 13.65ZM71.4024 20.8899H67.6232V0.00786835H71.4024V12.2618H71.8035L76.8372 6.43764L79.6805 7.65674L74.8434 12.832L80.5574 19.9461L77.0653 21.1691L71.4024 13.3197V20.8899ZM61.2681 20.882V12.7494C61.2728 12.1972 61.2386 11.6452 61.1659 11.0978C61.1078 10.739 60.9881 10.3931 60.812 10.0753C60.3715 9.2809 59.5981 8.8824 58.4917 8.87978C57.8585 8.86301 57.2325 9.01648 56.6788 9.32416C56.1695 9.619 55.7735 10.0759 55.5541 10.6219C55.4156 10.9525 55.323 11.3005 55.2788 11.6562C55.229 12.1674 55.2067 12.6852 55.212 13.2096V20.8781H51.4327V6.66573H55.212L55.2198 8.57303C55.946 7.78127 56.688 7.20843 57.4457 6.85449C58.206 6.50318 59.0882 6.32753 60.0923 6.32753C61.2196 6.32753 62.1648 6.55955 62.9277 7.0236C63.4025 7.30718 63.8136 7.68588 64.135 8.13593C64.4565 8.58597 64.6814 9.09763 64.7957 9.63876C64.9327 10.2161 65.0039 10.8072 65.008 11.4006C65.0159 11.7938 65.0211 12.2631 65.0238 12.8084V20.882H61.2681ZM45.0856 20.8899L45.0777 18.9826C44.4593 19.6981 43.7038 20.2825 42.8558 20.7011C42.0212 21.068 41.1168 21.2492 40.2052 21.232C39.0857 21.232 38.1419 21.0092 37.3738 20.5635C36.6023 20.1182 36.011 19.417 35.7024 18.5815C35.6125 18.3692 35.5415 18.1494 35.49 17.9247C35.4337 17.6662 35.3903 17.405 35.3603 17.1421C35.3161 16.8057 35.2938 16.4668 35.2934 16.1275L35.2738 14.7315V6.64607H39.0333V14.7865C39.0228 15.3423 39.0569 15.8929 39.1356 16.4382C39.1959 16.8026 39.3138 17.1434 39.4895 17.4607C39.9299 18.2629 40.7033 18.664 41.8097 18.664C43.2254 18.664 44.1955 18.0755 44.7198 16.8983C44.8588 16.5758 44.9558 16.2389 45.0108 15.8876C45.0764 15.3607 45.1052 14.8324 45.0974 14.3028V6.63427H48.853V20.886L45.0856 20.8899ZM29.0603 0H32.8159V20.882H29.0603V0ZM23.4563 13.6067C23.4563 12.0494 23.1417 10.8212 22.5125 9.92191C22.2337 9.49379 21.8498 9.14429 21.3975 8.90676C20.9452 8.66924 20.4395 8.55163 19.9288 8.56517C19.3892 8.55115 18.8551 8.67618 18.3779 8.92825C17.9006 9.18032 17.4962 9.55095 17.2035 10.0045C16.5298 10.9667 16.1981 12.2644 16.2086 13.8978C16.2086 15.4891 16.5363 16.7436 17.1917 17.6612C17.4921 18.0992 17.8984 18.4541 18.3729 18.6927C18.8474 18.9313 19.3745 19.0459 19.9052 19.0258C20.516 19.0428 21.1151 18.856 21.608 18.4949C22.0656 18.1353 22.4377 17.6787 22.6974 17.1579C22.9766 16.6073 23.1732 16.0096 23.2754 15.3961C23.3882 14.8088 23.4485 14.2124 23.4563 13.6067ZM27.4283 13.4652C27.4401 14.5112 27.2709 15.5573 26.9209 16.5562C26.5985 17.4659 26.1213 18.2865 25.4895 19.018C24.2704 20.4376 22.485 21.2478 20.6131 21.232C20.2003 21.2334 19.7882 21.1965 19.3822 21.1219C19.0048 21.047 18.6404 20.9172 18.3007 20.7365C17.9369 20.5447 17.5976 20.3097 17.2901 20.0365C16.9156 19.7131 16.5671 19.3607 16.2479 18.9826V28H12.5945V6.66573H16.2518L16.2676 8.74607C16.9335 7.91236 17.6545 7.29888 18.4305 6.90562C19.2039 6.51236 20.1058 6.31966 21.1361 6.32753C21.9932 6.30955 22.844 6.47862 23.6291 6.82296C24.4142 7.16729 25.1148 7.67863 25.6822 8.32135C26.2642 8.97416 26.7007 9.74101 26.9799 10.5669C27.2945 11.4949 27.4479 12.4742 27.4283 13.4652ZM10.876 16.9652C10.884 17.5671 10.7464 18.1621 10.4749 18.6994C10.212 19.2293 9.83289 19.6931 9.3659 20.0562C8.85204 20.4494 8.28837 20.7378 7.67488 20.9213C6.97958 21.136 6.25534 21.2421 5.52769 21.236C4.67755 21.245 3.83155 21.1162 3.02264 20.8545C2.22116 20.5581 1.47335 20.133 0.808594 19.5961L2.03556 17.6101C2.62283 18.1056 3.15372 18.4661 3.62826 18.6916C4.08444 18.917 4.56683 19.0311 5.07545 19.0337C5.60527 19.0582 6.12613 18.8906 6.5423 18.5618C6.72434 18.4065 6.86854 18.2117 6.96395 17.9923C7.05936 17.7729 7.10345 17.5345 7.09286 17.2955C7.09335 16.835 6.92552 16.3903 6.62095 16.0449C6.39869 15.7946 6.15237 15.5668 5.88556 15.3646C5.48838 15.0519 5.08454 14.7477 4.67432 14.4522C4.29913 14.1862 3.93066 13.9109 3.56927 13.6264C3.21345 13.3512 2.8819 13.0459 2.57826 12.714C2.28427 12.3951 2.04509 12.0296 1.87039 11.6326C1.67923 11.2037 1.58652 10.7374 1.59904 10.268C1.5938 9.7102 1.72046 9.15907 1.96871 8.65955C2.20495 8.17718 2.54788 7.75491 2.97151 7.42472C3.42922 7.06643 3.94918 6.79578 4.50522 6.62641C5.13968 6.42978 5.78724 6.3354 6.44792 6.34326C7.17676 6.34326 7.89118 6.44288 8.59118 6.64214C9.27807 6.83876 9.91777 7.12584 10.5103 7.50337L9.40129 9.28876C8.70603 8.78275 7.87014 8.50641 7.01028 8.49831C6.5531 8.48016 6.1039 8.62202 5.74005 8.89944C5.58207 9.0118 5.45421 9.16137 5.36779 9.3349C5.28136 9.50844 5.23904 9.7006 5.24455 9.89438C5.24455 10.2798 5.40578 10.6534 5.68893 10.9169C5.98256 11.2236 6.48725 11.6496 7.20298 12.1949C7.92919 12.7272 8.52825 13.1925 9.00016 13.591C9.40915 13.9253 9.79455 14.3067 10.1249 14.7157C10.3844 15.0356 10.5745 15.3934 10.6951 15.7893C10.8296 16.1662 10.891 16.5653 10.876 16.9652Z" fill="#DADBDD"/>
</svg>
