<svg width="100" height="100" viewBox="0 0 100 100" fill="none" xmlns="http://www.w3.org/2000/svg">
<path d="M99.715 5.49342L94.5186 0.297017C94.3226 0.100927 94.0774 0.0151367 93.8201 0.0151367C93.5627 0.0151367 93.3176 0.113182 93.1215 0.297017L83.7949 9.62358C79.7405 6.87651 74.9538 5.41188 70.0563 5.41989C63.7814 5.41989 57.5065 7.80974 52.7146 12.6017L40.226 25.0902C40.0436 25.2745 39.9412 25.5234 39.9412 25.7827C39.9412 26.042 40.0436 26.2908 40.226 26.4751L73.5247 59.7738C73.7208 59.9699 73.9659 60.0557 74.2233 60.0557C74.4684 60.0557 74.7257 59.9576 74.9218 59.7738L87.4104 47.2852C95.8545 38.8288 96.8472 25.752 90.3885 16.2171L99.715 6.89057C100.095 6.49838 100.095 5.87335 99.715 5.49342ZM81.5031 41.3903L74.2233 48.6701L51.3297 25.7765L58.6095 18.4967C61.6612 15.445 65.7301 13.7537 70.0563 13.7537C74.3826 13.7537 78.4392 15.4328 81.5031 18.4967C84.5548 21.5483 86.2461 25.6172 86.2461 29.9435C86.2461 34.2697 84.5548 38.3264 81.5031 41.3903ZM58.1929 54.2587C58.0086 54.0763 57.7597 53.9739 57.5004 53.9739C57.2411 53.9739 56.9922 54.0763 56.808 54.2587L48.6457 62.421L37.5788 51.3541L45.7533 43.1796C46.1333 42.7997 46.1333 42.1746 45.7533 41.7947L41.2923 37.3336C41.108 37.1512 40.8592 37.0488 40.5998 37.0488C40.3405 37.0488 40.0917 37.1512 39.9074 37.3336L31.7329 45.5082L26.4629 40.2382C26.3714 40.1467 26.2624 40.0745 26.1424 40.0261C26.0223 39.9776 25.8938 39.9539 25.7644 39.9564C25.5192 39.9564 25.2619 40.0544 25.0658 40.2382L12.5895 52.7268C4.14536 61.1832 3.15265 74.26 9.61138 83.7949L0.284822 93.1214C0.102357 93.3057 0 93.5546 0 93.8139C0 94.0732 0.102357 94.3221 0.284822 94.5063L5.48123 99.7027C5.67732 99.8988 5.92243 99.9846 6.1798 99.9846C6.43717 99.9846 6.68228 99.8866 6.87837 99.7027L16.2049 90.3762C20.3351 93.1827 25.1393 94.5799 29.9435 94.5799C36.2184 94.5799 42.4933 92.19 47.2853 87.398L59.7738 74.9095C60.1538 74.5296 60.1538 73.9046 59.7738 73.5246L54.5039 68.2547L62.6784 60.0802C63.0583 59.7002 63.0583 59.0752 62.6784 58.6953L58.1929 54.2587ZM41.3781 81.5153C39.8781 83.023 38.0942 84.2184 36.1294 85.0325C34.1646 85.8466 32.058 86.2632 29.9313 86.2583C25.605 86.2583 21.5484 84.5792 18.4845 81.5153C16.9768 80.0153 15.7814 78.2314 14.9673 76.2667C14.1532 74.3019 13.7366 72.1953 13.7415 70.0685C13.7415 65.7423 15.4206 61.6857 18.4845 58.6217L25.7644 51.3419L48.6579 74.2355L41.3781 81.5153Z" fill="url(#paint0_linear_411_185)"/>
<defs>
<linearGradient id="paint0_linear_411_185" x1="0" y1="49.9999" x2="100" y2="49.9999" gradientUnits="userSpaceOnUse">
<stop stop-color="#A95CEC"/>
<stop offset="1" stop-color="#DA22FF"/>
</linearGradient>
</defs>
</svg>
