<svg width="47" height="44" viewBox="0 0 47 44" fill="none" xmlns="http://www.w3.org/2000/svg">
<path d="M23.5004 0C11.0376 0 0.943368 10.0943 0.943368 22.557C0.939283 27.2924 2.42707 31.9087 5.19549 35.7506C7.9639 39.5924 11.8722 42.4646 16.3656 43.9591C17.4935 44.1554 17.9175 43.4786 17.9175 42.8854C17.9175 42.3508 17.8882 40.5756 17.8882 38.6853C12.2219 39.7297 10.7557 37.3048 10.3045 36.0348C10.0496 35.3852 8.95111 33.3844 7.99243 32.8475C7.20294 32.4257 6.07509 31.3813 7.96311 31.3542C9.7406 31.3249 11.0083 32.9896 11.4324 33.6663C13.4625 37.077 16.704 36.1183 18.001 35.5273C18.1995 34.0611 18.7905 33.0754 19.4401 32.5114C14.4212 31.9475 9.17668 30.0008 9.17668 21.3728C9.17668 18.9186 10.0496 16.8907 11.4888 15.3117C11.2632 14.7478 10.4737 12.4357 11.7143 9.33409C11.7143 9.33409 13.6024 8.74084 17.9175 11.6439C19.754 11.1356 21.6512 10.8799 23.5568 10.8838C25.4741 10.8838 27.3915 11.1364 29.196 11.6439C33.5112 8.71152 35.3992 9.33409 35.3992 9.33409C36.6398 12.4357 35.8503 14.7478 35.6248 15.3117C37.0617 16.8907 37.9369 18.8915 37.9369 21.3728C37.9369 30.0302 32.6653 31.9475 27.6464 32.5114C28.4629 33.2152 29.169 34.5686 29.169 36.6845C29.169 39.7003 29.1396 42.1252 29.1396 42.8877C29.1396 43.4786 29.5637 44.1824 30.6916 43.9569C35.168 42.4435 39.0576 39.5652 41.8134 35.7267C44.5692 31.8881 46.0527 27.2824 46.0551 22.557C46.0551 10.0943 35.9609 0 23.4981 0" fill="#DADBDD"/>
</svg>
