<svg width="127" height="45" viewBox="0 0 127 45" fill="none" xmlns="http://www.w3.org/2000/svg">
<mask id="path-1-outside-1_572_3193" maskUnits="userSpaceOnUse" x="0" y="0" width="127" height="45" fill="black">
<rect fill="white" width="127" height="45"/>
<path d="M11.872 35.392H29.456V42H2.8V35.952L20.272 9.52H2.8V2.912H29.456V8.96L11.872 35.392ZM65.5296 25.816C65.5296 26.936 65.455 27.944 65.3056 28.84H42.6256C42.8123 31.08 43.5963 32.8347 44.9776 34.104C46.359 35.3733 48.0576 36.008 50.0736 36.008C52.9856 36.008 55.0576 34.7573 56.2896 32.256H64.7456C63.8496 35.2427 62.1323 37.7067 59.5936 39.648C57.055 41.552 53.9376 42.504 50.2416 42.504C47.255 42.504 44.567 41.8507 42.1776 40.544C39.8256 39.2 37.9776 37.3147 36.6336 34.888C35.327 32.4613 34.6736 29.6613 34.6736 26.488C34.6736 23.2773 35.327 20.4587 36.6336 18.032C37.9403 15.6053 39.7696 13.7387 42.1216 12.432C44.4736 11.1253 47.1803 10.472 50.2416 10.472C53.191 10.472 55.823 11.1067 58.1376 12.376C60.4896 13.6453 62.3003 15.456 63.5696 17.808C64.8763 20.1227 65.5296 22.792 65.5296 25.816ZM57.4096 23.576C57.3723 21.56 56.6443 19.9547 55.2256 18.76C53.807 17.528 52.071 16.912 50.0176 16.912C48.0763 16.912 46.4336 17.5093 45.0896 18.704C43.783 19.8613 42.9803 21.4853 42.6816 23.576H57.4096ZM79.6521 15.792C80.6601 14.1493 81.9668 12.8613 83.5721 11.928C85.2148 10.9947 87.0815 10.528 89.1721 10.528V18.76H87.1001C84.6361 18.76 82.7695 19.3387 81.5001 20.496C80.2681 21.6533 79.6521 23.6693 79.6521 26.544V42H71.8121V10.976H79.6521V15.792ZM108.789 42.504C105.802 42.504 103.114 41.8507 100.725 40.544C98.3354 39.2 96.4501 37.3147 95.0688 34.888C93.7248 32.4613 93.0528 29.6613 93.0528 26.488C93.0528 23.3147 93.7434 20.5147 95.1248 18.088C96.5434 15.6613 98.4661 13.7947 100.893 12.488C103.319 11.144 106.026 10.472 109.013 10.472C111.999 10.472 114.706 11.144 117.133 12.488C119.559 13.7947 121.463 15.6613 122.845 18.088C124.263 20.5147 124.973 23.3147 124.973 26.488C124.973 29.6613 124.245 32.4613 122.789 34.888C121.37 37.3147 119.429 39.2 116.965 40.544C114.538 41.8507 111.813 42.504 108.789 42.504ZM108.789 35.672C110.207 35.672 111.533 35.336 112.765 34.664C114.034 33.9547 115.042 32.9093 115.789 31.528C116.535 30.1467 116.909 28.4667 116.909 26.488C116.909 23.5387 116.125 21.28 114.557 19.712C113.026 18.1067 111.141 17.304 108.901 17.304C106.661 17.304 104.775 18.1067 103.245 19.712C101.751 21.28 101.005 23.5387 101.005 26.488C101.005 29.4373 101.733 31.7147 103.189 33.32C104.682 34.888 106.549 35.672 108.789 35.672Z"/>
</mask>
<path d="M11.872 35.392L10.2068 34.2842L8.13936 37.392H11.872V35.392ZM29.456 35.392H31.456V33.392H29.456V35.392ZM29.456 42V44H31.456V42H29.456ZM2.8 42H0.8V44H2.8V42ZM2.8 35.952L1.13156 34.8491L0.8 35.3507V35.952H2.8ZM20.272 9.52L21.9404 10.6229L23.9915 7.52H20.272V9.52ZM2.8 9.52H0.8V11.52H2.8V9.52ZM2.8 2.912V0.911999H0.8V2.912H2.8ZM29.456 2.912H31.456V0.911999H29.456V2.912ZM29.456 8.96L31.1212 10.0678L31.456 9.56448V8.96H29.456ZM11.872 35.392V37.392H29.456V35.392V33.392H11.872V35.392ZM29.456 35.392H27.456V42H29.456H31.456V35.392H29.456ZM29.456 42V40H2.8V42V44H29.456V42ZM2.8 42H4.8V35.952H2.8H0.8V42H2.8ZM2.8 35.952L4.46844 37.0549L21.9404 10.6229L20.272 9.52L18.6036 8.41713L1.13156 34.8491L2.8 35.952ZM20.272 9.52V7.52H2.8V9.52V11.52H20.272V9.52ZM2.8 9.52H4.8V2.912H2.8H0.8V9.52H2.8ZM2.8 2.912V4.912H29.456V2.912V0.911999H2.8V2.912ZM29.456 2.912H27.456V8.96H29.456H31.456V2.912H29.456ZM29.456 8.96L27.7908 7.85223L10.2068 34.2842L11.872 35.392L13.5372 36.4998L31.1212 10.0678L29.456 8.96ZM65.3056 28.84V30.84H66.9999L67.2784 29.1688L65.3056 28.84ZM42.6256 28.84V26.84H40.452L40.6325 29.0061L42.6256 28.84ZM44.9776 34.104L43.6244 35.5767H43.6244L44.9776 34.104ZM56.2896 32.256V30.256H55.0453L54.4954 31.3723L56.2896 32.256ZM64.7456 32.256L66.6613 32.8307L67.4337 30.256H64.7456V32.256ZM59.5936 39.648L60.7936 41.248L60.8011 41.2424L60.8085 41.2367L59.5936 39.648ZM42.1776 40.544L41.1853 42.2805L41.2016 42.2898L41.218 42.2987L42.1776 40.544ZM36.6336 34.888L34.8727 35.8362L34.8783 35.8466L34.884 35.857L36.6336 34.888ZM36.6336 18.032L34.8727 17.0838L36.6336 18.032ZM42.1216 12.432L43.0929 14.1803L43.0929 14.1803L42.1216 12.432ZM58.1376 12.376L57.1759 14.1297L57.1878 14.136L58.1376 12.376ZM63.5696 17.808L61.8096 18.7579L61.8186 18.7746L61.828 18.7912L63.5696 17.808ZM57.4096 23.576V25.576H59.447L59.4093 23.539L57.4096 23.576ZM55.2256 18.76L53.9143 20.2701L53.9257 20.28L53.9374 20.2898L55.2256 18.76ZM45.0896 18.704L46.4157 20.2012L46.4184 20.1988L45.0896 18.704ZM42.6816 23.576L40.7017 23.2932L40.3756 25.576H42.6816V23.576ZM65.5296 25.816H63.5296C63.5296 26.8501 63.4605 27.7455 63.3328 28.5112L65.3056 28.84L67.2784 29.1688C67.4495 28.1425 67.5296 27.0219 67.5296 25.816H65.5296ZM65.3056 28.84V26.84H42.6256V28.84V30.84H65.3056V28.84ZM42.6256 28.84L40.6325 29.0061C40.8522 31.6416 41.8025 33.9025 43.6244 35.5767L44.9776 34.104L46.3309 32.6313C45.3901 31.7668 44.7724 30.5184 44.6187 28.6739L42.6256 28.84ZM44.9776 34.104L43.6244 35.5767C45.4038 37.2118 47.5972 38.008 50.0736 38.008V36.008V34.008C48.518 34.008 47.3141 33.5349 46.3309 32.6313L44.9776 34.104ZM50.0736 36.008V38.008C51.8196 38.008 53.4393 37.6309 54.8452 36.7823C56.2563 35.9305 57.3251 34.6802 58.0838 33.1397L56.2896 32.256L54.4954 31.3723C54.0222 32.3331 53.439 32.9588 52.7781 33.3577C52.112 33.7598 51.2397 34.008 50.0736 34.008V36.008ZM56.2896 32.256V34.256H64.7456V32.256V30.256H56.2896V32.256ZM64.7456 32.256L62.83 31.6813C62.0582 34.254 60.5918 36.3669 58.3787 38.0593L59.5936 39.648L60.8085 41.2367C63.6728 39.0464 65.6411 36.2313 66.6613 32.8307L64.7456 32.256ZM59.5936 39.648L58.3936 38.048C56.256 39.6512 53.5789 40.504 50.2416 40.504V42.504V44.504C54.2964 44.504 57.8539 43.4528 60.7936 41.248L59.5936 39.648ZM50.2416 42.504V40.504C47.5571 40.504 45.2045 39.9198 43.1373 38.7893L42.1776 40.544L41.218 42.2987C43.9294 43.7815 46.9528 44.504 50.2416 44.504V42.504ZM42.1776 40.544L43.1699 38.8075C41.1438 37.6497 39.5543 36.0334 38.3832 33.919L36.6336 34.888L34.884 35.857C36.401 38.5959 38.5075 40.7503 41.1853 42.2805L42.1776 40.544ZM36.6336 34.888L38.3946 33.9398C37.2671 31.846 36.6736 29.3809 36.6736 26.488H34.6736H32.6736C32.6736 29.9418 33.3868 33.0767 34.8727 35.8362L36.6336 34.888ZM34.6736 26.488H36.6736C36.6736 23.5535 37.2689 21.0707 38.3946 18.9802L36.6336 18.032L34.8727 17.0838C33.385 19.8466 32.6736 23.0012 32.6736 26.488H34.6736ZM36.6336 18.032L38.3946 18.9802C39.5246 16.8816 41.0837 15.2965 43.0929 14.1803L42.1216 12.432L41.1503 10.6837C38.4555 12.1808 36.356 14.3291 34.8727 17.0838L36.6336 18.032ZM42.1216 12.432L43.0929 14.1803C45.1089 13.0603 47.4727 12.472 50.2416 12.472V10.472V8.472C46.8879 8.472 43.8384 9.19033 41.1503 10.6837L42.1216 12.432ZM50.2416 10.472V12.472C52.8949 12.472 55.1893 13.0402 57.176 14.1296L58.1376 12.376L59.0993 10.6224C56.4566 9.17315 53.487 8.472 50.2416 8.472V10.472ZM58.1376 12.376L57.1878 14.136C59.1965 15.2201 60.7255 16.7492 61.8096 18.7579L63.5696 17.808L65.3297 16.8581C63.8751 14.1628 61.7828 12.0706 59.0875 10.616L58.1376 12.376ZM63.5696 17.808L61.828 18.7912C62.9431 20.7665 63.5296 23.0883 63.5296 25.816H65.5296H67.5296C67.5296 22.4956 66.8095 19.4788 65.3113 16.8248L63.5696 17.808ZM57.4096 23.576L59.4093 23.539C59.3623 21.0027 58.4155 18.8315 56.5139 17.2302L55.2256 18.76L53.9374 20.2898C54.8731 21.0778 55.3823 22.1173 55.41 23.613L57.4096 23.576ZM55.2256 18.76L56.537 17.2499C54.7197 15.6717 52.5046 14.912 50.0176 14.912V16.912V18.912C51.6373 18.912 52.8942 19.3843 53.9143 20.2701L55.2256 18.76ZM50.0176 16.912V14.912C47.6288 14.912 45.5014 15.662 43.7609 17.2092L45.0896 18.704L46.4184 20.1988C47.3658 19.3566 48.5238 18.912 50.0176 18.912V16.912ZM45.0896 18.704L43.7636 17.2068C42.0312 18.7412 41.0528 20.8357 40.7017 23.2932L42.6816 23.576L44.6615 23.8588C44.9078 22.135 45.5347 20.9815 46.4157 20.2012L45.0896 18.704ZM42.6816 23.576V25.576H57.4096V23.576V21.576H42.6816V23.576ZM79.6521 15.792H77.6521V22.8752L81.3568 16.838L79.6521 15.792ZM83.5721 11.928L82.5841 10.1891L82.5755 10.194L82.5669 10.199L83.5721 11.928ZM89.1721 10.528H91.1721V8.528H89.1721V10.528ZM89.1721 18.76V20.76H91.1721V18.76H89.1721ZM81.5001 20.496L80.1526 19.0181L80.1416 19.0281L80.1308 19.0383L81.5001 20.496ZM79.6521 42V44H81.6521V42H79.6521ZM71.8121 42H69.8121V44H71.8121V42ZM71.8121 10.976V8.976H69.8121V10.976H71.8121ZM79.6521 10.976H81.6521V8.976H79.6521V10.976ZM79.6521 15.792L81.3568 16.838C82.1985 15.4663 83.2691 14.4176 84.5774 13.657L83.5721 11.928L82.5669 10.199C80.6645 11.305 79.1217 12.8324 77.9475 14.746L79.6521 15.792ZM83.5721 11.928L84.5602 13.6669C85.8704 12.9225 87.39 12.528 89.1721 12.528V10.528V8.528C86.7729 8.528 84.5592 9.06688 82.5841 10.1891L83.5721 11.928ZM89.1721 10.528H87.1721V18.76H89.1721H91.1721V10.528H89.1721ZM89.1721 18.76V16.76H87.1001V18.76V20.76H89.1721V18.76ZM87.1001 18.76V16.76C84.3524 16.76 81.9231 17.4038 80.1526 19.0181L81.5001 20.496L82.8476 21.9739C83.6158 21.2735 84.9198 20.76 87.1001 20.76V18.76ZM81.5001 20.496L80.1308 19.0383C78.2907 20.7669 77.6521 23.4832 77.6521 26.544H79.6521H81.6521C81.6521 23.8555 82.2456 22.5398 82.8695 21.9537L81.5001 20.496ZM79.6521 26.544H77.6521V42H79.6521H81.6521V26.544H79.6521ZM79.6521 42V40H71.8121V42V44H79.6521V42ZM71.8121 42H73.8121V10.976H71.8121H69.8121V42H71.8121ZM71.8121 10.976V12.976H79.6521V10.976V8.976H71.8121V10.976ZM79.6521 10.976H77.6521V15.792H79.6521H81.6521V10.976H79.6521ZM100.725 40.544L99.7442 42.2872L99.7546 42.293L99.7651 42.2987L100.725 40.544ZM95.0687 34.888L93.3192 35.857L93.3248 35.8672L93.3306 35.8774L95.0687 34.888ZM95.1247 18.088L93.3982 17.0786L93.3923 17.0886L93.3866 17.0986L95.1247 18.088ZM100.893 12.488L101.841 14.2489L101.851 14.2433L101.862 14.2376L100.893 12.488ZM117.133 12.488L116.164 14.2376L116.174 14.2433L116.185 14.2489L117.133 12.488ZM122.845 18.088L121.107 19.0774L121.112 19.0874L121.118 19.0974L122.845 18.088ZM122.789 34.888L121.074 33.859L121.068 33.8688L121.062 33.8786L122.789 34.888ZM116.965 40.544L117.913 42.305L117.922 42.2998L116.965 40.544ZM112.765 34.664L113.722 36.4198L113.731 36.4149L113.74 36.4099L112.765 34.664ZM115.789 31.528L117.548 32.479V32.479L115.789 31.528ZM114.557 19.712L113.109 21.0921L113.126 21.1094L113.143 21.1262L114.557 19.712ZM103.245 19.712L101.797 18.3318L101.796 18.3327L103.245 19.712ZM103.189 33.32L101.707 34.6636L101.724 34.6817L101.74 34.6993L103.189 33.32ZM108.789 42.504V40.504C106.104 40.504 103.752 39.9198 101.684 38.7893L100.725 40.544L99.7651 42.2987C102.477 43.7815 105.5 44.504 108.789 44.504V42.504ZM100.725 40.544L101.705 38.8008C99.6383 37.6382 98.0122 36.0161 96.8069 33.8986L95.0687 34.888L93.3306 35.8774C94.8879 38.6132 97.0325 40.7618 99.7442 42.2872L100.725 40.544ZM95.0687 34.888L96.8183 33.919C95.661 31.8293 95.0527 29.3717 95.0527 26.488H93.0527H91.0527C91.0527 29.9509 91.7885 33.0934 93.3192 35.857L95.0687 34.888ZM93.0527 26.488H95.0527C95.0527 23.6135 95.6755 21.1633 96.8629 19.0774L95.1247 18.088L93.3866 17.0986C91.8113 19.866 91.0527 23.0159 91.0527 26.488H93.0527ZM95.1247 18.088L96.8513 19.0974C98.0884 16.9814 99.7446 15.3778 101.841 14.2489L100.893 12.488L99.9445 10.7271C97.1876 12.2116 94.9984 14.3413 93.3982 17.0786L95.1247 18.088ZM100.893 12.488L101.862 14.2376C103.969 13.0703 106.338 12.472 109.013 12.472V10.472V8.472C105.714 8.472 102.67 9.21767 99.9238 10.7384L100.893 12.488ZM109.013 10.472V12.472C111.687 12.472 114.056 13.0703 116.164 14.2376L117.133 12.488L118.102 10.7384C115.356 9.21767 112.312 8.472 109.013 8.472V10.472ZM117.133 12.488L116.185 14.2489C118.276 15.3752 119.908 16.9724 121.107 19.0774L122.845 18.088L124.583 17.0986C123.018 14.3503 120.843 12.2141 118.081 10.7271L117.133 12.488ZM122.845 18.088L121.118 19.0974C122.336 21.1799 122.973 23.6227 122.973 26.488H124.973H126.973C126.973 23.0066 126.191 19.8495 124.571 17.0786L122.845 18.088ZM124.973 26.488H122.973C122.973 29.3439 122.321 31.7797 121.074 33.859L122.789 34.888L124.504 35.917C126.168 33.143 126.973 29.9787 126.973 26.488H124.973ZM122.789 34.888L121.062 33.8786C119.827 35.9917 118.151 37.6187 116.007 38.7882L116.965 40.544L117.922 42.2998C120.706 40.7813 122.913 38.6377 124.515 35.8974L122.789 34.888ZM116.965 40.544L116.017 38.7831C113.909 39.9179 111.515 40.504 108.789 40.504V42.504V44.504C112.111 44.504 115.167 43.7834 117.913 42.3049L116.965 40.544ZM108.789 35.672V37.672C110.538 37.672 112.193 37.2538 113.722 36.4198L112.765 34.664L111.807 32.9082C110.872 33.4181 109.877 33.672 108.789 33.672V35.672ZM112.765 34.664L113.74 36.4099C115.368 35.5005 116.636 34.1665 117.548 32.479L115.789 31.528L114.029 30.577C113.448 31.6521 112.701 32.4088 111.789 32.9181L112.765 34.664ZM115.789 31.528L117.548 32.479C118.489 30.7392 118.909 28.7141 118.909 26.488H116.909H114.909C114.909 28.2193 114.582 29.5541 114.029 30.577L115.789 31.528ZM116.909 26.488H118.909C118.909 23.1893 118.025 20.3519 115.971 18.2978L114.557 19.712L113.143 21.1262C114.224 22.2081 114.909 23.8881 114.909 26.488H116.909ZM114.557 19.712L116.004 18.3318C114.092 16.3263 111.682 15.304 108.901 15.304V17.304V19.304C110.6 19.304 111.96 19.8871 113.109 21.0921L114.557 19.712ZM108.901 17.304V15.304C106.12 15.304 103.71 16.3263 101.797 18.3318L103.245 19.712L104.692 21.0921C105.841 19.8871 107.202 19.304 108.901 19.304V17.304ZM103.245 19.712L101.796 18.3327C99.837 20.3901 99.0048 23.2143 99.0048 26.488H101.005H103.005C103.005 23.863 103.666 22.1699 104.693 21.0913L103.245 19.712ZM101.005 26.488H99.0048C99.0048 29.7529 99.8131 32.5752 101.707 34.6636L103.189 33.32L104.67 31.9764C103.652 30.8541 103.005 29.1218 103.005 26.488H101.005ZM103.189 33.32L101.74 34.6993C103.626 36.6788 106.023 37.672 108.789 37.672V35.672V33.672C107.075 33.672 105.738 33.0972 104.637 31.9407L103.189 33.32Z" fill="#ECEDEE" mask="url(#path-1-outside-1_572_3193)"/>
</svg>
